<?xml version="1.0" standalone="no"?>
<!DOCTYPE svg PUBLIC "-//W3C//DTD SVG 1.1//EN" "http://www.w3.org/Graphics/SVG/1.1/DTD/svg11.dtd">
<!--Generator: Xara Xtreme (www.xara.com), SVG filter version: 1.0.0.13-->
<svg stroke-width="0.501" stroke-linejoin="bevel" fill-rule="evenodd" xmlns:xlink="http://www.w3.org/1999/xlink" xmlns="http://www.w3.org/2000/svg" version="1.1" overflow="visible" width="841.891pt" height="595.277pt" viewBox="0 0 841.891 595.277">
 <defs>
  <marker id="DefaultArrow2" markerUnits="strokeWidth" viewBox="0 0 1 1" markerWidth="1" markerHeight="1" overflow="visible" orient="auto">
   <!-- REF_ARROW_STRAIGHT (-2) -->
   <g transform="scale(0.0092592592)">
    <!-- 1/108 -->
    <path d="M -9 54 L -9 -54 L 117 0 z"/>
   </g>
  </marker>
  <marker id="DefaultArrow3" markerUnits="strokeWidth" viewBox="0 0 1 1" markerWidth="1" markerHeight="1" overflow="visible" orient="auto">
   <!-- REF_ARROW_ANGLED -->
   <g transform="scale(0.0092592592)">
    <path d="M -27 54 L -9 0 L -27 -54 L 135 0 z"/>
   </g>
  </marker>
  <marker id="DefaultArrow4" markerUnits="strokeWidth" viewBox="0 0 1 1" markerWidth="1" markerHeight="1" overflow="visible" orient="auto">
   <!-- REF_ARROW_ROUNDED -->
   <g transform="scale(0.0092592592)">
    <path d="M -9,0 L -9,-45 C -9,-51.708 2.808,-56.580 9,-54 L 117,-9 C 120.916,-7.369 126.000,-4.242 126,0 C 126,4.242 120.916,7.369 117,9 L 9,54 C 2.808,56.580 -9,51.708 -9,45 z"/>
   </g>
  </marker>
  <marker id="DefaultArrow5" markerUnits="strokeWidth" viewBox="0 0 1 1" markerWidth="1" markerHeight="1" overflow="visible" orient="auto">
   <!-- REF_ARROW_SPOT -->
   <g transform="scale(0.0092592592)">
    <path d="M -54, 0 C -54,29.807 -29.807,54 0,54 C 29.807,54 54,29.807 54,0 C 54,-29.807 29.807,-54 0,-54 C -29.807,-54 -54,-29.807 -54,0 z"/>
   </g>
  </marker>
  <marker id="DefaultArrow6" markerUnits="strokeWidth" viewBox="0 0 1 1" markerWidth="1" markerHeight="1" overflow="visible" orient="auto">
   <!-- REF_ARROW_DIAMOND -->
   <g transform="scale(0.0092592592)">
    <path d="M -63,0 L 0,63 L 63,0 L 0,-63 z"/>
   </g>
  </marker>
  <marker id="DefaultArrow7" markerUnits="strokeWidth" viewBox="0 0 1 1" markerWidth="1" markerHeight="1" overflow="visible" orient="auto">
   <!-- REF_ARROW_FEATHER -->
   <g transform="scale(0.0092592592)">
    <path d="M 18,-54 L 108,-54 L 63,0 L 108,54 L 18, 54 L -36,0 z"/>
   </g>
  </marker>
  <marker id="DefaultArrow8" markerUnits="strokeWidth" viewBox="0 0 1 1" markerWidth="1" markerHeight="1" overflow="visible" orient="auto">
   <!-- REF_ARROW_FEATHER2 -->
   <g transform="scale(0.0092592592)">
    <path d="M -36,0 L 18,-54 L 54,-54 L 18,-18 L 27,-18 L 63,-54 L 99,-54 L 63,-18 L 72,-18 L 108,-54 L 144,-54 L 90,0 L 144,54 L 108,54 L 72,18 L 63,18 L 99,54 L 63,54 L 27,18 L 18,18 L 54,54 L 18,54 z"/>
   </g>
  </marker>
  <marker id="DefaultArrow9" markerUnits="strokeWidth" viewBox="0 0 1 1" markerWidth="1" markerHeight="1" overflow="visible" orient="auto">
   <!-- REF_ARROW_HOLLOWDIAMOND -->
   <g transform="scale(0.0092592592)">
    <path d="M 0,45 L -45,0 L 0, -45 L 45, 0 z M 0, 63 L-63, 0 L 0, -63 L 63, 0 z"/>
   </g>
  </marker>
  <filter id="StainedFilter">
   <feBlend mode="multiply" in2="BackgroundImage" in="SourceGraphic" result="blend"/>
   <feComposite in="blend" in2="SourceAlpha" operator="in" result="comp"/>
  </filter>
  <filter id="BleachFilter">
   <feBlend mode="screen" in2="BackgroundImage" in="SourceGraphic" result="blend"/>
   <feComposite in="blend" in2="SourceAlpha" operator="in" result="comp"/>
  </filter>
  <filter id="InvertTransparencyBitmapFilter">
   <feComponentTransfer>
    <feFuncR type="gamma" amplitude="1.055" exponent=".416666666" offset="-0.055"/>
    <feFuncG type="gamma" amplitude="1.055" exponent=".416666666" offset="-0.055"/>
    <feFuncB type="gamma" amplitude="1.055" exponent=".416666666" offset="-0.055"/>
   </feComponentTransfer>
   <feComponentTransfer>
    <feFuncR type="linear" slope="-1" intercept="1"/>
    <feFuncG type="linear" slope="-1" intercept="1"/>
    <feFuncB type="linear" slope="-1" intercept="1"/>
    <feFuncA type="linear" slope="1" intercept="0"/>
   </feComponentTransfer>
   <feComponentTransfer>
    <feFuncR type="gamma" amplitude="1" exponent="2.4" offset="0"/>
    <feFuncG type="gamma" amplitude="1" exponent="2.4" offset="0"/>
    <feFuncB type="gamma" amplitude="1" exponent="2.4" offset="0"/>
   </feComponentTransfer>
  </filter>
 </defs>
 <g id="Document" fill="none" stroke="black" font-family="Times New Roman" font-size="16" transform="scale(1 -1)">
  <g id="Spread" transform="translate(0 -595.277)">
   <g id="Layer 1"/>
   <g id="logo">
    <g id="Group">
     <path d="M 380.09,307.711 L 380.09,309.759 C 380.09,309.961 380.254,310.126 380.456,310.126 L 413.739,310.126 C 413.941,310.126 414.105,309.961 414.105,309.759 L 414.105,307.711 L 380.09,307.711 Z" fill="#191919" stroke-linejoin="miter" stroke-width="0.052" stroke="none" marker-start="none" marker-end="none" stroke-miterlimit="79.8403193612775"/>
     <g id="Group_1" stroke-linejoin="miter" stroke-width="0.052" stroke-miterlimit="79.8403193612775">
      <path d="M 388.372,319.942 L 388.372,317.409 L 390.937,317.409 L 390.937,319.942 L 388.372,319.942 Z" stroke="#cccccc" fill="#999999" marker-start="none" marker-end="none"/>
      <path d="M 387.183,320.502 L 387.183,319.381 C 387.183,319.259 387.283,319.16 387.404,319.16 L 391.904,319.16 C 392.026,319.16 392.126,319.259 392.126,319.381 L 392.126,320.502 C 392.126,320.624 392.026,320.723 391.904,320.723 L 387.404,320.723 C 387.283,320.723 387.183,320.624 387.183,320.502 Z" stroke="#cccccc" fill="#999999" marker-start="none" marker-end="none"/>
      <path d="M 388.622,320.722 L 388.622,319.161 L 390.717,319.161 L 390.717,320.722 L 388.622,320.722 Z" stroke="#b2b2b2" fill="#7f7f7f" marker-start="none" marker-end="none"/>
      <path d="M 387.3,318.065 L 387.3,317.772 L 392.065,317.772 L 392.065,318.065 L 387.3,318.065 Z" stroke="#cccccc" fill="#7f7f7f" marker-start="none" marker-end="none"/>
     </g>
     <g id="Group_2" stroke-linejoin="miter" stroke-width="0.052" stroke-miterlimit="79.8403193612775">
      <path d="M 404.055,319.907 L 404.055,317.374 L 406.62,317.374 L 406.62,319.907 L 404.055,319.907 Z" stroke="#cccccc" fill="#999999" marker-start="none" marker-end="none"/>
      <path d="M 402.866,320.468 L 402.866,319.347 C 402.866,319.225 402.966,319.126 403.087,319.126 L 407.587,319.126 C 407.709,319.126 407.809,319.225 407.809,319.347 L 407.809,320.468 C 407.809,320.59 407.709,320.689 407.587,320.689 L 403.087,320.689 C 402.966,320.689 402.866,320.59 402.866,320.468 Z" stroke="#cccccc" fill="#999999" marker-start="none" marker-end="none"/>
      <path d="M 404.306,320.688 L 404.306,319.127 L 406.401,319.127 L 406.401,320.688 L 404.306,320.688 Z" stroke="#b2b2b2" fill="#7f7f7f" marker-start="none" marker-end="none"/>
      <path d="M 402.983,318.031 L 402.983,317.738 L 407.748,317.738 L 407.748,318.031 L 402.983,318.031 Z" stroke="#cccccc" fill="#7f7f7f" marker-start="none" marker-end="none"/>
     </g>
     <path d="M 386.217,316.403 L 386.217,308.886 C 386.217,308.178 386.792,307.603 387.5,307.603 L 407.651,307.603 C 408.359,307.603 408.934,308.178 408.934,308.886 L 408.934,316.403 C 408.934,317.111 408.359,317.686 407.651,317.686 L 387.5,317.686 C 386.792,317.686 386.217,317.111 386.217,316.403 Z" stroke="none" fill="#0485e8" stroke-width="0.052" marker-start="none" marker-end="none" stroke-miterlimit="79.8403193612775"/>
     <g id="Group_3" fill="#0485e8">
      <path d="M 402.417,310.048 C 402.78,310.048 403.075,309.753 403.075,309.39 C 403.075,309.027 402.78,308.732 402.417,308.732 C 402.054,308.732 401.76,309.027 401.76,309.39 C 401.76,309.753 402.054,310.048 402.417,310.048 Z" stroke="#ffffff" stroke-width="0.196" marker-start="none" marker-end="none" stroke-miterlimit="79.8403193612775"/>
      <path d="M 402.551,310.318 L 402.551,308.595 L 403.272,308.595 L 403.272,310.318 L 402.551,310.318 Z" stroke-width="0.097" stroke="none" stroke-linejoin="miter" marker-start="none" marker-end="none" stroke-miterlimit="79.8403193612775"/>
      <path d="M 403.661,310.067 C 404.024,310.067 404.318,309.773 404.318,309.41 C 404.318,309.046 404.024,308.752 403.661,308.752 C 403.297,308.752 403.003,309.046 403.003,309.41 C 403.003,309.773 403.297,310.067 403.661,310.067 Z" stroke="#ffffff" stroke-width="0.196" marker-start="none" marker-end="none" stroke-miterlimit="79.8403193612775"/>
      <path d="M 403.043,309.398 L 403.662,309.398" fill="none" stroke="#ffffff" stroke-width="0.196" stroke-miterlimit="79.8403193612775"/>
      <path d="M 403.847,310.274 L 403.847,308.551 L 404.482,308.551 L 404.482,310.274 L 403.847,310.274 Z" stroke-width="0.097" stroke="none" stroke-linejoin="miter" marker-start="none" marker-end="none" stroke-miterlimit="79.8403193612775"/>
     </g>
     <path d="M 391.044,311.535 L 391.044,310.728 L 404.239,310.728 L 404.239,311.535 L 391.044,311.535 Z" stroke="none" fill="#ff8200" stroke-width="0.052" stroke-linejoin="miter" marker-start="none" marker-end="none" stroke-miterlimit="79.8403193612775"/>
     <g id="Group_4">
      <path d="M 400.969,315.197 C 401.307,315.197 401.581,314.835 401.581,314.39 C 401.581,313.944 401.307,313.582 400.969,313.582 C 400.63,313.582 400.356,313.944 400.356,314.39 C 400.356,314.835 400.63,315.197 400.969,315.197 Z" stroke="#ffffff" fill="#ffffff" stroke-width="0.074" marker-start="none" marker-end="none" stroke-miterlimit="79.8403193612775"/>
      <g id="Group_5" stroke-linecap="round" stroke="#0485e8" stroke-width="0.149" fill="#0485e8" stroke-miterlimit="79.8403193612775">
       <path d="M 400.627,314.653 L 401.248,314.14" fill="none"/>
       <path d="M 401.237,314.133 L 400.936,313.833 L 400.936,314.556 L 400.936,314.941 L 401.24,314.703" fill="none"/>
       <path d="M 401.24,314.703 L 400.639,314.123" fill="none"/>
      </g>
     </g>
     <g id="Group_6" fill-rule="nonzero" stroke="none" stroke-width="0.018" fill="#ffffff" stroke-miterlimit="79.8403193612775">
      <g id="Group_7">
       <path d="M 398.882,313.799 L 398.882,313.557 L 399.012,313.557 L 399.012,313.779 C 399.012,313.796 399.016,313.808 399.023,313.816 C 399.031,313.824 399.04,313.828 399.053,313.828 C 399.065,313.828 399.074,313.824 399.082,313.816 C 399.09,313.808 399.093,313.796 399.093,313.779 L 399.093,313.557 L 399.244,313.557 L 399.244,313.807 C 399.244,313.824 399.248,313.837 399.256,313.845 C 399.264,313.854 399.274,313.858 399.287,313.858 C 399.3,313.858 399.31,313.854 399.318,313.845 C 399.326,313.837 399.33,313.824 399.33,313.807 L 399.33,313.515 C 399.33,313.492 399.324,313.475 399.314,313.465 C 399.304,313.454 399.287,313.449 399.264,313.449 L 398.865,313.449 C 398.85,313.449 398.837,313.452 398.827,313.456 C 398.818,313.461 398.811,313.468 398.806,313.478 C 398.802,313.487 398.799,313.5 398.799,313.515 L 398.799,313.799 C 398.799,313.816 398.803,313.828 398.811,313.837 C 398.818,313.845 398.828,313.849 398.841,313.849 C 398.853,313.849 398.863,313.845 398.871,313.837 C 398.878,313.828 398.882,313.816 398.882,313.799 Z" marker-start="none" marker-end="none"/>
       <path d="M 399.196,314.034 L 399.279,314.034 C 399.299,314.034 399.314,314.03 399.324,314.02 C 399.334,314.011 399.339,313.999 399.339,313.985 C 399.339,313.97 399.333,313.959 399.323,313.949 C 399.313,313.94 399.298,313.936 399.279,313.936 L 399.004,313.936 C 398.959,313.936 398.937,313.952 398.937,313.984 C 398.937,314 398.942,314.012 398.953,314.019 C 398.963,314.027 398.978,314.03 398.999,314.031 C 398.978,314.043 398.963,314.055 398.953,314.068 C 398.942,314.08 398.937,314.097 398.937,314.117 C 398.937,314.138 398.942,314.158 398.953,314.178 C 398.963,314.197 398.977,314.207 398.994,314.207 C 399.006,314.207 399.016,314.203 399.024,314.194 C 399.032,314.186 399.036,314.177 399.036,314.168 C 399.036,314.164 399.033,314.155 399.029,314.141 C 399.024,314.127 399.022,314.115 399.022,314.105 C 399.022,314.09 399.026,314.078 399.034,314.069 C 399.041,314.06 399.052,314.053 399.067,314.048 C 399.082,314.043 399.1,314.039 399.121,314.037 C 399.141,314.035 399.166,314.034 399.196,314.034 Z" marker-start="none" marker-end="none"/>
       <path d="M 399.196,314.35 L 399.279,314.35 C 399.299,314.35 399.314,314.346 399.324,314.336 C 399.334,314.327 399.339,314.315 399.339,314.301 C 399.339,314.286 399.333,314.275 399.323,314.265 C 399.313,314.256 399.298,314.252 399.279,314.252 L 399.004,314.252 C 398.959,314.252 398.937,314.268 398.937,314.3 C 398.937,314.316 398.942,314.328 398.953,314.335 C 398.963,314.343 398.978,314.346 398.999,314.347 C 398.978,314.359 398.963,314.371 398.953,314.384 C 398.942,314.396 398.937,314.413 398.937,314.433 C 398.937,314.454 398.942,314.474 398.953,314.494 C 398.963,314.513 398.977,314.523 398.994,314.523 C 399.006,314.523 399.016,314.519 399.024,314.51 C 399.032,314.502 399.036,314.493 399.036,314.484 C 399.036,314.48 399.033,314.471 399.029,314.457 C 399.024,314.443 399.022,314.431 399.022,314.421 C 399.022,314.406 399.026,314.394 399.034,314.385 C 399.041,314.376 399.052,314.369 399.067,314.364 C 399.082,314.359 399.1,314.355 399.121,314.353 C 399.141,314.351 399.166,314.35 399.196,314.35 Z" marker-start="none" marker-end="none"/>
       <path d="M 399.138,314.92 C 399.167,314.92 399.194,314.915 399.219,314.906 C 399.244,314.897 399.265,314.884 399.283,314.866 C 399.301,314.849 399.315,314.828 399.324,314.804 C 399.334,314.78 399.339,314.753 399.339,314.723 C 399.339,314.693 399.334,314.666 399.324,314.642 C 399.314,314.618 399.301,314.598 399.283,314.58 C 399.265,314.563 399.244,314.55 399.219,314.541 C 399.195,314.531 399.168,314.527 399.138,314.527 C 399.108,314.527 399.081,314.532 399.056,314.541 C 399.031,314.55 399.01,314.563 398.992,314.58 C 398.975,314.597 398.961,314.618 398.951,314.642 C 398.942,314.667 398.937,314.694 398.937,314.723 C 398.937,314.753 398.942,314.78 398.952,314.804 C 398.961,314.829 398.975,314.849 398.993,314.867 C 399.011,314.884 399.032,314.897 399.057,314.906 C 399.081,314.915 399.108,314.92 399.138,314.92 Z M 399.138,314.821 C 399.098,314.821 399.066,314.812 399.044,314.794 C 399.021,314.777 399.01,314.753 399.01,314.723 C 399.01,314.704 399.015,314.687 399.025,314.672 C 399.035,314.657 399.05,314.646 399.07,314.638 C 399.089,314.63 399.112,314.626 399.138,314.626 C 399.164,314.626 399.186,314.63 399.205,314.638 C 399.225,314.646 399.24,314.657 399.25,314.671 C 399.26,314.686 399.265,314.703 399.265,314.723 C 399.265,314.753 399.254,314.777 399.231,314.794 C 399.209,314.812 399.178,314.821 399.138,314.821 Z" marker-start="none" marker-end="none"/>
       <path d="M 399.196,315.096 L 399.279,315.096 C 399.299,315.096 399.314,315.092 399.324,315.082 C 399.334,315.073 399.339,315.061 399.339,315.047 C 399.339,315.032 399.333,315.021 399.323,315.011 C 399.313,315.002 399.298,314.998 399.279,314.998 L 399.004,314.998 C 398.959,314.998 398.937,315.014 398.937,315.046 C 398.937,315.062 398.942,315.074 398.953,315.081 C 398.963,315.089 398.978,315.092 398.999,315.093 C 398.978,315.105 398.963,315.117 398.953,315.13 C 398.942,315.142 398.937,315.159 398.937,315.179 C 398.937,315.2 398.942,315.22 398.953,315.24 C 398.963,315.259 398.977,315.269 398.994,315.269 C 399.006,315.269 399.016,315.265 399.024,315.256 C 399.032,315.248 399.036,315.239 399.036,315.23 C 399.036,315.226 399.033,315.217 399.029,315.203 C 399.024,315.189 399.022,315.177 399.022,315.167 C 399.022,315.152 399.026,315.14 399.034,315.131 C 399.041,315.122 399.052,315.115 399.067,315.11 C 399.082,315.105 399.1,315.101 399.121,315.099 C 399.141,315.097 399.166,315.096 399.196,315.096 Z" marker-start="none" marker-end="none"/>
      </g>
     </g>
     <path d="M 400.989,316.94 C 401.375,316.94 401.688,316.627 401.688,316.241 C 401.688,315.854 401.375,315.541 400.989,315.541 C 400.602,315.541 400.289,315.854 400.289,316.241 C 400.289,316.627 400.602,316.94 400.989,316.94 Z" stroke="#cccccc" fill="#0003ff" stroke-width="0.052" marker-start="none" marker-end="none" stroke-miterlimit="79.8403193612775"/>
     <path d="M 399.171,316.94 C 399.557,316.94 399.87,316.627 399.87,316.241 C 399.87,315.854 399.557,315.541 399.171,315.541 C 398.784,315.541 398.471,315.854 398.471,316.241 C 398.471,316.627 398.784,316.94 399.171,316.94 Z" stroke="#ff7f7f" fill="#bf0000" stroke-width="0.052" marker-start="none" marker-end="none" stroke-miterlimit="79.8403193612775"/>
     <g id="Group_8" fill-rule="nonzero" stroke="none" stroke-width="0.019" fill="#ffffff" stroke-miterlimit="79.8403193612775">
      <g id="Group_9">
       <path d="M 386.899,314.324 L 386.706,314.324 C 386.677,314.324 386.654,314.331 386.639,314.344 C 386.624,314.358 386.616,314.376 386.616,314.397 C 386.616,314.419 386.624,314.437 386.638,314.451 C 386.653,314.464 386.676,314.471 386.706,314.471 L 386.899,314.471 C 386.929,314.471 386.951,314.464 386.966,314.451 C 386.981,314.437 386.988,314.419 386.988,314.397 C 386.988,314.376 386.981,314.358 386.966,314.344 C 386.952,314.331 386.929,314.324 386.899,314.324 Z" marker-start="none" marker-end="none"/>
       <path d="M 387.633,314.137 L 387.606,314.208 L 387.376,314.208 L 387.349,314.135 C 387.338,314.107 387.329,314.088 387.321,314.078 C 387.314,314.068 387.302,314.063 387.285,314.063 C 387.27,314.063 387.257,314.068 387.246,314.079 C 387.235,314.089 387.23,314.101 387.23,314.115 C 387.23,314.122 387.231,314.13 387.234,314.139 C 387.236,314.147 387.24,314.158 387.246,314.173 L 387.391,314.541 C 387.396,314.552 387.401,314.565 387.406,314.579 C 387.412,314.594 387.418,314.607 387.425,314.616 C 387.431,314.626 387.44,314.634 387.451,314.64 C 387.462,314.646 387.475,314.649 387.49,314.649 C 387.506,314.649 387.52,314.646 387.53,314.64 C 387.541,314.634 387.55,314.626 387.556,314.617 C 387.563,314.607 387.569,314.597 387.573,314.586 C 387.578,314.575 387.583,314.56 387.59,314.542 L 387.738,314.176 C 387.75,314.148 387.756,314.128 387.756,314.115 C 387.756,314.102 387.75,314.09 387.739,314.079 C 387.728,314.068 387.715,314.063 387.7,314.063 C 387.691,314.063 387.683,314.064 387.676,314.068 C 387.67,314.071 387.665,314.075 387.66,314.081 C 387.656,314.086 387.651,314.095 387.646,314.106 C 387.641,314.118 387.637,314.128 387.633,314.137 Z M 387.406,314.294 L 387.575,314.294 L 387.49,314.528 L 387.406,314.294 Z" marker-start="none" marker-end="none"/>
       <path d="M 388.107,314.122 L 388.107,314.136 C 388.095,314.12 388.081,314.107 388.067,314.096 C 388.053,314.085 388.038,314.077 388.022,314.072 C 388.005,314.066 387.986,314.064 387.965,314.064 C 387.94,314.064 387.917,314.069 387.897,314.079 C 387.876,314.09 387.861,314.105 387.85,314.123 C 387.837,314.146 387.83,314.178 387.83,314.22 L 387.83,314.429 C 387.83,314.45 387.835,314.466 387.844,314.476 C 387.854,314.487 387.866,314.492 387.882,314.492 C 387.898,314.492 387.911,314.487 387.921,314.476 C 387.931,314.466 387.936,314.45 387.936,314.429 L 387.936,314.26 C 387.936,314.236 387.938,314.215 387.942,314.198 C 387.946,314.182 387.953,314.169 387.964,314.159 C 387.975,314.15 387.989,314.145 388.007,314.145 C 388.025,314.145 388.042,314.151 388.058,314.161 C 388.073,314.172 388.085,314.185 388.092,314.202 C 388.098,314.217 388.101,314.25 388.101,314.301 L 388.101,314.429 C 388.101,314.45 388.106,314.466 388.116,314.476 C 388.126,314.487 388.138,314.492 388.154,314.492 C 388.17,314.492 388.182,314.487 388.192,314.476 C 388.202,314.466 388.206,314.45 388.206,314.429 L 388.206,314.123 C 388.206,314.103 388.202,314.088 388.193,314.078 C 388.183,314.068 388.172,314.063 388.157,314.063 C 388.143,314.063 388.131,314.068 388.121,314.078 C 388.112,314.089 388.107,314.104 388.107,314.122 Z" marker-start="none" marker-end="none"/>
       <path d="M 388.541,314.107 L 388.464,314.219 L 388.386,314.107 C 388.375,314.091 388.365,314.08 388.357,314.073 C 388.349,314.066 388.339,314.063 388.327,314.063 C 388.314,314.063 388.302,314.067 388.293,314.075 C 388.283,314.084 388.279,314.093 388.279,314.104 C 388.279,314.115 388.286,314.131 388.3,314.152 L 388.396,314.289 L 388.311,314.403 C 388.297,314.422 388.289,314.438 388.289,314.452 C 388.289,314.463 388.294,314.472 388.302,314.48 C 388.311,314.488 388.323,314.492 388.337,314.492 C 388.349,314.492 388.359,314.489 388.368,314.482 C 388.376,314.475 388.385,314.464 388.396,314.449 L 388.464,314.355 L 388.531,314.449 C 388.542,314.464 388.552,314.475 388.56,314.482 C 388.568,314.489 388.578,314.492 388.59,314.492 C 388.604,314.492 388.616,314.488 388.625,314.48 C 388.634,314.472 388.638,314.463 388.638,314.452 C 388.638,314.444 388.637,314.436 388.633,314.429 C 388.629,314.422 388.623,314.413 388.616,314.403 L 388.531,314.289 L 388.626,314.152 C 388.641,314.13 388.649,314.114 388.649,314.103 C 388.649,314.092 388.644,314.083 388.635,314.075 C 388.626,314.067 388.614,314.063 388.601,314.063 C 388.588,314.063 388.578,314.066 388.57,314.073 C 388.561,314.08 388.552,314.091 388.541,314.107 Z" marker-start="none" marker-end="none"/>
      </g>
     </g>
     <g id="Group_10" fill-rule="nonzero" stroke="none" stroke-width="0.019" fill="#ffffff" stroke-miterlimit="79.8403193612775">
      <g id="Group_11">
       <path d="M 386.935,312.93 L 386.742,312.93 C 386.713,312.93 386.69,312.937 386.675,312.95 C 386.66,312.964 386.652,312.982 386.652,313.003 C 386.652,313.025 386.66,313.043 386.674,313.057 C 386.689,313.07 386.712,313.077 386.742,313.077 L 386.935,313.077 C 386.965,313.077 386.987,313.07 387.002,313.057 C 387.017,313.043 387.024,313.025 387.024,313.003 C 387.024,312.982 387.017,312.964 387.002,312.95 C 386.988,312.937 386.965,312.93 386.935,312.93 Z" marker-start="none" marker-end="none"/>
       <path d="M 387.39,313.18 L 387.519,312.8 L 387.648,313.182 C 387.654,313.203 387.659,313.217 387.663,313.224 C 387.666,313.232 387.672,313.239 387.679,313.246 C 387.687,313.252 387.698,313.255 387.711,313.255 C 387.721,313.255 387.73,313.253 387.738,313.248 C 387.747,313.243 387.753,313.236 387.758,313.228 C 387.763,313.22 387.765,313.212 387.765,313.204 C 387.765,313.198 387.764,313.192 387.763,313.185 C 387.761,313.179 387.759,313.172 387.757,313.166 C 387.755,313.16 387.752,313.153 387.75,313.146 L 387.613,312.776 C 387.608,312.762 387.603,312.748 387.598,312.736 C 387.593,312.723 387.587,312.712 387.581,312.702 C 387.575,312.692 387.566,312.684 387.555,312.678 C 387.545,312.672 387.531,312.669 387.516,312.669 C 387.501,312.669 387.487,312.672 387.477,312.678 C 387.466,312.684 387.457,312.692 387.451,312.702 C 387.444,312.712 387.439,312.723 387.434,312.736 C 387.429,312.748 387.424,312.762 387.419,312.776 L 387.284,313.143 C 387.282,313.15 387.279,313.157 387.277,313.163 C 387.274,313.17 387.272,313.177 387.271,313.184 C 387.269,313.191 387.268,313.198 387.268,313.203 C 387.268,313.216 387.273,313.228 387.284,313.239 C 387.295,313.25 387.308,313.255 387.324,313.255 C 387.343,313.255 387.357,313.249 387.365,313.237 C 387.373,313.225 387.382,313.206 387.39,313.18 Z" marker-start="none" marker-end="none"/>
       <path d="M 388.095,312.679 L 387.921,312.679 C 387.896,312.679 387.878,312.684 387.868,312.695 C 387.857,312.707 387.852,312.724 387.852,312.749 L 387.852,313.175 C 387.852,313.2 387.857,313.218 387.868,313.229 C 387.879,313.24 387.897,313.246 387.921,313.246 L 388.105,313.246 C 388.132,313.246 388.155,313.244 388.175,313.24 C 388.195,313.237 388.213,313.231 388.229,313.221 C 388.242,313.213 388.254,313.203 388.264,313.191 C 388.275,313.179 388.282,313.165 388.288,313.15 C 388.293,313.135 388.296,313.12 388.296,313.103 C 388.296,313.046 388.268,313.005 388.211,312.979 C 388.285,312.955 388.323,312.909 388.323,312.84 C 388.323,312.808 388.315,312.78 388.298,312.754 C 388.282,312.729 388.26,312.71 388.233,312.698 C 388.215,312.691 388.195,312.686 388.173,312.683 C 388.151,312.68 388.124,312.679 388.095,312.679 Z M 388.086,312.93 L 387.966,312.93 L 387.966,312.765 L 388.09,312.765 C 388.167,312.765 388.206,312.793 388.206,312.849 C 388.206,312.877 388.196,312.898 388.176,312.911 C 388.156,312.924 388.126,312.93 388.086,312.93 Z M 387.966,313.159 L 387.966,313.013 L 388.072,313.013 C 388.1,313.013 388.122,313.015 388.138,313.021 C 388.154,313.026 388.166,313.037 388.174,313.052 C 388.18,313.063 388.183,313.075 388.183,313.088 C 388.183,313.117 388.173,313.136 388.153,313.145 C 388.133,313.155 388.101,313.159 388.06,313.159 L 387.966,313.159 Z" marker-start="none" marker-end="none"/>
       <path d="M 388.682,312.728 C 388.656,312.709 388.632,312.694 388.608,312.684 C 388.584,312.674 388.557,312.669 388.528,312.669 C 388.501,312.669 388.477,312.674 388.456,312.685 C 388.436,312.696 388.42,312.71 388.409,312.728 C 388.398,312.747 388.392,312.767 388.392,312.788 C 388.392,312.817 388.401,312.841 388.42,312.862 C 388.438,312.882 388.463,312.896 388.495,312.903 C 388.502,312.904 388.518,312.908 388.545,312.913 C 388.572,312.919 388.594,312.924 388.613,312.928 C 388.632,312.933 388.653,312.938 388.675,312.945 C 388.674,312.972 388.668,312.993 388.658,313.006 C 388.648,313.019 388.628,313.025 388.596,313.025 C 388.57,313.025 388.549,313.022 388.536,313.014 C 388.522,313.007 388.511,312.996 388.501,312.981 C 388.491,312.966 388.485,312.956 388.481,312.951 C 388.477,312.946 388.468,312.944 388.455,312.944 C 388.443,312.944 388.433,312.948 388.424,312.955 C 388.415,312.963 388.411,312.973 388.411,312.984 C 388.411,313.003 388.418,313.021 388.431,313.039 C 388.444,313.056 388.465,313.071 388.492,313.082 C 388.52,313.093 388.555,313.099 388.596,313.099 C 388.643,313.099 388.679,313.093 388.706,313.082 C 388.732,313.072 388.751,313.054 388.762,313.03 C 388.773,313.007 388.779,312.975 388.779,312.936 C 388.779,312.911 388.779,312.89 388.778,312.873 C 388.778,312.856 388.778,312.837 388.778,312.815 C 388.778,312.796 388.781,312.775 388.788,312.753 C 388.794,312.732 388.798,312.718 388.798,312.712 C 388.798,312.701 388.792,312.691 388.782,312.682 C 388.772,312.673 388.761,312.669 388.748,312.669 C 388.737,312.669 388.726,312.674 388.716,312.684 C 388.705,312.694 388.694,312.709 388.682,312.728 Z M 388.675,312.881 C 388.659,312.876 388.637,312.87 388.607,312.863 C 388.578,312.857 388.557,312.852 388.546,312.849 C 388.535,312.846 388.524,312.84 388.514,312.832 C 388.503,312.823 388.498,312.811 388.498,312.796 C 388.498,312.78 388.504,312.766 388.516,312.755 C 388.528,312.744 388.544,312.738 388.564,312.738 C 388.585,312.738 388.604,312.743 388.622,312.752 C 388.639,312.761 388.652,312.773 388.661,312.787 C 388.67,312.803 388.675,312.829 388.675,312.866 L 388.675,312.881 Z" marker-start="none" marker-end="none"/>
       <path d="M 388.873,313.089 L 388.884,313.089 L 388.884,313.152 C 388.884,313.169 388.885,313.183 388.886,313.192 C 388.887,313.202 388.889,313.21 388.893,313.217 C 388.897,313.224 388.903,313.23 388.911,313.235 C 388.919,313.239 388.927,313.242 388.937,313.242 C 388.95,313.242 388.963,313.237 388.973,313.227 C 388.981,313.22 388.985,313.212 388.987,313.202 C 388.989,313.192 388.99,313.179 388.99,313.161 L 388.99,313.089 L 389.029,313.089 C 389.044,313.089 389.055,313.085 389.063,313.078 C 389.071,313.071 389.075,313.062 389.075,313.051 C 389.075,313.037 389.069,313.027 389.058,313.021 C 389.047,313.016 389.031,313.013 389.01,313.013 L 388.99,313.013 L 388.99,312.819 C 388.99,312.802 388.991,312.789 388.992,312.78 C 388.993,312.772 388.996,312.764 389.001,312.759 C 389.006,312.753 389.014,312.75 389.026,312.75 C 389.032,312.75 389.04,312.752 389.051,312.754 C 389.061,312.756 389.07,312.757 389.076,312.757 C 389.084,312.757 389.092,312.754 389.099,312.747 C 389.105,312.74 389.109,312.731 389.109,312.721 C 389.109,312.704 389.099,312.691 389.081,312.682 C 389.062,312.673 389.036,312.669 389.001,312.669 C 388.968,312.669 388.943,312.674 388.926,312.685 C 388.909,312.697 388.898,312.712 388.892,312.731 C 388.887,312.751 388.884,312.777 388.884,312.81 L 388.884,313.013 L 388.871,313.013 C 388.855,313.013 388.844,313.016 388.836,313.023 C 388.828,313.031 388.824,313.04 388.824,313.051 C 388.824,313.062 388.828,313.071 388.836,313.078 C 388.845,313.085 388.857,313.089 388.873,313.089 Z" marker-start="none" marker-end="none"/>
       <path d="M 389.154,313.089 L 389.165,313.089 L 389.165,313.152 C 389.165,313.169 389.166,313.183 389.167,313.192 C 389.168,313.202 389.17,313.21 389.174,313.217 C 389.178,313.224 389.184,313.23 389.192,313.235 C 389.2,313.239 389.208,313.242 389.218,313.242 C 389.231,313.242 389.244,313.237 389.254,313.227 C 389.262,313.22 389.266,313.212 389.268,313.202 C 389.27,313.192 389.271,313.179 389.271,313.161 L 389.271,313.089 L 389.31,313.089 C 389.325,313.089 389.336,313.085 389.344,313.078 C 389.352,313.071 389.356,313.062 389.356,313.051 C 389.356,313.037 389.35,313.027 389.339,313.021 C 389.328,313.016 389.312,313.013 389.291,313.013 L 389.271,313.013 L 389.271,312.819 C 389.271,312.802 389.272,312.789 389.273,312.78 C 389.274,312.772 389.277,312.764 389.282,312.759 C 389.287,312.753 389.295,312.75 389.307,312.75 C 389.313,312.75 389.321,312.752 389.332,312.754 C 389.342,312.756 389.351,312.757 389.357,312.757 C 389.365,312.757 389.373,312.754 389.38,312.747 C 389.386,312.74 389.39,312.731 389.39,312.721 C 389.39,312.704 389.38,312.691 389.362,312.682 C 389.343,312.673 389.317,312.669 389.282,312.669 C 389.249,312.669 389.224,312.674 389.207,312.685 C 389.19,312.697 389.179,312.712 389.173,312.731 C 389.168,312.751 389.165,312.777 389.165,312.81 L 389.165,313.013 L 389.152,313.013 C 389.136,313.013 389.125,313.016 389.117,313.023 C 389.109,313.031 389.105,313.04 389.105,313.051 C 389.105,313.062 389.109,313.071 389.117,313.078 C 389.126,313.085 389.138,313.089 389.154,313.089 Z" marker-start="none" marker-end="none"/>
       <path d="M 389.655,312.76 L 389.555,312.76 L 389.555,312.907 L 389.407,312.907 L 389.407,313.009 L 389.555,313.009 L 389.555,313.157 L 389.655,313.157 L 389.655,313.009 L 389.804,313.009 L 389.804,312.907 L 389.655,312.907 L 389.655,312.76 Z" marker-start="none" marker-end="none"/>
      </g>
     </g>
     <g id="Group_12" fill-rule="nonzero" stroke="none" stroke-width="0.019" fill="#ffffff" stroke-miterlimit="79.8403193612775">
      <g id="Group_13">
       <path d="M 386.666,311.616 L 386.795,311.236 L 386.924,311.618 C 386.93,311.639 386.935,311.653 386.939,311.66 C 386.942,311.668 386.948,311.675 386.955,311.682 C 386.963,311.688 386.974,311.691 386.987,311.691 C 386.997,311.691 387.006,311.689 387.014,311.684 C 387.023,311.679 387.029,311.672 387.034,311.664 C 387.039,311.656 387.041,311.648 387.041,311.64 C 387.041,311.634 387.04,311.628 387.039,311.621 C 387.037,311.615 387.035,311.608 387.033,311.602 C 387.031,311.596 387.028,311.589 387.026,311.582 L 386.889,311.212 C 386.884,311.198 386.879,311.184 386.874,311.172 C 386.869,311.159 386.863,311.148 386.857,311.138 C 386.851,311.128 386.842,311.12 386.831,311.114 C 386.821,311.108 386.807,311.105 386.792,311.105 C 386.777,311.105 386.763,311.108 386.753,311.114 C 386.742,311.12 386.733,311.128 386.727,311.138 C 386.72,311.148 386.715,311.159 386.71,311.172 C 386.705,311.184 386.7,311.198 386.695,311.212 L 386.56,311.579 C 386.558,311.586 386.555,311.593 386.553,311.599 C 386.55,311.606 386.548,311.613 386.547,311.62 C 386.545,311.627 386.544,311.634 386.544,311.639 C 386.544,311.652 386.549,311.664 386.56,311.675 C 386.571,311.686 386.584,311.691 386.6,311.691 C 386.619,311.691 386.633,311.685 386.641,311.673 C 386.649,311.661 386.658,311.642 386.666,311.616 Z" marker-start="none" marker-end="none"/>
       <path d="M 387.502,311.593 L 387.243,311.593 L 387.243,311.454 L 387.482,311.454 C 387.499,311.454 387.512,311.45 387.521,311.442 C 387.529,311.434 387.534,311.424 387.534,311.411 C 387.534,311.398 387.529,311.387 387.521,311.379 C 387.512,311.371 387.499,311.367 387.482,311.367 L 387.243,311.367 L 387.243,311.206 L 387.511,311.206 C 387.529,311.206 387.543,311.202 387.552,311.193 C 387.561,311.185 387.565,311.174 387.565,311.16 C 387.565,311.146 387.561,311.135 387.552,311.127 C 387.543,311.119 387.529,311.115 387.511,311.115 L 387.199,311.115 C 387.174,311.115 387.156,311.12 387.145,311.131 C 387.134,311.142 387.128,311.16 387.128,311.185 L 387.128,311.611 C 387.128,311.628 387.131,311.641 387.136,311.652 C 387.141,311.662 387.148,311.67 387.159,311.674 C 387.169,311.679 387.183,311.682 387.199,311.682 L 387.502,311.682 C 387.52,311.682 387.534,311.677 387.543,311.669 C 387.552,311.661 387.556,311.651 387.556,311.637 C 387.556,311.624 387.552,311.613 387.543,311.605 C 387.534,311.597 387.52,311.593 387.502,311.593 Z" marker-start="none" marker-end="none"/>
       <path d="M 387.72,311.105 C 387.704,311.105 387.69,311.11 387.679,311.12 C 387.667,311.131 387.661,311.145 387.661,311.164 C 387.661,311.179 387.667,311.193 387.678,311.204 C 387.689,311.216 387.703,311.221 387.719,311.221 C 387.735,311.221 387.749,311.216 387.76,311.204 C 387.772,311.193 387.778,311.18 387.778,311.164 C 387.778,311.145 387.772,311.131 387.76,311.12 C 387.749,311.11 387.736,311.105 387.72,311.105 Z" marker-start="none" marker-end="none"/>
       <path d="M 387.977,311.682 L 388.126,311.682 C 388.165,311.682 388.199,311.678 388.226,311.671 C 388.254,311.663 388.28,311.65 388.302,311.63 C 388.361,311.58 388.391,311.503 388.391,311.4 C 388.391,311.366 388.388,311.334 388.382,311.306 C 388.376,311.278 388.367,311.253 388.354,311.23 C 388.342,311.208 388.326,311.188 388.307,311.17 C 388.292,311.156 388.275,311.145 388.257,311.137 C 388.239,311.129 388.22,311.123 388.199,311.12 C 388.178,311.116 388.155,311.115 388.129,311.115 L 387.979,311.115 C 387.958,311.115 387.942,311.118 387.932,311.124 C 387.921,311.13 387.914,311.139 387.911,311.151 C 387.908,311.162 387.906,311.177 387.906,311.195 L 387.906,311.611 C 387.906,311.636 387.912,311.654 387.923,311.665 C 387.934,311.676 387.952,311.682 387.977,311.682 Z M 388.021,311.591 L 388.021,311.206 L 388.108,311.206 C 388.127,311.206 388.142,311.206 388.153,311.207 C 388.164,311.208 388.175,311.211 388.187,311.215 C 388.198,311.219 388.208,311.225 388.217,311.232 C 388.255,311.265 388.274,311.321 388.274,311.4 C 388.274,311.456 388.266,311.498 388.249,311.526 C 388.232,311.554 388.211,311.572 388.187,311.579 C 388.162,311.587 388.132,311.591 388.097,311.591 L 388.021,311.591 Z" marker-start="none" marker-end="none"/>
       <path d="M 388.591,311.474 L 388.591,311.169 C 388.591,311.148 388.586,311.132 388.576,311.121 C 388.565,311.11 388.553,311.105 388.537,311.105 C 388.522,311.105 388.509,311.11 388.5,311.121 C 388.49,311.133 388.485,311.148 388.485,311.169 L 388.485,311.471 C 388.485,311.492 388.49,311.508 388.5,311.518 C 388.509,311.529 388.522,311.534 388.537,311.534 C 388.553,311.534 388.565,311.529 388.576,311.518 C 388.586,311.508 388.591,311.493 388.591,311.474 Z M 388.538,311.583 C 388.524,311.583 388.511,311.588 388.501,311.597 C 388.49,311.606 388.485,311.619 388.485,311.635 C 388.485,311.65 388.49,311.662 388.501,311.672 C 388.512,311.682 388.524,311.687 388.538,311.687 C 388.552,311.687 388.564,311.682 388.575,311.673 C 388.585,311.665 388.591,311.652 388.591,311.635 C 388.591,311.619 388.585,311.606 388.575,311.597 C 388.565,311.588 388.553,311.583 388.538,311.583 Z" marker-start="none" marker-end="none"/>
       <path d="M 388.805,311.257 L 388.805,311.169 C 388.805,311.148 388.8,311.132 388.79,311.121 C 388.78,311.11 388.767,311.105 388.751,311.105 C 388.736,311.105 388.724,311.11 388.714,311.121 C 388.704,311.132 388.699,311.148 388.699,311.169 L 388.699,311.463 C 388.699,311.51 388.716,311.534 388.751,311.534 C 388.768,311.534 388.781,311.529 388.789,311.518 C 388.796,311.506 388.801,311.49 388.801,311.468 C 388.814,311.49 388.827,311.506 388.84,311.518 C 388.854,311.529 388.871,311.534 388.893,311.534 C 388.916,311.534 388.937,311.529 388.958,311.518 C 388.979,311.506 388.989,311.492 388.989,311.473 C 388.989,311.461 388.985,311.45 388.976,311.442 C 388.967,311.433 388.958,311.429 388.947,311.429 C 388.943,311.429 388.934,311.431 388.919,311.436 C 388.904,311.441 388.891,311.443 388.88,311.443 C 388.864,311.443 388.852,311.439 388.842,311.431 C 388.832,311.423 388.825,311.411 388.819,311.395 C 388.814,311.379 388.81,311.36 388.808,311.338 C 388.806,311.316 388.805,311.289 388.805,311.257 Z" marker-start="none" marker-end="none"/>
       <path d="M 389.323,311.294 L 389.116,311.294 C 389.116,311.27 389.121,311.248 389.131,311.23 C 389.14,311.212 389.153,311.198 389.168,311.189 C 389.184,311.179 389.201,311.175 389.22,311.175 C 389.233,311.175 389.244,311.176 389.254,311.179 C 389.265,311.182 389.275,311.187 389.285,311.193 C 389.295,311.2 389.304,311.206 389.312,311.214 C 389.32,311.221 389.331,311.231 389.344,311.243 C 389.349,311.248 389.357,311.25 389.367,311.25 C 389.378,311.25 389.387,311.247 389.394,311.241 C 389.4,311.235 389.404,311.227 389.404,311.216 C 389.404,311.206 389.4,311.195 389.392,311.182 C 389.385,311.17 389.374,311.157 389.359,311.146 C 389.343,311.134 389.324,311.124 389.302,311.116 C 389.279,311.109 389.253,311.105 389.223,311.105 C 389.155,311.105 389.102,311.124 389.065,311.163 C 389.027,311.202 389.008,311.254 389.008,311.32 C 389.008,311.351 389.013,311.38 389.022,311.407 C 389.032,311.434 389.045,311.457 389.063,311.476 C 389.081,311.495 389.103,311.509 389.129,311.52 C 389.155,311.53 389.184,311.535 389.215,311.535 C 389.256,311.535 389.292,311.526 389.321,311.509 C 389.351,311.491 389.373,311.469 389.388,311.441 C 389.402,311.414 389.41,311.386 389.41,311.357 C 389.41,311.33 389.402,311.313 389.387,311.305 C 389.372,311.298 389.35,311.294 389.323,311.294 Z M 389.116,311.354 L 389.308,311.354 C 389.305,311.39 389.295,311.417 389.278,311.435 C 389.262,311.452 389.239,311.461 389.212,311.461 C 389.185,311.461 389.164,311.452 389.147,311.434 C 389.13,311.416 389.12,311.389 389.116,311.354 Z" marker-start="none" marker-end="none"/>
       <path d="M 389.878,311.236 C 389.878,311.222 389.874,311.208 389.866,311.193 C 389.858,311.178 389.846,311.164 389.83,311.151 C 389.814,311.137 389.794,311.126 389.769,311.118 C 389.745,311.11 389.717,311.106 389.686,311.106 C 389.621,311.106 389.57,311.125 389.533,311.163 C 389.497,311.201 389.479,311.252 389.479,311.316 C 389.479,311.359 389.487,311.397 389.504,311.43 C 389.52,311.464 389.545,311.489 389.576,311.508 C 389.608,311.526 389.646,311.535 389.69,311.535 C 389.717,311.535 389.743,311.531 389.765,311.523 C 389.788,311.515 389.807,311.505 389.823,311.492 C 389.839,311.479 389.851,311.466 389.86,311.452 C 389.868,311.437 389.872,311.424 389.872,311.412 C 389.872,311.399 389.868,311.388 389.858,311.379 C 389.849,311.371 389.837,311.366 389.824,311.366 C 389.815,311.366 389.808,311.369 389.802,311.373 C 389.796,311.378 389.79,311.385 389.783,311.395 C 389.77,311.415 389.756,311.429 389.742,311.439 C 389.728,311.449 389.71,311.454 389.689,311.454 C 389.657,311.454 389.632,311.442 389.613,311.417 C 389.594,311.393 389.585,311.359 389.585,311.317 C 389.585,311.297 389.587,311.279 389.592,311.262 C 389.597,311.246 389.604,311.232 389.613,311.22 C 389.622,311.208 389.634,311.199 389.647,311.193 C 389.66,311.187 389.674,311.184 389.69,311.184 C 389.711,311.184 389.729,311.189 389.744,311.199 C 389.76,311.209 389.773,311.224 389.784,311.244 C 389.791,311.256 389.798,311.265 389.805,311.272 C 389.813,311.278 389.822,311.282 389.833,311.282 C 389.846,311.282 389.856,311.277 389.865,311.267 C 389.873,311.257 389.878,311.247 389.878,311.236 Z" marker-start="none" marker-end="none"/>
       <path d="M 389.976,311.525 L 389.987,311.525 L 389.987,311.588 C 389.987,311.605 389.988,311.619 389.989,311.628 C 389.99,311.638 389.992,311.646 389.996,311.653 C 390,311.66 390.006,311.666 390.014,311.671 C 390.022,311.675 390.03,311.678 390.04,311.678 C 390.053,311.678 390.066,311.673 390.076,311.663 C 390.084,311.656 390.088,311.648 390.09,311.638 C 390.092,311.628 390.093,311.615 390.093,311.597 L 390.093,311.525 L 390.132,311.525 C 390.147,311.525 390.158,311.521 390.166,311.514 C 390.174,311.507 390.178,311.498 390.178,311.487 C 390.178,311.473 390.172,311.463 390.161,311.457 C 390.15,311.452 390.134,311.449 390.113,311.449 L 390.093,311.449 L 390.093,311.255 C 390.093,311.238 390.094,311.225 390.095,311.216 C 390.096,311.208 390.099,311.2 390.104,311.195 C 390.109,311.189 390.117,311.186 390.129,311.186 C 390.135,311.186 390.143,311.188 390.154,311.19 C 390.164,311.192 390.173,311.193 390.179,311.193 C 390.187,311.193 390.195,311.19 390.202,311.183 C 390.208,311.176 390.212,311.167 390.212,311.157 C 390.212,311.14 390.202,311.127 390.184,311.118 C 390.165,311.109 390.139,311.105 390.104,311.105 C 390.071,311.105 390.046,311.11 390.029,311.121 C 390.012,311.133 390.001,311.148 389.995,311.167 C 389.99,311.187 389.987,311.213 389.987,311.246 L 389.987,311.449 L 389.974,311.449 C 389.958,311.449 389.947,311.452 389.939,311.459 C 389.931,311.467 389.927,311.476 389.927,311.487 C 389.927,311.498 389.931,311.507 389.939,311.514 C 389.948,311.521 389.96,311.525 389.976,311.525 Z" marker-start="none" marker-end="none"/>
      </g>
     </g>
     <g id="Group_14" fill-rule="nonzero" stroke="none" stroke-width="0.026" fill="#ffffff" stroke-miterlimit="79.8403193612775">
      <g id="Group_15">
       <path d="M 391.772,312.126 C 391.772,312.081 391.761,312.041 391.738,312.005 C 391.714,311.969 391.68,311.941 391.636,311.92 C 391.591,311.9 391.538,311.89 391.476,311.89 C 391.403,311.89 391.342,311.904 391.294,311.931 C 391.26,311.951 391.233,311.978 391.212,312.012 C 391.191,312.045 391.18,312.077 391.18,312.109 C 391.18,312.127 391.186,312.143 391.199,312.156 C 391.212,312.169 391.228,312.176 391.248,312.176 C 391.263,312.176 391.277,312.17 391.288,312.16 C 391.299,312.15 391.308,312.135 391.316,312.115 C 391.326,312.091 391.336,312.071 391.347,312.056 C 391.358,312.04 391.374,312.026 391.394,312.016 C 391.414,312.006 391.44,312.001 391.472,312.001 C 391.517,312.001 391.553,312.011 391.581,312.032 C 391.609,312.053 391.623,312.079 391.623,312.11 C 391.623,312.135 391.616,312.155 391.601,312.17 C 391.586,312.186 391.566,312.197 391.542,312.206 C 391.518,312.214 391.486,312.222 391.446,312.232 C 391.393,312.244 391.348,312.259 391.312,312.276 C 391.276,312.292 391.247,312.315 391.226,312.344 C 391.205,312.373 391.194,312.409 391.194,312.452 C 391.194,312.493 391.205,312.53 391.228,312.562 C 391.25,312.593 391.282,312.618 391.325,312.635 C 391.367,312.652 391.417,312.661 391.474,312.661 C 391.52,312.661 391.56,312.655 391.593,312.644 C 391.627,312.632 391.654,312.617 391.676,312.598 C 391.698,312.58 391.714,312.56 391.725,312.539 C 391.735,312.519 391.74,312.498 391.74,312.479 C 391.74,312.461 391.733,312.445 391.721,312.43 C 391.708,312.416 391.692,312.408 391.673,312.408 C 391.656,312.408 391.643,312.413 391.634,312.421 C 391.625,312.43 391.615,312.444 391.605,312.464 C 391.591,312.492 391.575,312.514 391.556,312.53 C 391.537,312.546 391.506,312.553 391.464,312.553 C 391.425,312.553 391.394,312.545 391.37,312.528 C 391.346,312.511 391.334,312.49 391.334,312.466 C 391.334,312.451 391.338,312.438 391.346,312.427 C 391.354,312.416 391.366,312.407 391.38,312.399 C 391.394,312.392 391.408,312.385 391.423,312.381 C 391.438,312.377 391.462,312.37 391.495,312.362 C 391.537,312.352 391.575,312.341 391.609,312.329 C 391.643,312.317 391.672,312.303 391.696,312.286 C 391.72,312.269 391.739,312.248 391.752,312.222 C 391.766,312.196 391.772,312.164 391.772,312.126 Z" marker-start="none" marker-end="none"/>
       <path d="M 392.353,312.162 L 392.353,311.977 C 392.353,311.948 392.346,311.926 392.333,311.912 C 392.32,311.897 392.302,311.89 392.281,311.89 C 392.26,311.89 392.243,311.897 392.23,311.912 C 392.217,311.926 392.21,311.948 392.21,311.977 L 392.21,312.198 C 392.21,312.233 392.209,312.261 392.207,312.28 C 392.204,312.299 392.198,312.315 392.187,312.327 C 392.177,312.34 392.16,312.346 392.137,312.346 C 392.092,312.346 392.062,312.33 392.048,312.299 C 392.033,312.268 392.026,312.223 392.026,312.165 L 392.026,311.977 C 392.026,311.948 392.019,311.927 392.006,311.912 C 391.993,311.897 391.976,311.89 391.955,311.89 C 391.934,311.89 391.917,311.897 391.903,311.912 C 391.89,311.927 391.883,311.948 391.883,311.977 L 391.883,312.374 C 391.883,312.401 391.889,312.42 391.901,312.434 C 391.913,312.447 391.929,312.454 391.949,312.454 C 391.968,312.454 391.984,312.448 391.996,312.435 C 392.009,312.422 392.015,312.405 392.015,312.383 L 392.015,312.369 C 392.039,312.398 392.065,312.419 392.093,312.433 C 392.12,312.446 392.151,312.453 392.184,312.453 C 392.219,312.453 392.249,312.446 392.274,312.432 C 392.299,312.419 392.32,312.397 392.336,312.369 C 392.36,312.398 392.385,312.419 392.411,312.433 C 392.438,312.446 392.468,312.453 392.5,312.453 C 392.538,312.453 392.571,312.446 392.599,312.431 C 392.626,312.416 392.647,312.395 392.66,312.367 C 392.672,312.342 392.678,312.302 392.678,312.248 L 392.678,311.977 C 392.678,311.948 392.671,311.926 392.658,311.912 C 392.645,311.897 392.627,311.89 392.606,311.89 C 392.585,311.89 392.567,311.897 392.554,311.912 C 392.541,311.927 392.534,311.948 392.534,311.977 L 392.534,312.211 C 392.534,312.241 392.533,312.264 392.53,312.282 C 392.528,312.3 392.521,312.315 392.51,312.328 C 392.498,312.34 392.481,312.346 392.459,312.346 C 392.44,312.346 392.423,312.341 392.407,312.33 C 392.39,312.319 392.377,312.304 392.368,312.286 C 392.358,312.263 392.353,312.221 392.353,312.162 Z" marker-start="none" marker-end="none"/>
       <path d="M 393.164,311.968 C 393.131,311.942 393.098,311.922 393.067,311.909 C 393.035,311.896 393,311.89 392.961,311.89 C 392.926,311.89 392.894,311.897 392.867,311.911 C 392.84,311.925 392.82,311.944 392.805,311.968 C 392.79,311.992 392.783,312.018 392.783,312.046 C 392.783,312.084 392.795,312.117 392.819,312.144 C 392.843,312.17 392.876,312.188 392.918,312.197 C 392.927,312.199 392.949,312.204 392.984,312.211 C 393.019,312.218 393.049,312.225 393.074,312.231 C 393.099,312.237 393.126,312.244 393.155,312.252 C 393.153,312.289 393.146,312.316 393.133,312.333 C 393.12,312.35 393.093,312.359 393.052,312.359 C 393.016,312.359 392.99,312.354 392.972,312.344 C 392.954,312.334 392.939,312.319 392.926,312.3 C 392.914,312.28 392.905,312.267 392.899,312.261 C 392.894,312.254 392.883,312.251 392.866,312.251 C 392.85,312.251 392.837,312.256 392.825,312.266 C 392.814,312.276 392.808,312.289 392.808,312.305 C 392.808,312.329 392.817,312.353 392.834,312.376 C 392.851,312.399 392.878,312.418 392.915,312.433 C 392.952,312.448 392.997,312.455 393.052,312.455 C 393.113,312.455 393.161,312.448 393.196,312.434 C 393.231,312.419 393.255,312.396 393.27,312.365 C 393.284,312.334 393.291,312.293 393.291,312.241 C 393.291,312.209 393.291,312.181 393.291,312.158 C 393.291,312.136 393.291,312.11 393.29,312.083 C 393.29,312.056 393.295,312.029 393.303,312.001 C 393.312,311.973 393.316,311.954 393.316,311.946 C 393.316,311.932 393.309,311.919 393.296,311.907 C 393.283,311.896 393.268,311.89 393.251,311.89 C 393.236,311.89 393.222,311.896 393.208,311.91 C 393.194,311.923 393.18,311.943 393.164,311.968 Z M 393.155,312.169 C 393.135,312.162 393.105,312.154 393.066,312.145 C 393.027,312.137 393.001,312.131 392.986,312.127 C 392.971,312.123 392.956,312.115 392.943,312.104 C 392.929,312.093 392.923,312.077 392.923,312.057 C 392.923,312.036 392.931,312.018 392.946,312.003 C 392.962,311.988 392.983,311.981 393.009,311.981 C 393.036,311.981 393.062,311.987 393.085,311.999 C 393.108,312.011 393.125,312.026 393.136,312.045 C 393.149,312.066 393.155,312.101 393.155,312.149 L 393.155,312.169 Z" marker-start="none" marker-end="none"/>
       <path d="M 393.57,312.09 L 393.57,311.974 C 393.57,311.946 393.563,311.925 393.55,311.911 C 393.537,311.897 393.52,311.89 393.5,311.89 C 393.48,311.89 393.463,311.897 393.451,311.911 C 393.438,311.925 393.431,311.946 393.431,311.974 L 393.431,312.361 C 393.431,312.423 393.454,312.454 393.499,312.454 C 393.522,312.454 393.538,312.447 393.549,312.432 C 393.559,312.418 393.564,312.396 393.565,312.368 C 393.582,312.396 393.599,312.418 393.617,312.432 C 393.634,312.447 393.657,312.454 393.686,312.454 C 393.716,312.454 393.744,312.447 393.771,312.432 C 393.799,312.418 393.813,312.399 393.813,312.374 C 393.813,312.357 393.807,312.343 393.795,312.332 C 393.783,312.321 393.771,312.316 393.757,312.316 C 393.752,312.316 393.74,312.319 393.72,312.325 C 393.701,312.332 393.684,312.335 393.669,312.335 C 393.648,312.335 393.632,312.329 393.619,312.319 C 393.606,312.308 393.596,312.292 393.589,312.271 C 393.582,312.25 393.577,312.225 393.574,312.196 C 393.571,312.167 393.57,312.132 393.57,312.09 Z" marker-start="none" marker-end="none"/>
       <path d="M 393.909,312.442 L 393.924,312.442 L 393.924,312.525 C 393.924,312.548 393.925,312.565 393.926,312.578 C 393.927,312.591 393.93,312.602 393.936,312.611 C 393.941,312.62 393.949,312.628 393.959,312.634 C 393.969,312.64 393.981,312.643 393.993,312.643 C 394.011,312.643 394.027,312.636 394.041,312.623 C 394.051,312.614 394.057,312.604 394.059,312.591 C 394.062,312.578 394.063,312.56 394.063,312.537 L 394.063,312.442 L 394.114,312.442 C 394.133,312.442 394.148,312.437 394.159,312.428 C 394.169,312.419 394.174,312.407 394.174,312.392 C 394.174,312.374 394.167,312.361 394.152,312.353 C 394.137,312.346 394.116,312.342 394.089,312.342 L 394.063,312.342 L 394.063,312.087 C 394.063,312.065 394.064,312.048 394.065,312.037 C 394.067,312.025 394.071,312.015 394.077,312.008 C 394.084,312.001 394.095,311.997 394.11,311.997 C 394.118,311.997 394.129,311.999 394.143,312.001 C 394.157,312.004 394.168,312.006 394.175,312.006 C 394.187,312.006 394.197,312.001 394.206,311.992 C 394.215,311.983 394.219,311.972 394.219,311.959 C 394.219,311.937 394.207,311.919 394.182,311.908 C 394.158,311.896 394.123,311.89 394.077,311.89 C 394.034,311.89 394.001,311.897 393.979,311.912 C 393.956,311.926 393.941,311.946 393.935,311.972 C 393.928,311.998 393.924,312.032 393.924,312.075 L 393.924,312.342 L 393.906,312.342 C 393.886,312.342 393.871,312.347 393.86,312.356 C 393.85,312.366 393.844,312.378 393.844,312.392 C 393.844,312.407 393.85,312.419 393.861,312.428 C 393.872,312.437 393.888,312.442 393.909,312.442 Z" marker-start="none" marker-end="none"/>
       <path d="M 394.846,312.126 C 394.846,312.081 394.835,312.041 394.812,312.005 C 394.788,311.969 394.754,311.941 394.71,311.92 C 394.665,311.9 394.612,311.89 394.55,311.89 C 394.477,311.89 394.416,311.904 394.368,311.931 C 394.334,311.951 394.307,311.978 394.286,312.012 C 394.265,312.045 394.254,312.077 394.254,312.109 C 394.254,312.127 394.26,312.143 394.273,312.156 C 394.286,312.169 394.302,312.176 394.322,312.176 C 394.337,312.176 394.351,312.17 394.362,312.16 C 394.373,312.15 394.382,312.135 394.39,312.115 C 394.4,312.091 394.41,312.071 394.421,312.056 C 394.432,312.04 394.448,312.026 394.468,312.016 C 394.488,312.006 394.514,312.001 394.546,312.001 C 394.591,312.001 394.627,312.011 394.655,312.032 C 394.683,312.053 394.697,312.079 394.697,312.11 C 394.697,312.135 394.69,312.155 394.675,312.17 C 394.66,312.186 394.64,312.197 394.616,312.206 C 394.592,312.214 394.56,312.222 394.52,312.232 C 394.467,312.244 394.422,312.259 394.386,312.276 C 394.35,312.292 394.321,312.315 394.3,312.344 C 394.279,312.373 394.268,312.409 394.268,312.452 C 394.268,312.493 394.279,312.53 394.302,312.562 C 394.324,312.593 394.356,312.618 394.399,312.635 C 394.441,312.652 394.491,312.661 394.548,312.661 C 394.594,312.661 394.634,312.655 394.667,312.644 C 394.701,312.632 394.728,312.617 394.75,312.598 C 394.772,312.58 394.788,312.56 394.799,312.539 C 394.809,312.519 394.814,312.498 394.814,312.479 C 394.814,312.461 394.807,312.445 394.795,312.43 C 394.782,312.416 394.766,312.408 394.747,312.408 C 394.73,312.408 394.717,312.413 394.708,312.421 C 394.699,312.43 394.689,312.444 394.679,312.464 C 394.665,312.492 394.649,312.514 394.63,312.53 C 394.611,312.546 394.58,312.553 394.538,312.553 C 394.499,312.553 394.468,312.545 394.444,312.528 C 394.42,312.511 394.408,312.49 394.408,312.466 C 394.408,312.451 394.412,312.438 394.42,312.427 C 394.428,312.416 394.44,312.407 394.454,312.399 C 394.468,312.392 394.482,312.385 394.497,312.381 C 394.512,312.377 394.536,312.37 394.569,312.362 C 394.611,312.352 394.649,312.341 394.683,312.329 C 394.717,312.317 394.746,312.303 394.77,312.286 C 394.794,312.269 394.813,312.248 394.826,312.222 C 394.84,312.196 394.846,312.164 394.846,312.126 Z" marker-start="none" marker-end="none"/>
       <path d="M 395.101,312.576 L 395.101,312.37 C 395.119,312.391 395.136,312.407 395.153,312.419 C 395.169,312.431 395.188,312.439 395.208,312.445 C 395.229,312.451 395.251,312.454 395.274,312.454 C 395.309,312.454 395.34,312.447 395.368,312.432 C 395.395,312.417 395.416,312.395 395.432,312.367 C 395.442,312.35 395.448,312.332 395.452,312.311 C 395.455,312.291 395.457,312.267 395.457,312.24 L 395.457,311.974 C 395.457,311.946 395.451,311.925 395.438,311.911 C 395.425,311.897 395.408,311.89 395.387,311.89 C 395.342,311.89 395.319,311.918 395.319,311.974 L 395.319,312.209 C 395.319,312.253 395.312,312.287 395.299,312.311 C 395.286,312.335 395.26,312.347 395.224,312.347 C 395.199,312.347 395.176,312.34 395.157,312.326 C 395.137,312.312 395.122,312.293 395.112,312.268 C 395.105,312.247 395.101,312.211 395.101,312.158 L 395.101,311.974 C 395.101,311.947 395.095,311.926 395.082,311.911 C 395.07,311.897 395.053,311.89 395.031,311.89 C 394.985,311.89 394.962,311.918 394.962,311.974 L 394.962,312.576 C 394.962,312.604 394.968,312.626 394.98,312.64 C 394.992,312.654 395.009,312.661 395.031,312.661 C 395.053,312.661 395.07,312.654 395.082,312.639 C 395.095,312.625 395.101,312.604 395.101,312.576 Z" marker-start="none" marker-end="none"/>
       <path d="M 395.955,311.968 L 395.955,311.986 C 395.938,311.965 395.921,311.947 395.902,311.933 C 395.884,311.919 395.864,311.908 395.842,311.901 C 395.821,311.894 395.796,311.891 395.768,311.891 C 395.735,311.891 395.704,311.898 395.678,311.912 C 395.651,311.926 395.631,311.945 395.616,311.969 C 395.599,311.999 395.59,312.041 395.59,312.096 L 395.59,312.371 C 395.59,312.399 395.596,312.42 395.609,312.434 C 395.622,312.447 395.638,312.454 395.659,312.454 C 395.68,312.454 395.697,312.447 395.71,312.433 C 395.723,312.42 395.729,312.399 395.729,312.371 L 395.729,312.149 C 395.729,312.117 395.732,312.09 395.737,312.068 C 395.743,312.046 395.752,312.029 395.766,312.017 C 395.78,312.004 395.799,311.998 395.824,311.998 C 395.847,311.998 395.869,312.005 395.89,312.019 C 395.91,312.033 395.925,312.051 395.935,312.073 C 395.943,312.093 395.947,312.136 395.947,312.203 L 395.947,312.371 C 395.947,312.399 395.953,312.42 395.966,312.433 C 395.979,312.447 395.996,312.454 396.016,312.454 C 396.037,312.454 396.054,312.447 396.066,312.434 C 396.079,312.42 396.085,312.399 396.085,312.371 L 396.085,311.969 C 396.085,311.943 396.079,311.923 396.067,311.91 C 396.055,311.896 396.039,311.89 396.02,311.89 C 396.001,311.89 395.986,311.897 395.973,311.91 C 395.961,311.924 395.955,311.943 395.955,311.968 Z" marker-start="none" marker-end="none"/>
       <path d="M 396.349,312.377 L 396.349,312.361 C 396.374,312.393 396.4,312.417 396.429,312.432 C 396.458,312.447 396.492,312.454 396.529,312.454 C 396.566,312.454 396.599,312.446 396.627,312.43 C 396.656,312.414 396.678,312.392 396.692,312.363 C 396.701,312.346 396.707,312.327 396.71,312.308 C 396.713,312.288 396.714,312.263 396.714,312.233 L 396.714,311.974 C 396.714,311.946 396.708,311.925 396.695,311.911 C 396.682,311.897 396.666,311.89 396.645,311.89 C 396.625,311.89 396.608,311.897 396.595,311.912 C 396.582,311.926 396.576,311.947 396.576,311.974 L 396.576,312.206 C 396.576,312.251 396.569,312.286 396.557,312.311 C 396.544,312.335 396.518,312.347 396.481,312.347 C 396.456,312.347 396.433,312.34 396.413,312.325 C 396.393,312.31 396.378,312.29 396.368,312.264 C 396.361,312.243 396.358,312.205 396.358,312.148 L 396.358,311.974 C 396.358,311.946 396.351,311.925 396.338,311.911 C 396.325,311.897 396.308,311.89 396.288,311.89 C 396.268,311.89 396.251,311.897 396.238,311.912 C 396.226,311.926 396.219,311.947 396.219,311.974 L 396.219,312.375 C 396.219,312.402 396.225,312.422 396.236,312.435 C 396.248,312.448 396.264,312.454 396.284,312.454 C 396.296,312.454 396.307,312.451 396.317,312.446 C 396.327,312.44 396.335,312.431 396.34,312.42 C 396.346,312.408 396.349,312.394 396.349,312.377 Z" marker-start="none" marker-end="none"/>
       <path d="M 396.86,312.442 L 396.875,312.442 L 396.875,312.525 C 396.875,312.548 396.876,312.565 396.877,312.578 C 396.878,312.591 396.881,312.602 396.887,312.611 C 396.892,312.62 396.9,312.628 396.91,312.634 C 396.92,312.64 396.932,312.643 396.944,312.643 C 396.962,312.643 396.978,312.636 396.992,312.623 C 397.002,312.614 397.008,312.604 397.01,312.591 C 397.013,312.578 397.014,312.56 397.014,312.537 L 397.014,312.442 L 397.065,312.442 C 397.084,312.442 397.099,312.437 397.11,312.428 C 397.12,312.419 397.125,312.407 397.125,312.392 C 397.125,312.374 397.118,312.361 397.103,312.353 C 397.088,312.346 397.067,312.342 397.04,312.342 L 397.014,312.342 L 397.014,312.087 C 397.014,312.065 397.015,312.048 397.016,312.037 C 397.018,312.025 397.022,312.015 397.028,312.008 C 397.035,312.001 397.046,311.997 397.061,311.997 C 397.069,311.997 397.08,311.999 397.094,312.001 C 397.108,312.004 397.119,312.006 397.126,312.006 C 397.138,312.006 397.148,312.001 397.157,311.992 C 397.166,311.983 397.17,311.972 397.17,311.959 C 397.17,311.937 397.158,311.919 397.133,311.908 C 397.109,311.896 397.074,311.89 397.028,311.89 C 396.985,311.89 396.952,311.897 396.93,311.912 C 396.907,311.926 396.892,311.946 396.886,311.972 C 396.879,311.998 396.875,312.032 396.875,312.075 L 396.875,312.342 L 396.857,312.342 C 396.837,312.342 396.822,312.347 396.811,312.356 C 396.801,312.366 396.795,312.378 396.795,312.392 C 396.795,312.407 396.801,312.419 396.812,312.428 C 396.823,312.437 396.839,312.442 396.86,312.442 Z" marker-start="none" marker-end="none"/>
       <path d="M 397.893,312.522 L 397.651,312.522 L 397.622,312.358 C 397.67,312.383 397.715,312.396 397.755,312.396 C 397.788,312.396 397.818,312.39 397.847,312.378 C 397.875,312.366 397.9,312.349 397.921,312.327 C 397.942,312.306 397.959,312.28 397.971,312.251 C 397.984,312.221 397.99,312.19 397.99,312.156 C 397.99,312.107 397.979,312.062 397.957,312.022 C 397.935,311.981 397.903,311.949 397.861,311.925 C 397.82,311.902 397.772,311.89 397.718,311.89 C 397.657,311.89 397.608,311.901 397.57,311.923 C 397.532,311.946 397.505,311.971 397.49,312 C 397.474,312.029 397.466,312.055 397.466,312.076 C 397.466,312.09 397.471,312.102 397.482,312.114 C 397.493,312.126 397.507,312.132 397.524,312.132 C 397.552,312.132 397.574,312.115 397.587,312.083 C 397.601,312.052 397.619,312.029 397.642,312.012 C 397.665,311.995 397.691,311.987 397.72,311.987 C 397.746,311.987 397.769,311.994 397.788,312.007 C 397.808,312.021 397.823,312.039 397.834,312.063 C 397.845,312.087 397.85,312.114 397.85,312.144 C 397.85,312.177 397.844,312.204 397.833,312.227 C 397.821,312.251 397.806,312.268 397.786,312.279 C 397.767,312.29 397.745,312.296 397.722,312.296 C 397.693,312.296 397.672,312.293 397.659,312.285 C 397.647,312.278 397.629,312.266 397.605,312.248 C 397.581,312.23 397.562,312.221 397.547,312.221 C 397.53,312.221 397.515,312.227 397.503,312.239 C 397.49,312.251 397.483,312.265 397.483,312.28 C 397.483,312.282 397.485,312.294 397.489,312.315 L 397.532,312.559 C 397.536,312.588 397.545,312.609 397.558,312.622 C 397.571,312.635 397.592,312.642 397.621,312.642 L 397.89,312.642 C 397.942,312.642 397.969,312.622 397.969,312.581 C 397.969,312.564 397.962,312.55 397.95,312.539 C 397.937,312.528 397.918,312.522 397.893,312.522 Z" marker-start="none" marker-end="none"/>
       <path d="M 398.599,312.268 C 398.599,312.213 398.596,312.165 398.589,312.125 C 398.582,312.085 398.57,312.048 398.551,312.016 C 398.528,311.976 398.498,311.945 398.462,311.923 C 398.425,311.902 398.384,311.891 398.34,311.891 C 398.288,311.891 398.242,311.905 398.201,311.935 C 398.16,311.964 398.13,312.004 398.109,312.056 C 398.098,312.084 398.091,312.115 398.086,312.149 C 398.081,312.183 398.078,312.22 398.078,312.26 C 398.078,312.311 398.081,312.357 398.086,312.398 C 398.092,312.439 398.1,312.474 398.112,312.504 C 398.132,312.552 398.161,312.59 398.199,312.615 C 398.237,312.641 398.283,312.654 398.336,312.654 C 398.371,312.654 398.402,312.648 398.431,312.637 C 398.459,312.625 398.484,312.609 398.506,312.587 C 398.527,312.565 398.546,312.538 398.56,312.506 C 398.586,312.45 398.599,312.371 398.599,312.268 Z M 398.46,312.278 C 398.46,312.34 398.456,312.391 398.449,312.431 C 398.441,312.47 398.429,312.5 398.411,312.52 C 398.393,312.54 398.369,312.55 398.338,312.55 C 398.293,312.55 398.262,312.528 398.244,312.483 C 398.227,312.438 398.218,312.368 398.218,312.274 C 398.218,312.211 398.222,312.158 398.229,312.118 C 398.237,312.077 398.249,312.046 398.267,312.025 C 398.285,312.004 398.309,311.994 398.339,311.994 C 398.37,311.994 398.394,312.005 398.412,312.027 C 398.43,312.048 398.442,312.079 398.449,312.12 C 398.456,312.16 398.46,312.213 398.46,312.278 Z" marker-start="none" marker-end="none"/>
       <path d="M 399.218,312.268 C 399.218,312.213 399.215,312.165 399.208,312.125 C 399.201,312.085 399.189,312.048 399.17,312.016 C 399.147,311.976 399.117,311.945 399.081,311.923 C 399.044,311.902 399.003,311.891 398.959,311.891 C 398.907,311.891 398.861,311.905 398.82,311.935 C 398.779,311.964 398.749,312.004 398.728,312.056 C 398.717,312.084 398.71,312.115 398.705,312.149 C 398.7,312.183 398.697,312.22 398.697,312.26 C 398.697,312.311 398.7,312.357 398.705,312.398 C 398.711,312.439 398.719,312.474 398.731,312.504 C 398.751,312.552 398.78,312.59 398.818,312.615 C 398.856,312.641 398.902,312.654 398.955,312.654 C 398.99,312.654 399.021,312.648 399.05,312.637 C 399.078,312.625 399.103,312.609 399.125,312.587 C 399.146,312.565 399.165,312.538 399.179,312.506 C 399.205,312.45 399.218,312.371 399.218,312.268 Z M 399.079,312.278 C 399.079,312.34 399.075,312.391 399.068,312.431 C 399.06,312.47 399.048,312.5 399.03,312.52 C 399.012,312.54 398.988,312.55 398.957,312.55 C 398.912,312.55 398.881,312.528 398.863,312.483 C 398.846,312.438 398.837,312.368 398.837,312.274 C 398.837,312.211 398.841,312.158 398.848,312.118 C 398.856,312.077 398.868,312.046 398.886,312.025 C 398.904,312.004 398.928,311.994 398.958,311.994 C 398.989,311.994 399.013,312.005 399.031,312.027 C 399.049,312.048 399.061,312.079 399.068,312.12 C 399.075,312.16 399.079,312.213 399.079,312.278 Z" marker-start="none" marker-end="none"/>
       <path d="M 399.826,311.987 L 399.79,312.08 L 399.487,312.08 L 399.452,311.985 C 399.438,311.948 399.426,311.922 399.416,311.909 C 399.406,311.896 399.39,311.89 399.368,311.89 C 399.349,311.89 399.332,311.897 399.317,311.911 C 399.303,311.925 399.295,311.94 399.295,311.958 C 399.295,311.968 399.297,311.979 399.301,311.989 C 399.304,312 399.31,312.015 399.317,312.035 L 399.508,312.519 C 399.513,312.533 399.52,312.549 399.528,312.569 C 399.535,312.588 399.543,312.605 399.552,312.618 C 399.561,312.63 399.572,312.641 399.586,312.649 C 399.6,312.657 399.618,312.661 399.638,312.661 C 399.659,312.661 399.677,312.657 399.691,312.649 C 399.705,312.641 399.716,312.631 399.725,312.618 C 399.734,312.605 399.741,312.592 399.747,312.578 C 399.753,312.563 399.76,312.544 399.769,312.52 L 399.964,312.039 C 399.979,312.002 399.987,311.976 399.987,311.959 C 399.987,311.942 399.98,311.926 399.965,311.911 C 399.951,311.897 399.934,311.89 399.913,311.89 C 399.901,311.89 399.891,311.892 399.883,311.896 C 399.874,311.9 399.867,311.906 399.861,311.913 C 399.856,311.921 399.85,311.932 399.843,311.947 C 399.836,311.962 399.831,311.975 399.826,311.987 Z M 399.527,312.194 L 399.75,312.194 L 399.637,312.502 L 399.527,312.194 Z" marker-start="none" marker-end="none"/>
       <path d="M 400.285,312.558 L 400.143,311.971 C 400.138,311.952 400.134,311.937 400.13,311.925 C 400.127,311.914 400.121,311.905 400.114,311.899 C 400.107,311.893 400.096,311.89 400.082,311.89 C 400.048,311.89 400.03,311.905 400.03,311.935 C 400.03,311.942 400.034,311.962 400.04,311.993 L 400.182,312.579 C 400.19,312.611 400.197,312.632 400.204,312.643 C 400.21,312.655 400.224,312.661 400.243,312.661 C 400.26,312.661 400.273,312.657 400.282,312.649 C 400.291,312.64 400.296,312.629 400.296,312.615 C 400.296,312.604 400.292,312.585 400.285,312.558 Z" marker-start="none" marker-end="none"/>
       <path d="M 400.792,312.522 L 400.55,312.522 L 400.521,312.358 C 400.569,312.383 400.614,312.396 400.654,312.396 C 400.687,312.396 400.717,312.39 400.746,312.378 C 400.774,312.366 400.799,312.349 400.82,312.327 C 400.841,312.306 400.858,312.28 400.87,312.251 C 400.883,312.221 400.889,312.19 400.889,312.156 C 400.889,312.107 400.878,312.062 400.856,312.022 C 400.834,311.981 400.802,311.949 400.76,311.925 C 400.719,311.902 400.671,311.89 400.617,311.89 C 400.556,311.89 400.507,311.901 400.469,311.923 C 400.431,311.946 400.404,311.971 400.389,312 C 400.373,312.029 400.365,312.055 400.365,312.076 C 400.365,312.09 400.37,312.102 400.381,312.114 C 400.392,312.126 400.406,312.132 400.423,312.132 C 400.451,312.132 400.473,312.115 400.486,312.083 C 400.5,312.052 400.518,312.029 400.541,312.012 C 400.564,311.995 400.59,311.987 400.619,311.987 C 400.645,311.987 400.668,311.994 400.687,312.007 C 400.707,312.021 400.722,312.039 400.733,312.063 C 400.744,312.087 400.749,312.114 400.749,312.144 C 400.749,312.177 400.743,312.204 400.732,312.227 C 400.72,312.251 400.705,312.268 400.685,312.279 C 400.666,312.29 400.644,312.296 400.621,312.296 C 400.592,312.296 400.571,312.293 400.558,312.285 C 400.546,312.278 400.528,312.266 400.504,312.248 C 400.48,312.23 400.461,312.221 400.446,312.221 C 400.429,312.221 400.414,312.227 400.402,312.239 C 400.389,312.251 400.382,312.265 400.382,312.28 C 400.382,312.282 400.384,312.294 400.388,312.315 L 400.431,312.559 C 400.435,312.588 400.444,312.609 400.457,312.622 C 400.47,312.635 400.491,312.642 400.52,312.642 L 400.789,312.642 C 400.841,312.642 400.868,312.622 400.868,312.581 C 400.868,312.564 400.861,312.55 400.849,312.539 C 400.836,312.528 400.817,312.522 400.792,312.522 Z" marker-start="none" marker-end="none"/>
       <path d="M 401.498,312.268 C 401.498,312.213 401.495,312.165 401.488,312.125 C 401.481,312.085 401.469,312.048 401.45,312.016 C 401.427,311.976 401.397,311.945 401.361,311.923 C 401.324,311.902 401.283,311.891 401.239,311.891 C 401.187,311.891 401.141,311.905 401.1,311.935 C 401.059,311.964 401.029,312.004 401.008,312.056 C 400.997,312.084 400.99,312.115 400.985,312.149 C 400.98,312.183 400.977,312.22 400.977,312.26 C 400.977,312.311 400.98,312.357 400.985,312.398 C 400.991,312.439 400.999,312.474 401.011,312.504 C 401.031,312.552 401.06,312.59 401.098,312.615 C 401.136,312.641 401.182,312.654 401.235,312.654 C 401.27,312.654 401.301,312.648 401.33,312.637 C 401.358,312.625 401.383,312.609 401.405,312.587 C 401.426,312.565 401.445,312.538 401.459,312.506 C 401.485,312.45 401.498,312.371 401.498,312.268 Z M 401.359,312.278 C 401.359,312.34 401.355,312.391 401.348,312.431 C 401.34,312.47 401.328,312.5 401.31,312.52 C 401.292,312.54 401.268,312.55 401.237,312.55 C 401.192,312.55 401.161,312.528 401.143,312.483 C 401.126,312.438 401.117,312.368 401.117,312.274 C 401.117,312.211 401.121,312.158 401.128,312.118 C 401.136,312.077 401.148,312.046 401.166,312.025 C 401.184,312.004 401.208,311.994 401.238,311.994 C 401.269,311.994 401.293,312.005 401.311,312.027 C 401.329,312.048 401.341,312.079 401.348,312.12 C 401.355,312.16 401.359,312.213 401.359,312.278 Z" marker-start="none" marker-end="none"/>
       <path d="M 402.081,312.162 L 402.081,311.977 C 402.081,311.948 402.074,311.926 402.061,311.912 C 402.048,311.897 402.03,311.89 402.009,311.89 C 401.988,311.89 401.971,311.897 401.958,311.912 C 401.945,311.926 401.938,311.948 401.938,311.977 L 401.938,312.198 C 401.938,312.233 401.937,312.261 401.935,312.28 C 401.932,312.299 401.926,312.315 401.915,312.327 C 401.905,312.34 401.888,312.346 401.865,312.346 C 401.82,312.346 401.79,312.33 401.776,312.299 C 401.761,312.268 401.754,312.223 401.754,312.165 L 401.754,311.977 C 401.754,311.948 401.747,311.927 401.734,311.912 C 401.721,311.897 401.704,311.89 401.683,311.89 C 401.662,311.89 401.645,311.897 401.631,311.912 C 401.618,311.927 401.611,311.948 401.611,311.977 L 401.611,312.374 C 401.611,312.401 401.617,312.42 401.629,312.434 C 401.641,312.447 401.657,312.454 401.677,312.454 C 401.696,312.454 401.712,312.448 401.724,312.435 C 401.737,312.422 401.743,312.405 401.743,312.383 L 401.743,312.369 C 401.767,312.398 401.793,312.419 401.821,312.433 C 401.848,312.446 401.879,312.453 401.912,312.453 C 401.947,312.453 401.977,312.446 402.002,312.432 C 402.027,312.419 402.048,312.397 402.064,312.369 C 402.088,312.398 402.113,312.419 402.139,312.433 C 402.166,312.446 402.196,312.453 402.228,312.453 C 402.266,312.453 402.299,312.446 402.327,312.431 C 402.354,312.416 402.375,312.395 402.388,312.367 C 402.4,312.342 402.406,312.302 402.406,312.248 L 402.406,311.977 C 402.406,311.948 402.399,311.926 402.386,311.912 C 402.373,311.897 402.355,311.89 402.334,311.89 C 402.313,311.89 402.295,311.897 402.282,311.912 C 402.269,311.927 402.262,311.948 402.262,311.977 L 402.262,312.211 C 402.262,312.241 402.261,312.264 402.258,312.282 C 402.256,312.3 402.249,312.315 402.238,312.328 C 402.226,312.34 402.209,312.346 402.187,312.346 C 402.168,312.346 402.151,312.341 402.135,312.33 C 402.118,312.319 402.105,312.304 402.096,312.286 C 402.086,312.263 402.081,312.221 402.081,312.162 Z" marker-start="none" marker-end="none"/>
       <path d="M 402.661,312.562 L 402.83,312.062 L 402.999,312.565 C 403.008,312.592 403.015,312.61 403.019,312.62 C 403.024,312.631 403.031,312.64 403.041,312.648 C 403.051,312.657 403.065,312.661 403.083,312.661 C 403.096,312.661 403.108,312.658 403.119,312.651 C 403.13,312.645 403.138,312.636 403.145,312.625 C 403.151,312.615 403.154,312.604 403.154,312.593 C 403.154,312.586 403.153,312.578 403.151,312.569 C 403.149,312.56 403.146,312.552 403.143,312.544 C 403.14,312.535 403.137,312.527 403.134,312.518 L 402.954,312.031 C 402.947,312.012 402.941,311.994 402.934,311.978 C 402.928,311.961 402.92,311.946 402.912,311.933 C 402.903,311.921 402.892,311.91 402.878,311.902 C 402.864,311.894 402.847,311.89 402.827,311.89 C 402.806,311.89 402.789,311.894 402.775,311.902 C 402.761,311.91 402.749,311.92 402.741,311.933 C 402.732,311.946 402.725,311.961 402.718,311.978 C 402.712,311.994 402.705,312.012 402.699,312.031 L 402.521,312.514 C 402.518,312.523 402.515,312.531 402.512,312.54 C 402.509,312.548 402.506,312.557 402.504,312.567 C 402.502,312.577 402.501,312.585 402.501,312.592 C 402.501,312.609 402.507,312.625 402.521,312.639 C 402.535,312.654 402.553,312.661 402.574,312.661 C 402.6,312.661 402.618,312.653 402.628,312.637 C 402.639,312.621 402.65,312.596 402.661,312.562 Z" marker-start="none" marker-end="none"/>
      </g>
     </g>
     <path d="M 390.598,317.624 L 390.598,307.59" fill="none" stroke="#2999ef" stroke-width="0.417" stroke-miterlimit="79.8403193612775"/>
     <path d="M 404.69,317.623 L 404.69,307.622" fill="none" stroke="#2999ef" stroke-width="0.417" stroke-miterlimit="79.8403193612775"/>
     <g id="Group_16" fill-rule="nonzero" stroke="none" fill="#ffffff">
      <path d="M 391.679,316.763 C 391.679,316.763 391.563,316.809 391.445,316.714 C 391.445,316.714 391.306,316.621 391.28,316.226 C 391.28,316.226 391.273,316.161 391.331,316.151 C 391.331,316.151 391.389,316.14 391.397,316.189 C 391.404,316.238 391.403,316.487 391.513,316.615 C 391.513,316.615 391.524,316.631 391.553,316.643 C 391.578,316.658 391.597,316.686 391.611,316.708 C 391.611,316.708 391.633,316.737 391.679,316.763 L 391.679,316.763 Z" marker-start="none" marker-end="none"/>
      <path d="M 391.888,316.772 C 391.888,316.772 391.785,316.805 391.674,316.72 C 391.674,316.72 391.542,316.64 391.511,316.32 C 391.511,316.32 391.5,316.241 391.506,316.201 C 391.506,316.201 391.511,316.154 391.56,316.15 C 391.56,316.15 391.618,316.146 391.621,316.2 C 391.625,316.255 391.626,316.277 391.626,316.277 C 391.626,316.277 391.635,316.489 391.722,316.597 C 391.722,316.597 391.742,316.582 391.742,316.582 C 391.742,316.582 391.772,316.693 391.888,316.772 C 391.888,316.772 391.888,316.772 391.888,316.772 L 391.888,316.772 Z" marker-start="none" marker-end="none"/>
      <path d="M 392.097,316.772 C 392.097,316.772 391.959,316.805 391.859,316.696 C 391.859,316.696 391.76,316.608 391.731,316.388 C 391.731,316.388 391.719,316.27 391.716,316.213 C 391.716,316.213 391.715,316.157 391.769,316.15 C 391.769,316.15 391.824,316.147 391.828,316.205 C 391.828,316.205 391.831,316.474 391.931,316.597 C 391.931,316.597 391.955,316.582 391.955,316.582 C 391.955,316.582 391.998,316.706 392.097,316.772 C 392.097,316.772 392.097,316.772 392.097,316.772 L 392.097,316.772 Z" marker-start="none" marker-end="none"/>
      <path d="M 392.255,316.775 C 392.255,316.775 392.117,316.781 392.035,316.641 C 392.035,316.641 391.941,316.504 391.941,316.223 C 391.941,316.223 391.936,316.156 391.988,316.15 C 391.988,316.15 392.05,316.146 392.05,316.217 C 392.05,316.217 392.052,316.494 392.158,316.606 C 392.158,316.606 392.252,316.494 392.26,316.23 C 392.26,316.23 392.263,316.048 392.297,315.948 C 392.297,315.948 392.327,316.06 392.333,316.216 C 392.333,316.216 392.331,316.244 392.355,316.264 C 392.355,316.264 392.372,316.272 392.369,316.3 C 392.369,316.3 392.346,316.531 392.269,316.662 C 392.269,316.662 392.432,316.672 392.464,316.346 C 392.464,316.346 392.465,316.299 392.491,316.269 C 392.491,316.269 392.51,316.255 392.512,316.222 C 392.512,316.222 392.517,316.176 392.503,316.027 C 392.503,316.027 392.5,315.994 392.514,315.947 C 392.514,315.947 392.555,316.059 392.544,316.168 C 392.544,316.168 392.539,316.257 392.583,316.286 C 392.583,316.286 392.579,316.534 392.481,316.669 C 392.481,316.669 392.403,316.781 392.255,316.775 C 392.255,316.775 392.255,316.775 392.255,316.775 L 392.255,316.775 Z" marker-start="none" marker-end="none"/>
      <path d="M 392.741,315.655 C 392.741,315.655 392.857,315.61 392.974,315.704 C 392.974,315.704 393.113,315.798 393.139,316.192 C 393.139,316.192 393.147,316.258 393.089,316.267 C 393.089,316.267 393.03,316.279 393.023,316.229 C 393.015,316.18 393.017,315.931 392.906,315.804 C 392.906,315.804 392.896,315.788 392.866,315.775 C 392.842,315.76 392.822,315.732 392.808,315.71 C 392.808,315.71 392.786,315.682 392.741,315.655 L 392.741,315.655 Z" marker-start="none" marker-end="none"/>
      <path d="M 392.532,315.646 C 392.532,315.646 392.635,315.613 392.746,315.698 C 392.746,315.698 392.877,315.778 392.908,316.098 C 392.908,316.098 392.919,316.177 392.913,316.217 C 392.913,316.217 392.908,316.264 392.86,316.268 C 392.86,316.268 392.802,316.273 392.798,316.218 C 392.795,316.164 392.793,316.142 392.793,316.142 C 392.793,316.142 392.784,315.929 392.698,315.821 C 392.698,315.821 392.677,315.837 392.677,315.837 C 392.677,315.837 392.647,315.725 392.532,315.646 C 392.532,315.646 392.532,315.646 392.532,315.646 L 392.532,315.646 Z" marker-start="none" marker-end="none"/>
      <path d="M 392.323,315.646 C 392.323,315.646 392.46,315.614 392.56,315.722 C 392.56,315.722 392.659,315.811 392.689,316.03 C 392.689,316.03 392.701,316.148 392.703,316.205 C 392.703,316.205 392.704,316.261 392.65,316.268 C 392.65,316.268 392.595,316.271 392.592,316.213 C 392.592,316.213 392.588,315.944 392.489,315.821 C 392.489,315.821 392.464,315.837 392.464,315.837 C 392.464,315.837 392.421,315.712 392.323,315.646 C 392.323,315.646 392.323,315.646 392.323,315.646 L 392.323,315.646 Z" marker-start="none" marker-end="none"/>
      <path d="M 392.164,315.643 C 392.164,315.643 392.303,315.637 392.384,315.777 C 392.384,315.777 392.478,315.914 392.478,316.195 C 392.478,316.195 392.484,316.262 392.432,316.268 C 392.432,316.268 392.37,316.272 392.37,316.201 C 392.37,316.201 392.367,315.924 392.261,315.812 C 392.261,315.812 392.167,315.924 392.16,316.189 C 392.16,316.189 392.156,316.37 392.123,316.47 C 392.123,316.47 392.092,316.358 392.086,316.203 C 392.086,316.203 392.088,316.174 392.064,316.154 C 392.064,316.154 392.048,316.146 392.051,316.118 C 392.051,316.118 392.073,315.887 392.15,315.757 C 392.15,315.757 391.987,315.746 391.955,316.072 C 391.955,316.072 391.955,316.12 391.928,316.149 C 391.928,316.149 391.909,316.163 391.907,316.197 C 391.907,316.197 391.902,316.243 391.916,316.392 C 391.916,316.392 391.919,316.425 391.905,316.471 C 391.905,316.471 391.865,316.36 391.875,316.25 C 391.875,316.25 391.881,316.162 391.837,316.132 C 391.837,316.132 391.84,315.884 391.939,315.749 C 391.939,315.749 392.017,315.637 392.164,315.643 C 392.164,315.643 392.164,315.643 392.164,315.643 L 392.164,315.643 Z" marker-start="none" marker-end="none"/>
      <path d="M 393.329,316.455 C 393.329,316.455 393.388,316.636 393.388,316.636 C 393.398,316.668 393.431,316.681 393.46,316.667 C 393.485,316.655 393.496,316.627 393.484,316.599 C 393.484,316.599 393.384,316.348 393.384,316.348 C 393.369,316.311 393.344,316.297 393.309,316.309 C 393.293,316.315 393.282,316.326 393.273,316.348 C 393.273,316.348 393.173,316.599 393.173,316.599 C 393.162,316.627 393.173,316.655 393.198,316.667 C 393.226,316.681 393.26,316.667 393.27,316.636 C 393.27,316.636 393.329,316.455 393.329,316.455 C 393.329,316.455 393.329,316.455 393.329,316.455 L 393.329,316.455 Z" marker-start="none" marker-end="none"/>
      <path d="M 393.525,316.806 C 393.548,316.829 393.585,316.828 393.608,316.805 C 393.631,316.782 393.631,316.745 393.608,316.722 C 393.585,316.699 393.548,316.699 393.525,316.721 C 393.514,316.733 393.508,316.748 393.508,316.764 C 393.508,316.779 393.514,316.794 393.525,316.806 C 393.525,316.806 393.525,316.806 393.525,316.806 L 393.525,316.806 Z M 393.516,316.621 C 393.516,316.635 393.521,316.648 393.531,316.658 C 393.551,316.678 393.583,316.677 393.603,316.658 C 393.612,316.648 393.618,316.634 393.618,316.621 C 393.618,316.621 393.618,316.356 393.618,316.356 C 393.618,316.327 393.596,316.305 393.567,316.304 C 393.539,316.304 393.516,316.327 393.516,316.355 C 393.516,316.355 393.516,316.621 393.516,316.621 C 393.516,316.621 393.516,316.621 393.516,316.621 L 393.516,316.621 Z" marker-start="none" marker-end="none"/>
      <path d="M 393.866,316.672 C 393.943,316.664 393.968,316.63 393.959,316.597 C 393.954,316.574 393.937,316.561 393.917,316.561 C 393.914,316.562 393.911,316.562 393.907,316.563 C 393.907,316.563 393.902,316.565 393.902,316.565 C 393.902,316.565 393.893,316.568 393.893,316.568 C 393.893,316.568 393.886,316.57 393.886,316.57 C 393.886,316.57 393.877,316.573 393.877,316.573 C 393.815,316.593 393.766,316.557 393.766,316.487 C 393.767,316.418 393.818,316.384 393.884,316.406 C 393.884,316.406 393.895,316.409 393.895,316.409 C 393.895,316.409 393.899,316.411 393.899,316.411 C 393.929,316.422 393.956,316.407 393.961,316.376 C 393.965,316.35 393.947,316.327 393.899,316.311 C 393.888,316.307 393.875,316.305 393.862,316.303 C 393.748,316.293 393.661,316.372 393.663,316.49 C 393.664,316.608 393.752,316.685 393.866,316.672 C 393.866,316.672 393.866,316.672 393.866,316.672 L 393.866,316.672 Z" marker-start="none" marker-end="none"/>
      <path d="M 394.035,316.668 C 394.035,316.668 394.035,316.727 394.035,316.727 C 394.035,316.755 394.057,316.778 394.086,316.778 C 394.114,316.778 394.137,316.755 394.136,316.727 C 394.136,316.727 394.136,316.668 394.136,316.668 C 394.136,316.668 394.167,316.668 394.167,316.668 C 394.179,316.668 394.191,316.664 394.199,316.654 C 394.217,316.637 394.217,316.608 394.199,316.59 C 394.19,316.581 394.179,316.577 394.166,316.577 C 394.166,316.577 394.136,316.577 394.136,316.577 C 394.136,316.577 394.136,316.357 394.136,316.357 C 394.136,316.343 394.131,316.33 394.122,316.32 C 394.102,316.3 394.07,316.3 394.051,316.32 C 394.041,316.33 394.035,316.343 394.035,316.357 C 394.035,316.357 394.036,316.577 394.036,316.577 C 394.036,316.577 394.018,316.577 394.018,316.577 C 394.006,316.577 393.994,316.582 393.984,316.591 C 393.966,316.609 393.966,316.637 393.985,316.655 C 393.994,316.664 394.006,316.668 394.018,316.668 C 394.018,316.668 394.035,316.668 394.035,316.668 C 394.035,316.668 394.035,316.668 394.035,316.668 L 394.035,316.668 Z" marker-start="none" marker-end="none"/>
      <path d="M 394.232,316.623 C 394.232,316.648 394.253,316.67 394.284,316.672 C 394.316,316.675 394.335,316.655 394.334,316.636 C 394.334,316.636 394.333,316.63 394.333,316.63 C 394.336,316.634 394.338,316.637 394.342,316.64 C 394.381,316.682 394.425,316.681 394.446,316.651 C 394.464,316.624 394.454,316.594 394.428,316.583 C 394.428,316.583 394.423,316.58 394.423,316.58 C 394.423,316.58 394.409,316.575 394.409,316.575 C 394.395,316.571 394.386,316.566 394.378,316.561 C 394.346,316.542 394.334,316.525 394.334,316.508 C 394.334,316.508 394.334,316.356 394.334,316.356 C 394.334,316.328 394.312,316.305 394.283,316.305 C 394.255,316.305 394.232,316.327 394.232,316.355 C 394.232,316.355 394.232,316.623 394.232,316.623 C 394.232,316.623 394.232,316.623 394.232,316.623 L 394.232,316.623 Z" marker-start="none" marker-end="none"/>
      <path d="M 394.554,316.473 C 394.563,316.412 394.598,316.385 394.642,316.395 C 394.671,316.401 394.693,316.427 394.698,316.472 C 394.7,316.483 394.7,316.494 394.698,316.504 C 394.693,316.548 394.67,316.574 394.642,316.58 C 394.6,316.589 394.562,316.563 394.554,316.504 C 394.553,316.498 394.553,316.493 394.553,316.488 C 394.553,316.482 394.553,316.478 394.554,316.473 C 394.554,316.473 394.554,316.473 394.554,316.473 L 394.554,316.473 Z M 394.477,316.588 C 394.51,316.643 394.566,316.675 394.627,316.675 C 394.723,316.675 394.802,316.595 394.803,316.489 C 394.803,316.382 394.724,316.303 394.627,316.303 C 394.529,316.303 394.451,316.382 394.451,316.489 C 394.451,316.528 394.46,316.56 394.477,316.588 C 394.477,316.588 394.477,316.588 394.477,316.588 L 394.477,316.588 Z" marker-start="none" marker-end="none"/>
      <path d="M 394.846,316.621 C 394.846,316.646 394.867,316.67 394.897,316.672 C 394.924,316.675 394.943,316.658 394.943,316.639 C 394.943,316.639 394.943,316.635 394.943,316.635 C 394.959,316.654 394.981,316.667 395.012,316.672 C 395.029,316.676 395.045,316.676 395.061,316.673 C 395.131,316.662 395.17,316.615 395.17,316.546 C 395.17,316.546 395.17,316.355 395.17,316.355 C 395.17,316.327 395.147,316.304 395.12,316.303 C 395.091,316.303 395.068,316.326 395.068,316.355 C 395.068,316.355 395.068,316.528 395.068,316.528 C 395.068,316.544 395.061,316.559 395.05,316.571 C 395.027,316.595 394.989,316.595 394.966,316.571 C 394.954,316.559 394.948,316.545 394.948,316.529 C 394.948,316.529 394.948,316.355 394.948,316.355 C 394.948,316.327 394.925,316.304 394.897,316.305 C 394.869,316.305 394.846,316.328 394.846,316.356 C 394.846,316.356 394.846,316.621 394.846,316.621 C 394.846,316.621 394.846,316.621 394.846,316.621 L 394.846,316.621 Z" marker-start="none" marker-end="none"/>
      <path d="M 395.642,316.522 C 395.641,316.524 395.641,316.527 395.64,316.529 C 395.63,316.577 395.595,316.6 395.556,316.591 C 395.532,316.585 395.51,316.563 395.502,316.53 C 395.501,316.528 395.501,316.525 395.5,316.522 C 395.5,316.522 395.642,316.522 395.642,316.522 C 395.642,316.522 395.642,316.522 395.642,316.522 L 395.642,316.522 Z M 395.503,316.457 C 395.506,316.444 395.512,316.431 395.52,316.421 C 395.547,316.388 395.597,316.38 395.654,316.41 C 395.686,316.428 395.695,316.429 395.713,316.423 C 395.723,316.419 395.73,316.411 395.735,316.401 C 395.749,316.365 395.705,316.303 395.58,316.303 C 395.453,316.303 395.369,316.407 395.398,316.534 C 395.415,316.607 395.47,316.659 395.539,316.671 C 395.618,316.686 395.694,316.646 395.727,316.57 C 395.736,316.55 395.741,316.528 395.742,316.512 C 395.746,316.471 395.733,316.457 395.699,316.457 C 395.699,316.457 395.503,316.457 395.503,316.457 C 395.503,316.457 395.503,316.457 395.503,316.457 L 395.503,316.457 Z" marker-start="none" marker-end="none"/>
      <path d="M 395.78,316.621 C 395.78,316.646 395.801,316.67 395.831,316.672 C 395.858,316.675 395.877,316.658 395.877,316.639 C 395.877,316.639 395.877,316.635 395.877,316.635 C 395.893,316.654 395.915,316.667 395.946,316.672 C 395.963,316.676 395.979,316.676 395.995,316.673 C 396.065,316.662 396.104,316.615 396.104,316.546 C 396.104,316.546 396.104,316.355 396.104,316.355 C 396.104,316.327 396.081,316.304 396.053,316.303 C 396.025,316.303 396.002,316.326 396.002,316.355 C 396.002,316.355 396.002,316.528 396.002,316.528 C 396.002,316.544 395.995,316.559 395.984,316.571 C 395.961,316.595 395.923,316.595 395.9,316.571 C 395.888,316.559 395.882,316.545 395.882,316.529 C 395.882,316.529 395.882,316.355 395.882,316.355 C 395.882,316.327 395.859,316.304 395.831,316.305 C 395.803,316.305 395.78,316.328 395.78,316.356 C 395.78,316.356 395.78,316.621 395.78,316.621 C 395.78,316.621 395.78,316.621 395.78,316.621 L 395.78,316.621 Z" marker-start="none" marker-end="none"/>
      <path d="M 396.396,316.522 C 396.396,316.524 396.396,316.527 396.395,316.529 C 396.385,316.577 396.35,316.6 396.311,316.591 C 396.286,316.585 396.265,316.563 396.256,316.53 C 396.256,316.528 396.256,316.525 396.255,316.522 C 396.255,316.522 396.396,316.522 396.396,316.522 C 396.396,316.522 396.396,316.522 396.396,316.522 L 396.396,316.522 Z M 396.258,316.457 C 396.26,316.444 396.266,316.431 396.275,316.421 C 396.302,316.388 396.352,316.38 396.408,316.41 C 396.441,316.428 396.45,316.429 396.467,316.423 C 396.477,316.419 396.485,316.411 396.489,316.401 C 396.504,316.365 396.459,316.303 396.335,316.303 C 396.208,316.303 396.124,316.407 396.153,316.534 C 396.17,316.607 396.225,316.659 396.293,316.671 C 396.373,316.686 396.449,316.646 396.482,316.57 C 396.491,316.55 396.496,316.528 396.497,316.512 C 396.501,316.471 396.488,316.457 396.454,316.457 C 396.454,316.457 396.258,316.457 396.258,316.457 C 396.258,316.457 396.258,316.457 396.258,316.457 L 396.258,316.457 Z" marker-start="none" marker-end="none"/>
      <path d="M 396.535,316.623 C 396.535,316.648 396.555,316.67 396.587,316.672 C 396.619,316.675 396.638,316.655 396.636,316.636 C 396.636,316.636 396.636,316.63 396.636,316.63 C 396.638,316.634 396.641,316.637 396.644,316.64 C 396.684,316.682 396.728,316.681 396.748,316.651 C 396.766,316.624 396.757,316.594 396.731,316.583 C 396.731,316.583 396.725,316.58 396.725,316.58 C 396.725,316.58 396.711,316.575 396.711,316.575 C 396.698,316.571 396.689,316.566 396.681,316.561 C 396.648,316.542 396.637,316.525 396.637,316.508 C 396.637,316.508 396.637,316.356 396.637,316.356 C 396.637,316.328 396.615,316.305 396.586,316.305 C 396.558,316.305 396.535,316.327 396.535,316.355 C 396.535,316.355 396.535,316.623 396.535,316.623 C 396.535,316.623 396.535,316.623 396.535,316.623 L 396.535,316.623 Z" marker-start="none" marker-end="none"/>
      <path d="M 396.876,316.421 C 396.905,316.386 396.957,316.387 396.984,316.423 C 396.996,316.439 397.002,316.458 397.002,316.486 C 397.002,316.531 396.986,316.559 396.959,316.573 C 396.915,316.595 396.865,316.565 396.857,316.505 C 396.857,316.499 396.856,316.492 396.856,316.486 C 396.856,316.459 396.864,316.437 396.876,316.421 C 396.876,316.421 396.876,316.421 396.876,316.421 L 396.876,316.421 Z M 397.005,316.638 C 397.006,316.657 397.024,316.674 397.052,316.671 C 397.081,316.669 397.103,316.645 397.103,316.619 C 397.103,316.619 397.103,316.353 397.103,316.353 C 397.103,316.22 397.024,316.148 396.886,316.163 C 396.858,316.166 396.833,316.173 396.809,316.183 C 396.76,316.206 396.752,316.24 396.776,316.265 C 396.789,316.28 396.805,316.284 396.828,316.276 C 396.828,316.276 396.829,316.275 396.829,316.275 C 396.829,316.275 396.849,316.266 396.849,316.266 C 396.854,316.264 396.858,316.262 396.863,316.261 C 396.95,316.23 397,316.265 397.002,316.332 C 397.002,316.336 397.002,316.341 397.002,316.346 C 396.964,316.292 396.87,316.283 396.806,316.346 C 396.765,316.388 396.744,316.455 396.758,316.529 C 396.762,316.555 396.771,316.578 396.783,316.597 C 396.839,316.688 396.953,316.697 397.005,316.633 C 397.005,316.633 397.005,316.638 397.005,316.638 C 397.005,316.638 397.005,316.638 397.005,316.638 L 397.005,316.638 Z" marker-start="none" marker-end="none"/>
      <path d="M 397.16,316.668 C 397.188,316.679 397.217,316.666 397.229,316.634 C 397.229,316.634 397.293,316.463 397.293,316.463 C 397.293,316.463 397.358,316.634 397.358,316.634 C 397.371,316.667 397.4,316.68 397.428,316.667 C 397.454,316.655 397.464,316.626 397.454,316.6 C 397.454,316.6 397.288,316.196 397.288,316.196 C 397.274,316.162 397.247,316.149 397.219,316.161 C 397.192,316.172 397.181,316.201 397.192,316.228 C 397.192,316.228 397.24,316.338 397.24,316.338 C 397.24,316.338 397.132,316.603 397.132,316.603 C 397.122,316.628 397.134,316.657 397.16,316.668 C 397.16,316.668 397.16,316.668 397.16,316.668 L 397.16,316.668 Z" marker-start="none" marker-end="none"/>
      <path d="M 393.904,316.09 C 393.909,316.087 393.912,316.08 393.912,316.072 C 393.912,316.063 393.909,316.056 393.904,316.052 C 393.899,316.048 393.891,316.046 393.88,316.046 C 393.876,316.046 393.872,316.046 393.866,316.047 C 393.866,316.047 393.866,316.096 393.866,316.096 C 393.866,316.096 393.88,316.097 393.88,316.097 C 393.891,316.097 393.899,316.095 393.904,316.09 C 393.904,316.09 393.904,316.09 393.904,316.09 L 393.904,316.09 Z M 393.918,316.042 C 393.926,316.049 393.93,316.058 393.93,316.069 C 393.93,316.079 393.928,316.087 393.923,316.092 C 393.918,316.098 393.911,316.102 393.901,316.105 C 393.906,316.106 393.911,316.109 393.916,316.114 C 393.92,316.119 393.922,316.124 393.922,316.13 C 393.922,316.141 393.919,316.149 393.912,316.154 C 393.905,316.16 393.895,316.162 393.882,316.162 C 393.875,316.162 393.864,316.162 393.848,316.161 C 393.848,316.161 393.848,316.032 393.848,316.032 C 393.848,316.032 393.885,316.032 393.885,316.032 C 393.898,316.032 393.909,316.035 393.918,316.042 C 393.918,316.042 393.918,316.042 393.918,316.042 L 393.918,316.042 Z M 393.882,316.148 C 393.897,316.148 393.905,316.142 393.905,316.13 C 393.905,316.116 393.896,316.109 393.88,316.109 C 393.874,316.109 393.869,316.109 393.866,316.11 C 393.866,316.11 393.866,316.147 393.866,316.147 C 393.87,316.147 393.876,316.148 393.882,316.148 C 393.882,316.148 393.882,316.148 393.882,316.148 L 393.882,316.148 Z" marker-start="none" marker-end="none"/>
      <path d="M 394.19,316.032 C 394.19,316.032 394.113,316.032 394.113,316.032 C 394.113,316.032 394.113,316.161 394.113,316.161 C 394.113,316.161 394.131,316.161 394.131,316.161 C 394.131,316.161 394.131,316.048 394.131,316.048 C 394.131,316.048 394.19,316.048 394.19,316.048 C 394.19,316.048 394.19,316.032 394.19,316.032 C 394.19,316.032 394.19,316.032 394.19,316.032 L 394.19,316.032 Z" marker-start="none" marker-end="none"/>
      <path d="M 394.368,316.071 C 394.368,316.071 394.368,316.161 394.368,316.161 C 394.368,316.161 394.385,316.161 394.385,316.161 C 394.385,316.161 394.385,316.072 394.385,316.072 C 394.385,316.065 394.388,316.058 394.393,316.053 C 394.398,316.048 394.405,316.045 394.413,316.045 C 394.422,316.045 394.429,316.048 394.433,316.053 C 394.439,316.058 394.441,316.064 394.441,316.073 C 394.441,316.073 394.441,316.161 394.441,316.161 C 394.441,316.161 394.459,316.161 394.459,316.161 C 394.459,316.161 394.459,316.071 394.459,316.071 C 394.459,316.058 394.455,316.048 394.446,316.04 C 394.438,316.033 394.427,316.029 394.413,316.029 C 394.399,316.029 394.387,316.033 394.38,316.04 C 394.372,316.047 394.368,316.058 394.368,316.071 C 394.368,316.071 394.368,316.071 394.368,316.071 L 394.368,316.071 Z" marker-start="none" marker-end="none"/>
      <path d="M 394.755,316.145 C 394.755,316.145 394.696,316.145 394.696,316.145 C 394.696,316.145 394.696,316.109 394.696,316.109 C 394.696,316.109 394.739,316.109 394.739,316.109 C 394.739,316.109 394.739,316.094 394.739,316.094 C 394.739,316.094 394.696,316.094 394.696,316.094 C 394.696,316.094 394.696,316.048 394.696,316.048 C 394.696,316.048 394.755,316.048 394.755,316.048 C 394.755,316.048 394.755,316.032 394.755,316.032 C 394.755,316.032 394.678,316.032 394.678,316.032 C 394.678,316.032 394.678,316.161 394.678,316.161 C 394.678,316.161 394.755,316.161 394.755,316.161 C 394.755,316.161 394.755,316.145 394.755,316.145 C 394.755,316.145 394.755,316.145 394.755,316.145 L 394.755,316.145 Z" marker-start="none" marker-end="none"/>
      <path d="M 395.186,316.081 C 395.219,316.081 395.236,316.095 395.236,316.124 C 395.236,316.149 395.217,316.162 395.18,316.162 C 395.177,316.162 395.169,316.162 395.155,316.161 C 395.155,316.161 395.155,316.032 395.155,316.032 C 395.155,316.032 395.173,316.032 395.173,316.032 C 395.173,316.032 395.173,316.081 395.173,316.081 C 395.18,316.081 395.184,316.081 395.186,316.081 C 395.186,316.081 395.186,316.081 395.186,316.081 L 395.186,316.081 Z M 395.183,316.146 C 395.206,316.146 395.218,316.138 395.218,316.122 C 395.218,316.105 395.207,316.097 395.185,316.097 C 395.184,316.097 395.18,316.097 395.173,316.097 C 395.173,316.097 395.173,316.145 395.173,316.145 C 395.177,316.146 395.18,316.146 395.183,316.146 C 395.183,316.146 395.183,316.146 395.183,316.146 L 395.183,316.146 Z" marker-start="none" marker-end="none"/>
      <path d="M 395.427,316.049 C 395.436,316.036 395.449,316.029 395.465,316.029 C 395.483,316.029 395.497,316.036 395.506,316.048 C 395.516,316.06 395.521,316.076 395.521,316.098 C 395.521,316.118 395.516,316.134 395.506,316.146 C 395.497,316.158 395.483,316.163 395.465,316.163 C 395.449,316.163 395.436,316.157 395.427,316.145 C 395.418,316.132 395.413,316.116 395.413,316.098 C 395.413,316.078 395.418,316.061 395.427,316.049 C 395.427,316.049 395.427,316.049 395.427,316.049 L 395.427,316.049 Z M 395.44,316.134 C 395.446,316.143 395.454,316.148 395.465,316.148 C 395.49,316.148 395.502,316.131 395.502,316.098 C 395.502,316.081 395.499,316.068 395.493,316.059 C 395.486,316.05 395.477,316.045 395.465,316.045 C 395.454,316.045 395.446,316.05 395.44,316.06 C 395.434,316.07 395.431,316.083 395.431,316.098 C 395.431,316.113 395.434,316.125 395.44,316.134 C 395.44,316.134 395.44,316.134 395.44,316.134 L 395.44,316.134 Z" marker-start="none" marker-end="none"/>
      <path d="M 395.844,316.161 C 395.844,316.161 395.803,316.03 395.803,316.03 C 395.803,316.03 395.798,316.03 395.798,316.03 C 395.798,316.03 395.767,316.119 395.767,316.119 C 395.767,316.119 395.738,316.03 395.738,316.03 C 395.738,316.03 395.733,316.03 395.733,316.03 C 395.733,316.03 395.692,316.161 395.692,316.161 C 395.692,316.161 395.71,316.161 395.71,316.161 C 395.71,316.161 395.736,316.071 395.736,316.071 C 395.736,316.071 395.765,316.161 395.765,316.161 C 395.765,316.161 395.771,316.161 395.771,316.161 C 395.771,316.161 395.799,316.071 395.799,316.071 C 395.799,316.071 395.825,316.161 395.825,316.161 C 395.825,316.161 395.844,316.161 395.844,316.161 C 395.844,316.161 395.844,316.161 395.844,316.161 L 395.844,316.161 Z" marker-start="none" marker-end="none"/>
      <path d="M 396.098,316.145 C 396.098,316.145 396.039,316.145 396.039,316.145 C 396.039,316.145 396.039,316.109 396.039,316.109 C 396.039,316.109 396.081,316.109 396.081,316.109 C 396.081,316.109 396.081,316.094 396.081,316.094 C 396.081,316.094 396.039,316.094 396.039,316.094 C 396.039,316.094 396.039,316.048 396.039,316.048 C 396.039,316.048 396.097,316.048 396.097,316.048 C 396.097,316.048 396.097,316.032 396.097,316.032 C 396.097,316.032 396.021,316.032 396.021,316.032 C 396.021,316.032 396.021,316.161 396.021,316.161 C 396.021,316.161 396.098,316.161 396.098,316.161 C 396.098,316.161 396.098,316.145 396.098,316.145 C 396.098,316.145 396.098,316.145 396.098,316.145 L 396.098,316.145 Z" marker-start="none" marker-end="none"/>
      <path d="M 396.335,316.091 C 396.342,316.093 396.348,316.097 396.353,316.103 C 396.358,316.11 396.361,316.117 396.361,316.125 C 396.361,316.15 396.345,316.162 396.314,316.162 C 396.31,316.162 396.304,316.162 396.295,316.162 C 396.287,316.161 396.282,316.161 396.282,316.161 C 396.282,316.161 396.282,316.032 396.282,316.032 C 396.282,316.032 396.299,316.032 396.299,316.032 C 396.299,316.032 396.299,316.088 396.299,316.088 C 396.308,316.088 396.314,316.087 396.318,316.087 C 396.318,316.087 396.353,316.032 396.353,316.032 C 396.353,316.032 396.373,316.032 396.373,316.032 C 396.373,316.032 396.335,316.091 396.335,316.091 C 396.335,316.091 396.335,316.091 396.335,316.091 L 396.335,316.091 Z M 396.31,316.146 C 396.321,316.146 396.329,316.145 396.334,316.141 C 396.339,316.138 396.342,316.133 396.342,316.126 C 396.342,316.117 396.34,316.111 396.335,316.107 C 396.33,316.104 396.322,316.102 396.312,316.102 C 396.308,316.102 396.304,316.103 396.299,316.103 C 396.299,316.103 396.299,316.145 396.299,316.145 C 396.305,316.146 396.308,316.146 396.31,316.146 C 396.31,316.146 396.31,316.146 396.31,316.146 L 396.31,316.146 Z" marker-start="none" marker-end="none"/>
     </g>
    </g>
   </g>
  </g>
 </g>
</svg>
