<?xml version="1.0" standalone="no"?>
<!DOCTYPE svg PUBLIC "-//W3C//DTD SVG 1.1//EN" "http://www.w3.org/Graphics/SVG/1.1/DTD/svg11.dtd">
<!--Generator: Xara Xtreme (www.xara.com), SVG filter version: 1.0.0.13-->
<svg stroke-width="0.501" stroke-linejoin="bevel" fill-rule="evenodd" xmlns:xlink="http://www.w3.org/1999/xlink" xmlns="http://www.w3.org/2000/svg" version="1.1" overflow="visible" width="841.891pt" height="595.277pt" viewBox="0 0 841.891 595.277">
 <defs>
  <marker id="DefaultArrow2" markerUnits="strokeWidth" viewBox="0 0 1 1" markerWidth="1" markerHeight="1" overflow="visible" orient="auto">
   <!-- REF_ARROW_STRAIGHT (-2) -->
   <g transform="scale(0.0092592592)">
    <!-- 1/108 -->
    <path d="M -9 54 L -9 -54 L 117 0 z"/>
   </g>
  </marker>
  <marker id="DefaultArrow3" markerUnits="strokeWidth" viewBox="0 0 1 1" markerWidth="1" markerHeight="1" overflow="visible" orient="auto">
   <!-- REF_ARROW_ANGLED -->
   <g transform="scale(0.0092592592)">
    <path d="M -27 54 L -9 0 L -27 -54 L 135 0 z"/>
   </g>
  </marker>
  <marker id="DefaultArrow4" markerUnits="strokeWidth" viewBox="0 0 1 1" markerWidth="1" markerHeight="1" overflow="visible" orient="auto">
   <!-- REF_ARROW_ROUNDED -->
   <g transform="scale(0.0092592592)">
    <path d="M -9,0 L -9,-45 C -9,-51.708 2.808,-56.580 9,-54 L 117,-9 C 120.916,-7.369 126.000,-4.242 126,0 C 126,4.242 120.916,7.369 117,9 L 9,54 C 2.808,56.580 -9,51.708 -9,45 z"/>
   </g>
  </marker>
  <marker id="DefaultArrow5" markerUnits="strokeWidth" viewBox="0 0 1 1" markerWidth="1" markerHeight="1" overflow="visible" orient="auto">
   <!-- REF_ARROW_SPOT -->
   <g transform="scale(0.0092592592)">
    <path d="M -54, 0 C -54,29.807 -29.807,54 0,54 C 29.807,54 54,29.807 54,0 C 54,-29.807 29.807,-54 0,-54 C -29.807,-54 -54,-29.807 -54,0 z"/>
   </g>
  </marker>
  <marker id="DefaultArrow6" markerUnits="strokeWidth" viewBox="0 0 1 1" markerWidth="1" markerHeight="1" overflow="visible" orient="auto">
   <!-- REF_ARROW_DIAMOND -->
   <g transform="scale(0.0092592592)">
    <path d="M -63,0 L 0,63 L 63,0 L 0,-63 z"/>
   </g>
  </marker>
  <marker id="DefaultArrow7" markerUnits="strokeWidth" viewBox="0 0 1 1" markerWidth="1" markerHeight="1" overflow="visible" orient="auto">
   <!-- REF_ARROW_FEATHER -->
   <g transform="scale(0.0092592592)">
    <path d="M 18,-54 L 108,-54 L 63,0 L 108,54 L 18, 54 L -36,0 z"/>
   </g>
  </marker>
  <marker id="DefaultArrow8" markerUnits="strokeWidth" viewBox="0 0 1 1" markerWidth="1" markerHeight="1" overflow="visible" orient="auto">
   <!-- REF_ARROW_FEATHER2 -->
   <g transform="scale(0.0092592592)">
    <path d="M -36,0 L 18,-54 L 54,-54 L 18,-18 L 27,-18 L 63,-54 L 99,-54 L 63,-18 L 72,-18 L 108,-54 L 144,-54 L 90,0 L 144,54 L 108,54 L 72,18 L 63,18 L 99,54 L 63,54 L 27,18 L 18,18 L 54,54 L 18,54 z"/>
   </g>
  </marker>
  <marker id="DefaultArrow9" markerUnits="strokeWidth" viewBox="0 0 1 1" markerWidth="1" markerHeight="1" overflow="visible" orient="auto">
   <!-- REF_ARROW_HOLLOWDIAMOND -->
   <g transform="scale(0.0092592592)">
    <path d="M 0,45 L -45,0 L 0, -45 L 45, 0 z M 0, 63 L-63, 0 L 0, -63 L 63, 0 z"/>
   </g>
  </marker>
  <filter id="StainedFilter">
   <feBlend mode="multiply" in2="BackgroundImage" in="SourceGraphic" result="blend"/>
   <feComposite in="blend" in2="SourceAlpha" operator="in" result="comp"/>
  </filter>
  <filter id="BleachFilter">
   <feBlend mode="screen" in2="BackgroundImage" in="SourceGraphic" result="blend"/>
   <feComposite in="blend" in2="SourceAlpha" operator="in" result="comp"/>
  </filter>
  <filter id="InvertTransparencyBitmapFilter">
   <feComponentTransfer>
    <feFuncR type="gamma" amplitude="1.055" exponent=".416666666" offset="-0.055"/>
    <feFuncG type="gamma" amplitude="1.055" exponent=".416666666" offset="-0.055"/>
    <feFuncB type="gamma" amplitude="1.055" exponent=".416666666" offset="-0.055"/>
   </feComponentTransfer>
   <feComponentTransfer>
    <feFuncR type="linear" slope="-1" intercept="1"/>
    <feFuncG type="linear" slope="-1" intercept="1"/>
    <feFuncB type="linear" slope="-1" intercept="1"/>
    <feFuncA type="linear" slope="1" intercept="0"/>
   </feComponentTransfer>
   <feComponentTransfer>
    <feFuncR type="gamma" amplitude="1" exponent="2.4" offset="0"/>
    <feFuncG type="gamma" amplitude="1" exponent="2.4" offset="0"/>
    <feFuncB type="gamma" amplitude="1" exponent="2.4" offset="0"/>
   </feComponentTransfer>
  </filter>
  <marker id="DefaultArrowScaled" markerUnits="strokeWidth" viewBox="0 0 1 1" markerWidth="3" markerHeight="3" overflow="visible" orient="auto">
   <!-- REF_ARROW_ANGLED -->
   <g transform="scale(0.0092592592)">
    <path d="M -27 54 L -9 0 L -27 -54 L 135 0 z"/>
   </g>
  </marker>
  <marker id="DefaultArrowStyled" markerUnits="strokeWidth" viewBox="0 0 1 1" markerWidth="3" markerHeight="3" overflow="visible" orient="auto" fill="#ffffff" fill-opacity="1.000000">
   <!-- REF_ARROW_ANGLED -->
   <g transform="scale(0.0092592592)">
    <path d="M -27 54 L -9 0 L -27 -54 L 135 0 z"/>
   </g>
  </marker>
 </defs>
 <g id="Document" fill="none" stroke="black" font-family="Times New Roman" font-size="16" transform="scale(1 -1)">
  <g id="Spread" transform="translate(0 -595.277)">
   <g id="Layer 1"/>
   <g id="logo">
    <g id="Group">
     <path d="M 328.22,336.4 L 328.22,327.167 L 332.916,327.167 L 332.916,336.4 L 328.22,336.4 Z" stroke="#4c4c4c" fill="#191919" stroke-width="0.198" stroke-linejoin="miter" marker-start="none" marker-end="none" stroke-miterlimit="79.8403193612775"/>
     <path d="M 333.177,336.408 L 333.177,327.175 L 337.873,327.175 L 337.873,336.408 L 333.177,336.408 Z" fill="#bf0000" stroke="#4c4c4c" stroke-width="0.198" stroke-linejoin="miter" marker-start="none" marker-end="none" stroke-miterlimit="79.8403193612775"/>
     <g id="Group_1">
      <path d="M 335.605,334.069 C 336.408,334.069 337.06,333.417 337.06,332.614 C 337.06,331.81 336.408,331.158 335.605,331.158 C 334.801,331.158 334.149,331.81 334.149,332.614 C 334.149,333.417 334.801,334.069 335.605,334.069 Z" fill="#7f7f7f" stroke="#4c4c4c" stroke-width="0.097" marker-start="none" marker-end="none" stroke-miterlimit="79.8403193612775"/>
      <path d="M 335.605,333.843 C 336.282,333.843 336.833,333.292 336.833,332.615 C 336.833,331.937 336.282,331.386 335.605,331.386 C 334.927,331.386 334.376,331.937 334.376,332.615 C 334.376,333.292 334.927,333.843 335.605,333.843 Z" fill="#333333" stroke="#4c4c4c" stroke-width="0.081" marker-start="none" marker-end="none" stroke-miterlimit="79.8403193612775"/>
      <g id="Group_2" fill-rule="nonzero" stroke="none" stroke-width="0.085" fill="#191919" stroke-miterlimit="79.8403193612775">
       <g id="Group_3">
        <path d="M 335.777,331.91 L 335.423,331.91 L 335.423,332.432 L 334.899,332.432 L 334.899,332.791 L 335.423,332.791 L 335.423,333.315 L 335.777,333.315 L 335.777,332.791 L 336.304,332.791 L 336.304,332.432 L 335.777,332.432 L 335.777,331.91 Z" marker-start="none" marker-end="none"/>
       </g>
      </g>
     </g>
     <path d="M 291.248,336.118 C 290.299,336.401 289.694,336.919 289.494,337.83 L 289.555,351.669 L 290.195,352.161 L 290.195,354.502 L 284.525,356.89 L 284.502,363.929 L 288.963,365.718 L 288.868,440.112 L 284.383,442.021 L 284.335,449.06 L 290.031,451.631 C 290.031,452.672 290.031,453.462 290.031,454.505 C 290.031,454.824 289.247,455.043 289.247,455.362 C 289.247,460.425 289.336,465.207 289.336,470.185 C 289.336,471.022 290.658,473.396 291.731,473.301 L 293.411,473.248 L 300.898,470.447 L 343.473,470.372 L 350.193,473.139 L 351.881,473.206 C 353.129,472.923 354.191,471.488 354.212,469.841 C 354.279,464.587 354.489,459.723 354.357,454.84 C 354.346,454.458 353.882,454.349 353.724,454.028 C 353.713,454.005 353.772,452.061 353.772,451.212 L 359.453,448.77 L 359.453,441.791 L 355.099,439.734 L 354.911,365.409 L 359.445,363.618 L 359.445,356.914 L 353.459,354.347 L 353.489,351.662 L 354.426,349.992 L 354.383,338.033 C 354.277,337.117 353.723,336.343 352.743,336.064 L 291.248,336.118 Z" fill="#1890f9" stroke-linejoin="miter" stroke-width="0.198" stroke="none" marker-start="none" marker-end="none" stroke-miterlimit="79.8403193612775"/>
     <path d="M 304.177,427.496 L 304.177,423.917 L 340.086,423.917 L 340.086,427.496 L 304.177,427.496 Z" stroke="none" fill="#ff8200" stroke-width="0.198" marker-start="none" marker-end="none" stroke-miterlimit="79.8403193612775"/>
     <g id="Group_4" stroke="#ffffff" stroke-width="0.198" fill="#ffffff" stroke-miterlimit="79.8403193612775">
      <path d="M 286.89,361.825 L 286.89,359.174 C 286.89,358.839 287.162,358.566 287.497,358.566 L 287.952,358.566 C 288.286,358.566 288.559,358.839 288.559,359.174 L 288.559,361.825 C 288.559,362.16 288.286,362.432 287.952,362.432 L 287.497,362.432 C 287.162,362.432 286.89,362.16 286.89,361.825 Z" marker-start="none" marker-end="none"/>
      <path d="M 355.488,361.825 L 355.488,359.174 C 355.488,358.839 355.76,358.566 356.095,358.566 L 356.55,358.566 C 356.884,358.566 357.157,358.839 357.157,359.174 L 357.157,361.825 C 357.157,362.16 356.884,362.432 356.55,362.432 L 356.095,362.432 C 355.76,362.432 355.488,362.16 355.488,361.825 Z" marker-start="none" marker-end="none"/>
     </g>
     <g id="Group_5" stroke="#ffffff" stroke-width="0.198" fill="#ffffff" stroke-miterlimit="79.8403193612775">
      <path d="M 286.892,447.076 L 286.892,444.425 C 286.892,444.09 287.164,443.817 287.499,443.817 L 287.954,443.817 C 288.288,443.817 288.561,444.09 288.561,444.425 L 288.561,447.076 C 288.561,447.411 288.288,447.683 287.954,447.683 L 287.499,447.683 C 287.164,447.683 286.892,447.411 286.892,447.076 Z" marker-start="none" marker-end="none"/>
      <path d="M 355.49,447.076 L 355.49,444.425 C 355.49,444.09 355.762,443.817 356.097,443.817 L 356.552,443.817 C 356.886,443.817 357.159,444.09 357.159,444.425 L 357.159,447.076 C 357.159,447.411 356.886,447.683 356.552,447.683 L 356.097,447.683 C 355.762,447.683 355.49,447.411 355.49,447.076 Z" marker-start="none" marker-end="none"/>
     </g>
     <path d="M 343.123,459.907 L 343.139,346.746" fill="none" stroke="#1a86e4" stroke-width="0.795" stroke-miterlimit="79.8403193612775"/>
     <path d="M 301.012,459.727 L 301.029,346.564" fill="none" stroke="#1a86e4" stroke-width="0.795" stroke-miterlimit="79.8403193612775"/>
     <path d="M 342.785,470.307 L 342.776,459.863 L 301.154,459.843" fill="none" stroke="#1e87e2" stroke-width="0.795" stroke-miterlimit="79.8403193612775"/>
     <path d="M 301.301,470.194 L 301.292,459.749" fill="none" stroke="#1e87e2" stroke-width="0.795" stroke-miterlimit="79.8403193612775"/>
     <path d="M 342.85,346.943 L 342.841,336.498" fill="none" stroke="#177ed9" stroke-width="0.795" stroke-miterlimit="79.8403193612775"/>
     <path d="M 301.655,346.832 L 301.646,336.388" fill="none" stroke="#177ed9" stroke-width="0.795" stroke-miterlimit="79.8403193612775"/>
     <path d="M 342.796,459.843 C 348.279,462.498 352.972,464.982 353.975,459.541" fill="none" stroke="#1e87e2" stroke-width="0.795" stroke-miterlimit="79.8403193612775"/>
     <path d="M 289.701,460.152 C 291.344,463.099 291.391,464.48 300.951,459.818" fill="none" stroke="#1e87e2" stroke-width="0.795" stroke-miterlimit="79.8403193612775"/>
     <path d="M 318.494,353.04 L 316.54,338.417 C 316.54,338.21 316.709,338.043 316.914,338.043 L 327.712,338.043 C 327.918,338.043 328.087,338.21 328.087,338.417 L 325.776,353.428 C 325.68,353.923 325.665,354 324.992,353.995 L 319.304,354.007 C 318.828,353.99 318.581,353.971 318.494,353.04 Z" stroke="#7f7f7f" fill="#4c4c4c" stroke-width="0.198" marker-start="none" marker-end="none" stroke-miterlimit="79.8403193612775"/>
     <path d="M 322.141,347.909 C 322.667,347.909 323.095,347.474 323.095,346.94 C 323.095,346.405 322.667,345.97 322.141,345.97 C 321.614,345.97 321.186,346.405 321.186,346.94 C 321.186,347.474 321.614,347.909 322.141,347.909 Z" fill="#bfbd00" stroke="none" stroke-width="0.198" marker-start="none" marker-end="none" stroke-miterlimit="79.8403193612775"/>
     <path d="M 322.141,343.3 C 322.667,343.3 323.095,342.865 323.095,342.331 C 323.095,341.796 322.667,341.361 322.141,341.361 C 321.614,341.361 321.186,341.796 321.186,342.331 C 321.186,342.865 321.614,343.3 322.141,343.3 Z" fill="#bf0000" stroke="none" stroke-width="0.198" marker-start="none" marker-end="none" stroke-miterlimit="79.8403193612775"/>
     <path d="M 322.141,352.784 C 322.667,352.784 323.095,352.349 323.095,351.815 C 323.095,351.28 322.667,350.845 322.141,350.845 C 321.614,350.845 321.186,351.28 321.186,351.815 C 321.186,352.349 321.614,352.784 322.141,352.784 Z" fill="#00bf02" stroke="none" stroke-width="0.198" marker-start="none" marker-end="none" stroke-miterlimit="79.8403193612775"/>
     <g id="Group_6" fill-rule="nonzero" stroke="#ffffff" stroke-width="0.078" fill="#ffffff" stroke-miterlimit="79.8403193612775">
      <g id="Group_7">
       <path d="M 321.142,433.602 L 321.142,435.874 L 321.591,435.874 L 322.125,434.265 C 322.175,434.115 322.211,434.003 322.233,433.929 C 322.259,434.011 322.299,434.133 322.353,434.293 L 322.894,435.874 L 323.295,435.874 L 323.295,433.602 L 323.007,433.602 L 323.007,435.504 L 322.352,433.602 L 322.082,433.602 L 321.429,435.536 L 321.429,433.602 L 321.142,433.602 Z" marker-start="none" marker-end="none"/>
       <path d="M 324.814,433.602 L 324.814,433.843 C 324.687,433.657 324.514,433.564 324.295,433.564 C 324.199,433.564 324.108,433.583 324.025,433.62 C 323.941,433.657 323.879,433.704 323.839,433.76 C 323.798,433.817 323.77,433.886 323.753,433.967 C 323.742,434.022 323.736,434.109 323.736,434.228 L 323.736,435.248 L 324.013,435.248 L 324.013,434.335 C 324.013,434.189 324.019,434.091 324.03,434.04 C 324.048,433.967 324.085,433.909 324.141,433.867 C 324.198,433.826 324.267,433.805 324.35,433.805 C 324.434,433.805 324.512,433.826 324.585,433.869 C 324.657,433.912 324.709,433.97 324.739,434.044 C 324.769,434.118 324.785,434.225 324.785,434.366 L 324.785,435.248 L 325.062,435.248 L 325.062,433.602 L 324.814,433.602 Z" marker-start="none" marker-end="none"/>
       <path d="M 325.49,433.602 L 325.49,435.874 L 325.767,435.874 L 325.767,433.602 L 325.49,433.602 Z" marker-start="none" marker-end="none"/>
       <path d="M 326.802,433.851 L 326.842,433.605 C 326.764,433.588 326.695,433.58 326.633,433.58 C 326.532,433.58 326.454,433.596 326.399,433.628 C 326.344,433.66 326.305,433.702 326.282,433.754 C 326.259,433.806 326.248,433.916 326.248,434.084 L 326.248,435.031 L 326.045,435.031 L 326.045,435.248 L 326.248,435.248 L 326.248,435.656 L 326.524,435.823 L 326.524,435.248 L 326.802,435.248 L 326.802,435.031 L 326.524,435.031 L 326.524,434.068 C 326.524,433.989 326.529,433.937 326.538,433.915 C 326.548,433.892 326.564,433.874 326.586,433.86 C 326.608,433.847 326.64,433.84 326.681,433.84 C 326.712,433.84 326.752,433.844 326.802,433.851 Z" marker-start="none" marker-end="none"/>
       <path d="M 327.075,435.553 L 327.075,435.874 L 327.352,435.874 L 327.352,435.553 L 327.075,435.553 Z M 327.075,433.602 L 327.075,435.248 L 327.352,435.248 L 327.352,433.602 L 327.075,433.602 Z" marker-start="none" marker-end="none"/>
       <path d="M 327.81,433.602 L 327.81,435.874 L 328.661,435.874 C 328.811,435.874 328.925,435.867 329.004,435.853 C 329.115,435.834 329.208,435.799 329.283,435.746 C 329.358,435.694 329.418,435.621 329.464,435.527 C 329.51,435.433 329.533,435.33 329.533,435.217 C 329.533,435.024 329.471,434.86 329.349,434.726 C 329.227,434.592 329.007,434.525 328.687,434.525 L 328.108,434.525 L 328.108,433.602 L 327.81,433.602 Z M 328.108,434.794 L 328.692,434.794 C 328.885,434.794 329.022,434.83 329.103,434.902 C 329.184,434.975 329.225,435.076 329.225,435.208 C 329.225,435.303 329.201,435.384 329.153,435.452 C 329.105,435.519 329.042,435.564 328.964,435.586 C 328.914,435.599 328.821,435.606 328.686,435.606 L 328.108,435.606 L 328.108,434.794 Z" marker-start="none" marker-end="none"/>
       <path d="M 329.872,433.602 L 329.872,435.874 L 330.149,435.874 L 330.149,433.602 L 329.872,433.602 Z" marker-start="none" marker-end="none"/>
       <path d="M 331.651,433.602 L 331.651,433.843 C 331.524,433.657 331.351,433.564 331.132,433.564 C 331.036,433.564 330.945,433.583 330.862,433.62 C 330.778,433.657 330.716,433.704 330.676,433.76 C 330.635,433.817 330.607,433.886 330.59,433.967 C 330.579,434.022 330.573,434.109 330.573,434.228 L 330.573,435.248 L 330.85,435.248 L 330.85,434.335 C 330.85,434.189 330.856,434.091 330.867,434.04 C 330.885,433.967 330.922,433.909 330.978,433.867 C 331.035,433.826 331.104,433.805 331.187,433.805 C 331.271,433.805 331.349,433.826 331.422,433.869 C 331.494,433.912 331.546,433.97 331.576,434.044 C 331.606,434.118 331.622,434.225 331.622,434.366 L 331.622,435.248 L 331.899,435.248 L 331.899,433.602 L 331.651,433.602 Z" marker-start="none" marker-end="none"/>
       <path d="M 332.223,434.093 L 332.497,434.136 C 332.512,434.026 332.555,433.941 332.625,433.882 C 332.695,433.823 332.794,433.794 332.92,433.794 C 333.047,433.794 333.142,433.82 333.203,433.872 C 333.265,433.924 333.296,433.985 333.296,434.056 C 333.296,434.119 333.268,434.168 333.214,434.205 C 333.176,434.229 333.082,434.261 332.931,434.299 C 332.727,434.351 332.587,434.396 332.508,434.433 C 332.43,434.471 332.37,434.523 332.329,434.59 C 332.289,434.656 332.269,434.73 332.269,434.811 C 332.269,434.884 332.285,434.952 332.319,435.015 C 332.352,435.077 332.397,435.129 332.455,435.17 C 332.498,435.202 332.557,435.23 332.631,435.252 C 332.706,435.274 332.785,435.285 332.871,435.285 C 332.999,435.285 333.112,435.267 333.209,435.229 C 333.306,435.192 333.377,435.142 333.423,435.078 C 333.47,435.015 333.501,434.93 333.519,434.823 L 333.248,434.786 C 333.236,434.871 333.2,434.937 333.141,434.984 C 333.082,435.032 332.998,435.056 332.891,435.056 C 332.763,435.056 332.673,435.035 332.618,434.992 C 332.564,434.95 332.537,434.9 332.537,434.843 C 332.537,434.807 332.548,434.775 332.57,434.746 C 332.593,434.716 332.628,434.691 332.677,434.671 C 332.704,434.661 332.786,434.637 332.921,434.6 C 333.118,434.547 333.254,434.504 333.332,434.47 C 333.409,434.437 333.47,434.388 333.514,434.324 C 333.558,434.26 333.58,434.18 333.58,434.085 C 333.58,433.992 333.553,433.905 333.5,433.822 C 333.446,433.74 333.368,433.677 333.266,433.632 C 333.165,433.587 333.05,433.564 332.921,433.564 C 332.709,433.564 332.547,433.609 332.436,433.698 C 332.324,433.787 332.253,433.918 332.223,434.093 Z" marker-start="none" marker-end="none"/>
      </g>
     </g>
     <g id="Group_8" fill-rule="nonzero" stroke="#ffffff" stroke-width="0.095" fill="#ffffff" stroke-miterlimit="79.8403193612775">
      <g id="Group_9">
       <path d="M 321.071,432.51 L 321.539,432.51 L 321.539,430.29 L 321.303,430.29 L 321.303,432.293 L 320.928,432.293 L 321.071,432.51 Z" marker-start="none" marker-end="none"/>
       <path d="M 322.682,431.814 L 322.453,431.814 C 322.46,432.034 322.538,432.214 322.689,432.355 C 322.84,432.495 323.027,432.566 323.248,432.566 C 323.468,432.566 323.646,432.5 323.781,432.368 C 323.917,432.236 323.985,432.081 323.985,431.902 C 323.985,431.776 323.953,431.658 323.888,431.548 C 323.823,431.438 323.697,431.288 323.51,431.1 L 322.916,430.504 L 324.018,430.504 L 324.018,430.29 L 322.397,430.29 L 323.308,431.206 C 323.493,431.39 323.614,431.527 323.67,431.616 C 323.725,431.705 323.753,431.799 323.753,431.897 C 323.753,432.022 323.703,432.129 323.603,432.219 C 323.503,432.31 323.38,432.355 323.235,432.355 C 323.083,432.355 322.956,432.307 322.855,432.213 C 322.754,432.118 322.696,431.985 322.682,431.814 Z" marker-start="none" marker-end="none"/>
       <path d="M 325.139,432.566 L 325.371,432.566 L 325.371,429.689 L 325.139,429.689 L 325.139,432.566 Z" marker-start="none" marker-end="none"/>
       <path d="M 326.988,432.51 L 327.456,432.51 L 327.456,430.29 L 327.22,430.29 L 327.22,432.293 L 326.845,432.293 L 326.988,432.51 Z" marker-start="none" marker-end="none"/>
       <path d="M 329.433,432.566 L 329.63,432.447 L 328.985,431.538 C 329.072,431.565 329.153,431.579 329.229,431.579 C 329.418,431.579 329.579,431.515 329.711,431.388 C 329.843,431.26 329.909,431.104 329.909,430.917 C 329.909,430.79 329.877,430.674 329.813,430.571 C 329.749,430.468 329.658,430.386 329.541,430.325 C 329.424,430.264 329.297,430.234 329.162,430.234 C 329.031,430.234 328.91,430.263 328.798,430.322 C 328.686,430.381 328.598,430.464 328.534,430.57 C 328.47,430.677 328.438,430.791 328.438,430.913 C 328.438,431.004 328.458,431.099 328.498,431.199 C 328.537,431.299 328.608,431.42 328.709,431.561 L 329.433,432.566 Z M 329.172,431.384 C 329.033,431.384 328.915,431.338 328.817,431.247 C 328.719,431.156 328.67,431.046 328.67,430.916 C 328.67,430.787 328.719,430.677 328.817,430.586 C 328.915,430.495 329.033,430.449 329.172,430.45 C 329.31,430.449 329.429,430.495 329.526,430.586 C 329.624,430.677 329.673,430.787 329.673,430.916 C 329.673,431.046 329.624,431.156 329.526,431.247 C 329.429,431.338 329.31,431.384 329.172,431.384 Z" marker-start="none" marker-end="none"/>
       <path d="M 330.162,431.399 C 330.162,431.692 330.196,431.918 330.263,432.078 C 330.331,432.238 330.427,432.36 330.55,432.442 C 330.673,432.525 330.811,432.566 330.964,432.566 C 331.118,432.566 331.258,432.524 331.384,432.441 C 331.509,432.358 331.609,432.234 331.682,432.068 C 331.755,431.902 331.791,431.679 331.791,431.399 C 331.791,431.12 331.755,430.898 331.683,430.733 C 331.611,430.568 331.512,430.444 331.386,430.36 C 331.259,430.276 331.118,430.234 330.964,430.234 C 330.811,430.234 330.674,430.274 330.551,430.356 C 330.429,430.437 330.334,430.559 330.265,430.72 C 330.196,430.882 330.162,431.108 330.162,431.399 Z M 330.388,431.394 C 330.388,431.144 330.412,430.954 330.46,430.826 C 330.508,430.698 330.579,430.6 330.673,430.534 C 330.767,430.468 330.867,430.434 330.972,430.434 C 331.078,430.434 331.177,430.467 331.269,430.532 C 331.361,430.597 331.43,430.694 331.478,430.824 C 331.538,430.982 331.567,431.172 331.567,431.394 C 331.567,431.618 331.541,431.801 331.488,431.943 C 331.435,432.086 331.361,432.19 331.268,432.256 C 331.174,432.322 331.076,432.355 330.972,432.355 C 330.866,432.355 330.766,432.322 330.673,432.256 C 330.58,432.19 330.509,432.093 330.461,431.964 C 330.412,431.836 330.388,431.646 330.388,431.394 Z" marker-start="none" marker-end="none"/>
       <path d="M 332.004,431.399 C 332.004,431.692 332.038,431.918 332.105,432.078 C 332.173,432.238 332.269,432.36 332.392,432.442 C 332.515,432.525 332.653,432.566 332.806,432.566 C 332.96,432.566 333.1,432.524 333.226,432.441 C 333.351,432.358 333.451,432.234 333.524,432.068 C 333.597,431.902 333.633,431.679 333.633,431.399 C 333.633,431.12 333.597,430.898 333.525,430.733 C 333.453,430.568 333.354,430.444 333.228,430.36 C 333.101,430.276 332.96,430.234 332.806,430.234 C 332.653,430.234 332.516,430.274 332.393,430.356 C 332.271,430.437 332.176,430.559 332.107,430.72 C 332.038,430.882 332.004,431.108 332.004,431.399 Z M 332.23,431.394 C 332.23,431.144 332.254,430.954 332.302,430.826 C 332.35,430.698 332.421,430.6 332.515,430.534 C 332.609,430.468 332.709,430.434 332.814,430.434 C 332.92,430.434 333.019,430.467 333.111,430.532 C 333.203,430.597 333.272,430.694 333.32,430.824 C 333.38,430.982 333.409,431.172 333.409,431.394 C 333.409,431.618 333.383,431.801 333.33,431.943 C 333.277,432.086 333.203,432.19 333.11,432.256 C 333.016,432.322 332.918,432.355 332.814,432.355 C 332.708,432.355 332.608,432.322 332.515,432.256 C 332.422,432.19 332.351,432.093 332.303,431.964 C 332.254,431.836 332.23,431.646 332.23,431.394 Z" marker-start="none" marker-end="none"/>
       <path d="M 334.74,432.566 L 334.972,432.566 L 334.972,429.689 L 334.74,429.689 L 334.74,432.566 Z" marker-start="none" marker-end="none"/>
       <path d="M 336.212,432.51 L 337.726,432.51 L 336.449,430.234 L 336.253,430.327 L 337.356,432.3 L 336.212,432.3 L 336.212,432.51 Z" marker-start="none" marker-end="none"/>
       <path d="M 337.921,431.399 C 337.921,431.692 337.955,431.918 338.022,432.078 C 338.09,432.238 338.186,432.36 338.309,432.442 C 338.432,432.525 338.57,432.566 338.723,432.566 C 338.877,432.566 339.017,432.524 339.143,432.441 C 339.268,432.358 339.368,432.234 339.441,432.068 C 339.514,431.902 339.55,431.679 339.55,431.399 C 339.55,431.12 339.514,430.898 339.442,430.733 C 339.37,430.568 339.271,430.444 339.145,430.36 C 339.018,430.276 338.877,430.234 338.723,430.234 C 338.57,430.234 338.433,430.274 338.31,430.356 C 338.188,430.437 338.093,430.559 338.024,430.72 C 337.955,430.882 337.921,431.108 337.921,431.399 Z M 338.147,431.394 C 338.147,431.144 338.171,430.954 338.219,430.826 C 338.267,430.698 338.338,430.6 338.432,430.534 C 338.526,430.468 338.626,430.434 338.731,430.434 C 338.837,430.434 338.936,430.467 339.028,430.532 C 339.12,430.597 339.189,430.694 339.237,430.824 C 339.297,430.982 339.326,431.172 339.326,431.394 C 339.326,431.618 339.3,431.801 339.247,431.943 C 339.194,432.086 339.12,432.19 339.027,432.256 C 338.933,432.322 338.835,432.355 338.731,432.355 C 338.625,432.355 338.525,432.322 338.432,432.256 C 338.339,432.19 338.268,432.093 338.22,431.964 C 338.171,431.836 338.147,431.646 338.147,431.394 Z" marker-start="none" marker-end="none"/>
      </g>
     </g>
     <g id="Group_10" fill-rule="nonzero" stroke-width="0.051" fill="#ffffff" stroke-miterlimit="79.8403193612775">
      <g id="Group_11">
       <path d="M 336.049,421.568 L 336.049,423.074 L 336.354,423.074 L 336.354,421.568 L 336.049,421.568 Z" stroke="none" marker-start="none" marker-end="none"/>
       <path d="M 336.644,421.568 L 336.644,423.074 L 337.132,423.074 C 337.317,423.074 337.437,423.067 337.494,423.052 C 337.58,423.029 337.652,422.98 337.711,422.904 C 337.769,422.828 337.798,422.731 337.798,422.611 C 337.798,422.518 337.781,422.44 337.748,422.377 C 337.714,422.314 337.671,422.265 337.62,422.229 C 337.568,422.193 337.515,422.169 337.462,422.157 C 337.389,422.143 337.284,422.136 337.146,422.136 L 336.948,422.136 L 336.948,421.568 L 336.644,421.568 Z M 336.948,422.819 L 336.948,422.392 L 337.114,422.392 C 337.234,422.392 337.314,422.4 337.355,422.415 C 337.395,422.431 337.427,422.456 337.45,422.489 C 337.473,422.523 337.484,422.562 337.484,422.607 C 337.484,422.661 337.468,422.707 337.436,422.742 C 337.404,422.778 337.363,422.8 337.314,422.809 C 337.277,422.816 337.204,422.819 337.095,422.819 L 336.948,422.819 Z" stroke="none" marker-start="none" marker-end="none"/>
       <path d="M 338.261,422.592 L 337.981,422.592 C 337.988,422.755 338.04,422.884 338.134,422.977 C 338.229,423.071 338.351,423.117 338.5,423.117 C 338.592,423.117 338.673,423.098 338.743,423.059 C 338.813,423.021 338.869,422.965 338.912,422.892 C 338.954,422.819 338.975,422.745 338.975,422.669 C 338.975,422.58 338.949,422.483 338.898,422.379 C 338.847,422.276 338.754,422.154 338.618,422.013 L 338.448,421.834 L 338.987,421.834 L 338.987,421.568 L 337.94,421.568 L 337.94,421.705 L 338.407,422.182 C 338.52,422.297 338.596,422.389 338.633,422.458 C 338.67,422.528 338.689,422.591 338.689,422.647 C 338.689,422.705 338.67,422.753 338.631,422.791 C 338.592,422.829 338.542,422.848 338.481,422.848 C 338.42,422.848 338.368,422.825 338.327,422.779 C 338.286,422.733 338.264,422.671 338.261,422.592 Z" stroke="#ffffff" marker-start="none" marker-end="none"/>
       <path d="M 339.42,423.079 L 339.851,423.079 L 339.851,421.568 L 339.565,421.568 L 339.565,422.809 L 339.253,422.809 L 339.42,423.079 Z" stroke="#ffffff" marker-start="none" marker-end="none"/>
      </g>
     </g>
     <g id="Group_12" fill-rule="nonzero" stroke="none" stroke-width="0.038" fill="#ffffff" stroke-miterlimit="79.8403193612775">
      <g id="Group_13">
       <path d="M 319.485,350.055 L 319.695,350.055 L 319.695,348.94 L 319.485,348.94 L 319.485,350.055 Z" marker-start="none" marker-end="none"/>
       <path d="M 319.912,349.764 L 320.118,349.764 L 320.118,349.68 C 320.165,349.719 320.208,349.747 320.246,349.762 C 320.284,349.778 320.323,349.785 320.363,349.785 C 320.445,349.785 320.514,349.757 320.572,349.7 C 320.62,349.651 320.644,349.58 320.644,349.484 L 320.644,348.94 L 320.439,348.94 L 320.439,349.301 C 320.439,349.4 320.434,349.465 320.426,349.497 C 320.417,349.53 320.401,349.554 320.379,349.571 C 320.357,349.588 320.33,349.597 320.298,349.597 C 320.256,349.597 320.22,349.583 320.19,349.555 C 320.16,349.527 320.139,349.488 320.127,349.438 C 320.121,349.412 320.118,349.357 320.118,349.271 L 320.118,348.94 L 319.912,348.94 L 319.912,349.764 Z" marker-start="none" marker-end="none"/>
       <path d="M 320.755,349.764 L 320.966,349.764 L 321.175,349.278 L 321.382,349.764 L 321.592,349.764 L 321.241,348.94 L 321.107,348.94 L 320.755,349.764 Z" marker-start="none" marker-end="none"/>
       <path d="M 322.54,349.292 L 321.876,349.292 C 321.885,349.233 321.911,349.187 321.952,349.152 C 321.994,349.118 322.047,349.1 322.112,349.1 C 322.189,349.1 322.256,349.127 322.311,349.181 L 322.486,349.099 C 322.442,349.038 322.39,348.992 322.33,348.963 C 322.269,348.933 322.197,348.918 322.114,348.918 C 321.984,348.918 321.879,348.959 321.797,349.041 C 321.716,349.122 321.675,349.225 321.675,349.347 C 321.675,349.473 321.716,349.578 321.797,349.661 C 321.878,349.744 321.98,349.785 322.102,349.785 C 322.232,349.785 322.338,349.744 322.419,349.661 C 322.5,349.578 322.541,349.468 322.541,349.331 L 322.54,349.292 Z M 322.333,349.455 C 322.319,349.501 322.292,349.538 322.252,349.567 C 322.212,349.596 322.165,349.61 322.112,349.61 C 322.054,349.61 322.004,349.594 321.96,349.562 C 321.933,349.542 321.908,349.506 321.885,349.455 L 322.333,349.455 Z" marker-start="none" marker-end="none"/>
       <path d="M 322.66,349.764 L 322.837,349.764 L 322.837,349.66 C 322.856,349.701 322.882,349.732 322.914,349.754 C 322.945,349.775 322.98,349.785 323.018,349.785 C 323.045,349.785 323.073,349.778 323.102,349.764 L 323.038,349.586 C 323.014,349.598 322.994,349.604 322.978,349.604 C 322.946,349.604 322.919,349.585 322.897,349.545 C 322.875,349.506 322.864,349.428 322.864,349.313 L 322.865,349.273 L 322.865,348.94 L 322.66,348.94 L 322.66,349.764 Z" marker-start="none" marker-end="none"/>
       <path d="M 323.23,350.068 L 323.436,350.068 L 323.436,349.764 L 323.559,349.764 L 323.559,349.586 L 323.436,349.586 L 323.436,348.94 L 323.23,348.94 L 323.23,349.586 L 323.124,349.586 L 323.124,349.764 L 323.23,349.764 L 323.23,350.068 Z" marker-start="none" marker-end="none"/>
       <path d="M 324.497,349.292 L 323.833,349.292 C 323.842,349.233 323.868,349.187 323.909,349.152 C 323.951,349.118 324.004,349.1 324.069,349.1 C 324.146,349.1 324.213,349.127 324.268,349.181 L 324.443,349.099 C 324.399,349.038 324.347,348.992 324.287,348.963 C 324.226,348.933 324.154,348.918 324.071,348.918 C 323.941,348.918 323.836,348.959 323.754,349.041 C 323.673,349.122 323.632,349.225 323.632,349.347 C 323.632,349.473 323.673,349.578 323.754,349.661 C 323.835,349.744 323.937,349.785 324.059,349.785 C 324.189,349.785 324.295,349.744 324.376,349.661 C 324.457,349.578 324.498,349.468 324.498,349.331 L 324.497,349.292 Z M 324.29,349.455 C 324.276,349.501 324.249,349.538 324.209,349.567 C 324.169,349.596 324.122,349.61 324.069,349.61 C 324.011,349.61 323.961,349.594 323.917,349.562 C 323.89,349.542 323.865,349.506 323.842,349.455 L 324.29,349.455 Z" marker-start="none" marker-end="none"/>
       <path d="M 324.617,349.764 L 324.794,349.764 L 324.794,349.66 C 324.813,349.701 324.839,349.732 324.871,349.754 C 324.902,349.775 324.937,349.785 324.975,349.785 C 325.002,349.785 325.03,349.778 325.059,349.764 L 324.995,349.586 C 324.971,349.598 324.951,349.604 324.935,349.604 C 324.903,349.604 324.876,349.585 324.854,349.545 C 324.832,349.506 324.821,349.428 324.821,349.313 L 324.822,349.273 L 324.822,348.94 L 324.617,348.94 L 324.617,349.764 Z" marker-start="none" marker-end="none"/>
      </g>
     </g>
     <g id="Group_14" fill-rule="nonzero" stroke="none" stroke-width="0.038" fill="#ffffff" stroke-miterlimit="79.8403193612775">
      <g id="Group_15">
       <path d="M 320.296,345.157 L 320.147,345.015 C 320.046,345.122 319.932,345.175 319.806,345.175 C 319.699,345.175 319.61,345.139 319.537,345.066 C 319.464,344.993 319.427,344.904 319.427,344.797 C 319.427,344.723 319.443,344.657 319.475,344.599 C 319.508,344.542 319.554,344.496 319.613,344.464 C 319.672,344.431 319.738,344.414 319.81,344.414 C 319.871,344.414 319.928,344.426 319.979,344.449 C 320.03,344.472 320.086,344.514 320.147,344.574 L 320.291,344.424 C 320.209,344.344 320.131,344.288 320.058,344.257 C 319.984,344.226 319.901,344.21 319.807,344.21 C 319.633,344.21 319.492,344.265 319.381,344.375 C 319.271,344.485 319.216,344.626 319.216,344.798 C 319.216,344.909 319.241,345.008 319.291,345.094 C 319.341,345.181 319.413,345.25 319.507,345.303 C 319.601,345.355 319.702,345.382 319.81,345.382 C 319.902,345.382 319.99,345.362 320.075,345.323 C 320.161,345.284 320.234,345.229 320.296,345.157 Z" marker-start="none" marker-end="none"/>
       <path d="M 320.46,345.382 L 320.665,345.382 L 320.665,344.98 C 320.706,345.015 320.746,345.041 320.787,345.058 C 320.828,345.076 320.87,345.084 320.912,345.084 C 320.993,345.084 321.062,345.056 321.119,345 C 321.167,344.951 321.191,344.879 321.191,344.783 L 321.191,344.239 L 320.987,344.239 L 320.987,344.6 C 320.987,344.696 320.982,344.76 320.973,344.794 C 320.964,344.828 320.948,344.853 320.926,344.87 C 320.904,344.887 320.877,344.895 320.845,344.895 C 320.803,344.895 320.767,344.881 320.737,344.853 C 320.707,344.825 320.686,344.788 320.674,344.74 C 320.668,344.715 320.665,344.658 320.665,344.57 L 320.665,344.239 L 320.46,344.239 L 320.46,345.382 Z" marker-start="none" marker-end="none"/>
       <path d="M 322.001,345.063 L 322.207,345.063 L 322.207,344.239 L 322.001,344.239 L 322.001,344.326 C 321.96,344.287 321.92,344.26 321.879,344.243 C 321.838,344.226 321.794,344.217 321.747,344.217 C 321.64,344.217 321.548,344.259 321.47,344.341 C 321.392,344.424 321.353,344.527 321.353,344.649 C 321.353,344.777 321.391,344.881 321.466,344.962 C 321.541,345.044 321.633,345.084 321.741,345.084 C 321.79,345.084 321.837,345.075 321.88,345.056 C 321.923,345.038 321.964,345.01 322.001,344.972 L 322.001,345.063 Z M 321.783,344.893 C 321.719,344.893 321.665,344.871 321.623,344.826 C 321.581,344.78 321.559,344.722 321.559,344.652 C 321.559,344.58 321.581,344.522 321.624,344.476 C 321.667,344.43 321.721,344.407 321.784,344.407 C 321.849,344.407 321.903,344.429 321.946,344.475 C 321.989,344.52 322.01,344.579 322.01,344.652 C 322.01,344.724 321.989,344.782 321.946,344.827 C 321.903,344.871 321.849,344.893 321.783,344.893 Z" marker-start="none" marker-end="none"/>
       <path d="M 322.368,345.063 L 322.545,345.063 L 322.545,344.959 C 322.564,345 322.59,345.031 322.622,345.053 C 322.653,345.074 322.688,345.084 322.726,345.084 C 322.753,345.084 322.781,345.077 322.81,345.063 L 322.746,344.885 C 322.722,344.897 322.702,344.903 322.686,344.903 C 322.654,344.903 322.627,344.884 322.605,344.844 C 322.583,344.805 322.572,344.727 322.572,344.612 L 322.573,344.572 L 322.573,344.239 L 322.368,344.239 L 322.368,345.063 Z" marker-start="none" marker-end="none"/>
       <path d="M 323.523,345.063 L 323.729,345.063 L 323.729,344.357 C 323.729,344.217 323.701,344.115 323.645,344.049 C 323.569,343.96 323.456,343.916 323.304,343.916 C 323.223,343.916 323.155,343.926 323.1,343.946 C 323.045,343.966 322.999,343.996 322.961,344.035 C 322.923,344.074 322.895,344.122 322.877,344.178 L 323.105,344.178 C 323.125,344.155 323.151,344.137 323.183,344.125 C 323.215,344.113 323.252,344.107 323.296,344.107 C 323.351,344.107 323.396,344.116 323.43,344.133 C 323.464,344.15 323.488,344.173 323.502,344.2 C 323.516,344.227 323.523,344.274 323.523,344.341 C 323.486,344.304 323.448,344.278 323.408,344.262 C 323.368,344.246 323.323,344.239 323.272,344.239 C 323.162,344.239 323.068,344.278 322.992,344.358 C 322.916,344.438 322.877,344.539 322.877,344.661 C 322.877,344.792 322.918,344.897 322.999,344.977 C 323.072,345.049 323.159,345.084 323.261,345.084 C 323.309,345.084 323.353,345.076 323.396,345.058 C 323.438,345.041 323.48,345.012 323.523,344.972 L 323.523,345.063 Z M 323.308,344.891 C 323.243,344.891 323.189,344.869 323.147,344.826 C 323.104,344.782 323.083,344.727 323.083,344.661 C 323.083,344.592 323.105,344.536 323.148,344.492 C 323.192,344.448 323.246,344.426 323.312,344.426 C 323.376,344.426 323.429,344.447 323.471,344.49 C 323.512,344.533 323.533,344.589 323.533,344.659 C 323.533,344.728 323.512,344.784 323.47,344.827 C 323.428,344.87 323.374,344.891 323.308,344.891 Z" marker-start="none" marker-end="none"/>
       <path d="M 324.764,344.591 L 324.1,344.591 C 324.109,344.532 324.135,344.486 324.176,344.451 C 324.218,344.417 324.271,344.399 324.336,344.399 C 324.413,344.399 324.48,344.426 324.535,344.48 L 324.71,344.398 C 324.666,344.337 324.614,344.291 324.554,344.262 C 324.493,344.232 324.421,344.217 324.338,344.217 C 324.208,344.217 324.103,344.258 324.021,344.34 C 323.94,344.421 323.899,344.524 323.899,344.646 C 323.899,344.772 323.94,344.877 324.021,344.96 C 324.102,345.043 324.204,345.084 324.326,345.084 C 324.456,345.084 324.562,345.043 324.643,344.96 C 324.724,344.877 324.765,344.767 324.765,344.63 L 324.764,344.591 Z M 324.557,344.754 C 324.543,344.8 324.516,344.837 324.476,344.866 C 324.436,344.895 324.389,344.909 324.336,344.909 C 324.278,344.909 324.228,344.893 324.184,344.861 C 324.157,344.841 324.132,344.805 324.109,344.754 L 324.557,344.754 Z" marker-start="none" marker-end="none"/>
       <path d="M 324.884,345.063 L 325.061,345.063 L 325.061,344.959 C 325.08,345 325.106,345.031 325.138,345.053 C 325.169,345.074 325.204,345.084 325.242,345.084 C 325.269,345.084 325.297,345.077 325.326,345.063 L 325.262,344.885 C 325.238,344.897 325.218,344.903 325.202,344.903 C 325.17,344.903 325.143,344.884 325.121,344.844 C 325.099,344.805 325.088,344.727 325.088,344.612 L 325.089,344.572 L 325.089,344.239 L 324.884,344.239 L 324.884,345.063 Z" marker-start="none" marker-end="none"/>
      </g>
     </g>
     <g id="Group_16" fill-rule="nonzero" stroke="none" stroke-width="0.038" fill="#ffffff" stroke-miterlimit="79.8403193612775">
      <g id="Group_17">
       <path d="M 320.514,340.958 L 320.73,340.958 L 321.159,339.843 L 320.938,339.843 L 320.851,340.072 L 320.396,340.072 L 320.305,339.843 L 320.085,339.843 L 320.514,340.958 Z M 320.624,340.662 L 320.475,340.279 L 320.771,340.279 L 320.624,340.662 Z" marker-start="none" marker-end="none"/>
       <path d="M 321.279,340.986 L 321.486,340.986 L 321.486,339.843 L 321.279,339.843 L 321.279,340.986 Z" marker-start="none" marker-end="none"/>
       <path d="M 322.283,340.667 L 322.489,340.667 L 322.489,339.843 L 322.283,339.843 L 322.283,339.93 C 322.242,339.891 322.202,339.864 322.161,339.847 C 322.12,339.83 322.076,339.821 322.029,339.821 C 321.922,339.821 321.83,339.863 321.752,339.945 C 321.674,340.028 321.635,340.131 321.635,340.253 C 321.635,340.381 321.673,340.485 321.748,340.566 C 321.823,340.648 321.915,340.688 322.023,340.688 C 322.072,340.688 322.119,340.679 322.162,340.66 C 322.205,340.642 322.246,340.614 322.283,340.576 L 322.283,340.667 Z M 322.065,340.497 C 322.001,340.497 321.947,340.475 321.905,340.43 C 321.863,340.384 321.841,340.326 321.841,340.256 C 321.841,340.184 321.863,340.126 321.906,340.08 C 321.949,340.034 322.003,340.011 322.066,340.011 C 322.131,340.011 322.185,340.033 322.228,340.079 C 322.271,340.124 322.292,340.183 322.292,340.256 C 322.292,340.328 322.271,340.386 322.228,340.431 C 322.185,340.475 322.131,340.497 322.065,340.497 Z" marker-start="none" marker-end="none"/>
       <path d="M 322.65,340.667 L 322.827,340.667 L 322.827,340.563 C 322.846,340.604 322.872,340.635 322.904,340.657 C 322.935,340.678 322.97,340.688 323.008,340.688 C 323.035,340.688 323.063,340.681 323.092,340.667 L 323.028,340.489 C 323.004,340.501 322.984,340.507 322.968,340.507 C 322.936,340.507 322.909,340.488 322.887,340.448 C 322.865,340.409 322.854,340.331 322.854,340.216 L 322.855,340.176 L 322.855,339.843 L 322.65,339.843 L 322.65,340.667 Z" marker-start="none" marker-end="none"/>
       <path d="M 323.194,340.667 L 323.401,340.667 L 323.401,340.572 C 323.437,340.611 323.476,340.64 323.519,340.66 C 323.562,340.679 323.609,340.688 323.661,340.688 C 323.712,340.688 323.759,340.676 323.8,340.651 C 323.841,340.625 323.875,340.588 323.9,340.54 C 323.933,340.588 323.973,340.625 324.021,340.651 C 324.069,340.676 324.121,340.688 324.177,340.688 C 324.236,340.688 324.288,340.675 324.332,340.647 C 324.377,340.62 324.409,340.585 324.428,340.541 C 324.447,340.497 324.457,340.425 324.457,340.326 L 324.457,339.843 L 324.249,339.843 L 324.249,340.261 C 324.249,340.354 324.237,340.418 324.214,340.451 C 324.191,340.484 324.156,340.5 324.109,340.5 C 324.074,340.5 324.042,340.49 324.014,340.47 C 323.986,340.45 323.965,340.422 323.952,340.386 C 323.938,340.351 323.931,340.294 323.931,340.215 L 323.931,339.843 L 323.723,339.843 L 323.723,340.242 C 323.723,340.316 323.717,340.369 323.706,340.402 C 323.695,340.435 323.679,340.46 323.657,340.476 C 323.636,340.492 323.609,340.5 323.579,340.5 C 323.544,340.5 323.513,340.49 323.485,340.47 C 323.457,340.449 323.436,340.421 323.422,340.384 C 323.408,340.347 323.401,340.289 323.401,340.209 L 323.401,339.843 L 323.194,339.843 L 323.194,340.667 Z" marker-start="none" marker-end="none"/>
      </g>
     </g>
     <path d="M 289.963,451.419 L 290.014,354.885" fill="none" stroke="#167cd5" stroke-width="0.397" stroke-miterlimit="79.8403193612775"/>
     <path d="M 353.856,451.226 L 353.907,354.692" fill="none" stroke="#167cd5" stroke-width="0.397" stroke-miterlimit="79.8403193612775"/>
     <path d="M 354.2,344.713 C 353.463,345.901 352.508,346.211 351.139,346.199 L 342.925,346.605 L 329.301,346.63 C 328.407,346.566 327.933,346.973 327.921,347.89 L 326.84,353.817 C 326.684,354.542 326.074,354.867 325.312,355.085 L 319.011,355.122 C 318.344,355.127 317.905,354.723 317.632,354.041 L 316.663,347.927 C 316.523,346.948 315.943,346.453 314.723,346.655 L 300.948,346.68 L 293.932,346.357 C 292.123,346.64 290.739,345.197 289.638,344.3" fill="none" stroke="#1788ec" stroke-width="0.795" stroke-miterlimit="79.8403193612775"/>
     <g id="Group_18">
      <g id="Group_19" stroke="#ffffff">
       <path d="M 305.367,420.985 L 306.753,421.017 C 306.944,421.022 307.023,421.161 306.93,421.328 L 306.189,422.647 C 306.096,422.814 305.95,422.811 305.863,422.64 L 305.177,421.286 C 305.091,421.115 305.176,420.98 305.367,420.985 Z" stroke-width="0.22" stroke-linejoin="miter" marker-start="none" marker-end="none" stroke-miterlimit="79.8403193612775"/>
       <path d="M 306.089,422.277 L 305.874,421.804 L 306.223,421.862 L 306.114,421.538" fill="none" marker-end="url(#DefaultArrowStyled)" stroke-width="0.109" stroke-miterlimit="79.8403193612775"/>
      </g>
      <g id="Group_20">
       <g id="Group_21" fill-rule="nonzero" stroke="none" stroke-width="0.026" fill="#ffffff" stroke-miterlimit="79.8403193612775">
        <g id="Group_22">
         <path d="M 309.768,422.313 C 309.798,422.313 309.822,422.306 309.839,422.291 C 309.857,422.276 309.865,422.255 309.865,422.229 C 309.865,422.202 309.851,422.179 309.821,422.158 C 309.791,422.137 309.756,422.126 309.717,422.126 C 309.687,422.126 309.664,422.134 309.646,422.148 C 309.628,422.163 309.619,422.181 309.619,422.205 C 309.619,422.234 309.633,422.26 309.663,422.281 C 309.692,422.303 309.727,422.313 309.768,422.313 Z M 309.943,421.576 L 309.552,421.576 L 309.552,421.598 L 309.626,421.598 L 309.626,422.003 L 309.552,422.003 L 309.552,422.024 L 309.735,422.024 C 309.781,422.024 309.826,422.029 309.871,422.039 L 309.871,421.598 L 309.943,421.598 L 309.943,421.576 Z" marker-start="none" marker-end="none"/>
        </g>
       </g>
       <path d="M 309.18,422.755 L 309.18,421.203" fill="none" stroke="#ffffff" stroke-width="0.22" stroke-miterlimit="79.8403193612775"/>
       <path d="M 308.207,422.625 L 308.207,420.89" fill="none" stroke="#ffffff" stroke-width="0.22" stroke-miterlimit="79.8403193612775"/>
       <path d="M 310.168,422.642 L 310.168,420.907" fill="none" stroke="#ffffff" stroke-width="0.22" stroke-miterlimit="79.8403193612775"/>
       <path d="M 308.199,422.523 C 308.845,422.726 309.505,422.785 310.195,422.523" fill="none" stroke="#ffffff" stroke-width="0.22" stroke-miterlimit="79.8403193612775"/>
       <path d="M 308.242,420.977 C 308.831,421.309 309.478,421.3 310.177,420.977" fill="none" stroke="#ffffff" stroke-width="0.22" stroke-miterlimit="79.8403193612775"/>
      </g>
      <g id="Group_23">
       <path d="M 314.913,420.985 L 317.221,421.023 C 317.412,421.026 317.469,421.15 317.349,421.298 L 316.227,422.682 C 316.107,422.831 315.917,422.826 315.804,422.672 L 314.771,421.259 C 314.658,421.105 314.721,420.982 314.913,420.985 Z" stroke="#ffffff" stroke-width="0.22" stroke-linejoin="miter" marker-start="none" marker-end="none" stroke-miterlimit="79.8403193612775"/>
       <path d="M 316.027,422.218 C 316.308,422.218 316.536,421.99 316.536,421.709 C 316.536,421.427 316.308,421.199 316.027,421.199 C 315.745,421.199 315.517,421.427 315.517,421.709 C 315.517,421.99 315.745,422.218 316.027,422.218 Z" stroke="#ffffff" stroke-width="0.109" marker-start="none" marker-end="none" stroke-miterlimit="79.8403193612775"/>
       <path d="M 316.449,422.21 L 316.134,421.94 L 316.312,421.733 L 316.627,422.003 L 316.449,422.21 Z" stroke="none" fill="#1890f9" stroke-width="0.054" stroke-linejoin="miter" marker-start="none" marker-end="none" stroke-miterlimit="79.8403193612775"/>
       <path d="M 315.791,421.768 L 315.968,421.906 L 315.97,421.476 L 316.486,422.054" fill="none" stroke="#ffffff" stroke-width="0.109" stroke-miterlimit="79.8403193612775"/>
      </g>
      <g id="Group_24" fill="#1890f9">
       <path d="M 312.085,422.565 C 312.494,422.565 312.826,422.232 312.826,421.823 C 312.826,421.414 312.494,421.081 312.085,421.081 C 311.674,421.081 311.342,421.414 311.342,421.823 C 311.342,422.232 311.674,422.565 312.085,422.565 Z" stroke="#ffffff" stroke-width="0.22" marker-start="none" marker-end="none" stroke-miterlimit="79.8403193612775"/>
       <path d="M 312.235,422.871 L 312.235,420.928 L 313.05,420.928 L 313.05,422.871 L 312.235,422.871 Z" stroke-width="0.109" stroke="none" stroke-linejoin="miter" marker-start="none" marker-end="none" stroke-miterlimit="79.8403193612775"/>
       <path d="M 313.487,422.586 C 313.896,422.586 314.229,422.254 314.229,421.845 C 314.229,421.435 313.896,421.103 313.487,421.103 C 313.077,421.103 312.744,421.435 312.744,421.845 C 312.744,422.254 313.077,422.586 313.487,422.586 Z" stroke="#ffffff" stroke-width="0.22" marker-start="none" marker-end="none" stroke-miterlimit="79.8403193612775"/>
       <path d="M 312.791,421.831 L 313.489,421.831" fill="none" stroke="#ffffff" stroke-width="0.22" stroke-miterlimit="79.8403193612775"/>
       <path d="M 313.697,422.819 L 313.697,420.876 L 314.512,420.876 L 314.512,422.819 L 313.697,422.819 Z" stroke-width="0.109" stroke="none" stroke-linejoin="miter" marker-start="none" marker-end="none" stroke-miterlimit="79.8403193612775"/>
      </g>
     </g>
     <g id="Group_25">
      <path d="M 330.647,334.062 C 331.45,334.062 332.102,333.41 332.102,332.607 C 332.102,331.803 331.45,331.151 330.647,331.151 C 329.843,331.151 329.191,331.803 329.191,332.607 C 329.191,333.41 329.843,334.062 330.647,334.062 Z" fill="#7f7f7f" stroke="#4c4c4c" stroke-width="0.097" marker-start="none" marker-end="none" stroke-miterlimit="79.8403193612775"/>
      <path d="M 330.647,333.835 C 331.324,333.835 331.875,333.284 331.875,332.607 C 331.875,331.929 331.324,331.378 330.647,331.378 C 329.969,331.378 329.418,331.929 329.418,332.607 C 329.418,333.284 329.969,333.835 330.647,333.835 Z" fill="#333333" stroke="#4c4c4c" stroke-width="0.081" marker-start="none" marker-end="none" stroke-miterlimit="79.8403193612775"/>
      <g id="Group_26" fill-rule="nonzero" stroke="none" stroke-width="0.085" fill="#191919" stroke-miterlimit="79.8403193612775">
       <g id="Group_27">
        <path d="M 330.82,331.903 L 330.466,331.903 L 330.466,332.425 L 329.942,332.425 L 329.942,332.784 L 330.466,332.784 L 330.466,333.308 L 330.82,333.308 L 330.82,332.784 L 331.347,332.784 L 331.347,332.425 L 330.82,332.425 L 330.82,331.903 Z" marker-start="none" marker-end="none"/>
       </g>
      </g>
     </g>
     <g id="Group_28" fill-rule="nonzero" stroke="none" fill="#ffffff">
      <path d="M 305.233,452.658 C 305.233,452.658 304.743,452.851 304.246,452.452 C 304.246,452.452 303.656,452.056 303.548,450.387 C 303.548,450.387 303.515,450.109 303.761,450.068 C 303.761,450.068 304.007,450.021 304.039,450.228 C 304.073,450.437 304.067,451.489 304.533,452.03 C 304.533,452.03 304.578,452.098 304.702,452.151 C 304.806,452.215 304.888,452.332 304.949,452.424 C 304.949,452.424 305.04,452.545 305.233,452.658 L 305.233,452.658 Z" marker-start="none" marker-end="none"/>
      <path d="M 306.118,452.697 C 306.118,452.697 305.682,452.835 305.214,452.477 C 305.214,452.477 304.656,452.137 304.526,450.783 C 304.526,450.783 304.479,450.449 304.505,450.28 C 304.505,450.28 304.526,450.082 304.729,450.065 C 304.729,450.065 304.975,450.046 304.991,450.277 C 305.006,450.506 305.012,450.6 305.012,450.6 C 305.012,450.6 305.05,451.499 305.415,451.955 C 305.415,451.955 305.504,451.889 305.504,451.889 C 305.504,451.889 305.628,452.362 306.118,452.697 C 306.118,452.697 306.118,452.697 306.118,452.697 L 306.118,452.697 Z" marker-start="none" marker-end="none"/>
      <path d="M 307.003,452.697 C 307.003,452.697 306.419,452.833 305.997,452.375 C 305.997,452.375 305.578,452.001 305.455,451.072 C 305.455,451.072 305.402,450.573 305.394,450.33 C 305.394,450.33 305.389,450.095 305.616,450.065 C 305.616,450.065 305.85,450.051 305.864,450.298 C 305.864,450.298 305.88,451.435 306.3,451.955 C 306.3,451.955 306.404,451.89 306.404,451.89 C 306.404,451.89 306.587,452.416 307.003,452.697 C 307.003,452.697 307.003,452.697 307.003,452.697 L 307.003,452.697 Z" marker-start="none" marker-end="none"/>
      <path d="M 307.675,452.71 C 307.675,452.71 307.087,452.734 306.742,452.141 C 306.742,452.141 306.344,451.561 306.345,450.372 C 306.345,450.372 306.321,450.09 306.543,450.065 C 306.543,450.065 306.804,450.048 306.804,450.348 C 306.804,450.348 306.815,451.52 307.264,451.995 C 307.264,451.995 307.66,451.519 307.692,450.399 C 307.692,450.399 307.706,449.633 307.849,449.21 C 307.849,449.21 307.979,449.684 308.004,450.341 C 308.004,450.341 307.994,450.461 308.098,450.545 C 308.098,450.545 308.166,450.579 308.153,450.699 C 308.153,450.699 308.057,451.676 307.732,452.228 C 307.732,452.228 308.421,452.273 308.558,450.894 C 308.558,450.894 308.559,450.693 308.671,450.566 C 308.671,450.566 308.753,450.508 308.761,450.367 C 308.761,450.367 308.782,450.172 308.723,449.541 C 308.723,449.541 308.709,449.402 308.77,449.206 C 308.77,449.206 308.94,449.677 308.895,450.139 C 308.895,450.139 308.872,450.514 309.059,450.642 C 309.059,450.642 309.044,451.689 308.628,452.261 C 308.628,452.261 308.298,452.736 307.675,452.71 C 307.675,452.71 307.675,452.71 307.675,452.71 L 307.675,452.71 Z" marker-start="none" marker-end="none"/>
      <path d="M 309.729,447.97 C 309.729,447.97 310.218,447.777 310.716,448.177 C 310.716,448.177 311.305,448.572 311.414,450.242 C 311.414,450.242 311.447,450.518 311.201,450.56 C 311.201,450.56 310.954,450.608 310.922,450.399 C 310.889,450.191 310.895,449.138 310.429,448.598 C 310.429,448.598 310.384,448.53 310.259,448.476 C 310.155,448.412 310.074,448.296 310.013,448.204 C 310.013,448.204 309.921,448.082 309.729,447.97 L 309.729,447.97 Z" marker-start="none" marker-end="none"/>
      <path d="M 308.843,447.93 C 308.843,447.93 309.28,447.792 309.748,448.151 C 309.748,448.151 310.305,448.491 310.436,449.844 C 310.436,449.844 310.483,450.178 310.457,450.347 C 310.457,450.347 310.436,450.545 310.232,450.562 C 310.232,450.562 309.987,450.581 309.971,450.352 C 309.955,450.121 309.949,450.028 309.949,450.028 C 309.949,450.028 309.911,449.128 309.546,448.672 C 309.546,448.672 309.458,448.739 309.458,448.739 C 309.458,448.739 309.334,448.267 308.843,447.93 C 308.843,447.93 308.843,447.93 308.843,447.93 L 308.843,447.93 Z" marker-start="none" marker-end="none"/>
      <path d="M 307.959,447.93 C 307.959,447.93 308.541,447.794 308.965,448.253 C 308.965,448.253 309.384,448.628 309.507,449.556 C 309.507,449.556 309.559,450.055 309.567,450.298 C 309.567,450.298 309.572,450.533 309.346,450.562 C 309.346,450.562 309.112,450.577 309.097,450.33 C 309.097,450.33 309.082,449.193 308.661,448.672 C 308.661,448.672 308.557,448.737 308.557,448.737 C 308.557,448.737 308.375,448.212 307.959,447.93 C 307.959,447.93 307.959,447.93 307.959,447.93 L 307.959,447.93 Z" marker-start="none" marker-end="none"/>
      <path d="M 307.287,447.918 C 307.287,447.918 307.874,447.894 308.219,448.486 C 308.219,448.486 308.618,449.066 308.617,450.256 C 308.617,450.256 308.641,450.537 308.419,450.563 C 308.419,450.563 308.157,450.579 308.157,450.28 C 308.157,450.28 308.146,449.107 307.698,448.634 C 307.698,448.634 307.302,449.109 307.27,450.228 C 307.27,450.228 307.256,450.996 307.112,451.418 C 307.112,451.418 306.983,450.945 306.957,450.287 C 306.957,450.287 306.968,450.166 306.865,450.082 C 306.865,450.082 306.795,450.048 306.808,449.929 C 306.808,449.929 306.905,448.953 307.23,448.399 C 307.23,448.399 306.541,448.354 306.403,449.734 C 306.403,449.734 306.402,449.936 306.29,450.061 C 306.29,450.061 306.209,450.119 306.201,450.261 C 306.201,450.261 306.181,450.456 306.239,451.087 C 306.239,451.087 306.253,451.225 306.192,451.422 C 306.192,451.422 306.021,450.951 306.066,450.488 C 306.066,450.488 306.088,450.113 305.902,449.987 C 305.902,449.987 305.918,448.94 306.334,448.367 C 306.334,448.367 306.664,447.892 307.287,447.918 C 307.287,447.918 307.287,447.918 307.287,447.918 L 307.287,447.918 Z" marker-start="none" marker-end="none"/>
      <path d="M 312.218,451.356 C 312.218,451.356 312.469,452.122 312.469,452.122 C 312.511,452.253 312.651,452.312 312.772,452.251 C 312.878,452.2 312.923,452.082 312.875,451.964 C 312.875,451.964 312.452,450.9 312.452,450.9 C 312.386,450.743 312.28,450.684 312.132,450.738 C 312.064,450.76 312.019,450.808 311.982,450.9 C 311.982,450.9 311.559,451.964 311.559,451.964 C 311.511,452.082 311.556,452.2 311.662,452.251 C 311.783,452.312 311.923,452.251 311.965,452.122 C 311.965,452.122 312.218,451.356 312.218,451.356 C 312.218,451.356 312.218,451.356 312.218,451.356 L 312.218,451.356 Z" marker-start="none" marker-end="none"/>
      <path d="M 313.046,452.837 C 313.145,452.935 313.302,452.933 313.4,452.835 C 313.496,452.736 313.496,452.582 313.4,452.484 C 313.302,452.386 313.145,452.386 313.049,452.481 C 313.001,452.528 312.973,452.593 312.973,452.66 C 312.973,452.725 313.001,452.79 313.046,452.837 C 313.046,452.837 313.046,452.837 313.046,452.837 L 313.046,452.837 Z M 313.007,452.057 C 313.007,452.116 313.029,452.172 313.071,452.211 C 313.156,452.298 313.293,452.295 313.377,452.211 C 313.416,452.169 313.439,452.113 313.439,452.057 C 313.439,452.057 313.439,450.934 313.439,450.934 C 313.442,450.813 313.347,450.718 313.226,450.715 C 313.106,450.715 313.007,450.813 313.007,450.932 C 313.007,450.932 313.007,452.057 313.007,452.057 C 313.007,452.057 313.007,452.057 313.007,452.057 L 313.007,452.057 Z" marker-start="none" marker-end="none"/>
      <path d="M 314.492,452.273 C 314.814,452.236 314.921,452.096 314.885,451.953 C 314.863,451.857 314.791,451.802 314.707,451.804 C 314.694,451.807 314.68,451.807 314.665,451.81 C 314.665,451.81 314.643,451.818 314.643,451.818 C 314.643,451.818 314.604,451.832 314.604,451.832 C 314.604,451.832 314.576,451.841 314.576,451.841 C 314.576,451.841 314.537,451.855 314.537,451.855 C 314.275,451.939 314.065,451.784 314.067,451.49 C 314.073,451.195 314.286,451.052 314.565,451.145 C 314.565,451.145 314.612,451.161 314.612,451.161 C 314.612,451.161 314.632,451.169 314.632,451.169 C 314.758,451.215 314.871,451.153 314.89,451.022 C 314.907,450.911 314.833,450.81 314.632,450.746 C 314.582,450.729 314.528,450.718 314.471,450.712 C 313.989,450.668 313.624,451.005 313.629,451.501 C 313.635,452.001 314.008,452.327 314.492,452.273 C 314.492,452.273 314.492,452.273 314.492,452.273 L 314.492,452.273 Z" marker-start="none" marker-end="none"/>
      <path d="M 315.207,452.256 C 315.207,452.256 315.204,452.506 315.204,452.506 C 315.204,452.624 315.299,452.722 315.42,452.722 C 315.538,452.722 315.636,452.624 315.633,452.506 C 315.633,452.506 315.633,452.256 315.633,452.256 C 315.633,452.256 315.762,452.256 315.762,452.256 C 315.812,452.256 315.863,452.236 315.901,452.197 C 315.976,452.125 315.976,452.001 315.901,451.924 C 315.86,451.888 315.812,451.869 315.76,451.869 C 315.76,451.869 315.633,451.869 315.633,451.869 C 315.633,451.869 315.633,450.938 315.633,450.938 C 315.633,450.881 315.611,450.824 315.572,450.782 C 315.487,450.699 315.353,450.699 315.271,450.782 C 315.229,450.824 315.207,450.881 315.207,450.938 C 315.207,450.938 315.21,451.872 315.21,451.872 C 315.21,451.872 315.133,451.872 315.133,451.872 C 315.08,451.872 315.03,451.891 314.99,451.93 C 314.915,452.004 314.915,452.125 314.993,452.2 C 315.03,452.236 315.08,452.256 315.133,452.256 C 315.133,452.256 315.207,452.256 315.207,452.256 C 315.207,452.256 315.207,452.256 315.207,452.256 L 315.207,452.256 Z" marker-start="none" marker-end="none"/>
      <path d="M 316.04,452.065 C 316.04,452.169 316.127,452.264 316.259,452.273 C 316.394,452.284 316.475,452.2 316.469,452.119 C 316.469,452.119 316.466,452.096 316.466,452.096 C 316.478,452.111 316.489,452.125 316.503,452.136 C 316.669,452.315 316.857,452.312 316.944,452.183 C 317.02,452.071 316.98,451.942 316.868,451.894 C 316.868,451.894 316.845,451.883 316.845,451.883 C 316.845,451.883 316.786,451.863 316.786,451.863 C 316.73,451.844 316.691,451.824 316.657,451.804 C 316.519,451.723 316.472,451.65 316.472,451.579 C 316.472,451.579 316.472,450.934 316.472,450.934 C 316.472,450.816 316.377,450.718 316.256,450.718 C 316.135,450.718 316.04,450.813 316.04,450.932 C 316.04,450.932 316.04,452.065 316.04,452.065 C 316.04,452.065 316.04,452.065 316.04,452.065 L 316.04,452.065 Z" marker-start="none" marker-end="none"/>
      <path d="M 317.401,451.431 C 317.437,451.173 317.588,451.058 317.774,451.1 C 317.897,451.125 317.99,451.237 318.013,451.428 C 318.018,451.473 318.018,451.518 318.013,451.563 C 317.988,451.748 317.891,451.857 317.774,451.883 C 317.594,451.922 317.434,451.81 317.401,451.56 C 317.398,451.537 317.398,451.515 317.398,451.493 C 317.398,451.47 317.398,451.451 317.401,451.431 C 317.401,451.431 317.401,451.431 317.401,451.431 L 317.401,451.431 Z M 317.075,451.916 C 317.215,452.149 317.454,452.284 317.709,452.284 C 318.116,452.284 318.45,451.947 318.453,451.498 C 318.453,451.047 318.119,450.71 317.709,450.71 C 317.297,450.71 316.966,451.047 316.966,451.498 C 316.966,451.662 317.002,451.799 317.075,451.916 C 317.075,451.916 317.075,451.916 317.075,451.916 L 317.075,451.916 Z" marker-start="none" marker-end="none"/>
      <path d="M 318.638,452.054 C 318.638,452.161 318.728,452.262 318.854,452.273 C 318.969,452.284 319.048,452.211 319.048,452.133 C 319.048,452.133 319.048,452.116 319.048,452.116 C 319.115,452.197 319.208,452.251 319.339,452.273 C 319.41,452.287 319.48,452.287 319.547,452.276 C 319.845,452.228 320.008,452.032 320.008,451.737 C 320.008,451.737 320.008,450.932 320.008,450.932 C 320.008,450.81 319.912,450.715 319.795,450.712 C 319.673,450.712 319.576,450.808 319.576,450.928 C 319.576,450.928 319.576,451.664 319.576,451.664 C 319.576,451.732 319.547,451.796 319.5,451.844 C 319.402,451.944 319.241,451.944 319.144,451.846 C 319.096,451.796 319.071,451.735 319.071,451.667 C 319.071,451.667 319.071,450.932 319.071,450.932 C 319.071,450.813 318.972,450.715 318.851,450.718 C 318.734,450.718 318.638,450.816 318.638,450.934 C 318.638,450.934 318.638,452.054 318.638,452.054 C 318.638,452.054 318.638,452.054 318.638,452.054 L 318.638,452.054 Z" marker-start="none" marker-end="none"/>
      <path d="M 322.004,451.639 C 322.001,451.648 322.001,451.659 321.998,451.667 C 321.953,451.872 321.808,451.966 321.641,451.928 C 321.538,451.902 321.448,451.813 321.411,451.673 C 321.408,451.662 321.408,451.65 321.406,451.639 C 321.406,451.639 322.004,451.639 322.004,451.639 C 322.004,451.639 322.004,451.639 322.004,451.639 L 322.004,451.639 Z M 321.417,451.361 C 321.428,451.308 321.454,451.254 321.49,451.209 C 321.605,451.072 321.816,451.038 322.054,451.164 C 322.192,451.24 322.231,451.245 322.304,451.217 C 322.346,451.2 322.38,451.167 322.396,451.125 C 322.458,450.974 322.271,450.712 321.742,450.71 C 321.207,450.71 320.85,451.153 320.973,451.687 C 321.043,451.996 321.276,452.217 321.569,452.27 C 321.906,452.332 322.226,452.161 322.366,451.841 C 322.402,451.754 322.425,451.664 322.43,451.596 C 322.447,451.423 322.391,451.361 322.248,451.361 C 322.248,451.361 321.417,451.361 321.417,451.361 C 321.417,451.361 321.417,451.361 321.417,451.361 L 321.417,451.361 Z" marker-start="none" marker-end="none"/>
      <path d="M 322.59,452.054 C 322.59,452.161 322.68,452.262 322.806,452.273 C 322.921,452.284 323,452.211 323,452.133 C 323,452.133 323,452.116 323,452.116 C 323.067,452.197 323.159,452.251 323.292,452.273 C 323.362,452.287 323.432,452.287 323.499,452.276 C 323.797,452.228 323.96,452.032 323.96,451.737 C 323.96,451.737 323.96,450.932 323.96,450.932 C 323.96,450.81 323.864,450.715 323.746,450.712 C 323.626,450.712 323.527,450.808 323.527,450.928 C 323.527,450.928 323.527,451.664 323.527,451.664 C 323.527,451.732 323.499,451.796 323.451,451.844 C 323.353,451.944 323.194,451.944 323.095,451.846 C 323.047,451.796 323.023,451.735 323.023,451.667 C 323.023,451.667 323.023,450.932 323.023,450.932 C 323.023,450.813 322.924,450.715 322.803,450.718 C 322.685,450.718 322.59,450.816 322.59,450.934 C 322.59,450.934 322.59,452.054 322.59,452.054 C 322.59,452.054 322.59,452.054 322.59,452.054 L 322.59,452.054 Z" marker-start="none" marker-end="none"/>
      <path d="M 325.197,451.639 C 325.195,451.648 325.195,451.659 325.192,451.667 C 325.147,451.872 325.002,451.966 324.835,451.928 C 324.732,451.902 324.642,451.813 324.606,451.673 C 324.603,451.662 324.603,451.65 324.6,451.639 C 324.6,451.639 325.197,451.639 325.197,451.639 C 325.197,451.639 325.197,451.639 325.197,451.639 L 325.197,451.639 Z M 324.611,451.361 C 324.623,451.308 324.648,451.254 324.684,451.209 C 324.799,451.072 325.01,451.038 325.248,451.164 C 325.386,451.24 325.425,451.245 325.498,451.217 C 325.54,451.2 325.573,451.167 325.59,451.125 C 325.653,450.974 325.464,450.712 324.937,450.71 C 324.4,450.71 324.044,451.153 324.167,451.687 C 324.238,451.996 324.47,452.217 324.762,452.27 C 325.1,452.332 325.419,452.161 325.559,451.841 C 325.596,451.754 325.619,451.664 325.625,451.596 C 325.642,451.423 325.585,451.361 325.442,451.361 C 325.442,451.361 324.611,451.361 324.611,451.361 C 324.611,451.361 324.611,451.361 324.611,451.361 L 324.611,451.361 Z" marker-start="none" marker-end="none"/>
      <path d="M 325.784,452.065 C 325.784,452.169 325.871,452.264 326.003,452.273 C 326.138,452.284 326.219,452.2 326.213,452.119 C 326.213,452.119 326.21,452.096 326.21,452.096 C 326.222,452.111 326.233,452.125 326.247,452.136 C 326.413,452.315 326.6,452.312 326.688,452.183 C 326.764,452.071 326.725,451.942 326.611,451.894 C 326.611,451.894 326.589,451.883 326.589,451.883 C 326.589,451.883 326.531,451.863 326.531,451.863 C 326.475,451.844 326.435,451.824 326.402,451.804 C 326.264,451.723 326.216,451.65 326.216,451.579 C 326.216,451.579 326.216,450.934 326.216,450.934 C 326.216,450.816 326.121,450.718 326.001,450.718 C 325.879,450.718 325.784,450.813 325.784,450.932 C 325.784,450.932 325.784,452.065 325.784,452.065 C 325.784,452.065 325.784,452.065 325.784,452.065 L 325.784,452.065 Z" marker-start="none" marker-end="none"/>
      <path d="M 327.228,451.209 C 327.349,451.063 327.571,451.066 327.683,451.217 C 327.734,451.285 327.76,451.367 327.763,451.484 C 327.763,451.675 327.692,451.796 327.58,451.852 C 327.392,451.944 327.181,451.821 327.148,451.565 C 327.145,451.54 327.142,451.512 327.142,451.487 C 327.142,451.37 327.175,451.276 327.228,451.209 C 327.228,451.209 327.228,451.209 327.228,451.209 L 327.228,451.209 Z M 327.774,452.127 C 327.776,452.208 327.855,452.281 327.97,452.27 C 328.097,452.259 328.186,452.158 328.186,452.049 C 328.186,452.049 328.186,450.922 328.186,450.922 C 328.186,450.362 327.855,450.055 327.27,450.117 C 327.153,450.131 327.047,450.159 326.945,450.204 C 326.738,450.3 326.702,450.445 326.802,450.552 C 326.858,450.615 326.928,450.628 327.025,450.598 C 327.025,450.598 327.027,450.595 327.027,450.595 C 327.027,450.595 327.114,450.555 327.114,450.555 C 327.134,450.546 327.153,450.538 327.173,450.532 C 327.541,450.401 327.751,450.552 327.76,450.833 C 327.763,450.852 327.76,450.872 327.76,450.892 C 327.599,450.665 327.203,450.626 326.931,450.894 C 326.758,451.069 326.671,451.356 326.727,451.667 C 326.746,451.779 326.783,451.875 326.833,451.955 C 327.072,452.341 327.554,452.377 327.774,452.107 C 327.774,452.107 327.774,452.127 327.774,452.127 C 327.774,452.127 327.774,452.127 327.774,452.127 L 327.774,452.127 Z" marker-start="none" marker-end="none"/>
      <path d="M 328.428,452.253 C 328.548,452.303 328.671,452.247 328.722,452.111 C 328.722,452.111 328.991,451.389 328.991,451.389 C 328.991,451.389 329.267,452.113 329.267,452.113 C 329.32,452.251 329.447,452.307 329.565,452.251 C 329.671,452.2 329.716,452.08 329.671,451.969 C 329.671,451.969 328.972,450.258 328.972,450.258 C 328.913,450.114 328.795,450.061 328.677,450.109 C 328.565,450.156 328.518,450.278 328.565,450.392 C 328.565,450.392 328.768,450.858 328.768,450.858 C 328.768,450.858 328.309,451.979 328.309,451.979 C 328.267,452.085 328.317,452.208 328.428,452.253 C 328.428,452.253 328.428,452.253 328.428,452.253 L 328.428,452.253 Z" marker-start="none" marker-end="none"/>
      <path d="M 314.652,449.811 C 314.672,449.794 314.683,449.768 314.683,449.733 C 314.683,449.694 314.672,449.667 314.651,449.649 C 314.629,449.631 314.595,449.623 314.548,449.623 C 314.535,449.623 314.515,449.624 314.488,449.627 C 314.488,449.627 314.488,449.835 314.488,449.835 C 314.488,449.835 314.55,449.837 314.55,449.837 C 314.598,449.837 314.632,449.828 314.652,449.811 C 314.652,449.811 314.652,449.811 314.652,449.811 L 314.652,449.811 Z M 314.708,449.606 C 314.743,449.635 314.761,449.673 314.761,449.721 C 314.761,449.762 314.751,449.795 314.732,449.819 C 314.712,449.843 314.68,449.861 314.637,449.871 C 314.66,449.876 314.681,449.89 314.699,449.911 C 314.718,449.932 314.728,449.955 314.728,449.981 C 314.728,450.024 314.713,450.057 314.684,450.08 C 314.654,450.103 314.612,450.115 314.558,450.115 C 314.529,450.115 314.48,450.114 314.414,450.11 C 314.414,450.11 314.414,449.563 314.414,449.563 C 314.414,449.563 314.571,449.563 314.571,449.563 C 314.627,449.563 314.673,449.577 314.708,449.606 C 314.708,449.606 314.708,449.606 314.708,449.606 L 314.708,449.606 Z M 314.556,450.053 C 314.621,450.053 314.653,450.028 314.653,449.977 C 314.653,449.92 314.618,449.892 314.548,449.892 C 314.524,449.892 314.505,449.892 314.488,449.894 C 314.488,449.894 314.488,450.051 314.488,450.051 C 314.509,450.052 314.531,450.053 314.556,450.053 C 314.556,450.053 314.556,450.053 314.556,450.053 L 314.556,450.053 Z" marker-start="none" marker-end="none"/>
      <path d="M 315.858,449.563 C 315.858,449.563 315.537,449.563 315.537,449.563 C 315.537,449.563 315.537,450.11 315.537,450.11 C 315.537,450.11 315.612,450.11 315.612,450.11 C 315.612,450.11 315.612,449.63 315.612,449.63 C 315.612,449.63 315.858,449.63 315.858,449.63 C 315.858,449.63 315.858,449.563 315.858,449.563 C 315.858,449.563 315.858,449.563 315.858,449.563 L 315.858,449.563 Z" marker-start="none" marker-end="none"/>
      <path d="M 316.614,449.73 C 316.614,449.73 316.614,450.11 316.614,450.11 C 316.614,450.11 316.688,450.11 316.688,450.11 C 316.688,450.11 316.688,449.735 316.688,449.735 C 316.688,449.702 316.699,449.675 316.72,449.653 C 316.741,449.632 316.769,449.621 316.804,449.621 C 316.841,449.621 316.87,449.631 316.891,449.652 C 316.912,449.673 316.923,449.701 316.923,449.737 C 316.923,449.737 316.923,450.11 316.923,450.11 C 316.923,450.11 316.998,450.11 316.998,450.11 C 316.998,450.11 316.998,449.729 316.998,449.729 C 316.998,449.674 316.981,449.631 316.946,449.6 C 316.911,449.569 316.864,449.554 316.805,449.554 C 316.744,449.554 316.696,449.569 316.663,449.599 C 316.631,449.63 316.614,449.673 316.614,449.73 C 316.614,449.73 316.614,449.73 316.614,449.73 L 316.614,449.73 Z" marker-start="none" marker-end="none"/>
      <path d="M 318.254,450.043 C 318.254,450.043 318.002,450.043 318.002,450.043 C 318.002,450.043 318.002,449.892 318.002,449.892 C 318.002,449.892 318.183,449.892 318.183,449.892 C 318.183,449.892 318.183,449.827 318.183,449.827 C 318.183,449.827 318.002,449.827 318.002,449.827 C 318.002,449.827 318.002,449.63 318.002,449.63 C 318.002,449.63 318.25,449.63 318.25,449.63 C 318.25,449.63 318.25,449.563 318.25,449.563 C 318.25,449.563 317.926,449.563 317.926,449.563 C 317.926,449.563 317.926,450.11 317.926,450.11 C 317.926,450.11 318.254,450.11 318.254,450.11 C 318.254,450.11 318.254,450.043 318.254,450.043 C 318.254,450.043 318.254,450.043 318.254,450.043 L 318.254,450.043 Z" marker-start="none" marker-end="none"/>
      <path d="M 320.077,449.77 C 320.217,449.77 320.287,449.831 320.287,449.955 C 320.287,450.061 320.208,450.114 320.048,450.114 C 320.036,450.114 320.002,450.113 319.946,450.11 C 319.946,450.11 319.946,449.563 319.946,449.563 C 319.946,449.563 320.021,449.563 320.021,449.563 C 320.021,449.563 320.021,449.773 320.021,449.773 C 320.049,449.771 320.068,449.77 320.077,449.77 C 320.077,449.77 320.077,449.77 320.077,449.77 L 320.077,449.77 Z M 320.062,450.047 C 320.161,450.047 320.21,450.014 320.21,449.947 C 320.21,449.873 320.164,449.837 320.071,449.837 C 320.07,449.837 320.052,449.838 320.021,449.84 C 320.021,449.84 320.021,450.043 320.021,450.043 C 320.038,450.046 320.051,450.047 320.062,450.047 C 320.062,450.047 320.062,450.047 320.062,450.047 L 320.062,450.047 Z" marker-start="none" marker-end="none"/>
      <path d="M 321.094,449.635 C 321.134,449.581 321.188,449.554 321.257,449.554 C 321.332,449.554 321.39,449.579 321.431,449.63 C 321.472,449.681 321.493,449.751 321.493,449.841 C 321.493,449.929 321.472,449.998 321.431,450.047 C 321.391,450.095 321.332,450.12 321.257,450.12 C 321.189,450.12 321.136,450.094 321.095,450.04 C 321.056,449.987 321.036,449.921 321.036,449.841 C 321.036,449.757 321.055,449.688 321.094,449.635 C 321.094,449.635 321.094,449.635 321.094,449.635 L 321.094,449.635 Z M 321.151,449.996 C 321.175,450.034 321.21,450.053 321.257,450.053 C 321.361,450.053 321.413,449.982 321.413,449.841 C 321.413,449.771 321.4,449.717 321.373,449.679 C 321.347,449.64 321.308,449.621 321.257,449.621 C 321.212,449.621 321.177,449.642 321.152,449.684 C 321.127,449.726 321.115,449.778 321.115,449.841 C 321.115,449.907 321.127,449.958 321.151,449.996 C 321.151,449.996 321.151,449.996 321.151,449.996 L 321.151,449.996 Z" marker-start="none" marker-end="none"/>
      <path d="M 322.86,450.11 C 322.86,450.11 322.688,449.556 322.688,449.556 C 322.688,449.556 322.665,449.556 322.665,449.556 C 322.665,449.556 322.535,449.933 322.535,449.933 C 322.535,449.933 322.412,449.556 322.412,449.556 C 322.412,449.556 322.389,449.556 322.389,449.556 C 322.389,449.556 322.216,450.11 322.216,450.11 C 322.216,450.11 322.294,450.11 322.294,450.11 C 322.294,450.11 322.404,449.728 322.404,449.728 C 322.404,449.728 322.525,450.11 322.525,450.11 C 322.525,450.11 322.551,450.11 322.551,450.11 C 322.551,450.11 322.669,449.729 322.669,449.729 C 322.669,449.729 322.781,450.11 322.781,450.11 C 322.781,450.11 322.86,450.11 322.86,450.11 C 322.86,450.11 322.86,450.11 322.86,450.11 L 322.86,450.11 Z" marker-start="none" marker-end="none"/>
      <path d="M 323.936,450.043 C 323.936,450.043 323.684,450.043 323.684,450.043 C 323.684,450.043 323.684,449.892 323.684,449.892 C 323.684,449.892 323.864,449.892 323.864,449.892 C 323.864,449.892 323.864,449.827 323.864,449.827 C 323.864,449.827 323.684,449.827 323.684,449.827 C 323.684,449.827 323.684,449.63 323.684,449.63 C 323.684,449.63 323.932,449.63 323.932,449.63 C 323.932,449.63 323.932,449.563 323.932,449.563 C 323.932,449.563 323.609,449.563 323.609,449.563 C 323.609,449.563 323.609,450.11 323.609,450.11 C 323.609,450.11 323.936,450.11 323.936,450.11 C 323.936,450.11 323.936,450.043 323.936,450.043 C 323.936,450.043 323.936,450.043 323.936,450.043 L 323.936,450.043 Z" marker-start="none" marker-end="none"/>
      <path d="M 324.94,449.815 C 324.969,449.821 324.994,449.838 325.015,449.866 C 325.036,449.894 325.046,449.925 325.046,449.959 C 325.046,450.064 324.981,450.116 324.849,450.116 C 324.832,450.116 324.806,450.115 324.77,450.113 C 324.734,450.111 324.715,450.11 324.712,450.11 C 324.712,450.11 324.712,449.563 324.712,449.563 C 324.712,449.563 324.787,449.563 324.787,449.563 C 324.787,449.563 324.787,449.801 324.787,449.801 C 324.823,449.799 324.849,449.798 324.866,449.798 C 324.866,449.798 325.012,449.563 325.012,449.563 C 325.012,449.563 325.098,449.563 325.098,449.563 C 325.098,449.563 324.94,449.815 324.94,449.815 C 324.94,449.815 324.94,449.815 324.94,449.815 L 324.94,449.815 Z M 324.831,450.047 C 324.878,450.047 324.913,450.04 324.935,450.027 C 324.958,450.013 324.968,449.991 324.968,449.961 C 324.968,449.924 324.958,449.898 324.937,449.883 C 324.916,449.868 324.884,449.861 324.839,449.861 C 324.822,449.861 324.805,449.863 324.787,449.865 C 324.787,449.865 324.787,450.043 324.787,450.043 C 324.809,450.046 324.823,450.047 324.831,450.047 C 324.831,450.047 324.831,450.047 324.831,450.047 L 324.831,450.047 Z" marker-start="none" marker-end="none"/>
     </g>
    </g>
   </g>
  </g>
 </g>
</svg>
