<?xml version="1.0" standalone="no"?>
<!DOCTYPE svg PUBLIC "-//W3C//DTD SVG 1.1//EN" "http://www.w3.org/Graphics/SVG/1.1/DTD/svg11.dtd">
<!--Generator: Xara Xtreme (www.xara.com), SVG filter version: 1.0.0.13-->
<svg stroke-width="0.501" stroke-linejoin="bevel" fill-rule="evenodd" xmlns:xlink="http://www.w3.org/1999/xlink" xmlns="http://www.w3.org/2000/svg" version="1.1" overflow="visible" width="841.891pt" height="595.277pt" viewBox="0 0 841.891 595.277">
 <defs>
  <marker id="DefaultArrow2" markerUnits="strokeWidth" viewBox="0 0 1 1" markerWidth="1" markerHeight="1" overflow="visible" orient="auto">
   <!-- REF_ARROW_STRAIGHT (-2) -->
   <g transform="scale(0.0092592592)">
    <!-- 1/108 -->
    <path d="M -9 54 L -9 -54 L 117 0 z"/>
   </g>
  </marker>
  <marker id="DefaultArrow3" markerUnits="strokeWidth" viewBox="0 0 1 1" markerWidth="1" markerHeight="1" overflow="visible" orient="auto">
   <!-- REF_ARROW_ANGLED -->
   <g transform="scale(0.0092592592)">
    <path d="M -27 54 L -9 0 L -27 -54 L 135 0 z"/>
   </g>
  </marker>
  <marker id="DefaultArrow4" markerUnits="strokeWidth" viewBox="0 0 1 1" markerWidth="1" markerHeight="1" overflow="visible" orient="auto">
   <!-- REF_ARROW_ROUNDED -->
   <g transform="scale(0.0092592592)">
    <path d="M -9,0 L -9,-45 C -9,-51.708 2.808,-56.580 9,-54 L 117,-9 C 120.916,-7.369 126.000,-4.242 126,0 C 126,4.242 120.916,7.369 117,9 L 9,54 C 2.808,56.580 -9,51.708 -9,45 z"/>
   </g>
  </marker>
  <marker id="DefaultArrow5" markerUnits="strokeWidth" viewBox="0 0 1 1" markerWidth="1" markerHeight="1" overflow="visible" orient="auto">
   <!-- REF_ARROW_SPOT -->
   <g transform="scale(0.0092592592)">
    <path d="M -54, 0 C -54,29.807 -29.807,54 0,54 C 29.807,54 54,29.807 54,0 C 54,-29.807 29.807,-54 0,-54 C -29.807,-54 -54,-29.807 -54,0 z"/>
   </g>
  </marker>
  <marker id="DefaultArrow6" markerUnits="strokeWidth" viewBox="0 0 1 1" markerWidth="1" markerHeight="1" overflow="visible" orient="auto">
   <!-- REF_ARROW_DIAMOND -->
   <g transform="scale(0.0092592592)">
    <path d="M -63,0 L 0,63 L 63,0 L 0,-63 z"/>
   </g>
  </marker>
  <marker id="DefaultArrow7" markerUnits="strokeWidth" viewBox="0 0 1 1" markerWidth="1" markerHeight="1" overflow="visible" orient="auto">
   <!-- REF_ARROW_FEATHER -->
   <g transform="scale(0.0092592592)">
    <path d="M 18,-54 L 108,-54 L 63,0 L 108,54 L 18, 54 L -36,0 z"/>
   </g>
  </marker>
  <marker id="DefaultArrow8" markerUnits="strokeWidth" viewBox="0 0 1 1" markerWidth="1" markerHeight="1" overflow="visible" orient="auto">
   <!-- REF_ARROW_FEATHER2 -->
   <g transform="scale(0.0092592592)">
    <path d="M -36,0 L 18,-54 L 54,-54 L 18,-18 L 27,-18 L 63,-54 L 99,-54 L 63,-18 L 72,-18 L 108,-54 L 144,-54 L 90,0 L 144,54 L 108,54 L 72,18 L 63,18 L 99,54 L 63,54 L 27,18 L 18,18 L 54,54 L 18,54 z"/>
   </g>
  </marker>
  <marker id="DefaultArrow9" markerUnits="strokeWidth" viewBox="0 0 1 1" markerWidth="1" markerHeight="1" overflow="visible" orient="auto">
   <!-- REF_ARROW_HOLLOWDIAMOND -->
   <g transform="scale(0.0092592592)">
    <path d="M 0,45 L -45,0 L 0, -45 L 45, 0 z M 0, 63 L-63, 0 L 0, -63 L 63, 0 z"/>
   </g>
  </marker>
  <filter id="StainedFilter">
   <feBlend mode="multiply" in2="BackgroundImage" in="SourceGraphic" result="blend"/>
   <feComposite in="blend" in2="SourceAlpha" operator="in" result="comp"/>
  </filter>
  <filter id="BleachFilter">
   <feBlend mode="screen" in2="BackgroundImage" in="SourceGraphic" result="blend"/>
   <feComposite in="blend" in2="SourceAlpha" operator="in" result="comp"/>
  </filter>
  <filter id="InvertTransparencyBitmapFilter">
   <feComponentTransfer>
    <feFuncR type="gamma" amplitude="1.055" exponent=".416666666" offset="-0.055"/>
    <feFuncG type="gamma" amplitude="1.055" exponent=".416666666" offset="-0.055"/>
    <feFuncB type="gamma" amplitude="1.055" exponent=".416666666" offset="-0.055"/>
   </feComponentTransfer>
   <feComponentTransfer>
    <feFuncR type="linear" slope="-1" intercept="1"/>
    <feFuncG type="linear" slope="-1" intercept="1"/>
    <feFuncB type="linear" slope="-1" intercept="1"/>
    <feFuncA type="linear" slope="1" intercept="0"/>
   </feComponentTransfer>
   <feComponentTransfer>
    <feFuncR type="gamma" amplitude="1" exponent="2.4" offset="0"/>
    <feFuncG type="gamma" amplitude="1" exponent="2.4" offset="0"/>
    <feFuncB type="gamma" amplitude="1" exponent="2.4" offset="0"/>
   </feComponentTransfer>
  </filter>
  <marker id="DefaultArrowScaled" markerUnits="strokeWidth" viewBox="0 0 1 1" markerWidth="3" markerHeight="3" overflow="visible" orient="auto">
   <!-- REF_ARROW_ANGLED -->
   <g transform="scale(0.0092592592)">
    <path d="M -27 54 L -9 0 L -27 -54 L 135 0 z"/>
   </g>
  </marker>
  <marker id="DefaultArrowStyled" markerUnits="strokeWidth" viewBox="0 0 1 1" markerWidth="3" markerHeight="3" overflow="visible" orient="auto" fill="#ffffff" fill-opacity="1.000000">
   <!-- REF_ARROW_ANGLED -->
   <g transform="scale(0.0092592592)">
    <path d="M -27 54 L -9 0 L -27 -54 L 135 0 z"/>
   </g>
  </marker>
 </defs>
 <g id="Document" fill="none" stroke="black" font-family="Times New Roman" font-size="16" transform="scale(1 -1)">
  <g id="Spread" transform="translate(0 -595.277)">
   <g id="Layer 1"/>
   <g id="logo">
    <g id="Group">
     <path d="M 324.147,349.23 L 324.147,340.876 L 328.396,340.876 L 328.396,349.23 L 324.147,349.23 Z" stroke="#4c4c4c" fill="#191919" stroke-width="0.179" stroke-linejoin="miter" marker-start="none" marker-end="none" stroke-miterlimit="79.8403193612775"/>
     <path d="M 328.633,349.235 L 328.633,340.881 L 332.882,340.881 L 332.882,349.235 L 328.633,349.235 Z" fill="#bf0000" stroke="#4c4c4c" stroke-width="0.179" stroke-linejoin="miter" marker-start="none" marker-end="none" stroke-miterlimit="79.8403193612775"/>
     <g id="Group_1">
      <path d="M 330.828,347.121 C 331.554,347.121 332.145,346.53 332.145,345.804 C 332.145,345.077 331.554,344.486 330.828,344.486 C 330.101,344.486 329.51,345.077 329.51,345.804 C 329.51,346.53 330.101,347.121 330.828,347.121 Z" fill="#7f7f7f" stroke="#4c4c4c" stroke-width="0.087" marker-start="none" marker-end="none" stroke-miterlimit="79.8403193612775"/>
      <path d="M 330.828,346.915 C 331.441,346.915 331.939,346.417 331.939,345.804 C 331.939,345.19 331.441,344.692 330.828,344.692 C 330.214,344.692 329.716,345.19 329.716,345.804 C 329.716,346.417 330.214,346.915 330.828,346.915 Z" fill="#333333" stroke="#4c4c4c" stroke-width="0.073" marker-start="none" marker-end="none" stroke-miterlimit="79.8403193612775"/>
      <g id="Group_2" fill-rule="nonzero" stroke="none" stroke-width="0.076" fill="#191919" stroke-miterlimit="79.8403193612775">
       <g id="Group_3">
        <path d="M 330.985,345.166 L 330.665,345.166 L 330.665,345.638 L 330.191,345.638 L 330.191,345.963 L 330.665,345.963 L 330.665,346.437 L 330.985,346.437 L 330.985,345.963 L 331.462,345.963 L 331.462,345.638 L 330.985,345.638 L 330.985,345.166 Z" marker-start="none" marker-end="none"/>
       </g>
      </g>
     </g>
     <path d="M 290.696,348.974 C 289.838,349.23 289.291,349.697 289.109,350.523 L 289.164,363.043 L 289.743,363.489 L 289.743,365.607 L 284.614,367.767 L 284.593,374.136 L 288.629,375.754 L 288.543,443.063 L 284.485,444.79 L 284.441,451.159 L 289.595,453.484 C 289.595,454.425 289.595,455.141 289.595,456.085 C 289.595,456.373 288.886,456.572 288.886,456.86 C 288.886,461.441 288.967,465.767 288.967,470.271 C 288.967,471.029 290.162,473.177 291.134,473.091 L 292.654,473.042 L 299.428,470.509 L 337.947,470.441 L 344.028,472.945 L 345.555,473.004 C 346.683,472.748 347.644,471.45 347.664,469.96 C 347.724,465.205 347.913,460.805 347.794,456.387 C 347.785,456.043 347.364,455.944 347.222,455.654 C 347.213,455.633 347.266,453.874 347.266,453.106 L 352.405,450.896 L 352.405,444.582 L 348.466,442.721 L 348.296,375.474 L 352.397,373.855 L 352.397,367.789 L 346.982,365.466 L 347.009,363.038 L 347.857,361.526 L 347.818,350.706 C 347.723,349.878 347.221,349.177 346.334,348.925 L 290.696,348.974 Z" fill="#1890f9" stroke-linejoin="miter" stroke-width="0.179" stroke="none" marker-start="none" marker-end="none" stroke-miterlimit="79.8403193612775"/>
     <path d="M 302.394,431.648 L 302.394,428.41 L 334.883,428.41 L 334.883,431.648 L 302.394,431.648 Z" stroke="none" fill="#ff8200" stroke-width="0.179" marker-start="none" marker-end="none" stroke-miterlimit="79.8403193612775"/>
     <g id="Group_4" stroke="#ffffff" stroke-width="0.179" fill="#ffffff" stroke-miterlimit="79.8403193612775">
      <path d="M 286.753,372.232 L 286.753,369.833 C 286.753,369.53 287,369.284 287.303,369.284 L 287.714,369.284 C 288.017,369.284 288.263,369.53 288.263,369.833 L 288.263,372.232 C 288.263,372.535 288.017,372.781 287.714,372.781 L 287.303,372.781 C 287,372.781 286.753,372.535 286.753,372.232 Z" marker-start="none" marker-end="none"/>
      <path d="M 348.818,372.232 L 348.818,369.833 C 348.818,369.53 349.065,369.284 349.368,369.284 L 349.779,369.284 C 350.082,369.284 350.328,369.53 350.328,369.833 L 350.328,372.232 C 350.328,372.535 350.082,372.781 349.779,372.781 L 349.368,372.781 C 349.065,372.781 348.818,372.535 348.818,372.232 Z" marker-start="none" marker-end="none"/>
     </g>
     <g id="Group_5" stroke="#ffffff" stroke-width="0.179" fill="#ffffff" stroke-miterlimit="79.8403193612775">
      <path d="M 286.754,449.364 L 286.754,446.965 C 286.754,446.662 287.001,446.416 287.304,446.416 L 287.715,446.416 C 288.018,446.416 288.264,446.662 288.264,446.965 L 288.264,449.364 C 288.264,449.667 288.018,449.913 287.715,449.913 L 287.304,449.913 C 287.001,449.913 286.754,449.667 286.754,449.364 Z" marker-start="none" marker-end="none"/>
      <path d="M 348.82,449.364 L 348.82,446.965 C 348.82,446.662 349.067,446.416 349.37,446.416 L 349.781,446.416 C 350.084,446.416 350.33,446.662 350.33,446.965 L 350.33,449.364 C 350.33,449.667 350.084,449.913 349.781,449.913 L 349.37,449.913 C 349.067,449.913 348.82,449.667 348.82,449.364 Z" marker-start="none" marker-end="none"/>
     </g>
     <path d="M 337.631,460.973 L 337.645,358.589" fill="none" stroke="#1a86e4" stroke-width="0.718" stroke-miterlimit="79.8403193612775"/>
     <path d="M 299.531,460.809 L 299.545,358.425" fill="none" stroke="#1a86e4" stroke-width="0.718" stroke-miterlimit="79.8403193612775"/>
     <path d="M 337.325,470.382 L 337.317,460.932 L 299.659,460.915" fill="none" stroke="#1e87e2" stroke-width="0.718" stroke-miterlimit="79.8403193612775"/>
     <path d="M 299.792,470.279 L 299.784,460.829" fill="none" stroke="#1e87e2" stroke-width="0.718" stroke-miterlimit="79.8403193612775"/>
     <path d="M 337.384,358.768 L 337.376,349.318" fill="none" stroke="#177ed9" stroke-width="0.718" stroke-miterlimit="79.8403193612775"/>
     <path d="M 300.112,358.668 L 300.104,349.218" fill="none" stroke="#177ed9" stroke-width="0.718" stroke-miterlimit="79.8403193612775"/>
     <path d="M 337.334,460.915 C 342.295,463.316 346.542,465.564 347.449,460.642" fill="none" stroke="#1e87e2" stroke-width="0.718" stroke-miterlimit="79.8403193612775"/>
     <path d="M 289.296,461.194 C 290.783,463.861 290.825,465.11 299.475,460.892" fill="none" stroke="#1e87e2" stroke-width="0.718" stroke-miterlimit="79.8403193612775"/>
     <path d="M 315.347,364.283 L 313.58,351.054 C 313.58,350.867 313.732,350.715 313.919,350.715 L 323.687,350.715 C 323.874,350.715 324.026,350.867 324.026,351.054 L 321.936,364.635 C 321.849,365.082 321.835,365.152 321.226,365.148 L 316.081,365.159 C 315.65,365.143 315.427,365.126 315.347,364.283 Z" stroke="#7f7f7f" fill="#4c4c4c" stroke-width="0.179" marker-start="none" marker-end="none" stroke-miterlimit="79.8403193612775"/>
     <path d="M 318.646,359.642 C 319.122,359.642 319.509,359.248 319.509,358.765 C 319.509,358.281 319.122,357.887 318.646,357.887 C 318.169,357.887 317.782,358.281 317.782,358.765 C 317.782,359.248 318.169,359.642 318.646,359.642 Z" fill="#bfbd00" stroke="none" stroke-width="0.179" marker-start="none" marker-end="none" stroke-miterlimit="79.8403193612775"/>
     <path d="M 318.646,355.472 C 319.122,355.472 319.509,355.078 319.509,354.595 C 319.509,354.111 319.122,353.717 318.646,353.717 C 318.169,353.717 317.782,354.111 317.782,354.595 C 317.782,355.078 318.169,355.472 318.646,355.472 Z" fill="#bf0000" stroke="none" stroke-width="0.179" marker-start="none" marker-end="none" stroke-miterlimit="79.8403193612775"/>
     <path d="M 318.646,364.054 C 319.122,364.054 319.509,363.66 319.509,363.177 C 319.509,362.693 319.122,362.299 318.646,362.299 C 318.169,362.299 317.782,362.693 317.782,363.177 C 317.782,363.66 318.169,364.054 318.646,364.054 Z" fill="#00bf02" stroke="none" stroke-width="0.179" marker-start="none" marker-end="none" stroke-miterlimit="79.8403193612775"/>
     <g id="Group_6" fill-rule="nonzero" stroke="#ffffff" stroke-width="0.071" fill="#ffffff" stroke-miterlimit="79.8403193612775">
      <g id="Group_7">
       <path d="M 319.159,437.106 L 319.159,439.162 L 319.566,439.162 L 320.049,437.706 C 320.094,437.57 320.127,437.469 320.147,437.401 C 320.17,437.476 320.206,437.586 320.256,437.731 L 320.745,439.162 L 321.108,439.162 L 321.108,437.106 L 320.848,437.106 L 320.848,438.827 L 320.254,437.106 L 320.01,437.106 L 319.42,438.856 L 319.42,437.106 L 319.159,437.106 Z" marker-start="none" marker-end="none"/>
       <path d="M 322.482,437.106 L 322.482,437.324 C 322.367,437.156 322.211,437.072 322.013,437.072 C 321.925,437.072 321.844,437.089 321.768,437.122 C 321.693,437.156 321.636,437.198 321.6,437.249 C 321.563,437.3 321.537,437.363 321.522,437.437 C 321.512,437.486 321.507,437.565 321.507,437.672 L 321.507,438.595 L 321.758,438.595 L 321.758,437.769 C 321.758,437.637 321.763,437.548 321.773,437.502 C 321.789,437.436 321.822,437.384 321.873,437.346 C 321.924,437.308 321.988,437.289 322.063,437.289 C 322.138,437.289 322.209,437.309 322.275,437.347 C 322.341,437.386 322.387,437.439 322.415,437.506 C 322.442,437.573 322.456,437.67 322.456,437.797 L 322.456,438.595 L 322.706,438.595 L 322.706,437.106 L 322.482,437.106 Z" marker-start="none" marker-end="none"/>
       <path d="M 323.094,437.106 L 323.094,439.162 L 323.345,439.162 L 323.345,437.106 L 323.094,437.106 Z" marker-start="none" marker-end="none"/>
       <path d="M 324.281,437.331 L 324.317,437.108 C 324.247,437.093 324.184,437.086 324.128,437.086 C 324.037,437.086 323.966,437.1 323.916,437.129 C 323.866,437.158 323.831,437.196 323.81,437.244 C 323.79,437.291 323.78,437.39 323.78,437.542 L 323.78,438.399 L 323.596,438.399 L 323.596,438.595 L 323.78,438.595 L 323.78,438.964 L 324.029,439.116 L 324.029,438.595 L 324.281,438.595 L 324.281,438.399 L 324.029,438.399 L 324.029,437.528 C 324.029,437.456 324.033,437.409 324.042,437.389 C 324.051,437.368 324.065,437.352 324.085,437.34 C 324.105,437.328 324.134,437.322 324.171,437.322 C 324.199,437.322 324.236,437.325 324.281,437.331 Z" marker-start="none" marker-end="none"/>
       <path d="M 324.528,438.872 L 324.528,439.162 L 324.779,439.162 L 324.779,438.872 L 324.528,438.872 Z M 324.528,437.106 L 324.528,438.595 L 324.779,438.595 L 324.779,437.106 L 324.528,437.106 Z" marker-start="none" marker-end="none"/>
       <path d="M 325.193,437.106 L 325.193,439.162 L 325.963,439.162 C 326.099,439.162 326.202,439.155 326.274,439.142 C 326.374,439.126 326.458,439.093 326.526,439.046 C 326.594,438.999 326.648,438.933 326.69,438.848 C 326.731,438.763 326.752,438.669 326.752,438.567 C 326.752,438.392 326.696,438.244 326.586,438.123 C 326.475,438.002 326.276,437.942 325.987,437.942 L 325.463,437.942 L 325.463,437.106 L 325.193,437.106 Z M 325.463,438.184 L 325.991,438.184 C 326.165,438.184 326.289,438.217 326.363,438.282 C 326.436,438.348 326.473,438.44 326.473,438.559 C 326.473,438.645 326.451,438.718 326.408,438.78 C 326.365,438.841 326.308,438.881 326.237,438.901 C 326.192,438.913 326.108,438.919 325.985,438.919 L 325.463,438.919 L 325.463,438.184 Z" marker-start="none" marker-end="none"/>
       <path d="M 327.058,437.106 L 327.058,439.162 L 327.309,439.162 L 327.309,437.106 L 327.058,437.106 Z" marker-start="none" marker-end="none"/>
       <path d="M 328.667,437.106 L 328.667,437.324 C 328.552,437.156 328.396,437.072 328.198,437.072 C 328.11,437.072 328.029,437.089 327.953,437.122 C 327.878,437.156 327.821,437.198 327.785,437.249 C 327.748,437.3 327.722,437.363 327.707,437.437 C 327.697,437.486 327.692,437.565 327.692,437.672 L 327.692,438.595 L 327.943,438.595 L 327.943,437.769 C 327.943,437.637 327.948,437.548 327.958,437.502 C 327.974,437.436 328.007,437.384 328.058,437.346 C 328.109,437.308 328.173,437.289 328.248,437.289 C 328.323,437.289 328.394,437.309 328.46,437.347 C 328.526,437.386 328.572,437.439 328.6,437.506 C 328.627,437.573 328.641,437.67 328.641,437.797 L 328.641,438.595 L 328.891,438.595 L 328.891,437.106 L 328.667,437.106 Z" marker-start="none" marker-end="none"/>
       <path d="M 329.184,437.55 L 329.432,437.589 C 329.446,437.489 329.485,437.413 329.549,437.359 C 329.612,437.306 329.701,437.279 329.815,437.279 C 329.931,437.279 330.016,437.303 330.072,437.35 C 330.127,437.398 330.155,437.453 330.155,437.517 C 330.155,437.574 330.131,437.618 330.081,437.651 C 330.047,437.674 329.962,437.702 329.825,437.737 C 329.641,437.784 329.514,437.824 329.443,437.858 C 329.372,437.892 329.318,437.939 329.281,438 C 329.244,438.06 329.226,438.127 329.226,438.2 C 329.226,438.266 329.241,438.328 329.271,438.384 C 329.302,438.441 329.343,438.488 329.395,438.525 C 329.434,438.554 329.487,438.579 329.554,438.599 C 329.621,438.619 329.694,438.629 329.771,438.629 C 329.887,438.629 329.989,438.612 330.077,438.578 C 330.164,438.545 330.229,438.499 330.271,438.442 C 330.313,438.384 330.342,438.307 330.357,438.211 L 330.112,438.177 C 330.101,438.254 330.069,438.314 330.015,438.357 C 329.962,438.4 329.886,438.421 329.789,438.421 C 329.674,438.421 329.592,438.402 329.542,438.364 C 329.493,438.325 329.468,438.281 329.468,438.229 C 329.468,438.196 329.479,438.167 329.499,438.141 C 329.52,438.114 329.552,438.091 329.595,438.073 C 329.62,438.064 329.694,438.043 329.817,438.009 C 329.994,437.961 330.118,437.922 330.188,437.892 C 330.258,437.861 330.313,437.817 330.353,437.759 C 330.393,437.701 330.413,437.629 330.413,437.543 C 330.413,437.459 330.389,437.38 330.34,437.305 C 330.291,437.231 330.221,437.174 330.129,437.133 C 330.037,437.092 329.933,437.072 329.817,437.072 C 329.625,437.072 329.478,437.112 329.377,437.192 C 329.276,437.273 329.212,437.392 329.184,437.55 Z" marker-start="none" marker-end="none"/>
      </g>
     </g>
     <g id="Group_8" fill-rule="nonzero" stroke="#ffffff" stroke-width="0.085" fill="#ffffff" stroke-miterlimit="79.8403193612775">
      <g id="Group_9">
       <path d="M 319.096,436.117 L 319.52,436.117 L 319.52,434.108 L 319.306,434.108 L 319.306,435.92 L 318.967,435.92 L 319.096,436.117 Z" marker-start="none" marker-end="none"/>
       <path d="M 320.554,435.487 L 320.347,435.487 C 320.353,435.685 320.425,435.848 320.561,435.976 C 320.698,436.103 320.866,436.167 321.067,436.167 C 321.266,436.167 321.426,436.107 321.549,435.988 C 321.672,435.869 321.733,435.728 321.733,435.566 C 321.733,435.452 321.704,435.346 321.645,435.246 C 321.587,435.146 321.473,435.011 321.303,434.841 L 320.766,434.301 L 321.763,434.301 L 321.763,434.108 L 320.296,434.108 L 321.121,434.937 C 321.289,435.103 321.397,435.227 321.448,435.307 C 321.498,435.388 321.524,435.473 321.524,435.562 C 321.524,435.675 321.478,435.772 321.388,435.854 C 321.297,435.935 321.186,435.976 321.055,435.976 C 320.917,435.976 320.802,435.933 320.711,435.848 C 320.619,435.762 320.567,435.642 320.554,435.487 Z" marker-start="none" marker-end="none"/>
       <path d="M 322.778,436.167 L 322.988,436.167 L 322.988,433.564 L 322.778,433.564 L 322.778,436.167 Z" marker-start="none" marker-end="none"/>
       <path d="M 325.05,435.21 C 325.196,435.142 325.3,435.065 325.363,434.979 C 325.427,434.892 325.458,434.794 325.458,434.684 C 325.458,434.529 325.404,434.392 325.295,434.274 C 325.162,434.129 324.972,434.057 324.724,434.057 C 324.485,434.057 324.304,434.12 324.181,434.248 C 324.057,434.375 323.996,434.515 323.996,434.667 C 323.996,434.779 324.028,434.88 324.093,434.97 C 324.157,435.06 324.265,435.14 324.416,435.21 C 324.31,435.261 324.231,435.324 324.178,435.4 C 324.125,435.475 324.099,435.556 324.099,435.643 C 324.099,435.73 324.127,435.815 324.183,435.899 C 324.239,435.982 324.317,436.048 324.416,436.095 C 324.516,436.143 324.623,436.167 324.739,436.167 C 324.851,436.167 324.956,436.143 325.051,436.095 C 325.147,436.046 325.223,435.981 325.277,435.898 C 325.331,435.815 325.358,435.728 325.358,435.637 C 325.358,435.546 325.333,435.465 325.281,435.394 C 325.23,435.323 325.153,435.262 325.05,435.21 Z M 324.728,435.972 C 324.61,435.972 324.512,435.939 324.434,435.874 C 324.356,435.809 324.317,435.731 324.317,435.641 C 324.317,435.552 324.359,435.471 324.443,435.399 C 324.527,435.326 324.624,435.29 324.736,435.29 C 324.807,435.29 324.875,435.307 324.938,435.339 C 325.002,435.372 325.052,435.417 325.087,435.474 C 325.123,435.531 325.141,435.588 325.141,435.645 C 325.141,435.726 325.106,435.801 325.035,435.869 C 324.965,435.938 324.863,435.972 324.728,435.972 Z M 324.739,435.109 C 324.59,435.109 324.465,435.064 324.364,434.974 C 324.264,434.884 324.213,434.78 324.213,434.661 C 324.213,434.587 324.235,434.517 324.278,434.452 C 324.321,434.386 324.381,434.336 324.458,434.3 C 324.536,434.265 324.625,434.247 324.727,434.247 C 324.885,434.247 325.01,434.29 325.103,434.377 C 325.196,434.463 325.242,434.564 325.242,434.68 C 325.242,434.792 325.193,434.891 325.095,434.978 C 324.996,435.065 324.878,435.109 324.739,435.109 Z" marker-start="none" marker-end="none"/>
       <path d="M 325.657,435.111 C 325.657,435.376 325.687,435.581 325.749,435.726 C 325.81,435.871 325.896,435.98 326.008,436.055 C 326.119,436.13 326.244,436.167 326.382,436.167 C 326.522,436.167 326.649,436.13 326.763,436.054 C 326.876,435.979 326.966,435.867 327.032,435.716 C 327.098,435.566 327.131,435.364 327.131,435.111 C 327.131,434.859 327.099,434.658 327.033,434.509 C 326.968,434.36 326.879,434.247 326.764,434.171 C 326.649,434.095 326.522,434.057 326.382,434.057 C 326.244,434.057 326.12,434.094 326.009,434.168 C 325.899,434.241 325.812,434.351 325.75,434.497 C 325.688,434.644 325.657,434.848 325.657,435.111 Z M 325.861,435.107 C 325.861,434.881 325.883,434.709 325.926,434.593 C 325.97,434.477 326.034,434.389 326.119,434.329 C 326.205,434.269 326.295,434.239 326.39,434.239 C 326.486,434.239 326.575,434.268 326.658,434.327 C 326.741,434.385 326.805,434.473 326.848,434.591 C 326.902,434.734 326.928,434.906 326.928,435.107 C 326.928,435.309 326.904,435.475 326.856,435.604 C 326.809,435.733 326.742,435.827 326.658,435.886 C 326.573,435.946 326.484,435.976 326.39,435.976 C 326.294,435.976 326.204,435.946 326.119,435.886 C 326.035,435.827 325.971,435.739 325.927,435.623 C 325.883,435.507 325.861,435.335 325.861,435.107 Z" marker-start="none" marker-end="none"/>
       <path d="M 327.324,435.111 C 327.324,435.376 327.354,435.581 327.416,435.726 C 327.477,435.871 327.563,435.98 327.675,436.055 C 327.786,436.13 327.911,436.167 328.049,436.167 C 328.189,436.167 328.316,436.13 328.43,436.054 C 328.543,435.979 328.633,435.867 328.699,435.716 C 328.765,435.566 328.798,435.364 328.798,435.111 C 328.798,434.859 328.766,434.658 328.7,434.509 C 328.635,434.36 328.546,434.247 328.431,434.171 C 328.316,434.095 328.189,434.057 328.049,434.057 C 327.911,434.057 327.787,434.094 327.676,434.168 C 327.566,434.241 327.479,434.351 327.417,434.497 C 327.355,434.644 327.324,434.848 327.324,435.111 Z M 327.528,435.107 C 327.528,434.881 327.55,434.709 327.593,434.593 C 327.637,434.477 327.701,434.389 327.786,434.329 C 327.872,434.269 327.962,434.239 328.057,434.239 C 328.153,434.239 328.242,434.268 328.325,434.327 C 328.408,434.385 328.472,434.473 328.515,434.591 C 328.569,434.734 328.595,434.906 328.595,435.107 C 328.595,435.309 328.571,435.475 328.523,435.604 C 328.476,435.733 328.409,435.827 328.325,435.886 C 328.24,435.946 328.151,435.976 328.057,435.976 C 327.961,435.976 327.871,435.946 327.786,435.886 C 327.702,435.827 327.638,435.739 327.594,435.623 C 327.55,435.507 327.528,435.335 327.528,435.107 Z" marker-start="none" marker-end="none"/>
       <path d="M 329.8,436.167 L 330.01,436.167 L 330.01,433.564 L 329.8,433.564 L 329.8,436.167 Z" marker-start="none" marker-end="none"/>
       <path d="M 331.314,435.651 L 331.094,435.651 C 331.134,435.817 331.211,435.944 331.325,436.033 C 331.438,436.122 331.572,436.167 331.727,436.167 C 331.84,436.167 331.945,436.143 332.042,436.095 C 332.139,436.048 332.215,435.983 332.268,435.902 C 332.321,435.821 332.348,435.736 332.348,435.648 C 332.348,435.475 332.256,435.338 332.071,435.237 C 332.174,435.198 332.259,435.14 332.326,435.065 C 332.42,434.958 332.467,434.839 332.467,434.707 C 332.467,434.593 332.435,434.485 332.37,434.381 C 332.305,434.278 332.217,434.198 332.106,434.142 C 331.994,434.085 331.869,434.057 331.731,434.057 C 331.545,434.057 331.39,434.107 331.266,434.207 C 331.142,434.306 331.06,434.453 331.022,434.646 L 331.234,434.646 C 331.271,434.515 331.324,434.421 331.394,434.363 C 331.483,434.289 331.596,434.252 331.734,434.252 C 331.891,434.252 332.017,434.296 332.112,434.383 C 332.207,434.471 332.254,434.573 332.254,434.691 C 332.254,434.769 332.23,434.842 332.183,434.911 C 332.135,434.979 332.072,435.03 331.992,435.065 C 331.912,435.1 331.789,435.121 331.621,435.129 L 331.621,435.313 C 331.72,435.313 331.81,435.33 331.891,435.362 C 331.973,435.394 332.032,435.435 332.068,435.486 C 332.105,435.536 332.123,435.59 332.123,435.649 C 332.123,435.737 332.086,435.812 332.011,435.876 C 331.936,435.94 331.842,435.972 331.727,435.972 C 331.634,435.972 331.554,435.947 331.486,435.899 C 331.419,435.85 331.361,435.767 331.314,435.651 Z" marker-start="none" marker-end="none"/>
       <path d="M 334.062,436.117 L 334.062,435.925 L 333.293,435.925 L 333.185,435.378 C 333.279,435.403 333.364,435.416 333.439,435.416 C 333.636,435.416 333.798,435.355 333.926,435.232 C 334.054,435.11 334.118,434.953 334.118,434.762 C 334.118,434.63 334.085,434.509 334.019,434.398 C 333.954,434.288 333.865,434.204 333.753,434.145 C 333.641,434.086 333.511,434.057 333.365,434.057 C 333.189,434.057 333.042,434.107 332.921,434.207 C 332.801,434.306 332.729,434.435 332.705,434.594 L 332.927,434.594 C 332.944,434.516 332.972,434.454 333.011,434.405 C 333.051,434.357 333.104,434.318 333.17,434.288 C 333.236,434.259 333.305,434.244 333.378,434.244 C 333.52,434.244 333.642,434.294 333.743,434.394 C 333.845,434.494 333.896,434.62 333.896,434.77 C 333.896,434.906 333.85,435.016 333.758,435.1 C 333.666,435.185 333.543,435.227 333.39,435.227 C 333.262,435.227 333.108,435.192 332.927,435.12 L 333.127,436.117 L 334.062,436.117 Z" marker-start="none" marker-end="none"/>
      </g>
     </g>
     <g id="Group_10" fill-rule="nonzero" stroke-width="0.046" fill="#ffffff" stroke-miterlimit="79.8403193612775">
      <g id="Group_11">
       <path d="M 331.231,426.284 L 331.231,427.646 L 331.506,427.646 L 331.506,426.284 L 331.231,426.284 Z" stroke="none" marker-start="none" marker-end="none"/>
       <path d="M 331.768,426.284 L 331.768,427.646 L 332.21,427.646 C 332.377,427.646 332.486,427.64 332.537,427.626 C 332.615,427.605 332.68,427.561 332.733,427.493 C 332.786,427.424 332.812,427.336 332.812,427.227 C 332.812,427.143 332.797,427.073 332.766,427.016 C 332.736,426.959 332.698,426.914 332.651,426.882 C 332.604,426.849 332.556,426.828 332.508,426.817 C 332.442,426.804 332.347,426.798 332.223,426.798 L 332.043,426.798 L 332.043,426.284 L 331.768,426.284 Z M 332.043,427.416 L 332.043,427.029 L 332.194,427.029 C 332.302,427.029 332.375,427.036 332.411,427.05 C 332.448,427.065 332.477,427.087 332.497,427.117 C 332.518,427.148 332.528,427.183 332.528,427.223 C 332.528,427.273 332.514,427.314 332.485,427.346 C 332.456,427.378 332.419,427.398 332.374,427.407 C 332.341,427.413 332.275,427.416 332.176,427.416 L 332.043,427.416 Z" stroke="none" marker-start="none" marker-end="none"/>
       <path d="M 333.231,427.21 L 332.978,427.21 C 332.984,427.358 333.031,427.474 333.117,427.559 C 333.202,427.643 333.313,427.685 333.447,427.685 C 333.53,427.685 333.603,427.668 333.667,427.633 C 333.73,427.598 333.781,427.547 333.819,427.481 C 333.858,427.415 333.877,427.348 333.877,427.28 C 333.877,427.199 333.853,427.112 333.807,427.018 C 333.761,426.924 333.677,426.814 333.554,426.686 L 333.401,426.524 L 333.888,426.524 L 333.888,426.284 L 332.94,426.284 L 332.94,426.408 L 333.363,426.839 C 333.466,426.943 333.534,427.026 333.567,427.089 C 333.601,427.152 333.618,427.209 333.618,427.26 C 333.618,427.312 333.601,427.356 333.566,427.39 C 333.531,427.425 333.485,427.442 333.43,427.442 C 333.375,427.442 333.328,427.421 333.291,427.38 C 333.254,427.338 333.234,427.282 333.231,427.21 Z" stroke="#ffffff" marker-start="none" marker-end="none"/>
       <path d="M 334.279,427.651 L 334.668,427.651 L 334.668,426.284 L 334.41,426.284 L 334.41,427.407 L 334.128,427.407 L 334.279,427.651 Z" stroke="#ffffff" marker-start="none" marker-end="none"/>
      </g>
     </g>
     <g id="Group_12" fill-rule="nonzero" stroke="none" stroke-width="0.034" fill="#ffffff" stroke-miterlimit="79.8403193612775">
      <g id="Group_13">
       <path d="M 316.244,361.583 L 316.435,361.583 L 316.435,360.575 L 316.244,360.575 L 316.244,361.583 Z" marker-start="none" marker-end="none"/>
       <path d="M 316.63,361.32 L 316.817,361.32 L 316.817,361.244 C 316.859,361.28 316.898,361.305 316.932,361.319 C 316.967,361.333 317.002,361.34 317.038,361.34 C 317.112,361.34 317.175,361.314 317.227,361.262 C 317.27,361.218 317.292,361.153 317.292,361.067 L 317.292,360.575 L 317.107,360.575 L 317.107,360.902 C 317.107,360.991 317.103,361.05 317.095,361.079 C 317.087,361.108 317.073,361.131 317.053,361.146 C 317.033,361.161 317.008,361.169 316.979,361.169 C 316.941,361.169 316.909,361.156 316.881,361.131 C 316.854,361.105 316.835,361.07 316.825,361.026 C 316.819,361.002 316.817,360.952 316.817,360.874 L 316.817,360.575 L 316.63,360.575 L 316.63,361.32 Z" marker-start="none" marker-end="none"/>
       <path d="M 317.393,361.32 L 317.583,361.32 L 317.772,360.88 L 317.96,361.32 L 318.15,361.32 L 317.832,360.575 L 317.711,360.575 L 317.393,361.32 Z" marker-start="none" marker-end="none"/>
       <path d="M 319.007,360.893 L 318.406,360.893 C 318.415,360.84 318.438,360.798 318.476,360.767 C 318.513,360.735 318.562,360.72 318.62,360.72 C 318.69,360.72 318.75,360.744 318.8,360.793 L 318.958,360.719 C 318.919,360.663 318.872,360.622 318.817,360.595 C 318.762,360.569 318.697,360.555 318.621,360.555 C 318.504,360.555 318.409,360.592 318.336,360.666 C 318.262,360.74 318.225,360.832 318.225,360.943 C 318.225,361.057 318.262,361.152 318.335,361.227 C 318.409,361.302 318.501,361.34 318.611,361.34 C 318.729,361.34 318.824,361.302 318.898,361.227 C 318.971,361.152 319.008,361.052 319.008,360.929 L 319.007,360.893 Z M 318.82,361.041 C 318.807,361.082 318.783,361.116 318.747,361.142 C 318.71,361.168 318.668,361.181 318.62,361.181 C 318.568,361.181 318.522,361.167 318.483,361.137 C 318.458,361.119 318.435,361.087 318.414,361.041 L 318.82,361.041 Z" marker-start="none" marker-end="none"/>
       <path d="M 319.115,361.32 L 319.276,361.32 L 319.276,361.226 C 319.293,361.264 319.316,361.292 319.345,361.311 C 319.374,361.33 319.405,361.34 319.439,361.34 C 319.464,361.34 319.489,361.333 319.516,361.32 L 319.457,361.159 C 319.435,361.17 319.417,361.176 319.403,361.176 C 319.374,361.176 319.35,361.158 319.33,361.122 C 319.31,361.087 319.3,361.017 319.3,360.912 L 319.301,360.876 L 319.301,360.575 L 319.115,360.575 L 319.115,361.32 Z" marker-start="none" marker-end="none"/>
       <path d="M 319.631,361.595 L 319.817,361.595 L 319.817,361.32 L 319.928,361.32 L 319.928,361.159 L 319.817,361.159 L 319.817,360.575 L 319.631,360.575 L 319.631,361.159 L 319.535,361.159 L 319.535,361.32 L 319.631,361.32 L 319.631,361.595 Z" marker-start="none" marker-end="none"/>
       <path d="M 320.776,360.893 L 320.175,360.893 C 320.184,360.84 320.207,360.798 320.245,360.767 C 320.282,360.735 320.331,360.72 320.389,360.72 C 320.459,360.72 320.519,360.744 320.569,360.793 L 320.727,360.719 C 320.688,360.663 320.641,360.622 320.586,360.595 C 320.531,360.569 320.466,360.555 320.39,360.555 C 320.273,360.555 320.178,360.592 320.105,360.666 C 320.031,360.74 319.994,360.832 319.994,360.943 C 319.994,361.057 320.031,361.152 320.104,361.227 C 320.178,361.302 320.27,361.34 320.38,361.34 C 320.498,361.34 320.593,361.302 320.667,361.227 C 320.74,361.152 320.777,361.052 320.777,360.929 L 320.776,360.893 Z M 320.589,361.041 C 320.576,361.082 320.552,361.116 320.516,361.142 C 320.479,361.168 320.437,361.181 320.389,361.181 C 320.337,361.181 320.291,361.167 320.252,361.137 C 320.227,361.119 320.204,361.087 320.183,361.041 L 320.589,361.041 Z" marker-start="none" marker-end="none"/>
       <path d="M 320.884,361.32 L 321.045,361.32 L 321.045,361.226 C 321.062,361.264 321.085,361.292 321.114,361.311 C 321.143,361.33 321.174,361.34 321.208,361.34 C 321.233,361.34 321.258,361.333 321.285,361.32 L 321.226,361.159 C 321.204,361.17 321.186,361.176 321.172,361.176 C 321.143,361.176 321.119,361.158 321.099,361.122 C 321.079,361.087 321.069,361.017 321.069,360.912 L 321.07,360.876 L 321.07,360.575 L 320.884,360.575 L 320.884,361.32 Z" marker-start="none" marker-end="none"/>
      </g>
     </g>
     <g id="Group_14" fill-rule="nonzero" stroke="none" stroke-width="0.034" fill="#ffffff" stroke-miterlimit="79.8403193612775">
      <g id="Group_15">
       <path d="M 316.978,357.151 L 316.843,357.023 C 316.752,357.12 316.649,357.168 316.535,357.168 C 316.438,357.168 316.357,357.135 316.291,357.069 C 316.225,357.003 316.192,356.922 316.192,356.826 C 316.192,356.759 316.207,356.699 316.236,356.647 C 316.265,356.595 316.306,356.554 316.36,356.524 C 316.413,356.494 316.473,356.48 316.538,356.48 C 316.594,356.48 316.645,356.49 316.691,356.511 C 316.737,356.532 316.788,356.569 316.843,356.624 L 316.973,356.488 C 316.899,356.416 316.829,356.365 316.762,356.337 C 316.696,356.309 316.62,356.295 316.535,356.295 C 316.379,356.295 316.25,356.345 316.15,356.444 C 316.051,356.544 316.001,356.671 316.001,356.826 C 316.001,356.927 316.023,357.016 316.069,357.095 C 316.114,357.173 316.179,357.236 316.264,357.283 C 316.349,357.331 316.44,357.354 316.538,357.354 C 316.621,357.354 316.701,357.337 316.778,357.302 C 316.855,357.266 316.922,357.216 316.978,357.151 Z" marker-start="none" marker-end="none"/>
       <path d="M 317.127,357.354 L 317.313,357.354 L 317.313,356.991 C 317.349,357.023 317.386,357.046 317.423,357.062 C 317.46,357.078 317.497,357.086 317.535,357.086 C 317.609,357.086 317.672,357.06 317.723,357.009 C 317.766,356.964 317.788,356.899 317.788,356.813 L 317.788,356.321 L 317.603,356.321 L 317.603,356.648 C 317.603,356.734 317.599,356.792 317.591,356.823 C 317.583,356.854 317.569,356.877 317.549,356.892 C 317.529,356.907 317.504,356.914 317.475,356.914 C 317.437,356.914 317.405,356.902 317.377,356.877 C 317.35,356.851 317.331,356.817 317.321,356.774 C 317.315,356.751 317.313,356.7 317.313,356.62 L 317.313,356.321 L 317.127,356.321 L 317.127,357.354 Z" marker-start="none" marker-end="none"/>
       <path d="M 318.52,357.066 L 318.707,357.066 L 318.707,356.321 L 318.52,356.321 L 318.52,356.399 C 318.484,356.365 318.447,356.34 318.41,356.324 C 318.373,356.309 318.334,356.301 318.291,356.301 C 318.194,356.301 318.111,356.339 318.04,356.413 C 317.97,356.488 317.935,356.581 317.935,356.692 C 317.935,356.807 317.969,356.902 318.037,356.975 C 318.105,357.049 318.188,357.086 318.285,357.086 C 318.33,357.086 318.372,357.077 318.411,357.06 C 318.451,357.043 318.487,357.018 318.52,356.984 L 318.52,357.066 Z M 318.324,356.913 C 318.266,356.913 318.217,356.892 318.179,356.851 C 318.141,356.811 318.121,356.758 318.121,356.694 C 318.121,356.63 318.141,356.577 318.18,356.535 C 318.219,356.493 318.267,356.473 318.324,356.473 C 318.383,356.473 318.432,356.493 318.471,356.534 C 318.51,356.575 318.529,356.629 318.529,356.695 C 318.529,356.76 318.51,356.812 318.471,356.852 C 318.432,356.893 318.383,356.913 318.324,356.913 Z" marker-start="none" marker-end="none"/>
       <path d="M 318.853,357.066 L 319.014,357.066 L 319.014,356.972 C 319.031,357.01 319.054,357.038 319.083,357.057 C 319.112,357.076 319.143,357.086 319.177,357.086 C 319.202,357.086 319.227,357.079 319.254,357.066 L 319.195,356.905 C 319.173,356.916 319.155,356.922 319.141,356.922 C 319.112,356.922 319.088,356.904 319.068,356.868 C 319.048,356.833 319.038,356.763 319.038,356.658 L 319.039,356.622 L 319.039,356.321 L 318.853,356.321 L 318.853,357.066 Z" marker-start="none" marker-end="none"/>
       <path d="M 319.897,357.066 L 320.084,357.066 L 320.084,356.427 C 320.084,356.301 320.058,356.209 320.008,356.149 C 319.94,356.069 319.837,356.028 319.7,356.028 C 319.627,356.028 319.565,356.038 319.515,356.056 C 319.466,356.074 319.424,356.101 319.389,356.136 C 319.355,356.172 319.33,356.215 319.313,356.266 L 319.52,356.266 C 319.538,356.245 319.561,356.229 319.59,356.218 C 319.619,356.207 319.653,356.202 319.692,356.202 C 319.743,356.202 319.783,356.21 319.814,356.225 C 319.844,356.241 319.866,356.261 319.878,356.286 C 319.891,356.31 319.897,356.353 319.897,356.413 C 319.864,356.38 319.83,356.356 319.794,356.342 C 319.758,356.328 319.717,356.321 319.671,356.321 C 319.571,356.321 319.486,356.357 319.417,356.429 C 319.348,356.501 319.314,356.592 319.314,356.703 C 319.314,356.821 319.35,356.916 319.424,356.988 C 319.49,357.053 319.569,357.086 319.661,357.086 C 319.704,357.086 319.744,357.078 319.782,357.062 C 319.821,357.046 319.859,357.02 319.897,356.984 L 319.897,357.066 Z M 319.703,356.911 C 319.644,356.911 319.596,356.891 319.557,356.851 C 319.519,356.812 319.5,356.762 319.5,356.702 C 319.5,356.64 319.519,356.589 319.559,356.549 C 319.598,356.51 319.647,356.49 319.707,356.49 C 319.765,356.49 319.813,356.509 319.85,356.548 C 319.888,356.587 319.907,356.638 319.907,356.701 C 319.907,356.763 319.888,356.814 319.85,356.852 C 319.812,356.891 319.763,356.911 319.703,356.911 Z" marker-start="none" marker-end="none"/>
       <path d="M 321.021,356.639 L 320.42,356.639 C 320.429,356.586 320.452,356.544 320.49,356.513 C 320.527,356.481 320.576,356.466 320.634,356.466 C 320.704,356.466 320.764,356.49 320.814,356.539 L 320.972,356.465 C 320.933,356.409 320.886,356.368 320.831,356.341 C 320.776,356.315 320.711,356.301 320.635,356.301 C 320.518,356.301 320.423,356.338 320.35,356.412 C 320.276,356.486 320.239,356.578 320.239,356.689 C 320.239,356.803 320.276,356.898 320.349,356.973 C 320.423,357.048 320.515,357.086 320.625,357.086 C 320.743,357.086 320.838,357.048 320.912,356.973 C 320.985,356.898 321.022,356.798 321.022,356.675 L 321.021,356.639 Z M 320.834,356.787 C 320.821,356.828 320.797,356.862 320.761,356.888 C 320.724,356.914 320.682,356.927 320.634,356.927 C 320.582,356.927 320.536,356.913 320.497,356.883 C 320.472,356.865 320.449,356.833 320.428,356.787 L 320.834,356.787 Z" marker-start="none" marker-end="none"/>
       <path d="M 321.129,357.066 L 321.29,357.066 L 321.29,356.972 C 321.307,357.01 321.33,357.038 321.359,357.057 C 321.388,357.076 321.419,357.086 321.453,357.086 C 321.478,357.086 321.503,357.079 321.53,357.066 L 321.471,356.905 C 321.449,356.916 321.431,356.922 321.417,356.922 C 321.388,356.922 321.364,356.904 321.344,356.868 C 321.324,356.833 321.314,356.763 321.314,356.658 L 321.315,356.622 L 321.315,356.321 L 321.129,356.321 L 321.129,357.066 Z" marker-start="none" marker-end="none"/>
      </g>
     </g>
     <g id="Group_16" fill-rule="nonzero" stroke="none" stroke-width="0.034" fill="#ffffff" stroke-miterlimit="79.8403193612775">
      <g id="Group_17">
       <path d="M 317.176,353.352 L 317.371,353.352 L 317.759,352.344 L 317.559,352.344 L 317.48,352.551 L 317.069,352.551 L 316.987,352.344 L 316.787,352.344 L 317.176,353.352 Z M 317.275,353.085 L 317.14,352.738 L 317.408,352.738 L 317.275,353.085 Z" marker-start="none" marker-end="none"/>
       <path d="M 317.867,353.377 L 318.054,353.377 L 318.054,352.344 L 317.867,352.344 L 317.867,353.377 Z" marker-start="none" marker-end="none"/>
       <path d="M 318.775,353.089 L 318.962,353.089 L 318.962,352.344 L 318.775,352.344 L 318.775,352.422 C 318.739,352.388 318.702,352.363 318.665,352.347 C 318.628,352.332 318.589,352.324 318.546,352.324 C 318.449,352.324 318.366,352.362 318.295,352.436 C 318.225,352.511 318.19,352.604 318.19,352.715 C 318.19,352.83 318.224,352.925 318.292,352.998 C 318.36,353.072 318.443,353.109 318.54,353.109 C 318.585,353.109 318.627,353.1 318.666,353.083 C 318.706,353.066 318.742,353.041 318.775,353.007 L 318.775,353.089 Z M 318.579,352.936 C 318.521,352.936 318.472,352.915 318.434,352.874 C 318.396,352.834 318.376,352.781 318.376,352.717 C 318.376,352.653 318.396,352.6 318.435,352.558 C 318.474,352.516 318.522,352.496 318.579,352.496 C 318.638,352.496 318.687,352.516 318.726,352.557 C 318.765,352.598 318.784,352.652 318.784,352.718 C 318.784,352.783 318.765,352.835 318.726,352.875 C 318.687,352.916 318.638,352.936 318.579,352.936 Z" marker-start="none" marker-end="none"/>
       <path d="M 319.108,353.089 L 319.269,353.089 L 319.269,352.995 C 319.286,353.033 319.309,353.061 319.338,353.08 C 319.367,353.099 319.398,353.109 319.432,353.109 C 319.457,353.109 319.482,353.102 319.509,353.089 L 319.45,352.928 C 319.428,352.939 319.41,352.945 319.396,352.945 C 319.367,352.945 319.343,352.927 319.323,352.891 C 319.303,352.856 319.293,352.786 319.293,352.681 L 319.294,352.645 L 319.294,352.344 L 319.108,352.344 L 319.108,353.089 Z" marker-start="none" marker-end="none"/>
       <path d="M 319.6,353.089 L 319.788,353.089 L 319.788,353.004 C 319.82,353.039 319.855,353.065 319.894,353.083 C 319.933,353.1 319.976,353.109 320.022,353.109 C 320.069,353.109 320.111,353.097 320.148,353.074 C 320.186,353.051 320.216,353.018 320.239,352.974 C 320.268,353.018 320.305,353.051 320.348,353.074 C 320.391,353.097 320.438,353.109 320.49,353.109 C 320.543,353.109 320.589,353.096 320.629,353.072 C 320.67,353.047 320.699,353.015 320.716,352.975 C 320.734,352.935 320.743,352.87 320.743,352.781 L 320.743,352.344 L 320.554,352.344 L 320.554,352.722 C 320.554,352.806 320.544,352.864 320.523,352.894 C 320.501,352.924 320.47,352.939 320.428,352.939 C 320.396,352.939 320.367,352.929 320.342,352.911 C 320.317,352.893 320.298,352.868 320.285,352.835 C 320.273,352.803 320.267,352.751 320.267,352.68 L 320.267,352.344 L 320.078,352.344 L 320.078,352.705 C 320.078,352.772 320.073,352.82 320.064,352.85 C 320.054,352.88 320.039,352.902 320.019,352.917 C 320,352.931 319.976,352.939 319.948,352.939 C 319.917,352.939 319.889,352.929 319.863,352.911 C 319.838,352.892 319.819,352.866 319.806,352.833 C 319.794,352.8 319.788,352.747 319.788,352.675 L 319.788,352.344 L 319.6,352.344 L 319.6,353.089 Z" marker-start="none" marker-end="none"/>
      </g>
     </g>
     <path d="M 289.533,453.293 L 289.581,365.954" fill="none" stroke="#167cd5" stroke-width="0.358" stroke-miterlimit="79.8403193612775"/>
     <path d="M 347.341,453.119 L 347.388,365.778" fill="none" stroke="#167cd5" stroke-width="0.358" stroke-miterlimit="79.8403193612775"/>
     <path d="M 347.652,356.75 C 346.985,357.826 346.121,358.106 344.884,358.094 L 337.452,358.461 L 325.125,358.485 C 324.316,358.427 323.887,358.794 323.877,359.624 L 322.899,364.987 C 322.756,365.644 322.205,365.938 321.516,366.134 L 315.814,366.167 C 315.211,366.172 314.815,365.806 314.567,365.189 L 313.691,359.658 C 313.564,358.772 313.04,358.324 311.936,358.507 L 299.471,358.529 L 293.126,358.238 C 291.488,358.493 290.236,357.189 289.239,356.376" fill="none" stroke="#1788ec" stroke-width="0.718" stroke-miterlimit="79.8403193612775"/>
     <g id="Group_18">
      <g id="Group_19" stroke="#ffffff">
       <path d="M 303.471,425.757 L 304.724,425.787 C 304.897,425.791 304.969,425.917 304.884,426.068 L 304.215,427.261 C 304.13,427.412 303.998,427.409 303.92,427.255 L 303.299,426.029 C 303.221,425.875 303.298,425.753 303.471,425.757 Z" stroke-width="0.199" stroke-linejoin="miter" marker-start="none" marker-end="none" stroke-miterlimit="79.8403193612775"/>
       <path d="M 304.125,426.926 L 303.93,426.498 L 304.245,426.55 L 304.147,426.258" fill="none" marker-end="url(#DefaultArrowStyled)" stroke-width="0.098" stroke-miterlimit="79.8403193612775"/>
      </g>
      <g id="Group_20">
       <g id="Group_21" fill-rule="nonzero" stroke="none" stroke-width="0.023" fill="#ffffff" stroke-miterlimit="79.8403193612775">
        <g id="Group_22">
         <path d="M 307.453,426.959 C 307.48,426.959 307.502,426.952 307.517,426.939 C 307.533,426.925 307.541,426.907 307.541,426.883 C 307.541,426.859 307.527,426.837 307.5,426.818 C 307.474,426.799 307.442,426.79 307.406,426.79 C 307.38,426.79 307.358,426.796 307.342,426.81 C 307.326,426.823 307.317,426.84 307.317,426.861 C 307.317,426.888 307.331,426.911 307.357,426.93 C 307.384,426.949 307.416,426.959 307.453,426.959 Z M 307.611,426.292 L 307.257,426.292 L 307.257,426.312 L 307.324,426.312 L 307.324,426.678 L 307.257,426.678 L 307.257,426.698 L 307.423,426.698 C 307.464,426.698 307.505,426.702 307.546,426.711 L 307.546,426.312 L 307.611,426.312 L 307.611,426.292 Z" marker-start="none" marker-end="none"/>
        </g>
       </g>
       <path d="M 306.921,427.36 L 306.921,425.954" fill="none" stroke="#ffffff" stroke-width="0.199" stroke-miterlimit="79.8403193612775"/>
       <path d="M 306.04,427.241 L 306.04,425.672" fill="none" stroke="#ffffff" stroke-width="0.199" stroke-miterlimit="79.8403193612775"/>
       <path d="M 307.814,427.257 L 307.814,425.687" fill="none" stroke="#ffffff" stroke-width="0.199" stroke-miterlimit="79.8403193612775"/>
       <path d="M 306.033,427.149 C 306.617,427.333 307.215,427.386 307.839,427.149" fill="none" stroke="#ffffff" stroke-width="0.199" stroke-miterlimit="79.8403193612775"/>
       <path d="M 306.072,425.75 C 306.605,426.051 307.189,426.043 307.822,425.75" fill="none" stroke="#ffffff" stroke-width="0.199" stroke-miterlimit="79.8403193612775"/>
      </g>
      <g id="Group_23">
       <path d="M 312.108,425.757 L 314.196,425.791 C 314.369,425.794 314.421,425.906 314.312,426.04 L 313.297,427.292 C 313.188,427.427 313.017,427.422 312.915,427.283 L 311.98,426.005 C 311.877,425.865 311.935,425.754 312.108,425.757 Z" stroke="#ffffff" stroke-width="0.199" stroke-linejoin="miter" marker-start="none" marker-end="none" stroke-miterlimit="79.8403193612775"/>
       <path d="M 313.115,426.875 C 313.369,426.875 313.576,426.668 313.576,426.414 C 313.576,426.159 313.369,425.952 313.115,425.952 C 312.86,425.952 312.653,426.159 312.653,426.414 C 312.653,426.668 312.86,426.875 313.115,426.875 Z" stroke="#ffffff" stroke-width="0.098" marker-start="none" marker-end="none" stroke-miterlimit="79.8403193612775"/>
       <path d="M 313.498,426.866 L 313.213,426.622 L 313.373,426.435 L 313.658,426.679 L 313.498,426.866 Z" stroke="none" fill="#1890f9" stroke-width="0.048" stroke-linejoin="miter" marker-start="none" marker-end="none" stroke-miterlimit="79.8403193612775"/>
       <path d="M 312.903,426.465 L 313.062,426.591 L 313.063,426.202 L 313.531,426.726" fill="none" stroke="#ffffff" stroke-width="0.098" stroke-miterlimit="79.8403193612775"/>
      </g>
      <g id="Group_24" fill="#1890f9">
       <path d="M 309.548,427.187 C 309.918,427.187 310.22,426.885 310.22,426.516 C 310.22,426.144 309.918,425.844 309.548,425.844 C 309.177,425.844 308.877,426.144 308.877,426.516 C 308.877,426.885 309.177,427.187 309.548,427.187 Z" stroke="#ffffff" stroke-width="0.199" marker-start="none" marker-end="none" stroke-miterlimit="79.8403193612775"/>
       <path d="M 309.684,427.464 L 309.684,425.705 L 310.421,425.705 L 310.421,427.464 L 309.684,427.464 Z" stroke-width="0.098" stroke="none" stroke-linejoin="miter" marker-start="none" marker-end="none" stroke-miterlimit="79.8403193612775"/>
       <path d="M 310.818,427.207 C 311.188,427.207 311.489,426.906 311.489,426.536 C 311.489,426.165 311.188,425.864 310.818,425.864 C 310.447,425.864 310.146,426.165 310.146,426.536 C 310.146,426.906 310.447,427.207 310.818,427.207 Z" stroke="#ffffff" stroke-width="0.199" marker-start="none" marker-end="none" stroke-miterlimit="79.8403193612775"/>
       <path d="M 310.187,426.523 L 310.818,426.523" fill="none" stroke="#ffffff" stroke-width="0.199" stroke-miterlimit="79.8403193612775"/>
       <path d="M 311.008,427.418 L 311.008,425.659 L 311.745,425.659 L 311.745,427.418 L 311.008,427.418 Z" stroke-width="0.098" stroke="none" stroke-linejoin="miter" marker-start="none" marker-end="none" stroke-miterlimit="79.8403193612775"/>
      </g>
     </g>
     <g id="Group_25">
      <path d="M 326.344,347.114 C 327.07,347.114 327.661,346.523 327.661,345.797 C 327.661,345.07 327.07,344.479 326.344,344.479 C 325.617,344.479 325.026,345.07 325.026,345.797 C 325.026,346.523 325.617,347.114 326.344,347.114 Z" fill="#7f7f7f" stroke="#4c4c4c" stroke-width="0.087" marker-start="none" marker-end="none" stroke-miterlimit="79.8403193612775"/>
      <path d="M 326.344,346.908 C 326.957,346.908 327.455,346.41 327.455,345.797 C 327.455,345.183 326.957,344.685 326.344,344.685 C 325.73,344.685 325.232,345.183 325.232,345.797 C 325.232,346.41 325.73,346.908 326.344,346.908 Z" fill="#333333" stroke="#4c4c4c" stroke-width="0.073" marker-start="none" marker-end="none" stroke-miterlimit="79.8403193612775"/>
      <g id="Group_26" fill-rule="nonzero" stroke="none" stroke-width="0.076" fill="#191919" stroke-miterlimit="79.8403193612775">
       <g id="Group_27">
        <path d="M 326.499,345.159 L 326.179,345.159 L 326.179,345.631 L 325.705,345.631 L 325.705,345.956 L 326.179,345.956 L 326.179,346.43 L 326.499,346.43 L 326.499,345.956 L 326.976,345.956 L 326.976,345.631 L 326.499,345.631 L 326.499,345.159 Z" marker-start="none" marker-end="none"/>
       </g>
      </g>
     </g>
     <g id="Group_28" fill-rule="nonzero" stroke="none" fill="#ffffff">
      <path d="M 303.35,454.413 C 303.35,454.413 302.907,454.589 302.457,454.227 C 302.457,454.227 301.923,453.869 301.824,452.358 C 301.824,452.358 301.795,452.108 302.017,452.071 C 302.017,452.071 302.241,452.027 302.27,452.216 C 302.299,452.404 302.294,453.356 302.717,453.845 C 302.717,453.845 302.758,453.907 302.87,453.954 C 302.963,454.012 303.037,454.118 303.092,454.202 C 303.092,454.202 303.176,454.312 303.35,454.413 L 303.35,454.413 Z" marker-start="none" marker-end="none"/>
      <path d="M 304.15,454.449 C 304.15,454.449 303.756,454.574 303.332,454.25 C 303.332,454.25 302.828,453.943 302.71,452.718 C 302.71,452.718 302.667,452.416 302.69,452.262 C 302.69,452.262 302.71,452.084 302.895,452.068 C 302.895,452.068 303.116,452.051 303.131,452.259 C 303.144,452.468 303.149,452.552 303.149,452.552 C 303.149,452.552 303.185,453.365 303.514,453.778 C 303.514,453.778 303.595,453.719 303.595,453.719 C 303.595,453.719 303.707,454.146 304.15,454.449 C 304.15,454.449 304.15,454.449 304.15,454.449 L 304.15,454.449 Z" marker-start="none" marker-end="none"/>
      <path d="M 304.951,454.449 C 304.951,454.449 304.423,454.573 304.04,454.157 C 304.04,454.157 303.662,453.819 303.55,452.979 C 303.55,452.979 303.502,452.527 303.495,452.308 C 303.495,452.308 303.491,452.094 303.696,452.068 C 303.696,452.068 303.907,452.055 303.92,452.279 C 303.92,452.279 303.935,453.307 304.314,453.778 C 304.314,453.778 304.409,453.72 304.409,453.72 C 304.409,453.72 304.574,454.194 304.951,454.449 C 304.951,454.449 304.951,454.449 304.951,454.449 L 304.951,454.449 Z" marker-start="none" marker-end="none"/>
      <path d="M 305.559,454.461 C 305.559,454.461 305.028,454.482 304.715,453.947 C 304.715,453.947 304.354,453.421 304.357,452.345 C 304.357,452.345 304.334,452.091 304.535,452.067 C 304.535,452.067 304.771,452.052 304.771,452.324 C 304.771,452.324 304.781,453.385 305.186,453.813 C 305.186,453.813 305.546,453.384 305.575,452.37 C 305.575,452.37 305.587,451.677 305.717,451.293 C 305.717,451.294 305.833,451.723 305.857,452.317 C 305.857,452.317 305.848,452.425 305.941,452.503 C 305.941,452.503 306.003,452.533 305.991,452.642 C 305.991,452.642 305.904,453.525 305.61,454.026 C 305.61,454.026 306.234,454.067 306.358,452.818 C 306.358,452.818 306.359,452.635 306.46,452.522 C 306.46,452.522 306.534,452.469 306.542,452.341 C 306.542,452.341 306.561,452.164 306.507,451.594 C 306.507,451.594 306.495,451.468 306.549,451.29 C 306.549,451.29 306.703,451.717 306.663,452.135 C 306.663,452.135 306.642,452.474 306.811,452.589 C 306.811,452.589 306.797,453.537 306.421,454.055 C 306.421,454.055 306.122,454.484 305.559,454.461 C 305.559,454.461 305.559,454.461 305.559,454.461 L 305.559,454.461 Z" marker-start="none" marker-end="none"/>
      <path d="M 307.416,450.173 C 307.416,450.173 307.86,449.997 308.31,450.358 C 308.31,450.358 308.844,450.717 308.941,452.228 C 308.941,452.228 308.97,452.478 308.749,452.515 C 308.749,452.515 308.526,452.558 308.496,452.37 C 308.467,452.181 308.472,451.23 308.05,450.741 C 308.05,450.741 308.009,450.679 307.897,450.631 C 307.804,450.573 307.73,450.468 307.675,450.383 C 307.675,450.383 307.592,450.274 307.416,450.173 L 307.416,450.173 Z" marker-start="none" marker-end="none"/>
      <path d="M 306.616,450.137 C 306.616,450.137 307.01,450.012 307.435,450.336 C 307.435,450.336 307.938,450.643 308.057,451.868 C 308.057,451.868 308.099,452.17 308.077,452.323 C 308.077,452.323 308.057,452.502 307.872,452.518 C 307.872,452.518 307.65,452.535 307.636,452.326 C 307.622,452.118 307.617,452.034 307.617,452.034 C 307.617,452.034 307.582,451.221 307.251,450.808 C 307.251,450.808 307.172,450.867 307.172,450.867 C 307.172,450.867 307.059,450.44 306.616,450.137 C 306.616,450.137 306.616,450.137 306.616,450.137 L 306.616,450.137 Z" marker-start="none" marker-end="none"/>
      <path d="M 305.816,450.137 C 305.816,450.137 306.343,450.013 306.725,450.428 C 306.725,450.428 307.105,450.767 307.216,451.607 C 307.216,451.607 307.263,452.059 307.271,452.278 C 307.271,452.278 307.275,452.491 307.071,452.518 C 307.071,452.518 306.86,452.531 306.845,452.307 C 306.845,452.307 306.832,451.279 306.451,450.808 C 306.451,450.808 306.358,450.866 306.358,450.866 C 306.358,450.866 306.193,450.391 305.816,450.137 C 305.816,450.137 305.816,450.137 305.816,450.137 L 305.816,450.137 Z" marker-start="none" marker-end="none"/>
      <path d="M 305.208,450.125 C 305.208,450.125 305.739,450.104 306.052,450.639 C 306.052,450.639 306.412,451.164 306.41,452.241 C 306.41,452.241 306.433,452.495 306.232,452.519 C 306.232,452.519 305.995,452.533 305.995,452.262 C 305.995,452.262 305.985,451.201 305.58,450.772 C 305.58,450.772 305.221,451.203 305.192,452.216 C 305.192,452.216 305.179,452.909 305.05,453.291 C 305.05,453.291 304.933,452.863 304.909,452.268 C 304.909,452.268 304.92,452.16 304.825,452.083 C 304.825,452.083 304.763,452.052 304.775,451.944 C 304.775,451.944 304.862,451.061 305.157,450.56 C 305.157,450.56 304.532,450.519 304.408,451.768 C 304.408,451.768 304.408,451.951 304.307,452.064 C 304.307,452.064 304.233,452.117 304.225,452.245 C 304.225,452.245 304.206,452.421 304.259,452.992 C 304.259,452.992 304.272,453.117 304.217,453.295 C 304.217,453.295 304.063,452.868 304.104,452.45 C 304.104,452.45 304.123,452.112 303.955,451.997 C 303.955,451.997 303.969,451.049 304.346,450.531 C 304.346,450.531 304.644,450.101 305.208,450.125 C 305.208,450.125 305.208,450.125 305.208,450.125 L 305.208,450.125 Z" marker-start="none" marker-end="none"/>
      <path d="M 309.669,453.235 C 309.669,453.235 309.896,453.928 309.896,453.928 C 309.934,454.048 310.061,454.101 310.17,454.045 C 310.266,453.999 310.307,453.893 310.264,453.786 C 310.264,453.786 309.88,452.823 309.88,452.823 C 309.822,452.681 309.726,452.628 309.591,452.676 C 309.529,452.697 309.488,452.739 309.457,452.823 C 309.457,452.823 309.073,453.786 309.073,453.786 C 309.03,453.893 309.071,453.999 309.167,454.045 C 309.276,454.101 309.403,454.045 309.441,453.928 C 309.441,453.928 309.669,453.235 309.669,453.235 C 309.669,453.235 309.669,453.235 309.669,453.235 L 309.669,453.235 Z" marker-start="none" marker-end="none"/>
      <path d="M 310.418,454.577 C 310.507,454.665 310.65,454.662 310.738,454.574 C 310.825,454.484 310.825,454.345 310.738,454.256 C 310.65,454.167 310.507,454.167 310.422,454.254 C 310.378,454.296 310.353,454.355 310.353,454.416 C 310.353,454.474 310.378,454.533 310.418,454.577 C 310.418,454.577 310.418,454.577 310.418,454.577 L 310.418,454.577 Z M 310.383,453.87 C 310.383,453.923 310.403,453.974 310.441,454.01 C 310.518,454.088 310.642,454.086 310.718,454.01 C 310.754,453.972 310.774,453.922 310.774,453.87 C 310.774,453.87 310.774,452.854 310.774,452.854 C 310.776,452.744 310.691,452.659 310.581,452.656 C 310.472,452.656 310.383,452.744 310.383,452.851 C 310.383,452.851 310.383,453.87 310.383,453.87 C 310.383,453.87 310.383,453.87 310.383,453.87 L 310.383,453.87 Z" marker-start="none" marker-end="none"/>
      <path d="M 311.725,454.065 C 312.018,454.032 312.114,453.906 312.081,453.777 C 312.062,453.69 311.998,453.639 311.922,453.641 C 311.909,453.643 311.897,453.643 311.884,453.646 C 311.884,453.646 311.864,453.654 311.864,453.654 C 311.864,453.654 311.828,453.667 311.828,453.667 C 311.828,453.667 311.802,453.675 311.802,453.675 C 311.802,453.675 311.766,453.687 311.766,453.687 C 311.53,453.763 311.34,453.624 311.343,453.357 C 311.347,453.09 311.541,452.961 311.793,453.045 C 311.793,453.045 311.835,453.059 311.835,453.059 C 311.835,453.059 311.853,453.067 311.853,453.067 C 311.967,453.108 312.068,453.051 312.087,452.933 C 312.102,452.834 312.037,452.742 311.853,452.684 C 311.807,452.668 311.758,452.659 311.708,452.653 C 311.272,452.613 310.941,452.917 310.946,453.367 C 310.952,453.819 311.289,454.114 311.725,454.065 C 311.725,454.065 311.725,454.065 311.725,454.065 L 311.725,454.065 Z" marker-start="none" marker-end="none"/>
      <path d="M 312.373,454.051 C 312.373,454.051 312.37,454.276 312.37,454.276 C 312.37,454.383 312.457,454.471 312.566,454.471 C 312.673,454.471 312.762,454.383 312.759,454.276 C 312.759,454.276 312.759,454.051 312.759,454.051 C 312.759,454.051 312.876,454.051 312.876,454.051 C 312.921,454.051 312.967,454.032 313,453.997 C 313.069,453.931 313.069,453.819 313,453.75 C 312.965,453.717 312.921,453.7 312.874,453.7 C 312.874,453.7 312.759,453.7 312.759,453.7 C 312.759,453.7 312.759,452.856 312.759,452.856 C 312.759,452.806 312.739,452.755 312.704,452.717 C 312.627,452.64 312.504,452.64 312.432,452.717 C 312.394,452.755 312.373,452.806 312.373,452.856 C 312.373,452.856 312.375,453.703 312.375,453.703 C 312.375,453.703 312.307,453.703 312.307,453.703 C 312.259,453.703 312.213,453.72 312.178,453.755 C 312.109,453.821 312.109,453.931 312.18,453.999 C 312.213,454.032 312.259,454.051 312.307,454.051 C 312.307,454.051 312.373,454.051 312.373,454.051 C 312.373,454.051 312.373,454.051 312.373,454.051 L 312.373,454.051 Z" marker-start="none" marker-end="none"/>
      <path d="M 313.127,453.878 C 313.127,453.972 313.206,454.059 313.326,454.065 C 313.447,454.076 313.521,453.999 313.516,453.925 C 313.516,453.925 313.513,453.906 313.513,453.906 C 313.523,453.919 313.534,453.931 313.546,453.941 C 313.696,454.103 313.866,454.101 313.945,453.985 C 314.014,453.883 313.978,453.766 313.877,453.722 C 313.877,453.722 313.856,453.713 313.856,453.713 C 313.856,453.713 313.803,453.695 313.803,453.695 C 313.751,453.676 313.716,453.659 313.686,453.641 C 313.562,453.568 313.518,453.502 313.518,453.438 C 313.518,453.438 313.518,452.854 313.518,452.854 C 313.518,452.747 313.431,452.659 313.323,452.659 C 313.214,452.659 313.127,452.744 313.127,452.851 C 313.127,452.851 313.127,453.878 313.127,453.878 C 313.127,453.878 313.127,453.878 313.127,453.878 L 313.127,453.878 Z" marker-start="none" marker-end="none"/>
      <path d="M 314.358,453.303 C 314.391,453.07 314.528,452.966 314.695,453.004 C 314.807,453.026 314.892,453.128 314.912,453.301 C 314.917,453.342 314.917,453.382 314.912,453.423 C 314.889,453.591 314.802,453.69 314.695,453.713 C 314.533,453.748 314.388,453.646 314.358,453.421 C 314.355,453.4 314.355,453.38 314.355,453.36 C 314.355,453.339 314.355,453.322 314.358,453.303 C 314.358,453.303 314.358,453.303 314.358,453.303 L 314.358,453.303 Z M 314.064,453.742 C 314.19,453.953 314.407,454.076 314.637,454.076 C 315.005,454.076 315.308,453.771 315.311,453.365 C 315.311,452.955 315.008,452.651 314.637,452.651 C 314.264,452.651 313.965,452.955 313.965,453.365 C 313.965,453.512 313.998,453.637 314.064,453.742 C 314.064,453.742 314.064,453.742 314.064,453.742 L 314.064,453.742 Z" marker-start="none" marker-end="none"/>
      <path d="M 315.477,453.867 C 315.477,453.964 315.559,454.056 315.673,454.065 C 315.778,454.076 315.849,454.01 315.849,453.939 C 315.849,453.939 315.849,453.923 315.849,453.923 C 315.909,453.997 315.994,454.045 316.112,454.065 C 316.176,454.078 316.24,454.078 316.301,454.068 C 316.57,454.024 316.717,453.848 316.717,453.58 C 316.717,453.58 316.717,452.851 316.717,452.851 C 316.717,452.742 316.63,452.656 316.524,452.653 C 316.414,452.653 316.326,452.739 316.326,452.848 C 316.326,452.848 316.326,453.514 316.326,453.514 C 316.326,453.576 316.301,453.634 316.257,453.676 C 316.169,453.769 316.024,453.769 315.934,453.679 C 315.892,453.634 315.869,453.577 315.869,453.517 C 315.869,453.517 315.869,452.851 315.869,452.851 C 315.869,452.744 315.78,452.656 315.671,452.659 C 315.564,452.659 315.477,452.747 315.477,452.854 C 315.477,452.854 315.477,453.867 315.477,453.867 C 315.477,453.867 315.477,453.867 315.477,453.867 L 315.477,453.867 Z" marker-start="none" marker-end="none"/>
      <path d="M 318.523,453.492 C 318.521,453.5 318.521,453.509 318.518,453.517 C 318.477,453.703 318.345,453.788 318.195,453.753 C 318.102,453.73 318.02,453.649 317.987,453.522 C 317.984,453.512 317.984,453.502 317.982,453.492 C 317.982,453.492 318.523,453.492 318.523,453.492 C 318.523,453.492 318.523,453.492 318.523,453.492 L 318.523,453.492 Z M 317.992,453.24 C 318.003,453.191 318.025,453.144 318.058,453.103 C 318.162,452.978 318.352,452.949 318.568,453.062 C 318.693,453.131 318.729,453.136 318.795,453.111 C 318.833,453.095 318.864,453.065 318.878,453.026 C 318.935,452.889 318.765,452.653 318.286,452.651 C 317.801,452.651 317.479,453.051 317.59,453.534 C 317.653,453.813 317.864,454.014 318.129,454.063 C 318.434,454.119 318.724,453.964 318.85,453.675 C 318.883,453.596 318.904,453.514 318.908,453.454 C 318.924,453.295 318.873,453.24 318.744,453.24 C 318.744,453.24 317.992,453.24 317.992,453.24 C 317.992,453.24 317.992,453.24 317.992,453.24 L 317.992,453.24 Z" marker-start="none" marker-end="none"/>
      <path d="M 319.053,453.867 C 319.053,453.964 319.135,454.056 319.248,454.065 C 319.353,454.076 319.424,454.01 319.424,453.939 C 319.424,453.939 319.424,453.923 319.424,453.923 C 319.484,453.997 319.569,454.045 319.689,454.065 C 319.752,454.078 319.815,454.078 319.876,454.068 C 320.146,454.024 320.292,453.848 320.292,453.58 C 320.292,453.58 320.292,452.851 320.292,452.851 C 320.292,452.742 320.207,452.656 320.1,452.653 C 319.991,452.653 319.901,452.739 319.901,452.848 C 319.901,452.848 319.901,453.514 319.901,453.514 C 319.901,453.576 319.876,453.634 319.832,453.676 C 319.744,453.769 319.599,453.769 319.511,453.679 C 319.467,453.634 319.445,453.577 319.445,453.517 C 319.445,453.517 319.445,452.851 319.445,452.851 C 319.445,452.744 319.355,452.656 319.246,452.659 C 319.139,452.659 319.053,452.747 319.053,452.854 C 319.053,452.854 319.053,453.867 319.053,453.867 C 319.053,453.867 319.053,453.867 319.053,453.867 L 319.053,453.867 Z" marker-start="none" marker-end="none"/>
      <path d="M 321.413,453.492 C 321.41,453.5 321.41,453.509 321.408,453.517 C 321.367,453.703 321.235,453.788 321.085,453.753 C 320.991,453.73 320.909,453.649 320.876,453.522 C 320.874,453.512 320.874,453.502 320.871,453.492 C 320.871,453.492 321.413,453.492 321.413,453.492 C 321.413,453.492 321.413,453.492 321.413,453.492 L 321.413,453.492 Z M 320.882,453.24 C 320.892,453.191 320.915,453.144 320.948,453.103 C 321.052,452.978 321.243,452.949 321.458,453.062 C 321.583,453.131 321.619,453.136 321.684,453.111 C 321.723,453.095 321.753,453.065 321.768,453.026 C 321.824,452.889 321.654,452.653 321.176,452.651 C 320.692,452.651 320.369,453.051 320.481,453.534 C 320.544,453.813 320.755,454.014 321.019,454.063 C 321.323,454.119 321.613,453.964 321.74,453.675 C 321.773,453.596 321.794,453.514 321.799,453.454 C 321.814,453.295 321.764,453.24 321.633,453.24 C 321.633,453.24 320.882,453.24 320.882,453.24 C 320.882,453.24 320.882,453.24 320.882,453.24 L 320.882,453.24 Z" marker-start="none" marker-end="none"/>
      <path d="M 321.943,453.878 C 321.943,453.972 322.022,454.059 322.141,454.065 C 322.263,454.076 322.337,453.999 322.332,453.925 C 322.332,453.925 322.329,453.906 322.329,453.906 C 322.34,453.919 322.349,453.931 322.362,453.941 C 322.512,454.103 322.682,454.101 322.76,453.985 C 322.829,453.883 322.794,453.766 322.692,453.722 C 322.692,453.722 322.672,453.713 322.672,453.713 C 322.672,453.713 322.619,453.695 322.619,453.695 C 322.568,453.676 322.532,453.659 322.502,453.641 C 322.378,453.568 322.334,453.502 322.334,453.438 C 322.334,453.438 322.334,452.854 322.334,452.854 C 322.334,452.747 322.247,452.659 322.139,452.659 C 322.03,452.659 321.943,452.744 321.943,452.851 C 321.943,452.851 321.943,453.878 321.943,453.878 C 321.943,453.878 321.943,453.878 321.943,453.878 L 321.943,453.878 Z" marker-start="none" marker-end="none"/>
      <path d="M 323.25,453.103 C 323.36,452.971 323.56,452.974 323.662,453.111 C 323.708,453.171 323.73,453.245 323.733,453.352 C 323.733,453.525 323.67,453.634 323.568,453.684 C 323.398,453.769 323.207,453.657 323.177,453.426 C 323.174,453.402 323.171,453.377 323.171,453.355 C 323.171,453.248 323.202,453.164 323.25,453.103 C 323.25,453.103 323.25,453.103 323.25,453.103 L 323.25,453.103 Z M 323.744,453.933 C 323.746,454.007 323.817,454.073 323.92,454.063 C 324.035,454.053 324.117,453.961 324.117,453.862 C 324.117,453.862 324.117,452.843 324.117,452.843 C 324.117,452.336 323.817,452.059 323.289,452.114 C 323.182,452.127 323.086,452.152 322.993,452.193 C 322.806,452.28 322.773,452.412 322.864,452.508 C 322.916,452.565 322.979,452.577 323.065,452.549 C 323.065,452.549 323.067,452.547 323.067,452.547 C 323.067,452.547 323.146,452.511 323.146,452.511 C 323.163,452.503 323.182,452.495 323.199,452.491 C 323.533,452.371 323.722,452.508 323.73,452.763 C 323.733,452.78 323.73,452.798 323.73,452.816 C 323.585,452.61 323.227,452.574 322.982,452.818 C 322.823,452.976 322.744,453.235 322.796,453.517 C 322.814,453.618 322.846,453.705 322.892,453.778 C 323.108,454.126 323.544,454.159 323.744,453.915 C 323.744,453.915 323.744,453.933 323.744,453.933 C 323.744,453.933 323.744,453.933 323.744,453.933 L 323.744,453.933 Z" marker-start="none" marker-end="none"/>
      <path d="M 324.335,454.048 C 324.443,454.093 324.556,454.043 324.602,453.919 C 324.602,453.919 324.846,453.265 324.846,453.265 C 324.846,453.265 325.093,453.922 325.093,453.922 C 325.142,454.045 325.257,454.096 325.364,454.045 C 325.46,453.999 325.501,453.89 325.46,453.791 C 325.46,453.791 324.827,452.242 324.827,452.242 C 324.774,452.112 324.668,452.064 324.561,452.108 C 324.459,452.15 324.416,452.259 324.459,452.363 C 324.459,452.363 324.643,452.785 324.643,452.785 C 324.643,452.785 324.229,453.799 324.229,453.799 C 324.19,453.895 324.235,454.007 324.335,454.048 C 324.335,454.048 324.335,454.048 324.335,454.048 L 324.335,454.048 Z" marker-start="none" marker-end="none"/>
      <path d="M 311.872,451.839 C 311.89,451.823 311.899,451.799 311.899,451.768 C 311.899,451.732 311.89,451.707 311.87,451.691 C 311.851,451.675 311.82,451.667 311.777,451.667 C 311.765,451.667 311.747,451.669 311.724,451.671 C 311.724,451.671 311.724,451.86 311.724,451.86 C 311.724,451.86 311.778,451.861 311.778,451.861 C 311.822,451.861 311.853,451.855 311.872,451.839 C 311.872,451.839 311.872,451.839 311.872,451.839 L 311.872,451.839 Z M 311.922,451.652 C 311.955,451.678 311.971,451.714 311.971,451.757 C 311.971,451.794 311.961,451.824 311.943,451.845 C 311.926,451.868 311.897,451.884 311.857,451.893 C 311.878,451.897 311.898,451.909 311.914,451.928 C 311.931,451.947 311.94,451.968 311.94,451.992 C 311.94,452.03 311.927,452.06 311.899,452.081 C 311.873,452.102 311.835,452.113 311.786,452.113 C 311.76,452.113 311.716,452.112 311.656,452.109 C 311.656,452.109 311.656,451.613 311.656,451.613 C 311.656,451.613 311.798,451.613 311.798,451.613 C 311.849,451.613 311.89,451.627 311.922,451.652 C 311.922,451.652 311.922,451.652 311.922,451.652 L 311.922,451.652 Z M 311.785,452.056 C 311.843,452.056 311.873,452.034 311.873,451.988 C 311.873,451.936 311.84,451.91 311.777,451.91 C 311.756,451.91 311.739,451.911 311.724,451.913 C 311.724,451.913 311.724,452.055 311.724,452.055 C 311.741,452.056 311.762,452.056 311.785,452.056 C 311.785,452.056 311.785,452.056 311.785,452.056 L 311.785,452.056 Z" marker-start="none" marker-end="none"/>
      <path d="M 312.963,451.613 C 312.963,451.613 312.672,451.613 312.672,451.613 C 312.672,451.613 312.672,452.109 312.672,452.109 C 312.672,452.109 312.739,452.109 312.739,452.109 C 312.739,452.109 312.739,451.674 312.739,451.674 C 312.739,451.674 312.963,451.674 312.963,451.674 C 312.963,451.674 312.963,451.613 312.963,451.613 C 312.963,451.613 312.963,451.613 312.963,451.613 L 312.963,451.613 Z" marker-start="none" marker-end="none"/>
      <path d="M 313.646,451.765 C 313.646,451.765 313.646,452.109 313.646,452.109 C 313.646,452.109 313.713,452.109 313.713,452.109 C 313.713,452.109 313.713,451.769 313.713,451.769 C 313.713,451.739 313.722,451.715 313.742,451.695 C 313.762,451.675 313.787,451.666 313.819,451.666 C 313.852,451.666 313.878,451.675 313.898,451.694 C 313.916,451.714 313.927,451.739 313.927,451.772 C 313.927,451.772 313.927,452.109 313.927,452.109 C 313.927,452.109 313.994,452.109 313.994,452.109 C 313.994,452.109 313.994,451.764 313.994,451.764 C 313.994,451.714 313.978,451.675 313.947,451.648 C 313.916,451.619 313.873,451.604 313.819,451.604 C 313.763,451.604 313.721,451.619 313.691,451.646 C 313.661,451.674 313.646,451.714 313.646,451.765 C 313.646,451.765 313.646,451.765 313.646,451.765 L 313.646,451.765 Z" marker-start="none" marker-end="none"/>
      <path d="M 315.13,452.048 C 315.13,452.048 314.902,452.048 314.902,452.048 C 314.902,452.048 314.902,451.91 314.902,451.91 C 314.902,451.91 315.066,451.91 315.066,451.91 C 315.066,451.91 315.066,451.852 315.066,451.852 C 315.066,451.852 314.902,451.852 314.902,451.852 C 314.902,451.852 314.902,451.674 314.902,451.674 C 314.902,451.674 315.126,451.674 315.126,451.674 C 315.126,451.674 315.126,451.613 315.126,451.613 C 315.126,451.613 314.834,451.613 314.834,451.613 C 314.834,451.613 314.834,452.109 314.834,452.109 C 314.834,452.109 315.13,452.109 315.13,452.109 C 315.13,452.109 315.13,452.048 315.13,452.048 C 315.13,452.048 315.13,452.048 315.13,452.048 L 315.13,452.048 Z" marker-start="none" marker-end="none"/>
      <path d="M 316.779,451.801 C 316.906,451.801 316.969,451.856 316.969,451.968 C 316.969,452.064 316.898,452.112 316.754,452.112 C 316.743,452.112 316.712,452.112 316.661,452.109 C 316.661,452.109 316.661,451.613 316.661,451.613 C 316.661,451.613 316.729,451.613 316.729,451.613 C 316.729,451.613 316.729,451.804 316.729,451.804 C 316.754,451.802 316.772,451.801 316.779,451.801 C 316.779,451.801 316.779,451.801 316.779,451.801 L 316.779,451.801 Z M 316.766,452.051 C 316.856,452.051 316.899,452.021 316.899,451.961 C 316.899,451.894 316.859,451.861 316.774,451.861 C 316.773,451.861 316.757,451.862 316.729,451.865 C 316.729,451.865 316.729,452.048 316.729,452.048 C 316.744,452.05 316.757,452.051 316.766,452.051 C 316.766,452.051 316.766,452.051 316.766,452.051 L 316.766,452.051 Z" marker-start="none" marker-end="none"/>
      <path d="M 317.701,451.678 C 317.735,451.629 317.785,451.604 317.847,451.604 C 317.916,451.604 317.968,451.628 318.005,451.674 C 318.041,451.72 318.061,451.783 318.061,451.865 C 318.061,451.944 318.041,452.006 318.005,452.051 C 317.968,452.096 317.916,452.118 317.847,452.118 C 317.785,452.118 317.738,452.093 317.701,452.044 C 317.665,451.997 317.647,451.938 317.647,451.865 C 317.647,451.789 317.665,451.727 317.701,451.678 C 317.701,451.678 317.701,451.678 317.701,451.678 L 317.701,451.678 Z M 317.751,452.005 C 317.773,452.039 317.805,452.056 317.847,452.056 C 317.942,452.056 317.99,451.993 317.99,451.865 C 317.99,451.802 317.976,451.753 317.953,451.717 C 317.929,451.683 317.893,451.666 317.847,451.666 C 317.806,451.666 317.775,451.685 317.752,451.723 C 317.73,451.761 317.718,451.808 317.718,451.865 C 317.718,451.924 317.73,451.971 317.751,452.005 C 317.751,452.005 317.751,452.005 317.751,452.005 L 317.751,452.005 Z" marker-start="none" marker-end="none"/>
      <path d="M 319.297,452.109 C 319.297,452.109 319.143,451.607 319.143,451.607 C 319.143,451.607 319.121,451.607 319.121,451.607 C 319.121,451.607 319.003,451.948 319.003,451.948 C 319.003,451.948 318.893,451.607 318.893,451.607 C 318.893,451.607 318.871,451.607 318.871,451.607 C 318.871,451.607 318.715,452.109 318.715,452.109 C 318.715,452.109 318.786,452.109 318.786,452.109 C 318.786,452.109 318.885,451.762 318.885,451.762 C 318.885,451.762 318.994,452.109 318.994,452.109 C 318.994,452.109 319.018,452.109 319.018,452.109 C 319.018,452.109 319.125,451.764 319.125,451.764 C 319.125,451.764 319.226,452.109 319.226,452.109 C 319.226,452.109 319.297,452.109 319.297,452.109 C 319.297,452.109 319.297,452.109 319.297,452.109 L 319.297,452.109 Z" marker-start="none" marker-end="none"/>
      <path d="M 320.271,452.048 C 320.271,452.048 320.042,452.048 320.042,452.048 C 320.042,452.048 320.042,451.91 320.042,451.91 C 320.042,451.91 320.207,451.91 320.207,451.91 C 320.207,451.91 320.207,451.852 320.207,451.852 C 320.207,451.852 320.042,451.852 320.042,451.852 C 320.042,451.852 320.042,451.674 320.042,451.674 C 320.042,451.674 320.267,451.674 320.267,451.674 C 320.267,451.674 320.267,451.613 320.267,451.613 C 320.267,451.613 319.975,451.613 319.975,451.613 C 319.975,451.613 319.975,452.109 319.975,452.109 C 319.975,452.109 320.271,452.109 320.271,452.109 C 320.271,452.109 320.271,452.048 320.271,452.048 C 320.271,452.048 320.271,452.048 320.271,452.048 L 320.271,452.048 Z" marker-start="none" marker-end="none"/>
      <path d="M 321.178,451.841 C 321.205,451.848 321.228,451.862 321.247,451.888 C 321.267,451.913 321.276,451.94 321.276,451.972 C 321.276,452.067 321.216,452.114 321.097,452.114 C 321.082,452.114 321.058,452.113 321.025,452.112 C 320.994,452.11 320.975,452.109 320.974,452.109 C 320.974,452.109 320.974,451.613 320.974,451.613 C 320.974,451.613 321.041,451.613 321.041,451.613 C 321.041,451.613 321.041,451.83 321.041,451.83 C 321.073,451.827 321.098,451.826 321.112,451.826 C 321.112,451.826 321.244,451.613 321.244,451.613 C 321.244,451.613 321.322,451.613 321.322,451.613 C 321.322,451.613 321.178,451.841 321.178,451.841 C 321.178,451.841 321.178,451.841 321.178,451.841 L 321.178,451.841 Z M 321.081,452.051 C 321.124,452.051 321.155,452.044 321.174,452.033 C 321.195,452.021 321.205,452.001 321.205,451.973 C 321.205,451.939 321.195,451.917 321.177,451.903 C 321.158,451.89 321.128,451.884 321.089,451.884 C 321.073,451.884 321.057,451.885 321.041,451.888 C 321.041,451.888 321.041,452.048 321.041,452.048 C 321.061,452.05 321.074,452.051 321.081,452.051 C 321.081,452.051 321.081,452.051 321.081,452.051 L 321.081,452.051 Z" marker-start="none" marker-end="none"/>
     </g>
    </g>
   </g>
  </g>
 </g>
</svg>
