<?xml version="1.0" standalone="no"?>
<!DOCTYPE svg PUBLIC "-//W3C//DTD SVG 1.1//EN" "http://www.w3.org/Graphics/SVG/1.1/DTD/svg11.dtd">
<!--Generator: Xara Xtreme (www.xara.com), SVG filter version: 1.0.0.13-->
<svg stroke-width="0.501" stroke-linejoin="bevel" fill-rule="evenodd" xmlns:xlink="http://www.w3.org/1999/xlink" xmlns="http://www.w3.org/2000/svg" version="1.1" overflow="visible" width="841.891pt" height="595.277pt" viewBox="0 0 841.891 595.277">
 <defs>
  <marker id="DefaultArrow2" markerUnits="strokeWidth" viewBox="0 0 1 1" markerWidth="1" markerHeight="1" overflow="visible" orient="auto">
   <!-- REF_ARROW_STRAIGHT (-2) -->
   <g transform="scale(0.0092592592)">
    <!-- 1/108 -->
    <path d="M -9 54 L -9 -54 L 117 0 z"/>
   </g>
  </marker>
  <marker id="DefaultArrow3" markerUnits="strokeWidth" viewBox="0 0 1 1" markerWidth="1" markerHeight="1" overflow="visible" orient="auto">
   <!-- REF_ARROW_ANGLED -->
   <g transform="scale(0.0092592592)">
    <path d="M -27 54 L -9 0 L -27 -54 L 135 0 z"/>
   </g>
  </marker>
  <marker id="DefaultArrow4" markerUnits="strokeWidth" viewBox="0 0 1 1" markerWidth="1" markerHeight="1" overflow="visible" orient="auto">
   <!-- REF_ARROW_ROUNDED -->
   <g transform="scale(0.0092592592)">
    <path d="M -9,0 L -9,-45 C -9,-51.708 2.808,-56.580 9,-54 L 117,-9 C 120.916,-7.369 126.000,-4.242 126,0 C 126,4.242 120.916,7.369 117,9 L 9,54 C 2.808,56.580 -9,51.708 -9,45 z"/>
   </g>
  </marker>
  <marker id="DefaultArrow5" markerUnits="strokeWidth" viewBox="0 0 1 1" markerWidth="1" markerHeight="1" overflow="visible" orient="auto">
   <!-- REF_ARROW_SPOT -->
   <g transform="scale(0.0092592592)">
    <path d="M -54, 0 C -54,29.807 -29.807,54 0,54 C 29.807,54 54,29.807 54,0 C 54,-29.807 29.807,-54 0,-54 C -29.807,-54 -54,-29.807 -54,0 z"/>
   </g>
  </marker>
  <marker id="DefaultArrow6" markerUnits="strokeWidth" viewBox="0 0 1 1" markerWidth="1" markerHeight="1" overflow="visible" orient="auto">
   <!-- REF_ARROW_DIAMOND -->
   <g transform="scale(0.0092592592)">
    <path d="M -63,0 L 0,63 L 63,0 L 0,-63 z"/>
   </g>
  </marker>
  <marker id="DefaultArrow7" markerUnits="strokeWidth" viewBox="0 0 1 1" markerWidth="1" markerHeight="1" overflow="visible" orient="auto">
   <!-- REF_ARROW_FEATHER -->
   <g transform="scale(0.0092592592)">
    <path d="M 18,-54 L 108,-54 L 63,0 L 108,54 L 18, 54 L -36,0 z"/>
   </g>
  </marker>
  <marker id="DefaultArrow8" markerUnits="strokeWidth" viewBox="0 0 1 1" markerWidth="1" markerHeight="1" overflow="visible" orient="auto">
   <!-- REF_ARROW_FEATHER2 -->
   <g transform="scale(0.0092592592)">
    <path d="M -36,0 L 18,-54 L 54,-54 L 18,-18 L 27,-18 L 63,-54 L 99,-54 L 63,-18 L 72,-18 L 108,-54 L 144,-54 L 90,0 L 144,54 L 108,54 L 72,18 L 63,18 L 99,54 L 63,54 L 27,18 L 18,18 L 54,54 L 18,54 z"/>
   </g>
  </marker>
  <marker id="DefaultArrow9" markerUnits="strokeWidth" viewBox="0 0 1 1" markerWidth="1" markerHeight="1" overflow="visible" orient="auto">
   <!-- REF_ARROW_HOLLOWDIAMOND -->
   <g transform="scale(0.0092592592)">
    <path d="M 0,45 L -45,0 L 0, -45 L 45, 0 z M 0, 63 L-63, 0 L 0, -63 L 63, 0 z"/>
   </g>
  </marker>
  <filter id="StainedFilter">
   <feBlend mode="multiply" in2="BackgroundImage" in="SourceGraphic" result="blend"/>
   <feComposite in="blend" in2="SourceAlpha" operator="in" result="comp"/>
  </filter>
  <filter id="BleachFilter">
   <feBlend mode="screen" in2="BackgroundImage" in="SourceGraphic" result="blend"/>
   <feComposite in="blend" in2="SourceAlpha" operator="in" result="comp"/>
  </filter>
  <filter id="InvertTransparencyBitmapFilter">
   <feComponentTransfer>
    <feFuncR type="gamma" amplitude="1.055" exponent=".416666666" offset="-0.055"/>
    <feFuncG type="gamma" amplitude="1.055" exponent=".416666666" offset="-0.055"/>
    <feFuncB type="gamma" amplitude="1.055" exponent=".416666666" offset="-0.055"/>
   </feComponentTransfer>
   <feComponentTransfer>
    <feFuncR type="linear" slope="-1" intercept="1"/>
    <feFuncG type="linear" slope="-1" intercept="1"/>
    <feFuncB type="linear" slope="-1" intercept="1"/>
    <feFuncA type="linear" slope="1" intercept="0"/>
   </feComponentTransfer>
   <feComponentTransfer>
    <feFuncR type="gamma" amplitude="1" exponent="2.4" offset="0"/>
    <feFuncG type="gamma" amplitude="1" exponent="2.4" offset="0"/>
    <feFuncB type="gamma" amplitude="1" exponent="2.4" offset="0"/>
   </feComponentTransfer>
  </filter>
  <marker id="DefaultArrowScaled" markerUnits="strokeWidth" viewBox="0 0 1 1" markerWidth="3" markerHeight="3" overflow="visible" orient="auto">
   <!-- REF_ARROW_ANGLED -->
   <g transform="scale(0.0092592592)">
    <path d="M -27 54 L -9 0 L -27 -54 L 135 0 z"/>
   </g>
  </marker>
  <marker id="DefaultArrowStyled" markerUnits="strokeWidth" viewBox="0 0 1 1" markerWidth="3" markerHeight="3" overflow="visible" orient="auto" fill="#ffffff" fill-opacity="1.000000">
   <!-- REF_ARROW_ANGLED -->
   <g transform="scale(0.0092592592)">
    <path d="M -27 54 L -9 0 L -27 -54 L 135 0 z"/>
   </g>
  </marker>
 </defs>
 <g id="Document" fill="none" stroke="black" font-family="Times New Roman" font-size="16" transform="scale(1 -1)">
  <g id="Spread" transform="translate(0 -595.277)">
   <g id="Layer 1"/>
   <g id="logo">
    <g id="Group">
     <path d="M 314.338,379.541 L 314.338,373.2 L 317.563,373.2 L 317.563,379.541 L 314.338,379.541 Z" stroke="#4c4c4c" fill="#191919" stroke-width="0.135" stroke-linejoin="miter" marker-start="none" marker-end="none" stroke-miterlimit="79.8403193612775"/>
     <path d="M 317.744,379.547 L 317.744,373.206 L 320.969,373.206 L 320.969,379.547 L 317.744,379.547 Z" fill="#bf0000" stroke="#4c4c4c" stroke-width="0.135" stroke-linejoin="miter" marker-start="none" marker-end="none" stroke-miterlimit="79.8403193612775"/>
     <g id="Group_1">
      <path d="M 319.41,377.94 C 319.961,377.94 320.409,377.492 320.409,376.941 C 320.409,376.389 319.961,375.941 319.41,375.941 C 318.858,375.941 318.41,376.389 318.41,376.941 C 318.41,377.492 318.858,377.94 319.41,377.94 Z" fill="#7f7f7f" stroke="#4c4c4c" stroke-width="0.066" marker-start="none" marker-end="none" stroke-miterlimit="79.8403193612775"/>
      <path d="M 319.41,377.784 C 319.875,377.784 320.253,377.406 320.253,376.941 C 320.253,376.475 319.875,376.097 319.41,376.097 C 318.944,376.097 318.566,376.475 318.566,376.941 C 318.566,377.406 318.944,377.784 319.41,377.784 Z" fill="#333333" stroke="#4c4c4c" stroke-width="0.054" marker-start="none" marker-end="none" stroke-miterlimit="79.8403193612775"/>
      <g id="Group_2" fill-rule="nonzero" stroke="none" stroke-width="0.057" fill="#191919" stroke-miterlimit="79.8403193612775">
       <g id="Group_3">
        <path d="M 319.528,376.457 L 319.286,376.457 L 319.286,376.815 L 318.925,376.815 L 318.925,377.062 L 319.286,377.062 L 319.286,377.422 L 319.528,377.422 L 319.528,377.062 L 319.89,377.062 L 319.89,376.815 L 319.528,376.815 L 319.528,376.457 Z" marker-start="none" marker-end="none"/>
       </g>
      </g>
     </g>
     <path d="M 288.944,379.346 C 288.293,379.54 287.878,379.897 287.74,380.522 L 287.782,390.027 L 288.221,390.366 L 288.221,391.972 L 284.328,393.613 L 284.312,398.447 L 287.375,399.676 L 287.31,450.769 L 284.23,452.08 L 284.197,456.914 L 288.11,458.679 C 288.11,459.395 288.11,459.936 288.11,460.654 C 288.11,460.873 287.571,461.023 287.571,461.242 C 287.571,464.719 287.632,468.004 287.632,471.422 C 287.632,471.998 288.539,473.628 289.277,473.563 L 290.431,473.526 L 295.573,471.602 L 324.813,471.551 L 329.429,473.452 L 330.587,473.497 C 331.443,473.303 332.173,472.317 332.188,471.186 C 332.234,467.578 332.377,464.237 332.288,460.883 C 332.28,460.621 331.962,460.547 331.854,460.326 C 331.845,460.31 331.887,458.976 331.887,458.392 L 335.788,456.715 L 335.788,451.922 L 332.797,450.508 L 332.668,399.463 L 335.781,398.233 L 335.781,393.629 L 331.671,391.865 L 331.691,390.022 L 332.336,388.875 L 332.306,380.662 C 332.233,380.033 331.853,379.5 331.179,379.31 L 288.944,379.346 Z" fill="#1890f9" stroke-linejoin="miter" stroke-width="0.135" stroke="none" marker-start="none" marker-end="none" stroke-miterlimit="79.8403193612775"/>
     <path d="M 297.824,442.105 L 297.824,439.647 L 322.487,439.647 L 322.487,442.105 L 297.824,442.105 Z" stroke="none" fill="#ff8200" stroke-width="0.135" marker-start="none" marker-end="none" stroke-miterlimit="79.8403193612775"/>
     <g id="Group_4" stroke="#ffffff" stroke-width="0.135" fill="#ffffff" stroke-miterlimit="79.8403193612775">
      <path d="M 285.953,397.002 L 285.953,395.181 C 285.953,394.951 286.14,394.764 286.37,394.764 L 286.682,394.764 C 286.912,394.764 287.099,394.951 287.099,395.181 L 287.099,397.002 C 287.099,397.232 286.912,397.419 286.682,397.419 L 286.37,397.419 C 286.14,397.419 285.953,397.232 285.953,397.002 Z" marker-start="none" marker-end="none"/>
      <path d="M 333.065,397.003 L 333.065,395.182 C 333.065,394.952 333.252,394.765 333.482,394.765 L 333.794,394.765 C 334.024,394.765 334.211,394.952 334.211,395.182 L 334.211,397.003 C 334.211,397.233 334.024,397.42 333.794,397.42 L 333.482,397.42 C 333.252,397.42 333.065,397.233 333.065,397.003 Z" marker-start="none" marker-end="none"/>
     </g>
     <g id="Group_5" stroke="#ffffff" stroke-width="0.135" fill="#ffffff" stroke-miterlimit="79.8403193612775">
      <path d="M 285.953,455.553 L 285.953,453.732 C 285.953,453.502 286.14,453.315 286.37,453.315 L 286.682,453.315 C 286.912,453.315 287.099,453.502 287.099,453.732 L 287.099,455.553 C 287.099,455.783 286.912,455.97 286.682,455.97 L 286.37,455.97 C 286.14,455.97 285.953,455.783 285.953,455.553 Z" marker-start="none" marker-end="none"/>
      <path d="M 333.066,455.553 L 333.066,453.732 C 333.066,453.502 333.253,453.315 333.483,453.315 L 333.795,453.315 C 334.025,453.315 334.212,453.502 334.212,453.732 L 334.212,455.553 C 334.212,455.783 334.025,455.97 333.795,455.97 L 333.483,455.97 C 333.253,455.97 333.066,455.783 333.066,455.553 Z" marker-start="none" marker-end="none"/>
     </g>
     <path d="M 324.572,464.364 L 324.584,386.646" fill="none" stroke="#1a86e4" stroke-width="0.545" stroke-miterlimit="79.8403193612775"/>
     <path d="M 295.651,464.24 L 295.662,386.521" fill="none" stroke="#1a86e4" stroke-width="0.545" stroke-miterlimit="79.8403193612775"/>
     <path d="M 324.34,471.507 L 324.334,464.333 L 295.747,464.32" fill="none" stroke="#1e87e2" stroke-width="0.545" stroke-miterlimit="79.8403193612775"/>
     <path d="M 295.849,471.429 L 295.842,464.255" fill="none" stroke="#1e87e2" stroke-width="0.545" stroke-miterlimit="79.8403193612775"/>
     <path d="M 324.385,386.781 L 324.378,379.608" fill="none" stroke="#177ed9" stroke-width="0.545" stroke-miterlimit="79.8403193612775"/>
     <path d="M 296.093,386.705 L 296.086,379.532" fill="none" stroke="#177ed9" stroke-width="0.545" stroke-miterlimit="79.8403193612775"/>
     <path d="M 324.347,464.32 C 328.113,466.143 331.336,467.85 332.026,464.112" fill="none" stroke="#1e87e2" stroke-width="0.545" stroke-miterlimit="79.8403193612775"/>
     <path d="M 287.883,464.532 C 289.011,466.557 289.044,467.505 295.608,464.302" fill="none" stroke="#1e87e2" stroke-width="0.545" stroke-miterlimit="79.8403193612775"/>
     <path d="M 307.657,390.968 L 306.316,380.925 C 306.316,380.784 306.431,380.669 306.573,380.669 L 313.988,380.669 C 314.13,380.669 314.245,380.784 314.245,380.925 L 312.658,391.235 C 312.593,391.574 312.583,391.628 312.12,391.624 L 308.215,391.632 C 307.887,391.621 307.718,391.608 307.657,390.968 Z" stroke="#7f7f7f" fill="#4c4c4c" stroke-width="0.135" marker-start="none" marker-end="none" stroke-miterlimit="79.8403193612775"/>
     <path d="M 310.163,387.444 C 310.524,387.444 310.818,387.146 310.818,386.779 C 310.818,386.411 310.524,386.113 310.163,386.113 C 309.801,386.113 309.507,386.411 309.507,386.779 C 309.507,387.146 309.801,387.444 310.163,387.444 Z" fill="#bfbd00" stroke="none" stroke-width="0.135" marker-start="none" marker-end="none" stroke-miterlimit="79.8403193612775"/>
     <path d="M 310.163,384.28 C 310.524,384.28 310.818,383.982 310.818,383.615 C 310.818,383.247 310.524,382.949 310.163,382.949 C 309.801,382.949 309.507,383.247 309.507,383.615 C 309.507,383.982 309.801,384.28 310.163,384.28 Z" fill="#bf0000" stroke="none" stroke-width="0.135" marker-start="none" marker-end="none" stroke-miterlimit="79.8403193612775"/>
     <path d="M 310.163,390.793 C 310.524,390.793 310.818,390.495 310.818,390.128 C 310.818,389.76 310.524,389.462 310.163,389.462 C 309.801,389.462 309.507,389.76 309.507,390.128 C 309.507,390.495 309.801,390.793 310.163,390.793 Z" fill="#00bf02" stroke="none" stroke-width="0.135" marker-start="none" marker-end="none" stroke-miterlimit="79.8403193612775"/>
     <g id="Group_6" fill-rule="nonzero" stroke="#ffffff" stroke-width="0.053" fill="#ffffff" stroke-miterlimit="79.8403193612775">
      <g id="Group_7">
       <path d="M 310.551,446.248 L 310.551,447.808 L 310.86,447.808 L 311.226,446.703 C 311.26,446.6 311.285,446.523 311.3,446.472 C 311.318,446.529 311.346,446.612 311.383,446.722 L 311.754,447.808 L 312.03,447.808 L 312.03,446.248 L 311.832,446.248 L 311.832,447.553 L 311.382,446.248 L 311.197,446.248 L 310.749,447.576 L 310.749,446.248 L 310.551,446.248 Z" marker-start="none" marker-end="none"/>
       <path d="M 313.073,446.248 L 313.073,446.414 C 312.985,446.286 312.867,446.222 312.717,446.222 C 312.65,446.222 312.588,446.235 312.531,446.26 C 312.474,446.286 312.431,446.318 312.403,446.357 C 312.375,446.395 312.356,446.443 312.345,446.499 C 312.337,446.536 312.333,446.596 312.333,446.677 L 312.333,447.378 L 312.523,447.378 L 312.523,446.751 C 312.523,446.651 312.527,446.583 312.535,446.549 C 312.547,446.498 312.572,446.459 312.611,446.43 C 312.65,446.401 312.698,446.387 312.755,446.387 C 312.812,446.387 312.865,446.402 312.915,446.431 C 312.965,446.461 313.001,446.501 313.021,446.551 C 313.042,446.602 313.053,446.676 313.053,446.772 L 313.053,447.378 L 313.243,447.378 L 313.243,446.248 L 313.073,446.248 Z" marker-start="none" marker-end="none"/>
       <path d="M 313.537,446.248 L 313.537,447.808 L 313.727,447.808 L 313.727,446.248 L 313.537,446.248 Z" marker-start="none" marker-end="none"/>
       <path d="M 314.438,446.419 L 314.465,446.25 C 314.411,446.238 314.363,446.233 314.321,446.233 C 314.252,446.233 314.199,446.244 314.161,446.266 C 314.123,446.288 314.096,446.316 314.08,446.352 C 314.065,446.388 314.057,446.464 314.057,446.579 L 314.057,447.229 L 313.918,447.229 L 313.918,447.378 L 314.057,447.378 L 314.057,447.658 L 314.246,447.773 L 314.246,447.378 L 314.438,447.378 L 314.438,447.229 L 314.246,447.229 L 314.246,446.568 C 314.246,446.513 314.25,446.478 314.256,446.463 C 314.263,446.447 314.274,446.434 314.289,446.425 C 314.304,446.416 314.326,446.411 314.354,446.411 C 314.375,446.411 314.403,446.414 314.438,446.419 Z" marker-start="none" marker-end="none"/>
       <path d="M 314.625,447.587 L 314.625,447.808 L 314.815,447.808 L 314.815,447.587 L 314.625,447.587 Z M 314.625,446.248 L 314.625,447.378 L 314.815,447.378 L 314.815,446.248 L 314.625,446.248 Z" marker-start="none" marker-end="none"/>
       <path d="M 315.129,446.248 L 315.129,447.808 L 315.714,447.808 C 315.817,447.808 315.895,447.803 315.95,447.793 C 316.026,447.78 316.089,447.756 316.141,447.72 C 316.192,447.684 316.234,447.634 316.265,447.569 C 316.296,447.505 316.312,447.434 316.312,447.357 C 316.312,447.224 316.27,447.112 316.186,447.02 C 316.102,446.928 315.951,446.882 315.732,446.882 L 315.334,446.882 L 315.334,446.248 L 315.129,446.248 Z M 315.334,447.066 L 315.735,447.066 C 315.867,447.066 315.962,447.091 316.017,447.14 C 316.073,447.19 316.101,447.26 316.101,447.35 C 316.101,447.415 316.084,447.471 316.052,447.518 C 316.019,447.564 315.976,447.595 315.922,447.61 C 315.888,447.619 315.824,447.624 315.731,447.624 L 315.334,447.624 L 315.334,447.066 Z" marker-start="none" marker-end="none"/>
       <path d="M 316.545,446.248 L 316.545,447.808 L 316.735,447.808 L 316.735,446.248 L 316.545,446.248 Z" marker-start="none" marker-end="none"/>
       <path d="M 317.766,446.248 L 317.766,446.414 C 317.678,446.286 317.56,446.222 317.41,446.222 C 317.343,446.222 317.281,446.235 317.224,446.26 C 317.167,446.286 317.124,446.318 317.096,446.357 C 317.068,446.395 317.049,446.443 317.038,446.499 C 317.03,446.536 317.026,446.596 317.026,446.677 L 317.026,447.378 L 317.216,447.378 L 317.216,446.751 C 317.216,446.651 317.22,446.583 317.228,446.549 C 317.24,446.498 317.265,446.459 317.304,446.43 C 317.343,446.401 317.391,446.387 317.448,446.387 C 317.505,446.387 317.558,446.402 317.608,446.431 C 317.658,446.461 317.694,446.501 317.714,446.551 C 317.735,446.602 317.746,446.676 317.746,446.772 L 317.746,447.378 L 317.936,447.378 L 317.936,446.248 L 317.766,446.248 Z" marker-start="none" marker-end="none"/>
       <path d="M 318.158,446.585 L 318.346,446.615 C 318.357,446.539 318.386,446.481 318.434,446.44 C 318.483,446.4 318.55,446.379 318.637,446.379 C 318.724,446.379 318.789,446.397 318.831,446.433 C 318.874,446.469 318.895,446.511 318.895,446.559 C 318.895,446.603 318.876,446.637 318.839,446.662 C 318.813,446.679 318.748,446.7 318.644,446.726 C 318.505,446.762 318.408,446.793 318.354,446.818 C 318.3,446.844 318.259,446.88 318.232,446.926 C 318.204,446.972 318.19,447.022 318.19,447.078 C 318.19,447.128 318.201,447.175 318.224,447.218 C 318.247,447.261 318.278,447.296 318.318,447.325 C 318.347,447.347 318.388,447.365 318.439,447.38 C 318.49,447.396 318.545,447.403 318.603,447.403 C 318.691,447.403 318.768,447.391 318.835,447.365 C 318.902,447.339 318.951,447.305 318.982,447.261 C 319.014,447.218 319.036,447.159 319.048,447.086 L 318.862,447.061 C 318.853,447.119 318.829,447.164 318.788,447.197 C 318.748,447.229 318.691,447.246 318.617,447.246 C 318.529,447.246 318.467,447.231 318.43,447.202 C 318.392,447.173 318.374,447.139 318.374,447.1 C 318.374,447.075 318.381,447.053 318.397,447.033 C 318.412,447.012 318.437,446.995 318.47,446.982 C 318.489,446.975 318.545,446.958 318.638,446.933 C 318.772,446.897 318.866,446.867 318.919,446.844 C 318.973,446.821 319.014,446.787 319.045,446.743 C 319.075,446.699 319.09,446.645 319.09,446.58 C 319.09,446.516 319.072,446.456 319.035,446.399 C 318.998,446.343 318.944,446.299 318.875,446.268 C 318.805,446.237 318.726,446.222 318.638,446.222 C 318.492,446.222 318.381,446.252 318.304,446.313 C 318.228,446.375 318.179,446.465 318.158,446.585 Z" marker-start="none" marker-end="none"/>
      </g>
     </g>
     <g id="Group_8" fill-rule="nonzero" stroke="#ffffff" stroke-width="0.064" fill="#ffffff" stroke-miterlimit="79.8403193612775">
      <g id="Group_9">
       <path d="M 310.503,445.496 L 310.825,445.496 L 310.825,443.972 L 310.662,443.972 L 310.662,445.347 L 310.405,445.347 L 310.503,445.496 Z" marker-start="none" marker-end="none"/>
       <path d="M 311.61,445.018 L 311.452,445.018 C 311.457,445.169 311.511,445.293 311.615,445.389 C 311.718,445.486 311.846,445.534 311.998,445.534 C 312.149,445.534 312.271,445.489 312.364,445.399 C 312.458,445.308 312.504,445.201 312.504,445.078 C 312.504,444.992 312.482,444.911 312.437,444.835 C 312.393,444.76 312.306,444.657 312.178,444.528 L 311.77,444.119 L 312.527,444.119 L 312.527,443.972 L 311.413,443.972 L 312.04,444.601 C 312.167,444.727 312.249,444.821 312.288,444.882 C 312.326,444.943 312.345,445.008 312.345,445.075 C 312.345,445.161 312.311,445.235 312.242,445.297 C 312.173,445.358 312.089,445.389 311.989,445.389 C 311.885,445.389 311.798,445.357 311.728,445.292 C 311.659,445.227 311.619,445.136 311.61,445.018 Z" marker-start="none" marker-end="none"/>
       <path d="M 313.297,445.534 L 313.456,445.534 L 313.456,443.559 L 313.297,443.559 L 313.297,445.534 Z" marker-start="none" marker-end="none"/>
       <path d="M 315.265,445.496 L 315.265,445.351 L 314.682,445.351 L 314.6,444.935 C 314.672,444.955 314.736,444.964 314.793,444.964 C 314.942,444.964 315.065,444.918 315.162,444.825 C 315.259,444.732 315.308,444.613 315.308,444.468 C 315.308,444.368 315.283,444.276 315.233,444.192 C 315.183,444.109 315.116,444.045 315.031,444 C 314.946,443.955 314.848,443.933 314.736,443.933 C 314.603,443.933 314.491,443.971 314.4,444.047 C 314.308,444.122 314.254,444.22 314.236,444.34 L 314.404,444.34 C 314.417,444.282 314.438,444.234 314.468,444.197 C 314.498,444.161 314.538,444.131 314.589,444.109 C 314.639,444.086 314.691,444.075 314.746,444.075 C 314.854,444.075 314.946,444.113 315.024,444.189 C 315.101,444.265 315.14,444.36 315.14,444.474 C 315.14,444.577 315.105,444.661 315.035,444.725 C 314.965,444.789 314.872,444.821 314.755,444.821 C 314.659,444.821 314.542,444.794 314.404,444.739 L 314.556,445.496 L 315.265,445.496 Z" marker-start="none" marker-end="none"/>
       <path d="M 315.481,444.733 C 315.481,444.934 315.504,445.09 315.551,445.2 C 315.597,445.31 315.663,445.393 315.747,445.449 C 315.832,445.506 315.927,445.534 316.031,445.534 C 316.138,445.534 316.234,445.506 316.32,445.449 C 316.406,445.392 316.474,445.306 316.524,445.192 C 316.574,445.078 316.6,444.925 316.6,444.733 C 316.6,444.542 316.575,444.389 316.525,444.276 C 316.476,444.163 316.408,444.077 316.321,444.02 C 316.234,443.962 316.138,443.933 316.031,443.933 C 315.927,443.933 315.832,443.961 315.748,444.017 C 315.664,444.073 315.599,444.157 315.552,444.267 C 315.504,444.378 315.481,444.534 315.481,444.733 Z M 315.636,444.73 C 315.636,444.558 315.652,444.428 315.685,444.34 C 315.718,444.252 315.767,444.185 315.832,444.139 C 315.897,444.094 315.965,444.071 316.037,444.071 C 316.11,444.071 316.178,444.093 316.241,444.138 C 316.304,444.182 316.352,444.249 316.385,444.338 C 316.425,444.447 316.446,444.577 316.446,444.73 C 316.446,444.884 316.428,445.009 316.391,445.107 C 316.355,445.205 316.304,445.276 316.24,445.321 C 316.176,445.367 316.108,445.389 316.037,445.389 C 315.964,445.389 315.896,445.367 315.832,445.321 C 315.768,445.276 315.719,445.209 315.686,445.121 C 315.653,445.033 315.636,444.903 315.636,444.73 Z" marker-start="none" marker-end="none"/>
       <path d="M 316.746,444.733 C 316.746,444.934 316.769,445.09 316.816,445.2 C 316.862,445.31 316.928,445.393 317.012,445.449 C 317.097,445.506 317.192,445.534 317.296,445.534 C 317.403,445.534 317.499,445.506 317.585,445.449 C 317.671,445.392 317.739,445.306 317.789,445.192 C 317.839,445.078 317.865,444.925 317.865,444.733 C 317.865,444.542 317.84,444.389 317.79,444.276 C 317.741,444.163 317.673,444.077 317.586,444.02 C 317.499,443.962 317.403,443.933 317.296,443.933 C 317.192,443.933 317.097,443.961 317.013,444.017 C 316.929,444.073 316.864,444.157 316.817,444.267 C 316.769,444.378 316.746,444.534 316.746,444.733 Z M 316.901,444.73 C 316.901,444.558 316.917,444.428 316.95,444.34 C 316.983,444.252 317.032,444.185 317.097,444.139 C 317.162,444.094 317.23,444.071 317.302,444.071 C 317.375,444.071 317.443,444.093 317.506,444.138 C 317.569,444.182 317.617,444.249 317.65,444.338 C 317.69,444.447 317.711,444.577 317.711,444.73 C 317.711,444.884 317.693,445.009 317.656,445.107 C 317.62,445.205 317.569,445.276 317.505,445.321 C 317.441,445.367 317.373,445.389 317.302,445.389 C 317.229,445.389 317.161,445.367 317.097,445.321 C 317.033,445.276 316.984,445.209 316.951,445.121 C 316.918,445.033 316.901,444.903 316.901,444.73 Z" marker-start="none" marker-end="none"/>
       <path d="M 318.625,445.534 L 318.784,445.534 L 318.784,443.559 L 318.625,443.559 L 318.625,445.534 Z" marker-start="none" marker-end="none"/>
       <path d="M 319.736,445.018 L 319.578,445.018 C 319.583,445.169 319.637,445.293 319.741,445.389 C 319.844,445.486 319.972,445.534 320.124,445.534 C 320.275,445.534 320.397,445.489 320.49,445.399 C 320.584,445.308 320.63,445.201 320.63,445.078 C 320.63,444.992 320.608,444.911 320.563,444.835 C 320.519,444.76 320.432,444.657 320.304,444.528 L 319.896,444.119 L 320.653,444.119 L 320.653,443.972 L 319.539,443.972 L 320.166,444.601 C 320.293,444.727 320.375,444.821 320.414,444.882 C 320.452,444.943 320.471,445.008 320.471,445.075 C 320.471,445.161 320.437,445.235 320.368,445.297 C 320.299,445.358 320.215,445.389 320.115,445.389 C 320.011,445.389 319.924,445.357 319.854,445.292 C 319.785,445.227 319.745,445.136 319.736,445.018 Z" marker-start="none" marker-end="none"/>
       <path d="M 320.809,444.733 C 320.809,444.934 320.832,445.09 320.879,445.2 C 320.925,445.31 320.991,445.393 321.075,445.449 C 321.16,445.506 321.255,445.534 321.359,445.534 C 321.466,445.534 321.562,445.506 321.648,445.449 C 321.734,445.392 321.802,445.306 321.852,445.192 C 321.902,445.078 321.928,444.925 321.928,444.733 C 321.928,444.542 321.903,444.389 321.853,444.276 C 321.804,444.163 321.736,444.077 321.649,444.02 C 321.562,443.962 321.466,443.933 321.359,443.933 C 321.255,443.933 321.16,443.961 321.076,444.017 C 320.992,444.073 320.927,444.157 320.88,444.267 C 320.832,444.378 320.809,444.534 320.809,444.733 Z M 320.964,444.73 C 320.964,444.558 320.98,444.428 321.013,444.34 C 321.046,444.252 321.095,444.185 321.16,444.139 C 321.225,444.094 321.293,444.071 321.365,444.071 C 321.438,444.071 321.506,444.093 321.569,444.138 C 321.632,444.182 321.68,444.249 321.713,444.338 C 321.753,444.447 321.774,444.577 321.774,444.73 C 321.774,444.884 321.756,445.009 321.719,445.107 C 321.683,445.205 321.632,445.276 321.568,445.321 C 321.504,445.367 321.436,445.389 321.365,445.389 C 321.292,445.389 321.224,445.367 321.16,445.321 C 321.096,445.276 321.047,445.209 321.014,445.121 C 320.981,445.033 320.964,444.903 320.964,444.73 Z" marker-start="none" marker-end="none"/>
      </g>
     </g>
     <g id="Group_10" fill-rule="nonzero" stroke-width="0.035" fill="#ffffff" stroke-miterlimit="79.8403193612775">
      <g id="Group_11">
       <path d="M 319.715,438.034 L 319.715,439.068 L 319.924,439.068 L 319.924,438.034 L 319.715,438.034 Z" stroke="none" marker-start="none" marker-end="none"/>
       <path d="M 320.123,438.034 L 320.123,439.068 L 320.458,439.068 C 320.585,439.068 320.667,439.062 320.706,439.052 C 320.765,439.037 320.815,439.003 320.855,438.951 C 320.895,438.899 320.915,438.832 320.915,438.75 C 320.915,438.686 320.903,438.633 320.88,438.589 C 320.857,438.546 320.828,438.512 320.792,438.487 C 320.757,438.463 320.721,438.446 320.684,438.438 C 320.634,438.429 320.562,438.424 320.468,438.424 L 320.331,438.424 L 320.331,438.034 L 320.123,438.034 Z M 320.331,438.893 L 320.331,438.599 L 320.446,438.599 C 320.528,438.599 320.583,438.605 320.611,438.615 C 320.639,438.626 320.66,438.643 320.676,438.666 C 320.692,438.689 320.7,438.716 320.7,438.747 C 320.7,438.784 320.689,438.815 320.666,438.84 C 320.644,438.864 320.616,438.88 320.583,438.886 C 320.558,438.89 320.508,438.893 320.432,438.893 L 320.331,438.893 Z" stroke="none" marker-start="none" marker-end="none"/>
       <path d="M 321.233,438.737 L 321.041,438.737 C 321.046,438.849 321.081,438.937 321.146,439.001 C 321.211,439.065 321.295,439.097 321.397,439.097 C 321.46,439.097 321.516,439.084 321.564,439.057 C 321.612,439.031 321.651,438.993 321.68,438.942 C 321.708,438.892 321.723,438.841 321.723,438.79 C 321.723,438.728 321.705,438.662 321.67,438.591 C 321.635,438.52 321.571,438.436 321.478,438.339 L 321.362,438.216 L 321.731,438.216 L 321.731,438.034 L 321.013,438.034 L 321.013,438.128 L 321.334,438.455 C 321.411,438.534 321.463,438.597 321.488,438.645 C 321.514,438.692 321.527,438.736 321.527,438.774 C 321.527,438.814 321.513,438.847 321.487,438.873 C 321.46,438.899 321.426,438.912 321.384,438.912 C 321.342,438.912 321.307,438.897 321.278,438.865 C 321.25,438.834 321.235,438.791 321.233,438.737 Z" stroke="#ffffff" marker-start="none" marker-end="none"/>
       <path d="M 322.028,439.071 L 322.324,439.071 L 322.324,438.034 L 322.128,438.034 L 322.128,438.886 L 321.914,438.886 L 322.028,439.071 Z" stroke="#ffffff" marker-start="none" marker-end="none"/>
      </g>
     </g>
     <g id="Group_12" fill-rule="nonzero" stroke="none" stroke-width="0.025" fill="#ffffff" stroke-miterlimit="79.8403193612775">
      <g id="Group_13">
       <path d="M 308.337,388.918 L 308.482,388.918 L 308.482,388.154 L 308.337,388.154 L 308.337,388.918 Z" marker-start="none" marker-end="none"/>
       <path d="M 308.63,388.719 L 308.772,388.719 L 308.772,388.661 C 308.804,388.688 308.833,388.707 308.859,388.718 C 308.885,388.728 308.912,388.734 308.94,388.734 C 308.996,388.734 309.043,388.714 309.082,388.675 C 309.115,388.642 309.132,388.592 309.132,388.527 L 309.132,388.154 L 308.992,388.154 L 308.992,388.401 C 308.992,388.469 308.988,388.514 308.982,388.536 C 308.976,388.558 308.966,388.575 308.951,388.587 C 308.936,388.598 308.917,388.604 308.895,388.604 C 308.866,388.604 308.841,388.595 308.821,388.575 C 308.8,388.556 308.786,388.53 308.778,388.496 C 308.774,388.478 308.772,388.44 308.772,388.381 L 308.772,388.154 L 308.63,388.154 L 308.63,388.719 Z" marker-start="none" marker-end="none"/>
       <path d="M 309.208,388.719 L 309.353,388.719 L 309.496,388.385 L 309.638,388.719 L 309.782,388.719 L 309.542,388.154 L 309.45,388.154 L 309.208,388.719 Z" marker-start="none" marker-end="none"/>
       <path d="M 310.432,388.395 L 309.976,388.395 C 309.983,388.355 310,388.323 310.029,388.299 C 310.057,388.276 310.094,388.264 310.138,388.264 C 310.191,388.264 310.237,388.282 310.275,388.319 L 310.394,388.263 C 310.365,388.221 310.329,388.19 310.287,388.169 C 310.246,388.149 310.196,388.139 310.139,388.139 C 310.05,388.139 309.978,388.167 309.922,388.223 C 309.867,388.279 309.839,388.349 309.839,388.433 C 309.839,388.519 309.867,388.591 309.922,388.648 C 309.978,388.705 310.048,388.734 310.131,388.734 C 310.22,388.734 310.293,388.705 310.349,388.648 C 310.404,388.591 310.432,388.516 310.432,388.422 L 310.432,388.395 Z M 310.289,388.507 C 310.28,388.539 310.262,388.564 310.234,388.584 C 310.206,388.604 310.175,388.614 310.138,388.614 C 310.099,388.614 310.064,388.602 310.034,388.58 C 310.015,388.566 309.998,388.542 309.982,388.507 L 310.289,388.507 Z" marker-start="none" marker-end="none"/>
       <path d="M 310.514,388.719 L 310.636,388.719 L 310.636,388.648 C 310.649,388.676 310.666,388.697 310.688,388.712 C 310.71,388.726 310.734,388.734 310.76,388.734 C 310.778,388.734 310.797,388.729 310.818,388.719 L 310.773,388.597 C 310.757,388.605 310.743,388.609 310.732,388.609 C 310.71,388.609 310.692,388.596 310.677,388.569 C 310.662,388.542 310.654,388.489 310.654,388.41 L 310.655,388.382 L 310.655,388.154 L 310.514,388.154 L 310.514,388.719 Z" marker-start="none" marker-end="none"/>
       <path d="M 310.905,388.928 L 311.047,388.928 L 311.047,388.719 L 311.131,388.719 L 311.131,388.597 L 311.047,388.597 L 311.047,388.154 L 310.905,388.154 L 310.905,388.597 L 310.833,388.597 L 310.833,388.719 L 310.905,388.719 L 310.905,388.928 Z" marker-start="none" marker-end="none"/>
       <path d="M 311.774,388.395 L 311.318,388.395 C 311.325,388.355 311.342,388.323 311.371,388.299 C 311.399,388.276 311.436,388.264 311.48,388.264 C 311.533,388.264 311.579,388.282 311.617,388.319 L 311.736,388.263 C 311.707,388.221 311.671,388.19 311.629,388.169 C 311.588,388.149 311.538,388.139 311.481,388.139 C 311.392,388.139 311.32,388.167 311.264,388.223 C 311.209,388.279 311.181,388.349 311.181,388.433 C 311.181,388.519 311.209,388.591 311.264,388.648 C 311.32,388.705 311.39,388.734 311.473,388.734 C 311.562,388.734 311.635,388.705 311.691,388.648 C 311.746,388.591 311.774,388.516 311.774,388.422 L 311.774,388.395 Z M 311.631,388.507 C 311.622,388.539 311.604,388.564 311.576,388.584 C 311.548,388.604 311.517,388.614 311.48,388.614 C 311.441,388.614 311.406,388.602 311.376,388.58 C 311.357,388.566 311.34,388.542 311.324,388.507 L 311.631,388.507 Z" marker-start="none" marker-end="none"/>
       <path d="M 311.856,388.719 L 311.978,388.719 L 311.978,388.648 C 311.991,388.676 312.008,388.697 312.03,388.712 C 312.052,388.726 312.076,388.734 312.102,388.734 C 312.12,388.734 312.139,388.729 312.16,388.719 L 312.115,388.597 C 312.099,388.605 312.085,388.609 312.074,388.609 C 312.052,388.609 312.034,388.596 312.019,388.569 C 312.004,388.542 311.996,388.489 311.996,388.41 L 311.997,388.382 L 311.997,388.154 L 311.856,388.154 L 311.856,388.719 Z" marker-start="none" marker-end="none"/>
      </g>
     </g>
     <g id="Group_14" fill-rule="nonzero" stroke="none" stroke-width="0.025" fill="#ffffff" stroke-miterlimit="79.8403193612775">
      <g id="Group_15">
       <path d="M 308.894,385.555 L 308.792,385.457 C 308.722,385.53 308.644,385.567 308.558,385.567 C 308.485,385.567 308.423,385.542 308.373,385.492 C 308.323,385.442 308.298,385.381 308.298,385.308 C 308.298,385.257 308.309,385.211 308.331,385.172 C 308.353,385.132 308.385,385.101 308.425,385.079 C 308.466,385.056 308.511,385.045 308.56,385.045 C 308.603,385.045 308.641,385.053 308.676,385.069 C 308.711,385.085 308.75,385.113 308.792,385.155 L 308.891,385.052 C 308.834,384.997 308.781,384.959 308.73,384.937 C 308.68,384.916 308.623,384.905 308.558,384.905 C 308.439,384.905 308.342,384.943 308.266,385.018 C 308.191,385.094 308.153,385.19 308.153,385.308 C 308.153,385.384 308.17,385.452 308.205,385.511 C 308.239,385.571 308.288,385.618 308.353,385.654 C 308.417,385.69 308.486,385.708 308.56,385.708 C 308.623,385.708 308.684,385.695 308.743,385.668 C 308.801,385.642 308.851,385.604 308.894,385.555 Z" marker-start="none" marker-end="none"/>
       <path d="M 309.006,385.708 L 309.147,385.708 L 309.147,385.433 C 309.174,385.457 309.202,385.475 309.23,385.487 C 309.258,385.499 309.287,385.505 309.316,385.505 C 309.372,385.505 309.419,385.485 309.457,385.446 C 309.49,385.413 309.507,385.363 309.507,385.298 L 309.507,384.925 L 309.367,384.925 L 309.367,385.172 C 309.367,385.238 309.364,385.282 309.358,385.306 C 309.351,385.329 309.341,385.346 309.326,385.358 C 309.311,385.369 309.292,385.375 309.27,385.375 C 309.241,385.375 309.216,385.365 309.196,385.346 C 309.175,385.327 309.161,385.301 309.153,385.268 C 309.149,385.251 309.147,385.212 309.147,385.152 L 309.147,384.925 L 309.006,384.925 L 309.006,385.708 Z" marker-start="none" marker-end="none"/>
       <path d="M 310.062,385.49 L 310.204,385.49 L 310.204,384.925 L 310.062,384.925 L 310.062,384.984 C 310.034,384.958 310.007,384.939 309.979,384.927 C 309.951,384.916 309.921,384.91 309.888,384.91 C 309.815,384.91 309.752,384.938 309.698,384.995 C 309.645,385.052 309.618,385.122 309.618,385.206 C 309.618,385.294 309.644,385.365 309.696,385.421 C 309.747,385.477 309.81,385.505 309.884,385.505 C 309.918,385.505 309.95,385.498 309.98,385.485 C 310.009,385.473 310.037,385.453 310.062,385.428 L 310.062,385.49 Z M 309.913,385.374 C 309.869,385.374 309.832,385.358 309.803,385.327 C 309.774,385.296 309.76,385.256 309.76,385.208 C 309.76,385.159 309.774,385.119 309.804,385.087 C 309.834,385.056 309.87,385.04 309.914,385.04 C 309.958,385.04 309.995,385.055 310.025,385.086 C 310.054,385.117 310.069,385.158 310.069,385.208 C 310.069,385.258 310.054,385.297 310.025,385.328 C 309.995,385.358 309.958,385.374 309.913,385.374 Z" marker-start="none" marker-end="none"/>
       <path d="M 310.314,385.49 L 310.436,385.49 L 310.436,385.419 C 310.449,385.447 310.466,385.468 310.488,385.483 C 310.51,385.497 310.534,385.505 310.56,385.505 C 310.578,385.505 310.597,385.5 310.618,385.49 L 310.573,385.368 C 310.557,385.376 310.543,385.38 310.532,385.38 C 310.51,385.38 310.492,385.367 310.477,385.34 C 310.462,385.313 310.454,385.26 310.454,385.181 L 310.455,385.153 L 310.455,384.925 L 310.314,384.925 L 310.314,385.49 Z" marker-start="none" marker-end="none"/>
       <path d="M 311.106,385.49 L 311.248,385.49 L 311.248,385.006 C 311.248,384.91 311.228,384.84 311.19,384.795 C 311.138,384.734 311.06,384.703 310.956,384.703 C 310.901,384.703 310.854,384.71 310.817,384.724 C 310.779,384.738 310.747,384.758 310.721,384.785 C 310.695,384.812 310.676,384.844 310.663,384.883 L 310.82,384.883 C 310.834,384.867 310.851,384.855 310.873,384.847 C 310.895,384.839 310.921,384.835 310.951,384.835 C 310.989,384.835 311.02,384.84 311.043,384.852 C 311.066,384.864 311.082,384.879 311.092,384.898 C 311.101,384.917 311.106,384.949 311.106,384.995 C 311.081,384.97 311.055,384.952 311.028,384.941 C 311,384.93 310.969,384.925 310.935,384.925 C 310.859,384.925 310.795,384.952 310.742,385.007 C 310.69,385.061 310.664,385.131 310.664,385.215 C 310.664,385.304 310.692,385.376 310.747,385.431 C 310.797,385.48 310.857,385.505 310.927,385.505 C 310.959,385.505 310.99,385.499 311.019,385.487 C 311.048,385.475 311.077,385.455 311.106,385.428 L 311.106,385.49 Z M 310.959,385.372 C 310.914,385.372 310.877,385.357 310.848,385.327 C 310.819,385.297 310.805,385.259 310.805,385.214 C 310.805,385.167 310.82,385.128 310.849,385.098 C 310.879,385.068 310.917,385.053 310.962,385.053 C 311.006,385.053 311.042,385.068 311.071,385.097 C 311.099,385.127 311.113,385.165 311.113,385.213 C 311.113,385.26 311.099,385.298 311.07,385.328 C 311.042,385.357 311.004,385.372 310.959,385.372 Z" marker-start="none" marker-end="none"/>
       <path d="M 311.958,385.166 L 311.502,385.166 C 311.509,385.126 311.526,385.094 311.555,385.07 C 311.583,385.047 311.62,385.035 311.664,385.035 C 311.717,385.035 311.763,385.053 311.801,385.09 L 311.92,385.034 C 311.891,384.992 311.855,384.961 311.813,384.94 C 311.772,384.92 311.722,384.91 311.665,384.91 C 311.576,384.91 311.504,384.938 311.448,384.994 C 311.393,385.05 311.365,385.12 311.365,385.204 C 311.365,385.29 311.393,385.362 311.448,385.419 C 311.504,385.476 311.574,385.505 311.657,385.505 C 311.746,385.505 311.819,385.476 311.875,385.419 C 311.93,385.362 311.958,385.287 311.958,385.193 L 311.958,385.166 Z M 311.815,385.278 C 311.806,385.31 311.788,385.335 311.76,385.355 C 311.732,385.375 311.701,385.385 311.664,385.385 C 311.625,385.385 311.59,385.373 311.56,385.351 C 311.541,385.337 311.524,385.313 311.508,385.278 L 311.815,385.278 Z" marker-start="none" marker-end="none"/>
       <path d="M 312.04,385.49 L 312.162,385.49 L 312.162,385.419 C 312.175,385.447 312.192,385.468 312.214,385.483 C 312.236,385.497 312.26,385.505 312.286,385.505 C 312.304,385.505 312.323,385.5 312.344,385.49 L 312.299,385.368 C 312.283,385.376 312.269,385.38 312.258,385.38 C 312.236,385.38 312.218,385.367 312.203,385.34 C 312.188,385.313 312.18,385.26 312.18,385.181 L 312.181,385.153 L 312.181,384.925 L 312.04,384.925 L 312.04,385.49 Z" marker-start="none" marker-end="none"/>
      </g>
     </g>
     <g id="Group_16" fill-rule="nonzero" stroke="none" stroke-width="0.025" fill="#ffffff" stroke-miterlimit="79.8403193612775">
      <g id="Group_17">
       <path d="M 309.046,382.67 L 309.193,382.67 L 309.488,381.906 L 309.336,381.906 L 309.277,382.063 L 308.965,382.063 L 308.902,381.906 L 308.751,381.906 L 309.046,382.67 Z M 309.121,382.467 L 309.019,382.205 L 309.222,382.205 L 309.121,382.467 Z" marker-start="none" marker-end="none"/>
       <path d="M 309.57,382.689 L 309.712,382.689 L 309.712,381.906 L 309.57,381.906 L 309.57,382.689 Z" marker-start="none" marker-end="none"/>
       <path d="M 310.258,382.471 L 310.4,382.471 L 310.4,381.906 L 310.258,381.906 L 310.258,381.965 C 310.23,381.939 310.203,381.92 310.175,381.908 C 310.147,381.897 310.117,381.891 310.084,381.891 C 310.011,381.891 309.948,381.919 309.894,381.976 C 309.841,382.033 309.814,382.103 309.814,382.187 C 309.814,382.275 309.84,382.346 309.892,382.402 C 309.943,382.458 310.006,382.486 310.08,382.486 C 310.114,382.486 310.146,382.479 310.176,382.466 C 310.205,382.454 310.233,382.434 310.258,382.409 L 310.258,382.471 Z M 310.109,382.355 C 310.065,382.355 310.028,382.339 309.999,382.308 C 309.97,382.277 309.956,382.237 309.956,382.189 C 309.956,382.14 309.97,382.1 310,382.068 C 310.03,382.037 310.066,382.021 310.11,382.021 C 310.154,382.021 310.191,382.036 310.221,382.067 C 310.25,382.098 310.265,382.139 310.265,382.189 C 310.265,382.239 310.25,382.278 310.221,382.309 C 310.191,382.339 310.154,382.355 310.109,382.355 Z" marker-start="none" marker-end="none"/>
       <path d="M 310.51,382.471 L 310.632,382.471 L 310.632,382.4 C 310.645,382.428 310.662,382.449 310.684,382.464 C 310.706,382.478 310.73,382.486 310.756,382.486 C 310.774,382.486 310.793,382.481 310.814,382.471 L 310.769,382.349 C 310.753,382.357 310.739,382.361 310.728,382.361 C 310.706,382.361 310.688,382.348 310.673,382.321 C 310.658,382.294 310.65,382.241 310.65,382.162 L 310.651,382.134 L 310.651,381.906 L 310.51,381.906 L 310.51,382.471 Z" marker-start="none" marker-end="none"/>
       <path d="M 310.883,382.471 L 311.026,382.471 L 311.026,382.406 C 311.05,382.433 311.077,382.453 311.106,382.466 C 311.136,382.479 311.168,382.486 311.203,382.486 C 311.239,382.486 311.271,382.477 311.299,382.46 C 311.327,382.442 311.35,382.417 311.368,382.384 C 311.39,382.417 311.418,382.442 311.451,382.46 C 311.483,382.477 311.519,382.486 311.558,382.486 C 311.598,382.486 311.633,382.476 311.664,382.458 C 311.694,382.439 311.716,382.414 311.73,382.384 C 311.743,382.354 311.75,382.305 311.75,382.237 L 311.75,381.906 L 311.607,381.906 L 311.607,382.192 C 311.607,382.257 311.599,382.3 311.583,382.323 C 311.567,382.345 311.543,382.357 311.511,382.357 C 311.487,382.357 311.465,382.35 311.446,382.336 C 311.427,382.322 311.412,382.303 311.403,382.278 C 311.394,382.254 311.389,382.215 311.389,382.161 L 311.389,381.906 L 311.246,381.906 L 311.246,382.179 C 311.246,382.23 311.242,382.267 311.235,382.289 C 311.227,382.312 311.216,382.329 311.201,382.34 C 311.186,382.351 311.168,382.357 311.147,382.357 C 311.124,382.357 311.102,382.35 311.083,382.336 C 311.064,382.322 311.049,382.302 311.04,382.277 C 311.03,382.251 311.026,382.211 311.026,382.157 L 311.026,381.906 L 310.883,381.906 L 310.883,382.471 Z" marker-start="none" marker-end="none"/>
      </g>
     </g>
     <path d="M 288.063,458.534 L 288.098,392.235" fill="none" stroke="#167cd5" stroke-width="0.272" stroke-miterlimit="79.8403193612775"/>
     <path d="M 331.943,458.403 L 331.979,392.104" fill="none" stroke="#167cd5" stroke-width="0.272" stroke-miterlimit="79.8403193612775"/>
     <path d="M 332.18,385.251 C 331.674,386.066 331.018,386.279 330.077,386.27 L 324.436,386.548 L 315.079,386.565 C 314.464,386.523 314.14,386.801 314.131,387.432 L 313.389,391.502 C 313.281,392.001 312.863,392.223 312.339,392.372 L 308.013,392.399 C 307.554,392.402 307.253,392.124 307.065,391.656 L 306.399,387.457 C 306.304,386.784 305.905,386.444 305.067,386.583 L 295.606,386.599 L 290.789,386.379 C 289.545,386.573 288.595,385.582 287.839,384.965" fill="none" stroke="#1788ec" stroke-width="0.545" stroke-miterlimit="79.8403193612775"/>
     <g id="Group_18">
      <g id="Group_19" stroke="#ffffff">
       <path d="M 298.642,437.633 L 299.594,437.656 C 299.725,437.659 299.779,437.754 299.715,437.869 L 299.207,438.775 C 299.142,438.889 299.042,438.887 298.983,438.77 L 298.511,437.84 C 298.452,437.723 298.51,437.63 298.642,437.633 Z" stroke-width="0.15" stroke-linejoin="miter" marker-start="none" marker-end="none" stroke-miterlimit="79.8403193612775"/>
       <path d="M 299.138,438.52 L 298.989,438.195 L 299.229,438.235 L 299.155,438.012" fill="none" marker-end="url(#DefaultArrowStyled)" stroke-width="0.073" stroke-miterlimit="79.8403193612775"/>
      </g>
      <g id="Group_20">
       <g id="Group_21" fill-rule="nonzero" stroke="none" stroke-width="0.018" fill="#ffffff" stroke-miterlimit="79.8403193612775">
        <g id="Group_22">
         <path d="M 301.665,438.544 C 301.685,438.544 301.702,438.539 301.714,438.529 C 301.725,438.519 301.731,438.504 301.731,438.486 C 301.731,438.468 301.721,438.452 301.701,438.438 C 301.68,438.423 301.657,438.416 301.63,438.416 C 301.609,438.416 301.593,438.421 301.581,438.431 C 301.568,438.441 301.562,438.454 301.562,438.47 C 301.562,438.49 301.572,438.507 301.592,438.522 C 301.612,438.537 301.637,438.544 301.665,438.544 Z M 301.784,438.039 L 301.517,438.039 L 301.517,438.054 L 301.567,438.054 L 301.567,438.331 L 301.517,438.331 L 301.517,438.346 L 301.642,438.346 C 301.673,438.346 301.704,438.349 301.735,438.356 L 301.735,438.054 L 301.784,438.054 L 301.784,438.039 Z" marker-start="none" marker-end="none"/>
        </g>
       </g>
       <path d="M 301.261,438.849 L 301.261,437.782" fill="none" stroke="#ffffff" stroke-width="0.15" stroke-miterlimit="79.8403193612775"/>
       <path d="M 300.592,438.759 L 300.592,437.567" fill="none" stroke="#ffffff" stroke-width="0.15" stroke-miterlimit="79.8403193612775"/>
       <path d="M 301.939,438.771 L 301.939,437.579" fill="none" stroke="#ffffff" stroke-width="0.15" stroke-miterlimit="79.8403193612775"/>
       <path d="M 300.588,438.689 C 301.03,438.829 301.484,438.868 301.957,438.689" fill="none" stroke="#ffffff" stroke-width="0.15" stroke-miterlimit="79.8403193612775"/>
       <path d="M 300.616,437.627 C 301.021,437.855 301.464,437.85 301.945,437.627" fill="none" stroke="#ffffff" stroke-width="0.15" stroke-miterlimit="79.8403193612775"/>
      </g>
      <g id="Group_23">
       <path d="M 305.198,437.634 L 306.783,437.66 C 306.915,437.662 306.954,437.746 306.871,437.849 L 306.101,438.799 C 306.018,438.901 305.888,438.898 305.811,438.792 L 305.101,437.822 C 305.023,437.716 305.067,437.631 305.198,437.634 Z" stroke="#ffffff" stroke-width="0.15" stroke-linejoin="miter" marker-start="none" marker-end="none" stroke-miterlimit="79.8403193612775"/>
       <path d="M 305.964,438.481 C 306.157,438.481 306.314,438.324 306.314,438.131 C 306.314,437.937 306.157,437.78 305.964,437.78 C 305.77,437.78 305.613,437.937 305.613,438.131 C 305.613,438.324 305.77,438.481 305.964,438.481 Z" stroke="#ffffff" stroke-width="0.073" marker-start="none" marker-end="none" stroke-miterlimit="79.8403193612775"/>
       <path d="M 306.254,438.475 L 306.037,438.29 L 306.159,438.148 L 306.376,438.333 L 306.254,438.475 Z" stroke="none" fill="#1890f9" stroke-width="0.036" stroke-linejoin="miter" marker-start="none" marker-end="none" stroke-miterlimit="79.8403193612775"/>
       <path d="M 305.802,438.169 L 305.922,438.265 L 305.923,437.969 L 306.278,438.367" fill="none" stroke="#ffffff" stroke-width="0.073" stroke-miterlimit="79.8403193612775"/>
      </g>
      <g id="Group_24" fill="#1890f9">
       <path d="M 303.256,438.717 C 303.537,438.717 303.764,438.49 303.764,438.208 C 303.764,437.926 303.537,437.698 303.256,437.698 C 302.974,437.698 302.746,437.926 302.746,438.208 C 302.746,438.49 302.974,438.717 303.256,438.717 Z" stroke="#ffffff" stroke-width="0.15" marker-start="none" marker-end="none" stroke-miterlimit="79.8403193612775"/>
       <path d="M 303.359,438.928 L 303.359,437.593 L 303.918,437.593 L 303.918,438.928 L 303.359,438.928 Z" stroke-width="0.073" stroke="none" stroke-linejoin="miter" marker-start="none" marker-end="none" stroke-miterlimit="79.8403193612775"/>
       <path d="M 304.22,438.734 C 304.501,438.734 304.729,438.506 304.729,438.225 C 304.729,437.943 304.501,437.715 304.22,437.715 C 303.938,437.715 303.71,437.943 303.71,438.225 C 303.71,438.506 303.938,438.734 304.22,438.734 Z" stroke="#ffffff" stroke-width="0.15" marker-start="none" marker-end="none" stroke-miterlimit="79.8403193612775"/>
       <path d="M 303.74,438.214 L 304.22,438.214" fill="none" stroke="#ffffff" stroke-width="0.15" stroke-miterlimit="79.8403193612775"/>
       <path d="M 304.363,438.894 L 304.363,437.559 L 304.922,437.559 L 304.922,438.894 L 304.363,438.894 Z" stroke-width="0.073" stroke="none" stroke-linejoin="miter" marker-start="none" marker-end="none" stroke-miterlimit="79.8403193612775"/>
      </g>
     </g>
     <g id="Group_25">
      <path d="M 316.005,377.935 C 316.556,377.935 317.004,377.487 317.004,376.936 C 317.004,376.384 316.556,375.936 316.005,375.936 C 315.453,375.936 315.005,376.384 315.005,376.936 C 315.005,377.487 315.453,377.935 316.005,377.935 Z" fill="#7f7f7f" stroke="#4c4c4c" stroke-width="0.066" marker-start="none" marker-end="none" stroke-miterlimit="79.8403193612775"/>
      <path d="M 316.005,377.78 C 316.47,377.78 316.848,377.402 316.848,376.937 C 316.848,376.471 316.47,376.093 316.005,376.093 C 315.539,376.093 315.161,376.471 315.161,376.937 C 315.161,377.402 315.539,377.78 316.005,377.78 Z" fill="#333333" stroke="#4c4c4c" stroke-width="0.054" marker-start="none" marker-end="none" stroke-miterlimit="79.8403193612775"/>
      <g id="Group_26" fill-rule="nonzero" stroke="none" stroke-width="0.057" fill="#191919" stroke-miterlimit="79.8403193612775">
       <g id="Group_27">
        <path d="M 316.123,376.452 L 315.881,376.452 L 315.881,376.81 L 315.52,376.81 L 315.52,377.057 L 315.881,377.057 L 315.881,377.417 L 316.123,377.417 L 316.123,377.057 L 316.485,377.057 L 316.485,376.81 L 316.123,376.81 L 316.123,376.452 Z" marker-start="none" marker-end="none"/>
       </g>
      </g>
     </g>
     <g id="Group_28" fill-rule="nonzero" stroke="none" fill="#ffffff">
      <path d="M 298.55,459.386 C 298.55,459.386 298.213,459.517 297.872,459.243 C 297.872,459.243 297.467,458.971 297.392,457.826 C 297.392,457.826 297.37,457.635 297.539,457.606 C 297.539,457.606 297.709,457.573 297.731,457.716 C 297.752,457.859 297.749,458.583 298.069,458.953 C 298.069,458.953 298.1,459.001 298.185,459.037 C 298.257,459.08 298.313,459.161 298.354,459.224 C 298.354,459.224 298.417,459.308 298.55,459.386 L 298.55,459.386 Z" marker-start="none" marker-end="none"/>
      <path d="M 299.158,459.412 C 299.158,459.412 298.859,459.508 298.536,459.261 C 298.536,459.261 298.153,459.027 298.064,458.098 C 298.064,458.098 298.031,457.869 298.05,457.752 C 298.05,457.752 298.064,457.617 298.204,457.604 C 298.204,457.604 298.373,457.591 298.383,457.749 C 298.394,457.908 298.398,457.972 298.398,457.972 C 298.398,457.972 298.424,458.59 298.676,458.903 C 298.676,458.903 298.736,458.857 298.736,458.857 C 298.736,458.857 298.821,459.182 299.158,459.412 C 299.158,459.412 299.158,459.412 299.158,459.412 L 299.158,459.412 Z" marker-start="none" marker-end="none"/>
      <path d="M 299.766,459.412 C 299.766,459.412 299.365,459.506 299.074,459.19 C 299.074,459.19 298.787,458.933 298.702,458.296 C 298.702,458.296 298.666,457.954 298.66,457.786 C 298.66,457.786 298.658,457.625 298.813,457.604 C 298.813,457.604 298.973,457.595 298.984,457.765 C 298.984,457.765 298.993,458.546 299.282,458.903 C 299.282,458.903 299.353,458.859 299.353,458.859 C 299.353,458.859 299.479,459.219 299.766,459.412 C 299.766,459.412 299.766,459.412 299.766,459.412 L 299.766,459.412 Z" marker-start="none" marker-end="none"/>
      <path d="M 300.227,459.421 C 300.227,459.421 299.824,459.437 299.586,459.03 C 299.586,459.03 299.314,458.631 299.314,457.816 C 299.314,457.816 299.297,457.622 299.449,457.604 C 299.449,457.604 299.628,457.594 299.628,457.799 C 299.628,457.799 299.637,458.605 299.945,458.93 C 299.945,458.93 300.216,458.604 300.238,457.834 C 300.238,457.834 300.248,457.307 300.346,457.016 C 300.346,457.017 300.435,457.342 300.453,457.793 C 300.453,457.793 300.446,457.877 300.516,457.935 C 300.516,457.935 300.564,457.958 300.555,458.04 C 300.555,458.04 300.49,458.71 300.265,459.091 C 300.265,459.091 300.739,459.121 300.834,458.174 C 300.834,458.174 300.834,458.036 300.911,457.949 C 300.911,457.949 300.967,457.909 300.973,457.812 C 300.973,457.812 300.988,457.678 300.947,457.244 C 300.947,457.244 300.937,457.149 300.979,457.014 C 300.979,457.014 301.096,457.338 301.065,457.656 C 301.065,457.656 301.05,457.913 301.178,458.001 C 301.178,458.001 301.167,458.719 300.881,459.113 C 300.881,459.113 300.654,459.438 300.227,459.421 C 300.227,459.421 300.227,459.421 300.227,459.421 L 300.227,459.421 Z" marker-start="none" marker-end="none"/>
      <path d="M 301.637,456.166 C 301.637,456.166 301.973,456.033 302.315,456.308 C 302.315,456.308 302.72,456.579 302.794,457.725 C 302.794,457.725 302.816,457.915 302.649,457.945 C 302.649,457.945 302.48,457.977 302.457,457.834 C 302.434,457.692 302.439,456.967 302.118,456.597 C 302.118,456.597 302.087,456.549 302.002,456.513 C 301.93,456.47 301.875,456.389 301.832,456.326 C 301.832,456.326 301.77,456.243 301.637,456.166 L 301.637,456.166 Z" marker-start="none" marker-end="none"/>
      <path d="M 301.029,456.138 C 301.029,456.138 301.329,456.044 301.65,456.291 C 301.65,456.291 302.033,456.524 302.123,457.452 C 302.123,457.452 302.155,457.682 302.138,457.799 C 302.138,457.799 302.123,457.933 301.983,457.946 C 301.983,457.946 301.814,457.959 301.804,457.802 C 301.792,457.643 301.789,457.579 301.789,457.579 C 301.789,457.579 301.763,456.962 301.512,456.648 C 301.512,456.648 301.452,456.694 301.452,456.694 C 301.452,456.694 301.366,456.369 301.029,456.138 C 301.029,456.138 301.029,456.138 301.029,456.138 L 301.029,456.138 Z" marker-start="none" marker-end="none"/>
      <path d="M 300.422,456.138 C 300.422,456.138 300.822,456.045 301.113,456.36 C 301.113,456.36 301.4,456.618 301.485,457.255 C 301.485,457.255 301.521,457.598 301.527,457.765 C 301.527,457.765 301.531,457.926 301.375,457.946 C 301.375,457.946 301.214,457.956 301.204,457.786 C 301.204,457.786 301.193,457.006 300.904,456.648 C 300.904,456.648 300.833,456.693 300.833,456.693 C 300.833,456.693 300.708,456.331 300.422,456.138 C 300.422,456.138 300.422,456.138 300.422,456.138 L 300.422,456.138 Z" marker-start="none" marker-end="none"/>
      <path d="M 299.961,456.129 C 299.961,456.129 300.365,456.113 300.601,456.52 C 300.601,456.52 300.874,456.918 300.873,457.736 C 300.873,457.736 300.89,457.929 300.738,457.947 C 300.738,457.947 300.558,457.958 300.558,457.752 C 300.558,457.752 300.55,456.947 300.243,456.621 C 300.243,456.621 299.97,456.948 299.949,457.715 C 299.949,457.715 299.939,458.243 299.841,458.533 C 299.841,458.533 299.751,458.208 299.734,457.757 C 299.734,457.757 299.741,457.675 299.67,457.616 C 299.67,457.616 299.623,457.594 299.631,457.511 C 299.631,457.511 299.698,456.84 299.921,456.46 C 299.921,456.46 299.448,456.43 299.353,457.377 C 299.353,457.377 299.352,457.514 299.276,457.602 C 299.276,457.602 299.22,457.642 299.215,457.739 C 299.215,457.739 299.201,457.874 299.24,458.306 C 299.24,458.306 299.25,458.402 299.208,458.536 C 299.208,458.536 299.092,458.212 299.123,457.895 C 299.123,457.895 299.138,457.638 299.009,457.55 C 299.009,457.55 299.02,456.832 299.306,456.438 C 299.306,456.438 299.533,456.112 299.961,456.129 C 299.961,456.129 299.961,456.129 299.961,456.129 L 299.961,456.129 Z" marker-start="none" marker-end="none"/>
      <path d="M 303.348,458.49 C 303.348,458.49 303.519,459.017 303.519,459.017 C 303.547,459.108 303.645,459.149 303.727,459.106 C 303.801,459.071 303.831,458.989 303.798,458.909 C 303.798,458.909 303.507,458.178 303.507,458.178 C 303.463,458.07 303.39,458.03 303.288,458.067 C 303.241,458.082 303.21,458.114 303.186,458.178 C 303.186,458.178 302.894,458.909 302.894,458.909 C 302.862,458.989 302.892,459.071 302.966,459.106 C 303.048,459.149 303.145,459.106 303.173,459.017 C 303.173,459.017 303.348,458.49 303.348,458.49 C 303.348,458.49 303.348,458.49 303.348,458.49 L 303.348,458.49 Z" marker-start="none" marker-end="none"/>
      <path d="M 303.916,459.509 C 303.984,459.575 304.091,459.574 304.158,459.507 C 304.225,459.439 304.225,459.333 304.158,459.265 C 304.091,459.198 303.984,459.198 303.918,459.263 C 303.884,459.296 303.865,459.34 303.865,459.387 C 303.865,459.431 303.884,459.476 303.916,459.509 C 303.916,459.509 303.916,459.509 303.916,459.509 L 303.916,459.509 Z M 303.889,458.972 C 303.889,459.013 303.904,459.051 303.933,459.078 C 303.991,459.138 304.085,459.136 304.143,459.078 C 304.171,459.049 304.187,459.011 304.187,458.972 C 304.187,458.972 304.187,458.202 304.187,458.202 C 304.188,458.118 304.121,458.053 304.039,458.051 C 303.956,458.051 303.889,458.118 303.889,458.2 C 303.889,458.2 303.889,458.972 303.889,458.972 C 303.889,458.972 303.889,458.972 303.889,458.972 L 303.889,458.972 Z" marker-start="none" marker-end="none"/>
      <path d="M 304.908,459.121 C 305.13,459.096 305.203,459 305.177,458.901 C 305.162,458.836 305.114,458.797 305.057,458.799 C 305.048,458.801 305.037,458.801 305.028,458.803 C 305.028,458.803 305.012,458.808 305.012,458.808 C 305.012,458.808 304.985,458.818 304.985,458.818 C 304.985,458.818 304.966,458.824 304.966,458.824 C 304.966,458.824 304.939,458.833 304.939,458.833 C 304.759,458.892 304.615,458.786 304.617,458.583 C 304.621,458.38 304.768,458.282 304.958,458.346 C 304.958,458.346 304.991,458.358 304.991,458.358 C 304.991,458.358 305.004,458.363 305.004,458.363 C 305.092,458.394 305.169,458.351 305.182,458.261 C 305.194,458.186 305.143,458.116 305.004,458.072 C 304.97,458.061 304.934,458.053 304.895,458.049 C 304.563,458.019 304.313,458.25 304.317,458.591 C 304.32,458.933 304.577,459.157 304.908,459.121 C 304.908,459.121 304.908,459.121 304.908,459.121 L 304.908,459.121 Z" marker-start="none" marker-end="none"/>
      <path d="M 305.4,459.109 C 305.4,459.109 305.398,459.281 305.398,459.281 C 305.398,459.361 305.464,459.429 305.546,459.429 C 305.627,459.429 305.695,459.361 305.693,459.281 C 305.693,459.281 305.693,459.109 305.693,459.109 C 305.693,459.109 305.781,459.109 305.781,459.109 C 305.815,459.109 305.85,459.096 305.875,459.069 C 305.928,459.019 305.928,458.933 305.875,458.881 C 305.849,458.857 305.815,458.843 305.779,458.843 C 305.779,458.843 305.693,458.843 305.693,458.843 C 305.693,458.843 305.693,458.204 305.693,458.204 C 305.693,458.165 305.676,458.126 305.65,458.097 C 305.593,458.04 305.5,458.04 305.443,458.097 C 305.415,458.126 305.4,458.165 305.4,458.204 C 305.4,458.204 305.401,458.845 305.401,458.845 C 305.401,458.845 305.349,458.845 305.349,458.845 C 305.312,458.845 305.278,458.859 305.25,458.886 C 305.199,458.936 305.199,459.019 305.252,459.071 C 305.278,459.096 305.312,459.109 305.349,459.109 C 305.349,459.109 305.4,459.109 305.4,459.109 C 305.4,459.109 305.4,459.109 305.4,459.109 L 305.4,459.109 Z" marker-start="none" marker-end="none"/>
      <path d="M 305.973,458.979 C 305.973,459.049 306.031,459.115 306.122,459.121 C 306.214,459.129 306.271,459.071 306.266,459.015 C 306.266,459.015 306.265,459 306.265,459 C 306.272,459.009 306.28,459.019 306.29,459.026 C 306.404,459.151 306.533,459.149 306.594,459.06 C 306.645,458.983 306.617,458.894 306.541,458.86 C 306.541,458.86 306.525,458.854 306.525,458.854 C 306.525,458.854 306.484,458.84 306.484,458.84 C 306.446,458.826 306.419,458.812 306.395,458.799 C 306.302,458.744 306.269,458.693 306.269,458.644 C 306.269,458.644 306.269,458.202 306.269,458.202 C 306.269,458.12 306.202,458.053 306.12,458.053 C 306.037,458.053 305.973,458.118 305.973,458.2 C 305.973,458.2 305.973,458.979 305.973,458.979 C 305.973,458.979 305.973,458.979 305.973,458.979 L 305.973,458.979 Z" marker-start="none" marker-end="none"/>
      <path d="M 306.906,458.543 C 306.931,458.365 307.035,458.286 307.162,458.315 C 307.248,458.332 307.311,458.409 307.327,458.541 C 307.33,458.572 307.33,458.602 307.327,458.634 C 307.31,458.761 307.243,458.836 307.162,458.854 C 307.039,458.879 306.929,458.803 306.906,458.631 C 306.905,458.615 306.905,458.6 306.905,458.585 C 306.905,458.569 306.905,458.557 306.906,458.543 C 306.906,458.543 306.906,458.543 306.906,458.543 L 306.906,458.543 Z M 306.682,458.876 C 306.778,459.036 306.942,459.129 307.118,459.129 C 307.397,459.129 307.628,458.896 307.629,458.589 C 307.629,458.279 307.399,458.047 307.118,458.047 C 306.835,458.047 306.607,458.279 306.607,458.589 C 306.607,458.701 306.632,458.795 306.682,458.876 C 306.682,458.876 306.682,458.876 306.682,458.876 L 306.682,458.876 Z" marker-start="none" marker-end="none"/>
      <path d="M 307.756,458.97 C 307.756,459.044 307.817,459.114 307.905,459.121 C 307.983,459.129 308.038,459.078 308.038,459.025 C 308.038,459.025 308.038,459.013 308.038,459.013 C 308.084,459.069 308.148,459.106 308.238,459.121 C 308.286,459.13 308.335,459.13 308.381,459.123 C 308.585,459.09 308.697,458.955 308.697,458.752 C 308.697,458.752 308.697,458.2 308.697,458.2 C 308.697,458.116 308.632,458.051 308.551,458.049 C 308.468,458.049 308.4,458.114 308.4,458.197 C 308.4,458.197 308.4,458.703 308.4,458.703 C 308.4,458.75 308.381,458.793 308.347,458.826 C 308.28,458.896 308.171,458.896 308.104,458.828 C 308.071,458.793 308.052,458.75 308.052,458.704 C 308.052,458.704 308.052,458.2 308.052,458.2 C 308.052,458.118 307.985,458.051 307.903,458.053 C 307.822,458.053 307.756,458.12 307.756,458.202 C 307.756,458.202 307.756,458.97 307.756,458.97 C 307.756,458.97 307.756,458.97 307.756,458.97 L 307.756,458.97 Z" marker-start="none" marker-end="none"/>
      <path d="M 310.068,458.686 C 310.066,458.691 310.066,458.699 310.064,458.704 C 310.033,458.845 309.932,458.911 309.818,458.884 C 309.748,458.867 309.687,458.805 309.661,458.708 C 309.659,458.701 309.659,458.693 309.657,458.686 C 309.657,458.686 310.068,458.686 310.068,458.686 C 310.068,458.686 310.068,458.686 310.068,458.686 L 310.068,458.686 Z M 309.665,458.495 C 309.672,458.458 309.69,458.422 309.714,458.39 C 309.794,458.295 309.939,458.273 310.102,458.359 C 310.198,458.411 310.224,458.415 310.273,458.396 C 310.303,458.384 310.327,458.361 310.338,458.332 C 310.38,458.228 310.251,458.049 309.889,458.047 C 309.521,458.047 309.275,458.351 309.361,458.718 C 309.408,458.931 309.568,459.082 309.769,459.119 C 310,459.161 310.22,459.044 310.316,458.824 C 310.342,458.765 310.357,458.703 310.361,458.657 C 310.372,458.536 310.333,458.495 310.236,458.495 C 310.236,458.495 309.665,458.495 309.665,458.495 C 309.665,458.495 309.665,458.495 309.665,458.495 L 309.665,458.495 Z" marker-start="none" marker-end="none"/>
      <path d="M 310.47,458.97 C 310.47,459.044 310.532,459.114 310.619,459.121 C 310.698,459.129 310.751,459.078 310.751,459.025 C 310.751,459.025 310.751,459.013 310.751,459.013 C 310.798,459.069 310.861,459.106 310.952,459.121 C 311,459.13 311.049,459.13 311.094,459.123 C 311.299,459.09 311.412,458.955 311.412,458.752 C 311.412,458.752 311.412,458.2 311.412,458.2 C 311.412,458.116 311.346,458.051 311.265,458.049 C 311.182,458.049 311.115,458.114 311.115,458.197 C 311.115,458.197 311.115,458.703 311.115,458.703 C 311.115,458.75 311.094,458.793 311.062,458.826 C 310.995,458.896 310.885,458.896 310.818,458.828 C 310.784,458.793 310.767,458.75 310.767,458.704 C 310.767,458.704 310.767,458.2 310.767,458.2 C 310.767,458.118 310.7,458.051 310.618,458.053 C 310.536,458.053 310.47,458.12 310.47,458.202 C 310.47,458.202 310.47,458.97 310.47,458.97 C 310.47,458.97 310.47,458.97 310.47,458.97 L 310.47,458.97 Z" marker-start="none" marker-end="none"/>
      <path d="M 312.261,458.686 C 312.259,458.691 312.259,458.699 312.257,458.704 C 312.226,458.845 312.127,458.911 312.012,458.884 C 311.942,458.867 311.88,458.805 311.855,458.708 C 311.853,458.701 311.853,458.693 311.851,458.686 C 311.851,458.686 312.261,458.686 312.261,458.686 C 312.261,458.686 312.261,458.686 312.261,458.686 L 312.261,458.686 Z M 311.858,458.495 C 311.866,458.458 311.883,458.422 311.909,458.39 C 311.987,458.295 312.132,458.273 312.296,458.359 C 312.391,458.411 312.418,458.415 312.468,458.396 C 312.497,458.384 312.519,458.361 312.531,458.332 C 312.573,458.228 312.444,458.049 312.082,458.047 C 311.713,458.047 311.469,458.351 311.554,458.718 C 311.602,458.931 311.762,459.082 311.963,459.119 C 312.194,459.161 312.413,459.044 312.51,458.824 C 312.535,458.765 312.55,458.703 312.554,458.657 C 312.565,458.536 312.528,458.495 312.429,458.495 C 312.429,458.495 311.858,458.495 311.858,458.495 C 311.858,458.495 311.858,458.495 311.858,458.495 L 311.858,458.495 Z" marker-start="none" marker-end="none"/>
      <path d="M 312.663,458.979 C 312.663,459.049 312.724,459.115 312.814,459.121 C 312.907,459.129 312.964,459.071 312.959,459.015 C 312.959,459.015 312.957,459 312.957,459 C 312.966,459.009 312.972,459.019 312.983,459.026 C 313.095,459.151 313.224,459.149 313.284,459.06 C 313.337,458.983 313.31,458.894 313.233,458.86 C 313.233,458.86 313.217,458.854 313.217,458.854 C 313.217,458.854 313.177,458.84 313.177,458.84 C 313.138,458.826 313.111,458.812 313.089,458.799 C 312.994,458.744 312.961,458.693 312.961,458.644 C 312.961,458.644 312.961,458.202 312.961,458.202 C 312.961,458.12 312.895,458.053 312.813,458.053 C 312.73,458.053 312.663,458.118 312.663,458.2 C 312.663,458.2 312.663,458.979 312.663,458.979 C 312.663,458.979 312.663,458.979 312.663,458.979 L 312.663,458.979 Z" marker-start="none" marker-end="none"/>
      <path d="M 313.656,458.39 C 313.74,458.29 313.892,458.293 313.968,458.396 C 314.003,458.442 314.022,458.498 314.022,458.579 C 314.022,458.71 313.975,458.793 313.897,458.832 C 313.767,458.896 313.623,458.811 313.601,458.636 C 313.598,458.619 313.596,458.598 313.596,458.581 C 313.596,458.5 313.62,458.437 313.656,458.39 C 313.656,458.39 313.656,458.39 313.656,458.39 L 313.656,458.39 Z M 314.03,459.021 C 314.032,459.077 314.086,459.127 314.166,459.119 C 314.253,459.111 314.314,459.041 314.314,458.967 C 314.314,458.967 314.314,458.193 314.314,458.193 C 314.314,457.807 314.086,457.598 313.685,457.64 C 313.604,457.65 313.531,457.669 313.462,457.7 C 313.318,457.766 313.294,457.865 313.364,457.939 C 313.403,457.982 313.45,457.991 313.515,457.97 C 313.515,457.97 313.517,457.968 313.517,457.968 C 313.517,457.968 313.577,457.941 313.577,457.941 C 313.591,457.935 313.604,457.93 313.618,457.926 C 313.871,457.835 314.015,457.939 314.022,458.131 C 314.022,458.146 314.022,458.159 314.022,458.172 C 313.912,458.017 313.639,457.989 313.452,458.175 C 313.332,458.295 313.272,458.49 313.312,458.704 C 313.325,458.782 313.349,458.847 313.384,458.903 C 313.548,459.168 313.88,459.193 314.03,459.007 C 314.03,459.007 314.03,459.021 314.03,459.021 C 314.03,459.021 314.03,459.021 314.03,459.021 L 314.03,459.021 Z" marker-start="none" marker-end="none"/>
      <path d="M 314.479,459.108 C 314.563,459.142 314.647,459.104 314.682,459.009 C 314.682,459.009 314.867,458.514 314.867,458.514 C 314.867,458.514 315.056,459.011 315.056,459.011 C 315.093,459.106 315.179,459.144 315.259,459.106 C 315.333,459.071 315.364,458.987 315.333,458.912 C 315.333,458.912 314.853,457.737 314.853,457.737 C 314.814,457.638 314.731,457.602 314.651,457.634 C 314.574,457.667 314.541,457.75 314.574,457.829 C 314.574,457.829 314.713,458.15 314.713,458.15 C 314.713,458.15 314.399,458.918 314.399,458.918 C 314.369,458.992 314.404,459.077 314.479,459.108 C 314.479,459.108 314.479,459.108 314.479,459.108 L 314.479,459.108 Z" marker-start="none" marker-end="none"/>
      <path d="M 305.018,457.43 C 305.032,457.419 305.039,457.401 305.039,457.377 C 305.039,457.35 305.032,457.331 305.018,457.319 C 305.003,457.306 304.979,457.3 304.948,457.3 C 304.938,457.3 304.924,457.301 304.906,457.303 C 304.906,457.303 304.906,457.446 304.906,457.446 C 304.906,457.446 304.948,457.448 304.948,457.448 C 304.981,457.448 305.004,457.442 305.018,457.43 C 305.018,457.43 305.018,457.43 305.018,457.43 L 305.018,457.43 Z M 305.058,457.289 C 305.082,457.309 305.094,457.335 305.094,457.368 C 305.094,457.397 305.087,457.419 305.074,457.436 C 305.06,457.452 305.038,457.464 305.008,457.472 C 305.025,457.475 305.038,457.483 305.051,457.498 C 305.065,457.513 305.071,457.529 305.071,457.547 C 305.071,457.575 305.061,457.599 305.041,457.615 C 305.02,457.631 304.991,457.639 304.954,457.639 C 304.934,457.639 304.902,457.638 304.856,457.636 C 304.856,457.636 304.856,457.259 304.856,457.259 C 304.856,457.259 304.963,457.259 304.963,457.259 C 305.002,457.259 305.033,457.27 305.058,457.289 C 305.058,457.289 305.058,457.289 305.058,457.289 L 305.058,457.289 Z M 304.953,457.597 C 304.997,457.597 305.019,457.579 305.019,457.544 C 305.019,457.505 304.995,457.486 304.947,457.486 C 304.93,457.486 304.918,457.486 304.906,457.487 C 304.906,457.487 304.906,457.595 304.906,457.595 C 304.921,457.596 304.936,457.597 304.953,457.597 C 304.953,457.597 304.953,457.597 304.953,457.597 L 304.953,457.597 Z" marker-start="none" marker-end="none"/>
      <path d="M 305.847,457.259 C 305.847,457.259 305.626,457.259 305.626,457.259 C 305.626,457.259 305.626,457.636 305.626,457.636 C 305.626,457.636 305.678,457.636 305.678,457.636 C 305.678,457.636 305.678,457.306 305.678,457.306 C 305.678,457.306 305.847,457.306 305.847,457.306 C 305.847,457.306 305.847,457.259 305.847,457.259 C 305.847,457.259 305.847,457.259 305.847,457.259 L 305.847,457.259 Z" marker-start="none" marker-end="none"/>
      <path d="M 306.366,457.374 C 306.366,457.374 306.366,457.636 306.366,457.636 C 306.366,457.636 306.417,457.636 306.417,457.636 C 306.417,457.636 306.417,457.378 306.417,457.378 C 306.417,457.354 306.425,457.336 306.439,457.321 C 306.452,457.307 306.473,457.3 306.496,457.3 C 306.522,457.3 306.541,457.306 306.557,457.321 C 306.571,457.335 306.578,457.354 306.578,457.38 C 306.578,457.38 306.578,457.636 306.578,457.636 C 306.578,457.636 306.63,457.636 306.63,457.636 C 306.63,457.636 306.63,457.373 306.63,457.373 C 306.63,457.336 306.618,457.306 306.595,457.285 C 306.571,457.263 306.539,457.254 306.497,457.254 C 306.456,457.254 306.423,457.263 306.4,457.285 C 306.377,457.306 306.366,457.335 306.366,457.374 C 306.366,457.374 306.366,457.374 306.366,457.374 L 306.366,457.374 Z" marker-start="none" marker-end="none"/>
      <path d="M 307.492,457.589 C 307.492,457.589 307.319,457.589 307.319,457.589 C 307.319,457.589 307.319,457.486 307.319,457.486 C 307.319,457.486 307.443,457.486 307.443,457.486 C 307.443,457.486 307.443,457.441 307.443,457.441 C 307.443,457.441 307.319,457.441 307.319,457.441 C 307.319,457.441 307.319,457.306 307.319,457.306 C 307.319,457.306 307.489,457.306 307.489,457.306 C 307.489,457.306 307.489,457.259 307.489,457.259 C 307.489,457.259 307.268,457.259 307.268,457.259 C 307.268,457.259 307.268,457.636 307.268,457.636 C 307.268,457.636 307.492,457.636 307.492,457.636 C 307.492,457.636 307.492,457.589 307.492,457.589 C 307.492,457.589 307.492,457.589 307.492,457.589 L 307.492,457.589 Z" marker-start="none" marker-end="none"/>
      <path d="M 308.744,457.402 C 308.84,457.402 308.889,457.443 308.889,457.529 C 308.889,457.602 308.834,457.638 308.725,457.638 C 308.717,457.638 308.693,457.637 308.654,457.636 C 308.654,457.636 308.654,457.259 308.654,457.259 C 308.654,457.259 308.707,457.259 308.707,457.259 C 308.707,457.259 308.707,457.403 308.707,457.403 C 308.725,457.403 308.739,457.402 308.744,457.402 C 308.744,457.402 308.744,457.402 308.744,457.402 L 308.744,457.402 Z M 308.734,457.591 C 308.802,457.591 308.836,457.569 308.836,457.523 C 308.836,457.474 308.804,457.448 308.741,457.448 C 308.74,457.448 308.727,457.449 308.707,457.45 C 308.707,457.45 308.707,457.589 308.707,457.589 C 308.718,457.59 308.727,457.591 308.734,457.591 C 308.734,457.591 308.734,457.591 308.734,457.591 L 308.734,457.591 Z" marker-start="none" marker-end="none"/>
      <path d="M 309.443,457.309 C 309.471,457.272 309.507,457.254 309.555,457.254 C 309.606,457.254 309.647,457.271 309.674,457.306 C 309.703,457.34 309.717,457.388 309.717,457.45 C 309.717,457.511 309.703,457.558 309.674,457.591 C 309.647,457.626 309.606,457.642 309.555,457.642 C 309.508,457.642 309.471,457.624 309.444,457.587 C 309.416,457.55 309.402,457.505 309.402,457.45 C 309.402,457.393 309.416,457.346 309.443,457.309 C 309.443,457.309 309.443,457.309 309.443,457.309 L 309.443,457.309 Z M 309.481,457.557 C 309.499,457.584 309.523,457.596 309.555,457.596 C 309.627,457.596 309.662,457.548 309.662,457.45 C 309.662,457.403 309.653,457.366 309.635,457.339 C 309.617,457.312 309.589,457.3 309.555,457.3 C 309.524,457.3 309.5,457.314 309.483,457.342 C 309.465,457.371 309.457,457.408 309.457,457.45 C 309.457,457.495 309.465,457.531 309.481,457.557 C 309.481,457.557 309.481,457.557 309.481,457.557 L 309.481,457.557 Z" marker-start="none" marker-end="none"/>
      <path d="M 310.655,457.636 C 310.655,457.636 310.538,457.255 310.538,457.255 C 310.538,457.255 310.521,457.255 310.521,457.255 C 310.521,457.255 310.433,457.513 310.433,457.513 C 310.433,457.513 310.348,457.255 310.348,457.255 C 310.348,457.255 310.332,457.255 310.332,457.255 C 310.332,457.255 310.214,457.636 310.214,457.636 C 310.214,457.636 310.267,457.636 310.267,457.636 C 310.267,457.636 310.343,457.373 310.343,457.373 C 310.343,457.373 310.425,457.636 310.425,457.636 C 310.425,457.636 310.443,457.636 310.443,457.636 C 310.443,457.636 310.526,457.373 310.526,457.373 C 310.526,457.373 310.602,457.636 310.602,457.636 C 310.602,457.636 310.655,457.636 310.655,457.636 C 310.655,457.636 310.655,457.636 310.655,457.636 L 310.655,457.636 Z" marker-start="none" marker-end="none"/>
      <path d="M 311.395,457.589 C 311.395,457.589 311.221,457.589 311.221,457.589 C 311.221,457.589 311.221,457.486 311.221,457.486 C 311.221,457.486 311.346,457.486 311.346,457.486 C 311.346,457.486 311.346,457.441 311.346,457.441 C 311.346,457.441 311.221,457.441 311.221,457.441 C 311.221,457.441 311.221,457.306 311.221,457.306 C 311.221,457.306 311.392,457.306 311.392,457.306 C 311.392,457.306 311.392,457.259 311.392,457.259 C 311.392,457.259 311.17,457.259 311.17,457.259 C 311.17,457.259 311.17,457.636 311.17,457.636 C 311.17,457.636 311.395,457.636 311.395,457.636 C 311.395,457.636 311.395,457.589 311.395,457.589 C 311.395,457.589 311.395,457.589 311.395,457.589 L 311.395,457.589 Z" marker-start="none" marker-end="none"/>
      <path d="M 312.084,457.433 C 312.104,457.437 312.121,457.449 312.135,457.469 C 312.15,457.487 312.158,457.508 312.158,457.532 C 312.158,457.604 312.112,457.639 312.021,457.639 C 312.01,457.639 311.992,457.639 311.968,457.638 C 311.943,457.636 311.929,457.636 311.928,457.636 C 311.928,457.636 311.928,457.259 311.928,457.259 C 311.928,457.259 311.979,457.259 311.979,457.259 C 311.979,457.259 311.979,457.423 311.979,457.423 C 312.004,457.422 312.022,457.421 312.034,457.421 C 312.034,457.421 312.133,457.259 312.133,457.259 C 312.133,457.259 312.193,457.259 312.193,457.259 C 312.193,457.259 312.084,457.433 312.084,457.433 C 312.084,457.433 312.084,457.433 312.084,457.433 L 312.084,457.433 Z M 312.009,457.591 C 312.042,457.591 312.066,457.587 312.081,457.579 C 312.096,457.569 312.103,457.553 312.103,457.532 C 312.103,457.508 312.097,457.49 312.082,457.479 C 312.069,457.47 312.046,457.464 312.016,457.464 C 312.003,457.464 311.991,457.465 311.979,457.467 C 311.979,457.467 311.979,457.589 311.979,457.589 C 311.994,457.59 312.004,457.591 312.009,457.591 C 312.009,457.591 312.009,457.591 312.009,457.591 L 312.009,457.591 Z" marker-start="none" marker-end="none"/>
     </g>
    </g>
   </g>
  </g>
 </g>
</svg>
