<?xml version="1.0" standalone="no"?>
<!DOCTYPE svg PUBLIC "-//W3C//DTD SVG 1.1//EN" "http://www.w3.org/Graphics/SVG/1.1/DTD/svg11.dtd">
<!--Generator: Xara Xtreme (www.xara.com), SVG filter version: 1.0.0.13-->
<svg stroke-width="0.501" stroke-linejoin="bevel" fill-rule="evenodd" xmlns:xlink="http://www.w3.org/1999/xlink" xmlns="http://www.w3.org/2000/svg" version="1.1" overflow="visible" width="841.891pt" height="595.277pt" viewBox="0 0 841.891 595.277">
 <defs>
  <marker id="DefaultArrow2" markerUnits="strokeWidth" viewBox="0 0 1 1" markerWidth="1" markerHeight="1" overflow="visible" orient="auto">
   <!-- REF_ARROW_STRAIGHT (-2) -->
   <g transform="scale(0.0092592592)">
    <!-- 1/108 -->
    <path d="M -9 54 L -9 -54 L 117 0 z"/>
   </g>
  </marker>
  <marker id="DefaultArrow3" markerUnits="strokeWidth" viewBox="0 0 1 1" markerWidth="1" markerHeight="1" overflow="visible" orient="auto">
   <!-- REF_ARROW_ANGLED -->
   <g transform="scale(0.0092592592)">
    <path d="M -27 54 L -9 0 L -27 -54 L 135 0 z"/>
   </g>
  </marker>
  <marker id="DefaultArrow4" markerUnits="strokeWidth" viewBox="0 0 1 1" markerWidth="1" markerHeight="1" overflow="visible" orient="auto">
   <!-- REF_ARROW_ROUNDED -->
   <g transform="scale(0.0092592592)">
    <path d="M -9,0 L -9,-45 C -9,-51.708 2.808,-56.580 9,-54 L 117,-9 C 120.916,-7.369 126.000,-4.242 126,0 C 126,4.242 120.916,7.369 117,9 L 9,54 C 2.808,56.580 -9,51.708 -9,45 z"/>
   </g>
  </marker>
  <marker id="DefaultArrow5" markerUnits="strokeWidth" viewBox="0 0 1 1" markerWidth="1" markerHeight="1" overflow="visible" orient="auto">
   <!-- REF_ARROW_SPOT -->
   <g transform="scale(0.0092592592)">
    <path d="M -54, 0 C -54,29.807 -29.807,54 0,54 C 29.807,54 54,29.807 54,0 C 54,-29.807 29.807,-54 0,-54 C -29.807,-54 -54,-29.807 -54,0 z"/>
   </g>
  </marker>
  <marker id="DefaultArrow6" markerUnits="strokeWidth" viewBox="0 0 1 1" markerWidth="1" markerHeight="1" overflow="visible" orient="auto">
   <!-- REF_ARROW_DIAMOND -->
   <g transform="scale(0.0092592592)">
    <path d="M -63,0 L 0,63 L 63,0 L 0,-63 z"/>
   </g>
  </marker>
  <marker id="DefaultArrow7" markerUnits="strokeWidth" viewBox="0 0 1 1" markerWidth="1" markerHeight="1" overflow="visible" orient="auto">
   <!-- REF_ARROW_FEATHER -->
   <g transform="scale(0.0092592592)">
    <path d="M 18,-54 L 108,-54 L 63,0 L 108,54 L 18, 54 L -36,0 z"/>
   </g>
  </marker>
  <marker id="DefaultArrow8" markerUnits="strokeWidth" viewBox="0 0 1 1" markerWidth="1" markerHeight="1" overflow="visible" orient="auto">
   <!-- REF_ARROW_FEATHER2 -->
   <g transform="scale(0.0092592592)">
    <path d="M -36,0 L 18,-54 L 54,-54 L 18,-18 L 27,-18 L 63,-54 L 99,-54 L 63,-18 L 72,-18 L 108,-54 L 144,-54 L 90,0 L 144,54 L 108,54 L 72,18 L 63,18 L 99,54 L 63,54 L 27,18 L 18,18 L 54,54 L 18,54 z"/>
   </g>
  </marker>
  <marker id="DefaultArrow9" markerUnits="strokeWidth" viewBox="0 0 1 1" markerWidth="1" markerHeight="1" overflow="visible" orient="auto">
   <!-- REF_ARROW_HOLLOWDIAMOND -->
   <g transform="scale(0.0092592592)">
    <path d="M 0,45 L -45,0 L 0, -45 L 45, 0 z M 0, 63 L-63, 0 L 0, -63 L 63, 0 z"/>
   </g>
  </marker>
  <filter id="StainedFilter">
   <feBlend mode="multiply" in2="BackgroundImage" in="SourceGraphic" result="blend"/>
   <feComposite in="blend" in2="SourceAlpha" operator="in" result="comp"/>
  </filter>
  <filter id="BleachFilter">
   <feBlend mode="screen" in2="BackgroundImage" in="SourceGraphic" result="blend"/>
   <feComposite in="blend" in2="SourceAlpha" operator="in" result="comp"/>
  </filter>
  <filter id="InvertTransparencyBitmapFilter">
   <feComponentTransfer>
    <feFuncR type="gamma" amplitude="1.055" exponent=".416666666" offset="-0.055"/>
    <feFuncG type="gamma" amplitude="1.055" exponent=".416666666" offset="-0.055"/>
    <feFuncB type="gamma" amplitude="1.055" exponent=".416666666" offset="-0.055"/>
   </feComponentTransfer>
   <feComponentTransfer>
    <feFuncR type="linear" slope="-1" intercept="1"/>
    <feFuncG type="linear" slope="-1" intercept="1"/>
    <feFuncB type="linear" slope="-1" intercept="1"/>
    <feFuncA type="linear" slope="1" intercept="0"/>
   </feComponentTransfer>
   <feComponentTransfer>
    <feFuncR type="gamma" amplitude="1" exponent="2.4" offset="0"/>
    <feFuncG type="gamma" amplitude="1" exponent="2.4" offset="0"/>
    <feFuncB type="gamma" amplitude="1" exponent="2.4" offset="0"/>
   </feComponentTransfer>
  </filter>
  <marker id="DefaultArrowScaled" markerUnits="strokeWidth" viewBox="0 0 1 1" markerWidth="3" markerHeight="3" overflow="visible" orient="auto">
   <!-- REF_ARROW_ANGLED -->
   <g transform="scale(0.0092592592)">
    <path d="M -27 54 L -9 0 L -27 -54 L 135 0 z"/>
   </g>
  </marker>
  <marker id="DefaultArrowStyled" markerUnits="strokeWidth" viewBox="0 0 1 1" markerWidth="3" markerHeight="3" overflow="visible" orient="auto" fill="#ffffff" fill-opacity="1.000000">
   <!-- REF_ARROW_ANGLED -->
   <g transform="scale(0.0092592592)">
    <path d="M -27 54 L -9 0 L -27 -54 L 135 0 z"/>
   </g>
  </marker>
 </defs>
 <g id="Document" fill="none" stroke="black" font-family="Times New Roman" font-size="16" transform="scale(1 -1)">
  <g id="Spread" transform="translate(0 -595.277)">
   <g id="Layer 1"/>
   <g id="logo">
    <g id="Group">
     <path d="M 325.839,343.954 L 325.839,335.245 L 330.269,335.245 L 330.269,343.954 L 325.839,343.954 Z" stroke="#4c4c4c" fill="#191919" stroke-width="0.187" stroke-linejoin="miter" marker-start="none" marker-end="none" stroke-miterlimit="79.8403193612775"/>
     <path d="M 330.515,343.961 L 330.515,335.252 L 334.945,335.252 L 334.945,343.961 L 330.515,343.961 Z" fill="#bf0000" stroke="#4c4c4c" stroke-width="0.187" stroke-linejoin="miter" marker-start="none" marker-end="none" stroke-miterlimit="79.8403193612775"/>
     <g id="Group_1">
      <path d="M 332.805,341.755 C 333.562,341.755 334.178,341.139 334.178,340.382 C 334.178,339.624 333.562,339.008 332.805,339.008 C 332.047,339.008 331.431,339.624 331.431,340.382 C 331.431,341.139 332.047,341.755 332.805,341.755 Z" fill="#7f7f7f" stroke="#4c4c4c" stroke-width="0.091" marker-start="none" marker-end="none" stroke-miterlimit="79.8403193612775"/>
      <path d="M 332.805,341.541 C 333.444,341.541 333.963,341.022 333.963,340.383 C 333.963,339.743 333.444,339.224 332.805,339.224 C 332.165,339.224 331.646,339.743 331.646,340.383 C 331.646,341.022 332.165,341.541 332.805,341.541 Z" fill="#333333" stroke="#4c4c4c" stroke-width="0.077" marker-start="none" marker-end="none" stroke-miterlimit="79.8403193612775"/>
      <g id="Group_2" fill-rule="nonzero" stroke="none" stroke-width="0.081" fill="#191919" stroke-miterlimit="79.8403193612775">
       <g id="Group_3">
        <path d="M 332.967,339.718 L 332.634,339.718 L 332.634,340.211 L 332.139,340.211 L 332.139,340.549 L 332.634,340.549 L 332.634,341.044 L 332.967,341.044 L 332.967,340.549 L 333.465,340.549 L 333.465,340.211 L 332.967,340.211 L 332.967,339.718 Z" marker-start="none" marker-end="none"/>
       </g>
      </g>
     </g>
     <path d="M 290.963,343.688 C 290.069,343.955 289.498,344.444 289.309,345.304 L 289.366,358.357 L 289.97,358.821 L 289.97,361.03 L 284.623,363.283 L 284.6,369.922 L 288.809,371.61 L 288.719,441.785 L 284.488,443.585 L 284.443,450.225 L 289.816,452.65 C 289.816,453.632 289.816,454.377 289.816,455.362 C 289.816,455.662 289.076,455.869 289.076,456.17 C 289.076,460.945 289.16,465.456 289.16,470.152 C 289.16,470.942 290.407,473.181 291.42,473.091 L 293.004,473.041 L 300.067,470.399 L 340.227,470.329 L 346.566,472.939 L 348.158,473.001 C 349.335,472.735 350.337,471.381 350.357,469.828 C 350.421,464.871 350.618,460.283 350.494,455.677 C 350.484,455.317 350.046,455.214 349.897,454.911 C 349.887,454.89 349.942,453.056 349.942,452.256 L 355.301,449.952 L 355.301,443.369 L 351.194,441.428 L 351.017,371.317 L 355.293,369.629 L 355.293,363.305 L 349.646,360.883 L 349.675,358.351 L 350.559,356.776 L 350.519,345.494 C 350.419,344.631 349.896,343.9 348.971,343.637 L 290.963,343.688 Z" fill="#1890f9" stroke-linejoin="miter" stroke-width="0.187" stroke="none" marker-start="none" marker-end="none" stroke-miterlimit="79.8403193612775"/>
     <path d="M 303.159,429.883 L 303.159,426.508 L 337.032,426.508 L 337.032,429.883 L 303.159,429.883 Z" stroke="none" fill="#ff8200" stroke-width="0.187" marker-start="none" marker-end="none" stroke-miterlimit="79.8403193612775"/>
     <g id="Group_4" stroke="#ffffff" stroke-width="0.187" fill="#ffffff" stroke-miterlimit="79.8403193612775">
      <path d="M 286.852,367.937 L 286.852,365.436 C 286.852,365.12 287.109,364.863 287.425,364.863 L 287.854,364.863 C 288.17,364.863 288.426,365.12 288.426,365.436 L 288.426,367.937 C 288.426,368.253 288.17,368.51 287.854,368.51 L 287.425,368.51 C 287.109,368.51 286.852,368.253 286.852,367.937 Z" marker-start="none" marker-end="none"/>
      <path d="M 351.56,367.937 L 351.56,365.436 C 351.56,365.12 351.817,364.863 352.133,364.863 L 352.562,364.863 C 352.878,364.863 353.134,365.12 353.134,365.436 L 353.134,367.937 C 353.134,368.253 352.878,368.51 352.562,368.51 L 352.133,368.51 C 351.817,368.51 351.56,368.253 351.56,367.937 Z" marker-start="none" marker-end="none"/>
     </g>
     <g id="Group_5" stroke="#ffffff" stroke-width="0.187" fill="#ffffff" stroke-miterlimit="79.8403193612775">
      <path d="M 286.854,448.353 L 286.854,445.852 C 286.854,445.536 287.111,445.279 287.427,445.279 L 287.856,445.279 C 288.172,445.279 288.428,445.536 288.428,445.852 L 288.428,448.353 C 288.428,448.669 288.172,448.926 287.856,448.926 L 287.427,448.926 C 287.111,448.926 286.854,448.669 286.854,448.353 Z" marker-start="none" marker-end="none"/>
      <path d="M 351.562,448.354 L 351.562,445.853 C 351.562,445.537 351.819,445.28 352.135,445.28 L 352.564,445.28 C 352.88,445.28 353.136,445.537 353.136,445.853 L 353.136,448.354 C 353.136,448.67 352.88,448.927 352.564,448.927 L 352.135,448.927 C 351.819,448.927 351.562,448.67 351.562,448.354 Z" marker-start="none" marker-end="none"/>
     </g>
     <path d="M 339.897,460.457 L 339.912,353.713" fill="none" stroke="#1a86e4" stroke-width="0.75" stroke-miterlimit="79.8403193612775"/>
     <path d="M 300.174,460.287 L 300.19,353.543" fill="none" stroke="#1a86e4" stroke-width="0.75" stroke-miterlimit="79.8403193612775"/>
     <path d="M 339.578,470.268 L 339.57,460.415 L 300.308,460.397" fill="none" stroke="#1e87e2" stroke-width="0.75" stroke-miterlimit="79.8403193612775"/>
     <path d="M 300.446,470.16 L 300.438,460.308" fill="none" stroke="#1e87e2" stroke-width="0.75" stroke-miterlimit="79.8403193612775"/>
     <path d="M 339.64,353.9 L 339.631,344.047" fill="none" stroke="#177ed9" stroke-width="0.75" stroke-miterlimit="79.8403193612775"/>
     <path d="M 300.78,353.795 L 300.772,343.943" fill="none" stroke="#177ed9" stroke-width="0.75" stroke-miterlimit="79.8403193612775"/>
     <path d="M 339.589,460.397 C 344.76,462.901 349.188,465.244 350.134,460.112" fill="none" stroke="#1e87e2" stroke-width="0.75" stroke-miterlimit="79.8403193612775"/>
     <path d="M 289.504,460.688 C 291.054,463.469 291.099,464.771 300.117,460.373" fill="none" stroke="#1e87e2" stroke-width="0.75" stroke-miterlimit="79.8403193612775"/>
     <path d="M 316.664,359.651 L 314.822,345.857 C 314.822,345.662 314.981,345.504 315.175,345.504 L 325.36,345.504 C 325.554,345.504 325.713,345.662 325.713,345.857 L 323.534,360.017 C 323.443,360.483 323.429,360.556 322.794,360.551 L 317.43,360.562 C 316.979,360.546 316.747,360.529 316.664,359.651 Z" stroke="#7f7f7f" fill="#4c4c4c" stroke-width="0.187" marker-start="none" marker-end="none" stroke-miterlimit="79.8403193612775"/>
     <path d="M 320.104,354.81 C 320.601,354.81 321.004,354.4 321.004,353.896 C 321.004,353.391 320.601,352.981 320.104,352.981 C 319.606,352.981 319.203,353.391 319.203,353.896 C 319.203,354.4 319.606,354.81 320.104,354.81 Z" fill="#bfbd00" stroke="none" stroke-width="0.187" marker-start="none" marker-end="none" stroke-miterlimit="79.8403193612775"/>
     <path d="M 320.104,350.463 C 320.601,350.463 321.004,350.053 321.004,349.549 C 321.004,349.044 320.601,348.634 320.104,348.634 C 319.606,348.634 319.203,349.044 319.203,349.549 C 319.203,350.053 319.606,350.463 320.104,350.463 Z" fill="#bf0000" stroke="none" stroke-width="0.187" marker-start="none" marker-end="none" stroke-miterlimit="79.8403193612775"/>
     <path d="M 320.104,359.409 C 320.601,359.409 321.004,358.999 321.004,358.495 C 321.004,357.99 320.601,357.58 320.104,357.58 C 319.606,357.58 319.203,357.99 319.203,358.495 C 319.203,358.999 319.606,359.409 320.104,359.409 Z" fill="#00bf02" stroke="none" stroke-width="0.187" marker-start="none" marker-end="none" stroke-miterlimit="79.8403193612775"/>
     <g id="Group_6" fill-rule="nonzero" stroke="#ffffff" stroke-width="0.074" fill="#ffffff" stroke-miterlimit="79.8403193612775">
      <g id="Group_7">
       <path d="M 319.075,435.573 L 319.075,437.717 L 319.499,437.717 L 320.004,436.199 C 320.05,436.057 320.084,435.951 320.105,435.881 C 320.129,435.959 320.167,436.074 320.219,436.225 L 320.728,437.717 L 321.108,437.717 L 321.108,435.573 L 320.836,435.573 L 320.836,437.367 L 320.217,435.573 L 319.963,435.573 L 319.347,437.398 L 319.347,435.573 L 319.075,435.573 Z" marker-start="none" marker-end="none"/>
       <path d="M 322.541,435.573 L 322.541,435.801 C 322.421,435.625 322.257,435.537 322.051,435.537 C 321.96,435.537 321.875,435.555 321.796,435.59 C 321.717,435.625 321.659,435.669 321.62,435.722 C 321.582,435.776 321.555,435.841 321.54,435.918 C 321.529,435.969 321.524,436.051 321.524,436.163 L 321.524,437.126 L 321.785,437.126 L 321.785,436.264 C 321.785,436.127 321.791,436.034 321.801,435.986 C 321.818,435.917 321.853,435.863 321.906,435.823 C 321.959,435.784 322.025,435.764 322.103,435.764 C 322.182,435.764 322.255,435.784 322.324,435.825 C 322.393,435.865 322.442,435.92 322.47,435.99 C 322.499,436.06 322.513,436.161 322.513,436.294 L 322.513,437.126 L 322.775,437.126 L 322.775,435.573 L 322.541,435.573 Z" marker-start="none" marker-end="none"/>
       <path d="M 323.179,435.573 L 323.179,437.717 L 323.44,437.717 L 323.44,435.573 L 323.179,435.573 Z" marker-start="none" marker-end="none"/>
       <path d="M 324.417,435.808 L 324.454,435.575 C 324.381,435.56 324.315,435.552 324.257,435.552 C 324.162,435.552 324.088,435.567 324.036,435.597 C 323.984,435.628 323.947,435.667 323.926,435.717 C 323.904,435.766 323.894,435.869 323.894,436.027 L 323.894,436.921 L 323.702,436.921 L 323.702,437.126 L 323.894,437.126 L 323.894,437.511 L 324.154,437.669 L 324.154,437.126 L 324.417,437.126 L 324.417,436.921 L 324.154,436.921 L 324.154,436.013 C 324.154,435.938 324.158,435.889 324.167,435.868 C 324.177,435.847 324.192,435.829 324.212,435.817 C 324.233,435.804 324.263,435.798 324.302,435.798 C 324.331,435.798 324.369,435.801 324.417,435.808 Z" marker-start="none" marker-end="none"/>
       <path d="M 324.674,437.414 L 324.674,437.717 L 324.936,437.717 L 324.936,437.414 L 324.674,437.414 Z M 324.674,435.573 L 324.674,437.126 L 324.936,437.126 L 324.936,435.573 L 324.674,435.573 Z" marker-start="none" marker-end="none"/>
       <path d="M 325.367,435.573 L 325.367,437.717 L 326.17,437.717 C 326.312,437.717 326.42,437.71 326.494,437.697 C 326.599,437.679 326.687,437.646 326.757,437.596 C 326.828,437.547 326.885,437.478 326.928,437.389 C 326.971,437.301 326.993,437.203 326.993,437.097 C 326.993,436.914 326.935,436.76 326.82,436.634 C 326.704,436.508 326.496,436.444 326.195,436.444 L 325.649,436.444 L 325.649,435.573 L 325.367,435.573 Z M 325.649,436.697 L 326.199,436.697 C 326.381,436.697 326.511,436.732 326.587,436.8 C 326.664,436.868 326.702,436.964 326.702,437.088 C 326.702,437.178 326.68,437.255 326.635,437.318 C 326.589,437.382 326.53,437.425 326.457,437.445 C 326.409,437.458 326.321,437.464 326.194,437.464 L 325.649,437.464 L 325.649,436.697 Z" marker-start="none" marker-end="none"/>
       <path d="M 327.313,435.573 L 327.313,437.717 L 327.574,437.717 L 327.574,435.573 L 327.313,435.573 Z" marker-start="none" marker-end="none"/>
       <path d="M 328.991,435.573 L 328.991,435.801 C 328.871,435.625 328.707,435.537 328.501,435.537 C 328.41,435.537 328.325,435.555 328.246,435.59 C 328.167,435.625 328.109,435.669 328.07,435.722 C 328.032,435.776 328.005,435.841 327.99,435.918 C 327.979,435.969 327.974,436.051 327.974,436.163 L 327.974,437.126 L 328.235,437.126 L 328.235,436.264 C 328.235,436.127 328.241,436.034 328.251,435.986 C 328.268,435.917 328.303,435.863 328.356,435.823 C 328.409,435.784 328.475,435.764 328.553,435.764 C 328.632,435.764 328.705,435.784 328.774,435.825 C 328.843,435.865 328.892,435.92 328.92,435.99 C 328.949,436.06 328.963,436.161 328.963,436.294 L 328.963,437.126 L 329.225,437.126 L 329.225,435.573 L 328.991,435.573 Z" marker-start="none" marker-end="none"/>
       <path d="M 329.53,436.036 L 329.789,436.077 C 329.803,435.973 329.844,435.893 329.91,435.837 C 329.976,435.782 330.069,435.754 330.188,435.754 C 330.308,435.754 330.397,435.779 330.455,435.828 C 330.514,435.877 330.543,435.935 330.543,436.001 C 330.543,436.061 330.517,436.107 330.466,436.142 C 330.43,436.165 330.341,436.195 330.198,436.231 C 330.006,436.28 329.874,436.322 329.799,436.357 C 329.725,436.393 329.669,436.442 329.631,436.505 C 329.593,436.568 329.574,436.637 329.574,436.714 C 329.574,436.783 329.589,436.847 329.621,436.906 C 329.652,436.965 329.695,437.014 329.749,437.053 C 329.79,437.083 329.846,437.109 329.916,437.13 C 329.986,437.151 330.061,437.161 330.142,437.161 C 330.263,437.161 330.369,437.144 330.46,437.109 C 330.552,437.073 330.62,437.026 330.663,436.966 C 330.707,436.906 330.737,436.826 330.753,436.725 L 330.498,436.69 C 330.486,436.77 330.452,436.833 330.397,436.877 C 330.341,436.922 330.262,436.945 330.16,436.945 C 330.04,436.945 329.955,436.925 329.903,436.885 C 329.852,436.845 329.826,436.798 329.826,436.744 C 329.826,436.71 329.837,436.679 329.858,436.652 C 329.88,436.624 329.913,436.6 329.959,436.582 C 329.985,436.572 330.062,436.55 330.19,436.515 C 330.375,436.465 330.504,436.424 330.577,436.392 C 330.65,436.361 330.707,436.315 330.749,436.254 C 330.79,436.194 330.811,436.119 330.811,436.029 C 330.811,435.941 330.786,435.858 330.735,435.781 C 330.684,435.703 330.611,435.643 330.515,435.601 C 330.419,435.559 330.311,435.537 330.19,435.537 C 329.989,435.537 329.836,435.579 329.731,435.663 C 329.626,435.747 329.559,435.871 329.53,436.036 Z" marker-start="none" marker-end="none"/>
      </g>
     </g>
     <g id="Group_8" fill-rule="nonzero" stroke="#ffffff" stroke-width="0.09" fill="#ffffff" stroke-miterlimit="79.8403193612775">
      <g id="Group_9">
       <path d="M 319.008,434.543 L 319.45,434.543 L 319.45,432.448 L 319.227,432.448 L 319.227,434.337 L 318.873,434.337 L 319.008,434.543 Z" marker-start="none" marker-end="none"/>
       <path d="M 320.528,433.886 L 320.312,433.886 C 320.319,434.093 320.393,434.263 320.535,434.396 C 320.678,434.529 320.853,434.595 321.063,434.595 C 321.27,434.595 321.438,434.533 321.566,434.409 C 321.694,434.284 321.758,434.138 321.758,433.969 C 321.758,433.85 321.727,433.739 321.666,433.635 C 321.605,433.531 321.486,433.39 321.309,433.212 L 320.749,432.65 L 321.788,432.65 L 321.788,432.448 L 320.259,432.448 L 321.119,433.312 C 321.294,433.486 321.407,433.615 321.46,433.699 C 321.513,433.783 321.539,433.871 321.539,433.964 C 321.539,434.082 321.492,434.183 321.397,434.268 C 321.303,434.353 321.187,434.396 321.05,434.396 C 320.906,434.396 320.787,434.351 320.691,434.262 C 320.596,434.173 320.542,434.047 320.528,433.886 Z" marker-start="none" marker-end="none"/>
       <path d="M 322.847,434.595 L 323.066,434.595 L 323.066,431.881 L 322.847,431.881 L 322.847,434.595 Z" marker-start="none" marker-end="none"/>
       <path d="M 324.591,434.543 L 325.033,434.543 L 325.033,432.448 L 324.81,432.448 L 324.81,434.337 L 324.456,434.337 L 324.591,434.543 Z" marker-start="none" marker-end="none"/>
       <path d="M 326.111,433.886 L 325.895,433.886 C 325.902,434.093 325.976,434.263 326.118,434.396 C 326.261,434.529 326.436,434.595 326.646,434.595 C 326.853,434.595 327.021,434.533 327.149,434.409 C 327.277,434.284 327.341,434.138 327.341,433.969 C 327.341,433.85 327.31,433.739 327.249,433.635 C 327.188,433.531 327.069,433.39 326.892,433.212 L 326.332,432.65 L 327.371,432.65 L 327.371,432.448 L 325.842,432.448 L 326.702,433.312 C 326.877,433.486 326.99,433.615 327.043,433.699 C 327.096,433.783 327.122,433.871 327.122,433.964 C 327.122,434.082 327.075,434.183 326.98,434.268 C 326.886,434.353 326.77,434.396 326.633,434.396 C 326.489,434.396 326.37,434.351 326.274,434.262 C 326.179,434.173 326.125,434.047 326.111,433.886 Z" marker-start="none" marker-end="none"/>
       <path d="M 327.586,433.494 C 327.586,433.771 327.618,433.984 327.682,434.135 C 327.745,434.286 327.836,434.401 327.952,434.478 C 328.068,434.556 328.198,434.595 328.342,434.595 C 328.488,434.595 328.62,434.556 328.739,434.478 C 328.857,434.399 328.951,434.282 329.02,434.125 C 329.089,433.969 329.123,433.758 329.123,433.494 C 329.123,433.231 329.089,433.022 329.021,432.866 C 328.953,432.711 328.86,432.593 328.74,432.514 C 328.621,432.434 328.488,432.395 328.342,432.395 C 328.198,432.395 328.069,432.433 327.953,432.51 C 327.838,432.587 327.748,432.702 327.683,432.854 C 327.618,433.007 327.586,433.22 327.586,433.494 Z M 327.799,433.49 C 327.799,433.254 327.822,433.075 327.867,432.954 C 327.912,432.833 327.979,432.741 328.068,432.678 C 328.157,432.616 328.251,432.584 328.35,432.584 C 328.45,432.584 328.543,432.615 328.63,432.676 C 328.717,432.737 328.783,432.829 328.828,432.952 C 328.884,433.101 328.912,433.28 328.912,433.49 C 328.912,433.701 328.887,433.873 328.837,434.008 C 328.787,434.142 328.718,434.24 328.629,434.303 C 328.541,434.365 328.448,434.396 328.35,434.396 C 328.25,434.396 328.156,434.365 328.068,434.303 C 327.981,434.24 327.914,434.149 327.868,434.028 C 327.822,433.907 327.799,433.727 327.799,433.49 Z" marker-start="none" marker-end="none"/>
       <path d="M 329.324,433.494 C 329.324,433.771 329.356,433.984 329.42,434.135 C 329.483,434.286 329.574,434.401 329.69,434.478 C 329.806,434.556 329.936,434.595 330.08,434.595 C 330.226,434.595 330.358,434.556 330.477,434.478 C 330.595,434.399 330.689,434.282 330.758,434.125 C 330.827,433.969 330.861,433.758 330.861,433.494 C 330.861,433.231 330.827,433.022 330.759,432.866 C 330.691,432.711 330.598,432.593 330.478,432.514 C 330.359,432.434 330.226,432.395 330.08,432.395 C 329.936,432.395 329.807,432.433 329.691,432.51 C 329.576,432.587 329.486,432.702 329.421,432.854 C 329.356,433.007 329.324,433.22 329.324,433.494 Z M 329.537,433.49 C 329.537,433.254 329.56,433.075 329.605,432.954 C 329.65,432.833 329.717,432.741 329.806,432.678 C 329.895,432.616 329.989,432.584 330.088,432.584 C 330.188,432.584 330.281,432.615 330.368,432.676 C 330.455,432.737 330.521,432.829 330.566,432.952 C 330.622,433.101 330.65,433.28 330.65,433.49 C 330.65,433.701 330.625,433.873 330.575,434.008 C 330.525,434.142 330.456,434.24 330.367,434.303 C 330.279,434.365 330.186,434.396 330.088,434.396 C 329.988,434.396 329.894,434.365 329.806,434.303 C 329.719,434.24 329.652,434.149 329.606,434.028 C 329.56,433.907 329.537,433.727 329.537,433.49 Z" marker-start="none" marker-end="none"/>
       <path d="M 331.906,434.595 L 332.125,434.595 L 332.125,431.881 L 331.906,431.881 L 331.906,434.595 Z" marker-start="none" marker-end="none"/>
       <path d="M 334.611,434.543 L 334.611,434.343 L 333.809,434.343 L 333.697,433.772 C 333.795,433.799 333.883,433.812 333.962,433.812 C 334.167,433.812 334.336,433.748 334.47,433.62 C 334.603,433.493 334.669,433.329 334.669,433.13 C 334.669,432.992 334.635,432.866 334.567,432.751 C 334.498,432.636 334.406,432.548 334.289,432.487 C 334.172,432.425 334.037,432.395 333.884,432.395 C 333.701,432.395 333.547,432.447 333.422,432.551 C 333.296,432.655 333.221,432.789 333.197,432.955 L 333.428,432.955 C 333.445,432.874 333.474,432.808 333.516,432.758 C 333.557,432.708 333.612,432.667 333.681,432.636 C 333.75,432.605 333.822,432.59 333.898,432.59 C 334.046,432.59 334.173,432.642 334.279,432.747 C 334.385,432.851 334.438,432.982 334.438,433.138 C 334.438,433.28 334.39,433.395 334.294,433.483 C 334.198,433.571 334.07,433.615 333.91,433.615 C 333.777,433.615 333.617,433.578 333.428,433.503 L 333.636,434.543 L 334.611,434.543 Z" marker-start="none" marker-end="none"/>
       <path d="M 334.907,433.494 C 334.907,433.771 334.939,433.984 335.003,434.135 C 335.066,434.286 335.157,434.401 335.273,434.478 C 335.389,434.556 335.519,434.595 335.663,434.595 C 335.809,434.595 335.941,434.556 336.06,434.478 C 336.178,434.399 336.272,434.282 336.341,434.125 C 336.41,433.969 336.444,433.758 336.444,433.494 C 336.444,433.231 336.41,433.022 336.342,432.866 C 336.274,432.711 336.181,432.593 336.061,432.514 C 335.942,432.434 335.809,432.395 335.663,432.395 C 335.519,432.395 335.39,432.433 335.274,432.51 C 335.159,432.587 335.069,432.702 335.004,432.854 C 334.939,433.007 334.907,433.22 334.907,433.494 Z M 335.12,433.49 C 335.12,433.254 335.143,433.075 335.188,432.954 C 335.233,432.833 335.3,432.741 335.389,432.678 C 335.478,432.616 335.572,432.584 335.671,432.584 C 335.771,432.584 335.864,432.615 335.951,432.676 C 336.038,432.737 336.104,432.829 336.149,432.952 C 336.205,433.101 336.233,433.28 336.233,433.49 C 336.233,433.701 336.208,433.873 336.158,434.008 C 336.108,434.142 336.039,434.24 335.95,434.303 C 335.862,434.365 335.769,434.396 335.671,434.396 C 335.571,434.396 335.477,434.365 335.389,434.303 C 335.302,434.24 335.235,434.149 335.189,434.028 C 335.143,433.907 335.12,433.727 335.12,433.49 Z" marker-start="none" marker-end="none"/>
      </g>
     </g>
     <g id="Group_10" fill-rule="nonzero" stroke-width="0.049" fill="#ffffff" stroke-miterlimit="79.8403193612775">
      <g id="Group_11">
       <path d="M 333.224,424.292 L 333.224,425.713 L 333.511,425.713 L 333.511,424.292 L 333.224,424.292 Z" stroke="none" marker-start="none" marker-end="none"/>
       <path d="M 333.785,424.292 L 333.785,425.713 L 334.245,425.713 C 334.42,425.713 334.534,425.705 334.587,425.691 C 334.668,425.67 334.736,425.624 334.791,425.552 C 334.846,425.481 334.874,425.389 334.874,425.275 C 334.874,425.188 334.858,425.115 334.826,425.055 C 334.794,424.996 334.754,424.949 334.705,424.915 C 334.657,424.881 334.607,424.859 334.557,424.848 C 334.488,424.834 334.389,424.828 334.259,424.828 L 334.072,424.828 L 334.072,424.292 L 333.785,424.292 Z M 334.072,425.472 L 334.072,425.069 L 334.229,425.069 C 334.342,425.069 334.418,425.076 334.456,425.091 C 334.494,425.106 334.524,425.129 334.545,425.161 C 334.567,425.193 334.578,425.23 334.578,425.272 C 334.578,425.323 334.563,425.366 334.532,425.399 C 334.502,425.433 334.463,425.454 334.417,425.462 C 334.383,425.469 334.314,425.472 334.21,425.472 L 334.072,425.472 Z" stroke="none" marker-start="none" marker-end="none"/>
       <path d="M 335.312,425.258 L 335.047,425.258 C 335.054,425.412 335.102,425.533 335.192,425.621 C 335.281,425.709 335.396,425.753 335.536,425.753 C 335.623,425.753 335.699,425.735 335.766,425.699 C 335.832,425.662 335.885,425.609 335.925,425.541 C 335.964,425.472 335.984,425.402 335.984,425.331 C 335.984,425.246 335.96,425.155 335.912,425.057 C 335.864,424.96 335.776,424.844 335.648,424.711 L 335.488,424.543 L 335.996,424.543 L 335.996,424.292 L 335.008,424.292 L 335.008,424.421 L 335.449,424.871 C 335.556,424.979 335.627,425.066 335.662,425.131 C 335.697,425.197 335.715,425.256 335.715,425.309 C 335.715,425.364 335.697,425.41 335.66,425.446 C 335.624,425.481 335.577,425.499 335.519,425.499 C 335.461,425.499 335.412,425.478 335.374,425.434 C 335.335,425.391 335.314,425.332 335.312,425.258 Z" stroke="#ffffff" marker-start="none" marker-end="none"/>
       <path d="M 336.404,425.717 L 336.81,425.717 L 336.81,424.292 L 336.541,424.292 L 336.541,425.462 L 336.247,425.462 L 336.404,425.717 Z" stroke="#ffffff" marker-start="none" marker-end="none"/>
      </g>
     </g>
     <g id="Group_12" fill-rule="nonzero" stroke="none" stroke-width="0.036" fill="#ffffff" stroke-miterlimit="79.8403193612775">
      <g id="Group_13">
       <path d="M 317.598,356.833 L 317.797,356.833 L 317.797,355.782 L 317.598,355.782 L 317.598,356.833 Z" marker-start="none" marker-end="none"/>
       <path d="M 318.001,356.56 L 318.196,356.56 L 318.196,356.48 C 318.24,356.517 318.28,356.543 318.316,356.558 C 318.352,356.572 318.389,356.58 318.427,356.58 C 318.504,356.58 318.569,356.553 318.623,356.499 C 318.669,356.453 318.691,356.385 318.691,356.296 L 318.691,355.782 L 318.498,355.782 L 318.498,356.123 C 318.498,356.216 318.494,356.277 318.486,356.308 C 318.477,356.338 318.463,356.362 318.442,356.378 C 318.421,356.393 318.396,356.401 318.365,356.401 C 318.326,356.401 318.292,356.388 318.263,356.362 C 318.235,356.335 318.215,356.299 318.204,356.252 C 318.199,356.228 318.196,356.175 318.196,356.094 L 318.196,355.782 L 318.001,355.782 L 318.001,356.56 Z" marker-start="none" marker-end="none"/>
       <path d="M 318.797,356.56 L 318.995,356.56 L 319.192,356.1 L 319.388,356.56 L 319.586,356.56 L 319.255,355.782 L 319.128,355.782 L 318.797,356.56 Z" marker-start="none" marker-end="none"/>
       <path d="M 320.48,356.114 L 319.852,356.114 C 319.862,356.059 319.886,356.015 319.925,355.982 C 319.964,355.949 320.015,355.933 320.076,355.933 C 320.149,355.933 320.211,355.959 320.264,356.01 L 320.428,355.932 C 320.387,355.874 320.338,355.831 320.281,355.803 C 320.224,355.775 320.156,355.761 320.077,355.761 C 319.955,355.761 319.856,355.8 319.779,355.877 C 319.702,355.954 319.664,356.05 319.664,356.166 C 319.664,356.285 319.702,356.383 319.778,356.462 C 319.855,356.54 319.951,356.58 320.066,356.58 C 320.189,356.58 320.288,356.54 320.365,356.462 C 320.442,356.383 320.48,356.28 320.48,356.151 L 320.48,356.114 Z M 320.284,356.268 C 320.271,356.311 320.245,356.346 320.208,356.374 C 320.17,356.401 320.126,356.414 320.076,356.414 C 320.021,356.414 319.974,356.399 319.933,356.369 C 319.907,356.35 319.883,356.316 319.861,356.268 L 320.284,356.268 Z" marker-start="none" marker-end="none"/>
       <path d="M 320.592,356.56 L 320.76,356.56 L 320.76,356.462 C 320.778,356.5 320.802,356.529 320.832,356.549 C 320.862,356.57 320.895,356.58 320.931,356.58 C 320.956,356.58 320.982,356.573 321.01,356.56 L 320.949,356.391 C 320.926,356.403 320.908,356.409 320.893,356.409 C 320.863,356.409 320.837,356.39 320.817,356.353 C 320.796,356.316 320.785,356.243 320.785,356.134 L 320.786,356.096 L 320.786,355.782 L 320.592,355.782 L 320.592,356.56 Z" marker-start="none" marker-end="none"/>
       <path d="M 321.131,356.846 L 321.325,356.846 L 321.325,356.56 L 321.441,356.56 L 321.441,356.391 L 321.325,356.391 L 321.325,355.782 L 321.131,355.782 L 321.131,356.391 L 321.031,356.391 L 321.031,356.56 L 321.131,356.56 L 321.131,356.846 Z" marker-start="none" marker-end="none"/>
       <path d="M 322.326,356.114 L 321.698,356.114 C 321.708,356.059 321.732,356.015 321.771,355.982 C 321.81,355.949 321.861,355.933 321.922,355.933 C 321.995,355.933 322.057,355.959 322.11,356.01 L 322.274,355.932 C 322.233,355.874 322.184,355.831 322.127,355.803 C 322.07,355.775 322.002,355.761 321.923,355.761 C 321.801,355.761 321.702,355.8 321.625,355.877 C 321.548,355.954 321.51,356.05 321.51,356.166 C 321.51,356.285 321.548,356.383 321.624,356.462 C 321.701,356.54 321.797,356.58 321.912,356.58 C 322.035,356.58 322.134,356.54 322.211,356.462 C 322.288,356.383 322.326,356.28 322.326,356.151 L 322.326,356.114 Z M 322.13,356.268 C 322.117,356.311 322.091,356.346 322.054,356.374 C 322.016,356.401 321.972,356.414 321.922,356.414 C 321.867,356.414 321.82,356.399 321.779,356.369 C 321.753,356.35 321.729,356.316 321.707,356.268 L 322.13,356.268 Z" marker-start="none" marker-end="none"/>
       <path d="M 322.438,356.56 L 322.606,356.56 L 322.606,356.462 C 322.624,356.5 322.648,356.529 322.678,356.549 C 322.708,356.57 322.741,356.58 322.777,356.58 C 322.802,356.58 322.828,356.573 322.856,356.56 L 322.795,356.391 C 322.772,356.403 322.754,356.409 322.739,356.409 C 322.709,356.409 322.683,356.39 322.663,356.353 C 322.642,356.316 322.631,356.243 322.631,356.134 L 322.632,356.096 L 322.632,355.782 L 322.438,355.782 L 322.438,356.56 Z" marker-start="none" marker-end="none"/>
      </g>
     </g>
     <g id="Group_14" fill-rule="nonzero" stroke="none" stroke-width="0.036" fill="#ffffff" stroke-miterlimit="79.8403193612775">
      <g id="Group_15">
       <path d="M 318.363,352.214 L 318.223,352.08 C 318.128,352.181 318.021,352.231 317.901,352.231 C 317.801,352.231 317.716,352.197 317.647,352.128 C 317.578,352.06 317.544,351.975 317.544,351.875 C 317.544,351.804 317.559,351.742 317.59,351.688 C 317.62,351.634 317.663,351.591 317.719,351.56 C 317.775,351.529 317.837,351.513 317.905,351.513 C 317.963,351.513 318.016,351.524 318.065,351.546 C 318.113,351.568 318.166,351.607 318.223,351.664 L 318.359,351.523 C 318.281,351.447 318.208,351.394 318.139,351.365 C 318.07,351.336 317.991,351.321 317.902,351.321 C 317.739,351.321 317.605,351.373 317.501,351.477 C 317.397,351.58 317.344,351.713 317.344,351.875 C 317.344,351.98 317.368,352.073 317.416,352.155 C 317.463,352.236 317.531,352.302 317.619,352.351 C 317.708,352.401 317.803,352.426 317.905,352.426 C 317.992,352.426 318.075,352.407 318.156,352.371 C 318.236,352.334 318.305,352.282 318.363,352.214 Z" marker-start="none" marker-end="none"/>
       <path d="M 318.518,352.426 L 318.712,352.426 L 318.712,352.047 C 318.75,352.08 318.788,352.104 318.827,352.121 C 318.865,352.137 318.905,352.146 318.944,352.146 C 319.021,352.146 319.086,352.119 319.139,352.065 C 319.185,352.019 319.207,351.951 319.207,351.862 L 319.207,351.348 L 319.015,351.348 L 319.015,351.689 C 319.015,351.779 319.011,351.84 319.002,351.872 C 318.993,351.904 318.979,351.927 318.958,351.943 C 318.937,351.959 318.912,351.967 318.881,351.967 C 318.842,351.967 318.808,351.954 318.779,351.927 C 318.751,351.901 318.731,351.865 318.72,351.82 C 318.715,351.797 318.712,351.743 318.712,351.66 L 318.712,351.348 L 318.518,351.348 L 318.518,352.426 Z" marker-start="none" marker-end="none"/>
       <path d="M 319.971,352.126 L 320.166,352.126 L 320.166,351.348 L 319.971,351.348 L 319.971,351.43 C 319.933,351.394 319.895,351.367 319.856,351.351 C 319.818,351.335 319.776,351.327 319.732,351.327 C 319.631,351.327 319.544,351.366 319.471,351.444 C 319.397,351.522 319.36,351.619 319.36,351.735 C 319.36,351.855 319.396,351.954 319.467,352.03 C 319.538,352.107 319.624,352.146 319.726,352.146 C 319.773,352.146 319.816,352.137 319.857,352.119 C 319.898,352.101 319.936,352.075 319.971,352.04 L 319.971,352.126 Z M 319.766,351.965 C 319.705,351.965 319.655,351.944 319.615,351.901 C 319.575,351.859 319.555,351.804 319.555,351.737 C 319.555,351.67 319.575,351.615 319.616,351.571 C 319.657,351.528 319.707,351.506 319.767,351.506 C 319.828,351.506 319.879,351.528 319.92,351.57 C 319.96,351.613 319.98,351.669 319.98,351.738 C 319.98,351.806 319.96,351.86 319.92,351.902 C 319.879,351.944 319.828,351.965 319.766,351.965 Z" marker-start="none" marker-end="none"/>
       <path d="M 320.317,352.126 L 320.485,352.126 L 320.485,352.028 C 320.503,352.066 320.527,352.095 320.557,352.115 C 320.587,352.136 320.62,352.146 320.656,352.146 C 320.681,352.146 320.707,352.139 320.735,352.126 L 320.674,351.957 C 320.651,351.969 320.633,351.975 320.618,351.975 C 320.588,351.975 320.562,351.956 320.542,351.919 C 320.521,351.882 320.51,351.809 320.51,351.7 L 320.511,351.662 L 320.511,351.348 L 320.317,351.348 L 320.317,352.126 Z" marker-start="none" marker-end="none"/>
       <path d="M 321.407,352.126 L 321.602,352.126 L 321.602,351.459 C 321.602,351.327 321.575,351.231 321.522,351.169 C 321.451,351.085 321.344,351.043 321.201,351.043 C 321.125,351.043 321.061,351.052 321.009,351.071 C 320.957,351.091 320.913,351.119 320.877,351.156 C 320.841,351.192 320.815,351.237 320.798,351.29 L 321.013,351.29 C 321.032,351.268 321.057,351.252 321.087,351.241 C 321.117,351.229 321.152,351.224 321.193,351.224 C 321.246,351.224 321.288,351.232 321.32,351.248 C 321.352,351.264 321.374,351.285 321.387,351.311 C 321.401,351.337 321.407,351.381 321.407,351.444 C 321.373,351.41 321.337,351.385 321.299,351.37 C 321.261,351.355 321.219,351.348 321.171,351.348 C 321.067,351.348 320.979,351.385 320.907,351.46 C 320.835,351.536 320.799,351.631 320.799,351.747 C 320.799,351.87 320.837,351.969 320.913,352.044 C 320.982,352.112 321.065,352.146 321.16,352.146 C 321.205,352.146 321.248,352.137 321.287,352.121 C 321.327,352.104 321.367,352.077 321.407,352.04 L 321.407,352.126 Z M 321.205,351.963 C 321.143,351.963 321.092,351.943 321.052,351.901 C 321.012,351.86 320.992,351.808 320.992,351.746 C 320.992,351.681 321.013,351.628 321.054,351.586 C 321.095,351.545 321.146,351.524 321.208,351.524 C 321.269,351.524 321.319,351.544 321.358,351.585 C 321.397,351.625 321.417,351.679 321.417,351.744 C 321.417,351.809 321.397,351.862 321.358,351.902 C 321.318,351.943 321.267,351.963 321.205,351.963 Z" marker-start="none" marker-end="none"/>
       <path d="M 322.579,351.68 L 321.951,351.68 C 321.961,351.625 321.985,351.581 322.024,351.548 C 322.063,351.515 322.114,351.499 322.175,351.499 C 322.248,351.499 322.31,351.525 322.363,351.576 L 322.527,351.498 C 322.486,351.44 322.437,351.397 322.38,351.369 C 322.323,351.341 322.255,351.327 322.176,351.327 C 322.054,351.327 321.955,351.366 321.878,351.443 C 321.801,351.52 321.763,351.616 321.763,351.732 C 321.763,351.851 321.801,351.949 321.877,352.028 C 321.954,352.106 322.05,352.146 322.165,352.146 C 322.288,352.146 322.387,352.106 322.464,352.028 C 322.541,351.949 322.579,351.846 322.579,351.717 L 322.579,351.68 Z M 322.383,351.834 C 322.37,351.877 322.344,351.912 322.307,351.94 C 322.269,351.967 322.225,351.98 322.175,351.98 C 322.12,351.98 322.073,351.965 322.032,351.935 C 322.006,351.916 321.982,351.882 321.96,351.834 L 322.383,351.834 Z" marker-start="none" marker-end="none"/>
       <path d="M 322.691,352.126 L 322.859,352.126 L 322.859,352.028 C 322.877,352.066 322.901,352.095 322.931,352.115 C 322.961,352.136 322.994,352.146 323.03,352.146 C 323.055,352.146 323.081,352.139 323.109,352.126 L 323.048,351.957 C 323.025,351.969 323.007,351.975 322.992,351.975 C 322.962,351.975 322.936,351.956 322.916,351.919 C 322.895,351.882 322.884,351.809 322.884,351.7 L 322.885,351.662 L 322.885,351.348 L 322.691,351.348 L 322.691,352.126 Z" marker-start="none" marker-end="none"/>
      </g>
     </g>
     <g id="Group_16" fill-rule="nonzero" stroke="none" stroke-width="0.036" fill="#ffffff" stroke-miterlimit="79.8403193612775">
      <g id="Group_17">
       <path d="M 318.57,348.252 L 318.773,348.252 L 319.178,347.201 L 318.97,347.201 L 318.887,347.417 L 318.458,347.417 L 318.373,347.201 L 318.165,347.201 L 318.57,348.252 Z M 318.673,347.974 L 318.533,347.612 L 318.812,347.612 L 318.673,347.974 Z" marker-start="none" marker-end="none"/>
       <path d="M 319.291,348.279 L 319.487,348.279 L 319.487,347.201 L 319.291,347.201 L 319.291,348.279 Z" marker-start="none" marker-end="none"/>
       <path d="M 320.238,347.979 L 320.433,347.979 L 320.433,347.201 L 320.238,347.201 L 320.238,347.283 C 320.2,347.247 320.162,347.22 320.123,347.204 C 320.085,347.188 320.043,347.18 319.999,347.18 C 319.898,347.18 319.811,347.219 319.738,347.297 C 319.664,347.375 319.627,347.472 319.627,347.588 C 319.627,347.708 319.663,347.807 319.734,347.883 C 319.805,347.96 319.891,347.999 319.993,347.999 C 320.04,347.999 320.083,347.99 320.124,347.972 C 320.165,347.954 320.203,347.928 320.238,347.893 L 320.238,347.979 Z M 320.033,347.818 C 319.972,347.818 319.922,347.797 319.882,347.754 C 319.842,347.712 319.822,347.657 319.822,347.59 C 319.822,347.523 319.842,347.468 319.883,347.424 C 319.924,347.381 319.974,347.359 320.034,347.359 C 320.095,347.359 320.146,347.381 320.187,347.423 C 320.227,347.466 320.247,347.522 320.247,347.591 C 320.247,347.659 320.227,347.713 320.187,347.755 C 320.146,347.797 320.095,347.818 320.033,347.818 Z" marker-start="none" marker-end="none"/>
       <path d="M 320.584,347.979 L 320.752,347.979 L 320.752,347.881 C 320.77,347.919 320.794,347.948 320.824,347.968 C 320.854,347.989 320.887,347.999 320.923,347.999 C 320.948,347.999 320.974,347.992 321.002,347.979 L 320.941,347.81 C 320.918,347.822 320.9,347.828 320.885,347.828 C 320.855,347.828 320.829,347.809 320.809,347.772 C 320.788,347.735 320.777,347.662 320.777,347.553 L 320.778,347.515 L 320.778,347.201 L 320.584,347.201 L 320.584,347.979 Z" marker-start="none" marker-end="none"/>
       <path d="M 321.098,347.979 L 321.294,347.979 L 321.294,347.889 C 321.327,347.926 321.364,347.953 321.405,347.971 C 321.446,347.989 321.49,347.999 321.538,347.999 C 321.587,347.999 321.631,347.987 321.67,347.963 C 321.709,347.939 321.74,347.904 321.764,347.858 C 321.795,347.904 321.833,347.939 321.878,347.963 C 321.923,347.987 321.973,347.999 322.026,347.999 C 322.081,347.999 322.13,347.986 322.172,347.96 C 322.214,347.934 322.244,347.901 322.262,347.859 C 322.281,347.818 322.29,347.75 322.29,347.657 L 322.29,347.201 L 322.093,347.201 L 322.093,347.595 C 322.093,347.683 322.082,347.743 322.06,347.774 C 322.038,347.806 322.005,347.821 321.962,347.821 C 321.928,347.821 321.898,347.812 321.872,347.793 C 321.845,347.774 321.826,347.747 321.813,347.714 C 321.8,347.68 321.794,347.626 321.794,347.552 L 321.794,347.201 L 321.597,347.201 L 321.597,347.577 C 321.597,347.647 321.592,347.697 321.581,347.729 C 321.571,347.76 321.556,347.783 321.535,347.798 C 321.515,347.814 321.49,347.821 321.461,347.821 C 321.429,347.821 321.399,347.812 321.373,347.792 C 321.346,347.773 321.326,347.746 321.313,347.711 C 321.3,347.676 321.294,347.621 321.294,347.547 L 321.294,347.201 L 321.098,347.201 L 321.098,347.979 Z" marker-start="none" marker-end="none"/>
      </g>
     </g>
     <path d="M 289.752,452.451 L 289.8,361.391" fill="none" stroke="#167cd5" stroke-width="0.375" stroke-miterlimit="79.8403193612775"/>
     <path d="M 350.021,452.269 L 350.069,361.209" fill="none" stroke="#167cd5" stroke-width="0.375" stroke-miterlimit="79.8403193612775"/>
     <path d="M 350.345,351.796 C 349.65,352.917 348.749,353.209 347.458,353.197 L 339.711,353.58 L 326.859,353.604 C 326.015,353.544 325.568,353.927 325.557,354.792 L 324.537,360.384 C 324.39,361.068 323.815,361.374 323.096,361.579 L 317.152,361.614 C 316.523,361.619 316.11,361.238 315.851,360.595 L 314.937,354.827 C 314.806,353.905 314.258,353.437 313.108,353.628 L 300.113,353.651 L 293.496,353.347 C 291.789,353.613 290.484,352.253 289.445,351.406" fill="none" stroke="#1788ec" stroke-width="0.75" stroke-miterlimit="79.8403193612775"/>
     <g id="Group_18">
      <g id="Group_19" stroke="#ffffff">
       <path d="M 304.281,423.741 L 305.589,423.772 C 305.769,423.777 305.844,423.908 305.756,424.065 L 305.057,425.31 C 304.969,425.467 304.831,425.464 304.75,425.303 L 304.102,424.025 C 304.021,423.864 304.101,423.737 304.281,423.741 Z" stroke-width="0.208" stroke-linejoin="miter" marker-start="none" marker-end="none" stroke-miterlimit="79.8403193612775"/>
       <path d="M 304.964,424.961 L 304.76,424.514 L 305.089,424.569 L 304.987,424.264" fill="none" marker-end="url(#DefaultArrowStyled)" stroke-width="0.103" stroke-miterlimit="79.8403193612775"/>
      </g>
      <g id="Group_20">
       <g id="Group_21" fill-rule="nonzero" stroke="none" stroke-width="0.025" fill="#ffffff" stroke-miterlimit="79.8403193612775">
        <g id="Group_22">
         <path d="M 308.433,424.995 C 308.462,424.995 308.484,424.988 308.501,424.973 C 308.517,424.959 308.525,424.94 308.525,424.915 C 308.525,424.89 308.511,424.868 308.483,424.848 C 308.455,424.828 308.422,424.818 308.385,424.818 C 308.357,424.818 308.335,424.825 308.318,424.839 C 308.301,424.852 308.292,424.87 308.292,424.892 C 308.292,424.92 308.306,424.944 308.334,424.964 C 308.362,424.985 308.395,424.995 308.433,424.995 Z M 308.598,424.299 L 308.23,424.299 L 308.23,424.319 L 308.299,424.319 L 308.299,424.702 L 308.23,424.702 L 308.23,424.722 L 308.402,424.722 C 308.445,424.722 308.488,424.727 308.53,424.736 L 308.53,424.319 L 308.598,424.319 L 308.598,424.299 Z" marker-start="none" marker-end="none"/>
        </g>
       </g>
       <path d="M 307.879,425.412 L 307.879,423.948" fill="none" stroke="#ffffff" stroke-width="0.208" stroke-miterlimit="79.8403193612775"/>
       <path d="M 306.961,425.29 L 306.961,423.653" fill="none" stroke="#ffffff" stroke-width="0.208" stroke-miterlimit="79.8403193612775"/>
       <path d="M 308.811,425.305 L 308.811,423.668" fill="none" stroke="#ffffff" stroke-width="0.208" stroke-miterlimit="79.8403193612775"/>
       <path d="M 306.954,425.193 C 307.564,425.385 308.186,425.44 308.837,425.193" fill="none" stroke="#ffffff" stroke-width="0.208" stroke-miterlimit="79.8403193612775"/>
       <path d="M 306.993,423.735 C 307.55,424.048 308.16,424.04 308.819,423.735" fill="none" stroke="#ffffff" stroke-width="0.208" stroke-miterlimit="79.8403193612775"/>
      </g>
      <g id="Group_23">
       <path d="M 313.286,423.742 L 315.463,423.778 C 315.644,423.781 315.698,423.897 315.584,424.037 L 314.526,425.343 C 314.413,425.483 314.234,425.479 314.127,425.333 L 313.152,424.001 C 313.046,423.855 313.106,423.739 313.286,423.742 Z" stroke="#ffffff" stroke-width="0.208" stroke-linejoin="miter" marker-start="none" marker-end="none" stroke-miterlimit="79.8403193612775"/>
       <path d="M 314.337,424.905 C 314.602,424.905 314.817,424.69 314.817,424.425 C 314.817,424.159 314.602,423.944 314.337,423.944 C 314.071,423.944 313.856,424.159 313.856,424.425 C 313.856,424.69 314.071,424.905 314.337,424.905 Z" stroke="#ffffff" stroke-width="0.103" marker-start="none" marker-end="none" stroke-miterlimit="79.8403193612775"/>
       <path d="M 314.735,424.898 L 314.438,424.642 L 314.606,424.447 L 314.903,424.703 L 314.735,424.898 Z" stroke="none" fill="#1890f9" stroke-width="0.051" stroke-linejoin="miter" marker-start="none" marker-end="none" stroke-miterlimit="79.8403193612775"/>
       <path d="M 314.115,424.48 L 314.282,424.611 L 314.283,424.206 L 314.771,424.751" fill="none" stroke="#ffffff" stroke-width="0.103" stroke-miterlimit="79.8403193612775"/>
      </g>
      <g id="Group_24" fill="#1890f9">
       <path d="M 310.618,425.232 C 311.005,425.232 311.318,424.919 311.318,424.533 C 311.318,424.146 311.005,423.832 310.618,423.832 C 310.232,423.832 309.918,424.146 309.918,424.533 C 309.918,424.919 310.232,425.232 310.618,425.232 Z" stroke="#ffffff" stroke-width="0.208" marker-start="none" marker-end="none" stroke-miterlimit="79.8403193612775"/>
       <path d="M 310.759,425.52 L 310.759,423.687 L 311.528,423.687 L 311.528,425.52 L 310.759,425.52 Z" stroke-width="0.103" stroke="none" stroke-linejoin="miter" marker-start="none" marker-end="none" stroke-miterlimit="79.8403193612775"/>
       <path d="M 311.942,425.252 C 312.328,425.252 312.642,424.939 312.642,424.553 C 312.642,424.166 312.328,423.853 311.942,423.853 C 311.555,423.853 311.241,424.166 311.241,424.553 C 311.241,424.939 311.555,425.252 311.942,425.252 Z" stroke="#ffffff" stroke-width="0.208" marker-start="none" marker-end="none" stroke-miterlimit="79.8403193612775"/>
       <path d="M 311.285,424.541 L 311.943,424.541" fill="none" stroke="#ffffff" stroke-width="0.208" stroke-miterlimit="79.8403193612775"/>
       <path d="M 312.139,425.472 L 312.139,423.639 L 312.908,423.639 L 312.908,425.472 L 312.139,425.472 Z" stroke-width="0.103" stroke="none" stroke-linejoin="miter" marker-start="none" marker-end="none" stroke-miterlimit="79.8403193612775"/>
      </g>
     </g>
     <g id="Group_25">
      <path d="M 328.128,341.749 C 328.885,341.749 329.501,341.133 329.501,340.376 C 329.501,339.618 328.885,339.002 328.128,339.002 C 327.37,339.002 326.754,339.618 326.754,340.376 C 326.754,341.133 327.37,341.749 328.128,341.749 Z" fill="#7f7f7f" stroke="#4c4c4c" stroke-width="0.091" marker-start="none" marker-end="none" stroke-miterlimit="79.8403193612775"/>
      <path d="M 328.128,341.534 C 328.767,341.534 329.286,341.015 329.286,340.376 C 329.286,339.736 328.767,339.217 328.128,339.217 C 327.488,339.217 326.969,339.736 326.969,340.376 C 326.969,341.015 327.488,341.534 328.128,341.534 Z" fill="#333333" stroke="#4c4c4c" stroke-width="0.077" marker-start="none" marker-end="none" stroke-miterlimit="79.8403193612775"/>
      <g id="Group_26" fill-rule="nonzero" stroke="none" stroke-width="0.081" fill="#191919" stroke-miterlimit="79.8403193612775">
       <g id="Group_27">
        <path d="M 328.291,339.711 L 327.958,339.711 L 327.958,340.204 L 327.463,340.204 L 327.463,340.542 L 327.958,340.542 L 327.958,341.037 L 328.291,341.037 L 328.291,340.542 L 328.789,340.542 L 328.789,340.204 L 328.291,340.204 L 328.291,339.711 Z" marker-start="none" marker-end="none"/>
       </g>
      </g>
     </g>
     <g id="Group_28" fill-rule="nonzero" stroke="none" fill="#ffffff">
      <path d="M 304.156,453.619 C 304.156,453.619 303.694,453.801 303.225,453.424 C 303.225,453.424 302.668,453.051 302.566,451.477 C 302.566,451.477 302.536,451.215 302.767,451.176 C 302.767,451.176 303,451.131 303.03,451.327 C 303.061,451.524 303.055,452.517 303.495,453.026 C 303.495,453.026 303.538,453.091 303.655,453.141 C 303.753,453.201 303.83,453.311 303.888,453.398 C 303.888,453.398 303.974,453.513 304.156,453.619 L 304.156,453.619 Z" marker-start="none" marker-end="none"/>
      <path d="M 304.991,453.656 C 304.991,453.656 304.58,453.786 304.137,453.448 C 304.137,453.448 303.612,453.127 303.489,451.851 C 303.489,451.851 303.444,451.536 303.468,451.376 C 303.468,451.376 303.489,451.19 303.681,451.173 C 303.681,451.173 303.913,451.155 303.927,451.372 C 303.942,451.589 303.947,451.678 303.947,451.678 C 303.947,451.678 303.984,452.526 304.328,452.956 C 304.328,452.956 304.411,452.894 304.411,452.894 C 304.411,452.894 304.528,453.339 304.991,453.656 C 304.991,453.656 304.991,453.656 304.991,453.656 L 304.991,453.656 Z" marker-start="none" marker-end="none"/>
      <path d="M 305.826,453.656 C 305.826,453.656 305.275,453.784 304.877,453.352 C 304.877,453.352 304.481,452.999 304.365,452.123 C 304.365,452.123 304.315,451.652 304.308,451.423 C 304.308,451.423 304.303,451.201 304.517,451.173 C 304.517,451.173 304.737,451.16 304.751,451.393 C 304.751,451.393 304.766,452.465 305.162,452.956 C 305.162,452.956 305.261,452.895 305.261,452.895 C 305.261,452.895 305.433,453.391 305.826,453.656 C 305.826,453.656 305.826,453.656 305.826,453.656 L 305.826,453.656 Z" marker-start="none" marker-end="none"/>
      <path d="M 306.459,453.668 C 306.459,453.668 305.905,453.69 305.58,453.132 C 305.58,453.132 305.204,452.584 305.205,451.463 C 305.205,451.463 305.182,451.197 305.391,451.173 C 305.391,451.173 305.638,451.157 305.638,451.44 C 305.638,451.44 305.649,452.546 306.071,452.993 C 306.071,452.993 306.445,452.544 306.475,451.489 C 306.475,451.489 306.488,450.765 306.624,450.366 C 306.624,450.366 306.745,450.814 306.77,451.433 C 306.77,451.433 306.76,451.547 306.858,451.627 C 306.858,451.627 306.923,451.658 306.91,451.771 C 306.91,451.771 306.82,452.692 306.513,453.214 C 306.513,453.214 307.163,453.256 307.292,451.955 C 307.292,451.955 307.293,451.765 307.399,451.646 C 307.399,451.646 307.476,451.592 307.484,451.458 C 307.484,451.458 307.503,451.274 307.448,450.679 C 307.448,450.679 307.435,450.548 307.492,450.362 C 307.492,450.362 307.652,450.807 307.61,451.243 C 307.61,451.243 307.589,451.597 307.765,451.717 C 307.765,451.717 307.75,452.704 307.358,453.244 C 307.358,453.244 307.047,453.692 306.459,453.668 C 306.459,453.668 306.459,453.668 306.459,453.668 L 306.459,453.668 Z" marker-start="none" marker-end="none"/>
      <path d="M 308.396,449.197 C 308.396,449.197 308.858,449.015 309.327,449.392 C 309.327,449.392 309.884,449.765 309.986,451.339 C 309.986,451.339 310.017,451.601 309.785,451.64 C 309.785,451.64 309.552,451.685 309.522,451.489 C 309.491,451.292 309.497,450.299 309.057,449.789 C 309.057,449.789 309.014,449.725 308.897,449.675 C 308.799,449.615 308.722,449.505 308.664,449.417 C 308.664,449.417 308.579,449.303 308.396,449.197 L 308.396,449.197 Z" marker-start="none" marker-end="none"/>
      <path d="M 307.562,449.16 C 307.562,449.16 307.973,449.029 308.415,449.367 C 308.415,449.367 308.941,449.688 309.063,450.965 C 309.063,450.965 309.108,451.28 309.084,451.439 C 309.084,451.439 309.064,451.626 308.871,451.642 C 308.871,451.642 308.639,451.661 308.625,451.444 C 308.61,451.226 308.605,451.138 308.605,451.138 C 308.605,451.138 308.569,450.29 308.224,449.859 C 308.224,449.859 308.141,449.922 308.141,449.922 C 308.141,449.922 308.024,449.476 307.562,449.16 C 307.562,449.16 307.562,449.16 307.562,449.16 L 307.562,449.16 Z" marker-start="none" marker-end="none"/>
      <path d="M 306.727,449.16 C 306.727,449.16 307.277,449.032 307.676,449.464 C 307.676,449.464 308.071,449.817 308.187,450.693 C 308.187,450.693 308.236,451.163 308.245,451.393 C 308.245,451.393 308.249,451.615 308.035,451.643 C 308.035,451.643 307.815,451.656 307.801,451.423 C 307.801,451.423 307.787,450.35 307.389,449.859 C 307.389,449.859 307.292,449.921 307.292,449.921 C 307.292,449.921 307.12,449.425 306.727,449.16 C 306.727,449.16 306.727,449.16 306.727,449.16 L 306.727,449.16 Z" marker-start="none" marker-end="none"/>
      <path d="M 306.093,449.148 C 306.093,449.148 306.648,449.125 306.973,449.684 C 306.973,449.684 307.349,450.231 307.347,451.353 C 307.347,451.353 307.37,451.619 307.161,451.643 C 307.161,451.643 306.915,451.658 306.915,451.376 C 306.915,451.376 306.904,450.27 306.481,449.823 C 306.481,449.823 306.107,450.271 306.077,451.327 C 306.077,451.327 306.064,452.051 305.929,452.45 C 305.929,452.45 305.807,452.002 305.782,451.382 C 305.782,451.382 305.792,451.269 305.694,451.189 C 305.694,451.189 305.629,451.157 305.642,451.045 C 305.642,451.045 305.732,450.124 306.039,449.602 C 306.039,449.602 305.389,449.559 305.26,450.861 C 305.26,450.861 305.259,451.051 305.153,451.169 C 305.153,451.169 305.076,451.224 305.068,451.358 C 305.068,451.358 305.049,451.542 305.104,452.137 C 305.104,452.137 305.117,452.268 305.06,452.453 C 305.06,452.453 304.9,452.008 304.942,451.573 C 304.942,451.573 304.963,451.219 304.787,451.099 C 304.787,451.099 304.802,450.112 305.195,449.571 C 305.195,449.571 305.506,449.124 306.093,449.148 C 306.093,449.148 306.093,449.148 306.093,449.148 L 306.093,449.148 Z" marker-start="none" marker-end="none"/>
      <path d="M 310.745,452.39 C 310.745,452.39 310.981,453.113 310.981,453.113 C 311.021,453.238 311.153,453.293 311.267,453.235 C 311.367,453.187 311.409,453.076 311.364,452.965 C 311.364,452.965 310.965,451.961 310.965,451.961 C 310.904,451.813 310.803,451.757 310.663,451.808 C 310.599,451.829 310.557,451.874 310.523,451.961 C 310.523,451.961 310.123,452.965 310.123,452.965 C 310.078,453.076 310.12,453.187 310.221,453.235 C 310.334,453.293 310.467,453.235 310.507,453.113 C 310.507,453.113 310.745,452.39 310.745,452.39 C 310.745,452.39 310.745,452.39 310.745,452.39 L 310.745,452.39 Z" marker-start="none" marker-end="none"/>
      <path d="M 311.526,453.788 C 311.618,453.881 311.767,453.878 311.86,453.786 C 311.95,453.693 311.95,453.547 311.86,453.454 C 311.767,453.362 311.618,453.362 311.529,453.452 C 311.483,453.497 311.457,453.558 311.457,453.621 C 311.457,453.682 311.483,453.743 311.526,453.788 C 311.526,453.788 311.526,453.788 311.526,453.788 L 311.526,453.788 Z M 311.489,453.052 C 311.489,453.108 311.51,453.161 311.55,453.198 C 311.629,453.28 311.759,453.277 311.838,453.198 C 311.875,453.158 311.897,453.105 311.897,453.052 C 311.897,453.052 311.897,451.993 311.897,451.993 C 311.899,451.879 311.809,451.789 311.695,451.786 C 311.582,451.786 311.489,451.879 311.489,451.99 C 311.489,451.99 311.489,453.052 311.489,453.052 C 311.489,453.052 311.489,453.052 311.489,453.052 L 311.489,453.052 Z" marker-start="none" marker-end="none"/>
      <path d="M 312.889,453.256 C 313.193,453.222 313.294,453.089 313.26,452.954 C 313.239,452.864 313.172,452.811 313.093,452.814 C 313.08,452.816 313.067,452.816 313.053,452.819 C 313.053,452.819 313.032,452.827 313.032,452.827 C 313.032,452.827 312.995,452.84 312.995,452.84 C 312.995,452.84 312.968,452.848 312.968,452.848 C 312.968,452.848 312.932,452.861 312.932,452.861 C 312.685,452.941 312.487,452.795 312.489,452.517 C 312.495,452.239 312.696,452.104 312.958,452.192 C 312.958,452.192 313.003,452.207 313.003,452.207 C 313.003,452.207 313.021,452.215 313.021,452.215 C 313.141,452.258 313.246,452.199 313.265,452.075 C 313.281,451.972 313.212,451.876 313.021,451.816 C 312.974,451.8 312.923,451.789 312.871,451.784 C 312.415,451.741 312.071,452.059 312.076,452.528 C 312.081,452.999 312.434,453.306 312.889,453.256 C 312.889,453.256 312.889,453.256 312.889,453.256 L 312.889,453.256 Z" marker-start="none" marker-end="none"/>
      <path d="M 313.564,453.24 C 313.564,453.24 313.561,453.476 313.561,453.476 C 313.561,453.587 313.651,453.68 313.765,453.68 C 313.876,453.68 313.969,453.587 313.966,453.476 C 313.966,453.476 313.966,453.24 313.966,453.24 C 313.966,453.24 314.088,453.24 314.088,453.24 C 314.135,453.24 314.183,453.222 314.218,453.184 C 314.289,453.116 314.289,452.999 314.218,452.927 C 314.181,452.893 314.135,452.875 314.086,452.875 C 314.086,452.875 313.966,452.875 313.966,452.875 C 313.966,452.875 313.966,451.996 313.966,451.996 C 313.966,451.943 313.945,451.89 313.908,451.85 C 313.829,451.771 313.701,451.771 313.624,451.85 C 313.585,451.89 313.564,451.943 313.564,451.996 C 313.564,451.996 313.566,452.878 313.566,452.878 C 313.566,452.878 313.495,452.878 313.495,452.878 C 313.444,452.878 313.397,452.896 313.36,452.933 C 313.288,453.002 313.288,453.116 313.362,453.187 C 313.397,453.222 313.444,453.24 313.495,453.24 C 313.495,453.24 313.564,453.24 313.564,453.24 C 313.564,453.24 313.564,453.24 313.564,453.24 L 313.564,453.24 Z" marker-start="none" marker-end="none"/>
      <path d="M 314.35,453.06 C 314.35,453.158 314.432,453.248 314.556,453.256 C 314.683,453.267 314.76,453.187 314.755,453.11 C 314.755,453.11 314.752,453.089 314.752,453.089 C 314.763,453.103 314.773,453.116 314.787,453.126 C 314.943,453.296 315.12,453.293 315.203,453.171 C 315.274,453.066 315.237,452.944 315.131,452.899 C 315.131,452.899 315.11,452.888 315.11,452.888 C 315.11,452.888 315.054,452.869 315.054,452.869 C 315.001,452.851 314.964,452.832 314.932,452.814 C 314.802,452.737 314.757,452.668 314.757,452.602 C 314.757,452.602 314.757,451.993 314.757,451.993 C 314.757,451.882 314.667,451.789 314.554,451.789 C 314.44,451.789 314.35,451.879 314.35,451.99 C 314.35,451.99 314.35,453.06 314.35,453.06 C 314.35,453.06 314.35,453.06 314.35,453.06 L 314.35,453.06 Z" marker-start="none" marker-end="none"/>
      <path d="M 315.633,452.462 C 315.668,452.218 315.811,452.109 315.985,452.149 C 316.102,452.173 316.189,452.279 316.21,452.459 C 316.216,452.501 316.216,452.544 316.21,452.586 C 316.187,452.761 316.096,452.864 315.985,452.888 C 315.816,452.925 315.665,452.819 315.633,452.583 C 315.631,452.562 315.631,452.541 315.631,452.52 C 315.631,452.499 315.631,452.48 315.633,452.462 C 315.633,452.462 315.633,452.462 315.633,452.462 L 315.633,452.462 Z M 315.326,452.92 C 315.458,453.139 315.683,453.267 315.924,453.267 C 316.308,453.267 316.623,452.949 316.626,452.525 C 316.626,452.099 316.311,451.781 315.924,451.781 C 315.535,451.781 315.223,452.099 315.223,452.525 C 315.223,452.679 315.257,452.809 315.326,452.92 C 315.326,452.92 315.326,452.92 315.326,452.92 L 315.326,452.92 Z" marker-start="none" marker-end="none"/>
      <path d="M 316.801,453.049 C 316.801,453.15 316.885,453.246 317.005,453.256 C 317.113,453.267 317.187,453.198 317.187,453.124 C 317.187,453.124 317.187,453.108 317.187,453.108 C 317.251,453.184 317.338,453.235 317.463,453.256 C 317.529,453.269 317.595,453.269 317.658,453.259 C 317.939,453.214 318.093,453.028 318.093,452.75 C 318.093,452.75 318.093,451.99 318.093,451.99 C 318.093,451.876 318.003,451.786 317.891,451.784 C 317.778,451.784 317.685,451.874 317.685,451.987 C 317.685,451.987 317.685,452.681 317.685,452.681 C 317.685,452.745 317.658,452.806 317.613,452.851 C 317.521,452.946 317.37,452.946 317.277,452.854 C 317.232,452.806 317.208,452.748 317.208,452.684 C 317.208,452.684 317.208,451.99 317.208,451.99 C 317.208,451.879 317.116,451.786 317.002,451.789 C 316.891,451.789 316.801,451.882 316.801,451.993 C 316.801,451.993 316.801,453.049 316.801,453.049 C 316.801,453.049 316.801,453.049 316.801,453.049 L 316.801,453.049 Z" marker-start="none" marker-end="none"/>
      <path d="M 319.975,452.658 C 319.973,452.666 319.973,452.676 319.97,452.684 C 319.928,452.878 319.79,452.967 319.634,452.93 C 319.536,452.906 319.451,452.822 319.417,452.689 C 319.414,452.679 319.414,452.668 319.412,452.658 C 319.412,452.658 319.975,452.658 319.975,452.658 C 319.975,452.658 319.975,452.658 319.975,452.658 L 319.975,452.658 Z M 319.422,452.395 C 319.433,452.345 319.456,452.295 319.491,452.252 C 319.599,452.122 319.798,452.091 320.023,452.21 C 320.153,452.282 320.19,452.287 320.259,452.26 C 320.298,452.244 320.33,452.213 320.346,452.173 C 320.404,452.03 320.227,451.784 319.729,451.781 C 319.223,451.781 318.887,452.199 319.004,452.702 C 319.07,452.994 319.289,453.203 319.565,453.253 C 319.883,453.312 320.185,453.15 320.317,452.848 C 320.351,452.766 320.373,452.681 320.378,452.618 C 320.394,452.454 320.341,452.395 320.206,452.395 C 320.206,452.395 319.422,452.395 319.422,452.395 C 319.422,452.395 319.422,452.395 319.422,452.395 L 319.422,452.395 Z" marker-start="none" marker-end="none"/>
      <path d="M 320.528,453.049 C 320.528,453.15 320.613,453.246 320.732,453.256 C 320.841,453.267 320.915,453.198 320.915,453.124 C 320.915,453.124 320.915,453.108 320.915,453.108 C 320.978,453.184 321.066,453.235 321.19,453.256 C 321.256,453.269 321.323,453.269 321.386,453.259 C 321.667,453.214 321.821,453.028 321.821,452.75 C 321.821,452.75 321.821,451.99 321.821,451.99 C 321.821,451.876 321.731,451.786 321.619,451.784 C 321.505,451.784 321.413,451.874 321.413,451.987 C 321.413,451.987 321.413,452.681 321.413,452.681 C 321.413,452.745 321.386,452.806 321.341,452.851 C 321.249,452.946 321.098,452.946 321.005,452.854 C 320.96,452.806 320.936,452.748 320.936,452.684 C 320.936,452.684 320.936,451.99 320.936,451.99 C 320.936,451.879 320.843,451.786 320.73,451.789 C 320.618,451.789 320.528,451.882 320.528,451.993 C 320.528,451.993 320.528,453.049 320.528,453.049 C 320.528,453.049 320.528,453.049 320.528,453.049 L 320.528,453.049 Z" marker-start="none" marker-end="none"/>
      <path d="M 322.988,452.658 C 322.986,452.666 322.986,452.676 322.983,452.684 C 322.94,452.878 322.803,452.967 322.647,452.93 C 322.549,452.906 322.464,452.822 322.429,452.689 C 322.427,452.679 322.427,452.668 322.424,452.658 C 322.424,452.658 322.988,452.658 322.988,452.658 C 322.988,452.658 322.988,452.658 322.988,452.658 L 322.988,452.658 Z M 322.435,452.395 C 322.446,452.345 322.469,452.295 322.504,452.252 C 322.612,452.122 322.811,452.091 323.036,452.21 C 323.166,452.282 323.203,452.287 323.271,452.26 C 323.311,452.244 323.343,452.213 323.359,452.173 C 323.417,452.03 323.24,451.784 322.742,451.781 C 322.236,451.781 321.9,452.199 322.016,452.702 C 322.083,452.994 322.302,453.203 322.578,453.253 C 322.896,453.312 323.197,453.15 323.33,452.848 C 323.364,452.766 323.386,452.681 323.391,452.618 C 323.407,452.454 323.354,452.395 323.219,452.395 C 323.219,452.395 322.435,452.395 322.435,452.395 C 322.435,452.395 322.435,452.395 322.435,452.395 L 322.435,452.395 Z" marker-start="none" marker-end="none"/>
      <path d="M 323.541,453.06 C 323.541,453.158 323.623,453.248 323.748,453.256 C 323.875,453.267 323.952,453.187 323.946,453.11 C 323.946,453.11 323.944,453.089 323.944,453.089 C 323.955,453.103 323.965,453.116 323.978,453.126 C 324.134,453.296 324.312,453.293 324.394,453.171 C 324.465,453.066 324.428,452.944 324.322,452.899 C 324.322,452.899 324.301,452.888 324.301,452.888 C 324.301,452.888 324.246,452.869 324.246,452.869 C 324.193,452.851 324.156,452.832 324.124,452.814 C 323.994,452.737 323.949,452.668 323.949,452.602 C 323.949,452.602 323.949,451.993 323.949,451.993 C 323.949,451.882 323.859,451.789 323.745,451.789 C 323.631,451.789 323.541,451.879 323.541,451.99 C 323.541,451.99 323.541,453.06 323.541,453.06 C 323.541,453.06 323.541,453.06 323.541,453.06 L 323.541,453.06 Z" marker-start="none" marker-end="none"/>
      <path d="M 324.904,452.252 C 325.018,452.115 325.227,452.117 325.333,452.26 C 325.381,452.324 325.405,452.401 325.407,452.512 C 325.407,452.692 325.341,452.806 325.235,452.859 C 325.058,452.946 324.859,452.83 324.827,452.589 C 324.825,452.565 324.822,452.538 324.822,452.514 C 324.822,452.403 324.854,452.316 324.904,452.252 C 324.904,452.252 324.904,452.252 324.904,452.252 L 324.904,452.252 Z M 325.418,453.118 C 325.42,453.195 325.495,453.264 325.603,453.253 C 325.722,453.243 325.807,453.147 325.807,453.044 C 325.807,453.044 325.807,451.982 325.807,451.982 C 325.807,451.453 325.495,451.164 324.944,451.222 C 324.833,451.236 324.732,451.262 324.637,451.304 C 324.441,451.394 324.407,451.532 324.502,451.633 C 324.555,451.691 324.621,451.704 324.711,451.675 C 324.711,451.675 324.713,451.673 324.713,451.673 C 324.713,451.673 324.796,451.636 324.796,451.636 C 324.814,451.627 324.833,451.619 324.851,451.614 C 325.198,451.49 325.397,451.633 325.405,451.897 C 325.407,451.916 325.405,451.935 325.405,451.953 C 325.254,451.739 324.88,451.702 324.623,451.956 C 324.459,452.12 324.377,452.39 324.43,452.684 C 324.449,452.79 324.483,452.88 324.531,452.957 C 324.756,453.319 325.211,453.354 325.418,453.1 C 325.418,453.1 325.418,453.118 325.418,453.118 C 325.418,453.118 325.418,453.118 325.418,453.118 L 325.418,453.118 Z" marker-start="none" marker-end="none"/>
      <path d="M 326.035,453.238 C 326.149,453.285 326.265,453.232 326.313,453.103 C 326.313,453.103 326.567,452.422 326.567,452.422 C 326.567,452.422 326.826,453.105 326.826,453.105 C 326.877,453.235 326.996,453.288 327.107,453.235 C 327.208,453.187 327.25,453.073 327.208,452.97 C 327.208,452.97 326.548,451.355 326.548,451.355 C 326.493,451.22 326.382,451.169 326.27,451.214 C 326.165,451.259 326.12,451.373 326.165,451.482 C 326.165,451.482 326.355,451.921 326.355,451.921 C 326.355,451.921 325.923,452.978 325.923,452.978 C 325.884,453.079 325.931,453.195 326.035,453.238 C 326.035,453.238 326.035,453.238 326.035,453.238 L 326.035,453.238 Z" marker-start="none" marker-end="none"/>
      <path d="M 313.04,450.934 C 313.06,450.918 313.07,450.893 313.07,450.86 C 313.07,450.823 313.06,450.797 313.039,450.781 C 313.019,450.764 312.987,450.756 312.943,450.756 C 312.929,450.756 312.911,450.757 312.887,450.759 C 312.887,450.759 312.887,450.956 312.887,450.956 C 312.887,450.956 312.944,450.958 312.944,450.958 C 312.989,450.958 313.021,450.95 313.04,450.934 C 313.04,450.934 313.04,450.934 313.04,450.934 L 313.04,450.934 Z M 313.094,450.74 C 313.127,450.767 313.144,450.803 313.144,450.849 C 313.144,450.888 313.135,450.919 313.116,450.942 C 313.097,450.964 313.067,450.981 313.027,450.99 C 313.048,450.995 313.068,451.008 313.085,451.028 C 313.103,451.047 313.112,451.069 313.112,451.093 C 313.112,451.134 313.098,451.166 313.07,451.188 C 313.042,451.209 313.003,451.221 312.952,451.221 C 312.924,451.221 312.879,451.219 312.816,451.216 C 312.816,451.216 312.816,450.699 312.816,450.699 C 312.816,450.699 312.964,450.699 312.964,450.699 C 313.017,450.699 313.061,450.713 313.094,450.74 C 313.094,450.74 313.094,450.74 313.094,450.74 L 313.094,450.74 Z M 312.95,451.162 C 313.011,451.162 313.042,451.138 313.042,451.09 C 313.042,451.036 313.009,451.009 312.942,451.009 C 312.92,451.009 312.902,451.01 312.887,451.011 C 312.887,451.011 312.887,451.16 312.887,451.16 C 312.905,451.161 312.926,451.162 312.95,451.162 C 312.95,451.162 312.95,451.162 312.95,451.162 L 312.95,451.162 Z" marker-start="none" marker-end="none"/>
      <path d="M 314.179,450.699 C 314.179,450.699 313.875,450.699 313.875,450.699 C 313.875,450.699 313.875,451.216 313.875,451.216 C 313.875,451.216 313.946,451.216 313.946,451.216 C 313.946,451.216 313.946,450.763 313.946,450.763 C 313.946,450.763 314.179,450.763 314.179,450.763 C 314.179,450.763 314.179,450.699 314.179,450.699 C 314.179,450.699 314.179,450.699 314.179,450.699 L 314.179,450.699 Z" marker-start="none" marker-end="none"/>
      <path d="M 314.891,450.857 C 314.891,450.857 314.891,451.216 314.891,451.216 C 314.891,451.216 314.961,451.216 314.961,451.216 C 314.961,451.216 314.961,450.862 314.961,450.862 C 314.961,450.831 314.971,450.805 314.991,450.784 C 315.011,450.764 315.038,450.754 315.071,450.754 C 315.105,450.754 315.133,450.764 315.153,450.783 C 315.173,450.803 315.183,450.83 315.183,450.864 C 315.183,450.864 315.183,451.216 315.183,451.216 C 315.183,451.216 315.253,451.216 315.253,451.216 C 315.253,451.216 315.253,450.857 315.253,450.857 C 315.253,450.804 315.237,450.763 315.204,450.735 C 315.172,450.705 315.128,450.69 315.071,450.69 C 315.014,450.69 314.969,450.705 314.938,450.733 C 314.907,450.762 314.891,450.803 314.891,450.857 C 314.891,450.857 314.891,450.857 314.891,450.857 L 314.891,450.857 Z" marker-start="none" marker-end="none"/>
      <path d="M 316.438,451.152 C 316.438,451.152 316.2,451.152 316.2,451.152 C 316.2,451.152 316.2,451.009 316.2,451.009 C 316.2,451.009 316.371,451.009 316.371,451.009 C 316.371,451.009 316.371,450.949 316.371,450.949 C 316.371,450.949 316.2,450.949 316.2,450.949 C 316.2,450.949 316.2,450.763 316.2,450.763 C 316.2,450.763 316.434,450.763 316.434,450.763 C 316.434,450.763 316.434,450.699 316.434,450.699 C 316.434,450.699 316.129,450.699 316.129,450.699 C 316.129,450.699 316.129,451.216 316.129,451.216 C 316.129,451.216 316.438,451.216 316.438,451.216 C 316.438,451.216 316.438,451.152 316.438,451.152 C 316.438,451.152 316.438,451.152 316.438,451.152 L 316.438,451.152 Z" marker-start="none" marker-end="none"/>
      <path d="M 318.157,450.895 C 318.29,450.895 318.356,450.953 318.356,451.069 C 318.356,451.169 318.281,451.22 318.131,451.22 C 318.12,451.22 318.088,451.218 318.034,451.216 C 318.034,451.216 318.034,450.699 318.034,450.699 C 318.034,450.699 318.105,450.699 318.105,450.699 C 318.105,450.699 318.105,450.898 318.105,450.898 C 318.132,450.896 318.149,450.895 318.157,450.895 C 318.157,450.895 318.157,450.895 318.157,450.895 L 318.157,450.895 Z M 318.143,451.156 C 318.237,451.156 318.283,451.125 318.283,451.062 C 318.283,450.993 318.24,450.958 318.152,450.958 C 318.151,450.958 318.135,450.959 318.105,450.962 C 318.105,450.962 318.105,451.152 318.105,451.152 C 318.121,451.155 318.134,451.156 318.143,451.156 C 318.143,451.156 318.143,451.156 318.143,451.156 L 318.143,451.156 Z" marker-start="none" marker-end="none"/>
      <path d="M 319.118,450.767 C 319.155,450.716 319.206,450.69 319.271,450.69 C 319.342,450.69 319.397,450.715 319.435,450.763 C 319.474,450.811 319.493,450.877 319.493,450.962 C 319.493,451.045 319.474,451.109 319.435,451.156 C 319.397,451.202 319.342,451.225 319.271,451.225 C 319.207,451.225 319.157,451.2 319.119,451.149 C 319.082,451.099 319.062,451.037 319.062,450.962 C 319.062,450.882 319.081,450.817 319.118,450.767 C 319.118,450.767 319.118,450.767 319.118,450.767 L 319.118,450.767 Z M 319.171,451.108 C 319.194,451.144 319.227,451.161 319.271,451.161 C 319.369,451.161 319.419,451.095 319.419,450.962 C 319.419,450.896 319.406,450.845 319.381,450.808 C 319.356,450.772 319.319,450.754 319.271,450.754 C 319.228,450.754 319.195,450.774 319.172,450.814 C 319.148,450.853 319.137,450.903 319.137,450.962 C 319.137,451.023 319.148,451.072 319.171,451.108 C 319.171,451.108 319.171,451.108 319.171,451.108 L 319.171,451.108 Z" marker-start="none" marker-end="none"/>
      <path d="M 320.782,451.216 C 320.782,451.216 320.621,450.692 320.621,450.692 C 320.621,450.692 320.599,450.692 320.599,450.692 C 320.599,450.692 320.476,451.048 320.476,451.048 C 320.476,451.048 320.361,450.692 320.361,450.692 C 320.361,450.692 320.339,450.692 320.339,450.692 C 320.339,450.692 320.176,451.216 320.176,451.216 C 320.176,451.216 320.249,451.216 320.249,451.216 C 320.249,451.216 320.353,450.855 320.353,450.855 C 320.353,450.855 320.466,451.216 320.466,451.216 C 320.466,451.216 320.491,451.216 320.491,451.216 C 320.491,451.216 320.603,450.856 320.603,450.856 C 320.603,450.856 320.709,451.216 320.709,451.216 C 320.709,451.216 320.782,451.216 320.782,451.216 C 320.782,451.216 320.782,451.216 320.782,451.216 L 320.782,451.216 Z" marker-start="none" marker-end="none"/>
      <path d="M 321.798,451.152 C 321.798,451.152 321.56,451.152 321.56,451.152 C 321.56,451.152 321.56,451.009 321.56,451.009 C 321.56,451.009 321.731,451.009 321.731,451.009 C 321.731,451.009 321.731,450.949 321.731,450.949 C 321.731,450.949 321.56,450.949 321.56,450.949 C 321.56,450.949 321.56,450.763 321.56,450.763 C 321.56,450.763 321.794,450.763 321.794,450.763 C 321.794,450.763 321.794,450.699 321.794,450.699 C 321.794,450.699 321.49,450.699 321.49,450.699 C 321.49,450.699 321.49,451.216 321.49,451.216 C 321.49,451.216 321.798,451.216 321.798,451.216 C 321.798,451.216 321.798,451.152 321.798,451.152 C 321.798,451.152 321.798,451.152 321.798,451.152 L 321.798,451.152 Z" marker-start="none" marker-end="none"/>
      <path d="M 322.744,450.937 C 322.772,450.944 322.795,450.96 322.815,450.986 C 322.836,451.011 322.845,451.041 322.845,451.073 C 322.845,451.172 322.783,451.221 322.659,451.221 C 322.644,451.221 322.619,451.22 322.585,451.219 C 322.551,451.217 322.533,451.216 322.53,451.216 C 322.53,451.216 322.53,450.699 322.53,450.699 C 322.53,450.699 322.601,450.699 322.601,450.699 C 322.601,450.699 322.601,450.924 322.601,450.924 C 322.635,450.922 322.66,450.921 322.675,450.921 C 322.675,450.921 322.813,450.699 322.813,450.699 C 322.813,450.699 322.894,450.699 322.894,450.699 C 322.894,450.699 322.744,450.937 322.744,450.937 C 322.744,450.937 322.744,450.937 322.744,450.937 L 322.744,450.937 Z M 322.642,451.156 C 322.687,451.156 322.72,451.149 322.74,451.137 C 322.761,451.124 322.771,451.103 322.771,451.074 C 322.771,451.04 322.762,451.015 322.742,451.002 C 322.723,450.988 322.692,450.981 322.65,450.981 C 322.634,450.981 322.618,450.983 322.601,450.985 C 322.601,450.985 322.601,451.152 322.601,451.152 C 322.621,451.155 322.635,451.156 322.642,451.156 C 322.642,451.156 322.642,451.156 322.642,451.156 L 322.642,451.156 Z" marker-start="none" marker-end="none"/>
     </g>
    </g>
   </g>
  </g>
 </g>
</svg>
