<?xml version="1.0" standalone="no"?>
<!DOCTYPE svg PUBLIC "-//W3C//DTD SVG 1.1//EN" "http://www.w3.org/Graphics/SVG/1.1/DTD/svg11.dtd">
<!--Generator: Xara Xtreme (www.xara.com), SVG filter version: 1.0.0.13-->
<svg stroke-width="0.501" stroke-linejoin="bevel" fill-rule="evenodd" xmlns:xlink="http://www.w3.org/1999/xlink" xmlns="http://www.w3.org/2000/svg" version="1.1" overflow="visible" width="841.891pt" height="595.277pt" viewBox="0 0 841.891 595.277">
 <defs>
  <marker id="DefaultArrow2" markerUnits="strokeWidth" viewBox="0 0 1 1" markerWidth="1" markerHeight="1" overflow="visible" orient="auto">
   <!-- REF_ARROW_STRAIGHT (-2) -->
   <g transform="scale(0.0092592592)">
    <!-- 1/108 -->
    <path d="M -9 54 L -9 -54 L 117 0 z"/>
   </g>
  </marker>
  <marker id="DefaultArrow3" markerUnits="strokeWidth" viewBox="0 0 1 1" markerWidth="1" markerHeight="1" overflow="visible" orient="auto">
   <!-- REF_ARROW_ANGLED -->
   <g transform="scale(0.0092592592)">
    <path d="M -27 54 L -9 0 L -27 -54 L 135 0 z"/>
   </g>
  </marker>
  <marker id="DefaultArrow4" markerUnits="strokeWidth" viewBox="0 0 1 1" markerWidth="1" markerHeight="1" overflow="visible" orient="auto">
   <!-- REF_ARROW_ROUNDED -->
   <g transform="scale(0.0092592592)">
    <path d="M -9,0 L -9,-45 C -9,-51.708 2.808,-56.580 9,-54 L 117,-9 C 120.916,-7.369 126.000,-4.242 126,0 C 126,4.242 120.916,7.369 117,9 L 9,54 C 2.808,56.580 -9,51.708 -9,45 z"/>
   </g>
  </marker>
  <marker id="DefaultArrow5" markerUnits="strokeWidth" viewBox="0 0 1 1" markerWidth="1" markerHeight="1" overflow="visible" orient="auto">
   <!-- REF_ARROW_SPOT -->
   <g transform="scale(0.0092592592)">
    <path d="M -54, 0 C -54,29.807 -29.807,54 0,54 C 29.807,54 54,29.807 54,0 C 54,-29.807 29.807,-54 0,-54 C -29.807,-54 -54,-29.807 -54,0 z"/>
   </g>
  </marker>
  <marker id="DefaultArrow6" markerUnits="strokeWidth" viewBox="0 0 1 1" markerWidth="1" markerHeight="1" overflow="visible" orient="auto">
   <!-- REF_ARROW_DIAMOND -->
   <g transform="scale(0.0092592592)">
    <path d="M -63,0 L 0,63 L 63,0 L 0,-63 z"/>
   </g>
  </marker>
  <marker id="DefaultArrow7" markerUnits="strokeWidth" viewBox="0 0 1 1" markerWidth="1" markerHeight="1" overflow="visible" orient="auto">
   <!-- REF_ARROW_FEATHER -->
   <g transform="scale(0.0092592592)">
    <path d="M 18,-54 L 108,-54 L 63,0 L 108,54 L 18, 54 L -36,0 z"/>
   </g>
  </marker>
  <marker id="DefaultArrow8" markerUnits="strokeWidth" viewBox="0 0 1 1" markerWidth="1" markerHeight="1" overflow="visible" orient="auto">
   <!-- REF_ARROW_FEATHER2 -->
   <g transform="scale(0.0092592592)">
    <path d="M -36,0 L 18,-54 L 54,-54 L 18,-18 L 27,-18 L 63,-54 L 99,-54 L 63,-18 L 72,-18 L 108,-54 L 144,-54 L 90,0 L 144,54 L 108,54 L 72,18 L 63,18 L 99,54 L 63,54 L 27,18 L 18,18 L 54,54 L 18,54 z"/>
   </g>
  </marker>
  <marker id="DefaultArrow9" markerUnits="strokeWidth" viewBox="0 0 1 1" markerWidth="1" markerHeight="1" overflow="visible" orient="auto">
   <!-- REF_ARROW_HOLLOWDIAMOND -->
   <g transform="scale(0.0092592592)">
    <path d="M 0,45 L -45,0 L 0, -45 L 45, 0 z M 0, 63 L-63, 0 L 0, -63 L 63, 0 z"/>
   </g>
  </marker>
  <filter id="StainedFilter">
   <feBlend mode="multiply" in2="BackgroundImage" in="SourceGraphic" result="blend"/>
   <feComposite in="blend" in2="SourceAlpha" operator="in" result="comp"/>
  </filter>
  <filter id="BleachFilter">
   <feBlend mode="screen" in2="BackgroundImage" in="SourceGraphic" result="blend"/>
   <feComposite in="blend" in2="SourceAlpha" operator="in" result="comp"/>
  </filter>
  <filter id="InvertTransparencyBitmapFilter">
   <feComponentTransfer>
    <feFuncR type="gamma" amplitude="1.055" exponent=".416666666" offset="-0.055"/>
    <feFuncG type="gamma" amplitude="1.055" exponent=".416666666" offset="-0.055"/>
    <feFuncB type="gamma" amplitude="1.055" exponent=".416666666" offset="-0.055"/>
   </feComponentTransfer>
   <feComponentTransfer>
    <feFuncR type="linear" slope="-1" intercept="1"/>
    <feFuncG type="linear" slope="-1" intercept="1"/>
    <feFuncB type="linear" slope="-1" intercept="1"/>
    <feFuncA type="linear" slope="1" intercept="0"/>
   </feComponentTransfer>
   <feComponentTransfer>
    <feFuncR type="gamma" amplitude="1" exponent="2.4" offset="0"/>
    <feFuncG type="gamma" amplitude="1" exponent="2.4" offset="0"/>
    <feFuncB type="gamma" amplitude="1" exponent="2.4" offset="0"/>
   </feComponentTransfer>
  </filter>
 </defs>
 <g id="Document" fill="none" stroke="black" font-family="Times New Roman" font-size="16" transform="scale(1 -1)">
  <g id="Spread" transform="translate(0 -595.277)">
   <g id="Layer 1">
    <g id="Group">
     <path d="M 330.474,277.395 L 317.396,264.318 C 315.973,262.894 315.973,260.584 317.396,259.16 L 333.539,243.018 C 334.962,241.594 337.273,241.594 338.696,243.018 L 351.774,256.095 C 353.197,257.519 353.197,259.829 351.774,261.253 L 335.631,277.395 C 334.208,278.819 331.897,278.819 330.474,277.395 Z" fill="#666666" stroke-width="0.924" marker-start="none" marker-end="none" stroke-miterlimit="79.8403193612775"/>
     <path d="M 332.353,302.51 L 332.353,284.015 C 332.353,282.002 333.987,280.368 336,280.368 L 358.829,280.368 C 360.842,280.368 362.476,282.002 362.476,284.015 L 362.476,302.51 C 362.476,304.523 360.842,306.156 358.829,306.156 L 336,306.156 C 333.987,306.156 332.353,304.523 332.353,302.51 Z" fill="#666666" stroke-width="0.924" marker-start="none" marker-end="none" stroke-miterlimit="79.8403193612775"/>
     <path d="M 335.474,306.522 C 350.857,306.522 363.343,294.036 363.343,278.653 C 363.343,263.269 350.857,250.783 335.474,250.783 C 320.09,250.783 307.604,263.269 307.604,278.653 C 307.604,294.036 320.09,306.522 335.474,306.522 Z" fill="#b2b2b2" stroke-width="0.953" marker-start="none" marker-end="none" stroke-miterlimit="79.8403193612775"/>
     <path d="M 357.699,287.42 C 359.242,284.257 359.401,282.407 359.401,278.653 C 359.401,265.445 348.681,254.725 335.473,254.725 C 322.265,254.725 311.545,265.445 311.545,278.653 C 311.545,282.354 311.814,284.909 313.361,287.983 C 316.506,294.237 353.103,293.61 357.699,287.42 Z" fill="#7f7f7f" stroke-width="0.818" marker-start="none" marker-end="none" stroke-miterlimit="79.8403193612775"/>
     <path d="M 336.257,248.341 C 337.253,248.341 338.062,247.532 338.062,246.536 C 338.062,245.539 337.253,244.73 336.257,244.73 C 335.26,244.73 334.451,245.539 334.451,246.536 C 334.451,247.532 335.26,248.341 336.257,248.341 Z" stroke-width="0.569" marker-start="none" marker-end="none" stroke-miterlimit="79.8403193612775"/>
     <path d="M 358.014,302.929 C 359.01,302.929 359.819,302.12 359.819,301.124 C 359.819,300.127 359.01,299.318 358.014,299.318 C 357.017,299.318 356.208,300.127 356.208,301.124 C 356.208,302.12 357.017,302.929 358.014,302.929 Z" stroke-width="0.569" marker-start="none" marker-end="none" stroke-miterlimit="79.8403193612775"/>
     <g id="Group_1" fill-rule="nonzero" stroke="none" stroke-width="0.115" fill="#000000" stroke-miterlimit="79.8403193612775">
      <g id="Group_2">
       <path d="M 323.818,262.335 L 323.092,262.335 L 322.803,263.086 L 321.48,263.086 L 321.207,262.335 L 320.499,262.335 L 321.787,265.643 L 322.494,265.643 L 323.818,262.335 Z M 322.588,263.643 L 322.132,264.871 L 321.686,263.643 L 322.588,263.643 Z" marker-start="none" marker-end="none"/>
       <path d="M 324.192,262.335 L 324.192,265.616 L 324.86,265.616 L 324.86,262.892 L 326.521,262.892 L 326.521,262.335 L 324.192,262.335 Z" marker-start="none" marker-end="none"/>
       <path d="M 327.401,262.335 L 327.401,265.083 L 326.419,265.083 L 326.419,265.643 L 329.048,265.643 L 329.048,265.083 L 328.069,265.083 L 328.069,262.335 L 327.401,262.335 Z" marker-start="none" marker-end="none"/>
       <path d="M 329.48,262.335 L 329.48,265.643 L 331.933,265.643 L 331.933,265.083 L 330.148,265.083 L 330.148,264.35 L 331.809,264.35 L 331.809,263.792 L 330.148,263.792 L 330.148,262.892 L 331.996,262.892 L 331.996,262.335 L 329.48,262.335 Z" marker-start="none" marker-end="none"/>
       <path d="M 332.565,262.335 L 332.565,265.643 L 333.971,265.643 C 334.325,265.643 334.582,265.613 334.742,265.554 C 334.902,265.494 335.03,265.389 335.127,265.237 C 335.223,265.085 335.271,264.911 335.271,264.715 C 335.271,264.467 335.198,264.262 335.052,264.1 C 334.906,263.939 334.688,263.837 334.398,263.795 C 334.542,263.71 334.661,263.618 334.755,263.517 C 334.849,263.416 334.976,263.237 335.136,262.98 L 335.539,262.335 L 334.741,262.335 L 334.258,263.054 C 334.086,263.312 333.969,263.474 333.906,263.541 C 333.842,263.608 333.775,263.654 333.705,263.678 C 333.634,263.703 333.522,263.716 333.368,263.716 L 333.233,263.716 L 333.233,262.335 L 332.565,262.335 Z M 333.233,264.244 L 333.727,264.244 C 334.048,264.244 334.248,264.257 334.328,264.284 C 334.407,264.311 334.47,264.358 334.515,264.424 C 334.56,264.491 334.583,264.573 334.583,264.673 C 334.583,264.784 334.553,264.874 334.493,264.942 C 334.434,265.011 334.35,265.054 334.242,265.072 C 334.188,265.08 334.025,265.083 333.754,265.083 L 333.233,265.083 L 333.233,264.244 Z" marker-start="none" marker-end="none"/>
       <path d="M 335.909,262.335 L 335.909,265.643 L 336.559,265.643 L 337.913,263.434 L 337.913,265.643 L 338.533,265.643 L 338.533,262.335 L 337.863,262.335 L 336.529,264.492 L 336.529,262.335 L 335.909,262.335 Z" marker-start="none" marker-end="none"/>
       <path d="M 342.224,262.335 L 341.498,262.335 L 341.209,263.086 L 339.886,263.086 L 339.613,262.335 L 338.905,262.335 L 340.193,265.643 L 340.9,265.643 L 342.224,262.335 Z M 340.994,263.643 L 340.538,264.871 L 340.092,263.643 L 340.994,263.643 Z" marker-start="none" marker-end="none"/>
       <path d="M 342.983,262.335 L 342.983,265.083 L 342.001,265.083 L 342.001,265.643 L 344.63,265.643 L 344.63,265.083 L 343.651,265.083 L 343.651,262.335 L 342.983,262.335 Z" marker-start="none" marker-end="none"/>
       <path d="M 344.843,263.968 C 344.843,264.305 344.894,264.588 344.995,264.817 C 345.07,264.986 345.172,265.137 345.303,265.271 C 345.433,265.405 345.575,265.504 345.73,265.569 C 345.936,265.656 346.174,265.699 346.443,265.699 C 346.931,265.699 347.321,265.548 347.614,265.246 C 347.906,264.943 348.053,264.523 348.053,263.984 C 348.053,263.45 347.907,263.032 347.617,262.731 C 347.327,262.429 346.938,262.278 346.452,262.278 C 345.96,262.278 345.569,262.428 345.279,262.728 C 344.989,263.028 344.843,263.442 344.843,263.968 Z M 345.532,263.991 C 345.532,263.616 345.618,263.332 345.791,263.139 C 345.964,262.946 346.184,262.849 346.45,262.849 C 346.717,262.849 346.935,262.945 347.106,263.137 C 347.277,263.329 347.362,263.616 347.362,264 C 347.362,264.379 347.279,264.662 347.113,264.849 C 346.946,265.035 346.726,265.128 346.45,265.128 C 346.175,265.128 345.953,265.034 345.784,264.845 C 345.616,264.656 345.532,264.372 345.532,263.991 Z" marker-start="none" marker-end="none"/>
       <path d="M 348.577,262.335 L 348.577,265.643 L 349.983,265.643 C 350.337,265.643 350.594,265.613 350.754,265.554 C 350.914,265.494 351.042,265.389 351.139,265.237 C 351.235,265.085 351.283,264.911 351.283,264.715 C 351.283,264.467 351.21,264.262 351.064,264.1 C 350.918,263.939 350.7,263.837 350.41,263.795 C 350.554,263.71 350.673,263.618 350.767,263.517 C 350.861,263.416 350.988,263.237 351.148,262.98 L 351.551,262.335 L 350.753,262.335 L 350.27,263.054 C 350.098,263.312 349.981,263.474 349.918,263.541 C 349.854,263.608 349.787,263.654 349.717,263.678 C 349.646,263.703 349.534,263.716 349.38,263.716 L 349.245,263.716 L 349.245,262.335 L 348.577,262.335 Z M 349.245,264.244 L 349.739,264.244 C 350.06,264.244 350.26,264.257 350.34,264.284 C 350.419,264.311 350.482,264.358 350.527,264.424 C 350.572,264.491 350.595,264.573 350.595,264.673 C 350.595,264.784 350.565,264.874 350.505,264.942 C 350.446,265.011 350.362,265.054 350.254,265.072 C 350.2,265.08 350.037,265.083 349.766,265.083 L 349.245,265.083 L 349.245,264.244 Z" marker-start="none" marker-end="none"/>
      </g>
      <g id="Group_3">
       <path d="M 333.744,257.171 L 333.11,257.171 L 333.11,259.56 C 332.879,259.344 332.606,259.184 332.291,259.08 L 332.291,259.655 C 332.457,259.709 332.636,259.812 332.831,259.963 C 333.025,260.114 333.158,260.291 333.23,260.493 L 333.744,260.493 L 333.744,257.171 Z" marker-start="none" marker-end="none"/>
       <path d="M 336.835,257.76 L 336.835,257.171 L 334.612,257.171 C 334.636,257.393 334.708,257.604 334.828,257.804 C 334.949,258.003 335.186,258.267 335.541,258.597 C 335.827,258.863 336.003,259.044 336.067,259.138 C 336.154,259.269 336.198,259.399 336.198,259.527 C 336.198,259.668 336.16,259.777 336.084,259.853 C 336.008,259.929 335.903,259.967 335.769,259.967 C 335.637,259.967 335.532,259.927 335.453,259.847 C 335.375,259.767 335.33,259.635 335.318,259.45 L 334.686,259.513 C 334.724,259.862 334.842,260.113 335.04,260.265 C 335.239,260.417 335.487,260.493 335.785,260.493 C 336.112,260.493 336.368,260.405 336.555,260.228 C 336.741,260.052 336.835,259.834 336.835,259.572 C 336.835,259.423 336.808,259.281 336.754,259.146 C 336.701,259.012 336.616,258.871 336.501,258.723 C 336.424,258.625 336.285,258.485 336.085,258.301 C 335.885,258.118 335.758,257.996 335.705,257.936 C 335.652,257.875 335.608,257.817 335.575,257.76 L 336.835,257.76 Z" marker-start="none" marker-end="none"/>
       <path d="M 338.248,257.171 L 337.065,260.479 L 337.79,260.479 L 338.627,258.03 L 339.437,260.479 L 340.146,260.479 L 338.961,257.171 L 338.248,257.171 Z" marker-start="none" marker-end="none"/>
      </g>
     </g>
     <path d="M 335.474,289.158 C 341.272,289.158 345.979,284.451 345.979,278.653 C 345.979,272.854 341.272,268.147 335.474,268.147 C 329.675,268.147 324.968,272.854 324.968,278.653 C 324.968,284.451 329.675,289.158 335.474,289.158 Z" fill="#b2b2b2" stroke-width="0.924" marker-start="none" marker-end="none" stroke-miterlimit="79.8403193612775"/>
     <path d="M 335.474,281.581 C 337.09,281.581 338.402,280.269 338.402,278.653 C 338.402,277.036 337.09,275.724 335.474,275.724 C 333.857,275.724 332.545,277.036 332.545,278.653 C 332.545,280.269 333.857,281.581 335.474,281.581 Z" fill="#4c4c4c" stroke-width="0.924" marker-start="none" marker-end="none" stroke-miterlimit="79.8403193612775"/>
     <g id="Group_4" stroke-width="0.462" fill="#ffffff" stroke-miterlimit="79.8403193612775">
      <path d="M 321.325,299.513 L 322.483,296.968 L 325.266,296.698 L 326.892,298.974 L 325.734,301.519 L 322.951,301.789 L 321.325,299.513 Z" stroke-linejoin="miter" marker-start="none" marker-end="none"/>
      <path d="M 324.109,300.602 C 324.858,300.602 325.468,299.993 325.468,299.244 C 325.468,298.494 324.858,297.885 324.109,297.885 C 323.359,297.885 322.749,298.494 322.749,299.244 C 322.749,299.993 323.359,300.602 324.109,300.602 Z" marker-start="none" marker-end="none"/>
     </g>
     <g id="Group_5" stroke-width="0.462" fill="#ffffff" stroke-miterlimit="79.8403193612775">
      <path d="M 343.295,299.405 L 344.453,296.86 L 347.236,296.59 L 348.862,298.866 L 347.704,301.411 L 344.921,301.681 L 343.295,299.405 Z" stroke-linejoin="miter" marker-start="none" marker-end="none"/>
      <path d="M 346.079,300.494 C 346.828,300.494 347.438,299.885 347.438,299.136 C 347.438,298.386 346.828,297.777 346.079,297.777 C 345.329,297.777 344.719,298.386 344.719,299.136 C 344.719,299.885 345.329,300.494 346.079,300.494 Z" marker-start="none" marker-end="none"/>
     </g>
     <g id="Group_6" stroke-width="0.33" fill="#ffffff" stroke-miterlimit="79.8403193612775">
      <path d="M 333.743,299.701 L 335.48,298.707 L 337.209,299.714 L 337.202,301.715 L 335.465,302.71 L 333.736,301.703 L 333.743,299.701 Z" stroke-linejoin="miter" marker-start="none" marker-end="none"/>
      <path d="M 334.904,301.498 C 335.34,301.811 335.948,301.712 336.262,301.277 C 336.576,300.841 336.476,300.233 336.041,299.919 C 335.605,299.606 334.997,299.705 334.683,300.14 C 334.369,300.576 334.469,301.184 334.904,301.498 Z" marker-start="none" marker-end="none"/>
     </g>
     <g id="Group_7" fill-rule="nonzero" stroke="none" stroke-width="0.115" fill="#000000" stroke-miterlimit="79.8403193612775">
      <g id="Group_8">
       <path d="M 316.656,296.849 L 317.979,296.849 C 318.24,296.849 318.436,296.838 318.564,296.816 C 318.693,296.794 318.808,296.749 318.909,296.68 C 319.011,296.611 319.096,296.518 319.163,296.403 C 319.231,296.288 319.265,296.159 319.265,296.016 C 319.265,295.861 319.223,295.719 319.14,295.59 C 319.056,295.46 318.943,295.363 318.8,295.299 C 319.002,295.24 319.157,295.14 319.265,294.998 C 319.373,294.857 319.427,294.691 319.427,294.5 C 319.427,294.349 319.392,294.203 319.322,294.061 C 319.253,293.919 319.157,293.805 319.036,293.72 C 318.915,293.635 318.765,293.583 318.588,293.563 C 318.477,293.551 318.208,293.544 317.782,293.541 L 316.656,293.541 L 316.656,296.849 Z M 317.324,296.298 L 317.324,295.533 L 317.762,295.533 C 318.022,295.533 318.184,295.537 318.247,295.545 C 318.361,295.558 318.451,295.598 318.517,295.663 C 318.582,295.728 318.615,295.815 318.615,295.921 C 318.615,296.024 318.587,296.107 318.53,296.171 C 318.474,296.235 318.39,296.274 318.279,296.287 C 318.212,296.295 318.022,296.298 317.708,296.298 L 317.324,296.298 Z M 317.324,294.983 L 317.324,294.098 L 317.942,294.098 C 318.183,294.098 318.336,294.105 318.401,294.118 C 318.5,294.136 318.581,294.18 318.643,294.25 C 318.706,294.32 318.737,294.414 318.737,294.531 C 318.737,294.631 318.713,294.715 318.665,294.784 C 318.616,294.853 318.547,294.904 318.456,294.935 C 318.365,294.967 318.167,294.983 317.863,294.983 L 317.324,294.983 Z" marker-start="none" marker-end="none"/>
       <path d="M 319.916,294.423 L 319.916,295.057 L 321.162,295.057 L 321.162,294.423 L 319.916,294.423 Z" marker-start="none" marker-end="none"/>
      </g>
     </g>
     <g id="Group_9" fill-rule="nonzero" stroke="none" stroke-width="0.115" fill="#000000" stroke-miterlimit="79.8403193612775">
      <g id="Group_10">
       <path d="M 350.55,296.849 L 351.873,296.849 C 352.134,296.849 352.33,296.838 352.458,296.816 C 352.587,296.794 352.702,296.749 352.803,296.68 C 352.905,296.611 352.99,296.518 353.057,296.403 C 353.125,296.288 353.159,296.159 353.159,296.016 C 353.159,295.861 353.117,295.719 353.034,295.59 C 352.95,295.46 352.837,295.363 352.694,295.299 C 352.896,295.24 353.051,295.14 353.159,294.998 C 353.267,294.857 353.321,294.691 353.321,294.5 C 353.321,294.349 353.286,294.203 353.216,294.061 C 353.147,293.919 353.051,293.805 352.93,293.72 C 352.809,293.635 352.659,293.583 352.482,293.563 C 352.371,293.551 352.102,293.544 351.676,293.541 L 350.55,293.541 L 350.55,296.849 Z M 351.218,296.298 L 351.218,295.533 L 351.656,295.533 C 351.916,295.533 352.078,295.537 352.141,295.545 C 352.255,295.558 352.345,295.598 352.411,295.663 C 352.476,295.728 352.509,295.815 352.509,295.921 C 352.509,296.024 352.481,296.107 352.424,296.171 C 352.368,296.235 352.284,296.274 352.173,296.287 C 352.106,296.295 351.916,296.298 351.602,296.298 L 351.218,296.298 Z M 351.218,294.983 L 351.218,294.098 L 351.836,294.098 C 352.077,294.098 352.23,294.105 352.295,294.118 C 352.394,294.136 352.475,294.18 352.537,294.25 C 352.6,294.32 352.631,294.414 352.631,294.531 C 352.631,294.631 352.607,294.715 352.559,294.784 C 352.51,294.853 352.441,294.904 352.35,294.935 C 352.259,294.967 352.061,294.983 351.757,294.983 L 351.218,294.983 Z" marker-start="none" marker-end="none"/>
       <path d="M 354.609,294.017 L 354.609,294.877 L 353.742,294.877 L 353.742,295.47 L 354.609,295.47 L 354.609,296.33 L 355.187,296.33 L 355.187,295.47 L 356.056,295.47 L 356.056,294.877 L 355.187,294.877 L 355.187,294.017 L 354.609,294.017 Z" marker-start="none" marker-end="none"/>
      </g>
     </g>
     <g id="Group_11" fill-rule="nonzero" stroke="none" stroke-width="0.115" fill="#000000" stroke-miterlimit="79.8403193612775">
      <g id="Group_12">
       <path d="M 333.121,297.871 L 334.342,297.871 C 334.618,297.871 334.828,297.85 334.972,297.808 C 335.166,297.751 335.332,297.649 335.471,297.503 C 335.609,297.357 335.715,297.179 335.787,296.967 C 335.859,296.756 335.895,296.495 335.895,296.185 C 335.895,295.913 335.861,295.678 335.794,295.481 C 335.711,295.24 335.593,295.045 335.439,294.896 C 335.323,294.784 335.167,294.696 334.97,294.632 C 334.822,294.586 334.625,294.563 334.379,294.563 L 333.121,294.563 L 333.121,297.871 Z M 333.789,297.311 L 333.789,295.12 L 334.288,295.12 C 334.475,295.12 334.61,295.13 334.692,295.152 C 334.801,295.179 334.89,295.224 334.962,295.289 C 335.033,295.354 335.092,295.46 335.137,295.609 C 335.182,295.757 335.205,295.959 335.205,296.214 C 335.205,296.47 335.182,296.667 335.137,296.804 C 335.092,296.94 335.029,297.047 334.947,297.124 C 334.866,297.201 334.763,297.253 334.638,297.28 C 334.545,297.301 334.362,297.311 334.09,297.311 L 333.789,297.311 Z" marker-start="none" marker-end="none"/>
       <path d="M 337.185,295.039 L 337.185,295.899 L 336.318,295.899 L 336.318,296.492 L 337.185,296.492 L 337.185,297.352 L 337.763,297.352 L 337.763,296.492 L 338.632,296.492 L 338.632,295.899 L 337.763,295.899 L 337.763,295.039 L 337.185,295.039 Z" marker-start="none" marker-end="none"/>
      </g>
     </g>
    </g>
   </g>
  </g>
 </g>
</svg>
