<?xml version="1.0" standalone="no"?>
<!DOCTYPE svg PUBLIC "-//W3C//DTD SVG 1.1//EN" "http://www.w3.org/Graphics/SVG/1.1/DTD/svg11.dtd">
<!--Generator: Xara Xtreme (www.xara.com), SVG filter version: 1.0.0.13-->
<svg stroke-width="0.501" stroke-linejoin="bevel" fill-rule="evenodd" xmlns:xlink="http://www.w3.org/1999/xlink" xmlns="http://www.w3.org/2000/svg" version="1.1" overflow="visible" width="841.891pt" height="595.277pt" viewBox="0 0 841.891 595.277">
 <defs>
  <marker id="DefaultArrow2" markerUnits="strokeWidth" viewBox="0 0 1 1" markerWidth="1" markerHeight="1" overflow="visible" orient="auto">
   <!-- REF_ARROW_STRAIGHT (-2) -->
   <g transform="scale(0.0092592592)">
    <!-- 1/108 -->
    <path d="M -9 54 L -9 -54 L 117 0 z"/>
   </g>
  </marker>
  <marker id="DefaultArrow3" markerUnits="strokeWidth" viewBox="0 0 1 1" markerWidth="1" markerHeight="1" overflow="visible" orient="auto">
   <!-- REF_ARROW_ANGLED -->
   <g transform="scale(0.0092592592)">
    <path d="M -27 54 L -9 0 L -27 -54 L 135 0 z"/>
   </g>
  </marker>
  <marker id="DefaultArrow4" markerUnits="strokeWidth" viewBox="0 0 1 1" markerWidth="1" markerHeight="1" overflow="visible" orient="auto">
   <!-- REF_ARROW_ROUNDED -->
   <g transform="scale(0.0092592592)">
    <path d="M -9,0 L -9,-45 C -9,-51.708 2.808,-56.580 9,-54 L 117,-9 C 120.916,-7.369 126.000,-4.242 126,0 C 126,4.242 120.916,7.369 117,9 L 9,54 C 2.808,56.580 -9,51.708 -9,45 z"/>
   </g>
  </marker>
  <marker id="DefaultArrow5" markerUnits="strokeWidth" viewBox="0 0 1 1" markerWidth="1" markerHeight="1" overflow="visible" orient="auto">
   <!-- REF_ARROW_SPOT -->
   <g transform="scale(0.0092592592)">
    <path d="M -54, 0 C -54,29.807 -29.807,54 0,54 C 29.807,54 54,29.807 54,0 C 54,-29.807 29.807,-54 0,-54 C -29.807,-54 -54,-29.807 -54,0 z"/>
   </g>
  </marker>
  <marker id="DefaultArrow6" markerUnits="strokeWidth" viewBox="0 0 1 1" markerWidth="1" markerHeight="1" overflow="visible" orient="auto">
   <!-- REF_ARROW_DIAMOND -->
   <g transform="scale(0.0092592592)">
    <path d="M -63,0 L 0,63 L 63,0 L 0,-63 z"/>
   </g>
  </marker>
  <marker id="DefaultArrow7" markerUnits="strokeWidth" viewBox="0 0 1 1" markerWidth="1" markerHeight="1" overflow="visible" orient="auto">
   <!-- REF_ARROW_FEATHER -->
   <g transform="scale(0.0092592592)">
    <path d="M 18,-54 L 108,-54 L 63,0 L 108,54 L 18, 54 L -36,0 z"/>
   </g>
  </marker>
  <marker id="DefaultArrow8" markerUnits="strokeWidth" viewBox="0 0 1 1" markerWidth="1" markerHeight="1" overflow="visible" orient="auto">
   <!-- REF_ARROW_FEATHER2 -->
   <g transform="scale(0.0092592592)">
    <path d="M -36,0 L 18,-54 L 54,-54 L 18,-18 L 27,-18 L 63,-54 L 99,-54 L 63,-18 L 72,-18 L 108,-54 L 144,-54 L 90,0 L 144,54 L 108,54 L 72,18 L 63,18 L 99,54 L 63,54 L 27,18 L 18,18 L 54,54 L 18,54 z"/>
   </g>
  </marker>
  <marker id="DefaultArrow9" markerUnits="strokeWidth" viewBox="0 0 1 1" markerWidth="1" markerHeight="1" overflow="visible" orient="auto">
   <!-- REF_ARROW_HOLLOWDIAMOND -->
   <g transform="scale(0.0092592592)">
    <path d="M 0,45 L -45,0 L 0, -45 L 45, 0 z M 0, 63 L-63, 0 L 0, -63 L 63, 0 z"/>
   </g>
  </marker>
  <filter id="StainedFilter">
   <feBlend mode="multiply" in2="BackgroundImage" in="SourceGraphic" result="blend"/>
   <feComposite in="blend" in2="SourceAlpha" operator="in" result="comp"/>
  </filter>
  <filter id="BleachFilter">
   <feBlend mode="screen" in2="BackgroundImage" in="SourceGraphic" result="blend"/>
   <feComposite in="blend" in2="SourceAlpha" operator="in" result="comp"/>
  </filter>
  <filter id="InvertTransparencyBitmapFilter">
   <feComponentTransfer>
    <feFuncR type="gamma" amplitude="1.055" exponent=".416666666" offset="-0.055"/>
    <feFuncG type="gamma" amplitude="1.055" exponent=".416666666" offset="-0.055"/>
    <feFuncB type="gamma" amplitude="1.055" exponent=".416666666" offset="-0.055"/>
   </feComponentTransfer>
   <feComponentTransfer>
    <feFuncR type="linear" slope="-1" intercept="1"/>
    <feFuncG type="linear" slope="-1" intercept="1"/>
    <feFuncB type="linear" slope="-1" intercept="1"/>
    <feFuncA type="linear" slope="1" intercept="0"/>
   </feComponentTransfer>
   <feComponentTransfer>
    <feFuncR type="gamma" amplitude="1" exponent="2.4" offset="0"/>
    <feFuncG type="gamma" amplitude="1" exponent="2.4" offset="0"/>
    <feFuncB type="gamma" amplitude="1" exponent="2.4" offset="0"/>
   </feComponentTransfer>
  </filter>
 </defs>
 <g id="Document" fill="none" stroke="black" font-family="Times New Roman" font-size="16" transform="scale(1 -1)">
  <g id="Spread" transform="translate(0 -595.277)">
   <g id="Layer 1">
    <g id="Group">
     <path d="M 413.508,317.783 L 413.508,300.046 L 427.597,300.046 L 427.597,317.783 L 413.508,317.783 Z" stroke="#b2b2b2" fill="#ffffff" stroke-width="0.068" stroke-linejoin="miter" marker-start="none" marker-end="none" stroke-miterlimit="79.8403193612775"/>
     <path d="M 413.653,309.63 L 413.653,301.142 L 427.496,301.142 L 427.496,309.63 L 413.653,309.63 Z" stroke="#b2b2b2" stroke-width="0.274" fill="#ffffff" stroke-linejoin="miter" marker-start="none" marker-end="none" stroke-miterlimit="79.8403193612775"/>
     <path d="M 415.219,307.838 L 415.219,303.403 L 418.914,303.403 L 418.914,307.838 L 415.219,307.838 Z" stroke="#bf6200" fill="#ff8200" stroke-width="0.068" stroke-linejoin="miter" marker-start="none" marker-end="none" stroke-miterlimit="79.8403193612775"/>
     <path d="M 422.212,307.836 L 422.212,303.401 L 425.907,303.401 L 425.907,307.836 L 422.212,307.836 Z" stroke="#bf6200" fill="#ff8200" stroke-width="0.068" stroke-linejoin="miter" marker-start="none" marker-end="none" stroke-miterlimit="79.8403193612775"/>
     <path d="M 413.493,323.241 L 413.493,317.762 L 427.582,317.762 L 427.582,323.241 L 413.493,323.241 Z" fill="#e5e5e5" stroke="#b2b2b2" stroke-width="0.068" stroke-linejoin="miter" marker-start="none" marker-end="none" stroke-miterlimit="79.8403193612775"/>
     <path d="M 413.508,300.134 L 413.508,294.655 L 427.597,294.655 L 427.597,300.134 L 413.508,300.134 Z" fill="#e5e5e5" stroke="#b2b2b2" stroke-width="0.068" stroke-linejoin="miter" marker-start="none" marker-end="none" stroke-miterlimit="79.8403193612775"/>
     <path d="M 420.626,323.193 L 420.626,294.635" fill="none" stroke="#7f7f7f" stroke-width="0.068" stroke-miterlimit="79.8403193612775"/>
     <path d="M 413.767,303.885 L 413.767,300.286 L 427.397,300.286 L 427.397,303.885 L 413.767,303.885 Z" stroke="#bf6200" fill="#ff8200" stroke-width="0.068" stroke-linejoin="miter" marker-start="none" marker-end="none" stroke-miterlimit="79.8403193612775"/>
     <path d="M 413.766,302.067 L 413.766,300.49 L 427.396,300.49 L 427.396,302.067 L 413.766,302.067 Z" stroke="#bf6200" fill="#ff8200" stroke-width="0.068" stroke-linejoin="miter" marker-start="none" marker-end="none" stroke-miterlimit="79.8403193612775"/>
     <g id="Group_1">
      <path d="M 417.067,321.614 C 417.599,321.614 418.031,321.182 418.031,320.65 C 418.031,320.117 417.599,319.685 417.067,319.685 C 416.534,319.685 416.102,320.117 416.102,320.65 C 416.102,321.182 416.534,321.614 417.067,321.614 Z" stroke="#666666" fill="#999999" stroke-width="0.068" marker-start="none" marker-end="none" stroke-miterlimit="79.8403193612775"/>
      <path d="M 417.067,321.489 C 417.53,321.489 417.907,321.113 417.907,320.65 C 417.907,320.186 417.53,319.81 417.067,319.81 C 416.603,319.81 416.226,320.186 416.226,320.65 C 416.226,321.113 416.603,321.489 417.067,321.489 Z" fill="#b2b2b2" stroke="#666666" stroke-width="0.059" marker-start="none" marker-end="none" stroke-miterlimit="79.8403193612775"/>
      <g id="Group_2" fill-rule="nonzero" stroke="none" stroke-width="0.059" fill="#000000" stroke-miterlimit="79.8403193612775">
       <g id="Group_3">
        <path d="M 416.967,320.084 L 416.967,320.553 L 416.501,320.553 L 416.501,320.749 L 416.967,320.749 L 416.967,321.214 L 417.165,321.214 L 417.165,320.749 L 417.63,320.749 L 417.63,320.553 L 417.165,320.553 L 417.165,320.084 L 416.967,320.084 Z" marker-start="none" marker-end="none"/>
       </g>
      </g>
     </g>
     <g id="Group_4">
      <path d="M 424.06,321.705 C 424.592,321.705 425.024,321.273 425.024,320.741 C 425.024,320.208 424.592,319.776 424.06,319.776 C 423.527,319.776 423.095,320.208 423.095,320.741 C 423.095,321.273 423.527,321.705 424.06,321.705 Z" stroke="#666666" fill="#999999" stroke-width="0.068" marker-start="none" marker-end="none" stroke-miterlimit="79.8403193612775"/>
      <path d="M 424.06,321.58 C 424.523,321.58 424.9,321.204 424.9,320.741 C 424.9,320.277 424.523,319.901 424.06,319.901 C 423.596,319.901 423.219,320.277 423.219,320.741 C 423.219,321.204 423.596,321.58 424.06,321.58 Z" fill="#b2b2b2" stroke="#666666" stroke-width="0.059" marker-start="none" marker-end="none" stroke-miterlimit="79.8403193612775"/>
      <g id="Group_5" fill-rule="nonzero" stroke="none" stroke-width="0.059" fill="#000000" stroke-miterlimit="79.8403193612775">
       <g id="Group_6">
        <path d="M 423.96,320.175 L 423.96,320.644 L 423.494,320.644 L 423.494,320.84 L 423.96,320.84 L 423.96,321.305 L 424.158,321.305 L 424.158,320.84 L 424.623,320.84 L 424.623,320.644 L 424.158,320.644 L 424.158,320.175 L 423.96,320.175 Z" marker-start="none" marker-end="none"/>
       </g>
      </g>
     </g>
     <g id="Group_7">
      <path d="M 417.067,298.672 C 417.599,298.672 418.031,298.24 418.031,297.708 C 418.031,297.175 417.599,296.743 417.067,296.743 C 416.534,296.743 416.102,297.175 416.102,297.708 C 416.102,298.24 416.534,298.672 417.067,298.672 Z" stroke="#666666" fill="#999999" stroke-width="0.068" marker-start="none" marker-end="none" stroke-miterlimit="79.8403193612775"/>
      <path d="M 417.067,298.547 C 417.53,298.547 417.907,298.171 417.907,297.708 C 417.907,297.244 417.53,296.868 417.067,296.868 C 416.603,296.868 416.226,297.244 416.226,297.708 C 416.226,298.171 416.603,298.547 417.067,298.547 Z" fill="#b2b2b2" stroke="#666666" stroke-width="0.059" marker-start="none" marker-end="none" stroke-miterlimit="79.8403193612775"/>
      <g id="Group_8" fill-rule="nonzero" stroke="none" stroke-width="0.059" fill="#000000" stroke-miterlimit="79.8403193612775">
       <g id="Group_9">
        <path d="M 416.967,297.142 L 416.967,297.611 L 416.501,297.611 L 416.501,297.807 L 416.967,297.807 L 416.967,298.272 L 417.165,298.272 L 417.165,297.807 L 417.63,297.807 L 417.63,297.611 L 417.165,297.611 L 417.165,297.142 L 416.967,297.142 Z" marker-start="none" marker-end="none"/>
       </g>
      </g>
     </g>
     <g id="Group_10">
      <path d="M 424.06,298.763 C 424.592,298.763 425.024,298.331 425.024,297.799 C 425.024,297.266 424.592,296.834 424.06,296.834 C 423.527,296.834 423.095,297.266 423.095,297.799 C 423.095,298.331 423.527,298.763 424.06,298.763 Z" stroke="#666666" fill="#999999" stroke-width="0.068" marker-start="none" marker-end="none" stroke-miterlimit="79.8403193612775"/>
      <path d="M 424.06,298.638 C 424.523,298.638 424.9,298.262 424.9,297.799 C 424.9,297.335 424.523,296.959 424.06,296.959 C 423.596,296.959 423.219,297.335 423.219,297.799 C 423.219,298.262 423.596,298.638 424.06,298.638 Z" fill="#b2b2b2" stroke="#666666" stroke-width="0.059" marker-start="none" marker-end="none" stroke-miterlimit="79.8403193612775"/>
      <g id="Group_11" fill-rule="nonzero" stroke="none" stroke-width="0.059" fill="#000000" stroke-miterlimit="79.8403193612775">
       <g id="Group_12">
        <path d="M 423.96,297.233 L 423.96,297.702 L 423.494,297.702 L 423.494,297.898 L 423.96,297.898 L 423.96,298.363 L 424.158,298.363 L 424.158,297.898 L 424.623,297.898 L 424.623,297.702 L 424.158,297.702 L 424.158,297.233 L 423.96,297.233 Z" marker-start="none" marker-end="none"/>
       </g>
      </g>
     </g>
    </g>
   </g>
  </g>
 </g>
</svg>
