<?xml version="1.0" standalone="no"?>
<!DOCTYPE svg PUBLIC "-//W3C//DTD SVG 1.1//EN" "http://www.w3.org/Graphics/SVG/1.1/DTD/svg11.dtd">
<!--Generator: Xara Xtreme (www.xara.com), SVG filter version: 1.0.0.13-->
<svg stroke-width="0.501" stroke-linejoin="bevel" fill-rule="evenodd" xmlns:xlink="http://www.w3.org/1999/xlink" xmlns="http://www.w3.org/2000/svg" version="1.1" overflow="visible" width="841.891pt" height="595.277pt" viewBox="0 0 841.891 595.277">
 <defs>
  <marker id="DefaultArrow2" markerUnits="strokeWidth" viewBox="0 0 1 1" markerWidth="1" markerHeight="1" overflow="visible" orient="auto">
   <!-- REF_ARROW_STRAIGHT (-2) -->
   <g transform="scale(0.0092592592)">
    <!-- 1/108 -->
    <path d="M -9 54 L -9 -54 L 117 0 z"/>
   </g>
  </marker>
  <marker id="DefaultArrow3" markerUnits="strokeWidth" viewBox="0 0 1 1" markerWidth="1" markerHeight="1" overflow="visible" orient="auto">
   <!-- REF_ARROW_ANGLED -->
   <g transform="scale(0.0092592592)">
    <path d="M -27 54 L -9 0 L -27 -54 L 135 0 z"/>
   </g>
  </marker>
  <marker id="DefaultArrow4" markerUnits="strokeWidth" viewBox="0 0 1 1" markerWidth="1" markerHeight="1" overflow="visible" orient="auto">
   <!-- REF_ARROW_ROUNDED -->
   <g transform="scale(0.0092592592)">
    <path d="M -9,0 L -9,-45 C -9,-51.708 2.808,-56.580 9,-54 L 117,-9 C 120.916,-7.369 126.000,-4.242 126,0 C 126,4.242 120.916,7.369 117,9 L 9,54 C 2.808,56.580 -9,51.708 -9,45 z"/>
   </g>
  </marker>
  <marker id="DefaultArrow5" markerUnits="strokeWidth" viewBox="0 0 1 1" markerWidth="1" markerHeight="1" overflow="visible" orient="auto">
   <!-- REF_ARROW_SPOT -->
   <g transform="scale(0.0092592592)">
    <path d="M -54, 0 C -54,29.807 -29.807,54 0,54 C 29.807,54 54,29.807 54,0 C 54,-29.807 29.807,-54 0,-54 C -29.807,-54 -54,-29.807 -54,0 z"/>
   </g>
  </marker>
  <marker id="DefaultArrow6" markerUnits="strokeWidth" viewBox="0 0 1 1" markerWidth="1" markerHeight="1" overflow="visible" orient="auto">
   <!-- REF_ARROW_DIAMOND -->
   <g transform="scale(0.0092592592)">
    <path d="M -63,0 L 0,63 L 63,0 L 0,-63 z"/>
   </g>
  </marker>
  <marker id="DefaultArrow7" markerUnits="strokeWidth" viewBox="0 0 1 1" markerWidth="1" markerHeight="1" overflow="visible" orient="auto">
   <!-- REF_ARROW_FEATHER -->
   <g transform="scale(0.0092592592)">
    <path d="M 18,-54 L 108,-54 L 63,0 L 108,54 L 18, 54 L -36,0 z"/>
   </g>
  </marker>
  <marker id="DefaultArrow8" markerUnits="strokeWidth" viewBox="0 0 1 1" markerWidth="1" markerHeight="1" overflow="visible" orient="auto">
   <!-- REF_ARROW_FEATHER2 -->
   <g transform="scale(0.0092592592)">
    <path d="M -36,0 L 18,-54 L 54,-54 L 18,-18 L 27,-18 L 63,-54 L 99,-54 L 63,-18 L 72,-18 L 108,-54 L 144,-54 L 90,0 L 144,54 L 108,54 L 72,18 L 63,18 L 99,54 L 63,54 L 27,18 L 18,18 L 54,54 L 18,54 z"/>
   </g>
  </marker>
  <marker id="DefaultArrow9" markerUnits="strokeWidth" viewBox="0 0 1 1" markerWidth="1" markerHeight="1" overflow="visible" orient="auto">
   <!-- REF_ARROW_HOLLOWDIAMOND -->
   <g transform="scale(0.0092592592)">
    <path d="M 0,45 L -45,0 L 0, -45 L 45, 0 z M 0, 63 L-63, 0 L 0, -63 L 63, 0 z"/>
   </g>
  </marker>
  <filter id="StainedFilter">
   <feBlend mode="multiply" in2="BackgroundImage" in="SourceGraphic" result="blend"/>
   <feComposite in="blend" in2="SourceAlpha" operator="in" result="comp"/>
  </filter>
  <filter id="BleachFilter">
   <feBlend mode="screen" in2="BackgroundImage" in="SourceGraphic" result="blend"/>
   <feComposite in="blend" in2="SourceAlpha" operator="in" result="comp"/>
  </filter>
  <filter id="InvertTransparencyBitmapFilter">
   <feComponentTransfer>
    <feFuncR type="gamma" amplitude="1.055" exponent=".416666666" offset="-0.055"/>
    <feFuncG type="gamma" amplitude="1.055" exponent=".416666666" offset="-0.055"/>
    <feFuncB type="gamma" amplitude="1.055" exponent=".416666666" offset="-0.055"/>
   </feComponentTransfer>
   <feComponentTransfer>
    <feFuncR type="linear" slope="-1" intercept="1"/>
    <feFuncG type="linear" slope="-1" intercept="1"/>
    <feFuncB type="linear" slope="-1" intercept="1"/>
    <feFuncA type="linear" slope="1" intercept="0"/>
   </feComponentTransfer>
   <feComponentTransfer>
    <feFuncR type="gamma" amplitude="1" exponent="2.4" offset="0"/>
    <feFuncG type="gamma" amplitude="1" exponent="2.4" offset="0"/>
    <feFuncB type="gamma" amplitude="1" exponent="2.4" offset="0"/>
   </feComponentTransfer>
  </filter>
 </defs>
 <g id="Document" fill="none" stroke="black" font-family="Times New Roman" font-size="16" transform="scale(1 -1)">
  <g id="Spread" transform="translate(0 -595.277)">
   <g id="Layer 1">
    <g id="Group">
     <path d="M 487.141,312.092 C 487.078,312.092 487.058,312.126 487.058,312.172 C 487.058,312.172 487.058,312.176 487.058,312.176 L 487.058,312.176 L 487.058,312.402 C 487.058,312.489 486.988,312.559 486.901,312.559 C 486.818,312.559 486.748,312.492 486.745,312.409 L 486.745,312.409 L 486.745,312.169 C 486.738,312.132 486.715,312.096 486.661,312.096 C 486.608,312.096 486.565,312.129 486.565,312.162 L 486.591,314.362 C 486.595,314.416 486.638,314.436 486.681,314.436 C 486.681,314.436 486.685,314.436 486.685,314.436 L 486.685,314.436 L 486.908,314.436 C 486.994,314.436 487.068,314.506 487.068,314.592 C 487.068,314.681 487.001,314.751 486.918,314.754 L 486.918,314.754 L 486.678,314.754 C 486.638,314.761 486.608,314.794 486.605,314.834 L 486.605,314.847 C 486.605,314.891 486.638,314.924 486.681,314.924 L 487.158,314.924 C 487.201,314.924 487.234,314.891 487.234,314.847 L 487.234,312.169 C 487.234,312.126 487.204,312.092 487.161,312.092 C 487.151,312.092 487.151,312.092 487.141,312.092 Z" stroke="#999999" fill="#cccccc" stroke-width="0.003" marker-start="none" marker-end="none" stroke-miterlimit="79.8403193612775"/>
     <g id="Group_1" fill-rule="nonzero" stroke="none" stroke-width="0" fill="#b2b2b2" stroke-miterlimit="79.8403193612775">
      <g id="Group_2">
       <path d="M 486.751,312.671 L 486.765,312.666 C 486.761,312.656 486.758,312.649 486.753,312.644 C 486.75,312.641 486.743,312.639 486.736,312.639 C 486.726,312.639 486.72,312.642 486.715,312.649 C 486.708,312.656 486.705,312.667 486.705,312.681 C 486.705,312.694 486.708,312.706 486.715,312.714 C 486.72,312.721 486.728,312.724 486.736,312.724 C 486.745,312.724 486.751,312.721 486.756,312.716 C 486.76,312.712 486.761,312.707 486.763,312.699 L 486.75,312.696 C 486.75,312.701 486.748,312.704 486.745,312.706 C 486.743,312.709 486.74,312.709 486.736,312.709 C 486.731,312.709 486.726,312.707 486.723,312.702 C 486.721,312.699 486.72,312.691 486.72,312.681 C 486.72,312.671 486.721,312.664 486.723,312.659 C 486.726,312.656 486.731,312.652 486.736,312.652 C 486.74,312.652 486.743,312.654 486.745,312.657 C 486.748,312.659 486.75,312.664 486.751,312.671 Z" marker-start="none" marker-end="none"/>
       <path d="M 486.776,312.641 L 486.776,312.722 L 486.79,312.722 L 486.816,312.667 L 486.816,312.722 L 486.83,312.722 L 486.83,312.641 L 486.816,312.641 L 486.788,312.694 L 486.788,312.641 L 486.776,312.641 Z" marker-start="none" marker-end="none"/>
       <path d="M 486.845,312.641 L 486.845,312.722 L 486.858,312.722 L 486.858,312.654 L 486.891,312.654 L 486.891,312.641 L 486.845,312.641 Z" marker-start="none" marker-end="none"/>
       <path d="M 486.996,312.654 L 486.996,312.641 L 486.951,312.641 C 486.951,312.646 486.953,312.651 486.956,312.656 C 486.958,312.661 486.963,312.667 486.969,312.676 C 486.976,312.682 486.979,312.686 486.981,312.689 C 486.983,312.692 486.983,312.696 486.983,312.699 C 486.983,312.702 486.983,312.706 486.981,312.707 C 486.979,312.709 486.978,312.709 486.974,312.709 C 486.969,312.709 486.966,312.706 486.966,312.697 L 486.953,312.699 C 486.953,312.707 486.956,312.712 486.959,312.717 C 486.963,312.721 486.968,312.722 486.974,312.722 C 486.983,312.722 486.988,312.721 486.991,312.716 C 486.994,312.711 486.996,312.706 486.996,312.701 C 486.996,312.697 486.996,312.694 486.994,312.691 C 486.994,312.687 486.993,312.684 486.991,312.681 C 486.989,312.677 486.986,312.674 486.981,312.669 C 486.978,312.664 486.974,312.661 486.973,312.659 C 486.973,312.657 486.971,312.656 486.971,312.654 L 486.996,312.654 Z" marker-start="none" marker-end="none"/>
       <path d="M 487.028,312.722 C 487.034,312.722 487.039,312.719 487.044,312.714 C 487.048,312.707 487.049,312.696 487.049,312.681 C 487.049,312.666 487.048,312.654 487.044,312.647 C 487.039,312.642 487.034,312.639 487.028,312.639 C 487.021,312.639 487.016,312.642 487.013,312.647 C 487.008,312.654 487.006,312.666 487.006,312.681 C 487.006,312.696 487.008,312.707 487.013,312.714 C 487.016,312.719 487.021,312.722 487.028,312.722 Z M 487.028,312.709 C 487.026,312.709 487.023,312.707 487.021,312.704 C 487.021,312.701 487.019,312.694 487.019,312.681 C 487.019,312.667 487.021,312.661 487.021,312.657 C 487.023,312.654 487.026,312.652 487.028,312.652 C 487.031,312.652 487.033,312.654 487.034,312.657 C 487.036,312.661 487.036,312.667 487.036,312.681 C 487.036,312.694 487.036,312.701 487.034,312.704 C 487.033,312.707 487.031,312.709 487.028,312.709 Z" marker-start="none" marker-end="none"/>
       <path d="M 487.081,312.722 C 487.088,312.722 487.093,312.719 487.098,312.714 C 487.101,312.707 487.103,312.696 487.103,312.681 C 487.103,312.666 487.101,312.654 487.098,312.647 C 487.093,312.642 487.088,312.639 487.081,312.639 C 487.074,312.639 487.069,312.642 487.066,312.647 C 487.061,312.654 487.059,312.666 487.059,312.681 C 487.059,312.696 487.061,312.707 487.066,312.714 C 487.069,312.719 487.074,312.722 487.081,312.722 Z M 487.081,312.709 C 487.079,312.709 487.076,312.707 487.074,312.704 C 487.074,312.701 487.073,312.694 487.073,312.681 C 487.073,312.667 487.074,312.661 487.074,312.657 C 487.076,312.654 487.079,312.652 487.081,312.652 C 487.084,312.652 487.086,312.654 487.088,312.657 C 487.089,312.661 487.089,312.667 487.089,312.681 C 487.089,312.694 487.089,312.701 487.088,312.704 C 487.086,312.707 487.084,312.709 487.081,312.709 Z" marker-start="none" marker-end="none"/>
      </g>
     </g>
     <path d="M 486.505,312.904 L 486.505,314.146 C 486.505,314.176 486.528,314.199 486.558,314.199 L 487.251,314.199 C 487.281,314.199 487.304,314.176 487.304,314.146 L 487.304,312.904 C 487.304,312.874 487.281,312.851 487.251,312.851 L 486.558,312.851 C 486.528,312.851 486.505,312.874 486.505,312.904 Z M 486.954,313.277 L 486.954,313.341 C 487.001,313.367 487.038,313.437 487.038,313.517 C 487.038,313.597 487.001,313.664 486.954,313.691 L 486.954,313.746 C 486.954,313.792 486.934,313.829 486.908,313.829 L 486.908,313.829 C 486.881,313.829 486.858,313.792 486.858,313.746 L 486.858,313.687 C 486.815,313.657 486.785,313.594 486.785,313.517 C 486.785,313.441 486.815,313.374 486.858,313.344 L 486.858,313.277 C 486.858,313.234 486.881,313.194 486.908,313.194 L 486.908,313.194 C 486.934,313.194 486.954,313.234 486.954,313.277 Z" fill="#bfbd00" stroke-width="0.003" stroke="#cccccc" marker-start="none" marker-end="none" stroke-miterlimit="79.8403193612775"/>
     <g id="Group_3" fill-rule="nonzero" stroke="none" stroke-width="0" fill="#333333" stroke-miterlimit="79.8403193612775">
      <g id="Group_4">
       <path d="M 487.176,313.601 L 487.174,313.589 C 487.168,313.591 487.161,313.596 487.158,313.602 C 487.154,313.609 487.153,313.617 487.153,313.626 C 487.153,313.636 487.154,313.644 487.156,313.649 C 487.159,313.656 487.164,313.661 487.169,313.664 C 487.174,313.667 487.181,313.669 487.186,313.669 C 487.194,313.669 487.199,313.667 487.204,313.662 C 487.209,313.659 487.214,313.654 487.216,313.647 C 487.219,313.641 487.219,313.634 487.219,313.626 C 487.219,313.617 487.218,313.609 487.214,313.602 C 487.211,313.597 487.208,313.592 487.201,313.591 L 487.199,313.602 C 487.204,313.604 487.208,313.607 487.209,313.611 C 487.211,313.616 487.213,313.621 487.213,313.626 C 487.213,313.632 487.211,313.639 487.209,313.644 C 487.206,313.649 487.203,313.651 487.199,313.654 C 487.196,313.656 487.191,313.656 487.186,313.656 C 487.181,313.656 487.176,313.656 487.173,313.652 C 487.168,313.651 487.164,313.647 487.163,313.642 C 487.161,313.637 487.159,313.632 487.159,313.627 C 487.159,313.621 487.161,313.614 487.164,313.611 C 487.166,313.606 487.171,313.602 487.176,313.601 Z" marker-start="none" marker-end="none"/>
       <path d="M 487.154,313.574 L 487.219,313.574 L 487.219,313.561 L 487.168,313.514 L 487.219,313.514 L 487.219,313.502 L 487.154,313.502 L 487.154,313.514 L 487.204,313.562 L 487.154,313.562 L 487.154,313.574 Z" marker-start="none" marker-end="none"/>
       <path d="M 487.154,313.482 L 487.219,313.482 L 487.219,313.471 L 487.161,313.471 L 487.161,313.426 L 487.154,313.426 L 487.154,313.482 Z" marker-start="none" marker-end="none"/>
      </g>
     </g>
     <path d="M 486.655,313.961 C 486.686,313.961 486.713,313.934 486.713,313.902 C 486.713,313.869 486.686,313.842 486.655,313.842 C 486.621,313.842 486.595,313.869 486.595,313.902 C 486.595,313.934 486.621,313.961 486.655,313.961 Z" fill="#403f00" stroke="#7f7e00" stroke-width="0.023" marker-start="none" marker-end="none" stroke-miterlimit="79.8403193612775"/>
     <path d="M 487.158,313.961 C 487.189,313.961 487.216,313.934 487.216,313.902 C 487.216,313.869 487.189,313.842 487.158,313.842 C 487.124,313.842 487.098,313.869 487.098,313.902 C 487.098,313.934 487.124,313.961 487.158,313.961 Z" fill="#403f00" stroke="#7f7e00" stroke-width="0.023" marker-start="none" marker-end="none" stroke-miterlimit="79.8403193612775"/>
     <path d="M 486.655,313.202 C 486.686,313.202 486.713,313.176 486.713,313.144 C 486.713,313.111 486.686,313.084 486.655,313.084 C 486.621,313.084 486.595,313.111 486.595,313.144 C 486.595,313.176 486.621,313.202 486.655,313.202 Z" fill="#403f00" stroke="#7f7e00" stroke-width="0.023" marker-start="none" marker-end="none" stroke-miterlimit="79.8403193612775"/>
     <path d="M 487.158,313.202 C 487.189,313.202 487.216,313.176 487.216,313.144 C 487.216,313.111 487.189,313.084 487.158,313.084 C 487.124,313.084 487.098,313.111 487.098,313.144 C 487.098,313.176 487.124,313.202 487.158,313.202 Z" fill="#403f00" stroke="#7f7e00" stroke-width="0.023" marker-start="none" marker-end="none" stroke-miterlimit="79.8403193612775"/>
    </g>
   </g>
  </g>
 </g>
</svg>
