<?xml version="1.0" standalone="no"?>
<!DOCTYPE svg PUBLIC "-//W3C//DTD SVG 1.1//EN" "http://www.w3.org/Graphics/SVG/1.1/DTD/svg11.dtd">
<!--Generator: Xara Xtreme (www.xara.com), SVG filter version: 1.0.0.13-->
<svg stroke-width="0.501" stroke-linejoin="bevel" fill-rule="evenodd" xmlns:xlink="http://www.w3.org/1999/xlink" xmlns="http://www.w3.org/2000/svg" version="1.1" overflow="visible" width="841.891pt" height="595.277pt" viewBox="0 0 841.891 595.277">
 <defs>
  <marker id="DefaultArrow2" markerUnits="strokeWidth" viewBox="0 0 1 1" markerWidth="1" markerHeight="1" overflow="visible" orient="auto">
   <!-- REF_ARROW_STRAIGHT (-2) -->
   <g transform="scale(0.0092592592)">
    <!-- 1/108 -->
    <path d="M -9 54 L -9 -54 L 117 0 z"/>
   </g>
  </marker>
  <marker id="DefaultArrow3" markerUnits="strokeWidth" viewBox="0 0 1 1" markerWidth="1" markerHeight="1" overflow="visible" orient="auto">
   <!-- REF_ARROW_ANGLED -->
   <g transform="scale(0.0092592592)">
    <path d="M -27 54 L -9 0 L -27 -54 L 135 0 z"/>
   </g>
  </marker>
  <marker id="DefaultArrow4" markerUnits="strokeWidth" viewBox="0 0 1 1" markerWidth="1" markerHeight="1" overflow="visible" orient="auto">
   <!-- REF_ARROW_ROUNDED -->
   <g transform="scale(0.0092592592)">
    <path d="M -9,0 L -9,-45 C -9,-51.708 2.808,-56.580 9,-54 L 117,-9 C 120.916,-7.369 126.000,-4.242 126,0 C 126,4.242 120.916,7.369 117,9 L 9,54 C 2.808,56.580 -9,51.708 -9,45 z"/>
   </g>
  </marker>
  <marker id="DefaultArrow5" markerUnits="strokeWidth" viewBox="0 0 1 1" markerWidth="1" markerHeight="1" overflow="visible" orient="auto">
   <!-- REF_ARROW_SPOT -->
   <g transform="scale(0.0092592592)">
    <path d="M -54, 0 C -54,29.807 -29.807,54 0,54 C 29.807,54 54,29.807 54,0 C 54,-29.807 29.807,-54 0,-54 C -29.807,-54 -54,-29.807 -54,0 z"/>
   </g>
  </marker>
  <marker id="DefaultArrow6" markerUnits="strokeWidth" viewBox="0 0 1 1" markerWidth="1" markerHeight="1" overflow="visible" orient="auto">
   <!-- REF_ARROW_DIAMOND -->
   <g transform="scale(0.0092592592)">
    <path d="M -63,0 L 0,63 L 63,0 L 0,-63 z"/>
   </g>
  </marker>
  <marker id="DefaultArrow7" markerUnits="strokeWidth" viewBox="0 0 1 1" markerWidth="1" markerHeight="1" overflow="visible" orient="auto">
   <!-- REF_ARROW_FEATHER -->
   <g transform="scale(0.0092592592)">
    <path d="M 18,-54 L 108,-54 L 63,0 L 108,54 L 18, 54 L -36,0 z"/>
   </g>
  </marker>
  <marker id="DefaultArrow8" markerUnits="strokeWidth" viewBox="0 0 1 1" markerWidth="1" markerHeight="1" overflow="visible" orient="auto">
   <!-- REF_ARROW_FEATHER2 -->
   <g transform="scale(0.0092592592)">
    <path d="M -36,0 L 18,-54 L 54,-54 L 18,-18 L 27,-18 L 63,-54 L 99,-54 L 63,-18 L 72,-18 L 108,-54 L 144,-54 L 90,0 L 144,54 L 108,54 L 72,18 L 63,18 L 99,54 L 63,54 L 27,18 L 18,18 L 54,54 L 18,54 z"/>
   </g>
  </marker>
  <marker id="DefaultArrow9" markerUnits="strokeWidth" viewBox="0 0 1 1" markerWidth="1" markerHeight="1" overflow="visible" orient="auto">
   <!-- REF_ARROW_HOLLOWDIAMOND -->
   <g transform="scale(0.0092592592)">
    <path d="M 0,45 L -45,0 L 0, -45 L 45, 0 z M 0, 63 L-63, 0 L 0, -63 L 63, 0 z"/>
   </g>
  </marker>
  <filter id="StainedFilter">
   <feBlend mode="multiply" in2="BackgroundImage" in="SourceGraphic" result="blend"/>
   <feComposite in="blend" in2="SourceAlpha" operator="in" result="comp"/>
  </filter>
  <filter id="BleachFilter">
   <feBlend mode="screen" in2="BackgroundImage" in="SourceGraphic" result="blend"/>
   <feComposite in="blend" in2="SourceAlpha" operator="in" result="comp"/>
  </filter>
  <filter id="InvertTransparencyBitmapFilter">
   <feComponentTransfer>
    <feFuncR type="gamma" amplitude="1.055" exponent=".416666666" offset="-0.055"/>
    <feFuncG type="gamma" amplitude="1.055" exponent=".416666666" offset="-0.055"/>
    <feFuncB type="gamma" amplitude="1.055" exponent=".416666666" offset="-0.055"/>
   </feComponentTransfer>
   <feComponentTransfer>
    <feFuncR type="linear" slope="-1" intercept="1"/>
    <feFuncG type="linear" slope="-1" intercept="1"/>
    <feFuncB type="linear" slope="-1" intercept="1"/>
    <feFuncA type="linear" slope="1" intercept="0"/>
   </feComponentTransfer>
   <feComponentTransfer>
    <feFuncR type="gamma" amplitude="1" exponent="2.4" offset="0"/>
    <feFuncG type="gamma" amplitude="1" exponent="2.4" offset="0"/>
    <feFuncB type="gamma" amplitude="1" exponent="2.4" offset="0"/>
   </feComponentTransfer>
  </filter>
 </defs>
 <g id="Document" fill="none" stroke="black" font-family="Times New Roman" font-size="16" transform="scale(1 -1)">
  <g id="Spread" transform="translate(0 -595.277)">
   <g id="Layer 1">
    <g id="Group">
     <path d="M 412.991,273.555 L 412.991,303.644 C 412.991,304.554 413.729,305.293 414.64,305.293 L 429.934,305.293 C 430.845,305.293 431.583,304.554 431.583,303.644 L 431.583,273.555 C 431.583,272.645 430.845,271.906 429.934,271.906 L 414.64,271.906 C 413.729,271.906 412.991,272.645 412.991,273.555 Z M 428.621,277.632 C 428.621,278.369 428.022,278.968 427.284,278.968 C 426.547,278.968 425.948,278.369 425.948,277.632 C 425.948,276.894 426.547,276.295 427.284,276.295 C 428.022,276.295 428.621,276.894 428.621,277.632 Z M 418.468,299.699 C 418.468,300.436 417.869,301.035 417.132,301.035 C 416.394,301.035 415.795,300.436 415.795,299.699 C 415.795,298.961 416.394,298.362 417.132,298.362 C 417.869,298.362 418.468,298.961 418.468,299.699 Z" fill="#191919" stroke-width="0.049" marker-start="none" marker-end="none" stroke-miterlimit="79.8403193612775"/>
     <path d="M 421.913,304.656 L 421.913,272.915 C 421.913,272.798 422.007,272.703 422.124,272.703 L 422.451,272.703 C 422.568,272.703 422.662,272.798 422.662,272.915 L 422.662,304.656 C 422.662,304.773 422.568,304.867 422.451,304.867 L 422.124,304.867 C 422.007,304.867 421.913,304.773 421.913,304.656 Z" stroke="#666666" fill="#191919" stroke-width="0.049" marker-start="none" marker-end="none" stroke-miterlimit="79.8403193612775"/>
     <g id="Group_1" stroke="#4c4c4c">
      <path d="M 429.45,304.015 C 430.925,302.96 431.267,300.905 430.212,299.43 C 429.157,297.955 427.102,297.613 425.627,298.668 C 424.152,299.723 423.81,301.778 424.865,303.253 C 425.92,304.728 427.975,305.07 429.45,304.015 Z" stroke-width="0.127" fill="#999999" marker-start="none" marker-end="none" stroke-miterlimit="79.8403193612775"/>
      <path d="M 424.395,301.03 L 426.236,298.463 L 429.38,298.774 L 430.683,301.652 L 428.841,304.22 L 425.697,303.909 L 424.395,301.03 Z" fill="#b2b2b2" stroke-width="0.127" stroke-linejoin="miter" marker-start="none" marker-end="none" stroke-miterlimit="79.8403193612775"/>
      <path d="M 428.438,302.6 C 429.132,302.103 429.293,301.136 428.797,300.442 C 428.3,299.748 427.333,299.587 426.639,300.083 C 425.945,300.58 425.784,301.547 426.28,302.241 C 426.777,302.935 427.744,303.096 428.438,302.6 Z" fill="#999999" stroke-width="0.177" marker-start="none" marker-end="none" stroke-miterlimit="79.8403193612775"/>
     </g>
     <g id="Group_2" stroke="#4c4c4c">
      <path d="M 418.757,278.956 C 420.232,277.901 420.574,275.846 419.519,274.371 C 418.464,272.896 416.409,272.554 414.934,273.609 C 413.459,274.664 413.117,276.719 414.172,278.194 C 415.227,279.669 417.282,280.011 418.757,278.956 Z" stroke-width="0.127" fill="#999999" marker-start="none" marker-end="none" stroke-miterlimit="79.8403193612775"/>
      <path d="M 413.702,275.971 L 415.543,273.404 L 418.687,273.715 L 419.99,276.593 L 418.148,279.161 L 415.004,278.85 L 413.702,275.971 Z" fill="#b2b2b2" stroke-width="0.127" stroke-linejoin="miter" marker-start="none" marker-end="none" stroke-miterlimit="79.8403193612775"/>
      <path d="M 417.745,277.541 C 418.439,277.044 418.6,276.077 418.104,275.383 C 417.607,274.689 416.64,274.528 415.946,275.024 C 415.252,275.521 415.091,276.488 415.587,277.182 C 416.084,277.876 417.051,278.037 417.745,277.541 Z" fill="#999999" stroke-width="0.177" marker-start="none" marker-end="none" stroke-miterlimit="79.8403193612775"/>
     </g>
     <path d="M 412.252,295.302 L 412.252,282.095 C 412.252,281.204 412.975,280.482 413.865,280.482 L 430.432,280.482 C 431.322,280.482 432.045,281.204 432.045,282.095 L 432.045,295.302 C 432.045,296.192 431.322,296.915 430.432,296.915 L 413.865,296.915 C 412.975,296.915 412.252,296.192 412.252,295.302 Z" fill="#4c4c4c" stroke-width="0.049" marker-start="none" marker-end="none" stroke-miterlimit="79.8403193612775"/>
     <g id="Group_3" fill-rule="nonzero" stroke="none" stroke-width="0.026" fill="#e5e5e5" stroke-miterlimit="79.8403193612775">
      <g id="Group_4">
       <path d="M 417.17,293.833 L 417.269,293.808 C 417.248,293.727 417.211,293.665 417.157,293.622 C 417.103,293.579 417.037,293.558 416.959,293.558 C 416.878,293.558 416.812,293.574 416.762,293.607 C 416.711,293.64 416.673,293.688 416.646,293.75 C 416.62,293.812 416.607,293.879 416.607,293.951 C 416.607,294.029 416.622,294.097 416.651,294.155 C 416.681,294.213 416.724,294.257 416.779,294.288 C 416.834,294.318 416.894,294.333 416.96,294.333 C 417.035,294.333 417.098,294.314 417.15,294.275 C 417.201,294.237 417.236,294.184 417.256,294.114 L 417.159,294.091 C 417.141,294.146 417.116,294.186 417.083,294.211 C 417.05,294.235 417.008,294.248 416.958,294.248 C 416.901,294.248 416.853,294.234 416.814,294.206 C 416.775,294.179 416.748,294.142 416.732,294.095 C 416.717,294.049 416.709,294.001 416.709,293.951 C 416.709,293.888 416.718,293.832 416.737,293.784 C 416.755,293.737 416.784,293.701 416.823,293.678 C 416.863,293.654 416.905,293.643 416.951,293.643 C 417.006,293.643 417.053,293.659 417.092,293.691 C 417.13,293.723 417.156,293.77 417.17,293.833 Z" marker-start="none" marker-end="none"/>
       <path d="M 417.409,293.571 L 417.409,294.32 L 417.508,294.32 L 417.508,293.571 L 417.409,293.571 Z" marker-start="none" marker-end="none"/>
       <path d="M 417.685,293.571 L 417.685,294.32 L 418.017,294.32 C 418.084,294.32 418.135,294.313 418.169,294.3 C 418.204,294.286 418.232,294.263 418.253,294.228 C 418.274,294.194 418.284,294.157 418.284,294.115 C 418.284,294.062 418.267,294.017 418.232,293.981 C 418.198,293.945 418.145,293.921 418.073,293.911 C 418.099,293.899 418.119,293.886 418.133,293.874 C 418.162,293.848 418.189,293.814 418.215,293.774 L 418.345,293.571 L 418.221,293.571 L 418.121,293.726 C 418.092,293.771 418.069,293.806 418.05,293.83 C 418.031,293.854 418.014,293.87 417.999,293.88 C 417.985,293.889 417.97,293.896 417.954,293.9 C 417.943,293.902 417.925,293.903 417.899,293.903 L 417.784,293.903 L 417.784,293.571 L 417.685,293.571 Z M 417.784,293.989 L 417.997,293.989 C 418.043,293.989 418.078,293.994 418.104,294.003 C 418.129,294.013 418.148,294.028 418.162,294.048 C 418.175,294.069 418.182,294.091 418.182,294.115 C 418.182,294.151 418.169,294.18 418.143,294.203 C 418.117,294.226 418.077,294.237 418.021,294.237 L 417.784,294.237 L 417.784,293.989 Z" marker-start="none" marker-end="none"/>
       <path d="M 418.975,293.833 L 419.074,293.808 C 419.053,293.727 419.016,293.665 418.962,293.622 C 418.908,293.579 418.842,293.558 418.764,293.558 C 418.683,293.558 418.617,293.574 418.567,293.607 C 418.516,293.64 418.478,293.688 418.451,293.75 C 418.425,293.812 418.412,293.879 418.412,293.951 C 418.412,294.029 418.427,294.097 418.456,294.155 C 418.486,294.213 418.529,294.257 418.584,294.288 C 418.639,294.318 418.699,294.333 418.765,294.333 C 418.84,294.333 418.903,294.314 418.955,294.275 C 419.006,294.237 419.041,294.184 419.061,294.114 L 418.964,294.091 C 418.946,294.146 418.921,294.186 418.888,294.211 C 418.855,294.235 418.813,294.248 418.763,294.248 C 418.706,294.248 418.658,294.234 418.619,294.206 C 418.58,294.179 418.553,294.142 418.537,294.095 C 418.522,294.049 418.514,294.001 418.514,293.951 C 418.514,293.888 418.523,293.832 418.542,293.784 C 418.56,293.737 418.589,293.701 418.628,293.678 C 418.668,293.654 418.71,293.643 418.756,293.643 C 418.811,293.643 418.858,293.659 418.897,293.691 C 418.935,293.723 418.961,293.77 418.975,293.833 Z" marker-start="none" marker-end="none"/>
       <path d="M 419.689,294.32 L 419.788,294.32 L 419.788,293.887 C 419.788,293.812 419.78,293.752 419.763,293.708 C 419.746,293.663 419.715,293.627 419.67,293.599 C 419.626,293.572 419.568,293.558 419.495,293.558 C 419.425,293.558 419.368,293.57 419.323,293.594 C 419.278,293.618 419.247,293.653 419.227,293.699 C 419.208,293.745 419.199,293.808 419.199,293.887 L 419.199,294.32 L 419.298,294.32 L 419.298,293.887 C 419.298,293.822 419.304,293.774 419.316,293.744 C 419.328,293.713 419.349,293.689 419.379,293.672 C 419.408,293.656 419.444,293.647 419.487,293.647 C 419.56,293.647 419.612,293.664 419.643,293.697 C 419.674,293.73 419.689,293.793 419.689,293.887 L 419.689,294.32 Z" marker-start="none" marker-end="none"/>
       <path d="M 419.971,293.571 L 419.971,294.32 L 420.07,294.32 L 420.07,293.571 L 419.971,293.571 Z" marker-start="none" marker-end="none"/>
       <path d="M 420.436,293.571 L 420.436,294.232 L 420.189,294.232 L 420.189,294.32 L 420.783,294.32 L 420.783,294.232 L 420.535,294.232 L 420.535,293.571 L 420.436,293.571 Z" marker-start="none" marker-end="none"/>
       <path d="M 421.158,293.571 L 421.158,294.32 L 421.441,294.32 C 421.491,294.32 421.529,294.318 421.555,294.313 C 421.592,294.307 421.623,294.295 421.648,294.278 C 421.672,294.261 421.692,294.236 421.708,294.205 C 421.723,294.174 421.73,294.14 421.73,294.103 C 421.73,294.039 421.71,293.986 421.67,293.941 C 421.629,293.897 421.556,293.875 421.45,293.875 L 421.257,293.875 L 421.257,293.571 L 421.158,293.571 Z M 421.257,293.964 L 421.451,293.964 C 421.515,293.964 421.561,293.976 421.588,293.999 C 421.615,294.023 421.628,294.057 421.628,294.1 C 421.628,294.132 421.62,294.158 421.604,294.181 C 421.588,294.203 421.568,294.218 421.542,294.225 C 421.525,294.229 421.494,294.232 421.449,294.232 L 421.257,294.232 L 421.257,293.964 Z" marker-start="none" marker-end="none"/>
       <path d="M 421.859,293.571 L 421.859,294.32 L 422.191,294.32 C 422.258,294.32 422.309,294.313 422.343,294.3 C 422.378,294.286 422.406,294.263 422.427,294.228 C 422.448,294.194 422.458,294.157 422.458,294.115 C 422.458,294.062 422.441,294.017 422.406,293.981 C 422.372,293.945 422.319,293.921 422.247,293.911 C 422.273,293.899 422.293,293.886 422.307,293.874 C 422.336,293.848 422.363,293.814 422.389,293.774 L 422.519,293.571 L 422.395,293.571 L 422.295,293.726 C 422.266,293.771 422.243,293.806 422.224,293.83 C 422.205,293.854 422.188,293.87 422.173,293.88 C 422.159,293.889 422.144,293.896 422.128,293.9 C 422.117,293.902 422.099,293.903 422.073,293.903 L 421.958,293.903 L 421.958,293.571 L 421.859,293.571 Z M 421.958,293.989 L 422.171,293.989 C 422.217,293.989 422.252,293.994 422.278,294.003 C 422.303,294.013 422.322,294.028 422.336,294.048 C 422.349,294.069 422.356,294.091 422.356,294.115 C 422.356,294.151 422.343,294.18 422.317,294.203 C 422.291,294.226 422.251,294.237 422.195,294.237 L 421.958,294.237 L 421.958,293.989 Z" marker-start="none" marker-end="none"/>
       <path d="M 422.584,293.936 C 422.584,294.06 422.618,294.157 422.684,294.228 C 422.751,294.298 422.837,294.333 422.943,294.333 C 423.012,294.333 423.075,294.317 423.13,294.284 C 423.186,294.251 423.228,294.205 423.257,294.145 C 423.286,294.086 423.301,294.019 423.301,293.944 C 423.301,293.868 423.286,293.8 423.255,293.74 C 423.224,293.68 423.181,293.635 423.124,293.604 C 423.068,293.573 423.008,293.558 422.942,293.558 C 422.872,293.558 422.809,293.575 422.753,293.609 C 422.698,293.643 422.656,293.689 422.627,293.748 C 422.598,293.807 422.584,293.87 422.584,293.936 Z M 422.686,293.934 C 422.686,293.844 422.711,293.773 422.759,293.721 C 422.808,293.669 422.869,293.643 422.942,293.643 C 423.017,293.643 423.078,293.669 423.126,293.721 C 423.174,293.774 423.199,293.848 423.199,293.945 C 423.199,294.006 423.188,294.059 423.168,294.104 C 423.147,294.15 423.117,294.185 423.077,294.21 C 423.037,294.235 422.993,294.248 422.944,294.248 C 422.873,294.248 422.813,294.224 422.762,294.176 C 422.712,294.127 422.686,294.047 422.686,293.934 Z" marker-start="none" marker-end="none"/>
       <path d="M 423.62,293.571 L 423.62,294.232 L 423.373,294.232 L 423.373,294.32 L 423.967,294.32 L 423.967,294.232 L 423.719,294.232 L 423.719,293.571 L 423.62,293.571 Z" marker-start="none" marker-end="none"/>
       <path d="M 424.071,293.571 L 424.071,294.32 L 424.613,294.32 L 424.613,294.232 L 424.171,294.232 L 424.171,294.002 L 424.585,294.002 L 424.585,293.914 L 424.171,293.914 L 424.171,293.659 L 424.631,293.659 L 424.631,293.571 L 424.071,293.571 Z" marker-start="none" marker-end="none"/>
       <path d="M 425.303,293.833 L 425.402,293.808 C 425.381,293.727 425.344,293.665 425.29,293.622 C 425.236,293.579 425.17,293.558 425.092,293.558 C 425.011,293.558 424.945,293.574 424.895,293.607 C 424.844,293.64 424.806,293.688 424.779,293.75 C 424.753,293.812 424.74,293.879 424.74,293.951 C 424.74,294.029 424.755,294.097 424.784,294.155 C 424.814,294.213 424.857,294.257 424.912,294.288 C 424.967,294.318 425.027,294.333 425.093,294.333 C 425.168,294.333 425.231,294.314 425.283,294.275 C 425.334,294.237 425.369,294.184 425.389,294.114 L 425.292,294.091 C 425.274,294.146 425.249,294.186 425.216,294.211 C 425.183,294.235 425.141,294.248 425.091,294.248 C 425.034,294.248 424.986,294.234 424.947,294.206 C 424.908,294.179 424.881,294.142 424.865,294.095 C 424.85,294.049 424.842,294.001 424.842,293.951 C 424.842,293.888 424.851,293.832 424.87,293.784 C 424.888,293.737 424.917,293.701 424.956,293.678 C 424.996,293.654 425.038,293.643 425.084,293.643 C 425.139,293.643 425.186,293.659 425.225,293.691 C 425.263,293.723 425.289,293.77 425.303,293.833 Z" marker-start="none" marker-end="none"/>
       <path d="M 425.716,293.571 L 425.716,294.232 L 425.469,294.232 L 425.469,294.32 L 426.063,294.32 L 426.063,294.232 L 425.815,294.232 L 425.815,293.571 L 425.716,293.571 Z" marker-start="none" marker-end="none"/>
       <path d="M 426.117,293.936 C 426.117,294.06 426.151,294.157 426.217,294.228 C 426.284,294.298 426.37,294.333 426.476,294.333 C 426.545,294.333 426.608,294.317 426.663,294.284 C 426.719,294.251 426.761,294.205 426.79,294.145 C 426.819,294.086 426.834,294.019 426.834,293.944 C 426.834,293.868 426.819,293.8 426.788,293.74 C 426.757,293.68 426.714,293.635 426.657,293.604 C 426.601,293.573 426.541,293.558 426.475,293.558 C 426.405,293.558 426.342,293.575 426.286,293.609 C 426.231,293.643 426.189,293.689 426.16,293.748 C 426.131,293.807 426.117,293.87 426.117,293.936 Z M 426.219,293.934 C 426.219,293.844 426.244,293.773 426.292,293.721 C 426.341,293.669 426.402,293.643 426.475,293.643 C 426.55,293.643 426.611,293.669 426.659,293.721 C 426.707,293.774 426.732,293.848 426.732,293.945 C 426.732,294.006 426.721,294.059 426.701,294.104 C 426.68,294.15 426.65,294.185 426.61,294.21 C 426.57,294.235 426.526,294.248 426.477,294.248 C 426.406,294.248 426.346,294.224 426.295,294.176 C 426.245,294.127 426.219,294.047 426.219,293.934 Z" marker-start="none" marker-end="none"/>
       <path d="M 426.964,293.571 L 426.964,294.32 L 427.296,294.32 C 427.363,294.32 427.414,294.313 427.448,294.3 C 427.483,294.286 427.511,294.263 427.532,294.228 C 427.553,294.194 427.563,294.157 427.563,294.115 C 427.563,294.062 427.546,294.017 427.511,293.981 C 427.477,293.945 427.424,293.921 427.352,293.911 C 427.378,293.899 427.398,293.886 427.412,293.874 C 427.441,293.848 427.468,293.814 427.494,293.774 L 427.624,293.571 L 427.5,293.571 L 427.4,293.726 C 427.371,293.771 427.348,293.806 427.329,293.83 C 427.31,293.854 427.293,293.87 427.278,293.88 C 427.264,293.889 427.249,293.896 427.233,293.9 C 427.222,293.902 427.204,293.903 427.178,293.903 L 427.063,293.903 L 427.063,293.571 L 426.964,293.571 Z M 427.063,293.989 L 427.276,293.989 C 427.322,293.989 427.357,293.994 427.383,294.003 C 427.408,294.013 427.427,294.028 427.441,294.048 C 427.454,294.069 427.461,294.091 427.461,294.115 C 427.461,294.151 427.448,294.18 427.422,294.203 C 427.396,294.226 427.356,294.237 427.3,294.237 L 427.063,294.237 L 427.063,293.989 Z" marker-start="none" marker-end="none"/>
      </g>
     </g>
     <g id="Group_5" fill-rule="nonzero" stroke="none" stroke-width="0.026" fill="#e5e5e5" stroke-miterlimit="79.8403193612775">
      <g id="Group_6">
       <path d="M 418.352,282.778 L 418.153,283.527 L 418.255,283.527 L 418.369,283.036 C 418.381,282.984 418.392,282.933 418.401,282.882 C 418.42,282.962 418.431,283.009 418.434,283.021 L 418.577,283.527 L 418.697,283.527 L 418.804,283.148 C 418.831,283.054 418.85,282.965 418.862,282.882 C 418.872,282.93 418.884,282.984 418.9,283.045 L 419.017,283.527 L 419.117,283.527 L 418.911,282.778 L 418.816,282.778 L 418.658,283.349 C 418.645,283.396 418.637,283.426 418.634,283.436 C 418.627,283.402 418.619,283.373 418.612,283.349 L 418.453,282.778 L 418.352,282.778 Z" marker-start="none" marker-end="none"/>
       <path d="M 419.09,282.778 L 419.378,283.527 L 419.485,283.527 L 419.791,282.778 L 419.678,282.778 L 419.591,283.004 L 419.278,283.004 L 419.195,282.778 L 419.09,282.778 Z M 419.306,283.085 L 419.56,283.085 L 419.482,283.293 C 419.458,283.356 419.44,283.408 419.429,283.448 C 419.419,283.4 419.406,283.352 419.389,283.305 L 419.306,283.085 Z" marker-start="none" marker-end="none"/>
       <path d="M 419.985,282.778 L 419.985,283.439 L 419.738,283.439 L 419.738,283.527 L 420.332,283.527 L 420.332,283.439 L 420.084,283.439 L 420.084,282.778 L 419.985,282.778 Z" marker-start="none" marker-end="none"/>
       <path d="M 420.436,282.778 L 420.436,283.527 L 420.978,283.527 L 420.978,283.439 L 420.536,283.439 L 420.536,283.209 L 420.95,283.209 L 420.95,283.121 L 420.536,283.121 L 420.536,282.866 L 420.996,282.866 L 420.996,282.778 L 420.436,282.778 Z" marker-start="none" marker-end="none"/>
       <path d="M 421.135,282.778 L 421.135,283.527 L 421.467,283.527 C 421.534,283.527 421.585,283.52 421.619,283.507 C 421.654,283.493 421.682,283.47 421.703,283.435 C 421.724,283.401 421.734,283.364 421.734,283.322 C 421.734,283.269 421.717,283.224 421.682,283.188 C 421.648,283.152 421.595,283.128 421.523,283.118 C 421.549,283.106 421.569,283.093 421.583,283.081 C 421.612,283.055 421.639,283.021 421.665,282.981 L 421.795,282.778 L 421.671,282.778 L 421.571,282.933 C 421.542,282.978 421.519,283.013 421.5,283.037 C 421.481,283.061 421.464,283.077 421.449,283.087 C 421.435,283.096 421.42,283.103 421.404,283.107 C 421.393,283.109 421.375,283.11 421.349,283.11 L 421.234,283.11 L 421.234,282.778 L 421.135,282.778 Z M 421.234,283.196 L 421.447,283.196 C 421.493,283.196 421.528,283.201 421.554,283.21 C 421.579,283.22 421.598,283.235 421.612,283.255 C 421.625,283.276 421.632,283.298 421.632,283.322 C 421.632,283.358 421.619,283.387 421.593,283.41 C 421.567,283.433 421.527,283.444 421.471,283.444 L 421.234,283.444 L 421.234,283.196 Z" marker-start="none" marker-end="none"/>
       <path d="M 421.89,282.778 L 421.89,283.527 L 422.173,283.527 C 422.223,283.527 422.261,283.525 422.287,283.52 C 422.324,283.514 422.355,283.502 422.38,283.485 C 422.404,283.468 422.424,283.443 422.44,283.412 C 422.455,283.381 422.462,283.347 422.462,283.31 C 422.462,283.246 422.442,283.193 422.402,283.148 C 422.361,283.104 422.288,283.082 422.182,283.082 L 421.989,283.082 L 421.989,282.778 L 421.89,282.778 Z M 421.989,283.171 L 422.183,283.171 C 422.247,283.171 422.293,283.183 422.32,283.206 C 422.347,283.23 422.36,283.264 422.36,283.307 C 422.36,283.339 422.352,283.365 422.336,283.388 C 422.32,283.41 422.3,283.425 422.274,283.432 C 422.257,283.436 422.226,283.439 422.181,283.439 L 421.989,283.439 L 421.989,283.171 Z" marker-start="none" marker-end="none"/>
       <path d="M 422.591,282.778 L 422.591,283.527 L 422.923,283.527 C 422.99,283.527 423.041,283.52 423.075,283.507 C 423.11,283.493 423.138,283.47 423.159,283.435 C 423.18,283.401 423.19,283.364 423.19,283.322 C 423.19,283.269 423.173,283.224 423.138,283.188 C 423.104,283.152 423.051,283.128 422.979,283.118 C 423.005,283.106 423.025,283.093 423.039,283.081 C 423.068,283.055 423.095,283.021 423.121,282.981 L 423.251,282.778 L 423.127,282.778 L 423.027,282.933 C 422.998,282.978 422.975,283.013 422.956,283.037 C 422.937,283.061 422.92,283.077 422.905,283.087 C 422.891,283.096 422.876,283.103 422.86,283.107 C 422.849,283.109 422.831,283.11 422.805,283.11 L 422.69,283.11 L 422.69,282.778 L 422.591,282.778 Z M 422.69,283.196 L 422.903,283.196 C 422.949,283.196 422.984,283.201 423.01,283.21 C 423.035,283.22 423.054,283.235 423.068,283.255 C 423.081,283.276 423.088,283.298 423.088,283.322 C 423.088,283.358 423.075,283.387 423.049,283.41 C 423.023,283.433 422.983,283.444 422.927,283.444 L 422.69,283.444 L 422.69,283.196 Z" marker-start="none" marker-end="none"/>
       <path d="M 423.316,283.143 C 423.316,283.267 423.35,283.364 423.416,283.435 C 423.483,283.505 423.569,283.54 423.675,283.54 C 423.744,283.54 423.807,283.524 423.862,283.491 C 423.918,283.458 423.96,283.412 423.989,283.352 C 424.018,283.293 424.033,283.226 424.033,283.151 C 424.033,283.075 424.018,283.007 423.987,282.947 C 423.956,282.887 423.913,282.842 423.856,282.811 C 423.8,282.78 423.74,282.765 423.674,282.765 C 423.604,282.765 423.541,282.782 423.485,282.816 C 423.43,282.85 423.388,282.896 423.359,282.955 C 423.33,283.014 423.316,283.077 423.316,283.143 Z M 423.418,283.141 C 423.418,283.051 423.443,282.98 423.491,282.928 C 423.54,282.876 423.601,282.85 423.674,282.85 C 423.749,282.85 423.81,282.876 423.858,282.928 C 423.906,282.981 423.931,283.055 423.931,283.152 C 423.931,283.213 423.92,283.266 423.9,283.311 C 423.879,283.357 423.849,283.392 423.809,283.417 C 423.769,283.442 423.725,283.455 423.676,283.455 C 423.605,283.455 423.545,283.431 423.494,283.383 C 423.444,283.334 423.418,283.254 423.418,283.141 Z" marker-start="none" marker-end="none"/>
       <path d="M 424.131,283.143 C 424.131,283.267 424.165,283.364 424.231,283.435 C 424.298,283.505 424.384,283.54 424.49,283.54 C 424.559,283.54 424.622,283.524 424.677,283.491 C 424.733,283.458 424.775,283.412 424.804,283.352 C 424.833,283.293 424.848,283.226 424.848,283.151 C 424.848,283.075 424.833,283.007 424.802,282.947 C 424.771,282.887 424.728,282.842 424.671,282.811 C 424.615,282.78 424.555,282.765 424.489,282.765 C 424.419,282.765 424.356,282.782 424.3,282.816 C 424.245,282.85 424.203,282.896 424.174,282.955 C 424.145,283.014 424.131,283.077 424.131,283.143 Z M 424.233,283.141 C 424.233,283.051 424.258,282.98 424.306,282.928 C 424.355,282.876 424.416,282.85 424.489,282.85 C 424.564,282.85 424.625,282.876 424.673,282.928 C 424.721,282.981 424.746,283.055 424.746,283.152 C 424.746,283.213 424.735,283.266 424.715,283.311 C 424.694,283.357 424.664,283.392 424.624,283.417 C 424.584,283.442 424.54,283.455 424.491,283.455 C 424.42,283.455 424.36,283.431 424.309,283.383 C 424.259,283.334 424.233,283.254 424.233,283.141 Z" marker-start="none" marker-end="none"/>
       <path d="M 424.981,282.778 L 424.981,283.527 L 425.487,283.527 L 425.487,283.439 L 425.081,283.439 L 425.081,283.206 L 425.432,283.206 L 425.432,283.118 L 425.081,283.118 L 425.081,282.778 L 424.981,282.778 Z" marker-start="none" marker-end="none"/>
      </g>
      <g id="Group_7">
       <path d="M 416.23,281.608 L 416.23,282.357 L 416.329,282.357 L 416.329,281.608 L 416.23,281.608 Z" marker-start="none" marker-end="none"/>
       <path d="M 416.855,281.901 L 416.855,281.989 L 417.172,281.99 L 417.172,281.712 C 417.124,281.673 417.073,281.644 417.022,281.624 C 416.97,281.605 416.917,281.595 416.862,281.595 C 416.789,281.595 416.722,281.61 416.661,281.642 C 416.601,281.674 416.556,281.719 416.525,281.779 C 416.495,281.838 416.479,281.905 416.479,281.979 C 416.479,282.052 416.494,282.12 416.525,282.183 C 416.555,282.246 416.599,282.293 416.657,282.324 C 416.714,282.354 416.78,282.37 416.854,282.37 C 416.909,282.37 416.958,282.361 417.001,282.343 C 417.045,282.326 417.08,282.301 417.104,282.27 C 417.129,282.239 417.148,282.198 417.161,282.147 L 417.072,282.123 C 417.06,282.161 417.047,282.191 417.03,282.213 C 417.013,282.235 416.989,282.252 416.958,282.265 C 416.927,282.278 416.893,282.285 416.855,282.285 C 416.81,282.285 416.77,282.278 416.737,282.264 C 416.704,282.25 416.678,282.232 416.657,282.21 C 416.637,282.187 416.621,282.163 416.61,282.136 C 416.591,282.089 416.581,282.039 416.581,281.985 C 416.581,281.918 416.593,281.862 416.616,281.817 C 416.639,281.772 416.672,281.739 416.716,281.717 C 416.76,281.695 416.807,281.684 416.857,281.684 C 416.899,281.684 416.941,281.692 416.982,281.709 C 417.023,281.726 417.054,281.743 417.075,281.762 L 417.075,281.901 L 416.855,281.901 Z" marker-start="none" marker-end="none"/>
       <path d="M 417.318,281.608 L 417.318,282.357 L 417.42,282.357 L 417.814,281.769 L 417.814,282.357 L 417.909,282.357 L 417.909,281.608 L 417.807,281.608 L 417.413,282.196 L 417.413,281.608 L 417.318,281.608 Z" marker-start="none" marker-end="none"/>
       <path d="M 418.093,281.608 L 418.093,282.357 L 418.192,282.357 L 418.192,281.608 L 418.093,281.608 Z" marker-start="none" marker-end="none"/>
       <path d="M 418.558,281.608 L 418.558,282.269 L 418.311,282.269 L 418.311,282.357 L 418.905,282.357 L 418.905,282.269 L 418.657,282.269 L 418.657,281.608 L 418.558,281.608 Z" marker-start="none" marker-end="none"/>
       <path d="M 419.024,281.608 L 419.024,282.357 L 419.123,282.357 L 419.123,281.608 L 419.024,281.608 Z" marker-start="none" marker-end="none"/>
       <path d="M 419.268,281.973 C 419.268,282.097 419.302,282.194 419.368,282.265 C 419.435,282.335 419.521,282.37 419.627,282.37 C 419.696,282.37 419.759,282.354 419.814,282.321 C 419.87,282.288 419.912,282.242 419.941,282.182 C 419.97,282.123 419.985,282.056 419.985,281.981 C 419.985,281.905 419.97,281.837 419.939,281.777 C 419.908,281.717 419.865,281.672 419.808,281.641 C 419.752,281.61 419.692,281.595 419.626,281.595 C 419.556,281.595 419.493,281.612 419.437,281.646 C 419.382,281.68 419.34,281.726 419.311,281.785 C 419.282,281.844 419.268,281.907 419.268,281.973 Z M 419.37,281.971 C 419.37,281.881 419.395,281.81 419.443,281.758 C 419.492,281.706 419.553,281.68 419.626,281.68 C 419.701,281.68 419.762,281.706 419.81,281.758 C 419.858,281.811 419.883,281.885 419.883,281.982 C 419.883,282.043 419.872,282.096 419.852,282.141 C 419.831,282.187 419.801,282.222 419.761,282.247 C 419.721,282.272 419.677,282.285 419.628,282.285 C 419.557,282.285 419.497,282.261 419.446,282.213 C 419.396,282.164 419.37,282.084 419.37,281.971 Z" marker-start="none" marker-end="none"/>
       <path d="M 420.112,281.608 L 420.112,282.357 L 420.214,282.357 L 420.608,281.769 L 420.608,282.357 L 420.703,282.357 L 420.703,281.608 L 420.601,281.608 L 420.207,282.196 L 420.207,281.608 L 420.112,281.608 Z" marker-start="none" marker-end="none"/>
       <path d="M 421.161,281.608 L 421.161,282.357 L 421.444,282.357 C 421.494,282.357 421.532,282.355 421.558,282.35 C 421.595,282.344 421.626,282.332 421.651,282.315 C 421.675,282.298 421.695,282.273 421.711,282.242 C 421.726,282.211 421.733,282.177 421.733,282.14 C 421.733,282.076 421.713,282.023 421.673,281.978 C 421.632,281.934 421.559,281.912 421.453,281.912 L 421.26,281.912 L 421.26,281.608 L 421.161,281.608 Z M 421.26,282.001 L 421.454,282.001 C 421.518,282.001 421.564,282.013 421.591,282.036 C 421.618,282.06 421.631,282.094 421.631,282.137 C 421.631,282.169 421.623,282.195 421.607,282.218 C 421.591,282.24 421.571,282.255 421.545,282.262 C 421.528,282.266 421.497,282.269 421.452,282.269 L 421.26,282.269 L 421.26,282.001 Z" marker-start="none" marker-end="none"/>
       <path d="M 421.862,281.608 L 421.862,282.357 L 422.194,282.357 C 422.261,282.357 422.312,282.35 422.346,282.337 C 422.381,282.323 422.409,282.3 422.43,282.265 C 422.451,282.231 422.461,282.194 422.461,282.152 C 422.461,282.099 422.444,282.054 422.409,282.018 C 422.375,281.982 422.322,281.958 422.25,281.948 C 422.276,281.936 422.296,281.923 422.31,281.911 C 422.339,281.885 422.366,281.851 422.392,281.811 L 422.522,281.608 L 422.398,281.608 L 422.298,281.763 C 422.269,281.808 422.246,281.843 422.227,281.867 C 422.208,281.891 422.191,281.907 422.176,281.917 C 422.162,281.926 422.147,281.933 422.131,281.937 C 422.12,281.939 422.102,281.94 422.076,281.94 L 421.961,281.94 L 421.961,281.608 L 421.862,281.608 Z M 421.961,282.026 L 422.174,282.026 C 422.22,282.026 422.255,282.031 422.281,282.04 C 422.306,282.05 422.325,282.065 422.339,282.085 C 422.352,282.106 422.359,282.128 422.359,282.152 C 422.359,282.188 422.346,282.217 422.32,282.24 C 422.294,282.263 422.254,282.274 422.198,282.274 L 421.961,282.274 L 421.961,282.026 Z" marker-start="none" marker-end="none"/>
       <path d="M 422.587,281.973 C 422.587,282.097 422.621,282.194 422.687,282.265 C 422.754,282.335 422.84,282.37 422.946,282.37 C 423.015,282.37 423.078,282.354 423.133,282.321 C 423.189,282.288 423.231,282.242 423.26,282.182 C 423.289,282.123 423.304,282.056 423.304,281.981 C 423.304,281.905 423.289,281.837 423.258,281.777 C 423.227,281.717 423.184,281.672 423.127,281.641 C 423.071,281.61 423.011,281.595 422.945,281.595 C 422.875,281.595 422.812,281.612 422.756,281.646 C 422.701,281.68 422.659,281.726 422.63,281.785 C 422.601,281.844 422.587,281.907 422.587,281.973 Z M 422.689,281.971 C 422.689,281.881 422.714,281.81 422.762,281.758 C 422.811,281.706 422.872,281.68 422.945,281.68 C 423.02,281.68 423.081,281.706 423.129,281.758 C 423.177,281.811 423.202,281.885 423.202,281.982 C 423.202,282.043 423.191,282.096 423.171,282.141 C 423.15,282.187 423.12,282.222 423.08,282.247 C 423.04,282.272 422.996,282.285 422.947,282.285 C 422.876,282.285 422.816,282.261 422.765,282.213 C 422.715,282.164 422.689,282.084 422.689,281.971 Z" marker-start="none" marker-end="none"/>
       <path d="M 423.623,281.608 L 423.623,282.269 L 423.376,282.269 L 423.376,282.357 L 423.97,282.357 L 423.97,282.269 L 423.722,282.269 L 423.722,281.608 L 423.623,281.608 Z" marker-start="none" marker-end="none"/>
       <path d="M 424.074,281.608 L 424.074,282.357 L 424.616,282.357 L 424.616,282.269 L 424.174,282.269 L 424.174,282.039 L 424.588,282.039 L 424.588,281.951 L 424.174,281.951 L 424.174,281.696 L 424.634,281.696 L 424.634,281.608 L 424.074,281.608 Z" marker-start="none" marker-end="none"/>
       <path d="M 425.306,281.87 L 425.405,281.845 C 425.384,281.764 425.347,281.702 425.293,281.659 C 425.239,281.616 425.173,281.595 425.095,281.595 C 425.014,281.595 424.948,281.611 424.898,281.644 C 424.847,281.677 424.809,281.725 424.782,281.787 C 424.756,281.849 424.743,281.916 424.743,281.988 C 424.743,282.066 424.758,282.134 424.787,282.192 C 424.817,282.25 424.86,282.294 424.915,282.325 C 424.97,282.355 425.03,282.37 425.096,282.37 C 425.171,282.37 425.234,282.351 425.286,282.312 C 425.337,282.274 425.372,282.221 425.392,282.151 L 425.295,282.128 C 425.277,282.183 425.252,282.223 425.219,282.248 C 425.186,282.272 425.144,282.285 425.094,282.285 C 425.037,282.285 424.989,282.271 424.95,282.243 C 424.911,282.216 424.884,282.179 424.868,282.132 C 424.853,282.086 424.845,282.038 424.845,281.988 C 424.845,281.925 424.854,281.869 424.873,281.821 C 424.891,281.774 424.92,281.738 424.959,281.715 C 424.999,281.691 425.041,281.68 425.087,281.68 C 425.142,281.68 425.189,281.696 425.228,281.728 C 425.266,281.76 425.292,281.807 425.306,281.87 Z" marker-start="none" marker-end="none"/>
       <path d="M 425.719,281.608 L 425.719,282.269 L 425.472,282.269 L 425.472,282.357 L 426.066,282.357 L 426.066,282.269 L 425.818,282.269 L 425.818,281.608 L 425.719,281.608 Z" marker-start="none" marker-end="none"/>
       <path d="M 426.17,281.608 L 426.17,282.357 L 426.712,282.357 L 426.712,282.269 L 426.27,282.269 L 426.27,282.039 L 426.684,282.039 L 426.684,281.951 L 426.27,281.951 L 426.27,281.696 L 426.73,281.696 L 426.73,281.608 L 426.17,281.608 Z" marker-start="none" marker-end="none"/>
       <path d="M 426.867,281.608 L 426.867,282.357 L 427.125,282.357 C 427.184,282.357 427.228,282.353 427.259,282.346 C 427.302,282.336 427.338,282.318 427.369,282.293 C 427.408,282.259 427.438,282.216 427.457,282.164 C 427.477,282.113 427.487,282.053 427.487,281.986 C 427.487,281.929 427.48,281.879 427.467,281.835 C 427.454,281.791 427.437,281.755 427.416,281.726 C 427.395,281.697 427.372,281.674 427.348,281.658 C 427.323,281.641 427.293,281.629 427.258,281.62 C 427.223,281.612 427.183,281.608 427.138,281.608 L 426.867,281.608 Z M 426.966,281.696 L 427.126,281.696 C 427.176,281.696 427.215,281.701 427.243,281.71 C 427.271,281.719 427.293,281.732 427.31,281.749 C 427.334,281.772 427.352,281.804 427.365,281.843 C 427.378,281.883 427.385,281.931 427.385,281.988 C 427.385,282.066 427.372,282.126 427.346,282.169 C 427.32,282.211 427.289,282.239 427.252,282.253 C 427.226,282.263 427.183,282.269 427.124,282.269 L 426.966,282.269 L 426.966,281.696 Z" marker-start="none" marker-end="none"/>
      </g>
     </g>
     <path d="M 413.782,296.49 C 414.403,296.49 414.907,295.986 414.907,295.365 C 414.907,294.743 414.403,294.239 413.782,294.239 C 413.16,294.239 412.656,294.743 412.656,295.365 C 412.656,295.986 413.16,296.49 413.782,296.49 Z" fill="#666666" stroke="#e5e5e5" stroke-width="0.099" marker-start="none" marker-end="none" stroke-miterlimit="79.8403193612775"/>
     <path d="M 430.51,296.245 C 431.131,296.245 431.635,295.741 431.635,295.12 C 431.635,294.498 431.131,293.994 430.51,293.994 C 429.888,293.994 429.384,294.498 429.384,295.12 C 429.384,295.741 429.888,296.245 430.51,296.245 Z" fill="#666666" stroke="#e5e5e5" stroke-width="0.099" marker-start="none" marker-end="none" stroke-miterlimit="79.8403193612775"/>
     <path d="M 430.417,283.313 C 431.038,283.313 431.542,282.809 431.542,282.188 C 431.542,281.566 431.038,281.062 430.417,281.062 C 429.795,281.062 429.291,281.566 429.291,282.188 C 429.291,282.809 429.795,283.313 430.417,283.313 Z" fill="#666666" stroke="#e5e5e5" stroke-width="0.099" marker-start="none" marker-end="none" stroke-miterlimit="79.8403193612775"/>
     <path d="M 413.642,283.454 C 414.263,283.454 414.767,282.95 414.767,282.329 C 414.767,281.707 414.263,281.203 413.642,281.203 C 413.02,281.203 412.516,281.707 412.516,282.329 C 412.516,282.95 413.02,283.454 413.642,283.454 Z" fill="#666666" stroke="#e5e5e5" stroke-width="0.099" marker-start="none" marker-end="none" stroke-miterlimit="79.8403193612775"/>
     <path d="M 412.469,288.572 L 412.469,288.571 C 412.469,287.097 413.75,285.901 415.327,285.901 L 428.916,285.901 C 430.493,285.901 431.774,287.097 431.774,288.571 L 431.774,288.572 C 431.774,290.046 430.493,291.242 428.916,291.242 L 415.327,291.242 C 413.75,291.242 412.469,290.046 412.469,288.572 Z" stroke-width="0.049" fill="#4c4c4c" marker-start="none" marker-end="none" stroke-miterlimit="79.8403193612775"/>
     <path d="M 414.781,286.842 L 414.781,286.169 C 414.781,286.096 414.841,286.037 414.914,286.037 L 421.771,286.037 C 421.844,286.037 421.903,286.096 421.903,286.169 L 421.903,286.842 C 421.903,286.915 421.844,286.974 421.771,286.974 L 414.914,286.974 C 414.841,286.974 414.781,286.915 414.781,286.842 Z" stroke="#fffc00" fill="#bfbd00" stroke-width="0.049" marker-start="none" marker-end="none" stroke-miterlimit="79.8403193612775"/>
     <path d="M 413.526,288.572 L 413.526,288.571 C 413.526,287.654 414.396,286.909 415.468,286.909 L 428.74,286.909 C 429.813,286.909 430.683,287.654 430.683,288.571 L 430.683,288.572 C 430.683,289.489 429.813,290.234 428.74,290.234 L 415.468,290.234 C 414.396,290.234 413.526,289.489 413.526,288.572 Z" stroke-width="0.049" fill="#666666" marker-start="none" marker-end="none" stroke-miterlimit="79.8403193612775"/>
     <g id="Group_8" fill-rule="nonzero" stroke="none" stroke-width="0.053" fill="#cccccc" stroke-miterlimit="79.8403193612775">
      <g id="Group_9">
       <path d="M 417.749,288.028 L 417.749,289.566 L 418.862,289.566 L 418.862,289.384 L 417.953,289.384 L 417.953,288.913 L 418.804,288.913 L 418.804,288.733 L 417.953,288.733 L 417.953,288.209 L 418.897,288.209 L 418.897,288.028 L 417.749,288.028 Z" marker-start="none" marker-end="none"/>
       <path d="M 419.13,288.383 L 419.312,288.4 C 419.327,288.315 419.356,288.253 419.4,288.214 C 419.443,288.176 419.499,288.157 419.567,288.157 C 419.625,288.157 419.675,288.17 419.719,288.196 C 419.763,288.223 419.799,288.259 419.827,288.303 C 419.855,288.347 419.878,288.407 419.897,288.483 C 419.916,288.558 419.925,288.635 419.925,288.714 C 419.925,288.722 419.925,288.735 419.924,288.752 C 419.887,288.691 419.835,288.643 419.77,288.605 C 419.704,288.568 419.633,288.549 419.557,288.549 C 419.43,288.549 419.322,288.595 419.234,288.687 C 419.146,288.78 419.102,288.902 419.102,289.053 C 419.102,289.209 419.148,289.334 419.24,289.429 C 419.332,289.524 419.447,289.572 419.585,289.572 C 419.685,289.572 419.777,289.545 419.86,289.491 C 419.943,289.437 420.006,289.361 420.049,289.261 C 420.092,289.161 420.113,289.017 420.113,288.828 C 420.113,288.632 420.092,288.475 420.049,288.359 C 420.007,288.242 419.943,288.153 419.859,288.093 C 419.774,288.032 419.676,288.001 419.562,288.001 C 419.442,288.001 419.344,288.035 419.267,288.101 C 419.191,288.168 419.145,288.262 419.13,288.383 Z M 419.903,289.062 C 419.903,289.171 419.874,289.257 419.817,289.32 C 419.759,289.384 419.69,289.416 419.608,289.416 C 419.525,289.416 419.451,289.381 419.389,289.313 C 419.327,289.244 419.296,289.155 419.296,289.046 C 419.296,288.948 419.325,288.869 419.384,288.808 C 419.444,288.746 419.517,288.716 419.603,288.716 C 419.691,288.716 419.763,288.746 419.819,288.808 C 419.875,288.869 419.903,288.954 419.903,289.062 Z" marker-start="none" marker-end="none"/>
      </g>
     </g>
     <g id="Group_10" fill-rule="nonzero" stroke="none" stroke-width="0.053" fill="#cccccc" stroke-miterlimit="79.8403193612775">
      <g id="Group_11">
       <path d="M 423.639,288.209 L 423.639,288.028 L 422.623,288.028 C 422.621,288.073 422.629,288.117 422.645,288.159 C 422.67,288.228 422.712,288.296 422.769,288.363 C 422.826,288.43 422.908,288.508 423.016,288.596 C 423.183,288.733 423.296,288.842 423.355,288.922 C 423.414,289.002 423.443,289.078 423.443,289.149 C 423.443,289.224 423.416,289.287 423.363,289.339 C 423.309,289.39 423.24,289.416 423.153,289.416 C 423.063,289.416 422.99,289.388 422.935,289.334 C 422.881,289.279 422.853,289.204 422.852,289.107 L 422.658,289.127 C 422.672,289.272 422.722,289.382 422.808,289.458 C 422.895,289.534 423.011,289.572 423.158,289.572 C 423.305,289.572 423.422,289.531 423.508,289.449 C 423.594,289.367 423.637,289.266 423.637,289.145 C 423.637,289.083 423.625,289.023 423.599,288.963 C 423.574,288.904 423.532,288.841 423.474,288.776 C 423.416,288.71 423.319,288.62 423.183,288.505 C 423.07,288.41 422.997,288.345 422.965,288.311 C 422.932,288.277 422.906,288.243 422.885,288.209 L 423.639,288.209 Z" marker-start="none" marker-end="none"/>
       <path d="M 423.842,288.786 C 423.842,288.968 423.86,289.114 423.898,289.225 C 423.935,289.336 423.991,289.422 424.065,289.482 C 424.138,289.542 424.231,289.572 424.343,289.572 C 424.426,289.572 424.498,289.555 424.56,289.522 C 424.623,289.489 424.674,289.441 424.715,289.378 C 424.755,289.316 424.787,289.24 424.81,289.15 C 424.833,289.06 424.845,288.939 424.845,288.786 C 424.845,288.606 424.826,288.46 424.789,288.349 C 424.752,288.238 424.697,288.153 424.623,288.092 C 424.549,288.032 424.456,288.001 424.343,288.001 C 424.195,288.001 424.078,288.054 423.994,288.161 C 423.892,288.289 423.842,288.497 423.842,288.786 Z M 424.036,288.786 C 424.036,288.534 424.065,288.366 424.124,288.282 C 424.184,288.198 424.257,288.157 424.343,288.157 C 424.43,288.157 424.503,288.199 424.562,288.282 C 424.621,288.366 424.651,288.534 424.651,288.786 C 424.651,289.039 424.621,289.208 424.562,289.291 C 424.503,289.374 424.429,289.416 424.341,289.416 C 424.254,289.416 424.185,289.379 424.133,289.306 C 424.068,289.212 424.036,289.039 424.036,288.786 Z" marker-start="none" marker-end="none"/>
       <path d="M 425.037,288.786 C 425.037,288.968 425.055,289.114 425.093,289.225 C 425.13,289.336 425.186,289.422 425.26,289.482 C 425.333,289.542 425.426,289.572 425.538,289.572 C 425.621,289.572 425.693,289.555 425.755,289.522 C 425.818,289.489 425.869,289.441 425.91,289.378 C 425.95,289.316 425.982,289.24 426.005,289.15 C 426.028,289.06 426.04,288.939 426.04,288.786 C 426.04,288.606 426.021,288.46 425.984,288.349 C 425.947,288.238 425.892,288.153 425.818,288.092 C 425.744,288.032 425.651,288.001 425.538,288.001 C 425.39,288.001 425.273,288.054 425.189,288.161 C 425.087,288.289 425.037,288.497 425.037,288.786 Z M 425.231,288.786 C 425.231,288.534 425.26,288.366 425.319,288.282 C 425.379,288.198 425.452,288.157 425.538,288.157 C 425.625,288.157 425.698,288.199 425.757,288.282 C 425.816,288.366 425.846,288.534 425.846,288.786 C 425.846,289.039 425.816,289.208 425.757,289.291 C 425.698,289.374 425.624,289.416 425.536,289.416 C 425.449,289.416 425.38,289.379 425.328,289.306 C 425.263,289.212 425.231,289.039 425.231,288.786 Z" marker-start="none" marker-end="none"/>
      </g>
     </g>
     <path d="M 427.28,289.072 L 427.28,288.211 C 427.28,288.118 427.356,288.042 427.45,288.042 L 429.585,288.042 C 429.678,288.042 429.755,288.118 429.755,288.211 L 429.755,289.072 C 429.755,289.165 429.678,289.241 429.585,289.241 L 427.45,289.241 C 427.356,289.241 427.28,289.165 427.28,289.072 Z" stroke="#fffc00" fill="#bfbd00" stroke-width="0.049" marker-start="none" marker-end="none" stroke-miterlimit="79.8403193612775"/>
    </g>
   </g>
  </g>
 </g>
</svg>
