<?xml version="1.0" standalone="no"?>
<!DOCTYPE svg PUBLIC "-//W3C//DTD SVG 1.1//EN" "http://www.w3.org/Graphics/SVG/1.1/DTD/svg11.dtd">
<!--Generator: Xara Xtreme (www.xara.com), SVG filter version: 1.0.0.13-->
<svg stroke-width="0.501" stroke-linejoin="bevel" fill-rule="evenodd" xmlns:xlink="http://www.w3.org/1999/xlink" xmlns="http://www.w3.org/2000/svg" version="1.1" overflow="visible" width="841.891pt" height="595.277pt" viewBox="0 0 841.891 595.277">
 <defs>
  <marker id="DefaultArrow2" markerUnits="strokeWidth" viewBox="0 0 1 1" markerWidth="1" markerHeight="1" overflow="visible" orient="auto">
   <!-- REF_ARROW_STRAIGHT (-2) -->
   <g transform="scale(0.0092592592)">
    <!-- 1/108 -->
    <path d="M -9 54 L -9 -54 L 117 0 z"/>
   </g>
  </marker>
  <marker id="DefaultArrow3" markerUnits="strokeWidth" viewBox="0 0 1 1" markerWidth="1" markerHeight="1" overflow="visible" orient="auto">
   <!-- REF_ARROW_ANGLED -->
   <g transform="scale(0.0092592592)">
    <path d="M -27 54 L -9 0 L -27 -54 L 135 0 z"/>
   </g>
  </marker>
  <marker id="DefaultArrow4" markerUnits="strokeWidth" viewBox="0 0 1 1" markerWidth="1" markerHeight="1" overflow="visible" orient="auto">
   <!-- REF_ARROW_ROUNDED -->
   <g transform="scale(0.0092592592)">
    <path d="M -9,0 L -9,-45 C -9,-51.708 2.808,-56.580 9,-54 L 117,-9 C 120.916,-7.369 126.000,-4.242 126,0 C 126,4.242 120.916,7.369 117,9 L 9,54 C 2.808,56.580 -9,51.708 -9,45 z"/>
   </g>
  </marker>
  <marker id="DefaultArrow5" markerUnits="strokeWidth" viewBox="0 0 1 1" markerWidth="1" markerHeight="1" overflow="visible" orient="auto">
   <!-- REF_ARROW_SPOT -->
   <g transform="scale(0.0092592592)">
    <path d="M -54, 0 C -54,29.807 -29.807,54 0,54 C 29.807,54 54,29.807 54,0 C 54,-29.807 29.807,-54 0,-54 C -29.807,-54 -54,-29.807 -54,0 z"/>
   </g>
  </marker>
  <marker id="DefaultArrow6" markerUnits="strokeWidth" viewBox="0 0 1 1" markerWidth="1" markerHeight="1" overflow="visible" orient="auto">
   <!-- REF_ARROW_DIAMOND -->
   <g transform="scale(0.0092592592)">
    <path d="M -63,0 L 0,63 L 63,0 L 0,-63 z"/>
   </g>
  </marker>
  <marker id="DefaultArrow7" markerUnits="strokeWidth" viewBox="0 0 1 1" markerWidth="1" markerHeight="1" overflow="visible" orient="auto">
   <!-- REF_ARROW_FEATHER -->
   <g transform="scale(0.0092592592)">
    <path d="M 18,-54 L 108,-54 L 63,0 L 108,54 L 18, 54 L -36,0 z"/>
   </g>
  </marker>
  <marker id="DefaultArrow8" markerUnits="strokeWidth" viewBox="0 0 1 1" markerWidth="1" markerHeight="1" overflow="visible" orient="auto">
   <!-- REF_ARROW_FEATHER2 -->
   <g transform="scale(0.0092592592)">
    <path d="M -36,0 L 18,-54 L 54,-54 L 18,-18 L 27,-18 L 63,-54 L 99,-54 L 63,-18 L 72,-18 L 108,-54 L 144,-54 L 90,0 L 144,54 L 108,54 L 72,18 L 63,18 L 99,54 L 63,54 L 27,18 L 18,18 L 54,54 L 18,54 z"/>
   </g>
  </marker>
  <marker id="DefaultArrow9" markerUnits="strokeWidth" viewBox="0 0 1 1" markerWidth="1" markerHeight="1" overflow="visible" orient="auto">
   <!-- REF_ARROW_HOLLOWDIAMOND -->
   <g transform="scale(0.0092592592)">
    <path d="M 0,45 L -45,0 L 0, -45 L 45, 0 z M 0, 63 L-63, 0 L 0, -63 L 63, 0 z"/>
   </g>
  </marker>
  <filter id="StainedFilter">
   <feBlend mode="multiply" in2="BackgroundImage" in="SourceGraphic" result="blend"/>
   <feComposite in="blend" in2="SourceAlpha" operator="in" result="comp"/>
  </filter>
  <filter id="BleachFilter">
   <feBlend mode="screen" in2="BackgroundImage" in="SourceGraphic" result="blend"/>
   <feComposite in="blend" in2="SourceAlpha" operator="in" result="comp"/>
  </filter>
  <filter id="InvertTransparencyBitmapFilter">
   <feComponentTransfer>
    <feFuncR type="gamma" amplitude="1.055" exponent=".416666666" offset="-0.055"/>
    <feFuncG type="gamma" amplitude="1.055" exponent=".416666666" offset="-0.055"/>
    <feFuncB type="gamma" amplitude="1.055" exponent=".416666666" offset="-0.055"/>
   </feComponentTransfer>
   <feComponentTransfer>
    <feFuncR type="linear" slope="-1" intercept="1"/>
    <feFuncG type="linear" slope="-1" intercept="1"/>
    <feFuncB type="linear" slope="-1" intercept="1"/>
    <feFuncA type="linear" slope="1" intercept="0"/>
   </feComponentTransfer>
   <feComponentTransfer>
    <feFuncR type="gamma" amplitude="1" exponent="2.4" offset="0"/>
    <feFuncG type="gamma" amplitude="1" exponent="2.4" offset="0"/>
    <feFuncB type="gamma" amplitude="1" exponent="2.4" offset="0"/>
   </feComponentTransfer>
  </filter>
 </defs>
 <g id="Document" fill="none" stroke="black" font-family="Times New Roman" font-size="16" transform="scale(1 -1)">
  <g id="Spread" transform="translate(0 -595.277)">
   <g id="Layer 1">
    <g id="Group">
     <path d="M 422.839,278.758 L 422.839,258.121 L 471.882,258.121 L 471.882,278.758 L 422.839,278.758 Z" fill="#333333" stroke-width="0.05" marker-start="none" marker-end="none" stroke-miterlimit="79.8403193612775"/>
     <path d="M 444.435,270.359 L 444.435,267.044 C 444.435,265.534 445.642,264.308 447.128,264.308 L 447.129,264.308 C 448.615,264.308 449.821,265.534 449.821,267.044 L 449.821,270.359 C 449.821,271.869 448.615,273.095 447.129,273.095 L 447.128,273.095 C 445.642,273.095 444.435,271.869 444.435,270.359 Z" fill="#73b6e4" stroke-width="0.05" marker-start="none" marker-end="none" stroke-miterlimit="79.8403193612775"/>
     <path d="M 434.248,273.229 C 435.898,272.284 438.106,270.568 438.106,268.448 C 438.106,266.328 435.935,264.589 434.266,263.651 C 432.616,264.546 430.423,266.328 430.423,268.448 C 430.423,270.568 432.635,272.321 434.248,273.229 Z" stroke="#ff0000" stroke-width="0.5" fill="#999999" marker-start="none" marker-end="none" stroke-miterlimit="79.8403193612775"/>
     <g id="Group_1">
      <path d="M 434.329,270.707 C 435.58,270.707 436.596,269.691 436.596,268.44 C 436.596,267.188 435.58,266.172 434.329,266.172 C 433.077,266.172 432.061,267.188 432.061,268.44 C 432.061,269.691 433.077,270.707 434.329,270.707 Z" stroke-width="0.05" fill="#999999" marker-start="none" marker-end="none" stroke-miterlimit="79.8403193612775"/>
      <path d="M 434.329,269.241 C 434.771,269.241 435.13,268.882 435.13,268.44 C 435.13,267.997 434.771,267.638 434.329,267.638 C 433.886,267.638 433.527,267.997 433.527,268.44 C 433.527,268.882 433.886,269.241 434.329,269.241 Z" stroke-width="0.098" stroke="#ffffff" fill="#cccccc" marker-start="none" marker-end="none" stroke-miterlimit="79.8403193612775"/>
     </g>
     <g id="Group_2">
      <path d="M 459.659,273.229 C 461.309,272.284 463.517,270.568 463.517,268.448 C 463.517,266.328 461.346,264.589 459.677,263.651 C 458.027,264.546 455.834,266.328 455.834,268.448 C 455.834,270.568 458.046,272.321 459.659,273.229 Z" stroke="#0003ff" stroke-width="0.5" fill="#999999" marker-start="none" marker-end="none" stroke-miterlimit="79.8403193612775"/>
      <g id="Group_3">
       <path d="M 459.675,270.716 C 460.927,270.716 461.943,269.7 461.943,268.448 C 461.943,267.196 460.927,266.18 459.675,266.18 C 458.423,266.18 457.407,267.196 457.407,268.448 C 457.407,269.7 458.423,270.716 459.675,270.716 Z" stroke-width="0.05" fill="#999999" marker-start="none" marker-end="none" stroke-miterlimit="79.8403193612775"/>
       <path d="M 459.675,269.249 C 460.117,269.249 460.476,268.89 460.476,268.448 C 460.476,268.006 460.117,267.647 459.675,267.647 C 459.233,267.647 458.874,268.006 458.874,268.448 C 458.874,268.89 459.233,269.249 459.675,269.249 Z" stroke-width="0.098" stroke="#ffffff" fill="#cccccc" marker-start="none" marker-end="none" stroke-miterlimit="79.8403193612775"/>
      </g>
     </g>
     <path d="M 450.387,270.347 L 450.387,267.138 L 453.596,267.138 L 453.596,270.347 L 450.387,270.347 Z" fill="#e5e5e5" stroke-width="0.05" marker-start="none" marker-end="none" stroke-miterlimit="79.8403193612775"/>
    </g>
   </g>
  </g>
 </g>
</svg>
