<?xml version="1.0" standalone="no"?>
<!DOCTYPE svg PUBLIC "-//W3C//DTD SVG 1.1//EN" "http://www.w3.org/Graphics/SVG/1.1/DTD/svg11.dtd">
<!--Generator: Xara Xtreme (www.xara.com), SVG filter version: 1.0.0.13-->
<svg stroke-width="0.501" stroke-linejoin="bevel" fill-rule="evenodd" xmlns:xlink="http://www.w3.org/1999/xlink" xmlns="http://www.w3.org/2000/svg" version="1.1" overflow="visible" width="841.891pt" height="595.277pt" viewBox="0 0 841.891 595.277">
 <defs>
  <marker id="DefaultArrow2" markerUnits="strokeWidth" viewBox="0 0 1 1" markerWidth="1" markerHeight="1" overflow="visible" orient="auto">
   <!-- REF_ARROW_STRAIGHT (-2) -->
   <g transform="scale(0.0092592592)">
    <!-- 1/108 -->
    <path d="M -9 54 L -9 -54 L 117 0 z"/>
   </g>
  </marker>
  <marker id="DefaultArrow3" markerUnits="strokeWidth" viewBox="0 0 1 1" markerWidth="1" markerHeight="1" overflow="visible" orient="auto">
   <!-- REF_ARROW_ANGLED -->
   <g transform="scale(0.0092592592)">
    <path d="M -27 54 L -9 0 L -27 -54 L 135 0 z"/>
   </g>
  </marker>
  <marker id="DefaultArrow4" markerUnits="strokeWidth" viewBox="0 0 1 1" markerWidth="1" markerHeight="1" overflow="visible" orient="auto">
   <!-- REF_ARROW_ROUNDED -->
   <g transform="scale(0.0092592592)">
    <path d="M -9,0 L -9,-45 C -9,-51.708 2.808,-56.580 9,-54 L 117,-9 C 120.916,-7.369 126.000,-4.242 126,0 C 126,4.242 120.916,7.369 117,9 L 9,54 C 2.808,56.580 -9,51.708 -9,45 z"/>
   </g>
  </marker>
  <marker id="DefaultArrow5" markerUnits="strokeWidth" viewBox="0 0 1 1" markerWidth="1" markerHeight="1" overflow="visible" orient="auto">
   <!-- REF_ARROW_SPOT -->
   <g transform="scale(0.0092592592)">
    <path d="M -54, 0 C -54,29.807 -29.807,54 0,54 C 29.807,54 54,29.807 54,0 C 54,-29.807 29.807,-54 0,-54 C -29.807,-54 -54,-29.807 -54,0 z"/>
   </g>
  </marker>
  <marker id="DefaultArrow6" markerUnits="strokeWidth" viewBox="0 0 1 1" markerWidth="1" markerHeight="1" overflow="visible" orient="auto">
   <!-- REF_ARROW_DIAMOND -->
   <g transform="scale(0.0092592592)">
    <path d="M -63,0 L 0,63 L 63,0 L 0,-63 z"/>
   </g>
  </marker>
  <marker id="DefaultArrow7" markerUnits="strokeWidth" viewBox="0 0 1 1" markerWidth="1" markerHeight="1" overflow="visible" orient="auto">
   <!-- REF_ARROW_FEATHER -->
   <g transform="scale(0.0092592592)">
    <path d="M 18,-54 L 108,-54 L 63,0 L 108,54 L 18, 54 L -36,0 z"/>
   </g>
  </marker>
  <marker id="DefaultArrow8" markerUnits="strokeWidth" viewBox="0 0 1 1" markerWidth="1" markerHeight="1" overflow="visible" orient="auto">
   <!-- REF_ARROW_FEATHER2 -->
   <g transform="scale(0.0092592592)">
    <path d="M -36,0 L 18,-54 L 54,-54 L 18,-18 L 27,-18 L 63,-54 L 99,-54 L 63,-18 L 72,-18 L 108,-54 L 144,-54 L 90,0 L 144,54 L 108,54 L 72,18 L 63,18 L 99,54 L 63,54 L 27,18 L 18,18 L 54,54 L 18,54 z"/>
   </g>
  </marker>
  <marker id="DefaultArrow9" markerUnits="strokeWidth" viewBox="0 0 1 1" markerWidth="1" markerHeight="1" overflow="visible" orient="auto">
   <!-- REF_ARROW_HOLLOWDIAMOND -->
   <g transform="scale(0.0092592592)">
    <path d="M 0,45 L -45,0 L 0, -45 L 45, 0 z M 0, 63 L-63, 0 L 0, -63 L 63, 0 z"/>
   </g>
  </marker>
  <filter id="StainedFilter">
   <feBlend mode="multiply" in2="BackgroundImage" in="SourceGraphic" result="blend"/>
   <feComposite in="blend" in2="SourceAlpha" operator="in" result="comp"/>
  </filter>
  <filter id="BleachFilter">
   <feBlend mode="screen" in2="BackgroundImage" in="SourceGraphic" result="blend"/>
   <feComposite in="blend" in2="SourceAlpha" operator="in" result="comp"/>
  </filter>
  <filter id="InvertTransparencyBitmapFilter">
   <feComponentTransfer>
    <feFuncR type="gamma" amplitude="1.055" exponent=".416666666" offset="-0.055"/>
    <feFuncG type="gamma" amplitude="1.055" exponent=".416666666" offset="-0.055"/>
    <feFuncB type="gamma" amplitude="1.055" exponent=".416666666" offset="-0.055"/>
   </feComponentTransfer>
   <feComponentTransfer>
    <feFuncR type="linear" slope="-1" intercept="1"/>
    <feFuncG type="linear" slope="-1" intercept="1"/>
    <feFuncB type="linear" slope="-1" intercept="1"/>
    <feFuncA type="linear" slope="1" intercept="0"/>
   </feComponentTransfer>
   <feComponentTransfer>
    <feFuncR type="gamma" amplitude="1" exponent="2.4" offset="0"/>
    <feFuncG type="gamma" amplitude="1" exponent="2.4" offset="0"/>
    <feFuncB type="gamma" amplitude="1" exponent="2.4" offset="0"/>
   </feComponentTransfer>
  </filter>
 </defs>
 <g id="Document" fill="none" stroke="black" font-family="Times New Roman" font-size="16" transform="scale(1 -1)">
  <g id="Spread" transform="translate(0 -595.277)">
   <g id="Layer 1">
    <g id="Group">
     <g id="Group_1">
      <path d="M 385.731,328.923 L 385.731,309.713 C 385.731,308.622 386.617,307.737 387.708,307.737 L 406.363,307.737 C 407.454,307.737 408.34,308.622 408.34,309.713 L 408.34,328.923 C 408.34,330.014 407.454,330.9 406.363,330.9 L 387.708,330.9 C 386.617,330.9 385.731,330.014 385.731,328.923 Z" fill="#191919" stroke-width="0.069" marker-start="none" marker-end="none" stroke-miterlimit="79.8403193612775"/>
      <path d="M 386.187,328.536 C 387.206,322.031 387.04,315.944 386.187,310.1 C 386.187,309.053 387.037,308.203 388.083,308.203 C 393.832,309.406 399.8,309.406 405.987,308.203 C 407.034,308.203 407.884,309.053 407.884,310.1 C 406.698,316.377 406.605,322.533 407.884,328.536 C 407.884,329.583 407.034,330.433 405.987,330.433 C 399.966,329.631 393.995,329.593 388.083,330.433 C 387.037,330.433 386.187,329.583 386.187,328.536 Z" fill="#4c4c4c" stroke-opacity="0.509804" stroke-width="0.066" marker-start="none" marker-end="none" stroke-miterlimit="79.8403193612775" fill-opacity="0.509804"/>
      <path d="M 387.533,329.724 C 387.877,329.724 388.157,329.444 388.157,329.1 C 388.157,328.755 387.877,328.475 387.533,328.475 C 387.188,328.475 386.908,328.755 386.908,329.1 C 386.908,329.444 387.188,329.724 387.533,329.724 Z" fill="#ffffff" stroke-width="0.069" marker-start="none" marker-end="none" stroke-miterlimit="79.8403193612775"/>
      <path d="M 406.559,329.724 C 406.903,329.724 407.183,329.444 407.183,329.1 C 407.183,328.755 406.903,328.475 406.559,328.475 C 406.214,328.475 405.934,328.755 405.934,329.1 C 405.934,329.444 406.214,329.724 406.559,329.724 Z" fill="#ffffff" stroke-width="0.069" marker-start="none" marker-end="none" stroke-miterlimit="79.8403193612775"/>
      <path d="M 406.507,310.239 C 406.851,310.239 407.131,309.959 407.131,309.615 C 407.131,309.27 406.851,308.99 406.507,308.99 C 406.162,308.99 405.882,309.27 405.882,309.615 C 405.882,309.959 406.162,310.239 406.507,310.239 Z" fill="#ffffff" stroke-width="0.069" marker-start="none" marker-end="none" stroke-miterlimit="79.8403193612775"/>
      <path d="M 387.6,310.239 C 387.944,310.239 388.224,309.959 388.224,309.615 C 388.224,309.27 387.944,308.99 387.6,308.99 C 387.255,308.99 386.975,309.27 386.975,309.615 C 386.975,309.959 387.255,310.239 387.6,310.239 Z" fill="#ffffff" stroke-width="0.069" marker-start="none" marker-end="none" stroke-miterlimit="79.8403193612775"/>
     </g>
     <path d="M 397.036,327.672 C 401.646,327.672 405.389,323.929 405.389,319.319 C 405.389,314.708 401.646,310.965 397.036,310.965 C 392.425,310.965 388.682,314.708 388.682,319.319 C 388.682,323.929 392.425,327.672 397.036,327.672 Z" stroke="#ffffff" stroke-width="1.141" fill="#000000" marker-start="none" marker-end="none" stroke-miterlimit="79.8403193612775"/>
     <path d="M 397.036,326.571 C 401.039,326.571 404.288,323.322 404.288,319.319 C 404.288,315.315 401.039,312.066 397.036,312.066 C 393.032,312.066 389.783,315.315 389.783,319.319 C 389.783,323.322 393.032,326.571 397.036,326.571 Z" fill="#bf0000" stroke="#ff7f7f" stroke-width="0.277" marker-start="none" marker-end="none" stroke-miterlimit="79.8403193612775"/>
     <path d="M 393.603,313.894 C 391.299,316.198 391.299,319.939 393.603,322.243 C 394.131,322.771 394.721,323.223 395.379,323.464 C 395.897,323.654 396.275,324.017 396.32,324.646 L 396.32,326.471 C 397.822,326.464 399.322,325.888 400.467,324.743 C 402.772,322.438 402.772,318.698 400.467,316.393 C 399.951,315.877 399.398,315.372 398.735,315.192 C 398.023,314.998 397.77,314.514 397.751,313.879 L 397.751,312.165 C 396.248,312.172 394.748,312.748 393.603,313.894 Z" fill="#ea4848" stroke="#ff7f7f" stroke-width="0.252" marker-start="none" marker-end="none" stroke-miterlimit="79.8403193612775"/>
     <path d="M 394.236,314.529 C 392.356,316.567 392.356,319.874 394.236,321.912 C 394.657,322.369 395.126,322.761 395.648,322.977 C 395.66,322.982 395.674,322.988 395.684,322.992 C 396.227,323.165 396.738,323.506 396.89,324.065 L 396.89,325.666 C 398.115,325.66 398.9,325.135 399.835,324.122 C 401.714,322.084 401.714,318.777 399.835,316.739 C 399.414,316.283 398.973,315.787 398.422,315.677 C 397.766,315.546 397.396,315.279 397.233,314.584 L 397.204,312.971 C 395.978,312.977 395.17,313.516 394.236,314.529 Z" fill="#ffafaf" stroke-width="0.222" marker-start="none" marker-end="none" stroke-miterlimit="79.8403193612775"/>
     <g id="Group_2">
      <path d="M 394.031,321.173 L 394.031,317.468 L 399.882,317.468 L 399.882,321.173 L 394.031,321.173 Z" stroke-width="0.277" fill="#ffffff" marker-start="none" marker-end="none" stroke-miterlimit="79.8403193612775"/>
      <path d="M 394.645,321.705 L 394.645,321.172 L 395.568,321.172 L 395.568,321.705 L 394.645,321.705 Z" fill="#000000" stroke-width="0.069" marker-start="none" marker-end="none" stroke-miterlimit="79.8403193612775"/>
      <path d="M 398.392,321.72 L 398.392,321.187 L 399.315,321.187 L 399.315,321.72 L 398.392,321.72 Z" fill="#000000" stroke-width="0.069" marker-start="none" marker-end="none" stroke-miterlimit="79.8403193612775"/>
     </g>
     <g id="Group_3" fill-rule="nonzero" stroke="none" stroke-width="0.052" fill="#191919" stroke-miterlimit="79.8403193612775">
      <g id="Group_4">
       <path d="M 395.056,318.559 L 394.592,318.559 C 394.525,318.559 394.478,318.574 394.449,318.604 C 394.42,318.634 394.406,318.681 394.406,318.747 L 394.406,319.888 C 394.406,319.955 394.421,320.003 394.45,320.032 C 394.479,320.062 394.527,320.076 394.592,320.076 L 395.084,320.076 C 395.157,320.076 395.22,320.072 395.273,320.063 C 395.326,320.054 395.373,320.037 395.416,320.011 C 395.451,319.99 395.483,319.963 395.511,319.93 C 395.538,319.897 395.559,319.861 395.574,319.821 C 395.588,319.781 395.596,319.739 395.596,319.695 C 395.596,319.543 395.52,319.432 395.368,319.362 C 395.567,319.298 395.667,319.175 395.667,318.991 C 395.667,318.906 395.645,318.83 395.602,318.762 C 395.558,318.694 395.5,318.644 395.426,318.611 C 395.38,318.592 395.327,318.578 395.266,318.57 C 395.206,318.562 395.136,318.559 395.056,318.559 Z M 395.033,319.233 L 394.714,319.233 L 394.714,318.789 L 395.044,318.789 C 395.252,318.789 395.355,318.864 395.355,319.014 C 395.355,319.091 395.329,319.146 395.275,319.181 C 395.221,319.215 395.14,319.233 395.033,319.233 Z M 394.714,319.845 L 394.714,319.453 L 394.995,319.453 C 395.072,319.453 395.131,319.46 395.173,319.475 C 395.215,319.489 395.246,319.517 395.269,319.558 C 395.286,319.587 395.294,319.619 395.294,319.655 C 395.294,319.732 395.267,319.782 395.213,319.808 C 395.158,319.833 395.075,319.845 394.963,319.845 L 394.714,319.845 Z" marker-start="none" marker-end="none"/>
       <path d="M 396.824,318.73 L 396.752,318.921 L 396.135,318.921 L 396.062,318.726 C 396.034,318.65 396.01,318.599 395.99,318.572 C 395.97,318.546 395.937,318.533 395.891,318.533 C 395.853,318.533 395.819,318.547 395.789,318.575 C 395.759,318.603 395.744,318.635 395.744,318.671 C 395.744,318.692 395.748,318.713 395.755,318.736 C 395.762,318.758 395.773,318.788 395.789,318.828 L 396.177,319.813 C 396.188,319.842 396.202,319.876 396.217,319.915 C 396.233,319.955 396.249,319.988 396.267,320.014 C 396.284,320.04 396.307,320.062 396.336,320.078 C 396.365,320.094 396.4,320.102 396.442,320.102 C 396.485,320.102 396.521,320.094 396.549,320.078 C 396.578,320.062 396.601,320.041 396.619,320.015 C 396.636,319.99 396.651,319.962 396.663,319.933 C 396.675,319.904 396.691,319.864 396.709,319.815 L 397.106,318.836 C 397.137,318.761 397.152,318.707 397.152,318.673 C 397.152,318.638 397.138,318.606 397.108,318.577 C 397.079,318.547 397.044,318.533 397.002,318.533 C 396.978,318.533 396.958,318.537 396.94,318.546 C 396.923,318.554 396.909,318.566 396.897,318.581 C 396.885,318.596 396.872,318.618 396.859,318.649 C 396.846,318.68 396.834,318.707 396.824,318.73 Z M 396.216,319.152 L 396.669,319.152 L 396.44,319.778 L 396.216,319.152 Z" marker-start="none" marker-end="none"/>
       <path d="M 398.179,319.823 L 397.843,319.823 L 397.843,318.72 C 397.843,318.657 397.829,318.609 397.801,318.579 C 397.773,318.548 397.736,318.533 397.691,318.533 C 397.646,318.533 397.609,318.548 397.58,318.579 C 397.551,318.61 397.537,318.657 397.537,318.72 L 397.537,319.823 L 397.201,319.823 C 397.149,319.823 397.11,319.834 397.084,319.857 C 397.059,319.88 397.046,319.911 397.046,319.949 C 397.046,319.988 397.059,320.019 397.086,320.042 C 397.113,320.065 397.151,320.076 397.201,320.076 L 398.179,320.076 C 398.232,320.076 398.271,320.065 398.297,320.041 C 398.323,320.018 398.336,319.987 398.336,319.949 C 398.336,319.911 398.323,319.88 398.297,319.857 C 398.271,319.834 398.231,319.823 398.179,319.823 Z" marker-start="none" marker-end="none"/>
       <path d="M 399.505,319.823 L 399.169,319.823 L 399.169,318.72 C 399.169,318.657 399.155,318.609 399.127,318.579 C 399.099,318.548 399.062,318.533 399.017,318.533 C 398.972,318.533 398.935,318.548 398.906,318.579 C 398.877,318.61 398.863,318.657 398.863,318.72 L 398.863,319.823 L 398.527,319.823 C 398.475,319.823 398.436,319.834 398.41,319.857 C 398.385,319.88 398.372,319.911 398.372,319.949 C 398.372,319.988 398.385,320.019 398.412,320.042 C 398.439,320.065 398.477,320.076 398.527,320.076 L 399.505,320.076 C 399.558,320.076 399.597,320.065 399.623,320.041 C 399.649,320.018 399.662,319.987 399.662,319.949 C 399.662,319.911 399.649,319.88 399.623,319.857 C 399.597,319.834 399.557,319.823 399.505,319.823 Z" marker-start="none" marker-end="none"/>
      </g>
     </g>
     <g id="Group_5" fill-rule="nonzero" stroke="none" stroke-width="0.034" fill="#000000" stroke-miterlimit="79.8403193612775">
      <g id="Group_6">
       <path d="M 390.614,332.492 L 390.614,333.88 L 391.034,333.88 L 391.286,332.933 L 391.535,333.88 L 391.955,333.88 L 391.955,332.492 L 391.695,332.492 L 391.695,333.585 L 391.419,332.492 L 391.149,332.492 L 390.874,333.585 L 390.874,332.492 L 390.614,332.492 Z" marker-start="none" marker-end="none"/>
       <path d="M 393.487,332.492 L 393.182,332.492 L 393.061,332.807 L 392.506,332.807 L 392.391,332.492 L 392.094,332.492 L 392.634,333.88 L 392.931,333.88 L 393.487,332.492 Z M 392.971,333.041 L 392.779,333.556 L 392.592,333.041 L 392.971,333.041 Z" marker-start="none" marker-end="none"/>
       <path d="M 393.628,332.492 L 393.628,333.88 L 393.909,333.88 L 393.909,332.492 L 393.628,332.492 Z" marker-start="none" marker-end="none"/>
       <path d="M 394.179,332.492 L 394.179,333.88 L 394.451,333.88 L 395.02,332.953 L 395.02,333.88 L 395.28,333.88 L 395.28,332.492 L 394.999,332.492 L 394.439,333.397 L 394.439,332.492 L 394.179,332.492 Z" marker-start="none" marker-end="none"/>
       <path d="M 396.046,332.943 L 396.318,332.97 C 396.335,332.878 396.368,332.811 396.418,332.768 C 396.469,332.725 396.536,332.704 396.622,332.704 C 396.712,332.704 396.78,332.723 396.826,332.761 C 396.872,332.799 396.894,332.844 396.894,332.895 C 396.894,332.928 396.885,332.956 396.866,332.979 C 396.846,333.002 396.813,333.022 396.765,333.039 C 396.732,333.05 396.657,333.071 396.54,333.1 C 396.39,333.137 396.284,333.183 396.224,333.237 C 396.138,333.313 396.096,333.407 396.096,333.517 C 396.096,333.587 396.116,333.653 396.156,333.715 C 396.196,333.777 396.254,333.823 396.329,333.856 C 396.405,333.888 396.496,333.904 396.603,333.904 C 396.777,333.904 396.908,333.866 396.996,333.789 C 397.084,333.713 397.131,333.611 397.135,333.483 L 396.855,333.471 C 396.843,333.542 396.817,333.594 396.777,333.625 C 396.738,333.656 396.679,333.672 396.6,333.672 C 396.518,333.672 396.455,333.655 396.408,333.622 C 396.379,333.6 396.364,333.571 396.364,333.535 C 396.364,333.503 396.378,333.475 396.406,333.451 C 396.441,333.421 396.527,333.391 396.663,333.358 C 396.8,333.326 396.901,333.293 396.966,333.258 C 397.031,333.224 397.082,333.177 397.119,333.117 C 397.156,333.058 397.175,332.984 397.175,332.896 C 397.175,332.816 397.153,332.742 397.109,332.672 C 397.064,332.603 397.002,332.551 396.921,332.518 C 396.84,332.484 396.739,332.467 396.619,332.467 C 396.443,332.467 396.308,332.507 396.214,332.589 C 396.12,332.67 396.064,332.788 396.046,332.943 Z" marker-start="none" marker-end="none"/>
       <path d="M 397.609,332.492 L 397.277,333.88 L 397.564,333.88 L 397.774,332.926 L 398.027,333.88 L 398.361,333.88 L 398.604,332.91 L 398.818,333.88 L 399.1,333.88 L 398.763,332.492 L 398.465,332.492 L 398.188,333.53 L 397.913,332.492 L 397.609,332.492 Z" marker-start="none" marker-end="none"/>
       <path d="M 399.235,332.492 L 399.235,333.88 L 399.516,333.88 L 399.516,332.492 L 399.235,332.492 Z" marker-start="none" marker-end="none"/>
       <path d="M 400.095,332.492 L 400.095,333.645 L 399.683,333.645 L 399.683,333.88 L 400.787,333.88 L 400.787,333.645 L 400.376,333.645 L 400.376,332.492 L 400.095,332.492 Z" marker-start="none" marker-end="none"/>
       <path d="M 401.857,333.002 L 402.129,332.916 C 402.087,332.764 402.018,332.652 401.921,332.578 C 401.824,332.505 401.701,332.468 401.552,332.468 C 401.368,332.468 401.216,332.531 401.098,332.657 C 400.979,332.783 400.919,332.955 400.919,333.174 C 400.919,333.405 400.979,333.584 401.098,333.712 C 401.218,333.84 401.375,333.904 401.569,333.904 C 401.739,333.904 401.877,333.854 401.983,333.753 C 402.046,333.694 402.094,333.609 402.125,333.498 L 401.848,333.431 C 401.831,333.503 401.797,333.56 401.745,333.602 C 401.693,333.643 401.63,333.664 401.555,333.664 C 401.452,333.664 401.369,333.627 401.304,333.553 C 401.24,333.48 401.208,333.36 401.208,333.194 C 401.208,333.019 401.24,332.894 401.303,332.819 C 401.366,332.745 401.448,332.708 401.549,332.708 C 401.624,332.708 401.688,332.731 401.742,332.779 C 401.795,332.826 401.834,332.9 401.857,333.002 Z" marker-start="none" marker-end="none"/>
       <path d="M 402.372,332.492 L 402.372,333.88 L 402.652,333.88 L 402.652,333.334 L 403.201,333.334 L 403.201,333.88 L 403.482,333.88 L 403.482,332.492 L 403.201,332.492 L 403.201,333.099 L 402.652,333.099 L 402.652,332.492 L 402.372,332.492 Z" marker-start="none" marker-end="none"/>
      </g>
     </g>
    </g>
   </g>
  </g>
 </g>
</svg>
