<?xml version="1.0" standalone="no"?>
<!DOCTYPE svg PUBLIC "-//W3C//DTD SVG 1.1//EN" "http://www.w3.org/Graphics/SVG/1.1/DTD/svg11.dtd">
<!--Generator: Xara Xtreme (www.xara.com), SVG filter version: 1.0.0.13-->
<svg stroke-width="0.501" stroke-linejoin="bevel" fill-rule="evenodd" xmlns:xlink="http://www.w3.org/1999/xlink" xmlns="http://www.w3.org/2000/svg" version="1.1" overflow="visible" width="841.891pt" height="595.277pt" viewBox="0 0 841.891 595.277">
 <defs>
  <marker id="DefaultArrow2" markerUnits="strokeWidth" viewBox="0 0 1 1" markerWidth="1" markerHeight="1" overflow="visible" orient="auto">
   <!-- REF_ARROW_STRAIGHT (-2) -->
   <g transform="scale(0.0092592592)">
    <!-- 1/108 -->
    <path d="M -9 54 L -9 -54 L 117 0 z"/>
   </g>
  </marker>
  <marker id="DefaultArrow3" markerUnits="strokeWidth" viewBox="0 0 1 1" markerWidth="1" markerHeight="1" overflow="visible" orient="auto">
   <!-- REF_ARROW_ANGLED -->
   <g transform="scale(0.0092592592)">
    <path d="M -27 54 L -9 0 L -27 -54 L 135 0 z"/>
   </g>
  </marker>
  <marker id="DefaultArrow4" markerUnits="strokeWidth" viewBox="0 0 1 1" markerWidth="1" markerHeight="1" overflow="visible" orient="auto">
   <!-- REF_ARROW_ROUNDED -->
   <g transform="scale(0.0092592592)">
    <path d="M -9,0 L -9,-45 C -9,-51.708 2.808,-56.580 9,-54 L 117,-9 C 120.916,-7.369 126.000,-4.242 126,0 C 126,4.242 120.916,7.369 117,9 L 9,54 C 2.808,56.580 -9,51.708 -9,45 z"/>
   </g>
  </marker>
  <marker id="DefaultArrow5" markerUnits="strokeWidth" viewBox="0 0 1 1" markerWidth="1" markerHeight="1" overflow="visible" orient="auto">
   <!-- REF_ARROW_SPOT -->
   <g transform="scale(0.0092592592)">
    <path d="M -54, 0 C -54,29.807 -29.807,54 0,54 C 29.807,54 54,29.807 54,0 C 54,-29.807 29.807,-54 0,-54 C -29.807,-54 -54,-29.807 -54,0 z"/>
   </g>
  </marker>
  <marker id="DefaultArrow6" markerUnits="strokeWidth" viewBox="0 0 1 1" markerWidth="1" markerHeight="1" overflow="visible" orient="auto">
   <!-- REF_ARROW_DIAMOND -->
   <g transform="scale(0.0092592592)">
    <path d="M -63,0 L 0,63 L 63,0 L 0,-63 z"/>
   </g>
  </marker>
  <marker id="DefaultArrow7" markerUnits="strokeWidth" viewBox="0 0 1 1" markerWidth="1" markerHeight="1" overflow="visible" orient="auto">
   <!-- REF_ARROW_FEATHER -->
   <g transform="scale(0.0092592592)">
    <path d="M 18,-54 L 108,-54 L 63,0 L 108,54 L 18, 54 L -36,0 z"/>
   </g>
  </marker>
  <marker id="DefaultArrow8" markerUnits="strokeWidth" viewBox="0 0 1 1" markerWidth="1" markerHeight="1" overflow="visible" orient="auto">
   <!-- REF_ARROW_FEATHER2 -->
   <g transform="scale(0.0092592592)">
    <path d="M -36,0 L 18,-54 L 54,-54 L 18,-18 L 27,-18 L 63,-54 L 99,-54 L 63,-18 L 72,-18 L 108,-54 L 144,-54 L 90,0 L 144,54 L 108,54 L 72,18 L 63,18 L 99,54 L 63,54 L 27,18 L 18,18 L 54,54 L 18,54 z"/>
   </g>
  </marker>
  <marker id="DefaultArrow9" markerUnits="strokeWidth" viewBox="0 0 1 1" markerWidth="1" markerHeight="1" overflow="visible" orient="auto">
   <!-- REF_ARROW_HOLLOWDIAMOND -->
   <g transform="scale(0.0092592592)">
    <path d="M 0,45 L -45,0 L 0, -45 L 45, 0 z M 0, 63 L-63, 0 L 0, -63 L 63, 0 z"/>
   </g>
  </marker>
  <filter id="StainedFilter">
   <feBlend mode="multiply" in2="BackgroundImage" in="SourceGraphic" result="blend"/>
   <feComposite in="blend" in2="SourceAlpha" operator="in" result="comp"/>
  </filter>
  <filter id="BleachFilter">
   <feBlend mode="screen" in2="BackgroundImage" in="SourceGraphic" result="blend"/>
   <feComposite in="blend" in2="SourceAlpha" operator="in" result="comp"/>
  </filter>
  <filter id="InvertTransparencyBitmapFilter">
   <feComponentTransfer>
    <feFuncR type="gamma" amplitude="1.055" exponent=".416666666" offset="-0.055"/>
    <feFuncG type="gamma" amplitude="1.055" exponent=".416666666" offset="-0.055"/>
    <feFuncB type="gamma" amplitude="1.055" exponent=".416666666" offset="-0.055"/>
   </feComponentTransfer>
   <feComponentTransfer>
    <feFuncR type="linear" slope="-1" intercept="1"/>
    <feFuncG type="linear" slope="-1" intercept="1"/>
    <feFuncB type="linear" slope="-1" intercept="1"/>
    <feFuncA type="linear" slope="1" intercept="0"/>
   </feComponentTransfer>
   <feComponentTransfer>
    <feFuncR type="gamma" amplitude="1" exponent="2.4" offset="0"/>
    <feFuncG type="gamma" amplitude="1" exponent="2.4" offset="0"/>
    <feFuncB type="gamma" amplitude="1" exponent="2.4" offset="0"/>
   </feComponentTransfer>
  </filter>
 </defs>
 <g id="Document" fill="none" stroke="black" font-family="Times New Roman" font-size="16" transform="scale(1 -1)">
  <g id="Spread" transform="translate(0 -595.277)">
   <g id="Layer 1">
    <g id="Group" stroke="#333333">
     <path d="M 360.091,305.157 C 360.218,305.066 360.247,304.89 360.157,304.764 C 360.066,304.637 359.89,304.608 359.764,304.698 C 359.637,304.789 359.608,304.965 359.698,305.091 C 359.789,305.218 359.965,305.247 360.091,305.157 Z" stroke-width="0.01" fill="#999999" marker-start="none" marker-end="none" stroke-miterlimit="79.8403193612775"/>
     <path d="M 359.658,304.901 L 359.816,304.68 L 360.086,304.707 L 360.197,304.954 L 360.039,305.175 L 359.769,305.148 L 359.658,304.901 Z" fill="#b2b2b2" stroke-width="0.01" stroke-linejoin="miter" marker-start="none" marker-end="none" stroke-miterlimit="79.8403193612775"/>
     <path d="M 360.005,305.036 C 360.064,304.993 360.078,304.91 360.036,304.85 C 359.993,304.791 359.91,304.777 359.85,304.819 C 359.791,304.862 359.777,304.945 359.819,305.005 C 359.862,305.064 359.945,305.078 360.005,305.036 Z" fill="#999999" stroke-width="0.014" marker-start="none" marker-end="none" stroke-miterlimit="79.8403193612775"/>
    </g>
   </g>
  </g>
 </g>
</svg>
