<?xml version="1.0" standalone="no"?>
<!DOCTYPE svg PUBLIC "-//W3C//DTD SVG 1.1//EN" "http://www.w3.org/Graphics/SVG/1.1/DTD/svg11.dtd">
<!--Generator: Xara Xtreme (www.xara.com), SVG filter version: 1.0.0.13-->
<svg stroke-width="0.501" stroke-linejoin="bevel" fill-rule="evenodd" xmlns:xlink="http://www.w3.org/1999/xlink" xmlns="http://www.w3.org/2000/svg" version="1.1" overflow="visible" width="841.891pt" height="595.277pt" viewBox="0 0 841.891 595.277">
 <defs>
  <marker id="DefaultArrow2" markerUnits="strokeWidth" viewBox="0 0 1 1" markerWidth="1" markerHeight="1" overflow="visible" orient="auto">
   <!-- REF_ARROW_STRAIGHT (-2) -->
   <g transform="scale(0.0092592592)">
    <!-- 1/108 -->
    <path d="M -9 54 L -9 -54 L 117 0 z"/>
   </g>
  </marker>
  <marker id="DefaultArrow3" markerUnits="strokeWidth" viewBox="0 0 1 1" markerWidth="1" markerHeight="1" overflow="visible" orient="auto">
   <!-- REF_ARROW_ANGLED -->
   <g transform="scale(0.0092592592)">
    <path d="M -27 54 L -9 0 L -27 -54 L 135 0 z"/>
   </g>
  </marker>
  <marker id="DefaultArrow4" markerUnits="strokeWidth" viewBox="0 0 1 1" markerWidth="1" markerHeight="1" overflow="visible" orient="auto">
   <!-- REF_ARROW_ROUNDED -->
   <g transform="scale(0.0092592592)">
    <path d="M -9,0 L -9,-45 C -9,-51.708 2.808,-56.580 9,-54 L 117,-9 C 120.916,-7.369 126.000,-4.242 126,0 C 126,4.242 120.916,7.369 117,9 L 9,54 C 2.808,56.580 -9,51.708 -9,45 z"/>
   </g>
  </marker>
  <marker id="DefaultArrow5" markerUnits="strokeWidth" viewBox="0 0 1 1" markerWidth="1" markerHeight="1" overflow="visible" orient="auto">
   <!-- REF_ARROW_SPOT -->
   <g transform="scale(0.0092592592)">
    <path d="M -54, 0 C -54,29.807 -29.807,54 0,54 C 29.807,54 54,29.807 54,0 C 54,-29.807 29.807,-54 0,-54 C -29.807,-54 -54,-29.807 -54,0 z"/>
   </g>
  </marker>
  <marker id="DefaultArrow6" markerUnits="strokeWidth" viewBox="0 0 1 1" markerWidth="1" markerHeight="1" overflow="visible" orient="auto">
   <!-- REF_ARROW_DIAMOND -->
   <g transform="scale(0.0092592592)">
    <path d="M -63,0 L 0,63 L 63,0 L 0,-63 z"/>
   </g>
  </marker>
  <marker id="DefaultArrow7" markerUnits="strokeWidth" viewBox="0 0 1 1" markerWidth="1" markerHeight="1" overflow="visible" orient="auto">
   <!-- REF_ARROW_FEATHER -->
   <g transform="scale(0.0092592592)">
    <path d="M 18,-54 L 108,-54 L 63,0 L 108,54 L 18, 54 L -36,0 z"/>
   </g>
  </marker>
  <marker id="DefaultArrow8" markerUnits="strokeWidth" viewBox="0 0 1 1" markerWidth="1" markerHeight="1" overflow="visible" orient="auto">
   <!-- REF_ARROW_FEATHER2 -->
   <g transform="scale(0.0092592592)">
    <path d="M -36,0 L 18,-54 L 54,-54 L 18,-18 L 27,-18 L 63,-54 L 99,-54 L 63,-18 L 72,-18 L 108,-54 L 144,-54 L 90,0 L 144,54 L 108,54 L 72,18 L 63,18 L 99,54 L 63,54 L 27,18 L 18,18 L 54,54 L 18,54 z"/>
   </g>
  </marker>
  <marker id="DefaultArrow9" markerUnits="strokeWidth" viewBox="0 0 1 1" markerWidth="1" markerHeight="1" overflow="visible" orient="auto">
   <!-- REF_ARROW_HOLLOWDIAMOND -->
   <g transform="scale(0.0092592592)">
    <path d="M 0,45 L -45,0 L 0, -45 L 45, 0 z M 0, 63 L-63, 0 L 0, -63 L 63, 0 z"/>
   </g>
  </marker>
  <filter id="StainedFilter">
   <feBlend mode="multiply" in2="BackgroundImage" in="SourceGraphic" result="blend"/>
   <feComposite in="blend" in2="SourceAlpha" operator="in" result="comp"/>
  </filter>
  <filter id="BleachFilter">
   <feBlend mode="screen" in2="BackgroundImage" in="SourceGraphic" result="blend"/>
   <feComposite in="blend" in2="SourceAlpha" operator="in" result="comp"/>
  </filter>
  <filter id="InvertTransparencyBitmapFilter">
   <feComponentTransfer>
    <feFuncR type="gamma" amplitude="1.055" exponent=".416666666" offset="-0.055"/>
    <feFuncG type="gamma" amplitude="1.055" exponent=".416666666" offset="-0.055"/>
    <feFuncB type="gamma" amplitude="1.055" exponent=".416666666" offset="-0.055"/>
   </feComponentTransfer>
   <feComponentTransfer>
    <feFuncR type="linear" slope="-1" intercept="1"/>
    <feFuncG type="linear" slope="-1" intercept="1"/>
    <feFuncB type="linear" slope="-1" intercept="1"/>
    <feFuncA type="linear" slope="1" intercept="0"/>
   </feComponentTransfer>
   <feComponentTransfer>
    <feFuncR type="gamma" amplitude="1" exponent="2.4" offset="0"/>
    <feFuncG type="gamma" amplitude="1" exponent="2.4" offset="0"/>
    <feFuncB type="gamma" amplitude="1" exponent="2.4" offset="0"/>
   </feComponentTransfer>
  </filter>
 </defs>
 <g id="Document" fill="none" stroke="black" font-family="Times New Roman" font-size="16" transform="scale(1 -1)">
  <g id="Spread" transform="translate(0 -595.277)">
   <g id="Layer 1">
    <g id="Group">
     <path d="M 402.715,309.554 L 402.715,329.46 C 402.715,330.505 403.563,331.353 404.608,331.353 L 408.567,331.353 L 408.567,336.001 C 408.567,336.507 408.978,336.918 409.484,336.918 L 419.869,336.918 C 420.375,336.918 420.786,336.507 420.786,336.001 L 420.786,331.353 L 424.515,331.353 C 425.56,331.353 426.408,330.505 426.408,329.46 L 426.408,309.554 C 426.408,308.509 425.56,307.661 424.515,307.661 L 404.608,307.661 C 403.563,307.661 402.715,308.509 402.715,309.554 Z" fill="#999999" stroke-linejoin="miter" stroke-width="0.191" marker-start="none" marker-end="none" stroke-miterlimit="79.8403193612775"/>
     <g id="Group_1" fill-rule="nonzero" stroke="none" stroke-width="0.067" fill="#000000" stroke-miterlimit="79.8403193612775">
      <g id="Group_2">
       <path d="M 404.235,304.922 L 404.478,304.943 C 404.489,304.846 404.516,304.766 404.558,304.704 C 404.6,304.641 404.665,304.591 404.754,304.552 C 404.843,304.514 404.942,304.494 405.053,304.494 C 405.151,304.494 405.238,304.509 405.313,304.538 C 405.389,304.567 405.444,304.608 405.481,304.658 C 405.518,304.709 405.536,304.765 405.536,304.825 C 405.536,304.886 405.519,304.94 405.483,304.985 C 405.448,305.031 405.389,305.069 405.308,305.1 C 405.256,305.12 405.14,305.152 404.961,305.195 C 404.782,305.238 404.657,305.278 404.585,305.317 C 404.492,305.365 404.423,305.426 404.377,305.498 C 404.332,305.57 404.309,305.651 404.309,305.74 C 404.309,305.839 404.337,305.93 404.393,306.016 C 404.449,306.101 404.53,306.166 404.637,306.21 C 404.744,306.255 404.863,306.277 404.994,306.277 C 405.139,306.277 405.266,306.254 405.376,306.207 C 405.487,306.161 405.571,306.092 405.631,306.002 C 405.69,305.912 405.722,305.809 405.726,305.695 L 405.479,305.677 C 405.466,305.8 405.421,305.893 405.344,305.955 C 405.268,306.018 405.155,306.05 405.005,306.05 C 404.849,306.05 404.736,306.021 404.664,305.964 C 404.593,305.907 404.557,305.838 404.557,305.758 C 404.557,305.688 404.583,305.63 404.633,305.585 C 404.683,305.54 404.812,305.493 405.022,305.446 C 405.231,305.399 405.375,305.357 405.453,305.322 C 405.566,305.27 405.65,305.203 405.704,305.123 C 405.758,305.043 405.785,304.951 405.785,304.846 C 405.785,304.743 405.755,304.645 405.696,304.554 C 405.636,304.462 405.551,304.391 405.44,304.34 C 405.329,304.289 405.204,304.263 405.065,304.263 C 404.889,304.263 404.741,304.289 404.622,304.34 C 404.503,304.392 404.409,304.469 404.342,304.572 C 404.274,304.675 404.238,304.792 404.235,304.922 Z" marker-start="none" marker-end="none"/>
       <path d="M 406.145,304.297 L 406.145,306.244 L 406.403,306.244 L 406.403,305.444 L 407.415,305.444 L 407.415,306.244 L 407.673,306.244 L 407.673,304.297 L 407.415,304.297 L 407.415,305.214 L 406.403,305.214 L 406.403,304.297 L 406.145,304.297 Z" marker-start="none" marker-end="none"/>
       <path d="M 408.024,305.245 C 408.024,305.568 408.111,305.821 408.284,306.004 C 408.458,306.187 408.682,306.278 408.956,306.278 C 409.136,306.278 409.298,306.235 409.443,306.149 C 409.587,306.064 409.697,305.944 409.773,305.79 C 409.848,305.636 409.886,305.462 409.886,305.267 C 409.886,305.07 409.846,304.893 409.767,304.737 C 409.687,304.582 409.574,304.464 409.428,304.384 C 409.282,304.303 409.124,304.263 408.955,304.263 C 408.772,304.263 408.608,304.308 408.464,304.396 C 408.319,304.485 408.21,304.606 408.136,304.759 C 408.061,304.912 408.024,305.074 408.024,305.245 Z M 408.29,305.241 C 408.29,305.006 408.353,304.821 408.479,304.686 C 408.605,304.551 408.763,304.484 408.954,304.484 C 409.148,304.484 409.307,304.552 409.433,304.688 C 409.558,304.825 409.621,305.018 409.621,305.269 C 409.621,305.427 409.594,305.566 409.54,305.684 C 409.487,305.802 409.408,305.894 409.305,305.959 C 409.202,306.024 409.086,306.056 408.958,306.056 C 408.775,306.056 408.618,305.994 408.487,305.868 C 408.355,305.743 408.29,305.534 408.29,305.241 Z" marker-start="none" marker-end="none"/>
       <path d="M 410.222,304.297 L 410.222,306.244 L 411.086,306.244 C 411.259,306.244 411.391,306.226 411.481,306.191 C 411.572,306.156 411.644,306.094 411.698,306.006 C 411.752,305.917 411.779,305.82 411.779,305.712 C 411.779,305.574 411.734,305.458 411.645,305.363 C 411.555,305.268 411.417,305.208 411.23,305.182 C 411.299,305.15 411.35,305.117 411.386,305.085 C 411.461,305.016 411.532,304.93 411.6,304.826 L 411.938,304.297 L 411.614,304.297 L 411.357,304.702 C 411.281,304.818 411.219,304.908 411.171,304.97 C 411.122,305.032 411.078,305.075 411.04,305.1 C 411.001,305.125 410.962,305.142 410.922,305.152 C 410.893,305.158 410.845,305.161 410.779,305.161 L 410.48,305.161 L 410.48,304.297 L 410.222,304.297 Z M 410.48,305.384 L 411.034,305.384 C 411.152,305.384 411.244,305.396 411.31,305.421 C 411.377,305.445 411.427,305.484 411.462,305.538 C 411.496,305.591 411.513,305.65 411.513,305.712 C 411.513,305.804 411.48,305.88 411.413,305.94 C 411.346,305.999 411.241,306.029 411.096,306.029 L 410.48,306.029 L 410.48,305.384 Z" marker-start="none" marker-end="none"/>
       <path d="M 412.189,304.297 L 412.189,306.244 L 413.597,306.244 L 413.597,306.014 L 412.446,306.014 L 412.446,305.418 L 413.524,305.418 L 413.524,305.189 L 412.446,305.189 L 412.446,304.526 L 413.642,304.526 L 413.642,304.297 L 412.189,304.297 Z" marker-start="none" marker-end="none"/>
       <path d="M 414.754,304.297 L 414.754,306.244 L 415.489,306.244 C 415.618,306.244 415.717,306.237 415.785,306.225 C 415.881,306.209 415.961,306.179 416.025,306.134 C 416.09,306.089 416.142,306.027 416.182,305.946 C 416.221,305.866 416.241,305.777 416.241,305.681 C 416.241,305.515 416.188,305.375 416.083,305.26 C 415.977,305.145 415.787,305.088 415.511,305.088 L 415.012,305.088 L 415.012,304.297 L 414.754,304.297 Z M 415.012,305.318 L 415.515,305.318 C 415.682,305.318 415.8,305.349 415.87,305.411 C 415.94,305.473 415.975,305.56 415.975,305.673 C 415.975,305.754 415.954,305.824 415.913,305.882 C 415.872,305.94 415.818,305.978 415.751,305.997 C 415.707,306.008 415.627,306.014 415.51,306.014 L 415.012,306.014 L 415.012,305.318 Z" marker-start="none" marker-end="none"/>
       <path d="M 416.491,305.245 C 416.491,305.568 416.578,305.821 416.751,306.004 C 416.925,306.187 417.149,306.278 417.423,306.278 C 417.603,306.278 417.765,306.235 417.91,306.149 C 418.054,306.064 418.164,305.944 418.24,305.79 C 418.315,305.636 418.353,305.462 418.353,305.267 C 418.353,305.07 418.313,304.893 418.234,304.737 C 418.154,304.582 418.041,304.464 417.895,304.384 C 417.749,304.303 417.591,304.263 417.422,304.263 C 417.239,304.263 417.075,304.308 416.931,304.396 C 416.786,304.485 416.677,304.606 416.603,304.759 C 416.528,304.912 416.491,305.074 416.491,305.245 Z M 416.757,305.241 C 416.757,305.006 416.82,304.821 416.946,304.686 C 417.072,304.551 417.23,304.484 417.421,304.484 C 417.615,304.484 417.774,304.552 417.9,304.688 C 418.025,304.825 418.088,305.018 418.088,305.269 C 418.088,305.427 418.061,305.566 418.007,305.684 C 417.954,305.802 417.875,305.894 417.772,305.959 C 417.669,306.024 417.553,306.056 417.425,306.056 C 417.242,306.056 417.085,305.994 416.954,305.868 C 416.822,305.743 416.757,305.534 416.757,305.241 Z" marker-start="none" marker-end="none"/>
       <path d="M 419.025,304.297 L 418.509,306.244 L 418.773,306.244 L 419.069,304.967 C 419.101,304.834 419.129,304.701 419.152,304.569 C 419.201,304.777 419.23,304.897 419.239,304.929 L 419.61,306.244 L 419.921,306.244 L 420.2,305.258 C 420.269,305.014 420.32,304.784 420.351,304.569 C 420.376,304.692 420.408,304.833 420.448,304.992 L 420.753,306.244 L 421.012,306.244 L 420.478,304.297 L 420.23,304.297 L 419.82,305.78 C 419.785,305.904 419.765,305.98 419.759,306.009 C 419.738,305.919 419.719,305.843 419.701,305.78 L 419.288,304.297 L 419.025,304.297 Z" marker-start="none" marker-end="none"/>
       <path d="M 421.259,304.297 L 421.259,306.244 L 422.667,306.244 L 422.667,306.014 L 421.516,306.014 L 421.516,305.418 L 422.594,305.418 L 422.594,305.189 L 421.516,305.189 L 421.516,304.526 L 422.712,304.526 L 422.712,304.297 L 421.259,304.297 Z" marker-start="none" marker-end="none"/>
       <path d="M 423.072,304.297 L 423.072,306.244 L 423.936,306.244 C 424.109,306.244 424.241,306.226 424.331,306.191 C 424.422,306.156 424.494,306.094 424.548,306.006 C 424.602,305.917 424.629,305.82 424.629,305.712 C 424.629,305.574 424.584,305.458 424.495,305.363 C 424.405,305.268 424.267,305.208 424.08,305.182 C 424.149,305.15 424.2,305.117 424.236,305.085 C 424.311,305.016 424.382,304.93 424.45,304.826 L 424.788,304.297 L 424.464,304.297 L 424.207,304.702 C 424.131,304.818 424.069,304.908 424.021,304.97 C 423.972,305.032 423.928,305.075 423.89,305.1 C 423.851,305.125 423.812,305.142 423.772,305.152 C 423.743,305.158 423.695,305.161 423.629,305.161 L 423.33,305.161 L 423.33,304.297 L 423.072,304.297 Z M 423.33,305.384 L 423.884,305.384 C 424.002,305.384 424.094,305.396 424.16,305.421 C 424.227,305.445 424.277,305.484 424.312,305.538 C 424.346,305.591 424.363,305.65 424.363,305.712 C 424.363,305.804 424.33,305.88 424.263,305.94 C 424.196,305.999 424.091,306.029 423.946,306.029 L 423.33,306.029 L 423.33,305.384 Z" marker-start="none" marker-end="none"/>
      </g>
      <g id="Group_3">
       <path d="M 406.922,301.94 L 407.179,301.875 C 407.125,301.663 407.028,301.502 406.888,301.391 C 406.747,301.28 406.576,301.224 406.373,301.224 C 406.163,301.224 405.993,301.267 405.861,301.352 C 405.73,301.438 405.63,301.562 405.561,301.724 C 405.492,301.886 405.458,302.06 405.458,302.246 C 405.458,302.449 405.497,302.625 405.574,302.776 C 405.652,302.927 405.762,303.042 405.905,303.12 C 406.048,303.199 406.205,303.238 406.377,303.238 C 406.572,303.238 406.736,303.188 406.869,303.089 C 407.001,302.99 407.094,302.85 407.146,302.671 L 406.892,302.611 C 406.847,302.753 406.782,302.856 406.696,302.92 C 406.61,302.985 406.502,303.017 406.372,303.017 C 406.222,303.017 406.097,302.982 405.997,302.91 C 405.896,302.838 405.825,302.742 405.785,302.621 C 405.744,302.5 405.724,302.375 405.724,302.247 C 405.724,302.081 405.748,301.937 405.796,301.813 C 405.844,301.69 405.919,301.598 406.021,301.536 C 406.123,301.475 406.233,301.445 406.352,301.445 C 406.496,301.445 406.618,301.486 406.718,301.57 C 406.819,301.653 406.886,301.776 406.922,301.94 Z" marker-start="none" marker-end="none"/>
       <path d="M 407.419,302.206 C 407.419,302.529 407.506,302.782 407.679,302.965 C 407.853,303.148 408.077,303.239 408.351,303.239 C 408.531,303.239 408.693,303.196 408.838,303.11 C 408.982,303.025 409.092,302.905 409.168,302.751 C 409.243,302.597 409.281,302.423 409.281,302.228 C 409.281,302.031 409.241,301.854 409.162,301.698 C 409.082,301.543 408.969,301.425 408.823,301.345 C 408.677,301.264 408.519,301.224 408.35,301.224 C 408.167,301.224 408.003,301.269 407.859,301.357 C 407.714,301.446 407.605,301.567 407.531,301.72 C 407.456,301.873 407.419,302.035 407.419,302.206 Z M 407.685,302.202 C 407.685,301.967 407.748,301.782 407.874,301.647 C 408,301.512 408.158,301.445 408.349,301.445 C 408.543,301.445 408.702,301.513 408.828,301.649 C 408.953,301.786 409.016,301.979 409.016,302.23 C 409.016,302.388 408.989,302.527 408.935,302.645 C 408.882,302.763 408.803,302.855 408.7,302.92 C 408.597,302.985 408.481,303.017 408.353,303.017 C 408.17,303.017 408.013,302.955 407.882,302.829 C 407.75,302.704 407.685,302.495 407.685,302.202 Z" marker-start="none" marker-end="none"/>
       <path d="M 409.611,301.258 L 409.611,303.205 L 409.875,303.205 L 410.898,301.676 L 410.898,303.205 L 411.145,303.205 L 411.145,301.258 L 410.881,301.258 L 409.858,302.788 L 409.858,301.258 L 409.611,301.258 Z" marker-start="none" marker-end="none"/>
       <path d="M 411.576,301.258 L 411.576,303.205 L 411.84,303.205 L 412.863,301.676 L 412.863,303.205 L 413.11,303.205 L 413.11,301.258 L 412.846,301.258 L 411.823,302.788 L 411.823,301.258 L 411.576,301.258 Z" marker-start="none" marker-end="none"/>
       <path d="M 413.549,301.258 L 413.549,303.205 L 414.957,303.205 L 414.957,302.975 L 413.806,302.975 L 413.806,302.379 L 414.884,302.379 L 414.884,302.15 L 413.806,302.15 L 413.806,301.487 L 415.002,301.487 L 415.002,301.258 L 413.549,301.258 Z" marker-start="none" marker-end="none"/>
       <path d="M 416.748,301.94 L 417.005,301.875 C 416.951,301.663 416.854,301.502 416.714,301.391 C 416.573,301.28 416.402,301.224 416.199,301.224 C 415.989,301.224 415.819,301.267 415.687,301.352 C 415.556,301.438 415.456,301.562 415.387,301.724 C 415.318,301.886 415.284,302.06 415.284,302.246 C 415.284,302.449 415.323,302.625 415.4,302.776 C 415.478,302.927 415.588,303.042 415.731,303.12 C 415.874,303.199 416.031,303.238 416.203,303.238 C 416.398,303.238 416.562,303.188 416.695,303.089 C 416.827,302.99 416.92,302.85 416.972,302.671 L 416.718,302.611 C 416.673,302.753 416.608,302.856 416.522,302.92 C 416.436,302.985 416.328,303.017 416.198,303.017 C 416.048,303.017 415.923,302.982 415.823,302.91 C 415.722,302.838 415.651,302.742 415.611,302.621 C 415.57,302.5 415.55,302.375 415.55,302.247 C 415.55,302.081 415.574,301.937 415.622,301.813 C 415.67,301.69 415.745,301.598 415.847,301.536 C 415.949,301.475 416.059,301.445 416.178,301.445 C 416.322,301.445 416.444,301.486 416.544,301.57 C 416.645,301.653 416.712,301.776 416.748,301.94 Z" marker-start="none" marker-end="none"/>
       <path d="M 417.819,301.258 L 417.819,302.975 L 417.177,302.975 L 417.177,303.205 L 418.721,303.205 L 418.721,302.975 L 418.076,302.975 L 418.076,301.258 L 417.819,301.258 Z" marker-start="none" marker-end="none"/>
       <path d="M 419.029,301.258 L 419.029,303.205 L 419.287,303.205 L 419.287,301.258 L 419.029,301.258 Z" marker-start="none" marker-end="none"/>
       <path d="M 419.663,302.206 C 419.663,302.529 419.75,302.782 419.923,302.965 C 420.097,303.148 420.321,303.239 420.595,303.239 C 420.775,303.239 420.937,303.196 421.082,303.11 C 421.226,303.025 421.336,302.905 421.412,302.751 C 421.487,302.597 421.525,302.423 421.525,302.228 C 421.525,302.031 421.485,301.854 421.406,301.698 C 421.326,301.543 421.213,301.425 421.067,301.345 C 420.921,301.264 420.763,301.224 420.594,301.224 C 420.411,301.224 420.247,301.269 420.103,301.357 C 419.958,301.446 419.849,301.567 419.775,301.72 C 419.7,301.873 419.663,302.035 419.663,302.206 Z M 419.929,302.202 C 419.929,301.967 419.992,301.782 420.118,301.647 C 420.244,301.512 420.402,301.445 420.593,301.445 C 420.787,301.445 420.946,301.513 421.072,301.649 C 421.197,301.786 421.26,301.979 421.26,302.23 C 421.26,302.388 421.233,302.527 421.179,302.645 C 421.126,302.763 421.047,302.855 420.944,302.92 C 420.841,302.985 420.725,303.017 420.597,303.017 C 420.414,303.017 420.257,302.955 420.126,302.829 C 419.994,302.704 419.929,302.495 419.929,302.202 Z" marker-start="none" marker-end="none"/>
       <path d="M 421.855,301.258 L 421.855,303.205 L 422.119,303.205 L 423.142,301.676 L 423.142,303.205 L 423.389,303.205 L 423.389,301.258 L 423.125,301.258 L 422.102,302.788 L 422.102,301.258 L 421.855,301.258 Z" marker-start="none" marker-end="none"/>
      </g>
      <g id="Group_4">
       <path d="M 401.111,298.219 L 400.872,298.219 L 400.872,299.742 C 400.814,299.687 400.739,299.632 400.645,299.577 C 400.552,299.522 400.468,299.481 400.394,299.454 L 400.394,299.685 C 400.527,299.748 400.644,299.824 400.744,299.913 C 400.844,300.003 400.915,300.09 400.957,300.174 L 401.111,300.174 L 401.111,298.219 Z" marker-start="none" marker-end="none"/>
       <path d="M 402.98,298.448 L 402.98,298.219 L 401.693,298.219 C 401.691,298.276 401.7,298.331 401.721,298.385 C 401.754,298.472 401.806,298.559 401.878,298.644 C 401.95,298.729 402.055,298.827 402.191,298.938 C 402.403,299.112 402.546,299.249 402.62,299.351 C 402.694,299.452 402.732,299.548 402.732,299.638 C 402.732,299.733 402.698,299.813 402.63,299.878 C 402.562,299.943 402.474,299.976 402.365,299.976 C 402.25,299.976 402.158,299.941 402.089,299.872 C 402.02,299.803 401.985,299.707 401.984,299.585 L 401.738,299.61 C 401.755,299.794 401.818,299.933 401.928,300.03 C 402.038,300.126 402.185,300.174 402.37,300.174 C 402.557,300.174 402.705,300.122 402.814,300.018 C 402.923,299.915 402.977,299.786 402.977,299.633 C 402.977,299.555 402.961,299.479 402.929,299.403 C 402.898,299.328 402.845,299.249 402.771,299.166 C 402.697,299.082 402.574,298.968 402.402,298.823 C 402.259,298.702 402.167,298.621 402.126,298.578 C 402.085,298.535 402.051,298.492 402.025,298.448 L 402.98,298.448 Z" marker-start="none" marker-end="none"/>
       <path d="M 403.236,299.179 C 403.236,299.409 403.26,299.594 403.307,299.735 C 403.355,299.875 403.425,299.983 403.519,300.059 C 403.612,300.136 403.73,300.174 403.871,300.174 C 403.976,300.174 404.067,300.153 404.146,300.111 C 404.225,300.068 404.29,300.008 404.341,299.929 C 404.393,299.849 404.433,299.753 404.462,299.639 C 404.492,299.525 404.506,299.372 404.506,299.179 C 404.506,298.95 404.483,298.766 404.436,298.626 C 404.389,298.485 404.319,298.377 404.225,298.3 C 404.132,298.224 404.014,298.185 403.871,298.185 C 403.684,298.185 403.536,298.253 403.429,298.387 C 403.301,298.549 403.236,298.813 403.236,299.179 Z M 403.482,299.179 C 403.482,298.859 403.52,298.646 403.594,298.541 C 403.669,298.435 403.762,298.382 403.871,298.382 C 403.981,298.382 404.073,298.435 404.148,298.541 C 404.223,298.648 404.26,298.86 404.26,299.179 C 404.26,299.499 404.223,299.712 404.148,299.818 C 404.073,299.923 403.98,299.976 403.869,299.976 C 403.759,299.976 403.671,299.929 403.606,299.836 C 403.523,299.718 403.482,299.498 403.482,299.179 Z" marker-start="none" marker-end="none"/>
       <path d="M 405.403,298.219 L 404.648,300.166 L 404.927,300.166 L 405.433,298.751 C 405.474,298.638 405.508,298.532 405.536,298.432 C 405.566,298.539 405.601,298.645 405.641,298.751 L 406.167,300.166 L 406.43,300.166 L 405.667,298.219 L 405.403,298.219 Z" marker-start="none" marker-end="none"/>
       <path d="M 406.452,298.185 L 407.016,300.199 L 407.207,300.199 L 406.644,298.185 L 406.452,298.185 Z" marker-start="none" marker-end="none"/>
       <path d="M 408.577,298.448 L 408.577,298.219 L 407.29,298.219 C 407.288,298.276 407.297,298.331 407.318,298.385 C 407.351,298.472 407.403,298.559 407.475,298.644 C 407.547,298.729 407.652,298.827 407.788,298.938 C 408,299.112 408.143,299.249 408.217,299.351 C 408.291,299.452 408.329,299.548 408.329,299.638 C 408.329,299.733 408.295,299.813 408.227,299.878 C 408.159,299.943 408.071,299.976 407.962,299.976 C 407.847,299.976 407.755,299.941 407.686,299.872 C 407.617,299.803 407.582,299.707 407.581,299.585 L 407.335,299.61 C 407.352,299.794 407.415,299.933 407.525,300.03 C 407.635,300.126 407.782,300.174 407.967,300.174 C 408.154,300.174 408.302,300.122 408.411,300.018 C 408.52,299.915 408.574,299.786 408.574,299.633 C 408.574,299.555 408.558,299.479 408.526,299.403 C 408.495,299.328 408.442,299.249 408.368,299.166 C 408.294,299.082 408.171,298.968 407.999,298.823 C 407.856,298.702 407.764,298.621 407.723,298.578 C 407.682,298.535 407.648,298.492 407.622,298.448 L 408.577,298.448 Z" marker-start="none" marker-end="none"/>
       <path d="M 409.6,298.219 L 409.6,298.685 L 408.755,298.685 L 408.755,298.904 L 409.644,300.166 L 409.839,300.166 L 409.839,298.904 L 410.102,298.904 L 410.102,298.685 L 409.839,298.685 L 409.839,298.219 L 409.6,298.219 Z M 409.6,298.904 L 409.6,299.782 L 408.99,298.904 L 409.6,298.904 Z" marker-start="none" marker-end="none"/>
       <path d="M 410.346,299.179 C 410.346,299.409 410.37,299.594 410.417,299.735 C 410.465,299.875 410.535,299.983 410.629,300.059 C 410.722,300.136 410.84,300.174 410.981,300.174 C 411.086,300.174 411.177,300.153 411.256,300.111 C 411.335,300.068 411.4,300.008 411.451,299.929 C 411.503,299.849 411.543,299.753 411.572,299.639 C 411.602,299.525 411.616,299.372 411.616,299.179 C 411.616,298.95 411.593,298.766 411.546,298.626 C 411.499,298.485 411.429,298.377 411.335,298.3 C 411.242,298.224 411.124,298.185 410.981,298.185 C 410.794,298.185 410.646,298.253 410.539,298.387 C 410.411,298.549 410.346,298.813 410.346,299.179 Z M 410.592,299.179 C 410.592,298.859 410.63,298.646 410.704,298.541 C 410.779,298.435 410.872,298.382 410.981,298.382 C 411.091,298.382 411.183,298.435 411.258,298.541 C 411.333,298.648 411.37,298.86 411.37,299.179 C 411.37,299.499 411.333,299.712 411.258,299.818 C 411.183,299.923 411.09,299.976 410.979,299.976 C 410.869,299.976 410.781,299.929 410.716,299.836 C 410.633,299.718 410.592,299.498 410.592,299.179 Z" marker-start="none" marker-end="none"/>
       <path d="M 412.513,298.219 L 411.758,300.166 L 412.037,300.166 L 412.543,298.751 C 412.584,298.638 412.618,298.532 412.646,298.432 C 412.676,298.539 412.711,298.645 412.751,298.751 L 413.277,300.166 L 413.54,300.166 L 412.777,298.219 L 412.513,298.219 Z" marker-start="none" marker-end="none"/>
       <path d="M 413.562,298.185 L 414.126,300.199 L 414.317,300.199 L 413.754,298.185 L 413.562,298.185 Z" marker-start="none" marker-end="none"/>
       <path d="M 414.43,298.729 L 414.681,298.75 C 414.7,298.628 414.743,298.536 414.811,298.474 C 414.879,298.413 414.96,298.382 415.056,298.382 C 415.171,298.382 415.269,298.425 415.348,298.512 C 415.428,298.599 415.468,298.714 415.468,298.857 C 415.468,298.994 415.429,299.101 415.353,299.18 C 415.276,299.259 415.176,299.298 415.052,299.298 C 414.975,299.298 414.905,299.281 414.843,299.246 C 414.782,299.211 414.733,299.166 414.697,299.11 L 414.473,299.139 L 414.661,300.139 L 415.63,300.139 L 415.63,299.911 L 414.853,299.911 L 414.748,299.387 C 414.865,299.469 414.987,299.51 415.116,299.51 C 415.286,299.51 415.429,299.451 415.546,299.333 C 415.663,299.215 415.721,299.064 415.721,298.879 C 415.721,298.702 415.67,298.55 415.567,298.422 C 415.442,298.264 415.272,298.185 415.056,298.185 C 414.879,298.185 414.734,298.235 414.622,298.334 C 414.51,298.433 414.446,298.565 414.43,298.729 Z" marker-start="none" marker-end="none"/>
       <path d="M 415.943,299.179 C 415.943,299.409 415.967,299.594 416.014,299.735 C 416.062,299.875 416.132,299.983 416.226,300.059 C 416.319,300.136 416.437,300.174 416.578,300.174 C 416.683,300.174 416.774,300.153 416.853,300.111 C 416.932,300.068 416.997,300.008 417.048,299.929 C 417.1,299.849 417.14,299.753 417.169,299.639 C 417.199,299.525 417.213,299.372 417.213,299.179 C 417.213,298.95 417.19,298.766 417.143,298.626 C 417.096,298.485 417.026,298.377 416.932,298.3 C 416.839,298.224 416.721,298.185 416.578,298.185 C 416.391,298.185 416.243,298.253 416.136,298.387 C 416.008,298.549 415.943,298.813 415.943,299.179 Z M 416.189,299.179 C 416.189,298.859 416.227,298.646 416.301,298.541 C 416.376,298.435 416.469,298.382 416.578,298.382 C 416.688,298.382 416.78,298.435 416.855,298.541 C 416.93,298.648 416.967,298.86 416.967,299.179 C 416.967,299.499 416.93,299.712 416.855,299.818 C 416.78,299.923 416.687,299.976 416.576,299.976 C 416.466,299.976 416.378,299.929 416.313,299.836 C 416.23,299.718 416.189,299.498 416.189,299.179 Z" marker-start="none" marker-end="none"/>
       <path d="M 417.344,298.185 L 417.908,300.199 L 418.099,300.199 L 417.536,298.185 L 417.344,298.185 Z" marker-start="none" marker-end="none"/>
       <path d="M 419.453,299.689 L 419.215,299.67 C 419.194,299.764 419.164,299.832 419.125,299.875 C 419.06,299.943 418.981,299.977 418.886,299.977 C 418.81,299.977 418.743,299.956 418.685,299.913 C 418.61,299.858 418.551,299.778 418.507,299.673 C 418.464,299.568 418.441,299.417 418.44,299.223 C 418.497,299.31 418.567,299.375 418.651,299.418 C 418.734,299.46 418.821,299.482 418.912,299.482 C 419.072,299.482 419.207,299.423 419.319,299.306 C 419.431,299.188 419.487,299.037 419.487,298.851 C 419.487,298.729 419.461,298.615 419.408,298.51 C 419.356,298.405 419.283,298.325 419.191,298.269 C 419.099,298.213 418.995,298.185 418.878,298.185 C 418.679,298.185 418.516,298.259 418.39,298.405 C 418.265,298.552 418.202,298.793 418.202,299.13 C 418.202,299.506 418.271,299.78 418.41,299.951 C 418.532,300.099 418.695,300.174 418.9,300.174 C 419.054,300.174 419.179,300.131 419.277,300.045 C 419.375,299.959 419.433,299.84 419.453,299.689 Z M 418.477,298.849 C 418.477,298.767 418.494,298.688 418.529,298.613 C 418.564,298.538 418.613,298.48 418.676,298.441 C 418.739,298.402 418.805,298.382 418.874,298.382 C 418.975,298.382 419.062,298.423 419.134,298.504 C 419.207,298.586 419.243,298.696 419.243,298.836 C 419.243,298.971 419.207,299.077 419.136,299.154 C 419.064,299.232 418.973,299.27 418.865,299.27 C 418.757,299.27 418.665,299.232 418.59,299.154 C 418.514,299.077 418.477,298.975 418.477,298.849 Z" marker-start="none" marker-end="none"/>
       <path d="M 419.725,299.179 C 419.725,299.409 419.749,299.594 419.796,299.735 C 419.844,299.875 419.914,299.983 420.008,300.059 C 420.101,300.136 420.219,300.174 420.36,300.174 C 420.465,300.174 420.556,300.153 420.635,300.111 C 420.714,300.068 420.779,300.008 420.83,299.929 C 420.882,299.849 420.922,299.753 420.951,299.639 C 420.981,299.525 420.995,299.372 420.995,299.179 C 420.995,298.95 420.972,298.766 420.925,298.626 C 420.878,298.485 420.808,298.377 420.714,298.3 C 420.621,298.224 420.503,298.185 420.36,298.185 C 420.173,298.185 420.025,298.253 419.918,298.387 C 419.79,298.549 419.725,298.813 419.725,299.179 Z M 419.971,299.179 C 419.971,298.859 420.009,298.646 420.083,298.541 C 420.158,298.435 420.251,298.382 420.36,298.382 C 420.47,298.382 420.562,298.435 420.637,298.541 C 420.712,298.648 420.749,298.86 420.749,299.179 C 420.749,299.499 420.712,299.712 420.637,299.818 C 420.562,299.923 420.469,299.976 420.358,299.976 C 420.248,299.976 420.16,299.929 420.095,299.836 C 420.012,299.718 419.971,299.498 419.971,299.179 Z" marker-start="none" marker-end="none"/>
       <path d="M 421.343,298.219 L 421.343,300.166 L 421.601,300.166 L 421.601,299.366 L 422.613,299.366 L 422.613,300.166 L 422.871,300.166 L 422.871,298.219 L 422.613,298.219 L 422.613,299.136 L 421.601,299.136 L 421.601,298.219 L 421.343,298.219 Z" marker-start="none" marker-end="none"/>
       <path d="M 423.144,298.219 L 423.144,298.412 L 424.042,299.443 C 423.94,299.438 423.85,299.435 423.772,299.435 L 423.197,299.435 L 423.197,299.629 L 424.35,299.629 L 424.35,299.471 L 423.586,298.576 L 423.438,298.412 C 423.546,298.42 423.646,298.424 423.74,298.424 L 424.392,298.424 L 424.392,298.219 L 423.144,298.219 Z" marker-start="none" marker-end="none"/>
       <path d="M 425.055,298.219 L 425.802,300.166 L 426.08,300.166 L 426.877,298.219 L 426.583,298.219 L 426.356,298.808 L 425.542,298.808 L 425.328,298.219 L 425.055,298.219 Z M 425.616,299.018 L 426.276,299.018 L 426.073,299.557 C 426.011,299.721 425.965,299.856 425.935,299.961 C 425.91,299.836 425.875,299.712 425.83,299.589 L 425.616,299.018 Z" marker-start="none" marker-end="none"/>
       <path d="M 428.473,298.901 L 428.73,298.836 C 428.676,298.624 428.579,298.463 428.439,298.352 C 428.298,298.241 428.127,298.185 427.924,298.185 C 427.714,298.185 427.544,298.228 427.412,298.313 C 427.281,298.399 427.181,298.523 427.112,298.685 C 427.043,298.847 427.009,299.021 427.009,299.207 C 427.009,299.41 427.048,299.586 427.125,299.737 C 427.203,299.888 427.313,300.003 427.456,300.081 C 427.599,300.16 427.756,300.199 427.928,300.199 C 428.123,300.199 428.287,300.149 428.42,300.05 C 428.552,299.951 428.645,299.811 428.697,299.632 L 428.443,299.572 C 428.398,299.714 428.333,299.817 428.247,299.881 C 428.161,299.946 428.053,299.978 427.923,299.978 C 427.773,299.978 427.648,299.943 427.548,299.871 C 427.447,299.799 427.376,299.703 427.336,299.582 C 427.295,299.461 427.275,299.336 427.275,299.208 C 427.275,299.042 427.299,298.898 427.347,298.774 C 427.395,298.651 427.47,298.559 427.572,298.497 C 427.674,298.436 427.784,298.406 427.903,298.406 C 428.047,298.406 428.169,298.447 428.269,298.531 C 428.37,298.614 428.437,298.737 428.473,298.901 Z" marker-start="none" marker-end="none"/>
      </g>
     </g>
     <path d="M 413.068,307.994 L 411.735,309.418 C 410.9,309.658 410.108,310.001 409.375,310.433 L 407.62,310.264 L 407.175,312.171 C 406.583,312.786 406.066,313.475 405.641,314.223 L 404.037,314.954 L 404.603,316.821 C 404.406,317.613 404.302,318.443 404.302,319.296 C 404.302,319.321 404.302,319.347 404.302,319.372 L 403.279,320.808 L 404.701,322.14 C 404.942,322.975 405.285,323.767 405.717,324.501 L 405.549,326.256 L 407.454,326.7 C 408.07,327.293 408.759,327.81 409.508,328.236 L 410.239,329.839 L 412.104,329.273 C 412.897,329.47 413.727,329.574 414.58,329.574 C 414.606,329.574 414.631,329.574 414.657,329.574 L 416.092,330.597 L 417.424,329.175 C 418.26,328.935 419.052,328.591 419.786,328.158 L 421.54,328.327 L 421.984,326.422 C 422.577,325.806 423.094,325.116 423.52,324.368 L 425.123,323.637 L 424.557,321.772 C 424.754,320.979 424.858,320.149 424.858,319.296 C 424.858,319.27 424.858,319.245 424.858,319.219 L 425.881,317.784 L 424.459,316.451 C 424.218,315.616 423.875,314.824 423.442,314.09 L 423.611,312.336 L 421.705,311.891 C 421.089,311.298 420.4,310.782 419.653,310.356 L 418.921,308.753 L 417.055,309.318 C 416.262,309.122 415.433,309.018 414.58,309.018 C 414.555,309.018 414.53,309.018 414.504,309.018 L 413.068,307.994 Z" stroke="#333333" stroke-width="0.764" fill="#b2b2b2" marker-start="none" marker-end="none" stroke-miterlimit="79.8403193612775"/>
     <path d="M 408.604,332.074 L 420.791,332.074" fill="none" stroke-width="0.191" stroke-miterlimit="79.8403193612775"/>
     <path d="M 414.58,328.686 C 419.762,328.686 423.97,324.478 423.97,319.296 C 423.97,314.113 419.762,309.905 414.58,309.905 C 409.397,309.905 405.189,314.113 405.189,319.296 C 405.189,324.478 409.397,328.686 414.58,328.686 Z" stroke-width="0.234" fill="#666666" marker-start="none" marker-end="none" stroke-miterlimit="79.8403193612775"/>
     <path d="M 410.901,336.787 L 410.901,317.21 L 418.288,317.21 L 418.288,336.787 L 410.901,336.787 Z" stroke="#333333" stroke-width="0.382" fill="#7f7f7f" stroke-linejoin="miter" marker-start="none" marker-end="none" stroke-miterlimit="79.8403193612775"/>
     <path d="M 405.055,310.842 C 405.659,310.842 406.149,310.352 406.149,309.748 C 406.149,309.143 405.659,308.653 405.055,308.653 C 404.45,308.653 403.96,309.143 403.96,309.748 C 403.96,310.352 404.45,310.842 405.055,310.842 Z" fill="#666666" stroke-width="0.095" marker-start="none" marker-end="none" stroke-miterlimit="79.8403193612775"/>
     <path d="M 424.144,310.962 C 424.748,310.962 425.238,310.472 425.238,309.868 C 425.238,309.263 424.748,308.773 424.144,308.773 C 423.539,308.773 423.049,309.263 423.049,309.868 C 423.049,310.472 423.539,310.962 424.144,310.962 Z" fill="#666666" stroke-width="0.095" marker-start="none" marker-end="none" stroke-miterlimit="79.8403193612775"/>
     <path d="M 423.853,329.746 C 424.457,329.746 424.947,329.256 424.947,328.652 C 424.947,328.047 424.457,327.557 423.853,327.557 C 423.248,327.557 422.758,328.047 422.758,328.652 C 422.758,329.256 423.248,329.746 423.853,329.746 Z" fill="#666666" stroke-width="0.095" marker-start="none" marker-end="none" stroke-miterlimit="79.8403193612775"/>
     <path d="M 405.213,329.678 C 405.817,329.678 406.307,329.188 406.307,328.584 C 406.307,327.979 405.817,327.489 405.213,327.489 C 404.608,327.489 404.118,327.979 404.118,328.584 C 404.118,329.188 404.608,329.678 405.213,329.678 Z" fill="#666666" stroke-width="0.095" marker-start="none" marker-end="none" stroke-miterlimit="79.8403193612775"/>
     <path d="M 414.607,320.499 C 415.211,320.499 415.701,320.009 415.701,319.405 C 415.701,318.8 415.211,318.31 414.607,318.31 C 414.002,318.31 413.512,318.8 413.512,319.405 C 413.512,320.009 414.002,320.499 414.607,320.499 Z" fill="#666666" stroke-width="0.095" marker-start="none" marker-end="none" stroke-miterlimit="79.8403193612775"/>
    </g>
   </g>
  </g>
 </g>
</svg>
