<?xml version="1.0" standalone="no"?>
<!DOCTYPE svg PUBLIC "-//W3C//DTD SVG 1.1//EN" "http://www.w3.org/Graphics/SVG/1.1/DTD/svg11.dtd">
<!--Generator: Xara Xtreme (www.xara.com), SVG filter version: 1.0.0.13-->
<svg stroke-width="0.501" stroke-linejoin="bevel" fill-rule="evenodd" xmlns:xlink="http://www.w3.org/1999/xlink" xmlns="http://www.w3.org/2000/svg" version="1.1" overflow="visible" width="841.891pt" height="595.277pt" viewBox="0 0 841.891 595.277">
 <defs>
  <marker id="DefaultArrow2" markerUnits="strokeWidth" viewBox="0 0 1 1" markerWidth="1" markerHeight="1" overflow="visible" orient="auto">
   <!-- REF_ARROW_STRAIGHT (-2) -->
   <g transform="scale(0.0092592592)">
    <!-- 1/108 -->
    <path d="M -9 54 L -9 -54 L 117 0 z"/>
   </g>
  </marker>
  <marker id="DefaultArrow3" markerUnits="strokeWidth" viewBox="0 0 1 1" markerWidth="1" markerHeight="1" overflow="visible" orient="auto">
   <!-- REF_ARROW_ANGLED -->
   <g transform="scale(0.0092592592)">
    <path d="M -27 54 L -9 0 L -27 -54 L 135 0 z"/>
   </g>
  </marker>
  <marker id="DefaultArrow4" markerUnits="strokeWidth" viewBox="0 0 1 1" markerWidth="1" markerHeight="1" overflow="visible" orient="auto">
   <!-- REF_ARROW_ROUNDED -->
   <g transform="scale(0.0092592592)">
    <path d="M -9,0 L -9,-45 C -9,-51.708 2.808,-56.580 9,-54 L 117,-9 C 120.916,-7.369 126.000,-4.242 126,0 C 126,4.242 120.916,7.369 117,9 L 9,54 C 2.808,56.580 -9,51.708 -9,45 z"/>
   </g>
  </marker>
  <marker id="DefaultArrow5" markerUnits="strokeWidth" viewBox="0 0 1 1" markerWidth="1" markerHeight="1" overflow="visible" orient="auto">
   <!-- REF_ARROW_SPOT -->
   <g transform="scale(0.0092592592)">
    <path d="M -54, 0 C -54,29.807 -29.807,54 0,54 C 29.807,54 54,29.807 54,0 C 54,-29.807 29.807,-54 0,-54 C -29.807,-54 -54,-29.807 -54,0 z"/>
   </g>
  </marker>
  <marker id="DefaultArrow6" markerUnits="strokeWidth" viewBox="0 0 1 1" markerWidth="1" markerHeight="1" overflow="visible" orient="auto">
   <!-- REF_ARROW_DIAMOND -->
   <g transform="scale(0.0092592592)">
    <path d="M -63,0 L 0,63 L 63,0 L 0,-63 z"/>
   </g>
  </marker>
  <marker id="DefaultArrow7" markerUnits="strokeWidth" viewBox="0 0 1 1" markerWidth="1" markerHeight="1" overflow="visible" orient="auto">
   <!-- REF_ARROW_FEATHER -->
   <g transform="scale(0.0092592592)">
    <path d="M 18,-54 L 108,-54 L 63,0 L 108,54 L 18, 54 L -36,0 z"/>
   </g>
  </marker>
  <marker id="DefaultArrow8" markerUnits="strokeWidth" viewBox="0 0 1 1" markerWidth="1" markerHeight="1" overflow="visible" orient="auto">
   <!-- REF_ARROW_FEATHER2 -->
   <g transform="scale(0.0092592592)">
    <path d="M -36,0 L 18,-54 L 54,-54 L 18,-18 L 27,-18 L 63,-54 L 99,-54 L 63,-18 L 72,-18 L 108,-54 L 144,-54 L 90,0 L 144,54 L 108,54 L 72,18 L 63,18 L 99,54 L 63,54 L 27,18 L 18,18 L 54,54 L 18,54 z"/>
   </g>
  </marker>
  <marker id="DefaultArrow9" markerUnits="strokeWidth" viewBox="0 0 1 1" markerWidth="1" markerHeight="1" overflow="visible" orient="auto">
   <!-- REF_ARROW_HOLLOWDIAMOND -->
   <g transform="scale(0.0092592592)">
    <path d="M 0,45 L -45,0 L 0, -45 L 45, 0 z M 0, 63 L-63, 0 L 0, -63 L 63, 0 z"/>
   </g>
  </marker>
  <filter id="StainedFilter">
   <feBlend mode="multiply" in2="BackgroundImage" in="SourceGraphic" result="blend"/>
   <feComposite in="blend" in2="SourceAlpha" operator="in" result="comp"/>
  </filter>
  <filter id="BleachFilter">
   <feBlend mode="screen" in2="BackgroundImage" in="SourceGraphic" result="blend"/>
   <feComposite in="blend" in2="SourceAlpha" operator="in" result="comp"/>
  </filter>
  <filter id="InvertTransparencyBitmapFilter">
   <feComponentTransfer>
    <feFuncR type="gamma" amplitude="1.055" exponent=".416666666" offset="-0.055"/>
    <feFuncG type="gamma" amplitude="1.055" exponent=".416666666" offset="-0.055"/>
    <feFuncB type="gamma" amplitude="1.055" exponent=".416666666" offset="-0.055"/>
   </feComponentTransfer>
   <feComponentTransfer>
    <feFuncR type="linear" slope="-1" intercept="1"/>
    <feFuncG type="linear" slope="-1" intercept="1"/>
    <feFuncB type="linear" slope="-1" intercept="1"/>
    <feFuncA type="linear" slope="1" intercept="0"/>
   </feComponentTransfer>
   <feComponentTransfer>
    <feFuncR type="gamma" amplitude="1" exponent="2.4" offset="0"/>
    <feFuncG type="gamma" amplitude="1" exponent="2.4" offset="0"/>
    <feFuncB type="gamma" amplitude="1" exponent="2.4" offset="0"/>
   </feComponentTransfer>
  </filter>
 </defs>
 <g id="Document" fill="none" stroke="black" font-family="Times New Roman" font-size="16" transform="scale(1 -1)">
  <g id="Spread" transform="translate(0 -595.277)">
   <g id="Layer 1">
    <g id="Group">
     <path d="M 352.626,339.322 L 352.626,270.611 C 352.626,267.924 354.807,265.743 357.494,265.743 L 489.267,265.743 C 491.953,265.743 494.134,267.924 494.134,270.611 L 494.134,339.322 C 494.134,342.009 491.953,344.19 489.267,344.19 L 357.494,344.19 C 354.807,344.19 352.626,342.009 352.626,339.322 Z" fill="#000000" stroke-width="0.223" marker-start="none" marker-end="none" stroke-miterlimit="79.8403193612775"/>
     <path d="M 354.54,342.349 L 354.54,267.702 L 492.286,267.702 L 492.286,342.349 L 354.54,342.349 Z" fill="#333333" stroke-width="0.223" stroke-linejoin="miter" marker-start="none" marker-end="none" stroke-miterlimit="79.8403193612775"/>
     <path d="M 355.66,337.526 L 355.66,315.123 L 378.063,315.123 L 378.063,337.526 L 355.66,337.526 Z" stroke="none" fill="#0003ff" stroke-width="0.223" stroke-linejoin="miter" marker-start="none" marker-end="none" stroke-miterlimit="79.8403193612775"/>
     <path d="M 366.861,330.885 C 369.378,330.885 371.421,328.842 371.421,326.325 C 371.421,323.807 369.378,321.764 366.861,321.764 C 364.343,321.764 362.3,323.807 362.3,326.325 C 362.3,328.842 364.343,330.885 366.861,330.885 Z" stroke="#666666" stroke-width="0.893" fill="#b2b2b2" marker-start="none" marker-end="none" stroke-miterlimit="79.8403193612775"/>
     <path d="M 468.917,337.458 L 468.917,315.055 L 491.32,315.055 L 491.32,337.458 L 468.917,337.458 Z" fill="#ff0000" stroke="none" stroke-width="0.223" stroke-linejoin="miter" marker-start="none" marker-end="none" stroke-miterlimit="79.8403193612775"/>
     <path d="M 480.119,330.817 C 482.636,330.817 484.679,328.774 484.679,326.257 C 484.679,323.739 482.636,321.696 480.119,321.696 C 477.601,321.696 475.558,323.739 475.558,326.257 C 475.558,328.774 477.601,330.817 480.119,330.817 Z" stroke="#666666" stroke-width="0.893" fill="#b2b2b2" marker-start="none" marker-end="none" stroke-miterlimit="79.8403193612775"/>
     <g id="Group_1" fill-rule="nonzero" stroke="none" stroke-width="0.111" fill="#ffffff" stroke-miterlimit="79.8403193612775">
      <g id="Group_2">
       <path d="M 369.79,333.305 L 369.79,334.727 L 376.377,334.727 L 376.377,333.305 L 369.79,333.305 Z" marker-start="none" marker-end="none"/>
      </g>
     </g>
     <g id="Group_3" fill-rule="nonzero" stroke="none" stroke-width="0.111" fill="#ffffff" stroke-miterlimit="79.8403193612775">
      <g id="Group_4">
       <path d="M 473.317,328.881 L 473.317,332.039 L 470.182,332.039 L 470.182,333.359 L 473.317,333.359 L 473.317,336.494 L 474.653,336.494 L 474.653,333.359 L 477.787,333.359 L 477.787,332.039 L 474.653,332.039 L 474.653,328.881 L 473.317,328.881 Z" marker-start="none" marker-end="none"/>
      </g>
     </g>
     <g id="Group_5" fill-rule="nonzero" stroke="none" stroke-width="0.208" fill="#ffffff" stroke-miterlimit="79.8403193612775">
      <g id="Group_6">
       <path d="M 405.751,328.129 L 405.016,328.129 L 405.016,332.81 C 404.839,332.642 404.607,332.473 404.32,332.304 C 404.033,332.135 403.775,332.009 403.547,331.925 L 403.547,332.635 C 403.958,332.828 404.317,333.062 404.624,333.337 C 404.932,333.612 405.15,333.878 405.277,334.137 L 405.751,334.137 L 405.751,328.129 Z" marker-start="none" marker-end="none"/>
       <path d="M 411.494,328.835 L 411.494,328.129 L 407.539,328.129 C 407.533,328.305 407.562,328.475 407.624,328.639 C 407.725,328.908 407.886,329.173 408.108,329.435 C 408.33,329.696 408.65,329.998 409.069,330.341 C 409.72,330.874 410.159,331.297 410.388,331.608 C 410.616,331.92 410.731,332.214 410.731,332.492 C 410.731,332.783 410.626,333.029 410.418,333.229 C 410.21,333.429 409.939,333.529 409.604,333.529 C 409.25,333.529 408.967,333.423 408.755,333.21 C 408.543,332.998 408.435,332.704 408.432,332.329 L 407.677,332.406 C 407.729,332.969 407.924,333.399 408.261,333.694 C 408.599,333.989 409.052,334.137 409.62,334.137 C 410.194,334.137 410.649,333.978 410.984,333.659 C 411.318,333.341 411.486,332.946 411.486,332.476 C 411.486,332.236 411.437,332.001 411.339,331.769 C 411.241,331.538 411.078,331.295 410.851,331.039 C 410.624,330.783 410.246,330.432 409.718,329.986 C 409.277,329.616 408.994,329.365 408.869,329.233 C 408.744,329.101 408.641,328.968 408.559,328.835 L 411.494,328.835 Z" marker-start="none" marker-end="none"/>
       <path d="M 414.29,328.129 L 411.971,334.112 L 412.828,334.112 L 414.384,329.765 C 414.509,329.417 414.614,329.09 414.698,328.786 C 414.79,329.112 414.898,329.439 415.02,329.765 L 416.637,334.112 L 417.445,334.112 L 415.102,328.129 L 414.29,328.129 Z" marker-start="none" marker-end="none"/>
       <path d="M 417.316,329.925 L 417.316,330.663 L 419.573,330.663 L 419.573,329.925 L 417.316,329.925 Z" marker-start="none" marker-end="none"/>
       <path d="M 422.949,328.129 L 422.214,328.129 L 422.214,332.81 C 422.037,332.642 421.805,332.473 421.518,332.304 C 421.231,332.135 420.973,332.009 420.745,331.925 L 420.745,332.635 C 421.156,332.828 421.515,333.062 421.822,333.337 C 422.13,333.612 422.348,333.878 422.475,334.137 L 422.949,334.137 L 422.949,328.129 Z" marker-start="none" marker-end="none"/>
       <path d="M 428.692,328.835 L 428.692,328.129 L 424.737,328.129 C 424.731,328.305 424.76,328.475 424.822,328.639 C 424.923,328.908 425.084,329.173 425.306,329.435 C 425.528,329.696 425.848,329.998 426.267,330.341 C 426.918,330.874 427.357,331.297 427.586,331.608 C 427.814,331.92 427.929,332.214 427.929,332.492 C 427.929,332.783 427.824,333.029 427.616,333.229 C 427.408,333.429 427.137,333.529 426.802,333.529 C 426.448,333.529 426.165,333.423 425.953,333.21 C 425.741,332.998 425.633,332.704 425.63,332.329 L 424.875,332.406 C 424.927,332.969 425.122,333.399 425.459,333.694 C 425.797,333.989 426.25,334.137 426.818,334.137 C 427.392,334.137 427.847,333.978 428.182,333.659 C 428.516,333.341 428.684,332.946 428.684,332.476 C 428.684,332.236 428.635,332.001 428.537,331.769 C 428.439,331.538 428.276,331.295 428.049,331.039 C 427.822,330.783 427.444,330.432 426.916,329.986 C 426.475,329.616 426.192,329.365 426.067,329.233 C 425.942,329.101 425.839,328.968 425.757,328.835 L 428.692,328.835 Z" marker-start="none" marker-end="none"/>
       <path d="M 429.479,329.696 L 430.251,329.761 C 430.308,329.386 430.441,329.103 430.649,328.914 C 430.857,328.725 431.108,328.631 431.402,328.631 C 431.756,328.631 432.055,328.764 432.3,329.031 C 432.545,329.297 432.667,329.651 432.667,330.092 C 432.667,330.511 432.55,330.842 432.314,331.084 C 432.079,331.326 431.771,331.447 431.39,331.447 C 431.153,331.447 430.939,331.393 430.749,331.286 C 430.558,331.178 430.409,331.039 430.3,330.867 L 429.61,330.957 L 430.19,334.031 L 433.165,334.031 L 433.165,333.329 L 430.777,333.329 L 430.455,331.721 C 430.814,331.971 431.191,332.096 431.586,332.096 C 432.108,332.096 432.549,331.915 432.908,331.553 C 433.267,331.191 433.447,330.726 433.447,330.157 C 433.447,329.616 433.289,329.148 432.973,328.753 C 432.59,328.269 432.066,328.026 431.402,328.026 C 430.858,328.026 430.413,328.179 430.069,328.484 C 429.725,328.788 429.528,329.192 429.479,329.696 Z" marker-start="none" marker-end="none"/>
       <path d="M 433.769,328.129 L 436.067,334.112 L 436.92,334.112 L 439.369,328.129 L 438.467,328.129 L 437.769,329.941 L 435.267,329.941 L 434.61,328.129 L 433.769,328.129 Z M 435.496,330.586 L 437.524,330.586 L 436.9,332.243 C 436.71,332.746 436.568,333.16 436.475,333.484 C 436.399,333.1 436.292,332.719 436.153,332.341 L 435.496,330.586 Z" marker-start="none" marker-end="none"/>
       <path d="M 439.909,328.129 L 439.909,334.112 L 440.643,334.112 L 440.643,331.965 C 440.986,332.363 441.419,332.561 441.941,332.561 C 442.262,332.561 442.541,332.498 442.778,332.372 C 443.015,332.245 443.184,332.07 443.286,331.847 C 443.388,331.624 443.439,331.3 443.439,330.876 L 443.439,328.129 L 442.705,328.129 L 442.705,330.876 C 442.705,331.243 442.625,331.51 442.466,331.678 C 442.307,331.845 442.081,331.929 441.79,331.929 C 441.573,331.929 441.368,331.872 441.176,331.759 C 440.984,331.646 440.847,331.493 440.766,331.3 C 440.684,331.107 440.643,330.84 440.643,330.5 L 440.643,328.129 L 439.909,328.129 Z" marker-start="none" marker-end="none"/>
      </g>
      <g id="Group_7">
       <path d="M 397.793,320.083 L 398.519,320.198 C 398.56,319.907 398.674,319.683 398.86,319.528 C 399.046,319.373 399.307,319.296 399.642,319.296 C 399.979,319.296 400.229,319.364 400.393,319.502 C 400.556,319.639 400.638,319.8 400.638,319.985 C 400.638,320.152 400.566,320.282 400.421,320.377 C 400.321,320.443 400.07,320.526 399.67,320.626 C 399.131,320.762 398.758,320.88 398.55,320.979 C 398.342,321.079 398.184,321.216 398.076,321.392 C 397.969,321.567 397.915,321.761 397.915,321.973 C 397.915,322.167 397.959,322.345 398.048,322.51 C 398.136,322.675 398.257,322.811 398.409,322.92 C 398.523,323.005 398.679,323.076 398.876,323.135 C 399.074,323.193 399.285,323.222 399.511,323.222 C 399.851,323.222 400.15,323.173 400.407,323.075 C 400.664,322.977 400.854,322.845 400.976,322.677 C 401.099,322.51 401.183,322.286 401.229,322.006 L 400.511,321.908 C 400.479,322.131 400.384,322.305 400.227,322.43 C 400.071,322.556 399.85,322.618 399.564,322.618 C 399.227,322.618 398.986,322.562 398.842,322.451 C 398.697,322.339 398.625,322.209 398.625,322.059 C 398.625,321.964 398.655,321.878 398.715,321.802 C 398.775,321.723 398.869,321.658 398.997,321.606 C 399.07,321.579 399.287,321.516 399.646,321.418 C 400.166,321.279 400.528,321.166 400.734,321.077 C 400.939,320.989 401.1,320.86 401.217,320.692 C 401.334,320.523 401.393,320.313 401.393,320.063 C 401.393,319.818 401.321,319.587 401.178,319.371 C 401.036,319.155 400.83,318.988 400.56,318.869 C 400.291,318.751 399.986,318.692 399.646,318.692 C 399.083,318.692 398.653,318.809 398.358,319.043 C 398.063,319.277 397.874,319.624 397.793,320.083 Z" marker-start="none" marker-end="none"/>
       <path d="M 403.871,319.447 L 403.977,318.798 C 403.77,318.754 403.585,318.732 403.422,318.732 C 403.155,318.732 402.948,318.775 402.801,318.859 C 402.654,318.943 402.551,319.054 402.491,319.192 C 402.431,319.329 402.401,319.618 402.401,320.059 L 402.401,322.553 L 401.862,322.553 L 401.862,323.124 L 402.401,323.124 L 402.401,324.198 L 403.132,324.639 L 403.132,323.124 L 403.871,323.124 L 403.871,322.553 L 403.132,322.553 L 403.132,320.018 C 403.132,319.809 403.145,319.674 403.171,319.614 C 403.197,319.554 403.239,319.507 403.297,319.471 C 403.356,319.436 403.439,319.418 403.548,319.418 C 403.63,319.418 403.737,319.428 403.871,319.447 Z" marker-start="none" marker-end="none"/>
       <path d="M 407.418,319.324 C 407.146,319.093 406.884,318.93 406.632,318.834 C 406.381,318.739 406.111,318.692 405.822,318.692 C 405.346,318.692 404.98,318.808 404.724,319.041 C 404.468,319.273 404.34,319.57 404.341,319.932 C 404.34,320.145 404.389,320.339 404.486,320.514 C 404.582,320.69 404.709,320.83 404.865,320.936 C 405.022,321.043 405.198,321.123 405.394,321.177 C 405.538,321.215 405.756,321.252 406.047,321.288 C 406.64,321.358 407.077,321.443 407.357,321.541 C 407.36,321.641 407.361,321.705 407.361,321.733 C 407.361,322.032 407.292,322.243 407.153,322.365 C 406.965,322.531 406.686,322.614 406.316,322.614 C 405.971,322.614 405.716,322.554 405.551,322.432 C 405.386,322.311 405.264,322.097 405.185,321.79 L 404.467,321.888 C 404.532,322.195 404.64,322.443 404.79,322.633 C 404.939,322.822 405.156,322.967 405.439,323.069 C 405.722,323.171 406.05,323.222 406.422,323.222 C 406.792,323.222 407.093,323.179 407.324,323.092 C 407.556,323.005 407.726,322.895 407.835,322.763 C 407.943,322.631 408.02,322.465 408.063,322.263 C 408.088,322.138 408.1,321.912 408.1,321.586 L 408.1,320.606 C 408.1,319.923 408.115,319.491 408.147,319.31 C 408.178,319.129 408.24,318.956 408.332,318.79 L 407.565,318.79 C 407.489,318.942 407.44,319.12 407.418,319.324 Z M 407.357,320.965 C 407.09,320.856 406.69,320.764 406.157,320.688 C 405.855,320.644 405.641,320.595 405.516,320.541 C 405.391,320.486 405.294,320.407 405.226,320.302 C 405.158,320.197 405.124,320.081 405.124,319.953 C 405.124,319.757 405.198,319.594 405.347,319.463 C 405.495,319.332 405.712,319.267 405.998,319.267 C 406.281,319.267 406.533,319.329 406.753,319.453 C 406.973,319.577 407.135,319.746 407.239,319.961 C 407.318,320.127 407.357,320.372 407.357,320.696 L 407.357,320.965 Z" marker-start="none" marker-end="none"/>
       <path d="M 409.23,318.79 L 409.23,323.124 L 409.892,323.124 L 409.892,322.467 C 410.06,322.775 410.216,322.977 410.359,323.075 C 410.502,323.173 410.659,323.222 410.83,323.222 C 411.078,323.222 411.33,323.143 411.586,322.986 L 411.332,322.304 C 411.153,322.41 410.973,322.463 410.794,322.463 C 410.633,322.463 410.489,322.415 410.361,322.318 C 410.233,322.222 410.142,322.088 410.088,321.916 C 410.006,321.655 409.965,321.369 409.965,321.059 L 409.965,318.79 L 409.23,318.79 Z" marker-start="none" marker-end="none"/>
       <path d="M 413.627,319.447 L 413.733,318.798 C 413.526,318.754 413.341,318.732 413.178,318.732 C 412.911,318.732 412.704,318.775 412.557,318.859 C 412.41,318.943 412.307,319.054 412.247,319.192 C 412.187,319.329 412.157,319.618 412.157,320.059 L 412.157,322.553 L 411.618,322.553 L 411.618,323.124 L 412.157,323.124 L 412.157,324.198 L 412.888,324.639 L 412.888,323.124 L 413.627,323.124 L 413.627,322.553 L 412.888,322.553 L 412.888,320.018 C 412.888,319.809 412.901,319.674 412.927,319.614 C 412.953,319.554 412.995,319.507 413.053,319.471 C 413.112,319.436 413.195,319.418 413.304,319.418 C 413.386,319.418 413.493,319.428 413.627,319.447 Z" marker-start="none" marker-end="none"/>
       <path d="M 417.313,320.185 L 418.072,320.092 C 417.952,319.648 417.731,319.304 417.407,319.059 C 417.083,318.814 416.669,318.692 416.166,318.692 C 415.532,318.692 415.029,318.887 414.658,319.277 C 414.286,319.668 414.101,320.215 414.101,320.92 C 414.101,321.649 414.288,322.216 414.664,322.618 C 415.039,323.021 415.527,323.222 416.125,323.222 C 416.705,323.222 417.178,323.025 417.546,322.63 C 417.913,322.236 418.097,321.681 418.097,320.965 C 418.097,320.922 418.095,320.856 418.093,320.769 L 414.86,320.769 C 414.887,320.293 415.022,319.928 415.264,319.675 C 415.506,319.422 415.808,319.296 416.17,319.296 C 416.439,319.296 416.669,319.366 416.86,319.508 C 417.05,319.649 417.201,319.875 417.313,320.185 Z M 414.901,321.373 L 417.321,321.373 C 417.289,321.738 417.196,322.011 417.044,322.194 C 416.81,322.477 416.506,322.618 416.133,322.618 C 415.796,322.618 415.512,322.505 415.282,322.279 C 415.052,322.054 414.925,321.752 414.901,321.373 Z" marker-start="none" marker-end="none"/>
       <path d="M 418.986,318.79 L 418.986,323.124 L 419.648,323.124 L 419.648,322.467 C 419.816,322.775 419.972,322.977 420.115,323.075 C 420.258,323.173 420.415,323.222 420.586,323.222 C 420.834,323.222 421.086,323.143 421.342,322.986 L 421.088,322.304 C 420.909,322.41 420.729,322.463 420.55,322.463 C 420.389,322.463 420.245,322.415 420.117,322.318 C 419.989,322.222 419.898,322.088 419.844,321.916 C 419.762,321.655 419.721,321.369 419.721,321.059 L 419.721,318.79 L 418.986,318.79 Z" marker-start="none" marker-end="none"/>
       <path d="M 424.779,318.79 L 424.097,318.79 L 424.097,324.773 L 424.832,324.773 L 424.832,322.639 C 425.142,323.028 425.538,323.222 426.02,323.222 C 426.287,323.222 426.539,323.169 426.777,323.061 C 427.015,322.954 427.211,322.803 427.365,322.608 C 427.519,322.413 427.639,322.179 427.726,321.904 C 427.813,321.629 427.857,321.335 427.857,321.022 C 427.857,320.279 427.673,319.705 427.306,319.3 C 426.938,318.894 426.497,318.692 425.983,318.692 C 425.472,318.692 425.07,318.905 424.779,319.332 L 424.779,318.79 Z M 424.771,320.99 C 424.771,320.47 424.842,320.094 424.983,319.863 C 425.215,319.485 425.528,319.296 425.922,319.296 C 426.243,319.296 426.521,319.435 426.755,319.714 C 426.989,319.993 427.106,320.409 427.106,320.961 C 427.106,321.527 426.993,321.945 426.769,322.214 C 426.544,322.483 426.273,322.618 425.955,322.618 C 425.634,322.618 425.356,322.479 425.122,322.2 C 424.888,321.921 424.771,321.517 424.771,320.99 Z" marker-start="none" marker-end="none"/>
       <path d="M 431.579,319.324 C 431.307,319.093 431.045,318.93 430.793,318.834 C 430.542,318.739 430.272,318.692 429.983,318.692 C 429.507,318.692 429.141,318.808 428.885,319.041 C 428.629,319.273 428.501,319.57 428.502,319.932 C 428.501,320.145 428.55,320.339 428.647,320.514 C 428.743,320.69 428.87,320.83 429.026,320.936 C 429.183,321.043 429.359,321.123 429.555,321.177 C 429.699,321.215 429.917,321.252 430.208,321.288 C 430.801,321.358 431.238,321.443 431.518,321.541 C 431.521,321.641 431.522,321.705 431.522,321.733 C 431.522,322.032 431.453,322.243 431.314,322.365 C 431.126,322.531 430.847,322.614 430.477,322.614 C 430.132,322.614 429.877,322.554 429.712,322.432 C 429.547,322.311 429.425,322.097 429.346,321.79 L 428.628,321.888 C 428.693,322.195 428.801,322.443 428.951,322.633 C 429.1,322.822 429.317,322.967 429.6,323.069 C 429.883,323.171 430.211,323.222 430.583,323.222 C 430.953,323.222 431.254,323.179 431.485,323.092 C 431.717,323.005 431.887,322.895 431.996,322.763 C 432.104,322.631 432.181,322.465 432.224,322.263 C 432.249,322.138 432.261,321.912 432.261,321.586 L 432.261,320.606 C 432.261,319.923 432.276,319.491 432.308,319.31 C 432.339,319.129 432.401,318.956 432.493,318.79 L 431.726,318.79 C 431.65,318.942 431.601,319.12 431.579,319.324 Z M 431.518,320.965 C 431.251,320.856 430.851,320.764 430.318,320.688 C 430.016,320.644 429.802,320.595 429.677,320.541 C 429.552,320.486 429.455,320.407 429.387,320.302 C 429.319,320.197 429.285,320.081 429.285,319.953 C 429.285,319.757 429.359,319.594 429.508,319.463 C 429.656,319.332 429.873,319.267 430.159,319.267 C 430.442,319.267 430.694,319.329 430.914,319.453 C 431.134,319.577 431.296,319.746 431.4,319.961 C 431.479,320.127 431.518,320.372 431.518,320.696 L 431.518,320.965 Z" marker-start="none" marker-end="none"/>
       <path d="M 435.004,319.447 L 435.11,318.798 C 434.903,318.754 434.718,318.732 434.555,318.732 C 434.288,318.732 434.081,318.775 433.934,318.859 C 433.787,318.943 433.684,319.054 433.624,319.192 C 433.564,319.329 433.534,319.618 433.534,320.059 L 433.534,322.553 L 432.995,322.553 L 432.995,323.124 L 433.534,323.124 L 433.534,324.198 L 434.265,324.639 L 434.265,323.124 L 435.004,323.124 L 435.004,322.553 L 434.265,322.553 L 434.265,320.018 C 434.265,319.809 434.278,319.674 434.304,319.614 C 434.33,319.554 434.372,319.507 434.43,319.471 C 434.489,319.436 434.572,319.418 434.681,319.418 C 434.763,319.418 434.87,319.428 435.004,319.447 Z" marker-start="none" marker-end="none"/>
       <path d="M 437.327,319.447 L 437.433,318.798 C 437.226,318.754 437.041,318.732 436.878,318.732 C 436.611,318.732 436.404,318.775 436.257,318.859 C 436.11,318.943 436.007,319.054 435.947,319.192 C 435.887,319.329 435.857,319.618 435.857,320.059 L 435.857,322.553 L 435.318,322.553 L 435.318,323.124 L 435.857,323.124 L 435.857,324.198 L 436.588,324.639 L 436.588,323.124 L 437.327,323.124 L 437.327,322.553 L 436.588,322.553 L 436.588,320.018 C 436.588,319.809 436.601,319.674 436.627,319.614 C 436.653,319.554 436.695,319.507 436.753,319.471 C 436.812,319.436 436.895,319.418 437.004,319.418 C 437.086,319.418 437.193,319.428 437.327,319.447 Z" marker-start="none" marker-end="none"/>
       <path d="M 441.013,320.185 L 441.772,320.092 C 441.652,319.648 441.431,319.304 441.107,319.059 C 440.783,318.814 440.369,318.692 439.866,318.692 C 439.232,318.692 438.729,318.887 438.358,319.277 C 437.986,319.668 437.801,320.215 437.801,320.92 C 437.801,321.649 437.988,322.216 438.364,322.618 C 438.739,323.021 439.227,323.222 439.825,323.222 C 440.405,323.222 440.878,323.025 441.246,322.63 C 441.613,322.236 441.797,321.681 441.797,320.965 C 441.797,320.922 441.795,320.856 441.793,320.769 L 438.56,320.769 C 438.587,320.293 438.722,319.928 438.964,319.675 C 439.206,319.422 439.508,319.296 439.87,319.296 C 440.139,319.296 440.369,319.366 440.56,319.508 C 440.75,319.649 440.901,319.875 441.013,320.185 Z M 438.601,321.373 L 441.021,321.373 C 440.989,321.738 440.896,322.011 440.744,322.194 C 440.51,322.477 440.206,322.618 439.833,322.618 C 439.496,322.618 439.212,322.505 438.982,322.279 C 438.752,322.054 438.625,321.752 438.601,321.373 Z" marker-start="none" marker-end="none"/>
       <path d="M 442.686,318.79 L 442.686,323.124 L 443.348,323.124 L 443.348,322.467 C 443.516,322.775 443.672,322.977 443.815,323.075 C 443.958,323.173 444.115,323.222 444.286,323.222 C 444.534,323.222 444.786,323.143 445.042,322.986 L 444.788,322.304 C 444.609,322.41 444.429,322.463 444.25,322.463 C 444.089,322.463 443.945,322.415 443.817,322.318 C 443.689,322.222 443.598,322.088 443.544,321.916 C 443.462,321.655 443.421,321.369 443.421,321.059 L 443.421,318.79 L 442.686,318.79 Z" marker-start="none" marker-end="none"/>
       <path d="M 445.446,317.12 L 445.364,317.81 C 445.525,317.766 445.665,317.745 445.785,317.745 C 445.948,317.745 446.079,317.772 446.177,317.826 C 446.275,317.881 446.355,317.957 446.417,318.055 C 446.464,318.128 446.538,318.311 446.642,318.602 C 446.655,318.643 446.677,318.702 446.707,318.781 L 445.062,323.124 L 445.854,323.124 L 446.756,320.614 C 446.873,320.296 446.978,319.961 447.07,319.61 C 447.155,319.947 447.256,320.277 447.373,320.598 L 448.299,323.124 L 449.034,323.124 L 447.385,318.716 C 447.208,318.24 447.07,317.912 446.972,317.732 C 446.842,317.49 446.692,317.313 446.523,317.2 C 446.355,317.087 446.153,317.03 445.919,317.03 C 445.778,317.03 445.62,317.06 445.446,317.12 Z" marker-start="none" marker-end="none"/>
      </g>
     </g>
     <path d="M 362.965,310.735 L 362.965,299.315 C 362.965,298.073 363.974,297.063 365.217,297.063 L 481.61,297.063 C 482.853,297.063 483.862,298.073 483.862,299.315 L 483.862,310.735 C 483.862,311.978 482.853,312.987 481.61,312.987 L 365.217,312.987 C 363.974,312.987 362.965,311.978 362.965,310.735 Z" stroke-width="0.893" marker-start="none" marker-end="none" stroke-miterlimit="79.8403193612775"/>
    </g>
   </g>
  </g>
 </g>
</svg>
