<?xml version="1.0" standalone="no"?>
<!DOCTYPE svg PUBLIC "-//W3C//DTD SVG 1.1//EN" "http://www.w3.org/Graphics/SVG/1.1/DTD/svg11.dtd">
<!--Generator: Xara Xtreme (www.xara.com), SVG filter version: 1.0.0.13-->
<svg stroke-width="0.501" stroke-linejoin="bevel" fill-rule="evenodd" xmlns:xlink="http://www.w3.org/1999/xlink" xmlns="http://www.w3.org/2000/svg" version="1.1" overflow="visible" width="841.891pt" height="595.277pt" viewBox="0 0 841.891 595.277">
 <defs>
  <marker id="DefaultArrow2" markerUnits="strokeWidth" viewBox="0 0 1 1" markerWidth="1" markerHeight="1" overflow="visible" orient="auto">
   <!-- REF_ARROW_STRAIGHT (-2) -->
   <g transform="scale(0.0092592592)">
    <!-- 1/108 -->
    <path d="M -9 54 L -9 -54 L 117 0 z"/>
   </g>
  </marker>
  <marker id="DefaultArrow3" markerUnits="strokeWidth" viewBox="0 0 1 1" markerWidth="1" markerHeight="1" overflow="visible" orient="auto">
   <!-- REF_ARROW_ANGLED -->
   <g transform="scale(0.0092592592)">
    <path d="M -27 54 L -9 0 L -27 -54 L 135 0 z"/>
   </g>
  </marker>
  <marker id="DefaultArrow4" markerUnits="strokeWidth" viewBox="0 0 1 1" markerWidth="1" markerHeight="1" overflow="visible" orient="auto">
   <!-- REF_ARROW_ROUNDED -->
   <g transform="scale(0.0092592592)">
    <path d="M -9,0 L -9,-45 C -9,-51.708 2.808,-56.580 9,-54 L 117,-9 C 120.916,-7.369 126.000,-4.242 126,0 C 126,4.242 120.916,7.369 117,9 L 9,54 C 2.808,56.580 -9,51.708 -9,45 z"/>
   </g>
  </marker>
  <marker id="DefaultArrow5" markerUnits="strokeWidth" viewBox="0 0 1 1" markerWidth="1" markerHeight="1" overflow="visible" orient="auto">
   <!-- REF_ARROW_SPOT -->
   <g transform="scale(0.0092592592)">
    <path d="M -54, 0 C -54,29.807 -29.807,54 0,54 C 29.807,54 54,29.807 54,0 C 54,-29.807 29.807,-54 0,-54 C -29.807,-54 -54,-29.807 -54,0 z"/>
   </g>
  </marker>
  <marker id="DefaultArrow6" markerUnits="strokeWidth" viewBox="0 0 1 1" markerWidth="1" markerHeight="1" overflow="visible" orient="auto">
   <!-- REF_ARROW_DIAMOND -->
   <g transform="scale(0.0092592592)">
    <path d="M -63,0 L 0,63 L 63,0 L 0,-63 z"/>
   </g>
  </marker>
  <marker id="DefaultArrow7" markerUnits="strokeWidth" viewBox="0 0 1 1" markerWidth="1" markerHeight="1" overflow="visible" orient="auto">
   <!-- REF_ARROW_FEATHER -->
   <g transform="scale(0.0092592592)">
    <path d="M 18,-54 L 108,-54 L 63,0 L 108,54 L 18, 54 L -36,0 z"/>
   </g>
  </marker>
  <marker id="DefaultArrow8" markerUnits="strokeWidth" viewBox="0 0 1 1" markerWidth="1" markerHeight="1" overflow="visible" orient="auto">
   <!-- REF_ARROW_FEATHER2 -->
   <g transform="scale(0.0092592592)">
    <path d="M -36,0 L 18,-54 L 54,-54 L 18,-18 L 27,-18 L 63,-54 L 99,-54 L 63,-18 L 72,-18 L 108,-54 L 144,-54 L 90,0 L 144,54 L 108,54 L 72,18 L 63,18 L 99,54 L 63,54 L 27,18 L 18,18 L 54,54 L 18,54 z"/>
   </g>
  </marker>
  <marker id="DefaultArrow9" markerUnits="strokeWidth" viewBox="0 0 1 1" markerWidth="1" markerHeight="1" overflow="visible" orient="auto">
   <!-- REF_ARROW_HOLLOWDIAMOND -->
   <g transform="scale(0.0092592592)">
    <path d="M 0,45 L -45,0 L 0, -45 L 45, 0 z M 0, 63 L-63, 0 L 0, -63 L 63, 0 z"/>
   </g>
  </marker>
  <filter id="StainedFilter">
   <feBlend mode="multiply" in2="BackgroundImage" in="SourceGraphic" result="blend"/>
   <feComposite in="blend" in2="SourceAlpha" operator="in" result="comp"/>
  </filter>
  <filter id="BleachFilter">
   <feBlend mode="screen" in2="BackgroundImage" in="SourceGraphic" result="blend"/>
   <feComposite in="blend" in2="SourceAlpha" operator="in" result="comp"/>
  </filter>
  <filter id="InvertTransparencyBitmapFilter">
   <feComponentTransfer>
    <feFuncR type="gamma" amplitude="1.055" exponent=".416666666" offset="-0.055"/>
    <feFuncG type="gamma" amplitude="1.055" exponent=".416666666" offset="-0.055"/>
    <feFuncB type="gamma" amplitude="1.055" exponent=".416666666" offset="-0.055"/>
   </feComponentTransfer>
   <feComponentTransfer>
    <feFuncR type="linear" slope="-1" intercept="1"/>
    <feFuncG type="linear" slope="-1" intercept="1"/>
    <feFuncB type="linear" slope="-1" intercept="1"/>
    <feFuncA type="linear" slope="1" intercept="0"/>
   </feComponentTransfer>
   <feComponentTransfer>
    <feFuncR type="gamma" amplitude="1" exponent="2.4" offset="0"/>
    <feFuncG type="gamma" amplitude="1" exponent="2.4" offset="0"/>
    <feFuncB type="gamma" amplitude="1" exponent="2.4" offset="0"/>
   </feComponentTransfer>
  </filter>
 </defs>
 <g id="Document" fill="none" stroke="black" font-family="Times New Roman" font-size="16" transform="scale(1 -1)">
  <g id="Spread" transform="translate(0 -595.277)">
   <g id="Layer 1">
    <g id="Group">
     <path d="M 469.464,318.696 L 469.464,289.672 L 519.889,289.672 L 519.889,318.696 L 469.464,318.696 Z" fill="#cccccc" stroke-width="1.311" marker-start="none" marker-end="none" stroke-miterlimit="79.8403193612775"/>
     <path d="M 469.464,357.378 L 469.464,330.404 L 504.788,330.404 L 504.788,357.378 L 469.464,357.378 Z" fill="#b2b2b2" stroke-width="1.311" marker-start="none" marker-end="none" stroke-miterlimit="79.8403193612775"/>
     <path d="M 437.641,310.393 L 437.641,297.975 L 444.093,297.975 L 444.093,310.393 L 437.641,310.393 Z" fill="#b2b2b2" stroke-width="1.311" marker-start="none" marker-end="none" stroke-miterlimit="79.8403193612775"/>
     <path d="M 437.639,299.807 L 444.096,299.807" fill="none" stroke-width="1.311" stroke-miterlimit="79.8403193612775"/>
     <path d="M 437.639,302.221 L 444.096,302.221" fill="none" stroke-width="1.311" stroke-miterlimit="79.8403193612775"/>
     <g id="Group_1" fill-rule="nonzero" stroke="none" stroke-width="0.163" fill="#000000" stroke-miterlimit="79.8403193612775">
      <g id="Group_2">
       <path d="M 477.461,349.666 L 478.358,349.759 C 478.383,349.556 478.459,349.395 478.585,349.277 C 478.711,349.158 478.856,349.099 479.021,349.099 C 479.208,349.099 479.368,349.175 479.498,349.328 C 479.628,349.481 479.693,349.711 479.693,350.018 C 479.693,350.306 479.629,350.523 479.499,350.667 C 479.37,350.811 479.202,350.883 478.995,350.883 C 478.737,350.883 478.505,350.769 478.3,350.54 L 477.57,350.646 L 478.031,353.089 L 480.41,353.089 L 480.41,352.247 L 478.713,352.247 L 478.572,351.45 C 478.773,351.55 478.978,351.6 479.187,351.6 C 479.586,351.6 479.925,351.455 480.202,351.165 C 480.48,350.874 480.619,350.497 480.619,350.034 C 480.619,349.648 480.507,349.303 480.282,349 C 479.977,348.585 479.553,348.378 479.011,348.378 C 478.578,348.378 478.224,348.495 477.951,348.728 C 477.678,348.96 477.514,349.273 477.461,349.666 Z" marker-start="none" marker-end="none"/>
       <path d="M 482.617,353.173 C 483.072,353.173 483.428,353.01 483.684,352.686 C 483.989,352.302 484.142,351.664 484.142,350.774 C 484.142,349.886 483.988,349.247 483.681,348.859 C 483.427,348.539 483.072,348.378 482.617,348.378 C 482.16,348.378 481.792,348.554 481.512,348.905 C 481.233,349.256 481.093,349.883 481.093,350.784 C 481.093,351.668 481.247,352.304 481.554,352.692 C 481.808,353.013 482.163,353.173 482.617,353.173 Z M 482.617,352.427 C 482.508,352.427 482.411,352.392 482.326,352.322 C 482.241,352.253 482.174,352.129 482.127,351.949 C 482.065,351.717 482.034,351.325 482.034,350.774 C 482.034,350.223 482.062,349.845 482.118,349.639 C 482.173,349.433 482.243,349.295 482.327,349.227 C 482.412,349.159 482.508,349.125 482.617,349.125 C 482.726,349.125 482.823,349.159 482.909,349.229 C 482.994,349.298 483.06,349.422 483.107,349.602 C 483.169,349.832 483.2,350.223 483.2,350.774 C 483.2,351.325 483.172,351.703 483.117,351.909 C 483.061,352.115 482.991,352.253 482.907,352.322 C 482.823,352.392 482.726,352.427 482.617,352.427 Z" marker-start="none" marker-end="none"/>
      </g>
     </g>
     <g id="Group_3" fill-rule="nonzero" stroke="none" stroke-width="0.163" fill="#000000" stroke-miterlimit="79.8403193612775">
      <g id="Group_4">
       <path d="M 477.439,336.626 L 478.31,336.732 C 478.338,336.51 478.413,336.34 478.534,336.223 C 478.656,336.105 478.803,336.047 478.976,336.047 C 479.162,336.047 479.318,336.117 479.445,336.258 C 479.573,336.399 479.636,336.589 479.636,336.828 C 479.636,337.054 479.575,337.234 479.453,337.366 C 479.332,337.498 479.183,337.565 479.008,337.565 C 478.893,337.565 478.755,337.542 478.595,337.497 L 478.694,338.231 C 478.938,338.224 479.124,338.277 479.252,338.389 C 479.38,338.501 479.444,338.65 479.444,338.836 C 479.444,338.994 479.397,339.12 479.303,339.214 C 479.209,339.308 479.084,339.355 478.928,339.355 C 478.775,339.355 478.643,339.302 478.534,339.195 C 478.425,339.088 478.359,338.932 478.336,338.727 L 477.506,338.868 C 477.564,339.152 477.651,339.379 477.767,339.549 C 477.884,339.718 478.046,339.852 478.254,339.949 C 478.462,340.046 478.696,340.095 478.954,340.095 C 479.396,340.095 479.75,339.954 480.017,339.672 C 480.237,339.441 480.347,339.181 480.347,338.89 C 480.347,338.478 480.122,338.15 479.671,337.904 C 479.94,337.846 480.155,337.717 480.317,337.517 C 480.478,337.316 480.558,337.074 480.558,336.79 C 480.558,336.378 480.408,336.026 480.107,335.736 C 479.806,335.446 479.431,335.3 478.983,335.3 C 478.558,335.3 478.206,335.423 477.926,335.667 C 477.646,335.912 477.484,336.231 477.439,336.626 Z" marker-start="none" marker-end="none"/>
       <path d="M 482.64,340.095 C 483.095,340.095 483.451,339.932 483.707,339.608 C 484.012,339.224 484.165,338.586 484.165,337.696 C 484.165,336.808 484.011,336.169 483.704,335.781 C 483.45,335.461 483.095,335.3 482.64,335.3 C 482.183,335.3 481.815,335.476 481.535,335.827 C 481.256,336.178 481.116,336.805 481.116,337.706 C 481.116,338.59 481.27,339.226 481.577,339.614 C 481.831,339.935 482.186,340.095 482.64,340.095 Z M 482.64,339.349 C 482.531,339.349 482.434,339.314 482.349,339.244 C 482.264,339.175 482.197,339.051 482.15,338.871 C 482.088,338.639 482.057,338.247 482.057,337.696 C 482.057,337.145 482.085,336.767 482.141,336.561 C 482.196,336.355 482.266,336.217 482.35,336.149 C 482.435,336.081 482.531,336.047 482.64,336.047 C 482.749,336.047 482.846,336.081 482.932,336.151 C 483.017,336.22 483.083,336.344 483.13,336.524 C 483.192,336.754 483.223,337.145 483.223,337.696 C 483.223,338.247 483.195,338.625 483.14,338.831 C 483.084,339.037 483.014,339.175 482.93,339.244 C 482.846,339.314 482.749,339.349 482.64,339.349 Z" marker-start="none" marker-end="none"/>
      </g>
     </g>
     <g id="Group_5" stroke-width="0.655" stroke-miterlimit="79.8403193612775">
      <path d="M 489.257,350.749 L 490.899,347.138 L 494.848,346.755 L 497.154,349.983 L 495.512,353.594 L 491.563,353.977 L 489.257,350.749 Z" fill="#e5e5e5" stroke-linejoin="miter" marker-start="none" marker-end="none"/>
      <path d="M 493.206,352.294 C 494.269,352.294 495.134,351.43 495.134,350.367 C 495.134,349.303 494.269,348.439 493.206,348.439 C 492.142,348.439 491.277,349.303 491.277,350.367 C 491.277,351.43 492.142,352.294 493.206,352.294 Z" fill="#999999" marker-start="none" marker-end="none"/>
     </g>
     <g id="Group_6" stroke-width="0.655" stroke-miterlimit="79.8403193612775">
      <path d="M 497.718,296.636 L 499.36,293.025 L 503.309,292.642 L 505.615,295.87 L 503.973,299.481 L 500.024,299.864 L 497.718,296.636 Z" fill="#e5e5e5" stroke-linejoin="miter" marker-start="none" marker-end="none"/>
      <path d="M 501.667,298.181 C 502.73,298.181 503.595,297.317 503.595,296.254 C 503.595,295.19 502.73,294.326 501.667,294.326 C 500.603,294.326 499.738,295.19 499.738,296.254 C 499.738,297.317 500.603,298.181 501.667,298.181 Z" fill="#999999" marker-start="none" marker-end="none"/>
     </g>
     <g id="Group_7" stroke-width="0.655" stroke-miterlimit="79.8403193612775">
      <path d="M 489.257,338.047 L 490.899,334.436 L 494.848,334.053 L 497.154,337.281 L 495.512,340.892 L 491.563,341.275 L 489.257,338.047 Z" fill="#e5e5e5" stroke-linejoin="miter" marker-start="none" marker-end="none"/>
      <path d="M 493.206,339.592 C 494.269,339.592 495.134,338.728 495.134,337.665 C 495.134,336.601 494.269,335.737 493.206,335.737 C 492.142,335.737 491.277,336.601 491.277,337.665 C 491.277,338.728 492.142,339.592 493.206,339.592 Z" fill="#999999" marker-start="none" marker-end="none"/>
     </g>
     <path d="M 456.417,346.078 L 456.417,289.681 L 469.483,289.681 L 469.483,357.452 C 460.464,357.57 456.225,353.68 456.417,346.078 Z" fill="#cccccc" stroke-width="1.311" stroke-linejoin="miter" marker-start="none" marker-end="none" stroke-miterlimit="79.8403193612775"/>
     <path d="M 444.221,313.248 L 444.221,295.12 L 447.091,295.12 L 447.091,313.248 L 444.221,313.248 Z" fill="#b2b2b2" stroke-width="1.311" marker-start="none" marker-end="none" stroke-miterlimit="79.8403193612775"/>
     <path d="M 421.654,304.969 C 421.654,318.732 433.079,329.926 447.233,330.122 L 447.233,304.308 L 426.23,304.26 L 426.23,301.8 L 421.857,301.8 C 421.723,302.838 421.654,303.896 421.654,304.969 Z" fill="#e5e5e5" stroke-width="1.234" marker-start="none" marker-end="none" stroke-miterlimit="79.8403193612775"/>
     <path d="M 447.133,333.532 L 447.133,277.137 L 456.229,277.137 L 456.229,333.532 L 447.133,333.532 Z" fill="#cccccc" stroke-width="1.311" marker-start="none" marker-end="none" stroke-miterlimit="79.8403193612775"/>
     <g id="Group_8" fill-rule="nonzero" stroke="none" stroke-width="0.163" fill="#000000" stroke-miterlimit="79.8403193612775">
      <g id="Group_9">
       <path d="M 489.138,299.236 L 491.015,299.236 C 491.386,299.236 491.663,299.221 491.846,299.19 C 492.028,299.159 492.192,299.095 492.336,298.996 C 492.48,298.898 492.6,298.767 492.696,298.604 C 492.792,298.441 492.84,298.258 492.84,298.055 C 492.84,297.835 492.781,297.633 492.662,297.449 C 492.544,297.266 492.383,297.128 492.18,297.036 C 492.466,296.953 492.686,296.811 492.84,296.61 C 492.994,296.41 493.071,296.174 493.071,295.903 C 493.071,295.689 493.021,295.481 492.922,295.28 C 492.822,295.078 492.687,294.917 492.515,294.796 C 492.343,294.676 492.131,294.601 491.879,294.574 C 491.721,294.556 491.34,294.546 490.736,294.542 L 489.138,294.542 L 489.138,299.236 Z M 490.086,298.455 L 490.086,297.369 L 490.707,297.369 C 491.077,297.369 491.306,297.375 491.396,297.385 C 491.558,297.405 491.685,297.461 491.778,297.553 C 491.871,297.646 491.918,297.769 491.918,297.92 C 491.918,298.065 491.878,298.183 491.798,298.274 C 491.718,298.365 491.599,298.42 491.441,298.439 C 491.347,298.45 491.077,298.455 490.63,298.455 L 490.086,298.455 Z M 490.086,296.588 L 490.086,295.333 L 490.963,295.333 C 491.305,295.333 491.522,295.342 491.613,295.361 C 491.754,295.387 491.869,295.449 491.958,295.549 C 492.046,295.648 492.091,295.781 492.091,295.947 C 492.091,296.088 492.057,296.208 491.988,296.306 C 491.92,296.404 491.821,296.476 491.692,296.521 C 491.563,296.566 491.282,296.588 490.851,296.588 L 490.086,296.588 Z" marker-start="none" marker-end="none"/>
       <path d="M 493.763,295.794 L 493.763,296.694 L 495.531,296.694 L 495.531,295.794 L 493.763,295.794 Z" marker-start="none" marker-end="none"/>
      </g>
     </g>
     <g id="Group_10" fill-rule="nonzero" stroke="none" stroke-width="0.163" fill="#000000" stroke-miterlimit="79.8403193612775">
      <g id="Group_11">
       <path d="M 478.528,313.699 L 479.45,313.789 C 479.505,313.479 479.618,313.252 479.788,313.107 C 479.957,312.961 480.186,312.889 480.475,312.889 C 480.78,312.889 481.01,312.953 481.165,313.083 C 481.32,313.212 481.397,313.363 481.397,313.536 C 481.397,313.647 481.364,313.741 481.299,313.819 C 481.234,313.897 481.121,313.965 480.958,314.023 C 480.847,314.061 480.594,314.129 480.199,314.228 C 479.691,314.353 479.335,314.508 479.13,314.692 C 478.841,314.95 478.697,315.265 478.697,315.637 C 478.697,315.876 478.765,316.099 478.901,316.308 C 479.036,316.516 479.232,316.674 479.487,316.783 C 479.742,316.892 480.05,316.947 480.411,316.947 C 481,316.947 481.443,316.817 481.741,316.559 C 482.039,316.301 482.195,315.956 482.21,315.525 L 481.262,315.483 C 481.222,315.724 481.135,315.898 481.001,316.003 C 480.868,316.109 480.668,316.162 480.401,316.162 C 480.126,316.162 479.91,316.105 479.754,315.992 C 479.654,315.92 479.604,315.822 479.604,315.701 C 479.604,315.59 479.65,315.495 479.744,315.416 C 479.864,315.315 480.154,315.211 480.616,315.102 C 481.077,314.993 481.418,314.88 481.639,314.764 C 481.86,314.648 482.033,314.489 482.158,314.287 C 482.282,314.085 482.345,313.836 482.345,313.539 C 482.345,313.27 482.27,313.018 482.121,312.783 C 481.971,312.548 481.76,312.374 481.487,312.26 C 481.213,312.145 480.873,312.088 480.465,312.088 C 479.871,312.088 479.416,312.225 479.098,312.5 C 478.779,312.774 478.589,313.174 478.528,313.699 Z" marker-start="none" marker-end="none"/>
       <path d="M 484.2,312.172 L 484.2,316.072 L 482.806,316.072 L 482.806,316.866 L 486.537,316.866 L 486.537,316.072 L 485.147,316.072 L 485.147,312.172 L 484.2,312.172 Z" marker-start="none" marker-end="none"/>
       <path d="M 490.896,312.172 L 489.865,312.172 L 489.455,313.238 L 487.579,313.238 L 487.191,312.172 L 486.186,312.172 L 488.014,316.866 L 489.017,316.866 L 490.896,312.172 Z M 489.151,314.029 L 488.504,315.771 L 487.87,314.029 L 489.151,314.029 Z" marker-start="none" marker-end="none"/>
       <path d="M 491.403,312.172 L 491.403,316.866 L 493.398,316.866 C 493.9,316.866 494.264,316.824 494.492,316.74 C 494.719,316.656 494.901,316.506 495.038,316.29 C 495.174,316.074 495.243,315.828 495.243,315.55 C 495.243,315.198 495.139,314.907 494.932,314.678 C 494.725,314.448 494.415,314.303 494.003,314.244 C 494.208,314.124 494.378,313.993 494.511,313.85 C 494.644,313.707 494.824,313.453 495.051,313.087 L 495.624,312.172 L 494.49,312.172 L 493.805,313.193 C 493.561,313.558 493.395,313.788 493.305,313.883 C 493.216,313.978 493.121,314.043 493.02,314.079 C 492.92,314.114 492.761,314.131 492.543,314.131 L 492.351,314.131 L 492.351,312.172 L 491.403,312.172 Z M 492.351,314.881 L 493.052,314.881 C 493.507,314.881 493.791,314.9 493.904,314.939 C 494.017,314.977 494.106,315.043 494.17,315.137 C 494.234,315.231 494.266,315.348 494.266,315.489 C 494.266,315.647 494.224,315.775 494.139,315.872 C 494.055,315.969 493.936,316.031 493.782,316.056 C 493.706,316.067 493.475,316.072 493.091,316.072 L 492.351,316.072 L 492.351,314.881 Z" marker-start="none" marker-end="none"/>
       <path d="M 497.194,312.172 L 497.194,316.072 L 495.8,316.072 L 495.8,316.866 L 499.531,316.866 L 499.531,316.072 L 498.141,316.072 L 498.141,312.172 L 497.194,312.172 Z" marker-start="none" marker-end="none"/>
       <path d="M 500.143,312.172 L 500.143,316.866 L 503.624,316.866 L 503.624,316.072 L 501.091,316.072 L 501.091,315.031 L 503.448,315.031 L 503.448,314.24 L 501.091,314.24 L 501.091,312.963 L 503.714,312.963 L 503.714,312.172 L 500.143,312.172 Z" marker-start="none" marker-end="none"/>
       <path d="M 504.521,312.172 L 504.521,316.866 L 506.516,316.866 C 507.018,316.866 507.382,316.824 507.61,316.74 C 507.837,316.656 508.019,316.506 508.156,316.29 C 508.292,316.074 508.361,315.828 508.361,315.55 C 508.361,315.198 508.257,314.907 508.05,314.678 C 507.843,314.448 507.533,314.303 507.121,314.244 C 507.326,314.124 507.496,313.993 507.629,313.85 C 507.762,313.707 507.942,313.453 508.169,313.087 L 508.742,312.172 L 507.608,312.172 L 506.923,313.193 C 506.679,313.558 506.513,313.788 506.423,313.883 C 506.334,313.978 506.239,314.043 506.138,314.079 C 506.038,314.114 505.879,314.131 505.661,314.131 L 505.469,314.131 L 505.469,312.172 L 504.521,312.172 Z M 505.469,314.881 L 506.17,314.881 C 506.625,314.881 506.909,314.9 507.022,314.939 C 507.135,314.977 507.224,315.043 507.288,315.137 C 507.352,315.231 507.384,315.348 507.384,315.489 C 507.384,315.647 507.342,315.775 507.257,315.872 C 507.173,315.969 507.054,316.031 506.9,316.056 C 506.824,316.067 506.593,316.072 506.209,316.072 L 505.469,316.072 L 505.469,314.881 Z" marker-start="none" marker-end="none"/>
      </g>
     </g>
    </g>
   </g>
  </g>
 </g>
</svg>
