<?xml version="1.0" standalone="no"?>
<!DOCTYPE svg PUBLIC "-//W3C//DTD SVG 1.1//EN" "http://www.w3.org/Graphics/SVG/1.1/DTD/svg11.dtd">
<!--Generator: Xara Xtreme (www.xara.com), SVG filter version: 1.0.0.13-->
<svg stroke-width="0.501" stroke-linejoin="bevel" fill-rule="evenodd" xmlns:xlink="http://www.w3.org/1999/xlink" xmlns="http://www.w3.org/2000/svg" version="1.1" overflow="visible" width="841.891pt" height="595.277pt" viewBox="0 0 841.891 595.277">
 <defs>
  <marker id="DefaultArrow2" markerUnits="strokeWidth" viewBox="0 0 1 1" markerWidth="1" markerHeight="1" overflow="visible" orient="auto">
   <!-- REF_ARROW_STRAIGHT (-2) -->
   <g transform="scale(0.0092592592)">
    <!-- 1/108 -->
    <path d="M -9 54 L -9 -54 L 117 0 z"/>
   </g>
  </marker>
  <marker id="DefaultArrow3" markerUnits="strokeWidth" viewBox="0 0 1 1" markerWidth="1" markerHeight="1" overflow="visible" orient="auto">
   <!-- REF_ARROW_ANGLED -->
   <g transform="scale(0.0092592592)">
    <path d="M -27 54 L -9 0 L -27 -54 L 135 0 z"/>
   </g>
  </marker>
  <marker id="DefaultArrow4" markerUnits="strokeWidth" viewBox="0 0 1 1" markerWidth="1" markerHeight="1" overflow="visible" orient="auto">
   <!-- REF_ARROW_ROUNDED -->
   <g transform="scale(0.0092592592)">
    <path d="M -9,0 L -9,-45 C -9,-51.708 2.808,-56.580 9,-54 L 117,-9 C 120.916,-7.369 126.000,-4.242 126,0 C 126,4.242 120.916,7.369 117,9 L 9,54 C 2.808,56.580 -9,51.708 -9,45 z"/>
   </g>
  </marker>
  <marker id="DefaultArrow5" markerUnits="strokeWidth" viewBox="0 0 1 1" markerWidth="1" markerHeight="1" overflow="visible" orient="auto">
   <!-- REF_ARROW_SPOT -->
   <g transform="scale(0.0092592592)">
    <path d="M -54, 0 C -54,29.807 -29.807,54 0,54 C 29.807,54 54,29.807 54,0 C 54,-29.807 29.807,-54 0,-54 C -29.807,-54 -54,-29.807 -54,0 z"/>
   </g>
  </marker>
  <marker id="DefaultArrow6" markerUnits="strokeWidth" viewBox="0 0 1 1" markerWidth="1" markerHeight="1" overflow="visible" orient="auto">
   <!-- REF_ARROW_DIAMOND -->
   <g transform="scale(0.0092592592)">
    <path d="M -63,0 L 0,63 L 63,0 L 0,-63 z"/>
   </g>
  </marker>
  <marker id="DefaultArrow7" markerUnits="strokeWidth" viewBox="0 0 1 1" markerWidth="1" markerHeight="1" overflow="visible" orient="auto">
   <!-- REF_ARROW_FEATHER -->
   <g transform="scale(0.0092592592)">
    <path d="M 18,-54 L 108,-54 L 63,0 L 108,54 L 18, 54 L -36,0 z"/>
   </g>
  </marker>
  <marker id="DefaultArrow8" markerUnits="strokeWidth" viewBox="0 0 1 1" markerWidth="1" markerHeight="1" overflow="visible" orient="auto">
   <!-- REF_ARROW_FEATHER2 -->
   <g transform="scale(0.0092592592)">
    <path d="M -36,0 L 18,-54 L 54,-54 L 18,-18 L 27,-18 L 63,-54 L 99,-54 L 63,-18 L 72,-18 L 108,-54 L 144,-54 L 90,0 L 144,54 L 108,54 L 72,18 L 63,18 L 99,54 L 63,54 L 27,18 L 18,18 L 54,54 L 18,54 z"/>
   </g>
  </marker>
  <marker id="DefaultArrow9" markerUnits="strokeWidth" viewBox="0 0 1 1" markerWidth="1" markerHeight="1" overflow="visible" orient="auto">
   <!-- REF_ARROW_HOLLOWDIAMOND -->
   <g transform="scale(0.0092592592)">
    <path d="M 0,45 L -45,0 L 0, -45 L 45, 0 z M 0, 63 L-63, 0 L 0, -63 L 63, 0 z"/>
   </g>
  </marker>
  <filter id="StainedFilter">
   <feBlend mode="multiply" in2="BackgroundImage" in="SourceGraphic" result="blend"/>
   <feComposite in="blend" in2="SourceAlpha" operator="in" result="comp"/>
  </filter>
  <filter id="BleachFilter">
   <feBlend mode="screen" in2="BackgroundImage" in="SourceGraphic" result="blend"/>
   <feComposite in="blend" in2="SourceAlpha" operator="in" result="comp"/>
  </filter>
  <filter id="InvertTransparencyBitmapFilter">
   <feComponentTransfer>
    <feFuncR type="gamma" amplitude="1.055" exponent=".416666666" offset="-0.055"/>
    <feFuncG type="gamma" amplitude="1.055" exponent=".416666666" offset="-0.055"/>
    <feFuncB type="gamma" amplitude="1.055" exponent=".416666666" offset="-0.055"/>
   </feComponentTransfer>
   <feComponentTransfer>
    <feFuncR type="linear" slope="-1" intercept="1"/>
    <feFuncG type="linear" slope="-1" intercept="1"/>
    <feFuncB type="linear" slope="-1" intercept="1"/>
    <feFuncA type="linear" slope="1" intercept="0"/>
   </feComponentTransfer>
   <feComponentTransfer>
    <feFuncR type="gamma" amplitude="1" exponent="2.4" offset="0"/>
    <feFuncG type="gamma" amplitude="1" exponent="2.4" offset="0"/>
    <feFuncB type="gamma" amplitude="1" exponent="2.4" offset="0"/>
   </feComponentTransfer>
  </filter>
 </defs>
 <g id="Document" fill="none" stroke="black" font-family="Times New Roman" font-size="16" transform="scale(1 -1)">
  <g id="Spread" transform="translate(0 -595.277)">
   <g id="Layer 1">
    <g id="Group">
     <path d="M 412.504,330.845 L 412.504,313.588 C 412.504,311.709 414.029,310.185 415.907,310.185 L 418.93,310.185 C 420.808,310.185 422.333,311.709 422.333,313.588 L 422.333,330.845 C 422.333,332.724 420.808,334.248 418.93,334.248 L 415.907,334.248 C 414.029,334.248 412.504,332.724 412.504,330.845 Z" fill="#000000" stroke-width="0.028" marker-start="none" marker-end="none" stroke-miterlimit="79.8403193612775"/>
     <path d="M 413.174,332.464 L 413.174,311.657 L 421.673,311.657 L 421.673,332.464 L 413.174,332.464 Z" fill="#4c4c4c" stroke-width="0.024" marker-start="none" marker-end="none" stroke-miterlimit="79.8403193612775"/>
     <path d="M 414.092,313.031 L 414.092,331.446 L 420.814,331.446 L 420.814,313.031 L 414.092,313.031 Z M 418.899,315.878 C 418.899,316.624 418.293,317.229 417.547,317.229 C 416.801,317.229 416.196,316.624 416.196,315.878 C 416.196,315.132 416.801,314.526 417.547,314.526 C 418.293,314.526 418.899,315.132 418.899,315.878 Z M 418.771,328.672 C 418.771,329.418 418.166,330.024 417.42,330.024 C 416.673,330.024 416.068,329.418 416.068,328.672 C 416.068,327.926 416.673,327.321 417.42,327.321 C 418.166,327.321 418.771,327.926 418.771,328.672 Z" stroke="#999999" fill="#cccccc" stroke-linejoin="miter" stroke-width="0.028" marker-start="none" marker-end="none" stroke-miterlimit="79.8403193612775"/>
     <path d="M 413.908,323.698 L 413.908,320.909 L 420.941,320.909 L 420.941,323.698 L 413.908,323.698 Z" fill="#999999" stroke-width="0.028" stroke-linejoin="miter" marker-start="none" marker-end="none" stroke-miterlimit="79.8403193612775"/>
     <path d="M 413.641,323.358 L 413.641,321.449 L 421.21,321.449 L 421.21,323.358 L 413.641,323.358 Z" stroke="#b2b2b2" fill="#ffffff" stroke-width="0.028" stroke-linejoin="miter" marker-start="none" marker-end="none" stroke-miterlimit="79.8403193612775"/>
     <path d="M 413.432,325.056 L 413.426,324.519 C 413.458,324.145 413.577,323.803 413.75,323.481 L 421.185,323.481 C 421.319,323.799 421.415,324.148 421.444,324.553 L 421.464,325.023 C 421.471,325.192 421.233,325.368 421.111,325.388 C 418.685,325.792 416.225,325.777 413.781,325.324 C 413.653,325.301 413.434,325.202 413.432,325.056 Z" fill="#7f7f7f" stroke-width="0.028" stroke-linejoin="miter" marker-start="none" marker-end="none" stroke-miterlimit="79.8403193612775"/>
     <path d="M 421.462,319.712 L 421.468,320.248 C 421.436,320.622 421.317,320.964 421.145,321.286 L 413.709,321.286 C 413.575,320.969 413.479,320.62 413.451,320.214 L 413.43,319.745 C 413.423,319.576 413.661,319.4 413.784,319.38 C 416.209,318.975 418.67,318.991 421.113,319.443 C 421.241,319.467 421.46,319.565 421.462,319.712 Z" fill="#7f7f7f" stroke-width="0.028" stroke-linejoin="miter" marker-start="none" marker-end="none" stroke-miterlimit="79.8403193612775"/>
     <g id="Group_1" fill-rule="nonzero" stroke="none" stroke-width="0.014" fill="#000000" stroke-miterlimit="79.8403193612775">
      <g id="Group_2">
       <path d="M 415.989,322.721 L 415.989,323.056 L 415.87,323.056 L 415.87,323.124 L 416.19,323.124 L 416.19,323.056 L 416.071,323.056 L 416.071,322.721 L 415.989,322.721 Z" marker-start="none" marker-end="none"/>
       <path d="M 416.204,322.828 L 416.204,322.905 L 416.356,322.905 L 416.356,322.828 L 416.204,322.828 Z" marker-start="none" marker-end="none"/>
       <path d="M 416.656,322.926 L 416.58,322.913 C 416.577,322.928 416.571,322.939 416.562,322.947 C 416.553,322.955 416.541,322.959 416.527,322.959 C 416.507,322.959 416.492,322.952 416.481,322.939 C 416.469,322.925 416.463,322.903 416.463,322.872 C 416.463,322.837 416.469,322.813 416.481,322.798 C 416.493,322.784 416.508,322.777 416.528,322.777 C 416.542,322.777 416.555,322.781 416.564,322.789 C 416.573,322.798 416.58,322.812 416.584,322.833 L 416.66,322.82 C 416.652,322.785 416.637,322.758 416.614,322.741 C 416.592,322.723 416.562,322.714 416.524,322.714 C 416.481,322.714 416.447,322.727 416.422,322.754 C 416.397,322.781 416.384,322.819 416.384,322.866 C 416.384,322.915 416.397,322.952 416.422,322.979 C 416.448,323.006 416.482,323.019 416.526,323.019 C 416.561,323.019 416.59,323.012 416.611,322.996 C 416.632,322.981 416.647,322.958 416.656,322.926 Z" marker-start="none" marker-end="none"/>
       <path d="M 416.715,322.721 L 416.715,323.124 L 416.792,323.124 L 416.792,322.721 L 416.715,322.721 Z" marker-start="none" marker-end="none"/>
       <path d="M 416.93,322.924 L 416.86,322.936 C 416.867,322.965 416.881,322.985 416.9,322.999 C 416.92,323.013 416.948,323.019 416.986,323.019 C 417.021,323.019 417.046,323.015 417.063,323.007 C 417.08,322.999 417.092,322.989 417.099,322.976 C 417.106,322.963 417.109,322.94 417.109,322.907 L 417.108,322.817 C 417.108,322.791 417.11,322.772 417.112,322.76 C 417.115,322.748 417.119,322.734 417.126,322.721 L 417.049,322.721 C 417.047,322.726 417.045,322.733 417.042,322.743 C 417.041,322.748 417.04,322.751 417.039,322.752 C 417.026,322.74 417.012,322.73 416.997,322.724 C 416.982,322.717 416.966,322.714 416.949,322.714 C 416.919,322.714 416.895,322.722 416.878,322.738 C 416.86,322.755 416.852,322.775 416.852,322.8 C 416.852,322.817 416.856,322.832 416.863,322.844 C 416.871,322.857 416.882,322.867 416.897,322.874 C 416.911,322.881 416.931,322.887 416.958,322.892 C 416.994,322.899 417.019,322.905 417.033,322.911 L 417.033,322.919 C 417.033,322.934 417.03,322.944 417.022,322.951 C 417.015,322.957 417.001,322.96 416.981,322.96 C 416.967,322.96 416.956,322.957 416.948,322.952 C 416.941,322.947 416.935,322.937 416.93,322.924 Z M 417.033,322.861 C 417.023,322.858 417.008,322.854 416.986,322.849 C 416.965,322.844 416.951,322.84 416.944,322.836 C 416.934,322.828 416.929,322.819 416.929,322.808 C 416.929,322.797 416.933,322.788 416.941,322.78 C 416.949,322.772 416.959,322.768 416.972,322.768 C 416.986,322.768 416.999,322.773 417.012,322.782 C 417.021,322.789 417.027,322.798 417.03,322.808 C 417.032,322.814 417.033,322.827 417.033,322.845 L 417.033,322.861 Z" marker-start="none" marker-end="none"/>
       <path d="M 417.159,322.804 L 417.236,322.816 C 417.24,322.801 417.246,322.789 417.256,322.781 C 417.266,322.774 417.281,322.77 417.299,322.77 C 417.319,322.77 417.334,322.773 417.344,322.781 C 417.351,322.786 417.354,322.793 417.354,322.801 C 417.354,322.807 417.352,322.812 417.349,322.816 C 417.345,322.82 417.336,322.823 417.323,322.826 C 417.26,322.84 417.221,322.852 417.204,322.864 C 417.181,322.88 417.169,322.902 417.169,322.93 C 417.169,322.955 417.179,322.976 417.199,322.993 C 417.219,323.011 417.25,323.019 417.292,323.019 C 417.332,323.019 417.362,323.013 417.382,323 C 417.401,322.987 417.414,322.968 417.422,322.942 L 417.349,322.929 C 417.346,322.94 417.34,322.949 417.331,322.955 C 417.322,322.961 417.31,322.964 417.294,322.964 C 417.273,322.964 417.259,322.961 417.25,322.955 C 417.244,322.951 417.241,322.946 417.241,322.94 C 417.241,322.934 417.244,322.929 417.249,322.926 C 417.256,322.92 417.28,322.913 417.321,322.904 C 417.362,322.894 417.391,322.883 417.407,322.869 C 417.424,322.856 417.432,322.836 417.432,322.812 C 417.432,322.785 417.421,322.762 417.398,322.743 C 417.376,322.724 417.343,322.714 417.299,322.714 C 417.259,322.714 417.227,322.722 417.204,322.738 C 417.181,322.754 417.166,322.776 417.159,322.804 Z" marker-start="none" marker-end="none"/>
       <path d="M 417.473,322.804 L 417.55,322.816 C 417.554,322.801 417.56,322.789 417.57,322.781 C 417.58,322.774 417.595,322.77 417.613,322.77 C 417.633,322.77 417.648,322.773 417.658,322.781 C 417.665,322.786 417.668,322.793 417.668,322.801 C 417.668,322.807 417.666,322.812 417.663,322.816 C 417.659,322.82 417.65,322.823 417.637,322.826 C 417.574,322.84 417.535,322.852 417.518,322.864 C 417.495,322.88 417.483,322.902 417.483,322.93 C 417.483,322.955 417.493,322.976 417.513,322.993 C 417.533,323.011 417.564,323.019 417.606,323.019 C 417.646,323.019 417.676,323.013 417.696,323 C 417.715,322.987 417.728,322.968 417.736,322.942 L 417.663,322.929 C 417.66,322.94 417.654,322.949 417.645,322.955 C 417.636,322.961 417.624,322.964 417.608,322.964 C 417.587,322.964 417.573,322.961 417.564,322.955 C 417.558,322.951 417.555,322.946 417.555,322.94 C 417.555,322.934 417.558,322.929 417.563,322.926 C 417.57,322.92 417.594,322.913 417.635,322.904 C 417.676,322.894 417.705,322.883 417.721,322.869 C 417.738,322.856 417.746,322.836 417.746,322.812 C 417.746,322.785 417.735,322.762 417.712,322.743 C 417.69,322.724 417.657,322.714 417.613,322.714 C 417.573,322.714 417.541,322.722 417.518,322.738 C 417.495,322.754 417.48,322.776 417.473,322.804 Z" marker-start="none" marker-end="none"/>
       <path d="M 417.937,323.013 L 417.98,323.013 L 417.98,323.035 C 417.98,323.059 417.983,323.078 417.988,323.09 C 417.993,323.102 418.003,323.112 418.017,323.119 C 418.031,323.127 418.049,323.131 418.07,323.131 C 418.092,323.131 418.114,323.128 418.135,323.121 L 418.124,323.067 C 418.112,323.07 418.1,323.071 418.089,323.071 C 418.078,323.071 418.07,323.069 418.065,323.064 C 418.06,323.058 418.057,323.048 418.057,323.033 L 418.057,323.013 L 418.115,323.013 L 418.115,322.952 L 418.057,322.952 L 418.057,322.721 L 417.98,322.721 L 417.98,322.952 L 417.937,322.952 L 417.937,323.013 Z" marker-start="none" marker-end="none"/>
       <path d="M 418.351,322.721 L 418.351,322.764 C 418.341,322.749 418.327,322.736 418.309,322.727 C 418.292,322.718 418.274,322.714 418.254,322.714 C 418.235,322.714 418.217,322.718 418.202,322.727 C 418.186,322.735 418.175,322.748 418.168,322.763 C 418.161,322.779 418.157,322.8 418.157,322.828 L 418.157,323.013 L 418.235,323.013 L 418.235,322.878 C 418.235,322.837 418.236,322.812 418.239,322.803 C 418.242,322.794 418.247,322.786 418.254,322.781 C 418.262,322.775 418.272,322.773 418.283,322.773 C 418.296,322.773 418.308,322.776 418.319,322.784 C 418.329,322.791 418.336,322.8 418.34,322.811 C 418.344,322.821 418.346,322.848 418.346,322.889 L 418.346,323.013 L 418.423,323.013 L 418.423,322.721 L 418.351,322.721 Z" marker-start="none" marker-end="none"/>
       <path d="M 418.477,322.804 L 418.554,322.816 C 418.558,322.801 418.564,322.789 418.574,322.781 C 418.584,322.774 418.599,322.77 418.617,322.77 C 418.637,322.77 418.652,322.773 418.662,322.781 C 418.669,322.786 418.672,322.793 418.672,322.801 C 418.672,322.807 418.67,322.812 418.667,322.816 C 418.663,322.82 418.654,322.823 418.641,322.826 C 418.578,322.84 418.539,322.852 418.522,322.864 C 418.499,322.88 418.487,322.902 418.487,322.93 C 418.487,322.955 418.497,322.976 418.517,322.993 C 418.537,323.011 418.568,323.019 418.61,323.019 C 418.65,323.019 418.68,323.013 418.7,323 C 418.719,322.987 418.732,322.968 418.74,322.942 L 418.667,322.929 C 418.664,322.94 418.658,322.949 418.649,322.955 C 418.64,322.961 418.628,322.964 418.612,322.964 C 418.591,322.964 418.577,322.961 418.568,322.955 C 418.562,322.951 418.559,322.946 418.559,322.94 C 418.559,322.934 418.562,322.929 418.567,322.926 C 418.574,322.92 418.598,322.913 418.639,322.904 C 418.68,322.894 418.709,322.883 418.725,322.869 C 418.742,322.856 418.75,322.836 418.75,322.812 C 418.75,322.785 418.739,322.762 418.716,322.743 C 418.694,322.724 418.661,322.714 418.617,322.714 C 418.577,322.714 418.545,322.722 418.522,322.738 C 418.499,322.754 418.484,322.776 418.477,322.804 Z" marker-start="none" marker-end="none"/>
       <path d="M 418.987,322.814 L 419.064,322.801 C 419.054,322.772 419.039,322.751 419.017,322.736 C 418.996,322.721 418.969,322.714 418.937,322.714 C 418.886,322.714 418.849,322.73 418.824,322.764 C 418.805,322.79 418.795,322.824 418.795,322.864 C 418.795,322.913 418.808,322.951 418.833,322.978 C 418.859,323.006 418.891,323.019 418.929,323.019 C 418.973,323.019 419.007,323.005 419.032,322.976 C 419.057,322.948 419.069,322.904 419.068,322.844 L 418.875,322.844 C 418.875,322.821 418.881,322.804 418.893,322.791 C 418.905,322.778 418.92,322.772 418.938,322.772 C 418.95,322.772 418.96,322.775 418.968,322.782 C 418.977,322.788 418.983,322.799 418.987,322.814 Z M 418.992,322.892 C 418.991,322.914 418.985,322.931 418.974,322.943 C 418.963,322.954 418.95,322.96 418.934,322.96 C 418.917,322.96 418.903,322.954 418.892,322.942 C 418.881,322.929 418.876,322.913 418.876,322.892 L 418.992,322.892 Z" marker-start="none" marker-end="none"/>
      </g>
      <g id="Group_3">
       <path d="M 417.086,322.162 L 417.086,322.091 L 416.815,322.091 C 416.817,322.118 416.826,322.143 416.841,322.168 C 416.856,322.192 416.885,322.224 416.928,322.264 C 416.963,322.297 416.984,322.319 416.992,322.33 C 417.003,322.346 417.008,322.362 417.008,322.378 C 417.008,322.395 417.003,322.408 416.994,322.418 C 416.985,322.427 416.972,322.431 416.956,322.431 C 416.94,322.431 416.927,322.427 416.917,322.417 C 416.908,322.407 416.902,322.391 416.901,322.368 L 416.824,322.376 C 416.828,322.419 416.843,322.449 416.867,322.468 C 416.891,322.486 416.921,322.496 416.958,322.496 C 416.997,322.496 417.029,322.485 417.051,322.463 C 417.074,322.442 417.086,322.415 417.086,322.383 C 417.086,322.365 417.082,322.348 417.076,322.331 C 417.069,322.315 417.059,322.298 417.045,322.28 C 417.036,322.268 417.019,322.251 416.994,322.228 C 416.97,322.206 416.954,322.191 416.948,322.184 C 416.941,322.176 416.936,322.169 416.932,322.162 L 417.086,322.162 Z" marker-start="none" marker-end="none"/>
       <path d="M 417.269,322.496 C 417.308,322.496 417.339,322.482 417.361,322.454 C 417.387,322.421 417.4,322.366 417.4,322.289 C 417.4,322.213 417.387,322.158 417.361,322.125 C 417.339,322.097 417.308,322.084 417.269,322.084 C 417.23,322.084 417.198,322.099 417.174,322.129 C 417.15,322.159 417.138,322.213 417.138,322.29 C 417.138,322.366 417.151,322.421 417.178,322.454 C 417.2,322.482 417.23,322.496 417.269,322.496 Z M 417.269,322.431 C 417.26,322.431 417.251,322.428 417.244,322.423 C 417.237,322.417 417.231,322.406 417.227,322.39 C 417.222,322.37 417.219,322.337 417.219,322.289 C 417.219,322.242 417.221,322.21 417.226,322.192 C 417.231,322.174 417.237,322.162 417.244,322.157 C 417.252,322.151 417.26,322.148 417.269,322.148 C 417.279,322.148 417.287,322.151 417.294,322.157 C 417.302,322.163 417.307,322.173 417.311,322.189 C 417.317,322.209 417.319,322.242 417.319,322.289 C 417.319,322.337 417.317,322.369 417.312,322.387 C 417.307,322.405 417.301,322.417 417.294,322.423 C 417.287,322.428 417.279,322.431 417.269,322.431 Z" marker-start="none" marker-end="none"/>
       <path d="M 417.583,322.496 C 417.622,322.496 417.653,322.482 417.675,322.454 C 417.701,322.421 417.714,322.366 417.714,322.289 C 417.714,322.213 417.701,322.158 417.675,322.125 C 417.653,322.097 417.622,322.084 417.583,322.084 C 417.544,322.084 417.512,322.099 417.488,322.129 C 417.464,322.159 417.452,322.213 417.452,322.29 C 417.452,322.366 417.465,322.421 417.492,322.454 C 417.514,322.482 417.544,322.496 417.583,322.496 Z M 417.583,322.431 C 417.574,322.431 417.565,322.428 417.558,322.423 C 417.551,322.417 417.545,322.406 417.541,322.39 C 417.536,322.37 417.533,322.337 417.533,322.289 C 417.533,322.242 417.535,322.21 417.54,322.192 C 417.545,322.174 417.551,322.162 417.558,322.157 C 417.566,322.151 417.574,322.148 417.583,322.148 C 417.593,322.148 417.601,322.151 417.608,322.157 C 417.616,322.163 417.621,322.173 417.625,322.189 C 417.631,322.209 417.633,322.242 417.633,322.289 C 417.633,322.337 417.631,322.369 417.626,322.387 C 417.621,322.405 417.615,322.417 417.608,322.423 C 417.601,322.428 417.593,322.431 417.583,322.431 Z" marker-start="none" marker-end="none"/>
       <path d="M 418.147,322.091 L 418.059,322.091 L 418.023,322.182 L 417.862,322.182 L 417.829,322.091 L 417.743,322.091 L 417.9,322.494 L 417.986,322.494 L 418.147,322.091 Z M 417.997,322.25 L 417.942,322.4 L 417.887,322.25 L 417.997,322.25 Z" marker-start="none" marker-end="none"/>
      </g>
     </g>
     <g id="Group_4" stroke="#333333">
      <path d="M 418.909,330.712 C 420.01,329.925 420.264,328.392 419.477,327.291 C 418.69,326.19 417.157,325.936 416.056,326.723 C 414.955,327.51 414.701,329.043 415.488,330.144 C 416.275,331.245 417.808,331.499 418.909,330.712 Z" stroke-width="0.095" fill="#999999" marker-start="none" marker-end="none" stroke-miterlimit="79.8403193612775"/>
      <path d="M 415.136,328.485 L 416.511,326.569 L 418.857,326.802 L 419.829,328.95 L 418.455,330.865 L 416.108,330.633 L 415.136,328.485 Z" fill="#b2b2b2" stroke-width="0.095" stroke-linejoin="miter" marker-start="none" marker-end="none" stroke-miterlimit="79.8403193612775"/>
      <path d="M 418.154,329.656 C 418.672,329.286 418.792,328.564 418.421,328.046 C 418.051,327.528 417.329,327.408 416.811,327.779 C 416.293,328.149 416.173,328.871 416.544,329.389 C 416.914,329.907 417.636,330.027 418.154,329.656 Z" fill="#999999" stroke-width="0.132" marker-start="none" marker-end="none" stroke-miterlimit="79.8403193612775"/>
     </g>
     <g id="Group_5" stroke="#333333">
      <path d="M 418.952,317.876 C 420.053,317.089 420.307,315.556 419.52,314.455 C 418.733,313.354 417.2,313.1 416.099,313.887 C 414.998,314.674 414.744,316.207 415.531,317.308 C 416.318,318.409 417.851,318.663 418.952,317.876 Z" stroke-width="0.095" fill="#999999" marker-start="none" marker-end="none" stroke-miterlimit="79.8403193612775"/>
      <path d="M 415.179,315.649 L 416.554,313.733 L 418.9,313.966 L 419.872,316.114 L 418.498,318.029 L 416.151,317.797 L 415.179,315.649 Z" fill="#b2b2b2" stroke-width="0.095" stroke-linejoin="miter" marker-start="none" marker-end="none" stroke-miterlimit="79.8403193612775"/>
      <path d="M 418.197,316.82 C 418.715,316.45 418.835,315.728 418.464,315.21 C 418.094,314.692 417.372,314.572 416.854,314.943 C 416.336,315.313 416.216,316.035 416.587,316.553 C 416.957,317.071 417.679,317.191 418.197,316.82 Z" fill="#999999" stroke-width="0.132" marker-start="none" marker-end="none" stroke-miterlimit="79.8403193612775"/>
     </g>
    </g>
   </g>
  </g>
 </g>
</svg>
