<?xml version="1.0" standalone="no"?>
<!DOCTYPE svg PUBLIC "-//W3C//DTD SVG 1.1//EN" "http://www.w3.org/Graphics/SVG/1.1/DTD/svg11.dtd">
<!--Generator: Xara Xtreme (www.xara.com), SVG filter version: 1.0.0.13-->
<svg stroke-width="0.501" stroke-linejoin="bevel" fill-rule="evenodd" xmlns:xlink="http://www.w3.org/1999/xlink" xmlns="http://www.w3.org/2000/svg" version="1.1" overflow="visible" width="841.891pt" height="595.277pt" viewBox="0 0 841.891 595.277">
 <defs>
  <marker id="DefaultArrow2" markerUnits="strokeWidth" viewBox="0 0 1 1" markerWidth="1" markerHeight="1" overflow="visible" orient="auto">
   <!-- REF_ARROW_STRAIGHT (-2) -->
   <g transform="scale(0.0092592592)">
    <!-- 1/108 -->
    <path d="M -9 54 L -9 -54 L 117 0 z"/>
   </g>
  </marker>
  <marker id="DefaultArrow3" markerUnits="strokeWidth" viewBox="0 0 1 1" markerWidth="1" markerHeight="1" overflow="visible" orient="auto">
   <!-- REF_ARROW_ANGLED -->
   <g transform="scale(0.0092592592)">
    <path d="M -27 54 L -9 0 L -27 -54 L 135 0 z"/>
   </g>
  </marker>
  <marker id="DefaultArrow4" markerUnits="strokeWidth" viewBox="0 0 1 1" markerWidth="1" markerHeight="1" overflow="visible" orient="auto">
   <!-- REF_ARROW_ROUNDED -->
   <g transform="scale(0.0092592592)">
    <path d="M -9,0 L -9,-45 C -9,-51.708 2.808,-56.580 9,-54 L 117,-9 C 120.916,-7.369 126.000,-4.242 126,0 C 126,4.242 120.916,7.369 117,9 L 9,54 C 2.808,56.580 -9,51.708 -9,45 z"/>
   </g>
  </marker>
  <marker id="DefaultArrow5" markerUnits="strokeWidth" viewBox="0 0 1 1" markerWidth="1" markerHeight="1" overflow="visible" orient="auto">
   <!-- REF_ARROW_SPOT -->
   <g transform="scale(0.0092592592)">
    <path d="M -54, 0 C -54,29.807 -29.807,54 0,54 C 29.807,54 54,29.807 54,0 C 54,-29.807 29.807,-54 0,-54 C -29.807,-54 -54,-29.807 -54,0 z"/>
   </g>
  </marker>
  <marker id="DefaultArrow6" markerUnits="strokeWidth" viewBox="0 0 1 1" markerWidth="1" markerHeight="1" overflow="visible" orient="auto">
   <!-- REF_ARROW_DIAMOND -->
   <g transform="scale(0.0092592592)">
    <path d="M -63,0 L 0,63 L 63,0 L 0,-63 z"/>
   </g>
  </marker>
  <marker id="DefaultArrow7" markerUnits="strokeWidth" viewBox="0 0 1 1" markerWidth="1" markerHeight="1" overflow="visible" orient="auto">
   <!-- REF_ARROW_FEATHER -->
   <g transform="scale(0.0092592592)">
    <path d="M 18,-54 L 108,-54 L 63,0 L 108,54 L 18, 54 L -36,0 z"/>
   </g>
  </marker>
  <marker id="DefaultArrow8" markerUnits="strokeWidth" viewBox="0 0 1 1" markerWidth="1" markerHeight="1" overflow="visible" orient="auto">
   <!-- REF_ARROW_FEATHER2 -->
   <g transform="scale(0.0092592592)">
    <path d="M -36,0 L 18,-54 L 54,-54 L 18,-18 L 27,-18 L 63,-54 L 99,-54 L 63,-18 L 72,-18 L 108,-54 L 144,-54 L 90,0 L 144,54 L 108,54 L 72,18 L 63,18 L 99,54 L 63,54 L 27,18 L 18,18 L 54,54 L 18,54 z"/>
   </g>
  </marker>
  <marker id="DefaultArrow9" markerUnits="strokeWidth" viewBox="0 0 1 1" markerWidth="1" markerHeight="1" overflow="visible" orient="auto">
   <!-- REF_ARROW_HOLLOWDIAMOND -->
   <g transform="scale(0.0092592592)">
    <path d="M 0,45 L -45,0 L 0, -45 L 45, 0 z M 0, 63 L-63, 0 L 0, -63 L 63, 0 z"/>
   </g>
  </marker>
  <filter id="StainedFilter">
   <feBlend mode="multiply" in2="BackgroundImage" in="SourceGraphic" result="blend"/>
   <feComposite in="blend" in2="SourceAlpha" operator="in" result="comp"/>
  </filter>
  <filter id="BleachFilter">
   <feBlend mode="screen" in2="BackgroundImage" in="SourceGraphic" result="blend"/>
   <feComposite in="blend" in2="SourceAlpha" operator="in" result="comp"/>
  </filter>
  <filter id="InvertTransparencyBitmapFilter">
   <feComponentTransfer>
    <feFuncR type="gamma" amplitude="1.055" exponent=".416666666" offset="-0.055"/>
    <feFuncG type="gamma" amplitude="1.055" exponent=".416666666" offset="-0.055"/>
    <feFuncB type="gamma" amplitude="1.055" exponent=".416666666" offset="-0.055"/>
   </feComponentTransfer>
   <feComponentTransfer>
    <feFuncR type="linear" slope="-1" intercept="1"/>
    <feFuncG type="linear" slope="-1" intercept="1"/>
    <feFuncB type="linear" slope="-1" intercept="1"/>
    <feFuncA type="linear" slope="1" intercept="0"/>
   </feComponentTransfer>
   <feComponentTransfer>
    <feFuncR type="gamma" amplitude="1" exponent="2.4" offset="0"/>
    <feFuncG type="gamma" amplitude="1" exponent="2.4" offset="0"/>
    <feFuncB type="gamma" amplitude="1" exponent="2.4" offset="0"/>
   </feComponentTransfer>
  </filter>
  <linearGradient id="LinearGradient" gradientUnits="userSpaceOnUse" x1="0" y1="0" x2="0.258" y2="-18.314" gradientTransform="translate(339.996 385.729) scale(0.5)" spreadMethod="reflect">
   <stop offset="0" stop-color="#ffffff"/>
   <stop offset="0.1" stop-color="#f3f3f3"/>
   <stop offset="0.2" stop-color="#e6e6e6"/>
   <stop offset="0.3" stop-color="#d8d8d8"/>
   <stop offset="0.4" stop-color="#c7c7c7"/>
   <stop offset="0.5" stop-color="#b4b4b4"/>
   <stop offset="0.6" stop-color="#9e9e9e"/>
   <stop offset="0.7" stop-color="#858585"/>
   <stop offset="0.8" stop-color="#6b6b6b"/>
   <stop offset="0.9" stop-color="#505050"/>
   <stop offset="1" stop-color="#333333"/>
  </linearGradient>
 </defs>
 <g id="Document" fill="none" stroke="black" font-family="Times New Roman" font-size="16" transform="scale(1 -1)">
  <g id="Spread" transform="translate(0 -595.277)">
   <g id="Layer 1"/>
   <g id="logo">
    <g id="Group">
     <path d="M 346.871,360.411 C 343.055,356.591 336.858,356.589 333.038,360.405 C 329.218,364.221 329.216,370.418 333.032,374.238 C 336.848,378.058 343.045,378.06 346.865,374.244 C 350.685,370.428 350.687,364.231 346.871,360.411 Z" stroke="none" stroke-width="0.032" marker-start="none" marker-end="none" stroke-miterlimit="79.8403193612775" fill="url(#LinearGradient)"/>
     <g id="Group_1" stroke="none">
      <path d="M 333.534,373.737 C 337.067,377.271 342.801,377.273 346.335,373.741 C 349.869,370.208 349.871,364.474 346.339,360.94 C 342.806,357.406 337.072,357.404 333.538,360.936 C 330.004,364.469 330.002,370.203 333.534,373.737 Z" fill="#7f7f7f" stroke-width="0.029" marker-start="none" marker-end="none" stroke-miterlimit="79.8403193612775"/>
      <path d="M 333.94,373.332 C 337.248,376.642 342.62,376.643 345.93,373.335 C 349.24,370.027 349.241,364.655 345.933,361.345 C 342.625,358.035 337.253,358.034 333.943,361.342 C 330.633,364.65 330.632,370.022 333.94,373.332 Z" fill="#666666" stroke-width="0.028" marker-start="none" marker-end="none" stroke-miterlimit="79.8403193612775"/>
     </g>
     <path d="M 334.06,370.132 L 334.06,366.101 L 345.965,366.101 L 345.965,370.132 L 334.06,370.132 Z" stroke="none" fill="#7f81ff" stroke-width="0.028" stroke-linejoin="miter" marker-start="none" marker-end="none" stroke-miterlimit="79.8403193612775"/>
     <g id="Group_2" fill-rule="nonzero" stroke="none" stroke-width="0.012" fill="#4142ba" stroke-miterlimit="79.8403193612775">
      <g id="Group_3">
       <path d="M 334.479,369.299 L 334.479,369.715 L 334.587,369.715 L 334.652,369.431 L 334.717,369.715 L 334.825,369.715 L 334.825,369.299 L 334.758,369.299 L 334.758,369.627 L 334.687,369.299 L 334.617,369.299 L 334.546,369.627 L 334.546,369.299 L 334.479,369.299 Z" marker-start="none" marker-end="none"/>
       <path d="M 335.221,369.299 L 335.143,369.299 L 335.111,369.393 L 334.968,369.393 L 334.938,369.299 L 334.862,369.299 L 335.001,369.715 L 335.078,369.715 L 335.221,369.299 Z M 335.088,369.463 L 335.039,369.618 L 334.99,369.463 L 335.088,369.463 Z" marker-start="none" marker-end="none"/>
       <path d="M 335.258,369.299 L 335.258,369.715 L 335.33,369.715 L 335.33,369.299 L 335.258,369.299 Z" marker-start="none" marker-end="none"/>
       <path d="M 335.4,369.299 L 335.4,369.715 L 335.47,369.715 L 335.617,369.437 L 335.617,369.715 L 335.684,369.715 L 335.684,369.299 L 335.612,369.299 L 335.467,369.57 L 335.467,369.299 L 335.4,369.299 Z" marker-start="none" marker-end="none"/>
      </g>
     </g>
     <path d="M 343.124,367.159 L 343.124,366.248 L 345.635,366.248 L 345.635,367.159 L 343.124,367.159 Z" stroke="#4142ba" stroke-width="0.114" stroke-linejoin="miter" marker-start="none" marker-end="none" stroke-miterlimit="79.8403193612775"/>
     <path d="M 343.332,366.999 L 343.332,366.408 L 343.665,366.408 L 343.665,366.999 L 343.332,366.999 Z" stroke="#4142ba" fill="#4142ba" stroke-width="0.028" stroke-linejoin="miter" marker-start="none" marker-end="none" stroke-miterlimit="79.8403193612775"/>
     <path d="M 343.784,366.999 L 343.784,366.408 L 344.117,366.408 L 344.117,366.999 L 343.784,366.999 Z" stroke="#4142ba" fill="#4142ba" stroke-width="0.028" stroke-linejoin="miter" marker-start="none" marker-end="none" stroke-miterlimit="79.8403193612775"/>
     <path d="M 344.225,366.999 L 344.225,366.408 L 344.558,366.408 L 344.558,366.999 L 344.225,366.999 Z" stroke="#4142ba" fill="#4142ba" stroke-width="0.028" stroke-linejoin="miter" marker-start="none" marker-end="none" stroke-miterlimit="79.8403193612775"/>
     <path d="M 344.671,366.999 L 344.671,366.408 L 345.004,366.408 L 345.004,366.999 L 344.671,366.999 Z" stroke="#4142ba" fill="#4142ba" stroke-width="0.028" stroke-linejoin="miter" marker-start="none" marker-end="none" stroke-miterlimit="79.8403193612775"/>
     <path d="M 345.096,366.999 L 345.096,366.408 L 345.429,366.408 L 345.429,366.999 L 345.096,366.999 Z" stroke="#4142ba" fill="#4142ba" stroke-width="0.028" stroke-linejoin="miter" marker-start="none" marker-end="none" stroke-miterlimit="79.8403193612775"/>
     <path d="M 343.337,367.283 L 343.337,367.138 L 343.568,367.138 L 343.568,367.283 L 343.337,367.283 Z" stroke="#4142ba" fill="#4142ba" stroke-width="0.028" stroke-linejoin="miter" marker-start="none" marker-end="none" stroke-miterlimit="79.8403193612775"/>
     <path d="M 345.187,367.289 L 345.187,367.144 L 345.418,367.144 L 345.418,367.289 L 345.187,367.289 Z" stroke="#4142ba" fill="#4142ba" stroke-width="0.028" stroke-linejoin="miter" marker-start="none" marker-end="none" stroke-miterlimit="79.8403193612775"/>
     <path d="M 344.268,366.293 L 344.268,366.192 L 344.499,366.192 L 344.499,366.293 L 344.268,366.293 Z" stroke="#7f81ff" fill="#7f81ff" stroke-width="0.028" stroke-linejoin="miter" marker-start="none" marker-end="none" stroke-miterlimit="79.8403193612775"/>
     <g id="Group_4" fill-rule="nonzero" stroke="none" stroke-width="0.074" fill="#4142ba" stroke-miterlimit="79.8403193612775">
      <g id="Group_5">
       <path d="M 338.245,368.601 L 338.088,368.428 L 337.966,368.606 L 338.079,369.58 L 338.239,369.752 L 338.359,369.58 L 338.245,368.601 Z M 338.093,367.229 L 337.932,367.058 L 337.813,367.229 L 337.926,368.208 L 338.084,368.381 L 338.206,368.204 L 338.093,367.229 Z" marker-start="none" marker-end="none"/>
       <path d="M 338.776,369.283 L 338.615,369.108 L 338.496,369.285 L 338.507,369.382 L 338.667,369.553 L 338.787,369.382 L 338.776,369.283 Z M 339.621,369.581 L 339.461,369.405 L 338.812,369.405 L 338.689,369.58 L 338.849,369.752 L 339.502,369.752 L 339.621,369.581 Z M 339.67,368.604 L 339.51,368.428 L 339.39,368.604 L 339.477,369.382 L 339.637,369.553 L 339.757,369.382 L 339.67,368.604 Z M 339.491,368.405 L 339.33,368.229 L 338.678,368.229 L 338.556,368.405 L 338.716,368.576 L 339.371,368.576 L 339.491,368.405 Z M 338.567,367.428 L 338.246,367.081 L 338.374,368.214 L 338.535,368.388 L 338.655,368.21 L 338.567,367.428 Z M 339.477,367.058 L 338.265,367.058 L 338.583,367.405 L 339.238,367.405 L 339.477,367.058 Z" marker-start="none" marker-end="none"/>
       <path d="M 340.085,367.236 L 339.927,367.061 L 339.805,367.236 L 339.826,367.407 L 339.984,367.583 L 340.106,367.407 L 340.085,367.236 Z" marker-start="none" marker-end="none"/>
       <path d="M 340.571,368.606 L 340.41,368.428 L 340.29,368.601 L 340.376,369.382 L 340.536,369.553 L 340.656,369.382 L 340.571,368.606 Z M 340.436,367.428 L 340.275,367.256 L 340.156,367.428 L 340.243,368.207 L 340.404,368.381 L 340.523,368.205 L 340.436,367.428 Z M 341.224,367.229 L 341.063,367.058 L 340.414,367.058 L 340.292,367.229 L 340.452,367.405 L 341.104,367.405 L 341.224,367.229 Z M 341.406,367.428 L 341.245,367.256 L 341.126,367.428 L 341.211,368.204 L 341.371,368.381 L 341.491,368.209 L 341.406,367.428 Z M 341.538,368.603 L 341.378,368.428 L 341.258,368.605 L 341.346,369.382 L 341.506,369.553 L 341.626,369.382 L 341.538,368.603 Z M 341.49,369.581 L 341.33,369.405 L 340.68,369.405 L 340.558,369.581 L 340.718,369.752 L 341.371,369.752 L 341.49,369.581 Z M 341.357,368.405 L 341.197,368.229 L 340.542,368.229 L 340.422,368.405 L 340.582,368.576 L 341.237,368.576 L 341.357,368.405 Z" marker-start="none" marker-end="none"/>
       <path d="M 341.998,368.606 L 341.837,368.428 L 341.717,368.601 L 341.803,369.382 L 341.963,369.553 L 342.083,369.382 L 341.998,368.606 Z M 341.863,367.428 L 341.702,367.256 L 341.583,367.428 L 341.67,368.207 L 341.831,368.381 L 341.95,368.205 L 341.863,367.428 Z M 342.651,367.229 L 342.49,367.058 L 341.841,367.058 L 341.719,367.229 L 341.879,367.405 L 342.531,367.405 L 342.651,367.229 Z M 342.833,367.428 L 342.672,367.256 L 342.553,367.428 L 342.638,368.204 L 342.798,368.381 L 342.918,368.209 L 342.833,367.428 Z M 342.965,368.603 L 342.805,368.428 L 342.685,368.605 L 342.773,369.382 L 342.933,369.553 L 343.053,369.382 L 342.965,368.603 Z M 342.917,369.581 L 342.757,369.405 L 342.107,369.405 L 341.985,369.581 L 342.145,369.752 L 342.798,369.752 L 342.917,369.581 Z" marker-start="none" marker-end="none"/>
      </g>
     </g>
     <g id="Group_6" fill-rule="nonzero" stroke="none" stroke-width="0.03" fill="#4142ba" stroke-miterlimit="79.8403193612775">
      <g id="Group_7">
       <path d="M 344.708,368.818 L 344.397,369.688 L 344.588,369.688 L 344.808,369.044 L 345.021,369.688 L 345.207,369.688 L 344.896,368.818 L 344.708,368.818 Z" marker-start="none" marker-end="none"/>
      </g>
     </g>
     <path d="M 336.838,363.15 C 337.378,363.15 337.816,362.712 337.816,362.172 C 337.816,361.631 337.378,361.193 336.838,361.193 C 336.297,361.193 335.859,361.631 335.859,362.172 C 335.859,362.712 336.297,363.15 336.838,363.15 Z" stroke="#cccccc" stroke-width="0.31" marker-start="none" marker-end="none" stroke-miterlimit="79.8403193612775"/>
     <path d="M 343.165,363.15 C 343.705,363.15 344.143,362.712 344.143,362.172 C 344.143,361.631 343.705,361.193 343.165,361.193 C 342.624,361.193 342.186,361.631 342.186,362.172 C 342.186,362.712 342.624,363.15 343.165,363.15 Z" stroke="#cccccc" stroke-width="0.31" marker-start="none" marker-end="none" stroke-miterlimit="79.8403193612775"/>
     <path d="M 340.017,362.165 C 340.557,362.165 340.995,361.727 340.995,361.187 C 340.995,360.646 340.557,360.208 340.017,360.208 C 339.476,360.208 339.038,360.646 339.038,361.187 C 339.038,361.727 339.476,362.165 340.017,362.165 Z" stroke="#cccccc" stroke-width="0.31" marker-start="none" marker-end="none" stroke-miterlimit="79.8403193612775"/>
     <path d="M 340.017,364.4 C 340.557,364.4 340.995,363.962 340.995,363.422 C 340.995,362.881 340.557,362.443 340.017,362.443 C 339.476,362.443 339.038,362.881 339.038,363.422 C 339.038,363.962 339.476,364.4 340.017,364.4 Z" stroke="#cccccc" stroke-width="0.31" marker-start="none" marker-end="none" stroke-miterlimit="79.8403193612775"/>
     <path d="M 339.326,362.53 L 339.326,361.983 L 340.681,361.983 L 340.681,362.53 L 339.326,362.53 Z" stroke="none" fill="#cccccc" stroke-width="0.028" stroke-linejoin="miter" marker-start="none" marker-end="none" stroke-miterlimit="79.8403193612775"/>
     <g id="Group_8" fill-rule="nonzero" stroke="#cccccc" stroke-width="0.016" fill="#cccccc" stroke-miterlimit="79.8403193612775">
      <g id="Group_9">
       <path d="M 335.784,363.776 L 335.877,363.785 C 335.882,363.753 335.893,363.731 335.91,363.716 C 335.927,363.702 335.95,363.694 335.979,363.694 C 336.01,363.694 336.033,363.701 336.048,363.714 C 336.064,363.727 336.072,363.742 336.072,363.759 C 336.072,363.77 336.068,363.78 336.062,363.788 C 336.055,363.795 336.044,363.802 336.028,363.808 C 336.017,363.812 335.991,363.819 335.952,363.828 C 335.901,363.841 335.865,363.857 335.845,363.875 C 335.816,363.901 335.801,363.932 335.801,363.97 C 335.801,363.994 335.808,364.016 335.822,364.037 C 335.835,364.058 335.855,364.074 335.88,364.084 C 335.906,364.095 335.937,364.101 335.973,364.101 C 336.032,364.101 336.076,364.088 336.106,364.062 C 336.136,364.036 336.152,364.002 336.153,363.958 L 336.058,363.954 C 336.054,363.978 336.045,363.996 336.032,364.006 C 336.019,364.017 335.999,364.022 335.972,364.022 C 335.944,364.022 335.923,364.017 335.907,364.005 C 335.897,363.998 335.892,363.988 335.892,363.976 C 335.892,363.965 335.897,363.955 335.906,363.947 C 335.918,363.937 335.947,363.927 335.993,363.916 C 336.04,363.905 336.074,363.894 336.096,363.882 C 336.118,363.871 336.135,363.855 336.148,363.834 C 336.16,363.814 336.167,363.789 336.167,363.759 C 336.167,363.733 336.159,363.707 336.144,363.684 C 336.129,363.66 336.108,363.643 336.081,363.631 C 336.053,363.62 336.019,363.614 335.978,363.614 C 335.919,363.614 335.873,363.628 335.841,363.655 C 335.809,363.683 335.79,363.723 335.784,363.776 Z" marker-start="none" marker-end="none"/>
       <path d="M 336.246,363.623 L 336.246,364.093 L 336.595,364.093 L 336.595,364.013 L 336.341,364.013 L 336.341,363.909 L 336.577,363.909 L 336.577,363.83 L 336.341,363.83 L 336.341,363.702 L 336.604,363.702 L 336.604,363.623 L 336.246,363.623 Z" marker-start="none" marker-end="none"/>
       <path d="M 336.79,363.623 L 336.79,364.013 L 336.651,364.013 L 336.651,364.093 L 337.024,364.093 L 337.024,364.013 L 336.885,364.013 L 336.885,363.623 L 336.79,363.623 Z" marker-start="none" marker-end="none"/>
       <path d="M 337.085,364.093 L 337.18,364.093 L 337.18,363.838 C 337.18,363.798 337.181,363.771 337.183,363.759 C 337.187,363.74 337.197,363.725 337.212,363.713 C 337.227,363.701 337.248,363.696 337.275,363.696 C 337.302,363.696 337.322,363.701 337.336,363.712 C 337.35,363.723 337.358,363.737 337.361,363.753 C 337.363,363.769 337.365,363.795 337.365,363.833 L 337.365,364.093 L 337.46,364.093 L 337.46,363.846 C 337.46,363.789 337.457,363.749 337.452,363.726 C 337.447,363.703 337.437,363.683 337.424,363.667 C 337.41,363.651 337.391,363.638 337.368,363.629 C 337.345,363.619 337.315,363.614 337.278,363.614 C 337.233,363.614 337.199,363.62 337.176,363.63 C 337.152,363.64 337.134,363.654 337.121,363.67 C 337.107,363.687 337.098,363.704 337.094,363.723 C 337.088,363.75 337.085,363.789 337.085,363.842 L 337.085,364.093 Z" marker-start="none" marker-end="none"/>
       <path d="M 337.559,363.623 L 337.559,364.093 L 337.712,364.093 C 337.769,364.093 337.807,364.09 337.825,364.086 C 337.852,364.079 337.874,364.063 337.892,364.04 C 337.91,364.016 337.92,363.986 337.92,363.948 C 337.92,363.919 337.914,363.895 337.904,363.875 C 337.893,363.856 337.88,363.84 337.864,363.829 C 337.848,363.818 337.831,363.81 337.815,363.807 C 337.792,363.802 337.759,363.8 337.716,363.8 L 337.654,363.8 L 337.654,363.623 L 337.559,363.623 Z M 337.654,364.013 L 337.654,363.88 L 337.706,363.88 C 337.744,363.88 337.769,363.882 337.781,363.887 C 337.794,363.892 337.804,363.9 337.811,363.91 C 337.818,363.921 337.822,363.933 337.822,363.947 C 337.822,363.964 337.817,363.978 337.807,363.989 C 337.797,364 337.784,364.007 337.768,364.01 C 337.757,364.012 337.734,364.013 337.7,364.013 L 337.654,364.013 Z" marker-start="none" marker-end="none"/>
      </g>
     </g>
     <g id="Group_10" fill-rule="nonzero" stroke="#cccccc" stroke-width="0.016" fill="#cccccc" stroke-miterlimit="79.8403193612775">
      <g id="Group_11">
       <path d="M 341.886,363.812 L 341.979,363.821 C 341.984,363.789 341.995,363.767 342.012,363.752 C 342.029,363.738 342.052,363.73 342.081,363.73 C 342.112,363.73 342.135,363.737 342.15,363.75 C 342.166,363.763 342.174,363.778 342.174,363.795 C 342.174,363.806 342.17,363.816 342.164,363.824 C 342.157,363.831 342.146,363.838 342.13,363.844 C 342.119,363.848 342.093,363.855 342.054,363.864 C 342.003,363.877 341.967,363.893 341.947,363.911 C 341.918,363.937 341.903,363.968 341.903,364.006 C 341.903,364.03 341.91,364.052 341.924,364.073 C 341.937,364.094 341.957,364.11 341.982,364.12 C 342.008,364.131 342.039,364.137 342.075,364.137 C 342.134,364.137 342.178,364.124 342.208,364.098 C 342.238,364.072 342.254,364.038 342.255,363.994 L 342.16,363.99 C 342.156,364.014 342.147,364.032 342.134,364.042 C 342.121,364.053 342.101,364.058 342.074,364.058 C 342.046,364.058 342.025,364.053 342.009,364.041 C 341.999,364.034 341.994,364.024 341.994,364.012 C 341.994,364.001 341.999,363.991 342.008,363.983 C 342.02,363.973 342.049,363.963 342.095,363.952 C 342.142,363.941 342.176,363.93 342.198,363.918 C 342.22,363.907 342.237,363.891 342.25,363.87 C 342.262,363.85 342.269,363.825 342.269,363.795 C 342.269,363.769 342.261,363.743 342.246,363.72 C 342.231,363.696 342.21,363.679 342.183,363.667 C 342.155,363.656 342.121,363.65 342.08,363.65 C 342.021,363.65 341.975,363.664 341.943,363.691 C 341.911,363.719 341.892,363.759 341.886,363.812 Z" marker-start="none" marker-end="none"/>
       <path d="M 342.348,363.659 L 342.348,364.129 L 342.697,364.129 L 342.697,364.049 L 342.443,364.049 L 342.443,363.945 L 342.679,363.945 L 342.679,363.866 L 342.443,363.866 L 342.443,363.738 L 342.706,363.738 L 342.706,363.659 L 342.348,363.659 Z" marker-start="none" marker-end="none"/>
       <path d="M 342.789,363.659 L 342.789,364.125 L 342.884,364.125 L 342.884,363.738 L 343.12,363.738 L 343.12,363.659 L 342.789,363.659 Z" marker-start="none" marker-end="none"/>
       <path d="M 343.187,363.659 L 343.187,364.129 L 343.536,364.129 L 343.536,364.049 L 343.282,364.049 L 343.282,363.945 L 343.518,363.945 L 343.518,363.866 L 343.282,363.866 L 343.282,363.738 L 343.545,363.738 L 343.545,363.659 L 343.187,363.659 Z" marker-start="none" marker-end="none"/>
       <path d="M 343.926,363.831 L 344.018,363.802 C 344.004,363.751 343.981,363.713 343.948,363.688 C 343.915,363.663 343.873,363.65 343.823,363.65 C 343.76,363.65 343.709,363.672 343.669,363.714 C 343.629,363.757 343.609,363.815 343.609,363.889 C 343.609,363.968 343.629,364.029 343.669,364.072 C 343.71,364.115 343.763,364.137 343.829,364.137 C 343.886,364.137 343.933,364.12 343.969,364.086 C 343.99,364.066 344.006,364.037 344.017,363.999 L 343.923,363.977 C 343.917,364.001 343.906,364.02 343.888,364.034 C 343.871,364.049 343.849,364.056 343.824,364.056 C 343.789,364.056 343.761,364.043 343.739,364.018 C 343.717,363.993 343.706,363.953 343.706,363.897 C 343.706,363.837 343.717,363.795 343.739,363.769 C 343.76,363.744 343.788,363.732 343.822,363.732 C 343.847,363.732 343.869,363.74 343.887,363.756 C 343.905,363.772 343.918,363.797 343.926,363.831 Z" marker-start="none" marker-end="none"/>
       <path d="M 344.205,363.659 L 344.205,364.049 L 344.066,364.049 L 344.066,364.129 L 344.439,364.129 L 344.439,364.049 L 344.3,364.049 L 344.3,363.659 L 344.205,363.659 Z" marker-start="none" marker-end="none"/>
      </g>
     </g>
     <g id="Group_12" fill-rule="nonzero" stroke="none" stroke-width="0.019" fill="#cccccc" stroke-miterlimit="79.8403193612775">
      <g id="Group_13">
       <path d="M 339.91,363.008 L 339.91,363.301 L 339.615,363.301 L 339.615,363.503 L 339.91,363.503 L 339.91,363.796 L 340.107,363.796 L 340.107,363.503 L 340.403,363.503 L 340.403,363.301 L 340.107,363.301 L 340.107,363.008 L 339.91,363.008 Z" marker-start="none" marker-end="none"/>
      </g>
     </g>
     <g id="Group_14" fill-rule="nonzero" stroke="none" stroke-width="0.019" fill="#cccccc" stroke-miterlimit="79.8403193612775">
      <g id="Group_15">
       <path d="M 339.655,361.093 L 339.655,361.309 L 340.359,361.309 L 340.359,361.093 L 339.655,361.093 Z" marker-start="none" marker-end="none"/>
      </g>
     </g>
     <g id="Group_16" fill-rule="nonzero" stroke="none" stroke-width="0.014" fill="#cccccc" stroke-miterlimit="79.8403193612775">
      <g id="Group_17">
       <path d="M 337.884,374.704 L 338.036,374.704 C 338.066,374.704 338.088,374.703 338.103,374.7 C 338.118,374.697 338.131,374.691 338.142,374.682 C 338.154,374.673 338.164,374.661 338.172,374.646 C 338.179,374.631 338.183,374.615 338.183,374.596 C 338.183,374.576 338.178,374.557 338.169,374.54 C 338.159,374.524 338.146,374.511 338.13,374.503 C 338.153,374.495 338.171,374.482 338.183,374.463 C 338.196,374.445 338.202,374.423 338.202,374.398 C 338.202,374.379 338.198,374.36 338.19,374.341 C 338.182,374.323 338.171,374.308 338.157,374.297 C 338.143,374.286 338.126,374.279 338.106,374.276 C 338.093,374.275 338.062,374.274 338.013,374.274 L 337.884,374.274 L 337.884,374.704 Z M 337.961,374.633 L 337.961,374.533 L 338.011,374.533 C 338.041,374.533 338.059,374.534 338.067,374.535 C 338.08,374.536 338.09,374.541 338.097,374.55 C 338.105,374.559 338.109,374.57 338.109,374.584 C 338.109,374.597 338.105,374.608 338.099,374.616 C 338.093,374.624 338.083,374.63 338.07,374.631 C 338.063,374.632 338.041,374.633 338.005,374.633 L 337.961,374.633 Z M 337.961,374.461 L 337.961,374.346 L 338.032,374.346 C 338.059,374.346 338.077,374.347 338.084,374.349 C 338.096,374.351 338.105,374.357 338.112,374.366 C 338.119,374.375 338.123,374.387 338.123,374.403 C 338.123,374.415 338.12,374.426 338.114,374.435 C 338.109,374.444 338.101,374.451 338.09,374.455 C 338.08,374.459 338.057,374.461 338.023,374.461 L 337.961,374.461 Z" marker-start="none" marker-end="none"/>
       <path d="M 338.266,374.274 L 338.266,374.704 L 338.381,374.704 L 338.449,374.41 L 338.517,374.704 L 338.632,374.704 L 338.632,374.274 L 338.561,374.274 L 338.561,374.613 L 338.486,374.274 L 338.412,374.274 L 338.337,374.613 L 338.337,374.274 L 338.266,374.274 Z" marker-start="none" marker-end="none"/>
       <path d="M 338.806,374.274 L 338.67,374.704 L 338.753,374.704 L 338.849,374.386 L 338.942,374.704 L 339.023,374.704 L 338.887,374.274 L 338.806,374.274 Z" marker-start="none" marker-end="none"/>
       <path d="M 339.026,374.388 L 339.026,374.471 L 339.169,374.471 L 339.169,374.388 L 339.026,374.388 Z" marker-start="none" marker-end="none"/>
       <path d="M 339.196,374.622 L 339.196,374.699 L 339.444,374.699 L 339.444,374.639 C 339.424,374.616 339.403,374.583 339.382,374.54 C 339.361,374.497 339.345,374.451 339.333,374.403 C 339.322,374.355 339.317,374.312 339.317,374.274 L 339.247,374.274 C 339.248,374.333 339.259,374.394 339.279,374.456 C 339.3,374.518 339.327,374.573 339.361,374.622 L 339.196,374.622 Z" marker-start="none" marker-end="none"/>
       <path d="M 339.677,374.274 L 339.604,374.274 L 339.604,374.585 C 339.578,374.557 339.546,374.536 339.51,374.522 L 339.51,374.597 C 339.529,374.604 339.55,374.618 339.572,374.637 C 339.594,374.657 339.61,374.68 339.618,374.706 L 339.677,374.706 L 339.677,374.274 Z" marker-start="none" marker-end="none"/>
       <path d="M 340.031,374.35 L 340.031,374.274 L 339.777,374.274 C 339.779,374.303 339.788,374.33 339.802,374.356 C 339.815,374.382 339.843,374.416 339.883,374.459 C 339.916,374.494 339.936,374.517 339.943,374.53 C 339.953,374.547 339.958,374.564 339.958,374.58 C 339.958,374.599 339.954,374.613 339.945,374.623 C 339.937,374.633 339.925,374.638 339.909,374.638 C 339.894,374.638 339.882,374.633 339.873,374.622 C 339.864,374.612 339.859,374.595 339.858,374.57 L 339.785,374.579 C 339.79,374.624 339.803,374.657 339.826,374.677 C 339.849,374.696 339.877,374.706 339.911,374.706 C 339.949,374.706 339.978,374.695 339.999,374.672 C 340.021,374.649 340.031,374.62 340.031,374.586 C 340.031,374.567 340.028,374.548 340.022,374.531 C 340.016,374.513 340.006,374.495 339.993,374.476 C 339.984,374.463 339.968,374.445 339.946,374.421 C 339.923,374.397 339.908,374.381 339.902,374.373 C 339.896,374.365 339.891,374.358 339.887,374.35 L 340.031,374.35 Z" marker-start="none" marker-end="none"/>
       <path d="M 340.225,374.414 L 340.299,374.422 C 340.304,374.394 340.313,374.373 340.326,374.359 C 340.34,374.346 340.359,374.339 340.382,374.339 C 340.406,374.339 340.425,374.345 340.438,374.357 C 340.45,374.369 340.456,374.383 340.456,374.399 C 340.456,374.409 340.454,374.418 340.448,374.425 C 340.443,374.432 340.434,374.438 340.421,374.443 C 340.412,374.447 340.391,374.453 340.36,374.462 C 340.319,374.474 340.29,374.488 340.273,374.505 C 340.25,374.529 340.238,374.557 340.238,374.592 C 340.238,374.614 340.244,374.634 340.255,374.653 C 340.266,374.672 340.281,374.687 340.302,374.697 C 340.323,374.707 340.348,374.712 340.377,374.712 C 340.424,374.712 340.46,374.7 340.484,374.676 C 340.508,374.653 340.521,374.621 340.522,374.581 L 340.445,374.577 C 340.442,374.6 340.435,374.616 340.424,374.625 C 340.414,374.635 340.397,374.64 340.376,374.64 C 340.354,374.64 340.336,374.635 340.324,374.624 C 340.316,374.618 340.312,374.609 340.312,374.597 C 340.312,374.587 340.315,374.579 340.323,374.571 C 340.333,374.562 340.356,374.552 340.393,374.542 C 340.43,374.532 340.458,374.522 340.476,374.511 C 340.494,374.501 340.508,374.486 340.518,374.468 C 340.528,374.449 340.533,374.426 340.533,374.399 C 340.533,374.374 340.527,374.351 340.515,374.33 C 340.503,374.308 340.486,374.292 340.464,374.282 C 340.441,374.271 340.414,374.266 340.381,374.266 C 340.333,374.266 340.296,374.278 340.271,374.304 C 340.245,374.329 340.23,374.366 340.225,374.414 Z" marker-start="none" marker-end="none"/>
       <path d="M 340.597,374.274 L 340.597,374.704 L 340.712,374.704 L 340.78,374.41 L 340.848,374.704 L 340.963,374.704 L 340.963,374.274 L 340.892,374.274 L 340.892,374.613 L 340.817,374.274 L 340.743,374.274 L 340.668,374.613 L 340.668,374.274 L 340.597,374.274 Z" marker-start="none" marker-end="none"/>
       <path d="M 341.382,374.274 L 341.299,374.274 L 341.265,374.371 L 341.114,374.371 L 341.083,374.274 L 341.002,374.274 L 341.149,374.704 L 341.23,374.704 L 341.382,374.274 Z M 341.241,374.444 L 341.189,374.604 L 341.138,374.444 L 341.241,374.444 Z" marker-start="none" marker-end="none"/>
       <path d="M 341.423,374.274 L 341.423,374.704 L 341.584,374.704 C 341.625,374.704 341.654,374.701 341.673,374.693 C 341.691,374.685 341.706,374.671 341.717,374.652 C 341.728,374.632 341.733,374.609 341.733,374.584 C 341.733,374.551 341.725,374.525 341.708,374.504 C 341.692,374.482 341.667,374.469 341.633,374.464 C 341.65,374.453 341.663,374.441 341.674,374.428 C 341.685,374.414 341.7,374.391 341.718,374.358 L 341.764,374.274 L 341.673,374.274 L 341.617,374.367 C 341.598,374.401 341.584,374.422 341.577,374.431 C 341.57,374.439 341.562,374.445 341.554,374.449 C 341.546,374.452 341.533,374.453 341.515,374.453 L 341.5,374.453 L 341.5,374.274 L 341.423,374.274 Z M 341.5,374.522 L 341.556,374.522 C 341.593,374.522 341.616,374.524 341.625,374.527 C 341.634,374.531 341.642,374.537 341.647,374.546 C 341.652,374.554 341.654,374.565 341.654,374.578 C 341.654,374.593 341.651,374.604 341.644,374.613 C 341.637,374.622 341.628,374.628 341.615,374.63 C 341.609,374.631 341.591,374.632 341.56,374.632 L 341.5,374.632 L 341.5,374.522 Z" marker-start="none" marker-end="none"/>
       <path d="M 341.891,374.274 L 341.891,374.632 L 341.779,374.632 L 341.779,374.704 L 342.08,374.704 L 342.08,374.632 L 341.968,374.632 L 341.968,374.274 L 341.891,374.274 Z" marker-start="none" marker-end="none"/>
      </g>
      <g id="Group_18">
       <path d="M 337.467,374.031 L 337.619,374.031 C 337.649,374.031 337.671,374.03 337.686,374.027 C 337.701,374.024 337.714,374.018 337.725,374.009 C 337.737,374 337.747,373.988 337.755,373.973 C 337.762,373.958 337.766,373.942 337.766,373.923 C 337.766,373.903 337.761,373.884 337.752,373.867 C 337.742,373.851 337.729,373.838 337.713,373.83 C 337.736,373.822 337.754,373.809 337.766,373.79 C 337.779,373.772 337.785,373.75 337.785,373.725 C 337.785,373.706 337.781,373.687 337.773,373.668 C 337.765,373.65 337.754,373.635 337.74,373.624 C 337.726,373.613 337.709,373.606 337.689,373.603 C 337.676,373.602 337.645,373.601 337.596,373.601 L 337.467,373.601 L 337.467,374.031 Z M 337.544,373.96 L 337.544,373.86 L 337.594,373.86 C 337.624,373.86 337.642,373.861 337.65,373.862 C 337.663,373.863 337.673,373.868 337.68,373.877 C 337.688,373.886 337.692,373.897 337.692,373.911 C 337.692,373.924 337.688,373.935 337.682,373.943 C 337.676,373.951 337.666,373.957 337.653,373.958 C 337.646,373.959 337.624,373.96 337.588,373.96 L 337.544,373.96 Z M 337.544,373.788 L 337.544,373.673 L 337.615,373.673 C 337.642,373.673 337.66,373.674 337.667,373.676 C 337.679,373.678 337.688,373.684 337.695,373.693 C 337.702,373.702 337.706,373.714 337.706,373.73 C 337.706,373.742 337.703,373.753 337.697,373.762 C 337.692,373.771 337.684,373.778 337.673,373.782 C 337.663,373.786 337.64,373.788 337.606,373.788 L 337.544,373.788 Z" marker-start="none" marker-end="none"/>
       <path d="M 338.192,373.601 L 338.109,373.601 L 338.075,373.698 L 337.924,373.698 L 337.893,373.601 L 337.812,373.601 L 337.959,374.031 L 338.04,374.031 L 338.192,373.601 Z M 338.051,373.771 L 337.999,373.931 L 337.948,373.771 L 338.051,373.771 Z" marker-start="none" marker-end="none"/>
       <path d="M 338.28,373.601 L 338.28,373.959 L 338.168,373.959 L 338.168,374.031 L 338.469,374.031 L 338.469,373.959 L 338.357,373.959 L 338.357,373.601 L 338.28,373.601 Z" marker-start="none" marker-end="none"/>
       <path d="M 338.604,373.601 L 338.604,373.959 L 338.492,373.959 L 338.492,374.031 L 338.793,374.031 L 338.793,373.959 L 338.681,373.959 L 338.681,373.601 L 338.604,373.601 Z" marker-start="none" marker-end="none"/>
       <path d="M 338.843,373.601 L 338.843,374.031 L 339.124,374.031 L 339.124,373.959 L 338.92,373.959 L 338.92,373.863 L 339.11,373.863 L 339.11,373.79 L 338.92,373.79 L 338.92,373.673 L 339.131,373.673 L 339.131,373.601 L 338.843,373.601 Z" marker-start="none" marker-end="none"/>
       <path d="M 339.197,373.601 L 339.197,374.031 L 339.358,374.031 C 339.399,374.031 339.428,374.028 339.447,374.02 C 339.465,374.012 339.48,373.998 339.491,373.979 C 339.502,373.959 339.507,373.936 339.507,373.911 C 339.507,373.878 339.499,373.852 339.482,373.831 C 339.466,373.809 339.441,373.796 339.407,373.791 C 339.424,373.78 339.437,373.768 339.448,373.755 C 339.459,373.741 339.474,373.718 339.492,373.685 L 339.538,373.601 L 339.447,373.601 L 339.391,373.694 C 339.372,373.728 339.358,373.749 339.351,373.758 C 339.344,373.766 339.336,373.772 339.328,373.776 C 339.32,373.779 339.307,373.78 339.289,373.78 L 339.274,373.78 L 339.274,373.601 L 339.197,373.601 Z M 339.274,373.849 L 339.33,373.849 C 339.367,373.849 339.39,373.851 339.399,373.854 C 339.408,373.858 339.416,373.864 339.421,373.873 C 339.426,373.881 339.428,373.892 339.428,373.905 C 339.428,373.92 339.425,373.931 339.418,373.94 C 339.411,373.949 339.402,373.955 339.389,373.957 C 339.383,373.958 339.365,373.959 339.334,373.959 L 339.274,373.959 L 339.274,373.849 Z" marker-start="none" marker-end="none"/>
       <path d="M 339.661,373.601 L 339.661,373.782 L 339.522,374.031 L 339.611,374.031 L 339.701,373.861 L 339.788,374.031 L 339.876,374.031 L 339.737,373.781 L 339.737,373.601 L 339.661,373.601 Z" marker-start="none" marker-end="none"/>
       <path d="M 340.052,373.601 L 340.052,374.031 L 340.167,374.031 L 340.235,373.737 L 340.303,374.031 L 340.418,374.031 L 340.418,373.601 L 340.347,373.601 L 340.347,373.94 L 340.272,373.601 L 340.198,373.601 L 340.123,373.94 L 340.123,373.601 L 340.052,373.601 Z" marker-start="none" marker-end="none"/>
       <path d="M 340.48,373.813 C 340.48,373.857 340.485,373.894 340.497,373.924 C 340.505,373.946 340.517,373.966 340.532,373.983 C 340.547,374 340.563,374.013 340.581,374.022 C 340.605,374.033 340.632,374.039 340.663,374.039 C 340.719,374.039 340.763,374.019 340.797,373.98 C 340.83,373.94 340.847,373.886 340.847,373.815 C 340.847,373.746 340.831,373.691 340.797,373.652 C 340.764,373.613 340.72,373.593 340.664,373.593 C 340.608,373.593 340.563,373.613 340.529,373.652 C 340.496,373.691 340.48,373.745 340.48,373.813 Z M 340.558,373.816 C 340.558,373.767 340.568,373.73 340.588,373.705 C 340.608,373.68 340.633,373.668 340.664,373.668 C 340.694,373.668 340.719,373.68 340.739,373.705 C 340.758,373.73 340.768,373.767 340.768,373.817 C 340.768,373.867 340.759,373.904 340.74,373.928 C 340.72,373.952 340.695,373.964 340.664,373.964 C 340.632,373.964 340.607,373.952 340.587,373.928 C 340.568,373.903 340.558,373.866 340.558,373.816 Z" marker-start="none" marker-end="none"/>
       <path d="M 340.908,373.601 L 340.908,374.031 L 340.982,374.031 L 341.137,373.744 L 341.137,374.031 L 341.209,374.031 L 341.209,373.601 L 341.132,373.601 L 340.979,373.882 L 340.979,373.601 L 340.908,373.601 Z" marker-start="none" marker-end="none"/>
       <path d="M 341.288,373.601 L 341.288,374.031 L 341.364,374.031 L 341.364,373.601 L 341.288,373.601 Z" marker-start="none" marker-end="none"/>
       <path d="M 341.522,373.601 L 341.522,373.959 L 341.41,373.959 L 341.41,374.031 L 341.711,374.031 L 341.711,373.959 L 341.599,373.959 L 341.599,373.601 L 341.522,373.601 Z" marker-start="none" marker-end="none"/>
       <path d="M 341.737,373.813 C 341.737,373.857 341.742,373.894 341.754,373.924 C 341.762,373.946 341.774,373.966 341.789,373.983 C 341.804,374 341.82,374.013 341.838,374.022 C 341.862,374.033 341.889,374.039 341.92,374.039 C 341.976,374.039 342.02,374.019 342.054,373.98 C 342.087,373.94 342.104,373.886 342.104,373.815 C 342.104,373.746 342.088,373.691 342.054,373.652 C 342.021,373.613 341.977,373.593 341.921,373.593 C 341.865,373.593 341.82,373.613 341.786,373.652 C 341.753,373.691 341.737,373.745 341.737,373.813 Z M 341.815,373.816 C 341.815,373.767 341.825,373.73 341.845,373.705 C 341.865,373.68 341.89,373.668 341.921,373.668 C 341.951,373.668 341.976,373.68 341.996,373.705 C 342.015,373.73 342.025,373.767 342.025,373.817 C 342.025,373.867 342.016,373.904 341.997,373.928 C 341.977,373.952 341.952,373.964 341.921,373.964 C 341.889,373.964 341.864,373.952 341.844,373.928 C 341.825,373.903 341.815,373.866 341.815,373.816 Z" marker-start="none" marker-end="none"/>
       <path d="M 342.164,373.601 L 342.164,374.031 L 342.325,374.031 C 342.366,374.031 342.395,374.028 342.414,374.02 C 342.432,374.012 342.447,373.998 342.458,373.979 C 342.469,373.959 342.474,373.936 342.474,373.911 C 342.474,373.878 342.466,373.852 342.449,373.831 C 342.433,373.809 342.408,373.796 342.374,373.791 C 342.391,373.78 342.404,373.768 342.415,373.755 C 342.426,373.741 342.441,373.718 342.459,373.685 L 342.505,373.601 L 342.414,373.601 L 342.358,373.694 C 342.339,373.728 342.325,373.749 342.318,373.758 C 342.311,373.766 342.303,373.772 342.295,373.776 C 342.287,373.779 342.274,373.78 342.256,373.78 L 342.241,373.78 L 342.241,373.601 L 342.164,373.601 Z M 342.241,373.849 L 342.297,373.849 C 342.334,373.849 342.357,373.851 342.366,373.854 C 342.375,373.858 342.383,373.864 342.388,373.873 C 342.393,373.881 342.395,373.892 342.395,373.905 C 342.395,373.92 342.392,373.931 342.385,373.94 C 342.378,373.949 342.369,373.955 342.356,373.957 C 342.35,373.958 342.332,373.959 342.301,373.959 L 342.241,373.959 L 342.241,373.849 Z" marker-start="none" marker-end="none"/>
      </g>
     </g>
     <g id="Group_19">
      <path d="M 342.621,375.063 C 342.816,375.063 342.974,374.854 342.974,374.597 C 342.974,374.339 342.816,374.13 342.621,374.13 C 342.425,374.13 342.267,374.339 342.267,374.597 C 342.267,374.854 342.425,375.063 342.621,375.063 Z" stroke="none" fill="#3f40db" stroke-width="0.042" marker-start="none" marker-end="none" stroke-miterlimit="79.8403193612775"/>
      <g id="Group_20" stroke-linecap="round" stroke="#ffffff" stroke-width="0.086" fill="#1890f9" stroke-miterlimit="79.8403193612775">
       <path d="M 342.423,374.749 L 342.782,374.453" fill="none"/>
       <path d="M 342.776,374.448 L 342.602,374.275 L 342.602,374.693 L 342.602,374.915 L 342.778,374.777" fill="none"/>
       <path d="M 342.778,374.777 L 342.43,374.442" fill="none"/>
      </g>
     </g>
     <path d="M 335.419,372.544 C 335.419,372.544 335.222,372.622 335.022,372.461 C 335.022,372.461 334.785,372.302 334.741,371.63 C 334.741,371.63 334.728,371.519 334.827,371.502 C 334.827,371.502 334.926,371.483 334.939,371.567 C 334.952,371.651 334.95,372.074 335.138,372.292 C 335.138,372.292 335.156,372.319 335.206,372.34 C 335.247,372.366 335.28,372.413 335.305,372.45 C 335.305,372.45 335.341,372.499 335.419,372.544 L 335.419,372.544 Z" fill-rule="nonzero" stroke="none" fill="#00a5a5" marker-start="none" marker-end="none"/>
     <path d="M 335.775,372.56 C 335.775,372.56 335.6,372.616 335.411,372.471 C 335.411,372.471 335.187,372.335 335.135,371.79 C 335.135,371.79 335.116,371.656 335.126,371.588 C 335.126,371.588 335.135,371.508 335.217,371.501 C 335.217,371.501 335.316,371.493 335.322,371.586 C 335.328,371.679 335.33,371.716 335.33,371.716 C 335.33,371.716 335.346,372.078 335.493,372.262 C 335.493,372.262 335.528,372.235 335.528,372.235 C 335.528,372.235 335.578,372.425 335.775,372.56 C 335.775,372.56 335.775,372.56 335.775,372.56 L 335.775,372.56 Z" fill-rule="nonzero" stroke="none" fill="#00a5a5" marker-start="none" marker-end="none"/>
     <path d="M 336.131,372.56 C 336.131,372.56 335.897,372.615 335.727,372.43 C 335.727,372.43 335.558,372.28 335.508,371.906 C 335.508,371.906 335.487,371.706 335.484,371.608 C 335.484,371.608 335.482,371.513 335.573,371.501 C 335.573,371.501 335.667,371.495 335.673,371.595 C 335.673,371.595 335.679,372.052 335.849,372.262 C 335.849,372.262 335.891,372.235 335.891,372.235 C 335.891,372.235 335.964,372.447 336.131,372.56 C 336.131,372.56 336.131,372.56 336.131,372.56 L 336.131,372.56 Z" fill-rule="nonzero" stroke="none" fill="#00a5a5" marker-start="none" marker-end="none"/>
     <path d="M 336.402,372.565 C 336.402,372.565 336.165,372.575 336.026,372.336 C 336.026,372.336 335.866,372.103 335.867,371.624 C 335.867,371.625 335.857,371.511 335.946,371.501 C 335.946,371.501 336.051,371.494 336.051,371.615 C 336.051,371.615 336.056,372.087 336.236,372.277 C 336.236,372.277 336.396,372.086 336.409,371.636 C 336.409,371.636 336.414,371.327 336.472,371.157 C 336.472,371.157 336.524,371.348 336.534,371.612 C 336.534,371.612 336.53,371.66 336.572,371.694 C 336.572,371.694 336.599,371.708 336.594,371.756 C 336.594,371.756 336.556,372.149 336.425,372.372 C 336.425,372.372 336.702,372.39 336.757,371.835 C 336.757,371.835 336.758,371.753 336.803,371.703 C 336.803,371.703 336.836,371.68 336.839,371.623 C 336.839,371.623 336.847,371.544 336.823,371.29 C 336.823,371.29 336.818,371.234 336.842,371.155 C 336.842,371.155 336.911,371.345 336.893,371.531 C 336.893,371.531 336.884,371.682 336.959,371.733 C 336.959,371.733 336.952,372.154 336.785,372.385 C 336.785,372.385 336.652,372.576 336.402,372.565 C 336.402,372.565 336.402,372.565 336.402,372.565 L 336.402,372.565 Z" fill-rule="nonzero" stroke="none" fill="#00a5a5" marker-start="none" marker-end="none"/>
     <path d="M 337.228,370.658 C 337.228,370.658 337.425,370.581 337.625,370.741 C 337.625,370.741 337.862,370.9 337.906,371.572 C 337.906,371.572 337.919,371.684 337.821,371.7 C 337.821,371.7 337.721,371.719 337.708,371.635 C 337.695,371.552 337.697,371.128 337.51,370.911 C 337.51,370.911 337.492,370.883 337.442,370.862 C 337.4,370.836 337.367,370.789 337.342,370.752 C 337.342,370.752 337.306,370.704 337.228,370.658 L 337.228,370.658 Z" fill-rule="nonzero" stroke="none" fill="#00a5a5" marker-start="none" marker-end="none"/>
     <path d="M 336.872,370.642 C 336.872,370.642 337.047,370.587 337.236,370.731 C 337.236,370.731 337.46,370.868 337.512,371.412 C 337.512,371.412 337.532,371.547 337.521,371.615 C 337.521,371.615 337.512,371.694 337.43,371.701 C 337.43,371.701 337.332,371.709 337.326,371.616 C 337.319,371.524 337.317,371.486 337.317,371.486 C 337.317,371.486 337.302,371.124 337.155,370.941 C 337.155,370.941 337.119,370.967 337.119,370.967 C 337.119,370.967 337.069,370.777 336.872,370.642 C 336.872,370.642 336.872,370.642 336.872,370.642 L 336.872,370.642 Z" fill-rule="nonzero" stroke="none" fill="#00a5a5" marker-start="none" marker-end="none"/>
     <path d="M 336.516,370.642 C 336.516,370.642 336.751,370.588 336.921,370.772 C 336.921,370.772 337.089,370.923 337.139,371.296 C 337.139,371.296 337.16,371.497 337.163,371.594 C 337.163,371.594 337.165,371.689 337.074,371.701 C 337.074,371.701 336.98,371.707 336.974,371.608 C 336.974,371.608 336.968,371.15 336.799,370.941 C 336.799,370.941 336.757,370.967 336.757,370.967 C 336.757,370.967 336.683,370.756 336.516,370.642 C 336.516,370.642 336.516,370.642 336.516,370.642 L 336.516,370.642 Z" fill-rule="nonzero" stroke="none" fill="#00a5a5" marker-start="none" marker-end="none"/>
     <path d="M 336.246,370.637 C 336.246,370.637 336.482,370.628 336.621,370.866 C 336.621,370.866 336.781,371.099 336.78,371.578 C 336.78,371.578 336.79,371.691 336.701,371.701 C 336.701,371.701 336.596,371.708 336.596,371.588 C 336.596,371.588 336.591,371.116 336.411,370.925 C 336.411,370.925 336.252,371.116 336.239,371.567 C 336.239,371.567 336.233,371.875 336.176,372.045 C 336.176,372.045 336.124,371.855 336.113,371.59 C 336.113,371.59 336.117,371.542 336.075,371.508 C 336.075,371.508 336.048,371.494 336.053,371.446 C 336.053,371.446 336.092,371.053 336.223,370.831 C 336.223,370.831 335.945,370.813 335.89,371.368 C 335.89,371.368 335.89,371.449 335.845,371.499 C 335.845,371.499 335.812,371.523 335.808,371.58 C 335.808,371.58 335.8,371.658 335.824,371.912 C 335.824,371.912 335.829,371.968 335.805,372.047 C 335.805,372.047 335.736,371.857 335.754,371.671 C 335.754,371.671 335.764,371.521 335.689,371.47 C 335.689,371.47 335.695,371.048 335.862,370.818 C 335.862,370.818 335.995,370.627 336.246,370.637 C 336.246,370.637 336.246,370.637 336.246,370.637 L 336.246,370.637 Z" fill-rule="nonzero" stroke="none" fill="#00a5a5" marker-start="none" marker-end="none"/>
     <g id="Group_21" fill-rule="nonzero" stroke="none" fill="#cccccc">
      <path d="M 338.23,372.02 C 338.23,372.02 338.33,372.329 338.33,372.329 C 338.347,372.382 338.404,372.405 338.452,372.381 C 338.495,372.36 338.513,372.313 338.494,372.265 C 338.494,372.265 338.324,371.837 338.324,371.837 C 338.298,371.774 338.255,371.75 338.195,371.772 C 338.168,371.781 338.15,371.8 338.135,371.837 C 338.135,371.837 337.964,372.265 337.964,372.265 C 337.945,372.313 337.963,372.36 338.006,372.381 C 338.055,372.405 338.111,372.381 338.128,372.329 C 338.128,372.329 338.23,372.02 338.23,372.02 C 338.23,372.02 338.23,372.02 338.23,372.02 L 338.23,372.02 Z" marker-start="none" marker-end="none"/>
      <path d="M 338.563,372.617 C 338.602,372.656 338.666,372.655 338.705,372.615 C 338.744,372.576 338.744,372.514 338.705,372.474 C 338.666,372.435 338.602,372.435 338.564,372.473 C 338.545,372.492 338.533,372.518 338.533,372.545 C 338.533,372.571 338.545,372.597 338.563,372.617 C 338.563,372.617 338.563,372.617 338.563,372.617 L 338.563,372.617 Z M 338.547,372.303 C 338.547,372.326 338.556,372.349 338.573,372.365 C 338.607,372.4 338.662,372.399 338.696,372.365 C 338.712,372.348 338.721,372.325 338.721,372.303 C 338.721,372.303 338.721,371.851 338.721,371.851 C 338.722,371.802 338.684,371.764 338.635,371.763 C 338.587,371.763 338.547,371.802 338.547,371.85 C 338.547,371.85 338.547,372.303 338.547,372.303 C 338.547,372.303 338.547,372.303 338.547,372.303 L 338.547,372.303 Z" marker-start="none" marker-end="none"/>
      <path d="M 339.144,372.39 C 339.274,372.375 339.317,372.318 339.302,372.261 C 339.293,372.222 339.265,372.2 339.231,372.201 C 339.226,372.202 339.22,372.202 339.214,372.203 C 339.214,372.203 339.205,372.207 339.205,372.207 C 339.205,372.207 339.189,372.212 339.189,372.212 C 339.189,372.212 339.178,372.216 339.178,372.216 C 339.178,372.216 339.162,372.221 339.162,372.221 C 339.057,372.255 338.973,372.193 338.974,372.074 C 338.976,371.956 339.062,371.898 339.174,371.935 C 339.174,371.935 339.193,371.942 339.193,371.942 C 339.193,371.942 339.201,371.946 339.201,371.946 C 339.252,371.964 339.297,371.939 339.305,371.886 C 339.312,371.842 339.282,371.801 339.201,371.775 C 339.18,371.768 339.159,371.764 339.136,371.761 C 338.942,371.743 338.795,371.879 338.798,372.079 C 338.8,372.28 338.95,372.411 339.144,372.39 C 339.144,372.39 339.144,372.39 339.144,372.39 L 339.144,372.39 Z" marker-start="none" marker-end="none"/>
      <path d="M 339.432,372.383 C 339.432,372.383 339.431,372.483 339.431,372.483 C 339.431,372.531 339.469,372.57 339.518,372.57 C 339.565,372.57 339.605,372.531 339.604,372.483 C 339.604,372.483 339.604,372.383 339.604,372.383 C 339.604,372.383 339.656,372.383 339.656,372.383 C 339.676,372.383 339.696,372.375 339.711,372.359 C 339.742,372.33 339.742,372.28 339.711,372.249 C 339.695,372.235 339.676,372.227 339.655,372.227 C 339.655,372.227 339.604,372.227 339.604,372.227 C 339.604,372.227 339.604,371.852 339.604,371.852 C 339.604,371.829 339.595,371.807 339.579,371.79 C 339.545,371.756 339.491,371.756 339.458,371.79 C 339.441,371.807 339.432,371.829 339.432,371.852 C 339.432,371.852 339.433,372.228 339.433,372.228 C 339.433,372.228 339.403,372.228 339.403,372.228 C 339.381,372.228 339.361,372.236 339.345,372.252 C 339.315,372.281 339.315,372.33 339.346,372.36 C 339.361,372.375 339.381,372.383 339.403,372.383 C 339.403,372.383 339.432,372.383 339.432,372.383 C 339.432,372.383 339.432,372.383 339.432,372.383 L 339.432,372.383 Z" marker-start="none" marker-end="none"/>
      <path d="M 339.767,372.306 C 339.767,372.348 339.802,372.386 339.856,372.39 C 339.91,372.394 339.942,372.36 339.94,372.327 C 339.94,372.327 339.939,372.318 339.939,372.318 C 339.944,372.324 339.948,372.33 339.954,372.334 C 340.02,372.406 340.096,372.405 340.131,372.353 C 340.162,372.308 340.146,372.256 340.1,372.237 C 340.1,372.237 340.091,372.233 340.091,372.233 C 340.091,372.233 340.068,372.225 340.068,372.225 C 340.045,372.217 340.029,372.209 340.016,372.201 C 339.96,372.168 339.941,372.139 339.941,372.11 C 339.941,372.11 339.941,371.851 339.941,371.851 C 339.941,371.803 339.903,371.764 339.854,371.764 C 339.806,371.764 339.767,371.802 339.767,371.85 C 339.767,371.85 339.767,372.306 339.767,372.306 C 339.767,372.306 339.767,372.306 339.767,372.306 L 339.767,372.306 Z" marker-start="none" marker-end="none"/>
      <path d="M 340.315,372.051 C 340.33,371.947 340.391,371.9 340.465,371.917 C 340.515,371.928 340.552,371.973 340.561,372.049 C 340.563,372.068 340.563,372.086 340.561,372.104 C 340.551,372.178 340.512,372.222 340.465,372.233 C 340.393,372.248 340.328,372.203 340.315,372.103 C 340.314,372.093 340.314,372.084 340.314,372.075 C 340.314,372.066 340.314,372.059 340.315,372.051 C 340.315,372.051 340.315,372.051 340.315,372.051 L 340.315,372.051 Z M 340.184,372.246 C 340.24,372.34 340.336,372.394 340.439,372.394 C 340.603,372.394 340.737,372.259 340.738,372.078 C 340.738,371.896 340.604,371.76 340.439,371.76 C 340.273,371.76 340.14,371.896 340.14,372.078 C 340.14,372.143 340.154,372.199 340.184,372.246 C 340.184,372.246 340.184,372.246 340.184,372.246 L 340.184,372.246 Z" marker-start="none" marker-end="none"/>
      <path d="M 340.813,372.301 C 340.813,372.344 340.849,372.385 340.9,372.39 C 340.946,372.394 340.978,372.365 340.978,372.333 C 340.978,372.333 340.978,372.326 340.978,372.326 C 341.005,372.359 341.042,372.381 341.095,372.39 C 341.123,372.395 341.152,372.395 341.179,372.391 C 341.298,372.371 341.364,372.292 341.364,372.174 C 341.364,372.174 341.364,371.85 341.364,371.85 C 341.364,371.801 341.326,371.763 341.278,371.761 C 341.229,371.761 341.19,371.8 341.19,371.848 C 341.19,371.848 341.19,372.144 341.19,372.144 C 341.19,372.171 341.179,372.197 341.16,372.217 C 341.12,372.257 341.056,372.257 341.016,372.218 C 340.997,372.197 340.987,372.173 340.987,372.145 C 340.987,372.145 340.987,371.85 340.987,371.85 C 340.987,371.802 340.947,371.763 340.899,371.764 C 340.851,371.764 340.813,371.803 340.813,371.851 C 340.813,371.851 340.813,372.301 340.813,372.301 C 340.813,372.301 340.813,372.301 340.813,372.301 L 340.813,372.301 Z" marker-start="none" marker-end="none"/>
      <path d="M 342.167,372.134 C 342.166,372.137 342.166,372.142 342.165,372.145 C 342.147,372.228 342.088,372.266 342.021,372.251 C 341.979,372.24 341.943,372.204 341.929,372.148 C 341.928,372.143 341.928,372.139 341.926,372.134 C 341.926,372.134 342.167,372.134 342.167,372.134 C 342.167,372.134 342.167,372.134 342.167,372.134 L 342.167,372.134 Z M 341.931,372.022 C 341.935,372.001 341.945,371.98 341.96,371.961 C 342.006,371.906 342.091,371.892 342.187,371.943 C 342.243,371.974 342.258,371.976 342.288,371.965 C 342.305,371.958 342.318,371.944 342.325,371.928 C 342.35,371.866 342.274,371.761 342.062,371.76 C 341.846,371.76 341.703,371.939 341.752,372.153 C 341.781,372.278 341.874,372.367 341.992,372.388 C 342.127,372.413 342.256,372.344 342.313,372.216 C 342.327,372.181 342.336,372.144 342.339,372.117 C 342.345,372.047 342.323,372.022 342.265,372.022 C 342.265,372.022 341.931,372.022 341.931,372.022 C 341.931,372.022 341.931,372.022 341.931,372.022 L 341.931,372.022 Z" marker-start="none" marker-end="none"/>
      <path d="M 342.403,372.301 C 342.403,372.344 342.439,372.385 342.49,372.39 C 342.536,372.394 342.568,372.365 342.568,372.333 C 342.568,372.333 342.568,372.326 342.568,372.326 C 342.595,372.359 342.632,372.381 342.685,372.39 C 342.713,372.395 342.742,372.395 342.769,372.391 C 342.888,372.371 342.954,372.292 342.954,372.174 C 342.954,372.174 342.954,371.85 342.954,371.85 C 342.954,371.801 342.916,371.763 342.868,371.761 C 342.82,371.761 342.78,371.8 342.78,371.848 C 342.78,371.848 342.78,372.144 342.78,372.144 C 342.78,372.171 342.769,372.197 342.75,372.217 C 342.71,372.257 342.646,372.257 342.606,372.218 C 342.587,372.197 342.577,372.173 342.577,372.145 C 342.577,372.145 342.577,371.85 342.577,371.85 C 342.577,371.802 342.537,371.763 342.489,371.764 C 342.441,371.764 342.403,371.803 342.403,371.851 C 342.403,371.851 342.403,372.301 342.403,372.301 C 342.403,372.301 342.403,372.301 342.403,372.301 L 342.403,372.301 Z" marker-start="none" marker-end="none"/>
      <path d="M 343.452,372.134 C 343.451,372.137 343.451,372.142 343.45,372.145 C 343.432,372.228 343.373,372.266 343.306,372.251 C 343.265,372.24 343.228,372.204 343.214,372.148 C 343.213,372.143 343.213,372.139 343.211,372.134 C 343.211,372.134 343.452,372.134 343.452,372.134 C 343.452,372.134 343.452,372.134 343.452,372.134 L 343.452,372.134 Z M 343.216,372.022 C 343.221,372.001 343.231,371.98 343.245,371.961 C 343.292,371.906 343.376,371.892 343.472,371.943 C 343.528,371.974 343.544,371.976 343.573,371.965 C 343.59,371.958 343.603,371.944 343.61,371.928 C 343.635,371.866 343.559,371.761 343.347,371.76 C 343.131,371.76 342.988,371.939 343.038,372.153 C 343.066,372.278 343.159,372.367 343.277,372.388 C 343.413,372.413 343.541,372.344 343.598,372.216 C 343.612,372.181 343.621,372.144 343.624,372.117 C 343.63,372.047 343.608,372.022 343.55,372.022 C 343.55,372.022 343.216,372.022 343.216,372.022 C 343.216,372.022 343.216,372.022 343.216,372.022 L 343.216,372.022 Z" marker-start="none" marker-end="none"/>
      <path d="M 343.688,372.306 C 343.688,372.348 343.723,372.386 343.776,372.39 C 343.83,372.394 343.863,372.36 343.861,372.327 C 343.861,372.327 343.859,372.318 343.859,372.318 C 343.864,372.324 343.869,372.33 343.874,372.334 C 343.941,372.406 344.017,372.405 344.051,372.353 C 344.082,372.308 344.066,372.256 344.021,372.237 C 344.021,372.237 344.012,372.233 344.012,372.233 C 344.012,372.233 343.988,372.225 343.988,372.225 C 343.966,372.217 343.95,372.209 343.936,372.201 C 343.881,372.168 343.862,372.139 343.862,372.11 C 343.862,372.11 343.862,371.851 343.862,371.851 C 343.862,371.803 343.823,371.764 343.775,371.764 C 343.726,371.764 343.688,371.802 343.688,371.85 C 343.688,371.85 343.688,372.306 343.688,372.306 C 343.688,372.306 343.688,372.306 343.688,372.306 L 343.688,372.306 Z" marker-start="none" marker-end="none"/>
      <path d="M 344.269,371.961 C 344.318,371.903 344.407,371.904 344.452,371.965 C 344.473,371.992 344.483,372.025 344.484,372.072 C 344.484,372.149 344.456,372.197 344.411,372.22 C 344.335,372.257 344.25,372.208 344.237,372.105 C 344.235,372.095 344.234,372.083 344.234,372.073 C 344.234,372.026 344.248,371.989 344.269,371.961 C 344.269,371.961 344.269,371.961 344.269,371.961 L 344.269,371.961 Z M 344.488,372.331 C 344.49,372.364 344.521,372.393 344.568,372.388 C 344.618,372.384 344.655,372.343 344.655,372.299 C 344.655,372.299 344.655,371.846 344.655,371.846 C 344.655,371.62 344.521,371.497 344.286,371.522 C 344.239,371.528 344.196,371.539 344.155,371.557 C 344.072,371.595 344.057,371.654 344.098,371.697 C 344.12,371.722 344.148,371.728 344.187,371.715 C 344.187,371.715 344.188,371.714 344.188,371.714 C 344.188,371.714 344.223,371.698 344.223,371.698 C 344.231,371.695 344.239,371.691 344.247,371.689 C 344.395,371.636 344.479,371.697 344.483,371.81 C 344.484,371.818 344.483,371.826 344.483,371.834 C 344.418,371.742 344.259,371.726 344.15,371.835 C 344.08,371.905 344.045,372.02 344.067,372.145 C 344.075,372.191 344.09,372.229 344.11,372.262 C 344.206,372.417 344.4,372.431 344.488,372.323 C 344.488,372.323 344.488,372.331 344.488,372.331 C 344.488,372.331 344.488,372.331 344.488,372.331 L 344.488,372.331 Z" marker-start="none" marker-end="none"/>
      <path d="M 344.752,372.382 C 344.8,372.402 344.85,372.379 344.87,372.324 C 344.87,372.324 344.978,372.034 344.978,372.034 C 344.978,372.034 345.089,372.325 345.089,372.325 C 345.111,372.381 345.162,372.403 345.209,372.381 C 345.252,372.36 345.27,372.312 345.252,372.268 C 345.252,372.268 344.971,371.578 344.971,371.578 C 344.947,371.521 344.9,371.499 344.852,371.519 C 344.807,371.538 344.788,371.586 344.807,371.633 C 344.807,371.633 344.888,371.82 344.888,371.82 C 344.888,371.82 344.704,372.271 344.704,372.271 C 344.687,372.314 344.708,372.364 344.752,372.382 C 344.752,372.382 344.752,372.382 344.752,372.382 L 344.752,372.382 Z" marker-start="none" marker-end="none"/>
      <path d="M 339.209,371.399 C 339.217,371.392 339.221,371.382 339.221,371.367 C 339.221,371.352 339.217,371.341 339.208,371.334 C 339.2,371.326 339.186,371.323 339.167,371.323 C 339.162,371.323 339.154,371.323 339.143,371.325 C 339.143,371.325 339.143,371.409 339.143,371.409 C 339.143,371.409 339.168,371.409 339.168,371.409 C 339.187,371.409 339.201,371.406 339.209,371.399 C 339.209,371.399 339.209,371.399 339.209,371.399 L 339.209,371.399 Z M 339.232,371.316 C 339.246,371.328 339.253,371.343 339.253,371.363 C 339.253,371.379 339.249,371.393 339.241,371.402 C 339.233,371.412 339.22,371.419 339.203,371.423 C 339.212,371.425 339.221,371.431 339.228,371.439 C 339.236,371.447 339.24,371.457 339.24,371.467 C 339.24,371.484 339.234,371.498 339.222,371.507 C 339.21,371.517 339.193,371.521 339.171,371.521 C 339.159,371.521 339.14,371.521 339.113,371.519 C 339.113,371.519 339.113,371.299 339.113,371.299 C 339.113,371.299 339.176,371.299 339.176,371.299 C 339.199,371.299 339.218,371.305 339.232,371.316 C 339.232,371.316 339.232,371.316 339.232,371.316 L 339.232,371.316 Z M 339.17,371.496 C 339.196,371.496 339.209,371.486 339.209,371.466 C 339.209,371.443 339.195,371.431 339.167,371.431 C 339.157,371.431 339.15,371.431 339.143,371.432 C 339.143,371.432 339.143,371.495 339.143,371.495 C 339.151,371.496 339.16,371.496 339.17,371.496 C 339.17,371.496 339.17,371.496 339.17,371.496 L 339.17,371.496 Z" marker-start="none" marker-end="none"/>
      <path d="M 339.695,371.299 C 339.695,371.299 339.565,371.299 339.565,371.299 C 339.565,371.299 339.565,371.519 339.565,371.519 C 339.565,371.519 339.595,371.519 339.595,371.519 C 339.595,371.519 339.595,371.326 339.595,371.326 C 339.595,371.326 339.695,371.326 339.695,371.326 C 339.695,371.326 339.695,371.299 339.695,371.299 C 339.695,371.299 339.695,371.299 339.695,371.299 L 339.695,371.299 Z" marker-start="none" marker-end="none"/>
      <path d="M 339.998,371.366 C 339.998,371.366 339.998,371.519 339.998,371.519 C 339.998,371.519 340.028,371.519 340.028,371.519 C 340.028,371.519 340.028,371.368 340.028,371.368 C 340.028,371.355 340.032,371.344 340.041,371.335 C 340.05,371.327 340.061,371.322 340.075,371.322 C 340.09,371.322 340.101,371.326 340.11,371.335 C 340.118,371.343 340.123,371.355 340.123,371.369 C 340.123,371.369 340.123,371.519 340.123,371.519 C 340.123,371.519 340.153,371.519 340.153,371.519 C 340.153,371.519 340.153,371.366 340.153,371.366 C 340.153,371.344 340.146,371.326 340.132,371.314 C 340.118,371.301 340.099,371.295 340.075,371.295 C 340.051,371.295 340.032,371.301 340.018,371.314 C 340.005,371.326 339.998,371.343 339.998,371.366 C 339.998,371.366 339.998,371.366 339.998,371.366 L 339.998,371.366 Z" marker-start="none" marker-end="none"/>
      <path d="M 340.658,371.492 C 340.658,371.492 340.557,371.492 340.557,371.492 C 340.557,371.492 340.557,371.431 340.557,371.431 C 340.557,371.431 340.629,371.431 340.629,371.431 C 340.629,371.431 340.629,371.405 340.629,371.405 C 340.629,371.405 340.557,371.405 340.557,371.405 C 340.557,371.405 340.557,371.326 340.557,371.326 C 340.557,371.326 340.657,371.326 340.657,371.326 C 340.657,371.326 340.657,371.299 340.657,371.299 C 340.657,371.299 340.527,371.299 340.527,371.299 C 340.527,371.299 340.527,371.519 340.527,371.519 C 340.527,371.519 340.658,371.519 340.658,371.519 C 340.658,371.519 340.658,371.492 340.658,371.492 C 340.658,371.492 340.658,371.492 340.658,371.492 L 340.658,371.492 Z" marker-start="none" marker-end="none"/>
      <path d="M 341.391,371.382 C 341.448,371.382 341.476,371.407 341.476,371.457 C 341.476,371.499 341.444,371.521 341.38,371.521 C 341.376,371.521 341.362,371.52 341.339,371.519 C 341.339,371.519 341.339,371.299 341.339,371.299 C 341.339,371.299 341.369,371.299 341.369,371.299 C 341.369,371.299 341.369,371.384 341.369,371.384 C 341.381,371.383 341.388,371.382 341.391,371.382 C 341.391,371.382 341.391,371.382 341.391,371.382 L 341.391,371.382 Z M 341.386,371.494 C 341.425,371.494 341.445,371.48 341.445,371.453 C 341.445,371.424 341.427,371.409 341.389,371.409 C 341.389,371.409 341.382,371.41 341.369,371.411 C 341.369,371.411 341.369,371.492 341.369,371.492 C 341.376,371.493 341.382,371.494 341.386,371.494 C 341.386,371.494 341.386,371.494 341.386,371.494 L 341.386,371.494 Z" marker-start="none" marker-end="none"/>
      <path d="M 341.801,371.328 C 341.817,371.306 341.839,371.295 341.866,371.295 C 341.897,371.295 341.92,371.305 341.937,371.326 C 341.953,371.346 341.961,371.375 341.961,371.411 C 341.961,371.446 341.953,371.474 341.937,371.494 C 341.92,371.513 341.897,371.523 341.866,371.523 C 341.839,371.523 341.818,371.513 341.802,371.491 C 341.786,371.47 341.778,371.443 341.778,371.411 C 341.778,371.377 341.785,371.349 341.801,371.328 C 341.801,371.328 341.801,371.328 341.801,371.328 L 341.801,371.328 Z M 341.824,371.473 C 341.834,371.489 341.848,371.496 341.866,371.496 C 341.908,371.496 341.93,371.468 341.93,371.411 C 341.93,371.383 341.924,371.361 341.913,371.346 C 341.903,371.33 341.887,371.322 341.866,371.322 C 341.848,371.322 341.834,371.331 341.824,371.348 C 341.814,371.365 341.809,371.386 341.809,371.411 C 341.809,371.437 341.814,371.458 341.824,371.473 C 341.824,371.473 341.824,371.473 341.824,371.473 L 341.824,371.473 Z" marker-start="none" marker-end="none"/>
      <path d="M 342.511,371.519 C 342.511,371.519 342.442,371.296 342.442,371.296 C 342.442,371.296 342.433,371.296 342.433,371.296 C 342.433,371.296 342.38,371.448 342.38,371.448 C 342.38,371.448 342.331,371.296 342.331,371.296 C 342.331,371.296 342.322,371.296 342.322,371.296 C 342.322,371.296 342.252,371.519 342.252,371.519 C 342.252,371.519 342.284,371.519 342.284,371.519 C 342.284,371.519 342.328,371.365 342.328,371.365 C 342.328,371.365 342.376,371.519 342.376,371.519 C 342.376,371.519 342.387,371.519 342.387,371.519 C 342.387,371.519 342.435,371.366 342.435,371.366 C 342.435,371.366 342.48,371.519 342.48,371.519 C 342.48,371.519 342.511,371.519 342.511,371.519 C 342.511,371.519 342.511,371.519 342.511,371.519 L 342.511,371.519 Z" marker-start="none" marker-end="none"/>
      <path d="M 342.944,371.492 C 342.944,371.492 342.843,371.492 342.843,371.492 C 342.843,371.492 342.843,371.431 342.843,371.431 C 342.843,371.431 342.916,371.431 342.916,371.431 C 342.916,371.431 342.916,371.405 342.916,371.405 C 342.916,371.405 342.843,371.405 342.843,371.405 C 342.843,371.405 342.843,371.326 342.843,371.326 C 342.843,371.326 342.943,371.326 342.943,371.326 C 342.943,371.326 342.943,371.299 342.943,371.299 C 342.943,371.299 342.813,371.299 342.813,371.299 C 342.813,371.299 342.813,371.519 342.813,371.519 C 342.813,371.519 342.944,371.519 342.944,371.519 C 342.944,371.519 342.944,371.492 342.944,371.492 C 342.944,371.492 342.944,371.492 342.944,371.492 L 342.944,371.492 Z" marker-start="none" marker-end="none"/>
      <path d="M 343.348,371.4 C 343.36,371.403 343.37,371.41 343.378,371.421 C 343.387,371.432 343.391,371.444 343.391,371.458 C 343.391,371.5 343.365,371.522 343.312,371.522 C 343.305,371.522 343.295,371.521 343.28,371.521 C 343.266,371.52 343.258,371.519 343.257,371.519 C 343.257,371.519 343.257,371.299 343.257,371.299 C 343.257,371.299 343.287,371.299 343.287,371.299 C 343.287,371.299 343.287,371.395 343.287,371.395 C 343.301,371.394 343.312,371.394 343.319,371.394 C 343.319,371.394 343.377,371.299 343.377,371.299 C 343.377,371.299 343.412,371.299 343.412,371.299 C 343.412,371.299 343.348,371.4 343.348,371.4 C 343.348,371.4 343.348,371.4 343.348,371.4 L 343.348,371.4 Z M 343.305,371.494 C 343.323,371.494 343.337,371.491 343.346,371.486 C 343.355,371.48 343.36,371.471 343.36,371.459 C 343.36,371.444 343.355,371.434 343.347,371.428 C 343.339,371.422 343.326,371.419 343.308,371.419 C 343.301,371.419 343.294,371.419 343.287,371.421 C 343.287,371.421 343.287,371.492 343.287,371.492 C 343.296,371.493 343.301,371.494 343.305,371.494 C 343.305,371.494 343.305,371.494 343.305,371.494 L 343.305,371.494 Z" marker-start="none" marker-end="none"/>
     </g>
    </g>
   </g>
  </g>
 </g>
</svg>
