<?xml version="1.0" standalone="no"?>
<!DOCTYPE svg PUBLIC "-//W3C//DTD SVG 1.1//EN" "http://www.w3.org/Graphics/SVG/1.1/DTD/svg11.dtd">
<!--Generator: Xara Xtreme (www.xara.com), SVG filter version: 1.0.0.13-->
<svg stroke-width="0.501" stroke-linejoin="bevel" fill-rule="evenodd" xmlns:xlink="http://www.w3.org/1999/xlink" xmlns="http://www.w3.org/2000/svg" version="1.1" overflow="visible" width="841.891pt" height="595.277pt" viewBox="0 0 841.891 595.277">
 <defs>
  <marker id="DefaultArrow2" markerUnits="strokeWidth" viewBox="0 0 1 1" markerWidth="1" markerHeight="1" overflow="visible" orient="auto">
   <!-- REF_ARROW_STRAIGHT (-2) -->
   <g transform="scale(0.0092592592)">
    <!-- 1/108 -->
    <path d="M -9 54 L -9 -54 L 117 0 z"/>
   </g>
  </marker>
  <marker id="DefaultArrow3" markerUnits="strokeWidth" viewBox="0 0 1 1" markerWidth="1" markerHeight="1" overflow="visible" orient="auto">
   <!-- REF_ARROW_ANGLED -->
   <g transform="scale(0.0092592592)">
    <path d="M -27 54 L -9 0 L -27 -54 L 135 0 z"/>
   </g>
  </marker>
  <marker id="DefaultArrow4" markerUnits="strokeWidth" viewBox="0 0 1 1" markerWidth="1" markerHeight="1" overflow="visible" orient="auto">
   <!-- REF_ARROW_ROUNDED -->
   <g transform="scale(0.0092592592)">
    <path d="M -9,0 L -9,-45 C -9,-51.708 2.808,-56.580 9,-54 L 117,-9 C 120.916,-7.369 126.000,-4.242 126,0 C 126,4.242 120.916,7.369 117,9 L 9,54 C 2.808,56.580 -9,51.708 -9,45 z"/>
   </g>
  </marker>
  <marker id="DefaultArrow5" markerUnits="strokeWidth" viewBox="0 0 1 1" markerWidth="1" markerHeight="1" overflow="visible" orient="auto">
   <!-- REF_ARROW_SPOT -->
   <g transform="scale(0.0092592592)">
    <path d="M -54, 0 C -54,29.807 -29.807,54 0,54 C 29.807,54 54,29.807 54,0 C 54,-29.807 29.807,-54 0,-54 C -29.807,-54 -54,-29.807 -54,0 z"/>
   </g>
  </marker>
  <marker id="DefaultArrow6" markerUnits="strokeWidth" viewBox="0 0 1 1" markerWidth="1" markerHeight="1" overflow="visible" orient="auto">
   <!-- REF_ARROW_DIAMOND -->
   <g transform="scale(0.0092592592)">
    <path d="M -63,0 L 0,63 L 63,0 L 0,-63 z"/>
   </g>
  </marker>
  <marker id="DefaultArrow7" markerUnits="strokeWidth" viewBox="0 0 1 1" markerWidth="1" markerHeight="1" overflow="visible" orient="auto">
   <!-- REF_ARROW_FEATHER -->
   <g transform="scale(0.0092592592)">
    <path d="M 18,-54 L 108,-54 L 63,0 L 108,54 L 18, 54 L -36,0 z"/>
   </g>
  </marker>
  <marker id="DefaultArrow8" markerUnits="strokeWidth" viewBox="0 0 1 1" markerWidth="1" markerHeight="1" overflow="visible" orient="auto">
   <!-- REF_ARROW_FEATHER2 -->
   <g transform="scale(0.0092592592)">
    <path d="M -36,0 L 18,-54 L 54,-54 L 18,-18 L 27,-18 L 63,-54 L 99,-54 L 63,-18 L 72,-18 L 108,-54 L 144,-54 L 90,0 L 144,54 L 108,54 L 72,18 L 63,18 L 99,54 L 63,54 L 27,18 L 18,18 L 54,54 L 18,54 z"/>
   </g>
  </marker>
  <marker id="DefaultArrow9" markerUnits="strokeWidth" viewBox="0 0 1 1" markerWidth="1" markerHeight="1" overflow="visible" orient="auto">
   <!-- REF_ARROW_HOLLOWDIAMOND -->
   <g transform="scale(0.0092592592)">
    <path d="M 0,45 L -45,0 L 0, -45 L 45, 0 z M 0, 63 L-63, 0 L 0, -63 L 63, 0 z"/>
   </g>
  </marker>
  <filter id="StainedFilter">
   <feBlend mode="multiply" in2="BackgroundImage" in="SourceGraphic" result="blend"/>
   <feComposite in="blend" in2="SourceAlpha" operator="in" result="comp"/>
  </filter>
  <filter id="BleachFilter">
   <feBlend mode="screen" in2="BackgroundImage" in="SourceGraphic" result="blend"/>
   <feComposite in="blend" in2="SourceAlpha" operator="in" result="comp"/>
  </filter>
  <filter id="InvertTransparencyBitmapFilter">
   <feComponentTransfer>
    <feFuncR type="gamma" amplitude="1.055" exponent=".416666666" offset="-0.055"/>
    <feFuncG type="gamma" amplitude="1.055" exponent=".416666666" offset="-0.055"/>
    <feFuncB type="gamma" amplitude="1.055" exponent=".416666666" offset="-0.055"/>
   </feComponentTransfer>
   <feComponentTransfer>
    <feFuncR type="linear" slope="-1" intercept="1"/>
    <feFuncG type="linear" slope="-1" intercept="1"/>
    <feFuncB type="linear" slope="-1" intercept="1"/>
    <feFuncA type="linear" slope="1" intercept="0"/>
   </feComponentTransfer>
   <feComponentTransfer>
    <feFuncR type="gamma" amplitude="1" exponent="2.4" offset="0"/>
    <feFuncG type="gamma" amplitude="1" exponent="2.4" offset="0"/>
    <feFuncB type="gamma" amplitude="1" exponent="2.4" offset="0"/>
   </feComponentTransfer>
  </filter>
  <linearGradient id="LinearGradient" gradientUnits="userSpaceOnUse" x1="0" y1="0" x2="22.189" y2="11.811" gradientTransform="translate(283.226 406.582)">
   <stop offset="0" stop-color="#0003ff"/>
   <stop offset="1" stop-color="#7f81ff"/>
  </linearGradient>
  <radialGradient id="RadialGradient" gradientUnits="userSpaceOnUse" cx="288.174" cy="400.412" r="2.127">
   <stop offset="0" stop-color="#a9a9f1"/>
   <stop offset="1" stop-color="#5253ad"/>
  </radialGradient>
  <radialGradient id="RadialGradient_1" gradientUnits="userSpaceOnUse" cx="304.059" cy="400.405" r="2.127">
   <stop offset="0" stop-color="#a9a9f1"/>
   <stop offset="1" stop-color="#5253ad"/>
  </radialGradient>
  <radialGradient id="RadialGradient_2" gradientUnits="userSpaceOnUse" cx="296.186" cy="395.236" r="4.971">
   <stop offset="0" stop-color="#a9a9f1"/>
   <stop offset="1" stop-color="#5253ad"/>
  </radialGradient>
  <radialGradient id="RadialGradient_3" gradientUnits="userSpaceOnUse" cx="296.138" cy="395.285" r="2.126">
   <stop offset="0" stop-color="#a9a9f1"/>
   <stop offset="1" stop-color="#5253ad"/>
  </radialGradient>
 </defs>
 <g id="Document" fill="none" stroke="black" font-family="Times New Roman" font-size="16" transform="scale(1 -1)">
  <g id="Spread" transform="translate(0 -595.277)">
   <g id="Layer 1"/>
   <g id="logo">
    <g id="Group">
     <g id="Group_1" stroke-linejoin="round" stroke-width="0.08" fill="#666666" stroke-miterlimit="79.8403193612775">
      <path d="M 279.168,423.054 L 279.168,386.147 L 313.055,386.147 L 313.055,423.054 L 279.168,423.054 Z" marker-start="none" marker-end="none"/>
     </g>
     <path d="M 282.094,420.431 L 282.094,405.562 C 282.094,405.125 282.449,404.77 282.887,404.77 L 309.416,404.77 C 309.853,404.77 310.208,405.125 310.208,405.562 L 310.208,420.431 C 310.208,420.868 309.853,421.223 309.416,421.223 L 282.887,421.223 C 282.449,421.223 282.094,420.868 282.094,420.431 Z" stroke-width="0.08" stroke-linejoin="miter" marker-start="none" marker-end="none" stroke-miterlimit="79.8403193612775" fill="url(#LinearGradient)"/>
     <path d="M 288.174,402.539 C 289.347,402.539 290.3,401.586 290.3,400.413 C 290.3,399.239 289.347,398.286 288.174,398.286 C 287,398.286 286.047,399.239 286.047,400.413 C 286.047,401.586 287,402.539 288.174,402.539 Z" stroke="#4c4c4c" stroke-width="0.161" marker-start="none" marker-end="none" stroke-miterlimit="79.8403193612775" fill="url(#RadialGradient)"/>
     <path d="M 304.06,402.532 C 305.233,402.532 306.186,401.579 306.186,400.406 C 306.186,399.232 305.233,398.279 304.06,398.279 C 302.886,398.279 301.933,399.232 301.933,400.406 C 301.933,401.579 302.886,402.532 304.06,402.532 Z" stroke="#4c4c4c" stroke-width="0.161" marker-start="none" marker-end="none" stroke-miterlimit="79.8403193612775" fill="url(#RadialGradient_1)"/>
     <path d="M 296.186,400.207 C 298.929,400.207 301.156,397.98 301.156,395.237 C 301.156,392.493 298.929,390.266 296.186,390.266 C 293.442,390.266 291.215,392.493 291.215,395.237 C 291.215,397.98 293.442,400.207 296.186,400.207 Z" stroke="#4c4c4c" stroke-width="0.322" marker-start="none" marker-end="none" stroke-miterlimit="79.8403193612775" fill="url(#RadialGradient_2)"/>
     <g id="Group_2" fill-rule="nonzero" stroke-width="0.056" fill="#ffffff" stroke-miterlimit="79.8403193612775">
      <g id="Group_3">
       <path d="M 305.134,389.381 C 305.134,389.362 305.129,389.342 305.118,389.321 C 305.106,389.299 305.089,389.279 305.066,389.26 C 305.044,389.241 305.015,389.225 304.98,389.213 C 304.945,389.202 304.906,389.196 304.862,389.196 C 304.769,389.196 304.697,389.223 304.645,389.277 C 304.593,389.331 304.567,389.404 304.567,389.494 C 304.567,389.556 304.579,389.61 304.603,389.658 C 304.626,389.705 304.661,389.742 304.706,389.767 C 304.751,389.793 304.805,389.806 304.868,389.806 C 304.907,389.806 304.942,389.801 304.975,389.789 C 305.007,389.778 305.035,389.763 305.057,389.745 C 305.08,389.727 305.097,389.708 305.109,389.688 C 305.121,389.667 305.127,389.648 305.127,389.631 C 305.127,389.613 305.12,389.598 305.107,389.585 C 305.093,389.573 305.077,389.566 305.058,389.566 C 305.045,389.566 305.035,389.57 305.027,389.576 C 305.019,389.582 305.009,389.593 304.999,389.607 C 304.981,389.635 304.962,389.656 304.942,389.67 C 304.922,389.684 304.896,389.691 304.865,389.691 C 304.821,389.691 304.785,389.673 304.758,389.639 C 304.731,389.604 304.718,389.557 304.718,389.497 C 304.718,389.468 304.721,389.442 304.728,389.419 C 304.735,389.395 304.745,389.375 304.758,389.358 C 304.771,389.342 304.787,389.329 304.806,389.32 C 304.825,389.312 304.845,389.307 304.868,389.307 C 304.898,389.307 304.923,389.314 304.945,389.328 C 304.966,389.342 304.985,389.364 305.002,389.392 C 305.011,389.409 305.021,389.422 305.032,389.432 C 305.042,389.441 305.055,389.446 305.071,389.446 C 305.089,389.446 305.104,389.439 305.116,389.425 C 305.128,389.411 305.134,389.396 305.134,389.381 Z" stroke="#ffffff" marker-start="none" marker-end="none"/>
       <path d="M 305.828,389.5 C 305.828,389.455 305.821,389.414 305.807,389.376 C 305.793,389.338 305.773,389.306 305.747,389.279 C 305.72,389.252 305.689,389.231 305.652,389.216 C 305.615,389.202 305.574,389.195 305.528,389.195 C 305.483,389.195 305.442,389.202 305.406,389.217 C 305.369,389.231 305.338,389.252 305.311,389.28 C 305.285,389.307 305.265,389.339 305.251,389.376 C 305.237,389.414 305.23,389.455 305.23,389.5 C 305.23,389.545 305.237,389.587 305.251,389.625 C 305.265,389.662 305.285,389.695 305.311,389.722 C 305.337,389.748 305.369,389.769 305.406,389.783 C 305.443,389.798 305.484,389.805 305.528,389.805 C 305.574,389.805 305.615,389.798 305.652,389.783 C 305.689,389.768 305.721,389.748 305.747,389.72 C 305.774,389.693 305.794,389.661 305.807,389.624 C 305.821,389.586 305.828,389.545 305.828,389.5 Z M 305.677,389.5 C 305.677,389.561 305.664,389.609 305.637,389.643 C 305.61,389.677 305.574,389.694 305.528,389.694 C 305.499,389.694 305.473,389.686 305.451,389.671 C 305.428,389.656 305.411,389.634 305.399,389.604 C 305.387,389.574 305.381,389.54 305.381,389.5 C 305.381,389.461 305.387,389.426 305.399,389.397 C 305.411,389.368 305.428,389.345 305.45,389.33 C 305.472,389.314 305.498,389.306 305.528,389.306 C 305.574,389.306 305.61,389.324 305.637,389.358 C 305.664,389.392 305.677,389.439 305.677,389.5 Z" stroke="#ffffff" marker-start="none" marker-end="none"/>
       <path d="M 305.947,389.286 L 305.947,389.937 C 305.947,389.967 305.954,389.99 305.967,390.005 C 305.98,390.021 305.999,390.028 306.021,390.028 C 306.044,390.028 306.062,390.021 306.076,390.006 C 306.09,389.99 306.097,389.967 306.097,389.937 L 306.097,389.286 C 306.097,389.256 306.09,389.233 306.076,389.218 C 306.062,389.202 306.044,389.195 306.021,389.195 C 305.999,389.195 305.981,389.203 305.968,389.218 C 305.954,389.234 305.947,389.257 305.947,389.286 Z" stroke="#ffffff" marker-start="none" marker-end="none"/>
       <path d="M 306.814,389.5 C 306.814,389.455 306.807,389.414 306.793,389.376 C 306.779,389.338 306.759,389.306 306.733,389.279 C 306.706,389.252 306.675,389.231 306.638,389.216 C 306.601,389.202 306.56,389.195 306.514,389.195 C 306.469,389.195 306.428,389.202 306.392,389.217 C 306.355,389.231 306.324,389.252 306.297,389.28 C 306.271,389.307 306.251,389.339 306.237,389.376 C 306.223,389.414 306.216,389.455 306.216,389.5 C 306.216,389.545 306.223,389.587 306.237,389.625 C 306.251,389.662 306.271,389.695 306.297,389.722 C 306.323,389.748 306.355,389.769 306.392,389.783 C 306.429,389.798 306.47,389.805 306.514,389.805 C 306.56,389.805 306.601,389.798 306.638,389.783 C 306.675,389.768 306.707,389.748 306.733,389.72 C 306.76,389.693 306.78,389.661 306.793,389.624 C 306.807,389.586 306.814,389.545 306.814,389.5 Z M 306.663,389.5 C 306.663,389.561 306.65,389.609 306.623,389.643 C 306.596,389.677 306.56,389.694 306.514,389.694 C 306.485,389.694 306.459,389.686 306.437,389.671 C 306.414,389.656 306.397,389.634 306.385,389.604 C 306.373,389.574 306.367,389.54 306.367,389.5 C 306.367,389.461 306.373,389.426 306.385,389.397 C 306.397,389.368 306.414,389.345 306.436,389.33 C 306.458,389.314 306.484,389.306 306.514,389.306 C 306.56,389.306 306.596,389.324 306.623,389.358 C 306.65,389.392 306.663,389.439 306.663,389.5 Z" stroke="#ffffff" marker-start="none" marker-end="none"/>
       <path d="M 307.082,389.411 L 307.082,389.286 C 307.082,389.256 307.075,389.233 307.061,389.218 C 307.046,389.202 307.028,389.195 307.006,389.195 C 306.985,389.195 306.967,389.202 306.953,389.218 C 306.939,389.233 306.932,389.256 306.932,389.286 L 306.932,389.704 C 306.932,389.771 306.956,389.805 307.005,389.805 C 307.03,389.805 307.048,389.797 307.059,389.781 C 307.07,389.766 307.076,389.742 307.077,389.712 C 307.095,389.742 307.113,389.766 307.132,389.781 C 307.151,389.797 307.176,389.805 307.208,389.805 C 307.239,389.805 307.27,389.797 307.3,389.781 C 307.329,389.766 307.344,389.745 307.344,389.719 C 307.344,389.7 307.338,389.685 307.325,389.673 C 307.313,389.661 307.299,389.656 307.284,389.656 C 307.279,389.656 307.266,389.659 307.245,389.666 C 307.223,389.672 307.205,389.676 307.189,389.676 C 307.167,389.676 307.149,389.67 307.135,389.659 C 307.121,389.647 307.11,389.63 307.102,389.607 C 307.095,389.584 307.089,389.557 307.086,389.526 C 307.084,389.495 307.082,389.456 307.082,389.411 Z" stroke="#ffffff" marker-start="none" marker-end="none"/>
       <path d="M 308.247,389.381 C 308.247,389.362 308.242,389.342 308.231,389.321 C 308.219,389.299 308.202,389.279 308.179,389.26 C 308.157,389.241 308.128,389.225 308.093,389.213 C 308.058,389.202 308.019,389.196 307.975,389.196 C 307.882,389.196 307.81,389.223 307.758,389.277 C 307.706,389.331 307.68,389.404 307.68,389.494 C 307.68,389.556 307.692,389.61 307.716,389.658 C 307.739,389.705 307.774,389.742 307.819,389.767 C 307.864,389.793 307.918,389.806 307.981,389.806 C 308.02,389.806 308.055,389.801 308.088,389.789 C 308.12,389.778 308.148,389.763 308.17,389.745 C 308.193,389.727 308.21,389.708 308.222,389.688 C 308.234,389.667 308.24,389.648 308.24,389.631 C 308.24,389.613 308.233,389.598 308.22,389.585 C 308.206,389.573 308.19,389.566 308.171,389.566 C 308.158,389.566 308.148,389.57 308.14,389.576 C 308.132,389.582 308.122,389.593 308.112,389.607 C 308.094,389.635 308.075,389.656 308.055,389.67 C 308.035,389.684 308.009,389.691 307.978,389.691 C 307.934,389.691 307.898,389.673 307.871,389.639 C 307.844,389.604 307.831,389.557 307.831,389.497 C 307.831,389.468 307.834,389.442 307.841,389.419 C 307.848,389.395 307.858,389.375 307.871,389.358 C 307.884,389.342 307.9,389.329 307.919,389.32 C 307.938,389.312 307.958,389.307 307.981,389.307 C 308.011,389.307 308.036,389.314 308.058,389.328 C 308.079,389.342 308.098,389.364 308.115,389.392 C 308.124,389.409 308.134,389.422 308.145,389.432 C 308.155,389.441 308.168,389.446 308.184,389.446 C 308.202,389.446 308.217,389.439 308.229,389.425 C 308.241,389.411 308.247,389.396 308.247,389.381 Z" stroke="none" marker-start="none" marker-end="none"/>
       <path d="M 308.941,389.5 C 308.941,389.455 308.934,389.414 308.92,389.376 C 308.906,389.338 308.886,389.306 308.86,389.279 C 308.833,389.252 308.802,389.231 308.765,389.216 C 308.728,389.202 308.687,389.195 308.641,389.195 C 308.596,389.195 308.555,389.202 308.519,389.217 C 308.482,389.231 308.451,389.252 308.424,389.28 C 308.398,389.307 308.378,389.339 308.364,389.376 C 308.35,389.414 308.343,389.455 308.343,389.5 C 308.343,389.545 308.35,389.587 308.364,389.625 C 308.378,389.662 308.398,389.695 308.424,389.722 C 308.45,389.748 308.482,389.769 308.519,389.783 C 308.556,389.798 308.597,389.805 308.641,389.805 C 308.687,389.805 308.728,389.798 308.765,389.783 C 308.802,389.768 308.834,389.748 308.86,389.72 C 308.887,389.693 308.907,389.661 308.92,389.624 C 308.934,389.586 308.941,389.545 308.941,389.5 Z M 308.79,389.5 C 308.79,389.561 308.777,389.609 308.75,389.643 C 308.723,389.677 308.687,389.694 308.641,389.694 C 308.612,389.694 308.586,389.686 308.564,389.671 C 308.541,389.656 308.524,389.634 308.512,389.604 C 308.5,389.574 308.494,389.54 308.494,389.5 C 308.494,389.461 308.5,389.426 308.512,389.397 C 308.524,389.368 308.541,389.345 308.563,389.33 C 308.585,389.314 308.611,389.306 308.641,389.306 C 308.687,389.306 308.723,389.324 308.75,389.358 C 308.777,389.392 308.79,389.439 308.79,389.5 Z" stroke="none" marker-start="none" marker-end="none"/>
       <path d="M 309.196,389.722 L 309.196,389.704 C 309.223,389.739 309.252,389.764 309.283,389.781 C 309.314,389.797 309.35,389.805 309.391,389.805 C 309.431,389.805 309.466,389.796 309.497,389.779 C 309.528,389.762 309.552,389.738 309.567,389.706 C 309.577,389.688 309.583,389.668 309.586,389.647 C 309.589,389.625 309.591,389.598 309.591,389.565 L 309.591,389.286 C 309.591,389.256 309.584,389.233 309.57,389.218 C 309.556,389.202 309.538,389.195 309.516,389.195 C 309.494,389.195 309.476,389.203 309.462,389.218 C 309.448,389.234 309.441,389.257 309.441,389.286 L 309.441,389.536 C 309.441,389.586 309.434,389.624 309.42,389.65 C 309.407,389.676 309.379,389.689 309.338,389.689 C 309.311,389.689 309.287,389.681 309.265,389.665 C 309.243,389.649 309.227,389.627 309.217,389.599 C 309.209,389.577 309.206,389.535 309.206,389.474 L 309.206,389.286 C 309.206,389.256 309.199,389.233 309.185,389.218 C 309.17,389.202 309.152,389.195 309.13,389.195 C 309.108,389.195 309.09,389.203 309.077,389.218 C 309.063,389.234 309.056,389.257 309.056,389.286 L 309.056,389.72 C 309.056,389.748 309.062,389.77 309.074,389.784 C 309.087,389.798 309.104,389.805 309.125,389.805 C 309.139,389.805 309.151,389.802 309.161,389.796 C 309.172,389.79 309.18,389.78 309.187,389.768 C 309.193,389.755 309.196,389.74 309.196,389.722 Z" stroke="none" marker-start="none" marker-end="none"/>
       <path d="M 309.749,389.792 L 309.766,389.792 L 309.766,389.882 C 309.766,389.906 309.766,389.925 309.768,389.939 C 309.769,389.953 309.773,389.965 309.778,389.974 C 309.784,389.985 309.793,389.993 309.804,389.999 C 309.815,390.006 309.827,390.009 309.841,390.009 C 309.86,390.009 309.877,390.002 309.892,389.988 C 309.902,389.978 309.909,389.966 309.912,389.953 C 309.915,389.939 309.916,389.919 309.916,389.894 L 309.916,389.792 L 309.971,389.792 C 309.992,389.792 310.008,389.787 310.02,389.777 C 310.031,389.767 310.036,389.754 310.036,389.738 C 310.036,389.718 310.028,389.704 310.012,389.696 C 309.996,389.688 309.974,389.684 309.944,389.684 L 309.916,389.684 L 309.916,389.408 C 309.916,389.384 309.917,389.366 309.918,389.353 C 309.92,389.341 309.924,389.33 309.932,389.323 C 309.939,389.315 309.95,389.311 309.966,389.311 C 309.975,389.311 309.987,389.312 310.002,389.315 C 310.017,389.319 310.029,389.32 310.037,389.32 C 310.05,389.32 310.06,389.315 310.07,389.306 C 310.08,389.296 310.085,389.284 310.085,389.27 C 310.085,389.245 310.071,389.227 310.045,389.214 C 310.019,389.201 309.981,389.195 309.931,389.195 C 309.884,389.195 309.849,389.203 309.825,389.218 C 309.8,389.234 309.785,389.256 309.777,389.284 C 309.77,389.312 309.766,389.349 309.766,389.395 L 309.766,389.684 L 309.746,389.684 C 309.724,389.684 309.708,389.689 309.696,389.699 C 309.685,389.709 309.679,389.722 309.679,389.738 C 309.679,389.754 309.685,389.767 309.697,389.777 C 309.709,389.787 309.727,389.792 309.749,389.792 Z" stroke="none" marker-start="none" marker-end="none"/>
       <path d="M 310.289,389.411 L 310.289,389.286 C 310.289,389.256 310.282,389.233 310.268,389.218 C 310.253,389.202 310.235,389.195 310.213,389.195 C 310.192,389.195 310.174,389.202 310.16,389.218 C 310.146,389.233 310.139,389.256 310.139,389.286 L 310.139,389.704 C 310.139,389.771 310.163,389.805 310.212,389.805 C 310.237,389.805 310.255,389.797 310.266,389.781 C 310.277,389.766 310.283,389.742 310.284,389.712 C 310.302,389.742 310.32,389.766 310.339,389.781 C 310.358,389.797 310.383,389.805 310.415,389.805 C 310.446,389.805 310.477,389.797 310.507,389.781 C 310.536,389.766 310.551,389.745 310.551,389.719 C 310.551,389.7 310.545,389.685 310.532,389.673 C 310.52,389.661 310.506,389.656 310.491,389.656 C 310.486,389.656 310.473,389.659 310.452,389.666 C 310.43,389.672 310.412,389.676 310.396,389.676 C 310.374,389.676 310.356,389.67 310.342,389.659 C 310.328,389.647 310.317,389.63 310.309,389.607 C 310.302,389.584 310.296,389.557 310.293,389.526 C 310.291,389.495 310.289,389.456 310.289,389.411 Z" stroke="none" marker-start="none" marker-end="none"/>
       <path d="M 311.154,389.5 C 311.154,389.455 311.147,389.414 311.133,389.376 C 311.119,389.338 311.099,389.306 311.073,389.279 C 311.046,389.252 311.015,389.231 310.978,389.216 C 310.941,389.202 310.9,389.195 310.854,389.195 C 310.809,389.195 310.768,389.202 310.732,389.217 C 310.695,389.231 310.664,389.252 310.637,389.28 C 310.611,389.307 310.591,389.339 310.577,389.376 C 310.563,389.414 310.556,389.455 310.556,389.5 C 310.556,389.545 310.563,389.587 310.577,389.625 C 310.591,389.662 310.611,389.695 310.637,389.722 C 310.663,389.748 310.695,389.769 310.732,389.783 C 310.769,389.798 310.81,389.805 310.854,389.805 C 310.9,389.805 310.941,389.798 310.978,389.783 C 311.015,389.768 311.047,389.748 311.073,389.72 C 311.1,389.693 311.12,389.661 311.133,389.624 C 311.147,389.586 311.154,389.545 311.154,389.5 Z M 311.003,389.5 C 311.003,389.561 310.99,389.609 310.963,389.643 C 310.936,389.677 310.9,389.694 310.854,389.694 C 310.825,389.694 310.799,389.686 310.777,389.671 C 310.754,389.656 310.737,389.634 310.725,389.604 C 310.713,389.574 310.707,389.54 310.707,389.5 C 310.707,389.461 310.713,389.426 310.725,389.397 C 310.737,389.368 310.754,389.345 310.776,389.33 C 310.798,389.314 310.824,389.306 310.854,389.306 C 310.9,389.306 310.936,389.324 310.963,389.358 C 310.99,389.392 311.003,389.439 311.003,389.5 Z" stroke="none" marker-start="none" marker-end="none"/>
       <path d="M 311.273,389.286 L 311.273,389.937 C 311.273,389.967 311.28,389.99 311.293,390.005 C 311.306,390.021 311.325,390.028 311.347,390.028 C 311.37,390.028 311.388,390.021 311.402,390.006 C 311.416,389.99 311.423,389.967 311.423,389.937 L 311.423,389.286 C 311.423,389.256 311.416,389.233 311.402,389.218 C 311.388,389.202 311.37,389.195 311.347,389.195 C 311.325,389.195 311.307,389.203 311.294,389.218 C 311.28,389.234 311.273,389.257 311.273,389.286 Z" stroke="none" marker-start="none" marker-end="none"/>
      </g>
     </g>
     <path d="M 291.064,395.197 L 301.317,395.197" fill="none" stroke="#4c4c4c" stroke-width="0.08" stroke-miterlimit="79.8403193612775"/>
     <path d="M 296.169,390.097 L 296.169,400.35" fill="none" stroke="#4c4c4c" stroke-width="0.08" stroke-miterlimit="79.8403193612775"/>
     <path d="M 296.138,397.411 C 297.311,397.411 298.264,396.458 298.264,395.285 C 298.264,394.111 297.311,393.158 296.138,393.158 C 294.964,393.158 294.011,394.111 294.011,395.285 C 294.011,396.458 294.964,397.411 296.138,397.411 Z" stroke="#4c4c4c" stroke-width="0.161" marker-start="none" marker-end="none" stroke-miterlimit="79.8403193612775" fill="url(#RadialGradient_3)"/>
     <path d="M 285.774,415.362 C 285.774,415.362 285.33,415.536 284.881,415.175 C 284.881,415.175 284.347,414.817 284.249,413.307 C 284.249,413.307 284.219,413.056 284.441,413.019 C 284.441,413.019 284.665,412.976 284.694,413.164 C 284.723,413.352 284.718,414.305 285.14,414.794 C 285.14,414.794 285.181,414.855 285.293,414.904 C 285.387,414.961 285.461,415.067 285.516,415.151 C 285.516,415.151 285.599,415.26 285.774,415.362 L 285.774,415.362 Z" fill="#ffffff" stroke="none" fill-rule="nonzero" marker-start="none" marker-end="none"/>
     <path d="M 286.574,415.398 C 286.574,415.398 286.18,415.523 285.756,415.199 C 285.756,415.199 285.252,414.89 285.134,413.666 C 285.134,413.666 285.091,413.364 285.114,413.211 C 285.114,413.211 285.134,413.032 285.318,413.016 C 285.318,413.016 285.54,412.999 285.554,413.207 C 285.568,413.415 285.573,413.5 285.573,413.5 C 285.573,413.5 285.608,414.314 285.938,414.726 C 285.938,414.726 286.018,414.667 286.018,414.667 C 286.018,414.667 286.131,415.094 286.574,415.398 C 286.574,415.398 286.574,415.398 286.574,415.398 L 286.574,415.398 Z" fill="#ffffff" stroke="none" fill-rule="nonzero" marker-start="none" marker-end="none"/>
     <path d="M 287.375,415.398 C 287.375,415.398 286.847,415.521 286.465,415.106 C 286.465,415.106 286.086,414.767 285.974,413.927 C 285.974,413.927 285.927,413.476 285.919,413.256 C 285.919,413.256 285.915,413.043 286.12,413.016 C 286.12,413.016 286.331,413.003 286.344,413.227 C 286.344,413.227 286.358,414.255 286.739,414.726 C 286.739,414.726 286.833,414.668 286.833,414.668 C 286.833,414.668 286.998,415.143 287.375,415.398 C 287.375,415.398 287.375,415.398 287.375,415.398 L 287.375,415.398 Z" fill="#ffffff" stroke="none" fill-rule="nonzero" marker-start="none" marker-end="none"/>
     <path d="M 287.982,415.409 C 287.982,415.409 287.451,415.431 287.139,414.895 C 287.139,414.895 286.778,414.37 286.78,413.294 C 286.78,413.294 286.758,413.039 286.958,413.016 C 286.958,413.016 287.195,413.001 287.195,413.272 C 287.195,413.272 287.205,414.333 287.61,414.762 C 287.61,414.762 287.969,414.331 287.998,413.319 C 287.998,413.319 288.011,412.625 288.14,412.242 C 288.14,412.242 288.257,412.671 288.281,413.266 C 288.281,413.266 288.271,413.375 288.365,413.451 C 288.365,413.451 288.428,413.481 288.415,413.59 C 288.415,413.59 288.329,414.473 288.034,414.974 C 288.034,414.974 288.658,415.014 288.782,413.766 C 288.782,413.766 288.783,413.584 288.884,413.47 C 288.884,413.47 288.958,413.417 288.966,413.289 C 288.966,413.289 288.984,413.113 288.931,412.542 C 288.931,412.542 288.918,412.417 288.973,412.239 C 288.973,412.239 289.127,412.665 289.087,413.083 C 289.087,413.083 289.067,413.423 289.235,413.537 C 289.235,413.537 289.221,414.485 288.844,415.003 C 288.844,415.003 288.546,415.432 287.982,415.409 C 287.982,415.409 287.982,415.409 287.982,415.409 L 287.982,415.409 Z" fill="#ffffff" stroke="none" fill-rule="nonzero" marker-start="none" marker-end="none"/>
     <path d="M 289.841,411.12 C 289.841,411.12 290.284,410.946 290.734,411.307 C 290.734,411.307 291.267,411.665 291.365,413.176 C 291.365,413.176 291.395,413.427 291.173,413.464 C 291.173,413.464 290.95,413.507 290.92,413.318 C 290.891,413.13 290.896,412.178 290.474,411.689 C 290.474,411.689 290.433,411.627 290.321,411.579 C 290.227,411.521 290.153,411.416 290.098,411.332 C 290.098,411.332 290.015,411.223 289.841,411.12 L 289.841,411.12 Z" fill="#ffffff" stroke="none" fill-rule="nonzero" marker-start="none" marker-end="none"/>
     <path d="M 289.04,411.085 C 289.04,411.085 289.435,410.96 289.859,411.284 C 289.859,411.284 290.363,411.592 290.48,412.816 C 290.48,412.816 290.524,413.119 290.5,413.272 C 290.5,413.272 290.481,413.451 290.296,413.466 C 290.296,413.466 290.074,413.484 290.06,413.275 C 290.046,413.067 290.041,412.983 290.041,412.983 C 290.041,412.983 290.006,412.169 289.676,411.756 C 289.676,411.756 289.596,411.816 289.596,411.816 C 289.596,411.816 289.483,411.389 289.04,411.085 C 289.04,411.085 289.04,411.085 289.04,411.085 L 289.04,411.085 Z" fill="#ffffff" stroke="none" fill-rule="nonzero" marker-start="none" marker-end="none"/>
     <path d="M 288.239,411.085 C 288.239,411.085 288.767,410.962 289.149,411.377 C 289.149,411.377 289.529,411.716 289.64,412.555 C 289.64,412.555 289.688,413.007 289.696,413.227 C 289.696,413.227 289.699,413.439 289.495,413.467 C 289.495,413.467 289.283,413.48 289.27,413.256 C 289.27,413.256 289.256,412.227 288.875,411.756 C 288.875,411.756 288.781,411.815 288.781,411.815 C 288.781,411.815 288.616,411.34 288.239,411.085 C 288.239,411.085 288.239,411.085 288.239,411.085 L 288.239,411.085 Z" fill="#ffffff" stroke="none" fill-rule="nonzero" marker-start="none" marker-end="none"/>
     <path d="M 287.632,411.074 C 287.632,411.074 288.163,411.052 288.475,411.588 C 288.475,411.588 288.836,412.113 288.834,413.189 C 288.834,413.189 288.857,413.443 288.656,413.467 C 288.656,413.467 288.42,413.482 288.42,413.211 C 288.42,413.211 288.409,412.15 288.004,411.721 C 288.004,411.721 287.645,412.151 287.616,413.164 C 287.616,413.164 287.604,413.858 287.474,414.241 C 287.474,414.241 287.357,413.811 287.333,413.217 C 287.333,413.217 287.343,413.108 287.249,413.031 C 287.249,413.031 287.187,413.001 287.199,412.893 C 287.199,412.893 287.286,412.009 287.58,411.509 C 287.58,411.509 286.956,411.468 286.833,412.716 C 286.833,412.716 286.831,412.899 286.73,413.012 C 286.73,413.012 286.656,413.065 286.649,413.193 C 286.649,413.193 286.631,413.37 286.683,413.941 C 286.683,413.941 286.696,414.066 286.641,414.244 C 286.641,414.244 286.487,413.817 286.527,413.399 C 286.527,413.399 286.548,413.06 286.379,412.945 C 286.379,412.945 286.393,411.998 286.77,411.48 C 286.77,411.48 287.068,411.05 287.632,411.074 C 287.632,411.074 287.632,411.074 287.632,411.074 L 287.632,411.074 Z" fill="#ffffff" stroke="none" fill-rule="nonzero" marker-start="none" marker-end="none"/>
     <path d="M 292.094,414.184 C 292.094,414.184 292.32,414.877 292.32,414.877 C 292.358,414.996 292.485,415.049 292.594,414.994 C 292.69,414.948 292.731,414.841 292.688,414.734 C 292.688,414.734 292.304,413.772 292.304,413.772 C 292.246,413.63 292.149,413.576 292.015,413.625 C 291.954,413.645 291.913,413.688 291.88,413.772 C 291.88,413.772 291.497,414.734 291.497,414.734 C 291.454,414.841 291.494,414.948 291.591,414.994 C 291.7,415.049 291.827,414.994 291.865,414.877 C 291.865,414.877 292.094,414.184 292.094,414.184 C 292.094,414.184 292.094,414.184 292.094,414.184 L 292.094,414.184 Z" fill="#ffffff" stroke="none" fill-rule="nonzero" marker-start="none" marker-end="none"/>
     <path d="M 292.843,415.524 C 292.932,415.613 293.074,415.611 293.163,415.522 C 293.249,415.433 293.249,415.293 293.163,415.204 C 293.074,415.115 292.932,415.115 292.845,415.202 C 292.802,415.245 292.777,415.303 292.777,415.364 C 292.777,415.423 292.802,415.481 292.843,415.524 C 292.843,415.524 292.843,415.524 292.843,415.524 L 292.843,415.524 Z M 292.807,414.818 C 292.807,414.872 292.827,414.923 292.865,414.958 C 292.942,415.037 293.066,415.034 293.142,414.958 C 293.178,414.92 293.198,414.869 293.198,414.818 C 293.198,414.818 293.198,413.802 293.198,413.802 C 293.201,413.693 293.114,413.607 293.005,413.604 C 292.896,413.604 292.807,413.693 292.807,413.8 C 292.807,413.8 292.807,414.818 292.807,414.818 C 292.807,414.818 292.807,414.818 292.807,414.818 L 292.807,414.818 Z" fill="#ffffff" stroke="none" fill-rule="nonzero" marker-start="none" marker-end="none"/>
     <path d="M 294.15,415.014 C 294.442,414.981 294.539,414.854 294.506,414.724 C 294.485,414.638 294.422,414.587 294.346,414.59 C 294.333,414.592 294.32,414.592 294.308,414.595 C 294.308,414.595 294.287,414.602 294.287,414.602 C 294.287,414.602 294.252,414.615 294.252,414.615 C 294.252,414.615 294.226,414.623 294.226,414.623 C 294.226,414.623 294.191,414.635 294.191,414.635 C 293.955,414.712 293.764,414.572 293.767,414.305 C 293.772,414.039 293.965,413.909 294.216,413.993 C 294.216,413.993 294.259,414.008 294.259,414.008 C 294.259,414.008 294.277,414.016 294.277,414.016 C 294.391,414.056 294.493,414 294.511,413.881 C 294.526,413.782 294.46,413.691 294.277,413.632 C 294.231,413.617 294.183,413.607 294.132,413.602 C 293.696,413.561 293.365,413.866 293.37,414.316 C 293.375,414.767 293.713,415.062 294.15,415.014 C 294.15,415.014 294.15,415.014 294.15,415.014 L 294.15,415.014 Z" fill="#ffffff" stroke="none" fill-rule="nonzero" marker-start="none" marker-end="none"/>
     <path d="M 294.797,414.999 C 294.797,414.999 294.795,415.225 294.795,415.225 C 294.795,415.331 294.881,415.42 294.99,415.42 C 295.097,415.42 295.186,415.331 295.183,415.225 C 295.183,415.225 295.183,414.999 295.183,414.999 C 295.183,414.999 295.3,414.999 295.3,414.999 C 295.346,414.999 295.391,414.981 295.424,414.945 C 295.493,414.879 295.493,414.767 295.424,414.699 C 295.389,414.666 295.346,414.648 295.297,414.648 C 295.297,414.648 295.183,414.648 295.183,414.648 C 295.183,414.648 295.183,413.805 295.183,413.805 C 295.183,413.754 295.163,413.703 295.127,413.665 C 295.051,413.589 294.929,413.589 294.855,413.665 C 294.817,413.703 294.797,413.754 294.797,413.805 C 294.797,413.805 294.8,414.651 294.8,414.651 C 294.8,414.651 294.731,414.651 294.731,414.651 C 294.683,414.651 294.637,414.668 294.602,414.704 C 294.533,414.77 294.533,414.879 294.604,414.948 C 294.637,414.981 294.683,414.999 294.731,414.999 C 294.731,414.999 294.797,414.999 294.797,414.999 C 294.797,414.999 294.797,414.999 294.797,414.999 L 294.797,414.999 Z" fill="#ffffff" stroke="none" fill-rule="nonzero" marker-start="none" marker-end="none"/>
     <path d="M 295.551,414.826 C 295.551,414.92 295.63,415.006 295.749,415.014 C 295.871,415.024 295.945,414.948 295.94,414.874 C 295.94,414.874 295.937,414.854 295.937,414.854 C 295.947,414.867 295.957,414.879 295.97,414.89 C 296.12,415.052 296.29,415.049 296.369,414.933 C 296.438,414.831 296.402,414.714 296.3,414.671 C 296.3,414.671 296.28,414.661 296.28,414.661 C 296.28,414.661 296.227,414.643 296.227,414.643 C 296.176,414.625 296.14,414.608 296.11,414.59 C 295.985,414.516 295.942,414.45 295.942,414.387 C 295.942,414.387 295.942,413.802 295.942,413.802 C 295.942,413.696 295.856,413.607 295.747,413.607 C 295.637,413.607 295.551,413.693 295.551,413.8 C 295.551,413.8 295.551,414.826 295.551,414.826 C 295.551,414.826 295.551,414.826 295.551,414.826 L 295.551,414.826 Z" fill="#ffffff" stroke="none" fill-rule="nonzero" marker-start="none" marker-end="none"/>
     <path d="M 296.782,414.252 C 296.815,414.018 296.952,413.914 297.12,413.952 C 297.232,413.975 297.316,414.077 297.336,414.249 C 297.341,414.29 297.341,414.331 297.336,414.371 C 297.313,414.539 297.227,414.638 297.12,414.661 C 296.957,414.696 296.813,414.595 296.782,414.369 C 296.78,414.349 296.78,414.328 296.78,414.308 C 296.78,414.288 296.78,414.27 296.782,414.252 C 296.782,414.252 296.782,414.252 296.782,414.252 L 296.782,414.252 Z M 296.488,414.691 C 296.614,414.902 296.83,415.024 297.061,415.024 C 297.43,415.024 297.732,414.719 297.734,414.313 C 297.734,413.904 297.432,413.599 297.061,413.599 C 296.688,413.599 296.389,413.904 296.389,414.313 C 296.389,414.46 296.422,414.585 296.488,414.691 C 296.488,414.691 296.488,414.691 296.488,414.691 L 296.488,414.691 Z" fill="#ffffff" stroke="none" fill-rule="nonzero" marker-start="none" marker-end="none"/>
     <path d="M 297.902,414.816 C 297.902,414.912 297.983,415.004 298.097,415.014 C 298.201,415.024 298.273,414.958 298.273,414.887 C 298.273,414.887 298.273,414.872 298.273,414.872 C 298.334,414.945 298.417,414.994 298.537,415.014 C 298.6,415.027 298.664,415.027 298.725,415.016 C 298.994,414.973 299.141,414.796 299.141,414.529 C 299.141,414.529 299.141,413.8 299.141,413.8 C 299.141,413.691 299.055,413.604 298.948,413.602 C 298.839,413.602 298.75,413.688 298.75,413.797 C 298.75,413.797 298.75,414.463 298.75,414.463 C 298.75,414.524 298.725,414.582 298.682,414.625 C 298.592,414.717 298.448,414.717 298.359,414.628 C 298.316,414.582 298.293,414.526 298.293,414.465 C 298.293,414.465 298.293,413.8 298.293,413.8 C 298.293,413.693 298.204,413.604 298.095,413.607 C 297.988,413.607 297.902,413.696 297.902,413.802 C 297.902,413.802 297.902,414.816 297.902,414.816 C 297.902,414.816 297.902,414.816 297.902,414.816 L 297.902,414.816 Z" fill="#ffffff" stroke="none" fill-rule="nonzero" marker-start="none" marker-end="none"/>
     <path d="M 300.947,414.44 C 300.945,414.448 300.945,414.458 300.942,414.465 C 300.901,414.651 300.769,414.737 300.619,414.701 C 300.525,414.679 300.444,414.597 300.411,414.47 C 300.409,414.46 300.409,414.45 300.406,414.44 C 300.406,414.44 300.947,414.44 300.947,414.44 C 300.947,414.44 300.947,414.44 300.947,414.44 L 300.947,414.44 Z M 300.416,414.188 C 300.426,414.14 300.449,414.092 300.482,414.051 C 300.586,413.927 300.777,413.896 300.993,414.011 C 301.117,414.079 301.153,414.084 301.219,414.059 C 301.257,414.044 301.287,414.013 301.302,413.975 C 301.358,413.838 301.188,413.602 300.711,413.599 C 300.226,413.599 299.903,414 300.015,414.483 C 300.078,414.762 300.289,414.963 300.553,415.011 C 300.858,415.067 301.148,414.912 301.275,414.623 C 301.308,414.544 301.328,414.463 301.333,414.402 C 301.348,414.244 301.297,414.188 301.168,414.188 C 301.168,414.188 300.416,414.188 300.416,414.188 C 300.416,414.188 300.416,414.188 300.416,414.188 L 300.416,414.188 Z" fill="#ffffff" stroke="none" fill-rule="nonzero" marker-start="none" marker-end="none"/>
     <path d="M 301.477,414.816 C 301.477,414.912 301.559,415.004 301.673,415.014 C 301.777,415.024 301.848,414.958 301.848,414.887 C 301.848,414.887 301.848,414.872 301.848,414.872 C 301.909,414.945 301.993,414.994 302.112,415.014 C 302.176,415.027 302.239,415.027 302.3,415.016 C 302.569,414.973 302.717,414.796 302.717,414.529 C 302.717,414.529 302.717,413.8 302.717,413.8 C 302.717,413.691 302.63,413.604 302.524,413.602 C 302.415,413.602 302.326,413.688 302.326,413.797 C 302.326,413.797 302.326,414.463 302.326,414.463 C 302.326,414.524 302.3,414.582 302.257,414.625 C 302.168,414.717 302.023,414.717 301.934,414.628 C 301.891,414.582 301.869,414.526 301.869,414.465 C 301.869,414.465 301.869,413.8 301.869,413.8 C 301.869,413.693 301.78,413.604 301.671,413.607 C 301.564,413.607 301.477,413.696 301.477,413.802 C 301.477,413.802 301.477,414.816 301.477,414.816 C 301.477,414.816 301.477,414.816 301.477,414.816 L 301.477,414.816 Z" fill="#ffffff" stroke="none" fill-rule="nonzero" marker-start="none" marker-end="none"/>
     <path d="M 303.837,414.44 C 303.834,414.448 303.834,414.458 303.832,414.465 C 303.791,414.651 303.659,414.737 303.509,414.701 C 303.415,414.679 303.334,414.597 303.301,414.47 C 303.298,414.46 303.298,414.45 303.296,414.44 C 303.296,414.44 303.837,414.44 303.837,414.44 C 303.837,414.44 303.837,414.44 303.837,414.44 L 303.837,414.44 Z M 303.306,414.188 C 303.316,414.14 303.339,414.092 303.372,414.051 C 303.476,413.927 303.667,413.896 303.882,414.011 C 304.007,414.079 304.042,414.084 304.108,414.059 C 304.147,414.044 304.177,414.013 304.192,413.975 C 304.248,413.838 304.078,413.602 303.6,413.599 C 303.115,413.599 302.793,414 302.905,414.483 C 302.968,414.762 303.179,414.963 303.443,415.011 C 303.748,415.067 304.037,414.912 304.164,414.623 C 304.197,414.544 304.218,414.463 304.223,414.402 C 304.238,414.244 304.187,414.188 304.058,414.188 C 304.058,414.188 303.306,414.188 303.306,414.188 C 303.306,414.188 303.306,414.188 303.306,414.188 L 303.306,414.188 Z" fill="#ffffff" stroke="none" fill-rule="nonzero" marker-start="none" marker-end="none"/>
     <path d="M 304.367,414.826 C 304.367,414.92 304.446,415.006 304.565,415.014 C 304.687,415.024 304.761,414.948 304.756,414.874 C 304.756,414.874 304.753,414.854 304.753,414.854 C 304.763,414.867 304.774,414.879 304.786,414.89 C 304.936,415.052 305.106,415.049 305.185,414.933 C 305.253,414.831 305.218,414.714 305.116,414.671 C 305.116,414.671 305.096,414.661 305.096,414.661 C 305.096,414.661 305.043,414.643 305.043,414.643 C 304.992,414.625 304.956,414.608 304.926,414.59 C 304.802,414.516 304.758,414.45 304.758,414.387 C 304.758,414.387 304.758,413.802 304.758,413.802 C 304.758,413.696 304.672,413.607 304.563,413.607 C 304.454,413.607 304.367,413.693 304.367,413.8 C 304.367,413.8 304.367,414.826 304.367,414.826 C 304.367,414.826 304.367,414.826 304.367,414.826 L 304.367,414.826 Z" fill="#ffffff" stroke="none" fill-rule="nonzero" marker-start="none" marker-end="none"/>
     <path d="M 305.674,414.051 C 305.784,413.919 305.984,413.922 306.086,414.059 C 306.132,414.12 306.155,414.193 306.157,414.3 C 306.157,414.473 306.094,414.582 305.992,414.633 C 305.822,414.717 305.631,414.605 305.601,414.374 C 305.598,414.351 305.596,414.326 305.596,414.303 C 305.596,414.196 305.626,414.112 305.674,414.051 C 305.674,414.051 305.674,414.051 305.674,414.051 L 305.674,414.051 Z M 306.167,414.882 C 306.17,414.955 306.241,415.021 306.345,415.011 C 306.459,415.001 306.541,414.91 306.541,414.811 C 306.541,414.811 306.541,413.792 306.541,413.792 C 306.541,413.284 306.241,413.007 305.713,413.063 C 305.606,413.076 305.509,413.101 305.418,413.142 C 305.23,413.228 305.197,413.36 305.288,413.457 C 305.339,413.513 305.403,413.526 305.489,413.498 C 305.489,413.498 305.491,413.495 305.491,413.495 C 305.491,413.495 305.57,413.459 305.57,413.459 C 305.588,413.452 305.606,413.444 305.624,413.439 C 305.956,413.32 306.147,413.457 306.155,413.711 C 306.157,413.729 306.155,413.747 306.155,413.764 C 306.01,413.559 305.652,413.523 305.405,413.767 C 305.248,413.924 305.169,414.184 305.22,414.465 C 305.238,414.567 305.271,414.653 305.316,414.727 C 305.532,415.075 305.969,415.108 306.167,414.864 C 306.167,414.864 306.167,414.882 306.167,414.882 C 306.167,414.882 306.167,414.882 306.167,414.882 L 306.167,414.882 Z" fill="#ffffff" stroke="none" fill-rule="nonzero" marker-start="none" marker-end="none"/>
     <path d="M 306.759,414.996 C 306.868,415.042 306.98,414.991 307.025,414.867 C 307.025,414.867 307.269,414.214 307.269,414.214 C 307.269,414.214 307.518,414.869 307.518,414.869 C 307.567,414.994 307.681,415.044 307.787,414.994 C 307.884,414.948 307.925,414.839 307.884,414.739 C 307.884,414.739 307.251,413.19 307.251,413.19 C 307.198,413.061 307.092,413.012 306.985,413.056 C 306.883,413.099 306.84,413.208 306.883,413.312 C 306.883,413.312 307.066,413.734 307.066,413.734 C 307.066,413.734 306.652,414.747 306.652,414.747 C 306.614,414.844 306.66,414.955 306.759,414.996 C 306.759,414.996 306.759,414.996 306.759,414.996 L 306.759,414.996 Z" fill="#ffffff" stroke="none" fill-rule="nonzero" marker-start="none" marker-end="none"/>
     <path d="M 294.295,412.787 C 294.314,412.772 294.323,412.748 294.323,412.716 C 294.323,412.681 294.314,412.656 294.294,412.64 C 294.275,412.624 294.244,412.616 294.201,412.616 C 294.189,412.616 294.171,412.617 294.148,412.619 C 294.148,412.619 294.148,412.808 294.148,412.808 C 294.148,412.808 294.202,412.81 294.202,412.81 C 294.246,412.81 294.277,412.802 294.295,412.787 C 294.295,412.787 294.295,412.787 294.295,412.787 L 294.295,412.787 Z M 294.346,412.6 C 294.379,412.626 294.394,412.661 294.394,412.705 C 294.394,412.742 294.385,412.772 294.368,412.794 C 294.35,412.816 294.321,412.831 294.282,412.841 C 294.303,412.846 294.322,412.858 294.339,412.877 C 294.356,412.895 294.364,412.917 294.364,412.94 C 294.364,412.979 294.351,413.009 294.324,413.03 C 294.297,413.051 294.259,413.062 294.21,413.062 C 294.184,413.062 294.14,413.06 294.08,413.057 C 294.08,413.057 294.08,412.562 294.08,412.562 C 294.08,412.562 294.222,412.562 294.222,412.562 C 294.273,412.562 294.315,412.575 294.346,412.6 C 294.346,412.6 294.346,412.6 294.346,412.6 L 294.346,412.6 Z M 294.208,413.005 C 294.267,413.005 294.297,412.983 294.297,412.937 C 294.297,412.885 294.265,412.859 294.201,412.859 C 294.18,412.859 294.162,412.859 294.148,412.861 C 294.148,412.861 294.148,413.003 294.148,413.003 C 294.166,413.005 294.186,413.005 294.208,413.005 C 294.208,413.005 294.208,413.005 294.208,413.005 L 294.208,413.005 Z" fill="#ffffff" stroke="none" fill-rule="nonzero" marker-start="none" marker-end="none"/>
     <path d="M 295.387,412.562 C 295.387,412.562 295.096,412.562 295.096,412.562 C 295.096,412.562 295.096,413.057 295.096,413.057 C 295.096,413.057 295.163,413.057 295.163,413.057 C 295.163,413.057 295.163,412.623 295.163,412.623 C 295.163,412.623 295.387,412.623 295.387,412.623 C 295.387,412.623 295.387,412.562 295.387,412.562 C 295.387,412.562 295.387,412.562 295.387,412.562 L 295.387,412.562 Z" fill="#ffffff" stroke="none" fill-rule="nonzero" marker-start="none" marker-end="none"/>
     <path d="M 296.07,412.713 C 296.07,412.713 296.07,413.057 296.07,413.057 C 296.07,413.057 296.138,413.057 296.138,413.057 C 296.138,413.057 296.138,412.718 296.138,412.718 C 296.138,412.688 296.147,412.663 296.167,412.643 C 296.186,412.624 296.211,412.614 296.243,412.614 C 296.276,412.614 296.302,412.623 296.321,412.642 C 296.341,412.661 296.35,412.687 296.35,412.72 C 296.35,412.72 296.35,413.057 296.35,413.057 C 296.35,413.057 296.418,413.057 296.418,413.057 C 296.418,413.057 296.418,412.713 296.418,412.713 C 296.418,412.662 296.402,412.623 296.371,412.595 C 296.34,412.567 296.297,412.553 296.243,412.553 C 296.188,412.553 296.145,412.567 296.115,412.594 C 296.085,412.622 296.07,412.661 296.07,412.713 C 296.07,412.713 296.07,412.713 296.07,412.713 L 296.07,412.713 Z" fill="#ffffff" stroke="none" fill-rule="nonzero" marker-start="none" marker-end="none"/>
     <path d="M 297.554,412.996 C 297.554,412.996 297.326,412.996 297.326,412.996 C 297.326,412.996 297.326,412.859 297.326,412.859 C 297.326,412.859 297.49,412.859 297.49,412.859 C 297.49,412.859 297.49,412.801 297.49,412.801 C 297.49,412.801 297.326,412.801 297.326,412.801 C 297.326,412.801 297.326,412.623 297.326,412.623 C 297.326,412.623 297.551,412.623 297.551,412.623 C 297.551,412.623 297.551,412.562 297.551,412.562 C 297.551,412.562 297.258,412.562 297.258,412.562 C 297.258,412.562 297.258,413.057 297.258,413.057 C 297.258,413.057 297.554,413.057 297.554,413.057 C 297.554,413.057 297.554,412.996 297.554,412.996 C 297.554,412.996 297.554,412.996 297.554,412.996 L 297.554,412.996 Z" fill="#ffffff" stroke="none" fill-rule="nonzero" marker-start="none" marker-end="none"/>
     <path d="M 299.203,412.749 C 299.33,412.749 299.394,412.805 299.394,412.916 C 299.394,413.012 299.322,413.061 299.178,413.061 C 299.167,413.061 299.136,413.059 299.085,413.057 C 299.085,413.057 299.085,412.562 299.085,412.562 C 299.085,412.562 299.153,412.562 299.153,412.562 C 299.153,412.562 299.153,412.752 299.153,412.752 C 299.179,412.75 299.195,412.749 299.203,412.749 C 299.203,412.749 299.203,412.749 299.203,412.749 L 299.203,412.749 Z M 299.19,413 C 299.279,413 299.324,412.969 299.324,412.909 C 299.324,412.843 299.282,412.81 299.198,412.81 C 299.197,412.81 299.181,412.811 299.153,412.813 C 299.153,412.813 299.153,412.996 299.153,412.996 C 299.169,412.998 299.181,413 299.19,413 C 299.19,413 299.19,413 299.19,413 L 299.19,413 Z" fill="#ffffff" stroke="none" fill-rule="nonzero" marker-start="none" marker-end="none"/>
     <path d="M 300.124,412.626 C 300.16,412.577 300.209,412.553 300.271,412.553 C 300.34,412.553 300.392,412.576 300.429,412.622 C 300.466,412.668 300.484,412.732 300.484,412.814 C 300.484,412.893 300.466,412.955 300.429,412.999 C 300.393,413.044 300.34,413.066 300.271,413.066 C 300.21,413.066 300.161,413.042 300.125,412.993 C 300.089,412.945 300.071,412.885 300.071,412.814 C 300.071,412.737 300.089,412.675 300.124,412.626 C 300.124,412.626 300.124,412.626 300.124,412.626 L 300.124,412.626 Z M 300.175,412.954 C 300.197,412.988 300.229,413.005 300.271,413.005 C 300.366,413.005 300.413,412.941 300.413,412.814 C 300.413,412.751 300.401,412.701 300.377,412.666 C 300.353,412.632 300.317,412.614 300.271,412.614 C 300.23,412.614 300.199,412.633 300.176,412.671 C 300.154,412.709 300.142,412.757 300.142,412.814 C 300.142,412.873 300.153,412.919 300.175,412.954 C 300.175,412.954 300.175,412.954 300.175,412.954 L 300.175,412.954 Z" fill="#ffffff" stroke="none" fill-rule="nonzero" marker-start="none" marker-end="none"/>
     <path d="M 301.721,413.057 C 301.721,413.057 301.566,412.555 301.566,412.555 C 301.566,412.555 301.545,412.555 301.545,412.555 C 301.545,412.555 301.427,412.897 301.427,412.897 C 301.427,412.897 301.317,412.555 301.317,412.555 C 301.317,412.555 301.295,412.555 301.295,412.555 C 301.295,412.555 301.139,413.057 301.139,413.057 C 301.139,413.057 301.21,413.057 301.21,413.057 C 301.21,413.057 301.309,412.711 301.309,412.711 C 301.309,412.711 301.418,413.057 301.418,413.057 C 301.418,413.057 301.442,413.057 301.442,413.057 C 301.442,413.057 301.549,412.712 301.549,412.712 C 301.549,412.712 301.65,413.057 301.65,413.057 C 301.65,413.057 301.721,413.057 301.721,413.057 C 301.721,413.057 301.721,413.057 301.721,413.057 L 301.721,413.057 Z" fill="#ffffff" stroke="none" fill-rule="nonzero" marker-start="none" marker-end="none"/>
     <path d="M 302.695,412.996 C 302.695,412.996 302.467,412.996 302.467,412.996 C 302.467,412.996 302.467,412.859 302.467,412.859 C 302.467,412.859 302.631,412.859 302.631,412.859 C 302.631,412.859 302.631,412.801 302.631,412.801 C 302.631,412.801 302.467,412.801 302.467,412.801 C 302.467,412.801 302.467,412.623 302.467,412.623 C 302.467,412.623 302.691,412.623 302.691,412.623 C 302.691,412.623 302.691,412.562 302.691,412.562 C 302.691,412.562 302.399,412.562 302.399,412.562 C 302.399,412.562 302.399,413.057 302.399,413.057 C 302.399,413.057 302.695,413.057 302.695,413.057 C 302.695,413.057 302.695,412.996 302.695,412.996 C 302.695,412.996 302.695,412.996 302.695,412.996 L 302.695,412.996 Z" fill="#ffffff" stroke="none" fill-rule="nonzero" marker-start="none" marker-end="none"/>
     <path d="M 303.603,412.79 C 303.629,412.796 303.652,412.811 303.671,412.836 C 303.69,412.861 303.7,412.889 303.7,412.92 C 303.7,413.015 303.64,413.062 303.521,413.062 C 303.506,413.062 303.483,413.061 303.45,413.06 C 303.417,413.058 303.4,413.057 303.397,413.057 C 303.397,413.057 303.397,412.562 303.397,412.562 C 303.397,412.562 303.465,412.562 303.465,412.562 C 303.465,412.562 303.465,412.778 303.465,412.778 C 303.498,412.775 303.522,412.774 303.537,412.774 C 303.537,412.774 303.669,412.562 303.669,412.562 C 303.669,412.562 303.746,412.562 303.746,412.562 C 303.746,412.562 303.603,412.79 303.603,412.79 C 303.603,412.79 303.603,412.79 303.603,412.79 L 303.603,412.79 Z M 303.505,413 C 303.548,413 303.579,412.993 303.599,412.981 C 303.619,412.969 303.629,412.949 303.629,412.922 C 303.629,412.888 303.619,412.865 303.601,412.851 C 303.583,412.838 303.553,412.832 303.512,412.832 C 303.497,412.832 303.481,412.833 303.465,412.835 C 303.465,412.835 303.465,412.996 303.465,412.996 C 303.485,412.998 303.498,413 303.505,413 C 303.505,413 303.505,413 303.505,413 L 303.505,413 Z" fill="#ffffff" stroke="none" fill-rule="nonzero" marker-start="none" marker-end="none"/>
     <g id="Group_4" fill-rule="nonzero" stroke="none" fill="#ffffff">
      <path d="M 281.787,422.986 C 281.787,422.986 281.643,423.043 281.497,422.926 C 281.497,422.926 281.323,422.809 281.292,422.318 C 281.292,422.318 281.282,422.236 281.354,422.225 C 281.354,422.225 281.427,422.211 281.436,422.272 C 281.446,422.333 281.444,422.643 281.581,422.801 C 281.581,422.801 281.595,422.822 281.631,422.837 C 281.662,422.856 281.686,422.89 281.704,422.918 C 281.704,422.918 281.73,422.953 281.787,422.986 L 281.787,422.986 Z" marker-start="none" marker-end="none"/>
      <path d="M 282.048,422.998 C 282.048,422.998 281.919,423.038 281.781,422.933 C 281.781,422.933 281.618,422.833 281.579,422.435 C 281.579,422.435 281.565,422.337 281.573,422.287 C 281.573,422.287 281.579,422.229 281.639,422.224 C 281.639,422.224 281.711,422.218 281.716,422.286 C 281.72,422.353 281.722,422.381 281.722,422.381 C 281.722,422.381 281.733,422.645 281.841,422.78 C 281.841,422.78 281.867,422.76 281.867,422.76 C 281.867,422.76 281.903,422.899 282.048,422.998 C 282.048,422.998 282.048,422.998 282.048,422.998 L 282.048,422.998 Z" marker-start="none" marker-end="none"/>
      <path d="M 282.308,422.998 C 282.308,422.998 282.136,423.038 282.012,422.903 C 282.012,422.903 281.889,422.793 281.852,422.52 C 281.852,422.52 281.837,422.373 281.834,422.302 C 281.834,422.302 281.833,422.232 281.9,422.224 C 281.9,422.224 281.968,422.219 281.973,422.292 C 281.973,422.292 281.977,422.627 282.101,422.78 C 282.101,422.78 282.132,422.761 282.132,422.761 C 282.132,422.761 282.185,422.915 282.308,422.998 C 282.308,422.998 282.308,422.998 282.308,422.998 L 282.308,422.998 Z" marker-start="none" marker-end="none"/>
      <path d="M 282.505,423.001 C 282.505,423.001 282.332,423.009 282.231,422.834 C 282.231,422.834 282.114,422.664 282.114,422.314 C 282.114,422.314 282.107,422.231 282.172,422.223 C 282.172,422.223 282.249,422.219 282.249,422.307 C 282.249,422.307 282.253,422.652 282.384,422.791 C 282.384,422.791 282.501,422.651 282.511,422.322 C 282.511,422.322 282.515,422.096 282.557,421.972 C 282.557,421.972 282.595,422.112 282.602,422.305 C 282.602,422.305 282.599,422.34 282.63,422.365 C 282.63,422.365 282.65,422.375 282.646,422.41 C 282.646,422.41 282.618,422.697 282.522,422.86 C 282.522,422.86 282.725,422.873 282.765,422.468 C 282.765,422.468 282.766,422.408 282.798,422.371 C 282.798,422.371 282.822,422.354 282.825,422.312 C 282.825,422.312 282.831,422.255 282.814,422.069 C 282.814,422.069 282.81,422.029 282.828,421.971 C 282.828,421.971 282.878,422.109 282.864,422.245 C 282.864,422.245 282.858,422.356 282.913,422.393 C 282.913,422.393 282.908,422.701 282.786,422.869 C 282.786,422.869 282.688,423.009 282.505,423.001 C 282.505,423.001 282.505,423.001 282.505,423.001 L 282.505,423.001 Z" marker-start="none" marker-end="none"/>
      <path d="M 283.11,421.607 C 283.11,421.607 283.254,421.551 283.4,421.668 C 283.4,421.668 283.573,421.784 283.605,422.275 C 283.605,422.275 283.615,422.357 283.543,422.369 C 283.543,422.369 283.47,422.383 283.461,422.322 C 283.451,422.261 283.453,421.951 283.316,421.792 C 283.316,421.792 283.302,421.772 283.266,421.756 C 283.235,421.738 283.211,421.703 283.193,421.676 C 283.193,421.676 283.166,421.64 283.11,421.607 L 283.11,421.607 Z" marker-start="none" marker-end="none"/>
      <path d="M 282.849,421.596 C 282.849,421.596 282.977,421.555 283.115,421.66 C 283.115,421.66 283.279,421.761 283.317,422.159 C 283.317,422.159 283.331,422.257 283.324,422.307 C 283.324,422.307 283.318,422.365 283.257,422.37 C 283.257,422.37 283.185,422.376 283.181,422.308 C 283.176,422.24 283.175,422.213 283.175,422.213 C 283.175,422.213 283.163,421.948 283.056,421.814 C 283.056,421.814 283.03,421.833 283.03,421.833 C 283.03,421.833 282.993,421.694 282.849,421.596 C 282.849,421.596 282.849,421.596 282.849,421.596 L 282.849,421.596 Z" marker-start="none" marker-end="none"/>
      <path d="M 282.589,421.596 C 282.589,421.596 282.76,421.556 282.885,421.691 C 282.885,421.691 283.008,421.801 283.044,422.074 C 283.044,422.074 283.06,422.221 283.062,422.292 C 283.062,422.292 283.064,422.361 282.997,422.37 C 282.997,422.37 282.928,422.374 282.924,422.302 C 282.924,422.302 282.919,421.967 282.796,421.814 C 282.796,421.814 282.765,421.833 282.765,421.833 C 282.765,421.833 282.712,421.679 282.589,421.596 C 282.589,421.596 282.589,421.596 282.589,421.596 L 282.589,421.596 Z" marker-start="none" marker-end="none"/>
      <path d="M 282.391,421.592 C 282.391,421.592 282.564,421.585 282.665,421.759 C 282.665,421.759 282.783,421.93 282.782,422.28 C 282.782,422.28 282.789,422.363 282.724,422.37 C 282.724,422.37 282.647,422.375 282.647,422.287 C 282.647,422.287 282.644,421.942 282.512,421.803 C 282.512,421.803 282.396,421.942 282.386,422.272 C 282.386,422.272 282.382,422.497 282.34,422.622 C 282.34,422.622 282.302,422.482 282.294,422.289 C 282.294,422.289 282.297,422.253 282.267,422.229 C 282.267,422.229 282.247,422.219 282.251,422.183 C 282.251,422.183 282.279,421.896 282.374,421.734 C 282.374,421.734 282.172,421.72 282.132,422.126 C 282.132,422.126 282.131,422.185 282.098,422.222 C 282.098,422.222 282.074,422.24 282.072,422.281 C 282.072,422.281 282.066,422.339 282.083,422.524 C 282.083,422.524 282.087,422.565 282.069,422.623 C 282.069,422.623 282.019,422.484 282.032,422.348 C 282.032,422.348 282.039,422.238 281.984,422.201 C 281.984,422.201 281.989,421.893 282.111,421.724 C 282.111,421.724 282.208,421.584 282.391,421.592 C 282.391,421.592 282.391,421.592 282.391,421.592 L 282.391,421.592 Z" marker-start="none" marker-end="none"/>
      <path d="M 283.842,422.603 C 283.842,422.603 283.915,422.828 283.915,422.828 C 283.928,422.867 283.969,422.885 284.005,422.866 C 284.036,422.852 284.049,422.817 284.035,422.782 C 284.035,422.782 283.91,422.469 283.91,422.469 C 283.891,422.423 283.86,422.406 283.816,422.421 C 283.797,422.428 283.783,422.442 283.773,422.469 C 283.773,422.469 283.648,422.782 283.648,422.782 C 283.634,422.817 283.647,422.852 283.678,422.866 C 283.714,422.885 283.755,422.866 283.767,422.828 C 283.767,422.828 283.842,422.603 283.842,422.603 C 283.842,422.603 283.842,422.603 283.842,422.603 L 283.842,422.603 Z" marker-start="none" marker-end="none"/>
      <path d="M 284.085,423.039 C 284.114,423.068 284.16,423.067 284.189,423.038 C 284.218,423.009 284.218,422.964 284.189,422.935 C 284.16,422.906 284.114,422.906 284.086,422.934 C 284.072,422.948 284.064,422.967 284.064,422.987 C 284.064,423.006 284.072,423.025 284.085,423.039 C 284.085,423.039 284.085,423.039 284.085,423.039 L 284.085,423.039 Z M 284.074,422.809 C 284.074,422.827 284.08,422.843 284.093,422.855 C 284.118,422.88 284.158,422.88 284.183,422.855 C 284.194,422.843 284.201,422.826 284.201,422.809 C 284.201,422.809 284.201,422.479 284.201,422.479 C 284.202,422.444 284.174,422.416 284.138,422.415 C 284.103,422.415 284.074,422.444 284.074,422.478 C 284.074,422.478 284.074,422.809 284.074,422.809 C 284.074,422.809 284.074,422.809 284.074,422.809 L 284.074,422.809 Z" marker-start="none" marker-end="none"/>
      <path d="M 284.51,422.873 C 284.605,422.862 284.637,422.821 284.626,422.779 C 284.619,422.751 284.599,422.734 284.574,422.735 C 284.57,422.736 284.566,422.736 284.562,422.737 C 284.562,422.737 284.555,422.739 284.555,422.739 C 284.555,422.739 284.543,422.743 284.543,422.743 C 284.543,422.743 284.535,422.746 284.535,422.746 C 284.535,422.746 284.524,422.75 284.524,422.75 C 284.447,422.775 284.385,422.729 284.386,422.643 C 284.387,422.556 284.45,422.514 284.532,422.541 C 284.532,422.541 284.546,422.546 284.546,422.546 C 284.546,422.546 284.552,422.548 284.552,422.548 C 284.589,422.562 284.622,422.544 284.628,422.505 C 284.633,422.472 284.611,422.443 284.552,422.424 C 284.537,422.419 284.521,422.416 284.505,422.414 C 284.363,422.401 284.255,422.5 284.257,422.646 C 284.258,422.793 284.368,422.889 284.51,422.873 C 284.51,422.873 284.51,422.873 284.51,422.873 L 284.51,422.873 Z" marker-start="none" marker-end="none"/>
      <path d="M 284.721,422.868 C 284.721,422.868 284.72,422.942 284.72,422.942 C 284.72,422.976 284.748,423.005 284.784,423.005 C 284.818,423.005 284.847,422.976 284.846,422.942 C 284.846,422.942 284.846,422.868 284.846,422.868 C 284.846,422.868 284.884,422.868 284.884,422.868 C 284.899,422.868 284.914,422.862 284.925,422.851 C 284.947,422.829 284.947,422.793 284.925,422.771 C 284.913,422.76 284.899,422.754 284.883,422.754 C 284.883,422.754 284.846,422.754 284.846,422.754 C 284.846,422.754 284.846,422.48 284.846,422.48 C 284.846,422.463 284.84,422.447 284.828,422.435 C 284.803,422.41 284.764,422.41 284.74,422.435 C 284.727,422.447 284.721,422.463 284.721,422.48 C 284.721,422.48 284.722,422.755 284.722,422.755 C 284.722,422.755 284.699,422.755 284.699,422.755 C 284.684,422.755 284.669,422.761 284.657,422.772 C 284.635,422.794 284.635,422.829 284.658,422.852 C 284.669,422.862 284.684,422.868 284.699,422.868 C 284.699,422.868 284.721,422.868 284.721,422.868 C 284.721,422.868 284.721,422.868 284.721,422.868 L 284.721,422.868 Z" marker-start="none" marker-end="none"/>
      <path d="M 284.966,422.812 C 284.966,422.843 284.991,422.871 285.03,422.873 C 285.07,422.876 285.094,422.852 285.092,422.828 C 285.092,422.828 285.091,422.821 285.091,422.821 C 285.095,422.825 285.098,422.829 285.102,422.833 C 285.151,422.885 285.206,422.885 285.232,422.847 C 285.254,422.814 285.243,422.776 285.209,422.762 C 285.209,422.762 285.203,422.758 285.203,422.758 C 285.203,422.758 285.185,422.752 285.185,422.752 C 285.169,422.747 285.157,422.741 285.148,422.735 C 285.107,422.711 285.093,422.69 285.093,422.669 C 285.093,422.669 285.093,422.479 285.093,422.479 C 285.093,422.444 285.065,422.416 285.029,422.416 C 284.994,422.416 284.966,422.444 284.966,422.478 C 284.966,422.478 284.966,422.812 284.966,422.812 C 284.966,422.812 284.966,422.812 284.966,422.812 L 284.966,422.812 Z" marker-start="none" marker-end="none"/>
      <path d="M 285.366,422.625 C 285.377,422.549 285.421,422.515 285.476,422.528 C 285.512,422.535 285.54,422.568 285.546,422.624 C 285.548,422.638 285.548,422.651 285.546,422.664 C 285.539,422.719 285.511,422.751 285.476,422.758 C 285.423,422.77 285.376,422.737 285.366,422.663 C 285.365,422.657 285.365,422.65 285.365,422.643 C 285.365,422.637 285.365,422.631 285.366,422.625 C 285.366,422.625 285.366,422.625 285.366,422.625 L 285.366,422.625 Z M 285.27,422.768 C 285.312,422.837 285.382,422.876 285.457,422.876 C 285.577,422.876 285.675,422.777 285.676,422.645 C 285.676,422.512 285.577,422.413 285.457,422.413 C 285.336,422.413 285.238,422.512 285.238,422.645 C 285.238,422.693 285.249,422.733 285.27,422.768 C 285.27,422.768 285.27,422.768 285.27,422.768 L 285.27,422.768 Z" marker-start="none" marker-end="none"/>
      <path d="M 285.73,422.809 C 285.73,422.84 285.757,422.87 285.794,422.873 C 285.828,422.876 285.851,422.855 285.851,422.832 C 285.851,422.832 285.851,422.827 285.851,422.827 C 285.87,422.851 285.898,422.866 285.937,422.873 C 285.957,422.877 285.978,422.877 285.998,422.874 C 286.085,422.86 286.133,422.802 286.133,422.715 C 286.133,422.715 286.133,422.478 286.133,422.478 C 286.133,422.443 286.105,422.415 286.07,422.414 C 286.035,422.414 286.006,422.442 286.006,422.477 C 286.006,422.477 286.006,422.694 286.006,422.694 C 286.006,422.714 285.998,422.733 285.984,422.747 C 285.955,422.776 285.908,422.776 285.879,422.748 C 285.865,422.733 285.857,422.715 285.857,422.695 C 285.857,422.695 285.857,422.478 285.857,422.478 C 285.857,422.444 285.828,422.415 285.793,422.416 C 285.758,422.416 285.73,422.444 285.73,422.479 C 285.73,422.479 285.73,422.809 285.73,422.809 C 285.73,422.809 285.73,422.809 285.73,422.809 L 285.73,422.809 Z" marker-start="none" marker-end="none"/>
      <path d="M 286.72,422.687 C 286.719,422.689 286.719,422.692 286.718,422.695 C 286.705,422.755 286.662,422.783 286.614,422.771 C 286.583,422.764 286.557,422.738 286.546,422.696 C 286.545,422.693 286.545,422.69 286.544,422.687 C 286.544,422.687 286.72,422.687 286.72,422.687 C 286.72,422.687 286.72,422.687 286.72,422.687 L 286.72,422.687 Z M 286.547,422.605 C 286.551,422.589 286.558,422.573 286.569,422.56 C 286.603,422.52 286.665,422.51 286.735,422.547 C 286.775,422.569 286.787,422.571 286.809,422.563 C 286.821,422.558 286.831,422.548 286.836,422.535 C 286.854,422.491 286.799,422.414 286.643,422.413 C 286.486,422.413 286.381,422.544 286.417,422.7 C 286.438,422.791 286.506,422.857 286.592,422.872 C 286.691,422.89 286.785,422.84 286.827,422.746 C 286.837,422.72 286.844,422.694 286.846,422.674 C 286.851,422.623 286.834,422.605 286.792,422.605 C 286.792,422.605 286.547,422.605 286.547,422.605 C 286.547,422.605 286.547,422.605 286.547,422.605 L 286.547,422.605 Z" marker-start="none" marker-end="none"/>
      <path d="M 286.893,422.809 C 286.893,422.84 286.919,422.87 286.956,422.873 C 286.99,422.876 287.013,422.855 287.013,422.832 C 287.013,422.832 287.013,422.827 287.013,422.827 C 287.033,422.851 287.06,422.866 287.099,422.873 C 287.119,422.877 287.14,422.877 287.16,422.874 C 287.248,422.86 287.295,422.802 287.295,422.715 C 287.295,422.715 287.295,422.478 287.295,422.478 C 287.295,422.443 287.267,422.415 287.233,422.414 C 287.197,422.414 287.168,422.442 287.168,422.477 C 287.168,422.477 287.168,422.694 287.168,422.694 C 287.168,422.714 287.16,422.733 287.146,422.747 C 287.117,422.776 287.07,422.776 287.041,422.748 C 287.027,422.733 287.02,422.715 287.02,422.695 C 287.02,422.695 287.02,422.478 287.02,422.478 C 287.02,422.444 286.991,422.415 286.955,422.416 C 286.921,422.416 286.893,422.444 286.893,422.479 C 286.893,422.479 286.893,422.809 286.893,422.809 C 286.893,422.809 286.893,422.809 286.893,422.809 L 286.893,422.809 Z" marker-start="none" marker-end="none"/>
      <path d="M 287.66,422.687 C 287.659,422.689 287.659,422.692 287.658,422.695 C 287.645,422.755 287.602,422.783 287.553,422.771 C 287.523,422.764 287.496,422.738 287.485,422.696 C 287.485,422.693 287.485,422.69 287.484,422.687 C 287.484,422.687 287.66,422.687 287.66,422.687 C 287.66,422.687 287.66,422.687 287.66,422.687 L 287.66,422.687 Z M 287.487,422.605 C 287.49,422.589 287.498,422.573 287.509,422.56 C 287.542,422.52 287.604,422.51 287.675,422.547 C 287.715,422.569 287.727,422.571 287.748,422.563 C 287.76,422.558 287.77,422.548 287.775,422.535 C 287.793,422.491 287.738,422.414 287.583,422.413 C 287.425,422.413 287.32,422.544 287.357,422.7 C 287.377,422.791 287.446,422.857 287.532,422.872 C 287.631,422.89 287.725,422.84 287.766,422.746 C 287.777,422.72 287.784,422.694 287.785,422.674 C 287.79,422.623 287.774,422.605 287.732,422.605 C 287.732,422.605 287.487,422.605 287.487,422.605 C 287.487,422.605 287.487,422.605 287.487,422.605 L 287.487,422.605 Z" marker-start="none" marker-end="none"/>
      <path d="M 287.832,422.812 C 287.832,422.843 287.858,422.871 287.896,422.873 C 287.936,422.876 287.96,422.852 287.959,422.828 C 287.959,422.828 287.957,422.821 287.957,422.821 C 287.961,422.825 287.964,422.829 287.968,422.833 C 288.017,422.885 288.072,422.885 288.098,422.847 C 288.12,422.814 288.109,422.776 288.076,422.762 C 288.076,422.762 288.069,422.758 288.069,422.758 C 288.069,422.758 288.052,422.752 288.052,422.752 C 288.035,422.747 288.024,422.741 288.014,422.735 C 287.973,422.711 287.959,422.69 287.959,422.669 C 287.959,422.669 287.959,422.479 287.959,422.479 C 287.959,422.444 287.931,422.416 287.896,422.416 C 287.86,422.416 287.832,422.444 287.832,422.478 C 287.832,422.478 287.832,422.812 287.832,422.812 C 287.832,422.812 287.832,422.812 287.832,422.812 L 287.832,422.812 Z" marker-start="none" marker-end="none"/>
      <path d="M 288.257,422.56 C 288.292,422.517 288.358,422.518 288.391,422.563 C 288.406,422.582 288.413,422.606 288.414,422.641 C 288.414,422.697 288.393,422.733 288.36,422.749 C 288.305,422.776 288.243,422.74 288.233,422.665 C 288.232,422.657 288.231,422.649 288.231,422.642 C 288.231,422.607 288.241,422.58 288.257,422.56 C 288.257,422.56 288.257,422.56 288.257,422.56 L 288.257,422.56 Z M 288.417,422.83 C 288.418,422.854 288.441,422.876 288.475,422.872 C 288.512,422.869 288.539,422.839 288.539,422.807 C 288.539,422.807 288.539,422.476 288.539,422.476 C 288.539,422.311 288.441,422.221 288.269,422.239 C 288.235,422.243 288.203,422.251 288.173,422.264 C 288.112,422.292 288.102,422.335 288.131,422.367 C 288.148,422.385 288.169,422.389 288.197,422.38 C 288.197,422.38 288.197,422.379 288.197,422.379 C 288.197,422.379 288.223,422.368 288.223,422.368 C 288.229,422.365 288.235,422.363 288.24,422.361 C 288.349,422.322 288.411,422.367 288.413,422.449 C 288.414,422.455 288.413,422.461 288.413,422.467 C 288.366,422.4 288.249,422.388 288.169,422.468 C 288.118,422.519 288.093,422.603 288.109,422.695 C 288.115,422.728 288.126,422.756 288.141,422.78 C 288.211,422.893 288.353,422.904 288.417,422.824 C 288.417,422.824 288.417,422.83 288.417,422.83 C 288.417,422.83 288.417,422.83 288.417,422.83 L 288.417,422.83 Z" marker-start="none" marker-end="none"/>
      <path d="M 288.609,422.867 C 288.645,422.882 288.681,422.866 288.696,422.825 C 288.696,422.825 288.776,422.613 288.776,422.613 C 288.776,422.613 288.856,422.826 288.856,422.826 C 288.872,422.866 288.909,422.883 288.944,422.866 C 288.975,422.852 288.989,422.816 288.975,422.784 C 288.975,422.784 288.77,422.28 288.77,422.28 C 288.752,422.238 288.718,422.222 288.683,422.236 C 288.65,422.25 288.636,422.286 288.65,422.32 C 288.65,422.32 288.709,422.457 288.709,422.457 C 288.709,422.457 288.575,422.786 288.575,422.786 C 288.563,422.818 288.577,422.854 288.609,422.867 C 288.609,422.867 288.609,422.867 288.609,422.867 L 288.609,422.867 Z" marker-start="none" marker-end="none"/>
      <path d="M 284.558,422.149 C 284.564,422.144 284.567,422.136 284.567,422.126 C 284.567,422.115 284.564,422.106 284.557,422.101 C 284.551,422.096 284.541,422.093 284.527,422.093 C 284.523,422.093 284.517,422.094 284.51,422.095 C 284.51,422.095 284.51,422.156 284.51,422.156 C 284.51,422.156 284.527,422.156 284.527,422.156 C 284.542,422.156 284.552,422.154 284.558,422.149 C 284.558,422.149 284.558,422.149 284.558,422.149 L 284.558,422.149 Z M 284.574,422.088 C 284.585,422.097 284.59,422.108 284.59,422.122 C 284.59,422.135 284.587,422.144 284.581,422.151 C 284.575,422.159 284.566,422.164 284.553,422.167 C 284.56,422.168 284.566,422.172 284.572,422.178 C 284.577,422.184 284.58,422.191 284.58,422.199 C 284.58,422.211 284.576,422.221 284.567,422.228 C 284.558,422.235 284.546,422.238 284.53,422.238 C 284.521,422.238 284.507,422.238 284.488,422.237 C 284.488,422.237 284.488,422.076 284.488,422.076 C 284.488,422.076 284.534,422.076 284.534,422.076 C 284.55,422.076 284.564,422.08 284.574,422.088 C 284.574,422.088 284.574,422.088 284.574,422.088 L 284.574,422.088 Z M 284.529,422.22 C 284.548,422.22 284.558,422.213 284.558,422.198 C 284.558,422.181 284.548,422.172 284.527,422.172 C 284.52,422.172 284.514,422.173 284.51,422.173 C 284.51,422.173 284.51,422.219 284.51,422.219 C 284.515,422.22 284.522,422.22 284.529,422.22 C 284.529,422.22 284.529,422.22 284.529,422.22 L 284.529,422.22 Z" marker-start="none" marker-end="none"/>
      <path d="M 284.913,422.076 C 284.913,422.076 284.818,422.076 284.818,422.076 C 284.818,422.076 284.818,422.237 284.818,422.237 C 284.818,422.237 284.84,422.237 284.84,422.237 C 284.84,422.237 284.84,422.096 284.84,422.096 C 284.84,422.096 284.913,422.096 284.913,422.096 C 284.913,422.096 284.913,422.076 284.913,422.076 C 284.913,422.076 284.913,422.076 284.913,422.076 L 284.913,422.076 Z" marker-start="none" marker-end="none"/>
      <path d="M 285.135,422.125 C 285.135,422.125 285.135,422.237 285.135,422.237 C 285.135,422.237 285.157,422.237 285.157,422.237 C 285.157,422.237 285.157,422.127 285.157,422.127 C 285.157,422.117 285.16,422.109 285.166,422.102 C 285.172,422.096 285.18,422.093 285.191,422.093 C 285.202,422.093 285.21,422.096 285.216,422.102 C 285.223,422.108 285.226,422.117 285.226,422.127 C 285.226,422.127 285.226,422.237 285.226,422.237 C 285.226,422.237 285.248,422.237 285.248,422.237 C 285.248,422.237 285.248,422.125 285.248,422.125 C 285.248,422.109 285.243,422.096 285.232,422.087 C 285.222,422.078 285.208,422.073 285.191,422.073 C 285.173,422.073 285.159,422.077 285.149,422.087 C 285.14,422.095 285.135,422.108 285.135,422.125 C 285.135,422.125 285.135,422.125 285.135,422.125 L 285.135,422.125 Z" marker-start="none" marker-end="none"/>
      <path d="M 285.617,422.217 C 285.617,422.217 285.543,422.217 285.543,422.217 C 285.543,422.217 285.543,422.172 285.543,422.172 C 285.543,422.172 285.596,422.172 285.596,422.172 C 285.596,422.172 285.596,422.154 285.596,422.154 C 285.596,422.154 285.543,422.154 285.543,422.154 C 285.543,422.154 285.543,422.096 285.543,422.096 C 285.543,422.096 285.616,422.096 285.616,422.096 C 285.616,422.096 285.616,422.076 285.616,422.076 C 285.616,422.076 285.521,422.076 285.521,422.076 C 285.521,422.076 285.521,422.237 285.521,422.237 C 285.521,422.237 285.617,422.237 285.617,422.237 C 285.617,422.237 285.617,422.217 285.617,422.217 C 285.617,422.217 285.617,422.217 285.617,422.217 L 285.617,422.217 Z" marker-start="none" marker-end="none"/>
      <path d="M 286.153,422.137 C 286.194,422.137 286.215,422.155 286.215,422.191 C 286.215,422.222 286.192,422.238 286.145,422.238 C 286.142,422.238 286.131,422.238 286.115,422.237 C 286.115,422.237 286.115,422.076 286.115,422.076 C 286.115,422.076 286.137,422.076 286.137,422.076 C 286.137,422.076 286.137,422.138 286.137,422.138 C 286.145,422.137 286.151,422.137 286.153,422.137 C 286.153,422.137 286.153,422.137 286.153,422.137 L 286.153,422.137 Z M 286.149,422.218 C 286.178,422.218 286.193,422.208 286.193,422.189 C 286.193,422.167 286.179,422.156 286.152,422.156 C 286.151,422.156 286.146,422.157 286.137,422.158 C 286.137,422.158 286.137,422.217 286.137,422.217 C 286.142,422.218 286.146,422.218 286.149,422.218 C 286.149,422.218 286.149,422.218 286.149,422.218 L 286.149,422.218 Z" marker-start="none" marker-end="none"/>
      <path d="M 286.453,422.097 C 286.464,422.081 286.48,422.073 286.5,422.073 C 286.523,422.073 286.54,422.081 286.552,422.096 C 286.564,422.111 286.57,422.131 286.57,422.158 C 286.57,422.183 286.564,422.204 286.552,422.218 C 286.54,422.233 286.523,422.24 286.5,422.24 C 286.481,422.24 286.465,422.232 286.453,422.216 C 286.441,422.201 286.435,422.181 286.435,422.158 C 286.435,422.133 286.441,422.113 286.453,422.097 C 286.453,422.097 286.453,422.097 286.453,422.097 L 286.453,422.097 Z M 286.469,422.203 C 286.476,422.215 286.487,422.22 286.5,422.22 C 286.531,422.22 286.546,422.199 286.546,422.158 C 286.546,422.137 286.543,422.121 286.535,422.11 C 286.527,422.099 286.515,422.093 286.5,422.093 C 286.487,422.093 286.477,422.099 286.469,422.112 C 286.462,422.124 286.459,422.139 286.459,422.158 C 286.459,422.177 286.462,422.192 286.469,422.203 C 286.469,422.203 286.469,422.203 286.469,422.203 L 286.469,422.203 Z" marker-start="none" marker-end="none"/>
      <path d="M 286.972,422.237 C 286.972,422.237 286.921,422.074 286.921,422.074 C 286.921,422.074 286.915,422.074 286.915,422.074 C 286.915,422.074 286.876,422.185 286.876,422.185 C 286.876,422.185 286.84,422.074 286.84,422.074 C 286.84,422.074 286.833,422.074 286.833,422.074 C 286.833,422.074 286.783,422.237 286.783,422.237 C 286.783,422.237 286.806,422.237 286.806,422.237 C 286.806,422.237 286.838,422.124 286.838,422.124 C 286.838,422.124 286.873,422.237 286.873,422.237 C 286.873,422.237 286.881,422.237 286.881,422.237 C 286.881,422.237 286.916,422.125 286.916,422.125 C 286.916,422.125 286.949,422.237 286.949,422.237 C 286.949,422.237 286.972,422.237 286.972,422.237 C 286.972,422.237 286.972,422.237 286.972,422.237 L 286.972,422.237 Z" marker-start="none" marker-end="none"/>
      <path d="M 287.288,422.217 C 287.288,422.217 287.214,422.217 287.214,422.217 C 287.214,422.217 287.214,422.172 287.214,422.172 C 287.214,422.172 287.267,422.172 287.267,422.172 C 287.267,422.172 287.267,422.154 287.267,422.154 C 287.267,422.154 287.214,422.154 287.214,422.154 C 287.214,422.154 287.214,422.096 287.214,422.096 C 287.214,422.096 287.287,422.096 287.287,422.096 C 287.287,422.096 287.287,422.076 287.287,422.076 C 287.287,422.076 287.192,422.076 287.192,422.076 C 287.192,422.076 287.192,422.237 287.192,422.237 C 287.192,422.237 287.288,422.237 287.288,422.237 C 287.288,422.237 287.288,422.217 287.288,422.217 C 287.288,422.217 287.288,422.217 287.288,422.217 L 287.288,422.217 Z" marker-start="none" marker-end="none"/>
      <path d="M 287.584,422.15 C 287.592,422.152 287.599,422.157 287.606,422.165 C 287.612,422.173 287.615,422.182 287.615,422.192 C 287.615,422.223 287.596,422.239 287.557,422.239 C 287.552,422.239 287.544,422.238 287.534,422.238 C 287.523,422.237 287.518,422.237 287.517,422.237 C 287.517,422.237 287.517,422.076 287.517,422.076 C 287.517,422.076 287.539,422.076 287.539,422.076 C 287.539,422.076 287.539,422.146 287.539,422.146 C 287.549,422.145 287.557,422.145 287.562,422.145 C 287.562,422.145 287.605,422.076 287.605,422.076 C 287.605,422.076 287.63,422.076 287.63,422.076 C 287.63,422.076 287.584,422.15 287.584,422.15 C 287.584,422.15 287.584,422.15 287.584,422.15 L 287.584,422.15 Z M 287.552,422.218 C 287.566,422.218 287.576,422.216 287.582,422.212 C 287.589,422.208 287.592,422.202 287.592,422.193 C 287.592,422.182 287.589,422.174 287.583,422.17 C 287.577,422.166 287.567,422.164 287.554,422.164 C 287.549,422.164 287.544,422.164 287.539,422.165 C 287.539,422.165 287.539,422.217 287.539,422.217 C 287.545,422.218 287.55,422.218 287.552,422.218 C 287.552,422.218 287.552,422.218 287.552,422.218 L 287.552,422.218 Z" marker-start="none" marker-end="none"/>
     </g>
    </g>
   </g>
  </g>
 </g>
</svg>
