<?xml version="1.0" encoding="utf-8"?>
<svg id="master-artboard" viewBox="0 0 1400 980" version="1.1" xmlns="http://www.w3.org/2000/svg" x="0px" y="0px" style="enable-background:new 0 0 1400 980;" width="1400px" height="980px"><defs><marker id="DefaultArrow2" markerUnits="strokeWidth" viewBox="0 0 1 1" markerWidth="1" markerHeight="1" overflow="visible" orient="auto">
   <!-- REF_ARROW_STRAIGHT (-2) -->
   <g transform="scale(0.0092592592)">
    <!-- 1/108 -->
    <path d="M -9 54 L -9 -54 L 117 0 z"/>
   </g>
  </marker><marker id="DefaultArrow3" markerUnits="strokeWidth" viewBox="0 0 1 1" markerWidth="1" markerHeight="1" overflow="visible" orient="auto">
   <!-- REF_ARROW_ANGLED -->
   <g transform="scale(0.0092592592)">
    <path d="M -27 54 L -9 0 L -27 -54 L 135 0 z"/>
   </g>
  </marker><marker id="DefaultArrow4" markerUnits="strokeWidth" viewBox="0 0 1 1" markerWidth="1" markerHeight="1" overflow="visible" orient="auto">
   <!-- REF_ARROW_ROUNDED -->
   <g transform="scale(0.0092592592)">
    <path d="M -9,0 L -9,-45 C -9,-51.708 2.808,-56.580 9,-54 L 117,-9 C 120.916,-7.369 126.000,-4.242 126,0 C 126,4.242 120.916,7.369 117,9 L 9,54 C 2.808,56.580 -9,51.708 -9,45 z"/>
   </g>
  </marker><marker id="DefaultArrow5" markerUnits="strokeWidth" viewBox="0 0 1 1" markerWidth="1" markerHeight="1" overflow="visible" orient="auto">
   <!-- REF_ARROW_SPOT -->
   <g transform="scale(0.0092592592)">
    <path d="M -54, 0 C -54,29.807 -29.807,54 0,54 C 29.807,54 54,29.807 54,0 C 54,-29.807 29.807,-54 0,-54 C -29.807,-54 -54,-29.807 -54,0 z"/>
   </g>
  </marker><marker id="DefaultArrow6" markerUnits="strokeWidth" viewBox="0 0 1 1" markerWidth="1" markerHeight="1" overflow="visible" orient="auto">
   <!-- REF_ARROW_DIAMOND -->
   <g transform="scale(0.0092592592)">
    <path d="M -63,0 L 0,63 L 63,0 L 0,-63 z"/>
   </g>
  </marker><marker id="DefaultArrow7" markerUnits="strokeWidth" viewBox="0 0 1 1" markerWidth="1" markerHeight="1" overflow="visible" orient="auto">
   <!-- REF_ARROW_FEATHER -->
   <g transform="scale(0.0092592592)">
    <path d="M 18,-54 L 108,-54 L 63,0 L 108,54 L 18, 54 L -36,0 z"/>
   </g>
  </marker><marker id="DefaultArrow8" markerUnits="strokeWidth" viewBox="0 0 1 1" markerWidth="1" markerHeight="1" overflow="visible" orient="auto">
   <!-- REF_ARROW_FEATHER2 -->
   <g transform="scale(0.0092592592)">
    <path d="M -36,0 L 18,-54 L 54,-54 L 18,-18 L 27,-18 L 63,-54 L 99,-54 L 63,-18 L 72,-18 L 108,-54 L 144,-54 L 90,0 L 144,54 L 108,54 L 72,18 L 63,18 L 99,54 L 63,54 L 27,18 L 18,18 L 54,54 L 18,54 z"/>
   </g>
  </marker><marker id="DefaultArrow9" markerUnits="strokeWidth" viewBox="0 0 1 1" markerWidth="1" markerHeight="1" overflow="visible" orient="auto">
   <!-- REF_ARROW_HOLLOWDIAMOND -->
   <g transform="scale(0.0092592592)">
    <path d="M 0,45 L -45,0 L 0, -45 L 45, 0 z M 0, 63 L-63, 0 L 0, -63 L 63, 0 z"/>
   </g>
  </marker><filter id="StainedFilter">
   <feBlend mode="multiply" in2="BackgroundImage" in="SourceGraphic" result="blend"/>
   <feComposite in="blend" in2="SourceAlpha" operator="in" result="comp"/>
  </filter><filter id="BleachFilter">
   <feBlend mode="screen" in2="BackgroundImage" in="SourceGraphic" result="blend"/>
   <feComposite in="blend" in2="SourceAlpha" operator="in" result="comp"/>
  </filter><filter id="InvertTransparencyBitmapFilter">
   <feComponentTransfer>
    <feFuncR type="gamma" amplitude="1.055" exponent=".416666666" offset="-0.055"/>
    <feFuncG type="gamma" amplitude="1.055" exponent=".416666666" offset="-0.055"/>
    <feFuncB type="gamma" amplitude="1.055" exponent=".416666666" offset="-0.055"/>
   </feComponentTransfer>
   <feComponentTransfer>
    <feFuncR type="linear" slope="-1" intercept="1"/>
    <feFuncG type="linear" slope="-1" intercept="1"/>
    <feFuncB type="linear" slope="-1" intercept="1"/>
    <feFuncA type="linear" slope="1" intercept="0"/>
   </feComponentTransfer>
   <feComponentTransfer>
    <feFuncR type="gamma" amplitude="1" exponent="2.4" offset="0"/>
    <feFuncG type="gamma" amplitude="1" exponent="2.4" offset="0"/>
    <feFuncB type="gamma" amplitude="1" exponent="2.4" offset="0"/>
   </feComponentTransfer>
  </filter></defs><g transform="matrix(1.6462923579142374, 0, 0, 1.6462923579142374, 7.0006538426735005, -0.0000036676431136584142)"><g id="Document" fill="none" stroke="black" font-family="Times New Roman" font-size="16" transform="scale(1 -1)">
  <g id="Spread" transform="translate(0 -595.277)">
   <g id="Layer 1"/>
   <g id="logo">
    <g id="Group">
     <path d="M 211.852,442.354 L 211.852,434.428 L 216.094,434.428 L 216.094,442.354 L 211.852,442.354 Z" stroke="#e5e5e5" fill="#b2b2b2" stroke-width="0.118" stroke-linejoin="miter" marker-start="none" marker-end="none" stroke-miterlimit="79.8403193612775"/>
     <path d="M 212.288,465.793 L 212.288,457.868 L 216.53,457.868 L 216.53,465.793 L 212.288,465.793 Z" stroke="#e5e5e5" fill="#b2b2b2" stroke-width="0.118" stroke-linejoin="miter" marker-start="none" marker-end="none" stroke-miterlimit="79.8403193612775"/>
     <path d="M 215.412,470.144 L 214.474,463.625 L 214.448,438.128 L 215.276,431.074 L 221.725,429.882 L 249.613,429.941 L 255.845,431.144 L 256.725,437.985 L 256.624,463.419 L 255.946,470.091 C 254.625,470.379 250.749,471.244 249.562,471.547 C 238.53,471.44 233.294,471.607 222.023,471.526 C 220.826,470.954 216.721,470.758 215.412,470.144 Z" stroke="none" fill="#359ff1" stroke-linejoin="miter" marker-start="none" marker-end="none"/>
     <path d="M 221.29,463.973 L 221.29,437.717 L 250.037,437.717 L 250.037,463.973 L 221.29,463.973 Z" stroke="none" fill="#198be2" stroke-width="0.118" stroke-linejoin="miter" marker-start="none" marker-end="none" stroke-miterlimit="79.8403193612775"/>
     <g id="Group_1" fill="#198be2">
      <path d="M 244.28,439.451 C 244.529,439.451 244.73,439.249 244.73,439.001 C 244.73,438.752 244.529,438.551 244.28,438.551 C 244.032,438.551 243.831,438.752 243.831,439.001 C 243.831,439.249 244.032,439.451 244.28,439.451 Z" stroke="#ffffff" stroke-width="0.133" marker-start="none" marker-end="none" stroke-miterlimit="79.8403193612775"/>
      <path d="M 244.372,439.636 L 244.372,438.457 L 244.865,438.457 L 244.865,439.636 L 244.372,439.636 Z" stroke-width="0.066" stroke="none" stroke-linejoin="miter" marker-start="none" marker-end="none" stroke-miterlimit="79.8403193612775"/>
      <path d="M 245.131,439.464 C 245.379,439.464 245.58,439.263 245.58,439.015 C 245.58,438.766 245.379,438.565 245.131,438.565 C 244.882,438.565 244.681,438.766 244.681,439.015 C 244.681,439.263 244.882,439.464 245.131,439.464 Z" stroke="#ffffff" stroke-width="0.133" marker-start="none" marker-end="none" stroke-miterlimit="79.8403193612775"/>
      <path d="M 244.709,439.006 L 245.132,439.006" fill="none" stroke="#ffffff" stroke-width="0.133" stroke-miterlimit="79.8403193612775"/>
      <path d="M 245.259,439.606 L 245.259,438.427 L 245.752,438.427 L 245.752,439.606 L 245.259,439.606 Z" stroke-width="0.066" stroke="none" stroke-linejoin="miter" marker-start="none" marker-end="none" stroke-miterlimit="79.8403193612775"/>
     </g>
     <path d="M 224.97,440.066 L 246.442,440.066" fill="none" stroke="#ffffff" stroke-width="0.237" stroke-miterlimit="79.8403193612775"/>
     <path d="M 224.776,447.701 L 246.31,447.701" fill="none" stroke="#ffffff" stroke-width="0.237" stroke-miterlimit="79.8403193612775"/>
     <path d="M 222.66,453.909 L 222.66,451.844 L 248.095,451.844 L 248.095,453.909 L 222.66,453.909 Z" stroke="none" fill="#ff8200" stroke-width="0.118" stroke-linejoin="miter" marker-start="none" marker-end="none" stroke-miterlimit="79.8403193612775"/>
     <path d="M 235.483,450.009 C 235.892,450.009 236.224,449.68 236.224,449.276 C 236.224,448.871 235.892,448.542 235.483,448.542 C 235.073,448.542 234.741,448.871 234.741,449.276 C 234.741,449.68 235.073,450.009 235.483,450.009 Z" stroke="#00ff03" fill="#00bf02" stroke-width="0.118" marker-start="none" marker-end="none" stroke-miterlimit="79.8403193612775"/>
     <g id="Group_2" fill-rule="nonzero" stroke="none" stroke-width="0.021" fill="#ffffff" stroke-miterlimit="79.8403193612775">
      <g id="Group_3">
       <path d="M 225.645,438.804 L 225.645,439.303 C 225.645,439.329 225.651,439.348 225.662,439.361 C 225.674,439.374 225.69,439.38 225.708,439.38 C 225.728,439.38 225.743,439.374 225.755,439.361 C 225.767,439.348 225.773,439.329 225.773,439.303 L 225.773,438.804 C 225.773,438.778 225.767,438.758 225.755,438.745 C 225.743,438.732 225.728,438.726 225.708,438.726 C 225.69,438.726 225.675,438.732 225.663,438.745 C 225.651,438.758 225.645,438.778 225.645,438.804 Z" marker-start="none" marker-end="none"/>
       <path d="M 226.162,438.983 L 226.045,438.983 L 226.045,438.804 C 226.045,438.778 226.039,438.759 226.027,438.746 C 226.015,438.732 225.999,438.726 225.981,438.726 C 225.962,438.726 225.946,438.732 225.934,438.745 C 225.922,438.758 225.917,438.778 225.917,438.803 L 225.917,439.291 C 225.917,439.319 225.923,439.339 225.936,439.351 C 225.949,439.364 225.97,439.37 225.998,439.37 L 226.162,439.37 C 226.211,439.37 226.248,439.366 226.275,439.358 C 226.3,439.351 226.323,439.339 226.342,439.323 C 226.361,439.306 226.375,439.285 226.385,439.261 C 226.394,439.237 226.399,439.21 226.399,439.18 C 226.399,439.115 226.38,439.066 226.34,439.033 C 226.3,439 226.241,438.983 226.162,438.983 Z M 226.131,439.273 L 226.045,439.273 L 226.045,439.08 L 226.131,439.08 C 226.161,439.08 226.187,439.083 226.207,439.089 C 226.227,439.096 226.243,439.106 226.253,439.12 C 226.264,439.135 226.269,439.154 226.269,439.177 C 226.269,439.205 226.261,439.228 226.245,439.245 C 226.226,439.264 226.189,439.273 226.131,439.273 Z" marker-start="none" marker-end="none"/>
       <path d="M 226.635,438.838 L 226.86,438.838 C 226.883,438.838 226.9,438.834 226.912,438.825 C 226.923,438.815 226.929,438.803 226.929,438.787 C 226.929,438.773 226.925,438.761 226.915,438.751 C 226.906,438.741 226.892,438.737 226.873,438.737 L 226.555,438.737 C 226.533,438.737 226.517,438.742 226.504,438.754 C 226.492,438.766 226.486,438.78 226.486,438.797 C 226.486,438.807 226.49,438.821 226.498,438.838 C 226.506,438.855 226.514,438.868 226.523,438.878 C 226.562,438.918 226.596,438.952 226.627,438.98 C 226.658,439.009 226.68,439.027 226.693,439.036 C 226.717,439.053 226.736,439.07 226.752,439.087 C 226.768,439.103 226.78,439.121 226.788,439.138 C 226.796,439.156 226.8,439.173 226.8,439.19 C 226.8,439.209 226.796,439.225 226.787,439.24 C 226.778,439.254 226.766,439.266 226.751,439.274 C 226.736,439.282 226.72,439.286 226.702,439.286 C 226.664,439.286 226.634,439.269 226.613,439.236 C 226.61,439.232 226.605,439.22 226.598,439.201 C 226.592,439.181 226.584,439.167 226.575,439.156 C 226.567,439.146 226.555,439.141 226.538,439.141 C 226.524,439.141 226.512,439.145 226.502,439.155 C 226.493,439.164 226.488,439.177 226.488,439.194 C 226.488,439.214 226.492,439.234 226.501,439.256 C 226.51,439.278 226.524,439.297 226.541,439.315 C 226.559,439.332 226.582,439.346 226.609,439.357 C 226.636,439.368 226.668,439.373 226.704,439.373 C 226.748,439.373 226.786,439.367 226.817,439.353 C 226.837,439.344 226.855,439.331 226.87,439.315 C 226.885,439.299 226.897,439.28 226.906,439.259 C 226.914,439.238 226.919,439.216 226.919,439.193 C 226.919,439.157 226.91,439.125 226.892,439.096 C 226.874,439.066 226.856,439.043 226.838,439.027 C 226.819,439.01 226.789,438.984 226.745,438.949 C 226.702,438.914 226.672,438.886 226.656,438.866 C 226.649,438.859 226.642,438.849 226.635,438.838 Z" marker-start="none" marker-end="none"/>
       <path d="M 227.161,438.838 L 227.386,438.838 C 227.409,438.838 227.426,438.834 227.438,438.825 C 227.449,438.815 227.455,438.803 227.455,438.787 C 227.455,438.773 227.451,438.761 227.441,438.751 C 227.432,438.741 227.418,438.737 227.399,438.737 L 227.081,438.737 C 227.059,438.737 227.043,438.742 227.03,438.754 C 227.018,438.766 227.012,438.78 227.012,438.797 C 227.012,438.807 227.016,438.821 227.024,438.838 C 227.032,438.855 227.04,438.868 227.049,438.878 C 227.088,438.918 227.122,438.952 227.153,438.98 C 227.184,439.009 227.206,439.027 227.219,439.036 C 227.243,439.053 227.262,439.07 227.278,439.087 C 227.294,439.103 227.306,439.121 227.314,439.138 C 227.322,439.156 227.326,439.173 227.326,439.19 C 227.326,439.209 227.322,439.225 227.313,439.24 C 227.304,439.254 227.292,439.266 227.277,439.274 C 227.262,439.282 227.246,439.286 227.228,439.286 C 227.19,439.286 227.16,439.269 227.139,439.236 C 227.136,439.232 227.131,439.22 227.124,439.201 C 227.118,439.181 227.11,439.167 227.101,439.156 C 227.093,439.146 227.081,439.141 227.064,439.141 C 227.05,439.141 227.038,439.145 227.028,439.155 C 227.019,439.164 227.014,439.177 227.014,439.194 C 227.014,439.214 227.018,439.234 227.027,439.256 C 227.036,439.278 227.05,439.297 227.067,439.315 C 227.085,439.332 227.108,439.346 227.135,439.357 C 227.162,439.368 227.194,439.373 227.23,439.373 C 227.274,439.373 227.312,439.367 227.343,439.353 C 227.363,439.344 227.381,439.331 227.396,439.315 C 227.411,439.299 227.423,439.28 227.432,439.259 C 227.44,439.238 227.445,439.216 227.445,439.193 C 227.445,439.157 227.436,439.125 227.418,439.096 C 227.4,439.066 227.382,439.043 227.364,439.027 C 227.345,439.01 227.315,438.984 227.271,438.949 C 227.228,438.914 227.198,438.886 227.182,438.866 C 227.175,438.859 227.168,438.849 227.161,438.838 Z" marker-start="none" marker-end="none"/>
      </g>
     </g>
     <g id="Group_4" fill-rule="nonzero" fill="#ffffff">
      <g id="Group_5">
       <path d="M 225.148,445.122 L 225.148,446.429 C 225.148,446.49 225.162,446.535 225.188,446.566 C 225.215,446.597 225.252,446.613 225.297,446.613 C 225.343,446.613 225.38,446.597 225.408,446.567 C 225.436,446.536 225.45,446.49 225.45,446.429 L 225.45,445.122 C 225.45,445.061 225.435,445.015 225.407,444.985 C 225.379,444.954 225.342,444.939 225.297,444.939 C 225.253,444.939 225.217,444.955 225.19,444.986 C 225.162,445.018 225.148,445.063 225.148,445.122 Z" stroke="#ffffff" stroke-width="0.118" marker-start="none" marker-end="none" stroke-miterlimit="79.8403193612775"/>
       <path d="M 226.039,444.901 L 226.067,444.969 L 225.696,445.903 C 225.673,445.956 225.662,445.995 225.662,446.02 C 225.662,446.045 225.668,446.069 225.682,446.091 C 225.695,446.114 225.713,446.131 225.736,446.144 C 225.76,446.158 225.784,446.164 225.809,446.164 C 225.852,446.164 225.885,446.151 225.907,446.123 C 225.929,446.095 225.948,446.056 225.965,446.004 L 226.22,445.262 L 226.462,445.952 C 226.481,446.008 226.499,446.052 226.514,446.084 C 226.53,446.115 226.546,446.137 226.563,446.148 C 226.581,446.159 226.605,446.164 226.637,446.164 C 226.659,446.164 226.681,446.158 226.702,446.146 C 226.723,446.134 226.739,446.118 226.751,446.097 C 226.762,446.076 226.768,446.055 226.768,446.032 C 226.765,446.018 226.76,445.998 226.754,445.972 C 226.747,445.946 226.739,445.92 226.729,445.894 L 226.336,444.865 C 226.303,444.774 226.269,444.703 226.237,444.652 C 226.205,444.6 226.162,444.561 226.108,444.533 C 226.055,444.506 225.983,444.492 225.893,444.492 C 225.804,444.492 225.738,444.501 225.694,444.52 C 225.65,444.54 225.628,444.575 225.628,444.625 C 225.628,444.66 225.638,444.687 225.659,444.705 C 225.68,444.724 225.711,444.734 225.752,444.734 C 225.769,444.734 225.784,444.731 225.8,444.727 C 225.819,444.723 225.835,444.72 225.849,444.72 C 225.884,444.72 225.911,444.725 225.931,444.736 C 225.951,444.746 225.969,444.764 225.985,444.789 C 226.001,444.815 226.019,444.852 226.039,444.901 Z" stroke="#ffffff" stroke-width="0.118" marker-start="none" marker-end="none" stroke-miterlimit="79.8403193612775"/>
       <path d="M 227.26,445.998 L 227.26,445.961 C 227.313,446.031 227.371,446.082 227.434,446.115 C 227.497,446.148 227.569,446.164 227.651,446.164 C 227.73,446.164 227.801,446.147 227.864,446.112 C 227.926,446.078 227.973,446.029 228.004,445.966 C 228.024,445.929 228.037,445.889 228.043,445.846 C 228.049,445.804 228.052,445.749 228.052,445.683 L 228.052,445.122 C 228.052,445.062 228.038,445.016 228.01,444.985 C 227.983,444.954 227.947,444.939 227.902,444.939 C 227.858,444.939 227.821,444.955 227.793,444.986 C 227.765,445.018 227.751,445.063 227.751,445.122 L 227.751,445.624 C 227.751,445.724 227.737,445.8 227.71,445.852 C 227.682,445.905 227.627,445.931 227.545,445.931 C 227.491,445.931 227.442,445.915 227.398,445.883 C 227.354,445.851 227.321,445.807 227.301,445.751 C 227.286,445.707 227.279,445.623 227.279,445.5 L 227.279,445.122 C 227.279,445.061 227.265,445.015 227.236,444.985 C 227.208,444.954 227.171,444.939 227.126,444.939 C 227.083,444.939 227.047,444.955 227.019,444.986 C 226.991,445.018 226.977,445.063 226.977,445.122 L 226.977,445.993 C 226.977,446.051 226.99,446.094 227.015,446.122 C 227.04,446.15 227.074,446.164 227.118,446.164 C 227.144,446.164 227.168,446.158 227.189,446.146 C 227.211,446.133 227.228,446.114 227.241,446.089 C 227.254,446.064 227.26,446.034 227.26,445.998 Z" stroke="#ffffff" stroke-width="0.118" marker-start="none" marker-end="none" stroke-miterlimit="79.8403193612775"/>
       <path d="M 229.006,445.064 L 228.787,445.385 L 228.563,445.064 C 228.531,445.019 228.503,444.987 228.481,444.968 C 228.458,444.948 228.43,444.939 228.395,444.939 C 228.357,444.939 228.324,444.951 228.298,444.975 C 228.271,444.999 228.257,445.026 228.257,445.057 C 228.257,445.089 228.278,445.134 228.319,445.193 L 228.592,445.584 L 228.35,445.909 C 228.308,445.963 228.287,446.01 228.287,446.05 C 228.287,446.08 228.3,446.107 228.325,446.13 C 228.35,446.153 228.382,446.164 228.423,446.164 C 228.458,446.164 228.487,446.154 228.511,446.135 C 228.534,446.115 228.561,446.083 228.592,446.041 L 228.787,445.774 L 228.977,446.041 C 229.009,446.085 229.036,446.116 229.059,446.136 C 229.082,446.155 229.111,446.164 229.146,446.164 C 229.186,446.164 229.219,446.153 229.245,446.131 C 229.271,446.108 229.284,446.081 229.284,446.05 C 229.284,446.027 229.279,446.005 229.268,445.984 C 229.257,445.963 229.241,445.938 229.219,445.909 L 228.977,445.584 L 229.25,445.193 C 229.292,445.132 229.314,445.086 229.314,445.055 C 229.314,445.023 229.301,444.996 229.274,444.973 C 229.248,444.95 229.215,444.939 229.176,444.939 C 229.141,444.939 229.112,444.949 229.088,444.969 C 229.064,444.989 229.037,445.02 229.006,445.064 Z" stroke="#ffffff" stroke-width="0.118" marker-start="none" marker-end="none" stroke-miterlimit="79.8403193612775"/>
       <path d="M 231.066,445.333 C 231.066,445.25 231.045,445.179 231.005,445.119 C 230.964,445.06 230.905,445.015 230.825,444.985 C 230.746,444.954 230.65,444.939 230.537,444.939 C 230.429,444.939 230.336,444.955 230.259,444.989 C 230.181,445.022 230.124,445.063 230.087,445.113 C 230.051,445.162 230.032,445.212 230.032,445.262 C 230.032,445.296 230.044,445.324 230.068,445.347 C 230.091,445.371 230.121,445.383 230.157,445.383 C 230.189,445.383 230.213,445.375 230.23,445.36 C 230.247,445.344 230.263,445.322 230.278,445.294 C 230.309,445.241 230.346,445.201 230.389,445.174 C 230.432,445.148 230.491,445.134 230.565,445.134 C 230.626,445.134 230.675,445.148 230.714,445.175 C 230.753,445.201 230.772,445.232 230.772,445.267 C 230.772,445.32 230.752,445.358 230.712,445.383 C 230.672,445.407 230.606,445.43 230.514,445.452 C 230.41,445.478 230.325,445.505 230.26,445.533 C 230.195,445.562 230.143,445.599 230.104,445.645 C 230.065,445.692 230.045,445.749 230.045,445.817 C 230.045,445.877 230.064,445.934 230.1,445.988 C 230.136,446.041 230.189,446.084 230.259,446.116 C 230.329,446.148 230.414,446.164 230.514,446.164 C 230.592,446.164 230.662,446.156 230.724,446.14 C 230.786,446.124 230.838,446.102 230.88,446.075 C 230.921,446.048 230.953,446.018 230.974,445.984 C 230.996,445.951 231.007,445.919 231.007,445.887 C 231.007,445.853 230.995,445.824 230.972,445.802 C 230.949,445.78 230.916,445.769 230.873,445.769 C 230.843,445.769 230.816,445.778 230.795,445.796 C 230.773,445.813 230.748,445.84 230.72,445.875 C 230.697,445.905 230.67,445.928 230.639,445.946 C 230.609,445.963 230.567,445.972 230.514,445.972 C 230.459,445.972 230.414,445.961 230.378,445.937 C 230.342,445.914 230.324,445.885 230.324,445.851 C 230.324,445.819 230.337,445.793 230.363,445.773 C 230.39,445.753 230.426,445.736 230.471,445.723 C 230.515,445.709 230.577,445.693 230.656,445.674 C 230.749,445.651 230.826,445.624 230.885,445.592 C 230.944,445.561 230.989,445.523 231.02,445.48 C 231.05,445.437 231.066,445.388 231.066,445.333 Z" stroke-width="0.056" stroke="none" marker-start="none" marker-end="none" stroke-miterlimit="79.8403193612775"/>
       <path d="M 231.615,446.429 L 231.615,445.982 C 231.653,446.026 231.691,446.061 231.727,446.087 C 231.763,446.113 231.804,446.132 231.848,446.145 C 231.892,446.158 231.94,446.164 231.99,446.164 C 232.067,446.164 232.135,446.148 232.194,446.116 C 232.253,446.083 232.3,446.036 232.334,445.974 C 232.355,445.938 232.369,445.898 232.377,445.854 C 232.384,445.809 232.388,445.758 232.388,445.7 L 232.388,445.122 C 232.388,445.062 232.374,445.016 232.346,444.985 C 232.319,444.954 232.282,444.939 232.236,444.939 C 232.137,444.939 232.087,445 232.087,445.122 L 232.087,445.631 C 232.087,445.728 232.073,445.802 232.044,445.854 C 232.016,445.905 231.961,445.931 231.881,445.931 C 231.827,445.931 231.779,445.916 231.736,445.886 C 231.693,445.855 231.661,445.813 231.639,445.76 C 231.623,445.715 231.615,445.636 231.615,445.521 L 231.615,445.122 C 231.615,445.063 231.602,445.017 231.575,444.986 C 231.548,444.955 231.51,444.939 231.463,444.939 C 231.363,444.939 231.314,445 231.314,445.122 L 231.314,446.429 C 231.314,446.49 231.327,446.536 231.353,446.567 C 231.379,446.597 231.415,446.613 231.463,446.613 C 231.51,446.613 231.548,446.597 231.575,446.566 C 231.602,446.535 231.615,446.49 231.615,446.429 Z" stroke-width="0.056" stroke="none" marker-start="none" marker-end="none" stroke-miterlimit="79.8403193612775"/>
       <path d="M 233.469,445.109 L 233.469,445.148 C 233.433,445.102 233.395,445.064 233.355,445.033 C 233.315,445.002 233.272,444.979 233.225,444.964 C 233.178,444.949 233.124,444.941 233.064,444.941 C 232.991,444.941 232.926,444.956 232.868,444.986 C 232.81,445.017 232.765,445.058 232.734,445.111 C 232.696,445.175 232.677,445.267 232.677,445.387 L 232.677,445.984 C 232.677,446.045 232.691,446.09 232.718,446.12 C 232.745,446.149 232.782,446.164 232.826,446.164 C 232.872,446.164 232.909,446.149 232.937,446.119 C 232.965,446.089 232.979,446.044 232.979,445.984 L 232.979,445.502 C 232.979,445.432 232.985,445.373 232.996,445.326 C 233.008,445.278 233.029,445.241 233.06,445.214 C 233.09,445.187 233.132,445.174 233.184,445.174 C 233.235,445.174 233.283,445.189 233.328,445.219 C 233.372,445.25 233.405,445.289 233.426,445.337 C 233.443,445.38 233.451,445.474 233.451,445.618 L 233.451,445.984 C 233.451,446.044 233.465,446.089 233.493,446.119 C 233.521,446.149 233.558,446.164 233.602,446.164 C 233.647,446.164 233.683,446.149 233.711,446.12 C 233.738,446.09 233.752,446.045 233.752,445.984 L 233.752,445.111 C 233.752,445.054 233.738,445.011 233.712,444.982 C 233.686,444.953 233.653,444.939 233.611,444.939 C 233.57,444.939 233.536,444.954 233.509,444.984 C 233.482,445.013 233.469,445.055 233.469,445.109 Z" stroke-width="0.056" stroke="none" marker-start="none" marker-end="none" stroke-miterlimit="79.8403193612775"/>
       <path d="M 234.326,445.998 L 234.326,445.961 C 234.379,446.031 234.437,446.082 234.5,446.115 C 234.563,446.148 234.635,446.164 234.717,446.164 C 234.796,446.164 234.867,446.147 234.93,446.112 C 234.992,446.078 235.039,446.029 235.07,445.966 C 235.09,445.929 235.103,445.889 235.109,445.846 C 235.115,445.804 235.118,445.749 235.118,445.683 L 235.118,445.122 C 235.118,445.062 235.104,445.016 235.076,444.985 C 235.049,444.954 235.013,444.939 234.968,444.939 C 234.924,444.939 234.887,444.955 234.859,444.986 C 234.831,445.018 234.817,445.063 234.817,445.122 L 234.817,445.624 C 234.817,445.724 234.803,445.8 234.776,445.852 C 234.748,445.905 234.693,445.931 234.611,445.931 C 234.557,445.931 234.508,445.915 234.464,445.883 C 234.42,445.851 234.387,445.807 234.367,445.751 C 234.352,445.707 234.345,445.623 234.345,445.5 L 234.345,445.122 C 234.345,445.061 234.331,445.015 234.302,444.985 C 234.274,444.954 234.237,444.939 234.192,444.939 C 234.149,444.939 234.113,444.955 234.085,444.986 C 234.057,445.018 234.043,445.063 234.043,445.122 L 234.043,445.993 C 234.043,446.051 234.056,446.094 234.081,446.122 C 234.106,446.15 234.14,446.164 234.184,446.164 C 234.21,446.164 234.234,446.158 234.255,446.146 C 234.277,446.133 234.294,446.114 234.307,446.089 C 234.32,446.064 234.326,446.034 234.326,445.998 Z" stroke-width="0.056" stroke="none" marker-start="none" marker-end="none" stroke-miterlimit="79.8403193612775"/>
       <path d="M 235.435,446.138 L 235.468,446.138 L 235.468,446.319 C 235.468,446.367 235.469,446.406 235.472,446.433 C 235.474,446.461 235.481,446.485 235.493,446.504 C 235.505,446.525 235.522,446.542 235.544,446.555 C 235.566,446.567 235.591,446.574 235.618,446.574 C 235.656,446.574 235.691,446.56 235.722,446.531 C 235.742,446.512 235.755,446.488 235.761,446.461 C 235.766,446.433 235.769,446.394 235.769,446.343 L 235.769,446.138 L 235.88,446.138 C 235.922,446.138 235.955,446.128 235.977,446.107 C 236,446.087 236.011,446.061 236.011,446.03 C 236.011,445.989 235.995,445.961 235.963,445.945 C 235.931,445.928 235.885,445.92 235.826,445.92 L 235.769,445.92 L 235.769,445.366 C 235.769,445.319 235.771,445.283 235.774,445.257 C 235.778,445.232 235.786,445.211 235.801,445.196 C 235.815,445.18 235.838,445.172 235.871,445.172 C 235.888,445.172 235.912,445.175 235.943,445.181 C 235.973,445.187 235.996,445.191 236.013,445.191 C 236.038,445.191 236.059,445.181 236.079,445.161 C 236.098,445.142 236.108,445.118 236.108,445.089 C 236.108,445.04 236.082,445.003 236.029,444.978 C 235.976,444.952 235.9,444.939 235.8,444.939 C 235.706,444.939 235.635,444.955 235.586,444.986 C 235.537,445.018 235.506,445.062 235.49,445.118 C 235.475,445.174 235.468,445.248 235.468,445.342 L 235.468,445.92 L 235.428,445.92 C 235.385,445.92 235.352,445.931 235.329,445.951 C 235.306,445.972 235.295,445.998 235.295,446.03 C 235.295,446.061 235.306,446.087 235.33,446.107 C 235.354,446.128 235.389,446.138 235.435,446.138 Z" stroke-width="0.056" stroke="none" marker-start="none" marker-end="none" stroke-miterlimit="79.8403193612775"/>
      </g>
     </g>
     <g id="Group_6" fill-rule="nonzero" stroke="#ffffff" stroke-width="0.165" fill="#ffffff" stroke-miterlimit="79.8403193612775">
      <g id="Group_7">
       <path d="M 225.632,441.535 L 225.632,443.004 C 225.358,442.794 225.174,442.689 225.08,442.689 C 225.034,442.689 224.994,442.707 224.959,442.743 C 224.924,442.779 224.907,442.821 224.907,442.868 C 224.907,442.923 224.924,442.964 224.958,442.99 C 224.993,443.015 225.054,443.049 225.141,443.09 C 225.271,443.151 225.375,443.216 225.453,443.283 C 225.531,443.351 225.601,443.427 225.661,443.511 C 225.721,443.595 225.76,443.647 225.779,443.666 C 225.797,443.685 225.831,443.695 225.882,443.695 C 225.939,443.695 225.985,443.673 226.019,443.629 C 226.054,443.585 226.071,443.524 226.071,443.446 L 226.071,441.598 C 226.071,441.381 225.997,441.273 225.85,441.273 C 225.784,441.273 225.731,441.295 225.692,441.339 C 225.652,441.383 225.632,441.449 225.632,441.535 Z" marker-start="none" marker-end="none"/>
       <path d="M 228.472,442.474 C 228.472,442.298 228.461,442.146 228.44,442.019 C 228.418,441.892 228.378,441.777 228.32,441.674 C 228.247,441.547 228.152,441.449 228.036,441.38 C 227.92,441.311 227.791,441.276 227.648,441.276 C 227.485,441.276 227.338,441.323 227.208,441.415 C 227.079,441.508 226.981,441.636 226.915,441.8 C 226.882,441.889 226.858,441.988 226.842,442.096 C 226.826,442.204 226.819,442.321 226.819,442.447 C 226.819,442.61 226.827,442.756 226.844,442.886 C 226.862,443.016 226.888,443.128 226.925,443.222 C 226.989,443.377 227.081,443.495 227.202,443.576 C 227.323,443.658 227.468,443.698 227.636,443.698 C 227.746,443.698 227.847,443.68 227.937,443.644 C 228.028,443.608 228.107,443.556 228.176,443.486 C 228.244,443.417 228.302,443.331 228.349,443.229 C 228.431,443.051 228.472,442.8 228.472,442.474 Z M 228.03,442.507 C 228.03,442.704 228.018,442.865 227.994,442.99 C 227.97,443.116 227.93,443.21 227.875,443.275 C 227.819,443.339 227.741,443.371 227.642,443.371 C 227.5,443.371 227.401,443.299 227.346,443.156 C 227.29,443.013 227.263,442.792 227.263,442.494 C 227.263,442.291 227.274,442.126 227.298,441.997 C 227.322,441.867 227.362,441.77 227.418,441.703 C 227.474,441.637 227.549,441.604 227.645,441.604 C 227.744,441.604 227.822,441.639 227.878,441.707 C 227.934,441.776 227.973,441.875 227.996,442.003 C 228.018,442.131 228.03,442.299 228.03,442.507 Z" marker-start="none" marker-end="none"/>
       <path d="M 230.437,442.474 C 230.437,442.298 230.426,442.146 230.405,442.019 C 230.383,441.892 230.343,441.777 230.285,441.674 C 230.212,441.547 230.117,441.449 230.001,441.38 C 229.885,441.311 229.756,441.276 229.613,441.276 C 229.45,441.276 229.303,441.323 229.173,441.415 C 229.044,441.508 228.946,441.636 228.88,441.8 C 228.847,441.889 228.823,441.988 228.807,442.096 C 228.791,442.204 228.784,442.321 228.784,442.447 C 228.784,442.61 228.792,442.756 228.809,442.886 C 228.827,443.016 228.853,443.128 228.89,443.222 C 228.954,443.377 229.046,443.495 229.167,443.576 C 229.288,443.658 229.433,443.698 229.601,443.698 C 229.711,443.698 229.812,443.68 229.902,443.644 C 229.993,443.608 230.072,443.556 230.141,443.486 C 230.209,443.417 230.267,443.331 230.314,443.229 C 230.396,443.051 230.437,442.8 230.437,442.474 Z M 229.995,442.507 C 229.995,442.704 229.983,442.865 229.959,442.99 C 229.935,443.116 229.895,443.21 229.84,443.275 C 229.784,443.339 229.706,443.371 229.607,443.371 C 229.465,443.371 229.366,443.299 229.311,443.156 C 229.255,443.013 229.228,442.792 229.228,442.494 C 229.228,442.291 229.239,442.126 229.263,441.997 C 229.287,441.867 229.327,441.77 229.383,441.703 C 229.439,441.637 229.514,441.604 229.61,441.604 C 229.709,441.604 229.787,441.639 229.843,441.707 C 229.899,441.776 229.938,441.875 229.961,442.003 C 229.983,442.131 229.995,442.299 229.995,442.507 Z" marker-start="none" marker-end="none"/>
       <path d="M 232.402,442.474 C 232.402,442.298 232.391,442.146 232.37,442.019 C 232.348,441.892 232.308,441.777 232.25,441.674 C 232.177,441.547 232.082,441.449 231.966,441.38 C 231.85,441.311 231.721,441.276 231.578,441.276 C 231.415,441.276 231.268,441.323 231.138,441.415 C 231.009,441.508 230.911,441.636 230.845,441.8 C 230.812,441.889 230.788,441.988 230.772,442.096 C 230.756,442.204 230.749,442.321 230.749,442.447 C 230.749,442.61 230.757,442.756 230.774,442.886 C 230.792,443.016 230.818,443.128 230.855,443.222 C 230.919,443.377 231.011,443.495 231.132,443.576 C 231.253,443.658 231.398,443.698 231.566,443.698 C 231.676,443.698 231.777,443.68 231.867,443.644 C 231.958,443.608 232.037,443.556 232.106,443.486 C 232.174,443.417 232.232,443.331 232.279,443.229 C 232.361,443.051 232.402,442.8 232.402,442.474 Z M 231.96,442.507 C 231.96,442.704 231.948,442.865 231.924,442.99 C 231.9,443.116 231.86,443.21 231.805,443.275 C 231.749,443.339 231.671,443.371 231.572,443.371 C 231.43,443.371 231.331,443.299 231.276,443.156 C 231.22,443.013 231.193,442.792 231.193,442.494 C 231.193,442.291 231.204,442.126 231.228,441.997 C 231.252,441.867 231.292,441.77 231.348,441.703 C 231.404,441.637 231.479,441.604 231.575,441.604 C 231.674,441.604 231.752,441.639 231.808,441.707 C 231.864,441.776 231.903,441.875 231.926,442.003 C 231.948,442.131 231.96,442.299 231.96,442.507 Z" marker-start="none" marker-end="none"/>
      </g>
     </g>
     <path d="M 224.623,448.516 L 224.605,450.486 C 224.603,450.649 224.509,450.687 224.394,450.571 L 223.513,449.677 C 223.398,449.561 223.402,449.376 223.52,449.264 L 224.41,448.423 C 224.529,448.311 224.624,448.353 224.623,448.516 Z" stroke="#ffffff" fill="#ffffff" stroke-width="0.118" stroke-linejoin="miter" marker-start="none" marker-end="none" stroke-miterlimit="79.8403193612775"/>
     <path d="M 246.578,450.361 L 246.596,448.391 C 246.598,448.228 246.692,448.19 246.807,448.306 L 247.688,449.2 C 247.803,449.316 247.799,449.501 247.681,449.613 L 246.791,450.454 C 246.672,450.566 246.577,450.524 246.578,450.361 Z" stroke="#ffffff" fill="#ffffff" stroke-width="0.118" stroke-linejoin="miter" marker-start="none" marker-end="none" stroke-miterlimit="79.8403193612775"/>
     <path d="M 222.271,470.823 L 221.284,464.097 L 249.987,464.097 L 249.345,470.856 L 222.271,470.823 Z" fill="#1585db" stroke="none" stroke-width="0.118" stroke-linejoin="miter" marker-start="none" marker-end="none" stroke-miterlimit="79.8403193612775"/>
     <path d="M 221.28,437.508 L 221.995,430.739 L 249.33,430.739 L 250.004,437.494 L 221.28,437.508 Z" fill="#1585db" stroke="none" stroke-width="0.118" stroke-linejoin="miter" marker-start="none" marker-end="none" stroke-miterlimit="79.8403193612775"/>
     <g id="Group_8" stroke-linejoin="miter" stroke-width="0.118" fill="#bf0000" stroke-miterlimit="79.8403193612775">
      <path d="M 205.819,466.497 L 205.819,457.138 L 213.464,457.138 L 213.464,466.497 L 205.819,466.497 Z" stroke="none" marker-start="none" marker-end="none"/>
      <path d="M 212.09,467.063 L 212.087,456.571 L 213.549,456.572 L 213.552,467.064 L 212.09,467.063 Z" stroke="#7f0000" marker-start="none" marker-end="none"/>
     </g>
     <g id="Group_9" stroke-linejoin="miter" stroke-width="0.118" fill="#333333" stroke-miterlimit="79.8403193612775">
      <path d="M 205.819,443.1 L 205.819,433.741 L 213.464,433.741 L 213.464,443.1 L 205.819,443.1 Z" stroke="none" marker-start="none" marker-end="none"/>
      <path d="M 212.239,443.666 L 212.236,433.174 L 213.698,433.175 L 213.701,443.667 L 212.239,443.666 Z" stroke="#000000" marker-start="none" marker-end="none"/>
     </g>
     <path d="M 214.428,463.292 L 214.428,438.436 L 221.029,437.719 L 221.029,463.925 L 214.428,463.292 Z" stroke="none" fill="#198be2" stroke-width="0.118" stroke-linejoin="miter" marker-start="none" marker-end="none" stroke-miterlimit="79.8403193612775"/>
     <path d="M 215.309,470.25 L 214.344,463.506 L 221.037,464.096 L 222.194,471.613 L 215.309,470.25 Z" fill="#1585db" stroke="none" stroke-width="0.118" stroke-linejoin="miter" marker-start="none" marker-end="none" stroke-miterlimit="79.8403193612775"/>
     <path d="M 215.22,430.888 L 214.362,438.179 L 221.008,437.471 L 221.9,429.758 L 215.22,430.888 Z" fill="#1585db" stroke="none" stroke-width="0.118" stroke-linejoin="miter" marker-start="none" marker-end="none" stroke-miterlimit="79.8403193612775"/>
     <g id="Group_10">
      <path d="M 217.674,452.186 C 218.426,452.186 219.037,451.575 219.037,450.823 C 219.037,450.07 218.426,449.459 217.674,449.459 C 216.921,449.459 216.31,450.07 216.31,450.823 C 216.31,451.575 216.921,452.186 217.674,452.186 Z" stroke="#4c4c4c" fill="#198be2" stroke-width="0.091" marker-start="none" marker-end="none" stroke-miterlimit="79.8403193612775"/>
      <path d="M 217.675,451.973 C 218.309,451.973 218.825,451.457 218.825,450.823 C 218.825,450.188 218.309,449.672 217.675,449.672 C 217.04,449.672 216.524,450.188 216.524,450.823 C 216.524,451.457 217.04,451.973 217.675,451.973 Z" fill="#333333" stroke="#4c4c4c" stroke-width="0.077" marker-start="none" marker-end="none" stroke-miterlimit="79.8403193612775"/>
      <g id="Group_11" fill-rule="nonzero" stroke="none" stroke-width="0.081" fill="#666666" stroke-miterlimit="79.8403193612775">
       <g id="Group_12">
        <path d="M 217.838,450.163 L 217.507,450.163 L 217.507,450.652 L 217.015,450.652 L 217.015,450.988 L 217.507,450.988 L 217.507,451.48 L 217.838,451.48 L 217.838,450.988 L 218.332,450.988 L 218.332,450.652 L 217.838,450.652 L 217.838,450.163 Z" marker-start="none" marker-end="none"/>
       </g>
      </g>
     </g>
     <path d="M 222.045,430.54 L 222.045,429.803 L 249.34,429.803 L 249.34,430.54 L 222.045,430.54 Z" fill="#0e75c5" stroke="none" stroke-width="0.118" stroke-linejoin="miter" marker-start="none" marker-end="none" stroke-miterlimit="79.8403193612775"/>
     <path d="M 222.349,471.649 L 222.349,471.026 L 249.342,471.026 L 249.342,471.649 L 222.349,471.649 Z" fill="#0e75c5" stroke="none" stroke-width="0.118" stroke-linejoin="miter" marker-start="none" marker-end="none" stroke-miterlimit="79.8403193612775"/>
     <path d="M 256.795,437.875 L 256.761,463.148 L 250.207,463.944 L 250.195,437.746 L 256.795,437.875 Z" stroke="none" fill="#198be2" stroke-width="0.118" stroke-linejoin="miter" marker-start="none" marker-end="none" stroke-miterlimit="79.8403193612775"/>
     <path d="M 255.914,431.069 L 256.766,437.705 L 250.155,437.475 L 249.464,429.929 L 255.914,431.069 Z" fill="#1585db" stroke="none" stroke-width="0.118" stroke-linejoin="miter" marker-start="none" marker-end="none" stroke-miterlimit="79.8403193612775"/>
     <path d="M 256.003,470.132 L 256.744,463.335 L 250.229,464.129 L 249.468,471.598 L 256.003,470.132 Z" fill="#1585db" stroke="none" stroke-width="0.118" stroke-linejoin="miter" marker-start="none" marker-end="none" stroke-miterlimit="79.8403193612775"/>
     <g id="Group_13">
      <path d="M 253.413,448.964 C 252.66,448.964 252.049,449.575 252.049,450.328 C 252.049,451.08 252.66,451.691 253.413,451.691 C 254.165,451.691 254.776,451.08 254.776,450.328 C 254.776,449.575 254.165,448.964 253.413,448.964 Z" stroke="#4c4c4c" fill="#198be2" stroke-width="0.091" marker-start="none" marker-end="none" stroke-miterlimit="79.8403193612775"/>
      <path d="M 253.413,449.177 C 252.778,449.177 252.262,449.693 252.262,450.328 C 252.262,450.962 252.778,451.478 253.413,451.478 C 254.047,451.478 254.563,450.962 254.563,450.328 C 254.563,449.693 254.047,449.177 253.413,449.177 Z" fill="#333333" stroke="#4c4c4c" stroke-width="0.077" marker-start="none" marker-end="none" stroke-miterlimit="79.8403193612775"/>
      <g id="Group_14" fill-rule="nonzero" stroke="none" stroke-width="0.081" fill="#666666" stroke-miterlimit="79.8403193612775">
       <g id="Group_15">
        <path d="M 253.249,450.987 L 253.58,450.987 L 253.58,450.498 L 254.072,450.498 L 254.072,450.162 L 253.58,450.162 L 253.58,449.67 L 253.249,449.67 L 253.249,450.162 L 252.755,450.162 L 252.755,450.498 L 253.249,450.498 L 253.249,450.987 Z" marker-start="none" marker-end="none"/>
       </g>
      </g>
     </g>
     <g id="Group_16" fill-rule="nonzero" stroke="none" stroke-width="0.039" fill="#ffffff" stroke-miterlimit="79.8403193612775">
      <g id="Group_17">
       <path d="M 236.798,449.683 L 236.798,449.668 C 236.822,449.698 236.847,449.719 236.873,449.733 C 236.899,449.747 236.928,449.754 236.961,449.754 C 237,449.754 237.037,449.744 237.07,449.724 C 237.103,449.703 237.129,449.674 237.148,449.635 C 237.167,449.596 237.177,449.549 237.177,449.496 C 237.177,449.457 237.172,449.42 237.16,449.387 C 237.149,449.354 237.134,449.327 237.115,449.304 C 237.095,449.282 237.072,449.265 237.046,449.253 C 237.02,449.241 236.991,449.235 236.961,449.235 C 236.924,449.235 236.894,449.242 236.869,449.257 C 236.844,449.272 236.82,449.293 236.798,449.322 L 236.798,449.129 C 236.798,449.073 236.777,449.045 236.736,449.045 C 236.712,449.045 236.696,449.052 236.689,449.067 C 236.681,449.081 236.677,449.102 236.677,449.13 L 236.677,449.683 C 236.677,449.707 236.682,449.725 236.693,449.737 C 236.703,449.749 236.718,449.755 236.736,449.755 C 236.754,449.755 236.769,449.749 236.781,449.737 C 236.792,449.724 236.798,449.707 236.798,449.683 Z M 237.049,449.497 C 237.049,449.531 237.043,449.56 237.033,449.584 C 237.023,449.609 237.009,449.627 236.99,449.64 C 236.972,449.653 236.952,449.66 236.93,449.66 C 236.894,449.66 236.864,449.646 236.84,449.618 C 236.816,449.59 236.804,449.549 236.804,449.495 C 236.804,449.444 236.816,449.404 236.84,449.376 C 236.864,449.348 236.894,449.334 236.93,449.334 C 236.951,449.334 236.97,449.34 236.989,449.352 C 237.007,449.365 237.021,449.383 237.032,449.408 C 237.043,449.432 237.049,449.462 237.049,449.497 Z" marker-start="none" marker-end="none"/>
       <path d="M 237.76,449.495 C 237.76,449.457 237.754,449.422 237.742,449.39 C 237.73,449.357 237.713,449.33 237.69,449.307 C 237.668,449.283 237.641,449.266 237.61,449.253 C 237.578,449.241 237.543,449.235 237.504,449.235 C 237.465,449.235 237.431,449.241 237.4,449.254 C 237.369,449.266 237.342,449.284 237.319,449.307 C 237.297,449.331 237.279,449.358 237.268,449.39 C 237.256,449.421 237.25,449.457 237.25,449.495 C 237.25,449.534 237.256,449.569 237.268,449.601 C 237.28,449.634 237.297,449.661 237.319,449.684 C 237.341,449.707 237.368,449.724 237.4,449.737 C 237.431,449.749 237.466,449.755 237.504,449.755 C 237.543,449.755 237.578,449.749 237.61,449.736 C 237.641,449.724 237.668,449.706 237.691,449.683 C 237.713,449.66 237.73,449.632 237.742,449.6 C 237.754,449.569 237.76,449.533 237.76,449.495 Z M 237.631,449.495 C 237.631,449.547 237.62,449.588 237.597,449.617 C 237.574,449.646 237.543,449.66 237.504,449.66 C 237.479,449.66 237.457,449.654 237.438,449.641 C 237.419,449.628 237.404,449.609 237.394,449.584 C 237.384,449.558 237.379,449.529 237.379,449.495 C 237.379,449.462 237.384,449.432 237.394,449.407 C 237.404,449.382 237.419,449.363 237.437,449.35 C 237.456,449.337 237.479,449.33 237.504,449.33 C 237.543,449.33 237.574,449.345 237.597,449.374 C 237.62,449.403 237.631,449.443 237.631,449.495 Z" marker-start="none" marker-end="none"/>
       <path d="M 237.94,449.675 L 238.024,449.39 L 238.1,449.655 C 238.108,449.683 238.114,449.702 238.118,449.712 C 238.122,449.722 238.129,449.732 238.14,449.741 C 238.151,449.751 238.165,449.755 238.184,449.755 C 238.203,449.755 238.218,449.751 238.229,449.741 C 238.24,449.732 238.247,449.722 238.252,449.711 C 238.256,449.701 238.262,449.682 238.27,449.655 L 238.346,449.39 L 238.43,449.675 C 238.436,449.696 238.44,449.711 238.444,449.72 C 238.447,449.729 238.453,449.738 238.461,449.745 C 238.469,449.752 238.481,449.755 238.496,449.755 C 238.512,449.755 238.525,449.75 238.536,449.739 C 238.547,449.729 238.553,449.716 238.553,449.702 C 238.553,449.689 238.548,449.669 238.539,449.642 L 238.434,449.336 C 238.425,449.31 238.418,449.291 238.413,449.279 C 238.408,449.268 238.4,449.257 238.389,449.248 C 238.378,449.239 238.364,449.235 238.345,449.235 C 238.326,449.235 238.31,449.24 238.299,449.249 C 238.288,449.259 238.28,449.271 238.275,449.285 C 238.269,449.299 238.264,449.317 238.257,449.34 L 238.184,449.589 L 238.113,449.34 C 238.104,449.305 238.094,449.279 238.083,449.261 C 238.072,449.244 238.053,449.235 238.025,449.235 C 238.011,449.235 237.999,449.238 237.989,449.243 C 237.979,449.248 237.971,449.256 237.965,449.266 C 237.958,449.277 237.952,449.289 237.947,449.303 C 237.942,449.316 237.938,449.327 237.936,449.336 L 237.832,449.642 C 237.822,449.671 237.817,449.691 237.817,449.702 C 237.817,449.716 237.822,449.728 237.833,449.739 C 237.844,449.75 237.857,449.755 237.873,449.755 C 237.895,449.755 237.909,449.749 237.916,449.737 C 237.924,449.725 237.932,449.705 237.94,449.675 Z" marker-start="none" marker-end="none"/>
       <path d="M 238.987,449.464 L 238.737,449.464 C 238.737,449.435 238.743,449.409 238.754,449.387 C 238.766,449.364 238.781,449.348 238.8,449.337 C 238.818,449.325 238.839,449.32 238.862,449.32 C 238.877,449.32 238.891,449.321 238.904,449.325 C 238.917,449.329 238.929,449.334 238.941,449.342 C 238.953,449.35 238.964,449.358 238.974,449.367 C 238.984,449.375 238.997,449.387 239.013,449.402 C 239.019,449.408 239.029,449.411 239.041,449.411 C 239.054,449.411 239.065,449.407 239.073,449.4 C 239.081,449.393 239.085,449.382 239.085,449.369 C 239.085,449.358 239.08,449.344 239.071,449.329 C 239.062,449.313 239.049,449.298 239.03,449.284 C 239.012,449.27 238.989,449.258 238.961,449.249 C 238.934,449.239 238.902,449.235 238.866,449.235 C 238.784,449.235 238.72,449.258 238.674,449.305 C 238.629,449.352 238.606,449.416 238.606,449.496 C 238.606,449.534 238.611,449.569 238.623,449.601 C 238.634,449.634 238.65,449.661 238.672,449.684 C 238.693,449.708 238.72,449.725 238.752,449.738 C 238.783,449.75 238.818,449.756 238.857,449.756 C 238.907,449.756 238.949,449.746 238.985,449.724 C 239.021,449.703 239.048,449.676 239.066,449.643 C 239.083,449.609 239.092,449.575 239.092,449.54 C 239.092,449.508 239.083,449.487 239.065,449.478 C 239.046,449.468 239.02,449.464 238.987,449.464 Z M 238.737,449.536 L 238.969,449.536 C 238.965,449.58 238.954,449.613 238.933,449.634 C 238.913,449.656 238.886,449.667 238.852,449.667 C 238.82,449.667 238.794,449.656 238.774,449.634 C 238.753,449.612 238.741,449.579 238.737,449.536 Z" marker-start="none" marker-end="none"/>
       <path d="M 239.328,449.42 L 239.328,449.313 C 239.328,449.287 239.322,449.267 239.309,449.254 C 239.297,449.241 239.282,449.235 239.263,449.235 C 239.245,449.235 239.229,449.241 239.217,449.254 C 239.206,449.268 239.2,449.287 239.2,449.313 L 239.2,449.669 C 239.2,449.726 239.22,449.755 239.262,449.755 C 239.283,449.755 239.299,449.748 239.308,449.735 C 239.317,449.722 239.323,449.702 239.323,449.675 C 239.339,449.702 239.354,449.722 239.371,449.735 C 239.387,449.748 239.408,449.755 239.435,449.755 C 239.462,449.755 239.488,449.748 239.513,449.735 C 239.539,449.722 239.551,449.704 239.551,449.682 C 239.551,449.666 239.546,449.653 239.535,449.643 C 239.524,449.633 239.513,449.628 239.5,449.628 C 239.496,449.628 239.484,449.631 239.466,449.636 C 239.448,449.642 239.432,449.645 239.419,449.645 C 239.4,449.645 239.385,449.64 239.373,449.63 C 239.361,449.62 239.352,449.606 239.345,449.586 C 239.338,449.567 239.334,449.544 239.331,449.517 C 239.329,449.491 239.328,449.458 239.328,449.42 Z" marker-start="none" marker-end="none"/>
      </g>
     </g>
     <g id="Group_18" fill-rule="nonzero" stroke="none" fill="#ffffff">
      <path d="M 226.193,461.407 C 226.193,461.407 225.893,461.524 225.589,461.28 C 225.589,461.28 225.228,461.038 225.162,460.017 C 225.162,460.017 225.142,459.847 225.292,459.822 C 225.292,459.822 225.443,459.792 225.463,459.92 C 225.483,460.047 225.479,460.692 225.764,461.022 C 225.764,461.022 225.792,461.064 225.869,461.096 C 225.932,461.135 225.982,461.207 226.019,461.263 C 226.019,461.263 226.075,461.337 226.193,461.407 L 226.193,461.407 Z" marker-start="none" marker-end="none"/>
      <path d="M 226.734,461.431 C 226.734,461.431 226.468,461.515 226.181,461.296 C 226.181,461.296 225.84,461.088 225.761,460.26 C 225.761,460.26 225.731,460.055 225.747,459.952 C 225.747,459.952 225.761,459.831 225.885,459.82 C 225.885,459.82 226.035,459.809 226.045,459.949 C 226.054,460.09 226.058,460.147 226.058,460.147 C 226.058,460.147 226.081,460.698 226.305,460.977 C 226.305,460.977 226.359,460.936 226.359,460.936 C 226.359,460.936 226.435,461.225 226.734,461.431 C 226.734,461.431 226.734,461.431 226.734,461.431 L 226.734,461.431 Z" marker-start="none" marker-end="none"/>
      <path d="M 227.276,461.431 C 227.276,461.431 226.919,461.514 226.661,461.233 C 226.661,461.233 226.404,461.004 226.329,460.436 C 226.329,460.436 226.297,460.131 226.292,459.982 C 226.292,459.982 226.289,459.838 226.427,459.82 C 226.427,459.82 226.57,459.811 226.579,459.962 C 226.579,459.962 226.589,460.658 226.846,460.977 C 226.846,460.977 226.91,460.937 226.91,460.937 C 226.91,460.937 227.021,461.258 227.276,461.431 C 227.276,461.431 227.276,461.431 227.276,461.431 L 227.276,461.431 Z" marker-start="none" marker-end="none"/>
      <path d="M 227.687,461.438 C 227.687,461.438 227.328,461.453 227.116,461.09 C 227.116,461.09 226.873,460.736 226.874,460.008 C 226.874,460.008 226.859,459.836 226.994,459.82 C 226.994,459.82 227.154,459.81 227.154,459.993 C 227.154,459.993 227.161,460.711 227.435,461.001 C 227.435,461.001 227.678,460.71 227.698,460.025 C 227.698,460.025 227.706,459.555 227.794,459.297 C 227.794,459.297 227.873,459.587 227.889,459.989 C 227.889,459.989 227.882,460.063 227.946,460.114 C 227.946,460.114 227.988,460.135 227.98,460.208 C 227.98,460.208 227.921,460.806 227.722,461.144 C 227.722,461.144 228.144,461.172 228.227,460.327 C 228.227,460.327 228.228,460.204 228.297,460.127 C 228.297,460.127 228.347,460.092 228.352,460.005 C 228.352,460.005 228.364,459.886 228.328,459.499 C 228.328,459.499 228.32,459.414 228.357,459.294 C 228.357,459.294 228.461,459.583 228.434,459.865 C 228.434,459.865 228.42,460.095 228.534,460.173 C 228.534,460.173 228.525,460.813 228.27,461.164 C 228.27,461.164 228.068,461.454 227.687,461.438 C 227.687,461.438 227.687,461.438 227.687,461.438 L 227.687,461.438 Z" marker-start="none" marker-end="none"/>
      <path d="M 228.944,458.538 C 228.944,458.538 229.244,458.42 229.547,458.665 C 229.547,458.665 229.908,458.907 229.975,459.928 C 229.975,459.928 229.995,460.098 229.845,460.123 C 229.845,460.123 229.694,460.152 229.674,460.024 C 229.654,459.897 229.658,459.253 229.372,458.922 C 229.372,458.922 229.345,458.881 229.268,458.848 C 229.205,458.809 229.155,458.738 229.118,458.681 C 229.118,458.681 229.062,458.607 228.944,458.538 L 228.944,458.538 Z" marker-start="none" marker-end="none"/>
      <path d="M 228.402,458.514 C 228.402,458.514 228.669,458.43 228.956,458.649 C 228.956,458.649 229.297,458.857 229.376,459.685 C 229.376,459.685 229.406,459.889 229.389,459.993 C 229.389,459.993 229.377,460.114 229.252,460.125 C 229.252,460.125 229.101,460.136 229.092,459.995 C 229.083,459.854 229.079,459.797 229.079,459.797 C 229.079,459.797 229.056,459.247 228.832,458.968 C 228.832,458.968 228.778,459.008 228.778,459.008 C 228.778,459.008 228.702,458.72 228.402,458.514 C 228.402,458.514 228.402,458.514 228.402,458.514 L 228.402,458.514 Z" marker-start="none" marker-end="none"/>
      <path d="M 227.861,458.514 C 227.861,458.514 228.217,458.431 228.476,458.711 C 228.476,458.711 228.733,458.94 228.808,459.509 C 228.808,459.509 228.84,459.814 228.845,459.962 C 228.845,459.962 228.848,460.106 228.71,460.125 C 228.71,460.125 228.567,460.133 228.558,459.982 C 228.558,459.982 228.548,459.287 228.291,458.968 C 228.291,458.968 228.227,459.008 228.227,459.008 C 228.227,459.008 228.116,458.686 227.861,458.514 C 227.861,458.514 227.861,458.514 227.861,458.514 L 227.861,458.514 Z" marker-start="none" marker-end="none"/>
      <path d="M 227.45,458.507 C 227.45,458.507 227.81,458.492 228.02,458.854 C 228.02,458.854 228.264,459.209 228.263,459.937 C 228.263,459.937 228.278,460.109 228.143,460.125 C 228.143,460.125 227.982,460.135 227.982,459.952 C 227.982,459.952 227.975,459.234 227.701,458.944 C 227.701,458.944 227.459,459.235 227.439,459.92 C 227.439,459.92 227.431,460.389 227.343,460.648 C 227.343,460.648 227.264,460.358 227.248,459.956 C 227.248,459.956 227.255,459.882 227.191,459.831 C 227.191,459.831 227.149,459.81 227.157,459.737 C 227.157,459.737 227.216,459.139 227.415,458.801 C 227.415,458.801 226.993,458.773 226.909,459.617 C 226.909,459.617 226.908,459.741 226.84,459.818 C 226.84,459.818 226.79,459.853 226.785,459.94 C 226.785,459.94 226.773,460.059 226.809,460.446 C 226.809,460.446 226.817,460.53 226.78,460.65 C 226.78,460.65 226.676,460.362 226.703,460.079 C 226.703,460.079 226.717,459.85 226.602,459.772 C 226.602,459.772 226.612,459.132 226.867,458.781 C 226.867,458.781 227.069,458.491 227.45,458.507 C 227.45,458.507 227.45,458.507 227.45,458.507 L 227.45,458.507 Z" marker-start="none" marker-end="none"/>
      <path d="M 230.467,460.61 C 230.467,460.61 230.62,461.079 230.62,461.079 C 230.646,461.159 230.732,461.195 230.806,461.157 C 230.871,461.127 230.898,461.054 230.869,460.982 C 230.869,460.982 230.61,460.331 230.61,460.331 C 230.57,460.235 230.505,460.199 230.414,460.232 C 230.373,460.245 230.345,460.275 230.323,460.331 C 230.323,460.331 230.063,460.982 230.063,460.982 C 230.034,461.054 230.062,461.127 230.127,461.157 C 230.201,461.195 230.287,461.157 230.312,461.079 C 230.312,461.079 230.467,460.61 230.467,460.61 C 230.467,460.61 230.467,460.61 230.467,460.61 L 230.467,460.61 Z" marker-start="none" marker-end="none"/>
      <path d="M 230.974,461.517 C 231.034,461.577 231.13,461.575 231.19,461.515 C 231.248,461.454 231.248,461.36 231.19,461.3 C 231.13,461.24 231.034,461.24 230.975,461.298 C 230.946,461.327 230.929,461.367 230.929,461.408 C 230.929,461.448 230.946,461.487 230.974,461.517 C 230.974,461.517 230.974,461.517 230.974,461.517 L 230.974,461.517 Z M 230.95,461.039 C 230.95,461.075 230.963,461.109 230.989,461.133 C 231.041,461.186 231.125,461.185 231.176,461.133 C 231.201,461.107 231.214,461.073 231.214,461.039 C 231.214,461.039 231.214,460.352 231.214,460.352 C 231.216,460.278 231.158,460.219 231.084,460.218 C 231.01,460.218 230.95,460.278 230.95,460.35 C 230.95,460.35 230.95,461.039 230.95,461.039 C 230.95,461.039 230.95,461.039 230.95,461.039 L 230.95,461.039 Z" marker-start="none" marker-end="none"/>
      <path d="M 231.858,461.171 C 232.055,461.149 232.121,461.063 232.098,460.975 C 232.085,460.917 232.042,460.883 231.99,460.884 C 231.982,460.886 231.973,460.886 231.965,460.888 C 231.965,460.888 231.951,460.893 231.951,460.893 C 231.951,460.893 231.926,460.901 231.926,460.901 C 231.926,460.901 231.909,460.907 231.909,460.907 C 231.909,460.907 231.886,460.915 231.886,460.915 C 231.726,460.967 231.597,460.872 231.598,460.692 C 231.602,460.512 231.732,460.424 231.903,460.481 C 231.903,460.481 231.932,460.491 231.932,460.491 C 231.932,460.491 231.944,460.496 231.944,460.496 C 232.021,460.524 232.09,460.486 232.102,460.405 C 232.112,460.338 232.068,460.276 231.944,460.237 C 231.913,460.226 231.88,460.219 231.846,460.216 C 231.551,460.189 231.327,460.395 231.33,460.699 C 231.334,461.005 231.563,461.204 231.858,461.171 C 231.858,461.171 231.858,461.171 231.858,461.171 L 231.858,461.171 Z" marker-start="none" marker-end="none"/>
      <path d="M 232.295,461.161 C 232.295,461.161 232.294,461.314 232.294,461.314 C 232.294,461.386 232.352,461.446 232.426,461.446 C 232.498,461.446 232.558,461.386 232.557,461.314 C 232.557,461.314 232.557,461.161 232.557,461.161 C 232.557,461.161 232.635,461.161 232.635,461.161 C 232.667,461.161 232.698,461.149 232.72,461.125 C 232.766,461.08 232.766,461.005 232.72,460.958 C 232.696,460.936 232.667,460.924 232.634,460.924 C 232.634,460.924 232.557,460.924 232.557,460.924 C 232.557,460.924 232.557,460.353 232.557,460.353 C 232.557,460.319 232.543,460.285 232.519,460.259 C 232.467,460.208 232.385,460.208 232.335,460.259 C 232.309,460.285 232.295,460.319 232.295,460.353 C 232.295,460.353 232.297,460.926 232.297,460.926 C 232.297,460.926 232.251,460.926 232.251,460.926 C 232.218,460.926 232.187,460.938 232.163,460.962 C 232.117,461.006 232.117,461.08 232.165,461.127 C 232.187,461.149 232.218,461.161 232.251,461.161 C 232.251,461.161 232.295,461.161 232.295,461.161 C 232.295,461.161 232.295,461.161 232.295,461.161 L 232.295,461.161 Z" marker-start="none" marker-end="none"/>
      <path d="M 232.805,461.044 C 232.805,461.107 232.859,461.166 232.939,461.171 C 233.022,461.178 233.072,461.127 233.068,461.077 C 233.068,461.077 233.067,461.063 233.067,461.063 C 233.073,461.072 233.08,461.08 233.089,461.087 C 233.19,461.197 233.305,461.195 233.358,461.116 C 233.405,461.047 233.381,460.968 233.312,460.939 C 233.312,460.939 233.298,460.932 233.298,460.932 C 233.298,460.932 233.262,460.92 233.262,460.92 C 233.228,460.908 233.204,460.897 233.183,460.884 C 233.099,460.834 233.07,460.79 233.07,460.747 C 233.07,460.747 233.07,460.352 233.07,460.352 C 233.07,460.28 233.011,460.219 232.938,460.219 C 232.864,460.219 232.805,460.278 232.805,460.35 C 232.805,460.35 232.805,461.044 232.805,461.044 C 232.805,461.044 232.805,461.044 232.805,461.044 L 232.805,461.044 Z" marker-start="none" marker-end="none"/>
      <path d="M 233.638,460.656 C 233.66,460.498 233.753,460.427 233.866,460.453 C 233.942,460.469 233.999,460.537 234.013,460.654 C 234.016,460.682 234.016,460.709 234.013,460.737 C 233.997,460.85 233.938,460.917 233.866,460.932 C 233.757,460.956 233.659,460.888 233.638,460.735 C 233.636,460.721 233.636,460.707 233.636,460.694 C 233.636,460.68 233.636,460.667 233.638,460.656 C 233.638,460.656 233.638,460.656 233.638,460.656 L 233.638,460.656 Z M 233.439,460.953 C 233.524,461.095 233.671,461.178 233.827,461.178 C 234.076,461.178 234.28,460.972 234.282,460.697 C 234.282,460.421 234.078,460.214 233.827,460.214 C 233.574,460.214 233.372,460.421 233.372,460.697 C 233.372,460.796 233.394,460.881 233.439,460.953 C 233.439,460.953 233.439,460.953 233.439,460.953 L 233.439,460.953 Z" marker-start="none" marker-end="none"/>
      <path d="M 234.395,461.037 C 234.395,461.103 234.45,461.164 234.527,461.171 C 234.598,461.178 234.646,461.133 234.646,461.085 C 234.646,461.085 234.646,461.075 234.646,461.075 C 234.687,461.125 234.744,461.157 234.825,461.171 C 234.867,461.18 234.91,461.18 234.952,461.173 C 235.134,461.144 235.233,461.023 235.233,460.843 C 235.233,460.843 235.233,460.35 235.233,460.35 C 235.233,460.276 235.175,460.218 235.102,460.216 C 235.029,460.216 234.969,460.275 234.969,460.348 C 234.969,460.348 234.969,460.798 234.969,460.798 C 234.969,460.84 234.952,460.879 234.922,460.908 C 234.862,460.97 234.764,460.97 234.704,460.91 C 234.675,460.879 234.66,460.841 234.66,460.8 C 234.66,460.8 234.66,460.35 234.66,460.35 C 234.66,460.278 234.599,460.218 234.526,460.219 C 234.454,460.219 234.395,460.28 234.395,460.352 C 234.395,460.352 234.395,461.037 234.395,461.037 C 234.395,461.037 234.395,461.037 234.395,461.037 L 234.395,461.037 Z" marker-start="none" marker-end="none"/>
      <path d="M 236.454,460.783 C 236.453,460.788 236.453,460.795 236.451,460.8 C 236.424,460.926 236.334,460.984 236.233,460.96 C 236.169,460.944 236.114,460.889 236.092,460.804 C 236.09,460.796 236.09,460.79 236.089,460.783 C 236.089,460.783 236.454,460.783 236.454,460.783 C 236.454,460.783 236.454,460.783 236.454,460.783 L 236.454,460.783 Z M 236.096,460.613 C 236.102,460.58 236.118,460.548 236.14,460.52 C 236.211,460.436 236.339,460.415 236.485,460.493 C 236.57,460.539 236.594,460.542 236.638,460.525 C 236.664,460.515 236.684,460.494 236.695,460.469 C 236.732,460.376 236.617,460.216 236.295,460.214 C 235.967,460.214 235.748,460.486 235.824,460.812 C 235.867,461.001 236.01,461.137 236.188,461.169 C 236.394,461.207 236.59,461.103 236.676,460.907 C 236.699,460.853 236.712,460.798 236.716,460.757 C 236.726,460.651 236.691,460.613 236.604,460.613 C 236.604,460.613 236.096,460.613 236.096,460.613 C 236.096,460.613 236.096,460.613 236.096,460.613 L 236.096,460.613 Z" marker-start="none" marker-end="none"/>
      <path d="M 236.813,461.037 C 236.813,461.103 236.868,461.164 236.945,461.171 C 237.016,461.178 237.064,461.133 237.064,461.085 C 237.064,461.085 237.064,461.075 237.064,461.075 C 237.105,461.125 237.162,461.157 237.242,461.171 C 237.285,461.18 237.328,461.18 237.37,461.173 C 237.552,461.144 237.651,461.023 237.651,460.843 C 237.651,460.843 237.651,460.35 237.651,460.35 C 237.651,460.276 237.593,460.218 237.521,460.216 C 237.447,460.216 237.387,460.275 237.387,460.348 C 237.387,460.348 237.387,460.798 237.387,460.798 C 237.387,460.84 237.37,460.879 237.341,460.908 C 237.28,460.97 237.182,460.97 237.123,460.91 C 237.093,460.879 237.078,460.841 237.078,460.8 C 237.078,460.8 237.078,460.35 237.078,460.35 C 237.078,460.278 237.018,460.218 236.944,460.219 C 236.872,460.219 236.813,460.28 236.813,460.352 C 236.813,460.352 236.813,461.037 236.813,461.037 C 236.813,461.037 236.813,461.037 236.813,461.037 L 236.813,461.037 Z" marker-start="none" marker-end="none"/>
      <path d="M 238.408,460.783 C 238.407,460.788 238.407,460.795 238.405,460.8 C 238.378,460.926 238.288,460.984 238.187,460.96 C 238.124,460.944 238.068,460.889 238.046,460.804 C 238.044,460.796 238.044,460.79 238.043,460.783 C 238.043,460.783 238.408,460.783 238.408,460.783 C 238.408,460.783 238.408,460.783 238.408,460.783 L 238.408,460.783 Z M 238.049,460.613 C 238.057,460.58 238.072,460.548 238.094,460.52 C 238.165,460.436 238.294,460.415 238.44,460.493 C 238.524,460.539 238.548,460.542 238.593,460.525 C 238.618,460.515 238.639,460.494 238.649,460.469 C 238.687,460.376 238.572,460.216 238.249,460.214 C 237.921,460.214 237.703,460.486 237.778,460.812 C 237.821,461.001 237.963,461.137 238.142,461.169 C 238.348,461.207 238.545,461.103 238.63,460.907 C 238.653,460.853 238.666,460.798 238.67,460.757 C 238.68,460.651 238.646,460.613 238.558,460.613 C 238.558,460.613 238.049,460.613 238.049,460.613 C 238.049,460.613 238.049,460.613 238.049,460.613 L 238.049,460.613 Z" marker-start="none" marker-end="none"/>
      <path d="M 238.768,461.044 C 238.768,461.107 238.821,461.166 238.901,461.171 C 238.984,461.178 239.034,461.127 239.03,461.077 C 239.03,461.077 239.028,461.063 239.028,461.063 C 239.035,461.072 239.042,461.08 239.051,461.087 C 239.152,461.197 239.267,461.195 239.32,461.116 C 239.366,461.047 239.343,460.968 239.274,460.939 C 239.274,460.939 239.26,460.932 239.26,460.932 C 239.26,460.932 239.224,460.92 239.224,460.92 C 239.19,460.908 239.166,460.897 239.145,460.884 C 239.061,460.834 239.032,460.79 239.032,460.747 C 239.032,460.747 239.032,460.352 239.032,460.352 C 239.032,460.28 238.974,460.219 238.899,460.219 C 238.826,460.219 238.768,460.278 238.768,460.35 C 238.768,460.35 238.768,461.044 238.768,461.044 C 238.768,461.044 238.768,461.044 238.768,461.044 L 238.768,461.044 Z" marker-start="none" marker-end="none"/>
      <path d="M 239.651,460.52 C 239.725,460.431 239.861,460.432 239.93,460.525 C 239.961,460.566 239.976,460.616 239.978,460.688 C 239.978,460.805 239.935,460.879 239.866,460.914 C 239.751,460.97 239.622,460.895 239.602,460.738 C 239.6,460.723 239.598,460.706 239.598,460.69 C 239.598,460.618 239.619,460.561 239.651,460.52 C 239.651,460.52 239.651,460.52 239.651,460.52 L 239.651,460.52 Z M 239.984,461.082 C 239.986,461.132 240.034,461.176 240.105,461.169 C 240.182,461.163 240.237,461.101 240.237,461.034 C 240.237,461.034 240.237,460.345 240.237,460.345 C 240.237,460.002 240.034,459.814 239.677,459.852 C 239.605,459.861 239.54,459.877 239.478,459.905 C 239.351,459.964 239.328,460.053 239.39,460.118 C 239.425,460.156 239.467,460.165 239.526,460.146 C 239.526,460.146 239.528,460.144 239.528,460.144 C 239.528,460.144 239.581,460.12 239.581,460.12 C 239.593,460.115 239.605,460.109 239.617,460.106 C 239.842,460.025 239.971,460.118 239.976,460.29 C 239.978,460.302 239.976,460.314 239.976,460.326 C 239.878,460.187 239.636,460.163 239.47,460.328 C 239.363,460.434 239.31,460.61 239.344,460.8 C 239.356,460.869 239.378,460.927 239.409,460.977 C 239.555,461.212 239.851,461.235 239.984,461.07 C 239.984,461.07 239.984,461.082 239.984,461.082 C 239.984,461.082 239.984,461.082 239.984,461.082 L 239.984,461.082 Z" marker-start="none" marker-end="none"/>
      <path d="M 240.385,461.159 C 240.458,461.19 240.534,461.156 240.565,461.072 C 240.565,461.072 240.73,460.63 240.73,460.63 C 240.73,460.63 240.898,461.073 240.898,461.073 C 240.931,461.157 241.008,461.192 241.081,461.157 C 241.146,461.127 241.173,461.052 241.146,460.985 C 241.146,460.985 240.718,459.938 240.718,459.938 C 240.682,459.851 240.61,459.818 240.538,459.847 C 240.469,459.876 240.44,459.95 240.469,460.02 C 240.469,460.02 240.593,460.305 240.593,460.305 C 240.593,460.305 240.313,460.991 240.313,460.991 C 240.287,461.056 240.318,461.132 240.385,461.159 C 240.385,461.159 240.385,461.159 240.385,461.159 L 240.385,461.159 Z" marker-start="none" marker-end="none"/>
      <path d="M 231.956,459.665 C 231.969,459.654 231.975,459.639 231.975,459.617 C 231.975,459.593 231.968,459.576 231.955,459.565 C 231.942,459.555 231.921,459.549 231.893,459.549 C 231.884,459.549 231.872,459.55 231.856,459.552 C 231.856,459.552 231.856,459.679 231.856,459.679 C 231.856,459.679 231.893,459.681 231.893,459.681 C 231.923,459.681 231.944,459.675 231.956,459.665 C 231.956,459.665 231.956,459.665 231.956,459.665 L 231.956,459.665 Z M 231.991,459.539 C 232.012,459.556 232.023,459.58 232.023,459.61 C 232.023,459.635 232.017,459.655 232.005,459.67 C 231.993,459.684 231.974,459.695 231.947,459.702 C 231.961,459.704 231.974,459.713 231.986,459.726 C 231.997,459.739 232.003,459.753 232.003,459.768 C 232.003,459.795 231.994,459.815 231.976,459.83 C 231.957,459.844 231.932,459.851 231.899,459.851 C 231.881,459.851 231.851,459.85 231.811,459.848 C 231.811,459.848 231.811,459.513 231.811,459.513 C 231.811,459.513 231.906,459.513 231.906,459.513 C 231.941,459.513 231.969,459.521 231.991,459.539 C 231.991,459.539 231.991,459.539 231.991,459.539 L 231.991,459.539 Z M 231.897,459.813 C 231.937,459.813 231.957,459.797 231.957,459.766 C 231.957,459.731 231.935,459.714 231.892,459.714 C 231.878,459.714 231.866,459.714 231.856,459.715 C 231.856,459.715 231.856,459.811 231.856,459.811 C 231.868,459.812 231.882,459.813 231.897,459.813 C 231.897,459.813 231.897,459.813 231.897,459.813 L 231.897,459.813 Z" marker-start="none" marker-end="none"/>
      <path d="M 232.694,459.513 C 232.694,459.513 232.497,459.513 232.497,459.513 C 232.497,459.513 232.497,459.848 232.497,459.848 C 232.497,459.848 232.543,459.848 232.543,459.848 C 232.543,459.848 232.543,459.554 232.543,459.554 C 232.543,459.554 232.694,459.554 232.694,459.554 C 232.694,459.554 232.694,459.513 232.694,459.513 C 232.694,459.513 232.694,459.513 232.694,459.513 L 232.694,459.513 Z" marker-start="none" marker-end="none"/>
      <path d="M 233.157,459.615 C 233.157,459.615 233.157,459.848 233.157,459.848 C 233.157,459.848 233.202,459.848 233.202,459.848 C 233.202,459.848 233.202,459.619 233.202,459.619 C 233.202,459.598 233.208,459.581 233.222,459.568 C 233.235,459.555 233.251,459.548 233.273,459.548 C 233.296,459.548 233.313,459.555 233.326,459.567 C 233.339,459.58 233.346,459.598 233.346,459.619 C 233.346,459.619 233.346,459.848 233.346,459.848 C 233.346,459.848 233.391,459.848 233.391,459.848 C 233.391,459.848 233.391,459.615 233.391,459.615 C 233.391,459.581 233.381,459.555 233.36,459.535 C 233.339,459.517 233.31,459.507 233.273,459.507 C 233.236,459.507 233.207,459.516 233.187,459.535 C 233.167,459.554 233.157,459.58 233.157,459.615 C 233.157,459.615 233.157,459.615 233.157,459.615 L 233.157,459.615 Z" marker-start="none" marker-end="none"/>
      <path d="M 234.16,459.807 C 234.16,459.807 234.006,459.807 234.006,459.807 C 234.006,459.807 234.006,459.714 234.006,459.714 C 234.006,459.714 234.116,459.714 234.116,459.714 C 234.116,459.714 234.116,459.675 234.116,459.675 C 234.116,459.675 234.006,459.675 234.006,459.675 C 234.006,459.675 234.006,459.554 234.006,459.554 C 234.006,459.554 234.158,459.554 234.158,459.554 C 234.158,459.554 234.158,459.513 234.158,459.513 C 234.158,459.513 233.96,459.513 233.96,459.513 C 233.96,459.513 233.96,459.848 233.96,459.848 C 233.96,459.848 234.16,459.848 234.16,459.848 C 234.16,459.848 234.16,459.807 234.16,459.807 C 234.16,459.807 234.16,459.807 234.16,459.807 L 234.16,459.807 Z" marker-start="none" marker-end="none"/>
      <path d="M 235.275,459.639 C 235.361,459.639 235.404,459.677 235.404,459.752 C 235.404,459.818 235.356,459.85 235.258,459.85 C 235.251,459.85 235.23,459.85 235.195,459.848 C 235.195,459.848 235.195,459.513 235.195,459.513 C 235.195,459.513 235.241,459.513 235.241,459.513 C 235.241,459.513 235.241,459.641 235.241,459.641 C 235.258,459.64 235.27,459.639 235.275,459.639 C 235.275,459.639 235.275,459.639 235.275,459.639 L 235.275,459.639 Z M 235.266,459.809 C 235.327,459.809 235.357,459.789 235.357,459.747 C 235.357,459.703 235.329,459.681 235.272,459.681 C 235.271,459.681 235.261,459.682 235.241,459.683 C 235.241,459.683 235.241,459.807 235.241,459.807 C 235.252,459.808 235.26,459.809 235.266,459.809 C 235.266,459.809 235.266,459.809 235.266,459.809 L 235.266,459.809 Z" marker-start="none" marker-end="none"/>
      <path d="M 235.898,459.556 C 235.922,459.523 235.955,459.507 235.997,459.507 C 236.044,459.507 236.079,459.523 236.104,459.554 C 236.129,459.585 236.142,459.628 236.142,459.683 C 236.142,459.737 236.129,459.779 236.104,459.809 C 236.08,459.839 236.044,459.854 235.997,459.854 C 235.956,459.854 235.923,459.837 235.899,459.805 C 235.874,459.772 235.862,459.731 235.862,459.683 C 235.862,459.631 235.874,459.589 235.898,459.556 C 235.898,459.556 235.898,459.556 235.898,459.556 L 235.898,459.556 Z M 235.933,459.778 C 235.947,459.801 235.969,459.812 235.997,459.812 C 236.061,459.812 236.093,459.769 236.093,459.683 C 236.093,459.64 236.085,459.607 236.069,459.584 C 236.053,459.56 236.029,459.548 235.997,459.548 C 235.97,459.548 235.948,459.561 235.933,459.587 C 235.918,459.613 235.91,459.645 235.91,459.683 C 235.91,459.723 235.918,459.754 235.933,459.778 C 235.933,459.778 235.933,459.778 235.933,459.778 L 235.933,459.778 Z" marker-start="none" marker-end="none"/>
      <path d="M 236.978,459.848 C 236.978,459.848 236.873,459.508 236.873,459.508 C 236.873,459.508 236.859,459.508 236.859,459.508 C 236.859,459.508 236.779,459.739 236.779,459.739 C 236.779,459.739 236.704,459.508 236.704,459.508 C 236.704,459.508 236.69,459.508 236.69,459.508 C 236.69,459.508 236.584,459.848 236.584,459.848 C 236.584,459.848 236.632,459.848 236.632,459.848 C 236.632,459.848 236.699,459.614 236.699,459.614 C 236.699,459.614 236.773,459.848 236.773,459.848 C 236.773,459.848 236.789,459.848 236.789,459.848 C 236.789,459.848 236.862,459.614 236.862,459.614 C 236.862,459.614 236.93,459.848 236.93,459.848 C 236.93,459.848 236.978,459.848 236.978,459.848 C 236.978,459.848 236.978,459.848 236.978,459.848 L 236.978,459.848 Z" marker-start="none" marker-end="none"/>
      <path d="M 237.637,459.807 C 237.637,459.807 237.482,459.807 237.482,459.807 C 237.482,459.807 237.482,459.714 237.482,459.714 C 237.482,459.714 237.593,459.714 237.593,459.714 C 237.593,459.714 237.593,459.675 237.593,459.675 C 237.593,459.675 237.482,459.675 237.482,459.675 C 237.482,459.675 237.482,459.554 237.482,459.554 C 237.482,459.554 237.634,459.554 237.634,459.554 C 237.634,459.554 237.634,459.513 237.634,459.513 C 237.634,459.513 237.437,459.513 237.437,459.513 C 237.437,459.513 237.437,459.848 237.437,459.848 C 237.437,459.848 237.637,459.848 237.637,459.848 C 237.637,459.848 237.637,459.807 237.637,459.807 C 237.637,459.807 237.637,459.807 237.637,459.807 L 237.637,459.807 Z" marker-start="none" marker-end="none"/>
      <path d="M 238.251,459.667 C 238.268,459.671 238.284,459.682 238.297,459.699 C 238.31,459.715 238.316,459.734 238.316,459.755 C 238.316,459.819 238.276,459.851 238.195,459.851 C 238.185,459.851 238.169,459.851 238.147,459.85 C 238.125,459.848 238.113,459.848 238.111,459.848 C 238.111,459.848 238.111,459.513 238.111,459.513 C 238.111,459.513 238.157,459.513 238.157,459.513 C 238.157,459.513 238.157,459.659 238.157,459.659 C 238.179,459.657 238.195,459.657 238.206,459.657 C 238.206,459.657 238.295,459.513 238.295,459.513 C 238.295,459.513 238.348,459.513 238.348,459.513 C 238.348,459.513 238.251,459.667 238.251,459.667 C 238.251,459.667 238.251,459.667 238.251,459.667 L 238.251,459.667 Z M 238.184,459.809 C 238.213,459.809 238.235,459.805 238.248,459.797 C 238.261,459.789 238.268,459.775 238.268,459.756 C 238.268,459.733 238.262,459.718 238.249,459.709 C 238.236,459.7 238.217,459.696 238.189,459.696 C 238.179,459.696 238.168,459.696 238.157,459.698 C 238.157,459.698 238.157,459.807 238.157,459.807 C 238.171,459.808 238.18,459.809 238.184,459.809 C 238.184,459.809 238.184,459.809 238.184,459.809 L 238.184,459.809 Z" marker-start="none" marker-end="none"/>
     </g>
    </g>
   </g>
  </g>
 </g></g></svg>