<?xml version="1.0" standalone="no"?>
<!DOCTYPE svg PUBLIC "-//W3C//DTD SVG 1.1//EN" "http://www.w3.org/Graphics/SVG/1.1/DTD/svg11.dtd">
<!--Generator: Xara Xtreme (www.xara.com), SVG filter version: 1.0.0.13-->
<svg stroke-width="0.501" stroke-linejoin="bevel" fill-rule="evenodd" xmlns:xlink="http://www.w3.org/1999/xlink" xmlns="http://www.w3.org/2000/svg" version="1.1" overflow="visible" width="841.891pt" height="595.277pt" viewBox="0 0 841.891 595.277">
 <defs>
  <marker id="DefaultArrow2" markerUnits="strokeWidth" viewBox="0 0 1 1" markerWidth="1" markerHeight="1" overflow="visible" orient="auto">
   <!-- REF_ARROW_STRAIGHT (-2) -->
   <g transform="scale(0.0092592592)">
    <!-- 1/108 -->
    <path d="M -9 54 L -9 -54 L 117 0 z"/>
   </g>
  </marker>
  <marker id="DefaultArrow3" markerUnits="strokeWidth" viewBox="0 0 1 1" markerWidth="1" markerHeight="1" overflow="visible" orient="auto">
   <!-- REF_ARROW_ANGLED -->
   <g transform="scale(0.0092592592)">
    <path d="M -27 54 L -9 0 L -27 -54 L 135 0 z"/>
   </g>
  </marker>
  <marker id="DefaultArrow4" markerUnits="strokeWidth" viewBox="0 0 1 1" markerWidth="1" markerHeight="1" overflow="visible" orient="auto">
   <!-- REF_ARROW_ROUNDED -->
   <g transform="scale(0.0092592592)">
    <path d="M -9,0 L -9,-45 C -9,-51.708 2.808,-56.580 9,-54 L 117,-9 C 120.916,-7.369 126.000,-4.242 126,0 C 126,4.242 120.916,7.369 117,9 L 9,54 C 2.808,56.580 -9,51.708 -9,45 z"/>
   </g>
  </marker>
  <marker id="DefaultArrow5" markerUnits="strokeWidth" viewBox="0 0 1 1" markerWidth="1" markerHeight="1" overflow="visible" orient="auto">
   <!-- REF_ARROW_SPOT -->
   <g transform="scale(0.0092592592)">
    <path d="M -54, 0 C -54,29.807 -29.807,54 0,54 C 29.807,54 54,29.807 54,0 C 54,-29.807 29.807,-54 0,-54 C -29.807,-54 -54,-29.807 -54,0 z"/>
   </g>
  </marker>
  <marker id="DefaultArrow6" markerUnits="strokeWidth" viewBox="0 0 1 1" markerWidth="1" markerHeight="1" overflow="visible" orient="auto">
   <!-- REF_ARROW_DIAMOND -->
   <g transform="scale(0.0092592592)">
    <path d="M -63,0 L 0,63 L 63,0 L 0,-63 z"/>
   </g>
  </marker>
  <marker id="DefaultArrow7" markerUnits="strokeWidth" viewBox="0 0 1 1" markerWidth="1" markerHeight="1" overflow="visible" orient="auto">
   <!-- REF_ARROW_FEATHER -->
   <g transform="scale(0.0092592592)">
    <path d="M 18,-54 L 108,-54 L 63,0 L 108,54 L 18, 54 L -36,0 z"/>
   </g>
  </marker>
  <marker id="DefaultArrow8" markerUnits="strokeWidth" viewBox="0 0 1 1" markerWidth="1" markerHeight="1" overflow="visible" orient="auto">
   <!-- REF_ARROW_FEATHER2 -->
   <g transform="scale(0.0092592592)">
    <path d="M -36,0 L 18,-54 L 54,-54 L 18,-18 L 27,-18 L 63,-54 L 99,-54 L 63,-18 L 72,-18 L 108,-54 L 144,-54 L 90,0 L 144,54 L 108,54 L 72,18 L 63,18 L 99,54 L 63,54 L 27,18 L 18,18 L 54,54 L 18,54 z"/>
   </g>
  </marker>
  <marker id="DefaultArrow9" markerUnits="strokeWidth" viewBox="0 0 1 1" markerWidth="1" markerHeight="1" overflow="visible" orient="auto">
   <!-- REF_ARROW_HOLLOWDIAMOND -->
   <g transform="scale(0.0092592592)">
    <path d="M 0,45 L -45,0 L 0, -45 L 45, 0 z M 0, 63 L-63, 0 L 0, -63 L 63, 0 z"/>
   </g>
  </marker>
  <filter id="StainedFilter">
   <feBlend mode="multiply" in2="BackgroundImage" in="SourceGraphic" result="blend"/>
   <feComposite in="blend" in2="SourceAlpha" operator="in" result="comp"/>
  </filter>
  <filter id="BleachFilter">
   <feBlend mode="screen" in2="BackgroundImage" in="SourceGraphic" result="blend"/>
   <feComposite in="blend" in2="SourceAlpha" operator="in" result="comp"/>
  </filter>
  <filter id="InvertTransparencyBitmapFilter">
   <feComponentTransfer>
    <feFuncR type="gamma" amplitude="1.055" exponent=".416666666" offset="-0.055"/>
    <feFuncG type="gamma" amplitude="1.055" exponent=".416666666" offset="-0.055"/>
    <feFuncB type="gamma" amplitude="1.055" exponent=".416666666" offset="-0.055"/>
   </feComponentTransfer>
   <feComponentTransfer>
    <feFuncR type="linear" slope="-1" intercept="1"/>
    <feFuncG type="linear" slope="-1" intercept="1"/>
    <feFuncB type="linear" slope="-1" intercept="1"/>
    <feFuncA type="linear" slope="1" intercept="0"/>
   </feComponentTransfer>
   <feComponentTransfer>
    <feFuncR type="gamma" amplitude="1" exponent="2.4" offset="0"/>
    <feFuncG type="gamma" amplitude="1" exponent="2.4" offset="0"/>
    <feFuncB type="gamma" amplitude="1" exponent="2.4" offset="0"/>
   </feComponentTransfer>
  </filter>
 </defs>
 <g id="Document" fill="none" stroke="black" font-family="Times New Roman" font-size="16" transform="scale(1 -1)">
  <g id="Spread" transform="translate(0 -595.277)">
   <g id="Layer 1">
    <g id="Group">
     <g id="Group_1">
      <path d="M 457.37,314.529 L 457.37,286.212 L 513.84,286.212 L 513.84,314.529 L 457.37,314.529 Z" stroke="none" fill="#0485e8" stroke-width="0.122" stroke-linejoin="miter" marker-start="none" marker-end="none" stroke-miterlimit="79.8403193612775"/>
      <g id="Group_2" fill-rule="nonzero" stroke="#ffffff" stroke-width="0.081" fill="#ffffff" stroke-miterlimit="79.8403193612775">
       <g id="Group_3">
        <path d="M 473.753,300.704 L 473.753,300.259 C 473.753,300.2 473.747,300.153 473.735,300.117 C 473.724,300.082 473.702,300.05 473.671,300.022 C 473.64,299.993 473.6,299.966 473.552,299.939 C 473.411,299.863 473.276,299.808 473.147,299.773 C 473.017,299.738 472.875,299.721 472.722,299.721 C 472.544,299.721 472.382,299.748 472.235,299.803 C 472.088,299.858 471.963,299.938 471.86,300.042 C 471.757,300.147 471.677,300.273 471.622,300.422 C 471.566,300.571 471.539,300.737 471.539,300.92 C 471.539,301.101 471.566,301.266 471.619,301.416 C 471.673,301.566 471.752,301.693 471.857,301.797 C 471.961,301.902 472.088,301.982 472.238,302.037 C 472.388,302.092 472.558,302.12 472.748,302.12 C 472.904,302.12 473.042,302.099 473.162,302.057 C 473.283,302.016 473.38,301.963 473.455,301.9 C 473.53,301.837 473.587,301.77 473.625,301.699 C 473.662,301.628 473.681,301.566 473.681,301.511 C 473.681,301.452 473.66,301.401 473.616,301.36 C 473.572,301.318 473.52,301.297 473.458,301.297 C 473.425,301.297 473.392,301.305 473.361,301.321 C 473.33,301.337 473.304,301.359 473.283,301.387 C 473.225,301.478 473.176,301.547 473.135,301.593 C 473.095,301.639 473.041,301.679 472.973,301.71 C 472.905,301.742 472.818,301.758 472.713,301.758 C 472.604,301.758 472.507,301.739 472.422,301.701 C 472.336,301.664 472.263,301.61 472.203,301.538 C 472.142,301.467 472.096,301.38 472.063,301.277 C 472.031,301.173 472.015,301.059 472.015,300.933 C 472.015,300.661 472.078,300.452 472.203,300.305 C 472.328,300.158 472.502,300.085 472.726,300.085 C 472.834,300.085 472.936,300.099 473.032,300.128 C 473.127,300.156 473.224,300.197 473.322,300.249 L 473.322,300.626 L 472.958,300.626 C 472.871,300.626 472.804,300.639 472.76,300.666 C 472.715,300.692 472.692,300.737 472.692,300.8 C 472.692,300.852 472.711,300.895 472.749,300.928 C 472.786,300.962 472.837,300.979 472.901,300.979 L 473.435,300.979 C 473.5,300.979 473.555,300.973 473.601,300.962 C 473.646,300.95 473.683,300.924 473.711,300.884 C 473.739,300.844 473.753,300.784 473.753,300.704 Z" marker-start="none" marker-end="none"/>
        <path d="M 475.264,299.965 C 475.159,299.883 475.058,299.822 474.96,299.782 C 474.863,299.741 474.753,299.721 474.632,299.721 C 474.521,299.721 474.424,299.743 474.34,299.787 C 474.256,299.83 474.192,299.89 474.146,299.965 C 474.101,300.04 474.078,300.121 474.078,300.208 C 474.078,300.326 474.116,300.427 474.191,300.511 C 474.266,300.594 474.368,300.65 474.499,300.678 C 474.527,300.685 474.595,300.699 474.703,300.721 C 474.812,300.743 474.905,300.764 474.983,300.782 C 475.06,300.8 475.144,300.823 475.235,300.849 C 475.23,300.963 475.207,301.047 475.166,301.1 C 475.126,301.153 475.041,301.18 474.914,301.18 C 474.804,301.18 474.722,301.165 474.666,301.134 C 474.611,301.104 474.563,301.058 474.524,300.996 C 474.484,300.935 474.456,300.895 474.44,300.875 C 474.424,300.856 474.388,300.846 474.335,300.846 C 474.286,300.846 474.244,300.862 474.209,300.893 C 474.173,300.924 474.156,300.964 474.156,301.012 C 474.156,301.088 474.183,301.162 474.236,301.234 C 474.29,301.306 474.374,301.365 474.488,301.411 C 474.602,301.458 474.744,301.481 474.914,301.481 C 475.104,301.481 475.253,301.458 475.362,301.413 C 475.47,301.369 475.547,301.298 475.592,301.201 C 475.637,301.104 475.659,300.975 475.659,300.814 C 475.659,300.713 475.659,300.627 475.658,300.557 C 475.658,300.486 475.657,300.407 475.656,300.321 C 475.656,300.239 475.669,300.155 475.696,300.067 C 475.723,299.979 475.737,299.922 475.737,299.897 C 475.737,299.852 475.716,299.812 475.674,299.776 C 475.633,299.739 475.585,299.721 475.533,299.721 C 475.488,299.721 475.445,299.742 475.401,299.783 C 475.358,299.825 475.312,299.886 475.264,299.965 Z M 475.235,300.59 C 475.172,300.567 475.08,300.542 474.959,300.516 C 474.838,300.49 474.755,300.471 474.708,300.459 C 474.662,300.447 474.617,300.423 474.575,300.388 C 474.533,300.353 474.512,300.303 474.512,300.24 C 474.512,300.175 474.537,300.119 474.586,300.073 C 474.636,300.027 474.701,300.004 474.781,300.004 C 474.866,300.004 474.945,300.023 475.017,300.06 C 475.09,300.098 475.143,300.146 475.177,300.205 C 475.216,300.271 475.235,300.378 475.235,300.528 L 475.235,300.59 Z" marker-start="none" marker-end="none"/>
        <path d="M 476.099,299.984 L 476.099,301.857 C 476.099,301.944 476.118,302.009 476.156,302.054 C 476.195,302.098 476.247,302.12 476.312,302.12 C 476.378,302.12 476.43,302.098 476.471,302.054 C 476.511,302.011 476.531,301.945 476.531,301.857 L 476.531,299.984 C 476.531,299.896 476.51,299.83 476.47,299.787 C 476.429,299.743 476.377,299.721 476.312,299.721 C 476.249,299.721 476.198,299.744 476.158,299.789 C 476.118,299.834 476.099,299.899 476.099,299.984 Z" marker-start="none" marker-end="none"/>
        <path d="M 477.283,301.208 L 477.633,300.227 L 478.009,301.251 C 478.039,301.333 478.068,301.392 478.096,301.426 C 478.125,301.46 478.168,301.478 478.226,301.478 C 478.281,301.478 478.328,301.459 478.366,301.422 C 478.405,301.385 478.424,301.342 478.424,301.294 C 478.424,301.275 478.421,301.253 478.414,301.227 C 478.407,301.202 478.399,301.178 478.39,301.156 C 478.381,301.134 478.371,301.109 478.359,301.08 L 477.945,300.052 C 477.933,300.022 477.918,299.985 477.899,299.939 C 477.881,299.894 477.86,299.855 477.838,299.823 C 477.815,299.791 477.787,299.766 477.754,299.748 C 477.721,299.73 477.68,299.721 477.633,299.721 C 477.572,299.721 477.523,299.735 477.486,299.763 C 477.45,299.791 477.423,299.821 477.406,299.855 C 477.388,299.888 477.359,299.954 477.318,300.052 L 476.906,301.069 C 476.897,301.095 476.887,301.12 476.877,301.145 C 476.867,301.171 476.859,301.196 476.852,301.223 C 476.845,301.249 476.842,301.272 476.842,301.291 C 476.842,301.32 476.851,301.35 476.868,301.379 C 476.886,301.408 476.911,301.431 476.943,301.45 C 476.974,301.468 477.009,301.478 477.046,301.478 C 477.117,301.478 477.167,301.457 477.194,301.416 C 477.221,301.375 477.25,301.306 477.283,301.208 Z" marker-start="none" marker-end="none"/>
        <path d="M 479.785,299.965 C 479.68,299.883 479.579,299.822 479.481,299.782 C 479.384,299.741 479.274,299.721 479.153,299.721 C 479.042,299.721 478.945,299.743 478.861,299.787 C 478.777,299.83 478.713,299.89 478.667,299.965 C 478.622,300.04 478.599,300.121 478.599,300.208 C 478.599,300.326 478.637,300.427 478.712,300.511 C 478.787,300.594 478.889,300.65 479.02,300.678 C 479.048,300.685 479.116,300.699 479.224,300.721 C 479.333,300.743 479.426,300.764 479.504,300.782 C 479.581,300.8 479.665,300.823 479.756,300.849 C 479.751,300.963 479.728,301.047 479.687,301.1 C 479.647,301.153 479.562,301.18 479.435,301.18 C 479.325,301.18 479.243,301.165 479.187,301.134 C 479.132,301.104 479.084,301.058 479.045,300.996 C 479.005,300.935 478.977,300.895 478.961,300.875 C 478.945,300.856 478.909,300.846 478.856,300.846 C 478.807,300.846 478.765,300.862 478.73,300.893 C 478.694,300.924 478.677,300.964 478.677,301.012 C 478.677,301.088 478.704,301.162 478.757,301.234 C 478.811,301.306 478.895,301.365 479.009,301.411 C 479.123,301.458 479.265,301.481 479.435,301.481 C 479.625,301.481 479.774,301.458 479.883,301.413 C 479.991,301.369 480.068,301.298 480.113,301.201 C 480.158,301.104 480.18,300.975 480.18,300.814 C 480.18,300.713 480.18,300.627 480.179,300.557 C 480.179,300.486 480.178,300.407 480.177,300.321 C 480.177,300.239 480.19,300.155 480.217,300.067 C 480.244,299.979 480.258,299.922 480.258,299.897 C 480.258,299.852 480.237,299.812 480.195,299.776 C 480.154,299.739 480.106,299.721 480.054,299.721 C 480.009,299.721 479.966,299.742 479.922,299.783 C 479.879,299.825 479.833,299.886 479.785,299.965 Z M 479.756,300.59 C 479.693,300.567 479.601,300.542 479.48,300.516 C 479.359,300.49 479.276,300.471 479.229,300.459 C 479.183,300.447 479.138,300.423 479.096,300.388 C 479.054,300.353 479.033,300.303 479.033,300.24 C 479.033,300.175 479.058,300.119 479.107,300.073 C 479.157,300.027 479.222,300.004 479.302,300.004 C 479.387,300.004 479.466,300.023 479.538,300.06 C 479.611,300.098 479.664,300.146 479.698,300.205 C 479.737,300.271 479.756,300.378 479.756,300.528 L 479.756,300.59 Z" marker-start="none" marker-end="none"/>
        <path d="M 481.012,301.239 L 481.012,301.186 C 481.088,301.287 481.171,301.36 481.261,301.407 C 481.352,301.454 481.455,301.478 481.572,301.478 C 481.686,301.478 481.788,301.453 481.878,301.403 C 481.967,301.354 482.034,301.283 482.079,301.193 C 482.107,301.14 482.126,301.083 482.134,301.022 C 482.143,300.961 482.147,300.882 482.147,300.788 L 482.147,299.984 C 482.147,299.897 482.127,299.832 482.087,299.787 C 482.048,299.743 481.996,299.721 481.933,299.721 C 481.869,299.721 481.817,299.744 481.776,299.789 C 481.736,299.834 481.716,299.899 481.716,299.984 L 481.716,300.704 C 481.716,300.846 481.697,300.955 481.657,301.03 C 481.617,301.106 481.539,301.144 481.42,301.144 C 481.343,301.144 481.273,301.121 481.21,301.075 C 481.147,301.029 481.1,300.966 481.071,300.886 C 481.05,300.821 481.039,300.701 481.039,300.525 L 481.039,299.984 C 481.039,299.896 481.019,299.83 480.978,299.787 C 480.937,299.743 480.885,299.721 480.821,299.721 C 480.758,299.721 480.707,299.744 480.667,299.789 C 480.627,299.834 480.607,299.899 480.607,299.984 L 480.607,301.232 C 480.607,301.314 480.625,301.376 480.661,301.417 C 480.697,301.457 480.746,301.478 480.808,301.478 C 480.846,301.478 480.88,301.469 480.911,301.451 C 480.941,301.433 480.966,301.406 480.984,301.37 C 481.003,301.334 481.012,301.29 481.012,301.239 Z" marker-start="none" marker-end="none"/>
        <path d="M 483.01,301.232 L 483.01,299.984 C 483.01,299.897 482.989,299.832 482.948,299.787 C 482.907,299.743 482.855,299.721 482.791,299.721 C 482.728,299.721 482.677,299.744 482.637,299.789 C 482.597,299.834 482.578,299.899 482.578,299.984 L 482.578,301.22 C 482.578,301.305 482.597,301.369 482.637,301.413 C 482.677,301.456 482.728,301.478 482.791,301.478 C 482.855,301.478 482.907,301.456 482.948,301.413 C 482.989,301.369 483.01,301.309 483.01,301.232 Z M 482.796,301.678 C 482.736,301.678 482.684,301.697 482.642,301.734 C 482.599,301.771 482.578,301.823 482.578,301.891 C 482.578,301.952 482.6,302.002 482.643,302.042 C 482.687,302.081 482.738,302.101 482.796,302.101 C 482.852,302.101 482.902,302.083 482.945,302.047 C 482.988,302.011 483.01,301.959 483.01,301.891 C 483.01,301.824 482.989,301.772 482.946,301.735 C 482.904,301.697 482.854,301.678 482.796,301.678 Z" marker-start="none" marker-end="none"/>
        <path d="M 485.006,300.256 C 485.006,300.202 484.99,300.145 484.958,300.083 C 484.925,300.022 484.876,299.964 484.81,299.908 C 484.745,299.853 484.661,299.808 484.561,299.775 C 484.461,299.741 484.348,299.724 484.223,299.724 C 483.956,299.724 483.747,299.802 483.597,299.958 C 483.448,300.113 483.373,300.322 483.373,300.583 C 483.373,300.761 483.407,300.917 483.476,301.053 C 483.544,301.189 483.643,301.295 483.773,301.369 C 483.903,301.444 484.058,301.481 484.238,301.481 C 484.35,301.481 484.453,301.464 484.546,301.432 C 484.64,301.399 484.719,301.357 484.784,301.305 C 484.848,301.253 484.898,301.198 484.932,301.14 C 484.967,301.081 484.984,301.027 484.984,300.976 C 484.984,300.924 484.964,300.88 484.926,300.845 C 484.887,300.809 484.841,300.791 484.786,300.791 C 484.75,300.791 484.72,300.8 484.697,300.818 C 484.673,300.837 484.646,300.867 484.617,300.908 C 484.564,300.988 484.509,301.048 484.451,301.088 C 484.394,301.128 484.321,301.148 484.232,301.148 C 484.104,301.148 484.002,301.099 483.923,300.999 C 483.845,300.899 483.806,300.763 483.806,300.59 C 483.806,300.509 483.816,300.434 483.836,300.366 C 483.856,300.298 483.885,300.24 483.923,300.192 C 483.961,300.144 484.007,300.107 484.061,300.083 C 484.115,300.058 484.174,300.045 484.238,300.045 C 484.325,300.045 484.399,300.065 484.461,300.105 C 484.522,300.146 484.577,300.207 484.625,300.289 C 484.651,300.338 484.679,300.376 484.71,300.403 C 484.741,300.43 484.778,300.444 484.822,300.444 C 484.875,300.444 484.919,300.424 484.954,300.384 C 484.988,300.344 485.006,300.301 485.006,300.256 Z" marker-start="none" marker-end="none"/>
        <path d="M 486.244,300.007 L 486.244,301.835 C 486.244,301.93 486.265,302.001 486.309,302.049 C 486.352,302.096 486.408,302.12 486.476,302.12 C 486.547,302.12 486.604,302.097 486.648,302.05 C 486.692,302.003 486.714,301.931 486.714,301.835 L 486.714,300.007 C 486.714,299.911 486.692,299.84 486.648,299.792 C 486.604,299.745 486.547,299.721 486.476,299.721 C 486.409,299.721 486.353,299.745 486.309,299.793 C 486.266,299.841 486.244,299.912 486.244,300.007 Z" marker-start="none" marker-end="none"/>
        <path d="M 488.601,300.286 C 488.601,300.167 488.572,300.065 488.514,299.98 C 488.456,299.895 488.37,299.83 488.256,299.787 C 488.143,299.743 488.005,299.721 487.843,299.721 C 487.688,299.721 487.555,299.745 487.444,299.792 C 487.333,299.84 487.251,299.899 487.199,299.97 C 487.146,300.041 487.119,300.113 487.119,300.185 C 487.119,300.232 487.136,300.273 487.17,300.306 C 487.204,300.34 487.247,300.357 487.298,300.357 C 487.344,300.357 487.378,300.346 487.403,300.324 C 487.427,300.302 487.45,300.271 487.472,300.23 C 487.517,300.153 487.57,300.096 487.631,300.058 C 487.693,300.02 487.777,300.001 487.884,300.001 C 487.97,300.001 488.041,300.02 488.097,300.059 C 488.152,300.097 488.18,300.141 488.18,300.191 C 488.18,300.267 488.151,300.322 488.093,300.357 C 488.036,300.392 487.941,300.425 487.809,300.457 C 487.661,300.494 487.54,300.533 487.446,300.573 C 487.353,300.614 487.278,300.667 487.222,300.734 C 487.166,300.8 487.138,300.882 487.138,300.979 C 487.138,301.066 487.164,301.147 487.216,301.224 C 487.268,301.301 487.344,301.363 487.445,301.409 C 487.545,301.455 487.667,301.478 487.809,301.478 C 487.921,301.478 488.022,301.466 488.111,301.443 C 488.2,301.419 488.274,301.388 488.334,301.349 C 488.394,301.31 488.439,301.267 488.47,301.22 C 488.501,301.172 488.517,301.126 488.517,301.08 C 488.517,301.031 488.5,300.99 488.467,300.958 C 488.434,300.927 488.387,300.911 488.325,300.911 C 488.281,300.911 488.243,300.924 488.212,300.949 C 488.181,300.974 488.145,301.012 488.105,301.063 C 488.073,301.105 488.034,301.139 487.99,301.164 C 487.946,301.19 487.885,301.202 487.809,301.202 C 487.731,301.202 487.666,301.186 487.615,301.152 C 487.563,301.119 487.537,301.078 487.537,301.028 C 487.537,300.983 487.556,300.946 487.594,300.917 C 487.632,300.888 487.683,300.864 487.748,300.845 C 487.812,300.826 487.901,300.802 488.014,300.775 C 488.148,300.742 488.257,300.703 488.342,300.658 C 488.427,300.612 488.491,300.559 488.535,300.497 C 488.579,300.435 488.601,300.365 488.601,300.286 Z" marker-start="none" marker-end="none"/>
        <path d="M 490.584,300.599 C 490.584,300.471 490.564,300.352 490.524,300.243 C 490.484,300.134 490.426,300.041 490.35,299.963 C 490.274,299.885 490.183,299.825 490.078,299.783 C 489.972,299.742 489.853,299.721 489.722,299.721 C 489.591,299.721 489.473,299.742 489.369,299.784 C 489.264,299.826 489.174,299.887 489.097,299.965 C 489.021,300.044 488.963,300.137 488.923,300.244 C 488.884,300.351 488.864,300.469 488.864,300.599 C 488.864,300.73 488.884,300.85 488.924,300.958 C 488.964,301.067 489.022,301.16 489.096,301.237 C 489.171,301.314 489.262,301.373 489.369,301.415 C 489.475,301.457 489.593,301.478 489.722,301.478 C 489.852,301.478 489.971,301.456 490.078,301.414 C 490.184,301.372 490.275,301.312 490.351,301.234 C 490.427,301.156 490.485,301.063 490.525,300.955 C 490.564,300.848 490.584,300.729 490.584,300.599 Z M 490.15,300.599 C 490.15,300.775 490.112,300.913 490.034,301.011 C 489.957,301.109 489.852,301.158 489.722,301.158 C 489.637,301.158 489.563,301.136 489.498,301.092 C 489.434,301.048 489.384,300.984 489.35,300.898 C 489.315,300.813 489.297,300.713 489.297,300.599 C 489.297,300.486 489.314,300.388 489.349,300.303 C 489.383,300.219 489.432,300.154 489.496,300.109 C 489.56,300.065 489.635,300.042 489.722,300.042 C 489.852,300.042 489.957,300.092 490.034,300.19 C 490.112,300.289 490.15,300.425 490.15,300.599 Z" marker-start="none" marker-end="none"/>
        <path d="M 490.925,299.984 L 490.925,301.857 C 490.925,301.944 490.944,302.009 490.982,302.054 C 491.021,302.098 491.073,302.12 491.138,302.12 C 491.204,302.12 491.256,302.098 491.297,302.054 C 491.337,302.011 491.357,301.945 491.357,301.857 L 491.357,299.984 C 491.357,299.896 491.336,299.83 491.296,299.787 C 491.255,299.743 491.203,299.721 491.138,299.721 C 491.075,299.721 491.024,299.744 490.984,299.789 C 490.944,299.834 490.925,299.899 490.925,299.984 Z" marker-start="none" marker-end="none"/>
        <path d="M 492.896,299.965 C 492.791,299.883 492.69,299.822 492.592,299.782 C 492.495,299.741 492.385,299.721 492.264,299.721 C 492.153,299.721 492.056,299.743 491.972,299.787 C 491.888,299.83 491.824,299.89 491.778,299.965 C 491.733,300.04 491.71,300.121 491.71,300.208 C 491.71,300.326 491.748,300.427 491.823,300.511 C 491.898,300.594 492,300.65 492.131,300.678 C 492.159,300.685 492.227,300.699 492.335,300.721 C 492.444,300.743 492.537,300.764 492.615,300.782 C 492.692,300.8 492.776,300.823 492.867,300.849 C 492.862,300.963 492.839,301.047 492.798,301.1 C 492.758,301.153 492.673,301.18 492.546,301.18 C 492.436,301.18 492.354,301.165 492.298,301.134 C 492.243,301.104 492.195,301.058 492.156,300.996 C 492.116,300.935 492.088,300.895 492.072,300.875 C 492.056,300.856 492.02,300.846 491.967,300.846 C 491.918,300.846 491.876,300.862 491.841,300.893 C 491.805,300.924 491.788,300.964 491.788,301.012 C 491.788,301.088 491.815,301.162 491.868,301.234 C 491.922,301.306 492.006,301.365 492.12,301.411 C 492.234,301.458 492.376,301.481 492.546,301.481 C 492.736,301.481 492.885,301.458 492.994,301.413 C 493.102,301.369 493.179,301.298 493.224,301.201 C 493.269,301.104 493.291,300.975 493.291,300.814 C 493.291,300.713 493.291,300.627 493.29,300.557 C 493.29,300.486 493.289,300.407 493.288,300.321 C 493.288,300.239 493.301,300.155 493.328,300.067 C 493.355,299.979 493.369,299.922 493.369,299.897 C 493.369,299.852 493.348,299.812 493.306,299.776 C 493.265,299.739 493.217,299.721 493.165,299.721 C 493.12,299.721 493.077,299.742 493.033,299.783 C 492.99,299.825 492.944,299.886 492.896,299.965 Z M 492.867,300.59 C 492.804,300.567 492.712,300.542 492.591,300.516 C 492.47,300.49 492.387,300.471 492.34,300.459 C 492.294,300.447 492.249,300.423 492.207,300.388 C 492.165,300.353 492.144,300.303 492.144,300.24 C 492.144,300.175 492.169,300.119 492.218,300.073 C 492.268,300.027 492.333,300.004 492.413,300.004 C 492.498,300.004 492.577,300.023 492.649,300.06 C 492.722,300.098 492.775,300.146 492.809,300.205 C 492.848,300.271 492.867,300.378 492.867,300.528 L 492.867,300.59 Z" marker-start="none" marker-end="none"/>
        <path d="M 493.674,301.44 L 493.722,301.44 L 493.722,301.699 C 493.722,301.769 493.724,301.823 493.727,301.863 C 493.731,301.902 493.741,301.936 493.758,301.965 C 493.775,301.994 493.799,302.018 493.831,302.037 C 493.863,302.055 493.898,302.065 493.937,302.065 C 493.992,302.065 494.042,302.044 494.086,302.003 C 494.115,301.975 494.134,301.942 494.142,301.902 C 494.15,301.863 494.154,301.807 494.154,301.734 L 494.154,301.44 L 494.312,301.44 C 494.373,301.44 494.42,301.425 494.452,301.396 C 494.484,301.367 494.5,301.33 494.5,301.284 C 494.5,301.226 494.478,301.186 494.432,301.163 C 494.386,301.139 494.32,301.128 494.235,301.128 L 494.154,301.128 L 494.154,300.333 C 494.154,300.266 494.156,300.214 494.161,300.178 C 494.166,300.141 494.178,300.112 494.199,300.089 C 494.22,300.066 494.253,300.055 494.299,300.055 C 494.325,300.055 494.359,300.059 494.402,300.068 C 494.446,300.077 494.479,300.082 494.504,300.082 C 494.538,300.082 494.57,300.068 494.598,300.04 C 494.626,300.012 494.64,299.977 494.64,299.936 C 494.64,299.867 494.602,299.813 494.526,299.776 C 494.45,299.739 494.341,299.721 494.198,299.721 C 494.063,299.721 493.961,299.744 493.891,299.789 C 493.822,299.834 493.776,299.897 493.754,299.977 C 493.733,300.057 493.722,300.165 493.722,300.299 L 493.722,301.128 L 493.665,301.128 C 493.603,301.128 493.555,301.143 493.522,301.172 C 493.49,301.202 493.473,301.239 493.473,301.284 C 493.473,301.33 493.491,301.367 493.525,301.396 C 493.559,301.425 493.609,301.44 493.674,301.44 Z" marker-start="none" marker-end="none"/>
        <path d="M 496.416,300.599 C 496.416,300.471 496.396,300.352 496.356,300.243 C 496.316,300.134 496.258,300.041 496.182,299.963 C 496.106,299.885 496.015,299.825 495.91,299.783 C 495.804,299.742 495.685,299.721 495.554,299.721 C 495.423,299.721 495.305,299.742 495.201,299.784 C 495.096,299.826 495.006,299.887 494.929,299.965 C 494.853,300.044 494.795,300.137 494.755,300.244 C 494.716,300.351 494.696,300.469 494.696,300.599 C 494.696,300.73 494.716,300.85 494.756,300.958 C 494.796,301.067 494.854,301.16 494.928,301.237 C 495.003,301.314 495.094,301.373 495.201,301.415 C 495.307,301.457 495.425,301.478 495.554,301.478 C 495.684,301.478 495.803,301.456 495.91,301.414 C 496.016,301.372 496.107,301.312 496.183,301.234 C 496.259,301.156 496.317,301.063 496.357,300.955 C 496.396,300.848 496.416,300.729 496.416,300.599 Z M 495.982,300.599 C 495.982,300.775 495.944,300.913 495.866,301.011 C 495.789,301.109 495.684,301.158 495.554,301.158 C 495.469,301.158 495.395,301.136 495.33,301.092 C 495.266,301.048 495.216,300.984 495.182,300.898 C 495.147,300.813 495.129,300.713 495.129,300.599 C 495.129,300.486 495.146,300.388 495.181,300.303 C 495.215,300.219 495.264,300.154 495.328,300.109 C 495.392,300.065 495.467,300.042 495.554,300.042 C 495.684,300.042 495.789,300.092 495.866,300.19 C 495.944,300.289 495.982,300.425 495.982,300.599 Z" marker-start="none" marker-end="none"/>
        <path d="M 497.185,300.344 L 497.185,299.984 C 497.185,299.896 497.165,299.83 497.124,299.787 C 497.083,299.743 497.03,299.721 496.967,299.721 C 496.905,299.721 496.854,299.743 496.814,299.787 C 496.774,299.832 496.753,299.897 496.753,299.984 L 496.753,301.186 C 496.753,301.38 496.824,301.478 496.964,301.478 C 497.036,301.478 497.087,301.455 497.119,301.409 C 497.151,301.364 497.168,301.297 497.171,301.208 C 497.223,301.297 497.276,301.364 497.33,301.409 C 497.385,301.455 497.457,301.478 497.548,301.478 C 497.639,301.478 497.727,301.455 497.812,301.409 C 497.898,301.364 497.94,301.304 497.94,301.229 C 497.94,301.176 497.922,301.133 497.886,301.099 C 497.849,301.064 497.81,301.047 497.768,301.047 C 497.752,301.047 497.714,301.057 497.653,301.076 C 497.592,301.096 497.539,301.106 497.493,301.106 C 497.429,301.106 497.378,301.089 497.337,301.056 C 497.297,301.023 497.266,300.973 497.244,300.908 C 497.222,300.842 497.207,300.765 497.198,300.674 C 497.19,300.584 497.185,300.474 497.185,300.344 Z" marker-start="none" marker-end="none"/>
       </g>
       <g id="Group_4">
        <path d="M 480.006,298.06 L 480.532,296.505 L 481.058,298.072 C 481.086,298.154 481.106,298.211 481.12,298.243 C 481.134,298.275 481.157,298.304 481.188,298.33 C 481.22,298.356 481.263,298.369 481.318,298.369 C 481.358,298.369 481.395,298.359 481.43,298.339 C 481.464,298.319 481.491,298.292 481.51,298.259 C 481.53,298.226 481.54,298.192 481.54,298.159 C 481.54,298.135 481.536,298.11 481.53,298.083 C 481.524,298.056 481.516,298.03 481.506,298.004 C 481.497,297.978 481.487,297.952 481.478,297.924 L 480.916,296.408 C 480.896,296.35 480.876,296.295 480.856,296.243 C 480.836,296.191 480.813,296.145 480.786,296.105 C 480.76,296.066 480.725,296.033 480.681,296.008 C 480.637,295.983 480.584,295.97 480.52,295.97 C 480.457,295.97 480.404,295.982 480.36,296.007 C 480.316,296.032 480.281,296.065 480.254,296.105 C 480.227,296.146 480.203,296.192 480.183,296.244 C 480.163,296.295 480.143,296.35 480.123,296.408 L 479.571,297.912 C 479.561,297.939 479.552,297.966 479.542,297.992 C 479.532,298.019 479.523,298.047 479.516,298.078 C 479.509,298.108 479.506,298.134 479.506,298.155 C 479.506,298.209 479.528,298.258 479.571,298.303 C 479.614,298.347 479.669,298.369 479.734,298.369 C 479.814,298.369 479.871,298.344 479.904,298.295 C 479.937,298.246 479.971,298.168 480.006,298.06 Z" marker-start="none" marker-end="none"/>
        <path d="M 482.184,298.329 L 482.796,298.329 C 482.956,298.329 483.092,298.315 483.206,298.285 C 483.32,298.256 483.423,298.2 483.516,298.119 C 483.758,297.912 483.879,297.598 483.879,297.176 C 483.879,297.037 483.867,296.909 483.842,296.794 C 483.818,296.679 483.781,296.576 483.73,296.483 C 483.679,296.391 483.614,296.309 483.535,296.236 C 483.473,296.18 483.405,296.135 483.331,296.101 C 483.257,296.068 483.178,296.044 483.093,296.03 C 483.008,296.016 482.912,296.01 482.806,296.01 L 482.193,296.01 C 482.108,296.01 482.044,296.022 482,296.048 C 481.957,296.074 481.929,296.111 481.916,296.157 C 481.902,296.204 481.896,296.265 481.896,296.34 L 481.896,298.041 C 481.896,298.143 481.919,298.216 481.964,298.261 C 482.009,298.307 482.083,298.329 482.184,298.329 Z M 482.366,297.958 L 482.366,296.383 L 482.722,296.383 C 482.8,296.383 482.861,296.385 482.906,296.389 C 482.95,296.394 482.996,296.404 483.043,296.421 C 483.091,296.438 483.132,296.462 483.167,296.492 C 483.324,296.625 483.402,296.854 483.402,297.179 C 483.402,297.408 483.368,297.579 483.299,297.693 C 483.23,297.807 483.144,297.88 483.043,297.911 C 482.942,297.942 482.82,297.958 482.676,297.958 L 482.366,297.958 Z" marker-start="none" marker-end="none"/>
        <path d="M 484.312,296.256 L 484.312,298.084 C 484.312,298.179 484.333,298.25 484.377,298.298 C 484.42,298.345 484.476,298.369 484.544,298.369 C 484.615,298.369 484.672,298.346 484.716,298.299 C 484.76,298.252 484.782,298.18 484.782,298.084 L 484.782,296.256 C 484.782,296.16 484.76,296.089 484.716,296.041 C 484.672,295.994 484.615,295.97 484.544,295.97 C 484.477,295.97 484.421,295.994 484.377,296.042 C 484.334,296.09 484.312,296.161 484.312,296.256 Z" marker-start="none" marker-end="none"/>
        <path d="M 485.564,295.97 C 485.499,295.97 485.442,295.991 485.395,296.033 C 485.347,296.075 485.324,296.135 485.324,296.21 C 485.324,296.275 485.346,296.33 485.392,296.377 C 485.437,296.423 485.493,296.446 485.559,296.446 C 485.626,296.446 485.682,296.423 485.729,296.377 C 485.776,296.332 485.8,296.276 485.8,296.21 C 485.8,296.136 485.776,296.077 485.729,296.034 C 485.682,295.991 485.627,295.97 485.564,295.97 Z" marker-start="none" marker-end="none"/>
        <path d="M 486.957,297.41 C 487.054,297.41 487.138,297.438 487.208,297.495 C 487.278,297.552 487.313,297.634 487.313,297.741 C 487.313,297.822 487.285,297.892 487.229,297.95 C 487.174,298.009 487.098,298.038 487.003,298.038 C 486.939,298.038 486.886,298.029 486.844,298.011 C 486.802,297.993 486.77,297.97 486.745,297.94 C 486.721,297.911 486.698,297.873 486.676,297.826 C 486.655,297.78 486.635,297.736 486.617,297.695 C 486.607,297.673 486.588,297.655 486.56,297.643 C 486.533,297.63 486.501,297.624 486.465,297.624 C 486.423,297.624 486.384,297.641 486.349,297.675 C 486.313,297.709 486.296,297.755 486.296,297.812 C 486.296,297.867 486.312,297.925 486.346,297.985 C 486.379,298.046 486.427,298.104 486.491,298.159 C 486.555,298.213 486.634,298.257 486.729,298.291 C 486.824,298.324 486.93,298.341 487.048,298.341 C 487.15,298.341 487.243,298.327 487.328,298.299 C 487.412,298.271 487.485,298.23 487.548,298.178 C 487.61,298.125 487.657,298.064 487.688,297.994 C 487.72,297.924 487.736,297.849 487.736,297.769 C 487.736,297.664 487.713,297.573 487.667,297.498 C 487.621,297.422 487.555,297.349 487.47,297.277 C 487.552,297.233 487.622,297.182 487.678,297.125 C 487.735,297.068 487.777,297.005 487.805,296.936 C 487.834,296.867 487.848,296.792 487.848,296.712 C 487.848,296.616 487.829,296.523 487.79,296.434 C 487.752,296.344 487.695,296.264 487.62,296.194 C 487.545,296.124 487.457,296.069 487.354,296.029 C 487.251,295.99 487.137,295.97 487.013,295.97 C 486.886,295.97 486.773,295.993 486.672,296.038 C 486.572,296.083 486.49,296.14 486.425,296.208 C 486.36,296.276 486.311,296.347 486.278,296.419 C 486.244,296.492 486.228,296.552 486.228,296.6 C 486.228,296.661 486.248,296.71 486.287,296.748 C 486.327,296.785 486.376,296.804 486.435,296.804 C 486.465,296.804 486.493,296.795 486.521,296.778 C 486.548,296.76 486.566,296.74 486.574,296.715 C 486.629,296.569 486.688,296.46 486.751,296.389 C 486.814,296.317 486.902,296.282 487.016,296.282 C 487.081,296.282 487.144,296.298 487.205,296.33 C 487.266,296.362 487.316,296.41 487.355,296.473 C 487.395,296.536 487.415,296.61 487.415,296.693 C 487.415,296.817 487.381,296.913 487.313,296.984 C 487.246,297.054 487.152,297.089 487.032,297.089 C 487.011,297.089 486.978,297.087 486.934,297.082 C 486.889,297.078 486.861,297.076 486.848,297.076 C 486.79,297.076 486.745,297.091 486.714,297.12 C 486.682,297.149 486.666,297.189 486.666,297.241 C 486.666,297.291 486.685,297.332 486.723,297.363 C 486.761,297.394 486.817,297.41 486.892,297.41 L 486.957,297.41 Z" marker-start="none" marker-end="none"/>
        <path d="M 488.72,296.383 L 489.546,296.383 C 489.628,296.383 489.691,296.366 489.734,296.332 C 489.777,296.299 489.799,296.253 489.799,296.195 C 489.799,296.143 489.782,296.099 489.748,296.063 C 489.713,296.027 489.661,296.01 489.592,296.01 L 488.427,296.01 C 488.348,296.01 488.286,296.031 488.242,296.075 C 488.197,296.119 488.175,296.17 488.175,296.229 C 488.175,296.267 488.19,296.318 488.218,296.381 C 488.247,296.443 488.278,296.493 488.311,296.529 C 488.452,296.674 488.578,296.799 488.691,296.903 C 488.804,297.007 488.885,297.075 488.933,297.108 C 489.02,297.169 489.092,297.23 489.149,297.292 C 489.207,297.354 489.251,297.417 489.281,297.482 C 489.311,297.547 489.326,297.61 489.326,297.673 C 489.326,297.74 489.31,297.801 489.278,297.854 C 489.245,297.907 489.202,297.949 489.146,297.978 C 489.091,298.008 489.03,298.022 488.965,298.022 C 488.827,298.022 488.718,297.962 488.639,297.84 C 488.628,297.825 488.611,297.781 488.586,297.711 C 488.561,297.64 488.533,297.586 488.502,297.548 C 488.471,297.51 488.425,297.491 488.365,297.491 C 488.312,297.491 488.269,297.508 488.234,297.543 C 488.199,297.578 488.182,297.625 488.182,297.685 C 488.182,297.758 488.198,297.834 488.231,297.913 C 488.263,297.992 488.312,298.064 488.377,298.128 C 488.442,298.193 488.524,298.245 488.624,298.284 C 488.724,298.324 488.841,298.344 488.975,298.344 C 489.136,298.344 489.274,298.318 489.388,298.268 C 489.461,298.234 489.526,298.188 489.582,298.128 C 489.638,298.069 489.682,298.001 489.713,297.924 C 489.744,297.846 489.759,297.766 489.759,297.682 C 489.759,297.551 489.727,297.432 489.662,297.325 C 489.597,297.218 489.531,297.134 489.463,297.074 C 489.396,297.013 489.283,296.918 489.124,296.788 C 488.965,296.658 488.856,296.558 488.797,296.486 C 488.772,296.457 488.746,296.423 488.72,296.383 Z" marker-start="none" marker-end="none"/>
       </g>
      </g>
      <g id="Group_5" fill-rule="nonzero" stroke="#ffffff" stroke-width="0.064" fill="#ffffff" stroke-miterlimit="79.8403193612775">
       <g id="Group_6">
        <path d="M 460.486,296.995 C 460.598,296.995 460.698,296.966 460.787,296.909 C 460.876,296.852 460.945,296.767 460.995,296.657 C 461.046,296.546 461.071,296.415 461.071,296.263 C 461.071,296.081 461.037,295.931 460.968,295.813 C 460.918,295.729 460.852,295.661 460.77,295.608 C 460.687,295.556 460.607,295.53 460.529,295.53 C 460.483,295.53 460.445,295.545 460.412,295.577 C 460.38,295.608 460.364,295.648 460.364,295.697 C 460.364,295.736 460.377,295.77 460.402,295.797 C 460.427,295.824 460.464,295.847 460.514,295.867 C 460.572,295.89 460.621,295.916 460.661,295.943 C 460.7,295.97 460.733,296.008 460.758,296.058 C 460.784,296.107 460.797,296.172 460.797,296.253 C 460.797,296.364 460.771,296.454 460.719,296.523 C 460.668,296.592 460.603,296.627 460.526,296.627 C 460.465,296.627 460.415,296.608 460.377,296.571 C 460.339,296.533 460.31,296.485 460.29,296.426 C 460.27,296.367 460.248,296.288 460.226,296.189 C 460.195,296.056 460.158,295.945 460.117,295.856 C 460.075,295.767 460.019,295.696 459.947,295.643 C 459.875,295.591 459.786,295.565 459.68,295.565 C 459.578,295.565 459.488,295.593 459.409,295.648 C 459.33,295.703 459.27,295.783 459.227,295.888 C 459.185,295.993 459.164,296.116 459.164,296.258 C 459.164,296.371 459.178,296.469 459.206,296.552 C 459.234,296.634 459.271,296.703 459.318,296.757 C 459.365,296.812 459.413,296.852 459.465,296.877 C 459.516,296.902 459.566,296.915 459.614,296.915 C 459.659,296.915 459.699,296.899 459.734,296.867 C 459.77,296.836 459.788,296.797 459.788,296.75 C 459.788,296.707 459.777,296.675 459.756,296.652 C 459.734,296.63 459.699,296.606 459.651,296.58 C 459.581,296.547 459.527,296.506 459.488,296.459 C 459.449,296.412 459.429,296.337 459.429,296.233 C 459.429,296.136 459.45,296.059 459.493,295.999 C 459.535,295.94 459.586,295.911 459.646,295.911 C 459.683,295.911 459.714,295.921 459.741,295.941 C 459.768,295.961 459.791,295.989 459.81,296.024 C 459.83,296.059 459.845,296.095 459.856,296.131 C 459.867,296.167 459.883,296.227 459.904,296.31 C 459.928,296.414 459.955,296.508 459.984,296.592 C 460.013,296.676 460.049,296.748 460.091,296.807 C 460.133,296.866 460.186,296.912 460.25,296.945 C 460.314,296.979 460.393,296.995 460.486,296.995 Z" marker-start="none" marker-end="none"/>
        <path d="M 459.373,297.625 L 459.882,297.625 C 459.832,297.668 459.792,297.711 459.763,297.752 C 459.733,297.794 459.711,297.84 459.697,297.89 C 459.682,297.94 459.675,297.995 459.675,298.052 C 459.675,298.14 459.693,298.217 459.73,298.285 C 459.767,298.352 459.821,298.405 459.891,298.444 C 459.932,298.468 459.978,298.484 460.029,298.493 C 460.079,298.501 460.138,298.505 460.204,298.505 L 460.862,298.505 C 460.931,298.505 460.983,298.49 461.018,298.458 C 461.053,298.427 461.071,298.385 461.071,298.333 C 461.071,298.22 461.001,298.163 460.862,298.163 L 460.282,298.163 C 460.172,298.163 460.088,298.147 460.029,298.114 C 459.97,298.081 459.94,298.019 459.94,297.928 C 459.94,297.867 459.957,297.812 459.992,297.762 C 460.027,297.713 460.075,297.677 460.135,297.652 C 460.186,297.634 460.277,297.625 460.408,297.625 L 460.862,297.625 C 460.93,297.625 460.982,297.609 461.017,297.579 C 461.053,297.548 461.071,297.506 461.071,297.451 C 461.071,297.338 461.001,297.281 460.862,297.281 L 459.373,297.281 C 459.303,297.281 459.251,297.296 459.216,297.326 C 459.181,297.356 459.164,297.397 459.164,297.451 C 459.164,297.506 459.182,297.548 459.217,297.579 C 459.252,297.609 459.304,297.625 459.373,297.625 Z" marker-start="none" marker-end="none"/>
        <path d="M 460.373,300.132 C 460.475,300.132 460.569,300.116 460.656,300.084 C 460.742,300.052 460.816,300.006 460.878,299.945 C 460.941,299.885 460.988,299.813 461.021,299.729 C 461.054,299.645 461.071,299.551 461.071,299.446 C 461.071,299.342 461.054,299.248 461.021,299.165 C 460.987,299.082 460.939,299.01 460.877,298.95 C 460.814,298.889 460.74,298.843 460.655,298.811 C 460.57,298.78 460.476,298.764 460.373,298.764 C 460.269,298.764 460.174,298.78 460.087,298.812 C 460.001,298.844 459.927,298.889 459.866,298.949 C 459.805,299.009 459.757,299.081 459.724,299.165 C 459.691,299.25 459.675,299.344 459.675,299.446 C 459.675,299.55 459.691,299.644 459.725,299.729 C 459.758,299.814 459.806,299.886 459.868,299.947 C 459.93,300.007 460.004,300.053 460.09,300.084 C 460.175,300.116 460.27,300.132 460.373,300.132 Z M 460.373,299.787 C 460.233,299.787 460.124,299.756 460.046,299.694 C 459.968,299.633 459.929,299.55 459.929,299.446 C 459.929,299.379 459.946,299.32 459.981,299.269 C 460.016,299.217 460.067,299.178 460.135,299.15 C 460.203,299.123 460.282,299.109 460.373,299.109 C 460.463,299.109 460.541,299.122 460.608,299.15 C 460.675,299.177 460.726,299.216 460.762,299.267 C 460.798,299.317 460.816,299.377 460.816,299.446 C 460.816,299.55 460.776,299.633 460.698,299.694 C 460.62,299.756 460.511,299.787 460.373,299.787 Z" marker-start="none" marker-end="none"/>
        <path d="M 460.575,300.744 L 460.862,300.744 C 460.932,300.744 460.984,300.727 461.019,300.695 C 461.054,300.662 461.071,300.62 461.071,300.57 C 461.071,300.521 461.053,300.48 461.018,300.448 C 460.983,300.416 460.931,300.4 460.862,300.4 L 459.906,300.4 C 459.752,300.4 459.675,300.456 459.675,300.568 C 459.675,300.625 459.693,300.666 459.729,300.691 C 459.765,300.716 459.818,300.73 459.888,300.732 C 459.818,300.774 459.765,300.816 459.729,300.859 C 459.693,300.902 459.675,300.96 459.675,301.032 C 459.675,301.104 459.693,301.174 459.729,301.242 C 459.765,301.31 459.813,301.344 459.872,301.344 C 459.914,301.344 459.949,301.329 459.976,301.3 C 460.003,301.272 460.017,301.24 460.017,301.207 C 460.017,301.194 460.009,301.164 459.994,301.116 C 459.978,301.067 459.97,301.025 459.97,300.988 C 459.97,300.938 459.983,300.896 460.01,300.865 C 460.036,300.833 460.076,300.808 460.127,300.79 C 460.179,300.773 460.241,300.761 460.313,300.754 C 460.385,300.747 460.472,300.744 460.575,300.744 Z" marker-start="none" marker-end="none"/>
        <path d="M 460.457,302.427 L 460.457,301.756 C 460.535,301.757 460.604,301.772 460.663,301.803 C 460.723,301.833 460.768,301.874 460.798,301.925 C 460.828,301.976 460.843,302.032 460.843,302.093 C 460.843,302.134 460.838,302.171 460.829,302.205 C 460.819,302.239 460.804,302.272 460.784,302.304 C 460.763,302.336 460.741,302.365 460.717,302.392 C 460.694,302.419 460.662,302.454 460.622,302.497 C 460.607,302.514 460.599,302.539 460.599,302.572 C 460.599,302.607 460.609,302.636 460.628,302.658 C 460.647,302.679 460.675,302.69 460.71,302.69 C 460.741,302.69 460.777,302.678 460.819,302.654 C 460.86,302.63 460.9,302.593 460.938,302.544 C 460.976,302.495 461.008,302.433 461.033,302.359 C 461.058,302.285 461.071,302.199 461.071,302.103 C 461.071,301.882 461.008,301.711 460.882,301.588 C 460.756,301.466 460.586,301.405 460.37,301.405 C 460.269,301.405 460.175,301.42 460.088,301.45 C 460.001,301.48 459.927,301.524 459.865,301.582 C 459.803,301.64 459.755,301.711 459.722,301.796 C 459.689,301.881 459.672,301.975 459.672,302.078 C 459.672,302.212 459.7,302.327 459.757,302.423 C 459.814,302.519 459.887,302.591 459.977,302.639 C 460.066,302.687 460.158,302.711 460.251,302.71 C 460.337,302.711 460.393,302.686 460.419,302.636 C 460.444,302.587 460.457,302.517 460.457,302.427 Z M 460.262,301.756 L 460.262,302.378 C 460.145,302.37 460.057,302.338 459.999,302.283 C 459.94,302.228 459.911,302.156 459.911,302.066 C 459.911,301.981 459.941,301.911 460,301.856 C 460.059,301.801 460.146,301.767 460.262,301.756 Z" marker-start="none" marker-end="none"/>
       </g>
      </g>
      <path d="M 460.198,305.239 C 460.735,305.239 461.171,304.803 461.171,304.266 C 461.171,303.728 460.735,303.292 460.198,303.292 C 459.66,303.292 459.224,303.728 459.224,304.266 C 459.224,304.803 459.66,305.239 460.198,305.239 Z" stroke="#ffffff" fill="#ffffff" stroke-width="0.089" marker-start="none" marker-end="none" stroke-miterlimit="79.8403193612775"/>
      <g id="Group_7" fill-rule="nonzero" stroke="#ffffff" stroke-width="0.064" fill="#ffffff" stroke-miterlimit="79.8403193612775">
       <g id="Group_8">
        <path d="M 511.214,298.131 C 511.326,298.131 511.426,298.102 511.515,298.045 C 511.604,297.988 511.673,297.903 511.723,297.793 C 511.774,297.682 511.799,297.551 511.799,297.399 C 511.799,297.217 511.765,297.067 511.696,296.949 C 511.646,296.865 511.58,296.797 511.498,296.744 C 511.415,296.692 511.335,296.666 511.257,296.666 C 511.211,296.666 511.173,296.681 511.14,296.713 C 511.108,296.744 511.092,296.784 511.092,296.833 C 511.092,296.872 511.105,296.906 511.13,296.933 C 511.155,296.96 511.192,296.983 511.242,297.003 C 511.3,297.026 511.349,297.052 511.389,297.079 C 511.428,297.106 511.461,297.144 511.486,297.194 C 511.512,297.243 511.525,297.308 511.525,297.389 C 511.525,297.5 511.499,297.59 511.447,297.659 C 511.396,297.728 511.331,297.763 511.254,297.763 C 511.193,297.763 511.143,297.744 511.105,297.707 C 511.067,297.669 511.038,297.621 511.018,297.562 C 510.998,297.503 510.976,297.424 510.954,297.325 C 510.923,297.192 510.886,297.081 510.845,296.992 C 510.803,296.903 510.747,296.832 510.675,296.779 C 510.603,296.727 510.514,296.701 510.408,296.701 C 510.306,296.701 510.216,296.729 510.137,296.784 C 510.058,296.839 509.998,296.919 509.955,297.024 C 509.913,297.129 509.892,297.252 509.892,297.394 C 509.892,297.507 509.906,297.605 509.934,297.688 C 509.962,297.77 509.999,297.839 510.046,297.893 C 510.093,297.948 510.141,297.988 510.193,298.013 C 510.244,298.038 510.294,298.051 510.342,298.051 C 510.387,298.051 510.427,298.035 510.462,298.003 C 510.498,297.972 510.516,297.933 510.516,297.886 C 510.516,297.843 510.505,297.811 510.484,297.788 C 510.462,297.766 510.427,297.742 510.379,297.716 C 510.309,297.683 510.255,297.642 510.216,297.595 C 510.177,297.548 510.157,297.473 510.157,297.369 C 510.157,297.272 510.178,297.195 510.221,297.135 C 510.263,297.076 510.314,297.047 510.374,297.047 C 510.411,297.047 510.442,297.057 510.469,297.077 C 510.496,297.097 510.519,297.125 510.538,297.16 C 510.558,297.195 510.573,297.231 510.584,297.267 C 510.595,297.303 510.611,297.363 510.632,297.446 C 510.656,297.55 510.683,297.644 510.712,297.728 C 510.741,297.812 510.777,297.884 510.819,297.943 C 510.861,298.002 510.914,298.048 510.978,298.081 C 511.042,298.115 511.121,298.131 511.214,298.131 Z" marker-start="none" marker-end="none"/>
        <path d="M 510.101,298.761 L 510.61,298.761 C 510.56,298.804 510.52,298.847 510.491,298.888 C 510.461,298.93 510.439,298.976 510.425,299.026 C 510.41,299.076 510.403,299.131 510.403,299.188 C 510.403,299.276 510.421,299.353 510.458,299.421 C 510.495,299.488 510.549,299.541 510.619,299.58 C 510.66,299.604 510.706,299.62 510.757,299.629 C 510.807,299.637 510.866,299.641 510.932,299.641 L 511.59,299.641 C 511.659,299.641 511.711,299.626 511.746,299.594 C 511.781,299.563 511.799,299.521 511.799,299.469 C 511.799,299.356 511.729,299.299 511.59,299.299 L 511.01,299.299 C 510.9,299.299 510.816,299.283 510.757,299.25 C 510.698,299.217 510.668,299.155 510.668,299.064 C 510.668,299.003 510.685,298.948 510.72,298.898 C 510.755,298.849 510.803,298.813 510.863,298.788 C 510.914,298.77 511.005,298.761 511.136,298.761 L 511.59,298.761 C 511.658,298.761 511.71,298.745 511.745,298.715 C 511.781,298.684 511.799,298.642 511.799,298.587 C 511.799,298.474 511.729,298.417 511.59,298.417 L 510.101,298.417 C 510.031,298.417 509.979,298.432 509.944,298.462 C 509.909,298.492 509.892,298.533 509.892,298.587 C 509.892,298.642 509.91,298.684 509.945,298.715 C 509.98,298.745 510.032,298.761 510.101,298.761 Z" marker-start="none" marker-end="none"/>
        <path d="M 510.598,300.325 L 511.59,300.325 C 511.659,300.325 511.711,300.309 511.746,300.276 C 511.781,300.244 511.799,300.202 511.799,300.152 C 511.799,300.101 511.781,300.061 511.745,300.029 C 511.709,299.998 511.657,299.982 511.59,299.982 L 510.608,299.982 C 510.54,299.982 510.489,299.998 510.454,300.029 C 510.42,300.061 510.403,300.101 510.403,300.152 C 510.403,300.202 510.42,300.244 510.454,300.276 C 510.489,300.309 510.536,300.325 510.598,300.325 Z M 510.243,300.155 C 510.243,300.108 510.228,300.067 510.199,300.033 C 510.169,299.999 510.128,299.982 510.074,299.982 C 510.026,299.982 509.986,299.999 509.954,300.034 C 509.923,300.069 509.907,300.109 509.907,300.155 C 509.907,300.2 509.921,300.239 509.95,300.274 C 509.978,300.308 510.02,300.325 510.074,300.325 C 510.127,300.325 510.168,300.309 510.198,300.275 C 510.228,300.241 510.243,300.202 510.243,300.155 Z" marker-start="none" marker-end="none"/>
        <path d="M 510.595,300.997 L 510.637,300.997 C 510.557,301.061 510.498,301.129 510.461,301.198 C 510.424,301.268 510.405,301.347 510.405,301.435 C 510.405,301.54 510.432,301.638 510.487,301.726 C 510.541,301.815 510.621,301.886 510.726,301.937 C 510.831,301.989 510.955,302.015 511.098,302.015 C 511.204,302.015 511.301,302 511.39,301.97 C 511.478,301.94 511.552,301.899 511.612,301.847 C 511.672,301.795 511.718,301.734 511.751,301.663 C 511.783,301.592 511.799,301.516 511.799,301.435 C 511.799,301.337 511.779,301.254 511.74,301.187 C 511.7,301.121 511.643,301.057 511.566,300.997 L 512.082,300.997 C 512.233,300.997 512.308,300.942 512.308,300.832 C 512.308,300.768 512.289,300.725 512.25,300.704 C 512.211,300.683 512.154,300.672 512.079,300.672 L 510.598,300.672 C 510.532,300.672 510.483,300.687 510.451,300.715 C 510.419,300.744 510.403,300.783 510.403,300.832 C 510.403,300.881 510.419,300.92 510.452,300.951 C 510.485,300.982 510.533,300.997 510.595,300.997 Z M 511.094,301.67 C 511.004,301.67 510.926,301.656 510.861,301.628 C 510.796,301.601 510.746,301.562 510.711,301.513 C 510.677,301.464 510.659,301.41 510.659,301.35 C 510.659,301.256 510.697,301.176 510.771,301.111 C 510.846,301.046 510.956,301.013 511.101,301.013 C 511.237,301.013 511.344,301.046 511.42,301.11 C 511.496,301.175 511.534,301.255 511.534,301.35 C 511.534,301.407 511.517,301.46 511.484,301.509 C 511.451,301.557 511.401,301.596 511.335,301.626 C 511.269,301.655 511.188,301.67 511.094,301.67 Z" marker-start="none" marker-end="none"/>
       </g>
      </g>
      <path d="M 510.792,304.765 C 511.329,304.765 511.765,304.329 511.765,303.792 C 511.765,303.254 511.329,302.818 510.792,302.818 C 510.254,302.818 509.818,303.254 509.818,303.792 C 509.818,304.329 510.254,304.765 510.792,304.765 Z" stroke="#ffffff" fill="#ffffff" stroke-width="0.089" marker-start="none" marker-end="none" stroke-miterlimit="79.8403193612775"/>
      <path d="M 457.909,311.559 L 457.909,288.99 C 457.909,288.021 458.695,287.235 459.664,287.235 L 511.547,287.235 C 512.515,287.235 513.302,288.021 513.302,288.99 L 513.302,311.559 C 513.302,312.528 512.515,313.314 511.547,313.314 L 459.664,313.314 C 458.695,313.314 457.909,312.528 457.909,311.559 Z" stroke="#ffffff" stroke-width="0.178" marker-start="none" marker-end="none" stroke-miterlimit="79.8403193612775"/>
      <g id="Group_9">
       <path d="M 512.635,314.209 C 513.176,314.209 513.615,313.77 513.615,313.229 C 513.615,312.687 513.176,312.248 512.635,312.248 C 512.093,312.248 511.654,312.687 511.654,313.229 C 511.654,313.77 512.093,314.209 512.635,314.209 Z" stroke="#999999" fill="#cccccc" stroke-width="0.169" marker-start="none" marker-end="none" stroke-miterlimit="79.8403193612775"/>
       <g id="Group_10" fill-rule="nonzero" stroke="none" stroke-width="0.052" fill="#4c4c4c" stroke-miterlimit="79.8403193612775">
        <g id="Group_11">
         <path d="M 512.766,312.697 L 512.499,312.697 L 512.499,313.091 L 512.102,313.091 L 512.102,313.363 L 512.499,313.363 L 512.499,313.759 L 512.766,313.759 L 512.766,313.363 L 513.165,313.363 L 513.165,313.091 L 512.766,313.091 L 512.766,312.697 Z" marker-start="none" marker-end="none"/>
        </g>
       </g>
      </g>
      <path d="M 453.925,300.845 L 453.925,299.882 C 453.925,299.778 454.01,299.693 454.115,299.693 L 456.58,299.693 C 456.684,299.693 456.769,299.778 456.769,299.882 L 456.769,300.845 C 456.769,300.949 456.684,301.034 456.58,301.034 L 454.115,301.034 C 454.01,301.034 453.925,300.949 453.925,300.845 Z" fill="#cccccc" stroke="#999999" stroke-width="0.089" marker-start="none" marker-end="none" stroke-miterlimit="79.8403193612775"/>
      <path d="M 456.543,279.752 L 456.543,282.38 C 456.543,282.684 456.79,282.93 457.093,282.93 L 514.25,282.93 C 514.554,282.93 514.801,282.684 514.801,282.38 L 514.801,279.752 C 514.801,279.449 514.554,279.202 514.25,279.202 L 506.245,279.202 L 506.245,280.448 L 506.244,280.448 C 506.244,280.457 506.245,280.466 506.245,280.475 C 506.245,281.012 505.794,281.448 505.238,281.448 C 504.683,281.448 504.232,281.012 504.232,280.475 C 504.232,280.466 504.232,280.457 504.232,280.448 L 504.232,279.202 L 465.692,279.202 L 465.692,280.473 L 465.691,280.473 C 465.691,280.482 465.692,280.491 465.692,280.5 C 465.692,281.037 465.241,281.473 464.685,281.473 C 464.13,281.473 463.679,281.037 463.679,280.5 C 463.679,280.491 463.679,280.482 463.679,280.473 L 463.679,279.202 L 457.093,279.202 C 456.79,279.202 456.543,279.449 456.543,279.752 Z" fill="#b2b2b2" stroke-width="0.089" stroke="#999999" marker-start="none" marker-end="none" stroke-miterlimit="79.8403193612775"/>
      <g id="Group_12" fill-rule="nonzero" stroke="none" fill="#ffffff">
       <path d="M 472.445,309.034 C 472.445,309.034 471.902,309.247 471.352,308.805 C 471.352,308.805 470.699,308.367 470.58,306.52 C 470.58,306.52 470.543,306.213 470.815,306.167 C 470.815,306.167 471.088,306.115 471.124,306.345 C 471.16,306.575 471.153,307.741 471.669,308.339 C 471.669,308.339 471.72,308.414 471.857,308.473 C 471.972,308.544 472.062,308.673 472.13,308.775 C 472.13,308.775 472.231,308.909 472.445,309.034 L 472.445,309.034 Z" marker-start="none" marker-end="none"/>
       <path d="M 473.424,309.077 C 473.424,309.077 472.942,309.23 472.422,308.834 C 472.422,308.834 471.806,308.457 471.662,306.959 C 471.662,306.959 471.609,306.589 471.638,306.402 C 471.638,306.402 471.662,306.183 471.887,306.164 C 471.887,306.164 472.159,306.143 472.176,306.398 C 472.193,306.652 472.199,306.756 472.199,306.756 C 472.199,306.756 472.242,307.751 472.646,308.256 C 472.646,308.256 472.744,308.183 472.744,308.183 C 472.744,308.183 472.881,308.706 473.424,309.077 C 473.424,309.077 473.424,309.077 473.424,309.077 L 473.424,309.077 Z" marker-start="none" marker-end="none"/>
       <path d="M 474.404,309.077 C 474.404,309.077 473.758,309.228 473.29,308.72 C 473.29,308.72 472.826,308.306 472.689,307.278 C 472.689,307.278 472.632,306.727 472.622,306.458 C 472.622,306.458 472.618,306.197 472.868,306.164 C 472.868,306.164 473.126,306.148 473.143,306.422 C 473.143,306.422 473.16,307.68 473.626,308.256 C 473.626,308.256 473.741,308.184 473.741,308.184 C 473.741,308.184 473.942,308.766 474.404,309.077 C 474.404,309.077 474.404,309.077 474.404,309.077 L 474.404,309.077 Z" marker-start="none" marker-end="none"/>
       <path d="M 475.147,309.091 C 475.147,309.091 474.497,309.118 474.115,308.462 C 474.115,308.462 473.674,307.82 473.676,306.504 C 473.676,306.504 473.649,306.192 473.893,306.164 C 473.893,306.164 474.183,306.145 474.183,306.477 C 474.183,306.477 474.196,307.775 474.691,308.3 C 474.691,308.3 475.13,307.773 475.166,306.534 C 475.166,306.534 475.181,305.685 475.34,305.217 C 475.34,305.217 475.483,305.742 475.512,306.47 C 475.512,306.47 475.5,306.603 475.615,306.696 C 475.615,306.696 475.691,306.733 475.676,306.866 C 475.676,306.866 475.57,307.947 475.21,308.559 C 475.21,308.559 475.973,308.609 476.124,307.082 C 476.124,307.082 476.126,306.858 476.25,306.719 C 476.25,306.719 476.34,306.655 476.349,306.498 C 476.349,306.498 476.372,306.282 476.307,305.584 C 476.307,305.584 476.292,305.431 476.359,305.213 C 476.359,305.213 476.547,305.735 476.498,306.246 C 476.498,306.246 476.473,306.662 476.679,306.802 C 476.679,306.802 476.662,307.961 476.201,308.594 C 476.201,308.594 475.836,309.12 475.147,309.091 C 475.147,309.091 475.147,309.091 475.147,309.091 L 475.147,309.091 Z" marker-start="none" marker-end="none"/>
       <path d="M 477.42,303.845 C 477.42,303.845 477.962,303.632 478.512,304.074 C 478.512,304.074 479.165,304.512 479.285,306.359 C 479.285,306.359 479.321,306.666 479.05,306.712 C 479.05,306.712 478.776,306.765 478.741,306.534 C 478.705,306.303 478.712,305.138 478.195,304.54 C 478.195,304.54 478.145,304.465 478.007,304.406 C 477.893,304.335 477.802,304.206 477.735,304.104 C 477.735,304.104 477.634,303.97 477.42,303.845 L 477.42,303.845 Z" marker-start="none" marker-end="none"/>
       <path d="M 476.44,303.802 C 476.44,303.802 476.923,303.648 477.442,304.045 C 477.442,304.045 478.058,304.422 478.203,305.92 C 478.203,305.92 478.255,306.289 478.226,306.477 C 478.226,306.477 478.203,306.696 477.977,306.715 C 477.977,306.715 477.705,306.736 477.688,306.481 C 477.671,306.227 477.665,306.123 477.665,306.123 C 477.665,306.123 477.622,305.127 477.218,304.623 C 477.218,304.623 477.121,304.696 477.121,304.696 C 477.121,304.696 476.983,304.173 476.44,303.802 C 476.44,303.802 476.44,303.802 476.44,303.802 L 476.44,303.802 Z" marker-start="none" marker-end="none"/>
       <path d="M 475.461,303.802 C 475.461,303.802 476.107,303.651 476.574,304.159 C 476.574,304.159 477.038,304.573 477.175,305.6 C 477.175,305.6 477.233,306.153 477.242,306.421 C 477.242,306.421 477.247,306.682 476.996,306.715 C 476.996,306.715 476.738,306.731 476.722,306.457 C 476.722,306.457 476.705,305.199 476.239,304.623 C 476.239,304.623 476.124,304.695 476.124,304.695 C 476.124,304.695 475.922,304.113 475.461,303.802 C 475.461,303.802 475.461,303.802 475.461,303.802 L 475.461,303.802 Z" marker-start="none" marker-end="none"/>
       <path d="M 474.718,303.788 C 474.718,303.788 475.368,303.762 475.75,304.417 C 475.75,304.417 476.191,305.059 476.189,306.375 C 476.189,306.375 476.216,306.687 475.971,306.716 C 475.971,306.716 475.681,306.734 475.681,306.402 C 475.681,306.402 475.669,305.104 475.173,304.58 C 475.173,304.58 474.734,305.106 474.698,306.344 C 474.698,306.344 474.683,307.194 474.525,307.662 C 474.525,307.662 474.381,307.137 474.353,306.41 C 474.353,306.41 474.365,306.277 474.249,306.183 C 474.249,306.183 474.173,306.146 474.188,306.013 C 474.188,306.013 474.294,304.932 474.654,304.32 C 474.654,304.32 473.891,304.27 473.74,305.797 C 473.74,305.797 473.739,306.02 473.615,306.16 C 473.615,306.16 473.524,306.224 473.515,306.381 C 473.515,306.381 473.493,306.597 473.558,307.295 C 473.558,307.295 473.573,307.448 473.506,307.666 C 473.506,307.666 473.317,307.144 473.367,306.633 C 473.367,306.633 473.392,306.217 473.185,306.077 C 473.185,306.077 473.203,304.918 473.663,304.285 C 473.663,304.285 474.028,303.759 474.718,303.788 C 474.718,303.788 474.718,303.788 474.718,303.788 L 474.718,303.788 Z" marker-start="none" marker-end="none"/>
       <path d="M 480.176,307.592 C 480.176,307.592 480.452,308.44 480.452,308.44 C 480.499,308.586 480.654,308.651 480.788,308.583 C 480.906,308.527 480.956,308.397 480.903,308.266 C 480.903,308.266 480.434,307.089 480.434,307.089 C 480.362,306.915 480.244,306.849 480.079,306.908 C 480.005,306.933 479.955,306.986 479.915,307.089 C 479.915,307.089 479.446,308.266 479.446,308.266 C 479.393,308.397 479.443,308.527 479.561,308.583 C 479.694,308.651 479.85,308.583 479.896,308.44 C 479.896,308.44 480.176,307.592 480.176,307.592 C 480.176,307.592 480.176,307.592 480.176,307.592 L 480.176,307.592 Z" marker-start="none" marker-end="none"/>
       <path d="M 481.092,309.232 C 481.201,309.341 481.375,309.338 481.484,309.229 C 481.589,309.121 481.589,308.95 481.484,308.841 C 481.375,308.732 481.201,308.732 481.095,308.838 C 481.042,308.891 481.011,308.962 481.011,309.037 C 481.011,309.108 481.042,309.18 481.092,309.232 C 481.092,309.232 481.092,309.232 481.092,309.232 L 481.092,309.232 Z M 481.049,308.369 C 481.049,308.434 481.074,308.496 481.12,308.54 C 481.213,308.636 481.366,308.633 481.459,308.54 C 481.502,308.493 481.527,308.431 481.527,308.369 C 481.527,308.369 481.527,307.126 481.527,307.126 C 481.53,306.992 481.424,306.887 481.291,306.884 C 481.157,306.884 481.049,306.992 481.049,307.123 C 481.049,307.123 481.049,308.369 481.049,308.369 C 481.049,308.369 481.049,308.369 481.049,308.369 L 481.049,308.369 Z" marker-start="none" marker-end="none"/>
       <path d="M 482.692,308.608 C 483.049,308.568 483.167,308.412 483.127,308.254 C 483.102,308.148 483.024,308.086 482.931,308.089 C 482.915,308.092 482.9,308.092 482.884,308.095 C 482.884,308.095 482.859,308.105 482.859,308.105 C 482.859,308.105 482.816,308.12 482.816,308.12 C 482.816,308.12 482.785,308.13 482.785,308.13 C 482.785,308.13 482.742,308.145 482.742,308.145 C 482.452,308.238 482.219,308.067 482.223,307.741 C 482.229,307.415 482.465,307.256 482.772,307.359 C 482.772,307.359 482.825,307.378 482.825,307.378 C 482.825,307.378 482.847,307.387 482.847,307.387 C 482.987,307.437 483.111,307.368 483.133,307.222 C 483.152,307.101 483.071,306.989 482.847,306.918 C 482.791,306.899 482.732,306.887 482.67,306.88 C 482.135,306.831 481.731,307.204 481.738,307.754 C 481.744,308.307 482.157,308.667 482.692,308.608 C 482.692,308.608 482.692,308.608 482.692,308.608 L 482.692,308.608 Z" marker-start="none" marker-end="none"/>
       <path d="M 483.483,308.589 C 483.483,308.589 483.48,308.866 483.48,308.866 C 483.48,308.996 483.586,309.105 483.719,309.105 C 483.85,309.105 483.959,308.996 483.955,308.866 C 483.955,308.866 483.955,308.589 483.955,308.589 C 483.955,308.589 484.098,308.589 484.098,308.589 C 484.154,308.589 484.21,308.568 484.25,308.524 C 484.335,308.443 484.335,308.307 484.25,308.223 C 484.207,308.182 484.154,308.161 484.095,308.161 C 484.095,308.161 483.955,308.161 483.955,308.161 C 483.955,308.161 483.955,307.129 483.955,307.129 C 483.955,307.067 483.931,307.005 483.887,306.958 C 483.794,306.865 483.645,306.865 483.555,306.958 C 483.508,307.005 483.483,307.067 483.483,307.129 C 483.483,307.129 483.486,308.164 483.486,308.164 C 483.486,308.164 483.402,308.164 483.402,308.164 C 483.343,308.164 483.287,308.185 483.244,308.229 C 483.16,308.31 483.16,308.443 483.247,308.527 C 483.287,308.568 483.343,308.589 483.402,308.589 C 483.402,308.589 483.483,308.589 483.483,308.589 C 483.483,308.589 483.483,308.589 483.483,308.589 L 483.483,308.589 Z" marker-start="none" marker-end="none"/>
       <path d="M 484.405,308.378 C 484.405,308.493 484.502,308.599 484.648,308.608 C 484.797,308.621 484.887,308.527 484.881,308.437 C 484.881,308.437 484.878,308.412 484.878,308.412 C 484.89,308.428 484.902,308.443 484.918,308.456 C 485.102,308.655 485.31,308.651 485.406,308.508 C 485.49,308.384 485.446,308.241 485.322,308.188 C 485.322,308.188 485.297,308.176 485.297,308.176 C 485.297,308.176 485.232,308.154 485.232,308.154 C 485.17,308.133 485.126,308.111 485.089,308.089 C 484.937,307.999 484.884,307.918 484.884,307.841 C 484.884,307.841 484.884,307.126 484.884,307.126 C 484.884,306.995 484.778,306.887 484.645,306.887 C 484.511,306.887 484.405,306.992 484.405,307.123 C 484.405,307.123 484.405,308.378 484.405,308.378 C 484.405,308.378 484.405,308.378 484.405,308.378 L 484.405,308.378 Z" marker-start="none" marker-end="none"/>
       <path d="M 485.912,307.676 C 485.952,307.39 486.12,307.263 486.325,307.309 C 486.462,307.337 486.564,307.461 486.589,307.673 C 486.595,307.722 486.595,307.772 486.589,307.822 C 486.561,308.027 486.455,308.148 486.325,308.176 C 486.126,308.22 485.949,308.095 485.912,307.819 C 485.908,307.794 485.908,307.769 485.908,307.744 C 485.908,307.719 485.908,307.698 485.912,307.676 C 485.912,307.676 485.912,307.676 485.912,307.676 L 485.912,307.676 Z M 485.551,308.213 C 485.706,308.471 485.971,308.621 486.253,308.621 C 486.704,308.621 487.073,308.247 487.076,307.75 C 487.076,307.25 486.707,306.877 486.253,306.877 C 485.796,306.877 485.43,307.25 485.43,307.75 C 485.43,307.931 485.47,308.083 485.551,308.213 C 485.551,308.213 485.551,308.213 485.551,308.213 L 485.551,308.213 Z" marker-start="none" marker-end="none"/>
       <path d="M 487.281,308.366 C 487.281,308.484 487.381,308.596 487.52,308.608 C 487.647,308.621 487.735,308.54 487.735,308.453 C 487.735,308.453 487.735,308.434 487.735,308.434 C 487.809,308.524 487.912,308.583 488.058,308.608 C 488.136,308.623 488.213,308.623 488.288,308.611 C 488.617,308.558 488.797,308.341 488.797,308.015 C 488.797,308.015 488.797,307.123 488.797,307.123 C 488.797,306.989 488.692,306.884 488.561,306.88 C 488.428,306.88 488.319,306.986 488.319,307.12 C 488.319,307.12 488.319,307.934 488.319,307.934 C 488.319,308.008 488.288,308.08 488.235,308.133 C 488.126,308.244 487.949,308.244 487.84,308.136 C 487.788,308.08 487.76,308.012 487.76,307.937 C 487.76,307.937 487.76,307.123 487.76,307.123 C 487.76,306.992 487.651,306.884 487.517,306.887 C 487.386,306.887 487.281,306.995 487.281,307.126 C 487.281,307.126 487.281,308.366 487.281,308.366 C 487.281,308.366 487.281,308.366 487.281,308.366 L 487.281,308.366 Z" marker-start="none" marker-end="none"/>
       <path d="M 491.006,307.906 C 491.003,307.915 491.003,307.927 491,307.937 C 490.951,308.164 490.789,308.269 490.606,308.226 C 490.491,308.198 490.391,308.099 490.351,307.943 C 490.348,307.931 490.348,307.918 490.345,307.906 C 490.345,307.906 491.006,307.906 491.006,307.906 C 491.006,307.906 491.006,307.906 491.006,307.906 L 491.006,307.906 Z M 490.357,307.598 C 490.369,307.539 490.397,307.48 490.438,307.43 C 490.565,307.278 490.798,307.241 491.062,307.381 C 491.215,307.464 491.258,307.471 491.339,307.44 C 491.385,307.421 491.423,307.384 491.441,307.337 C 491.51,307.169 491.302,306.88 490.717,306.877 C 490.124,306.877 489.729,307.368 489.866,307.958 C 489.944,308.3 490.202,308.546 490.525,308.605 C 490.897,308.673 491.252,308.484 491.407,308.13 C 491.448,308.033 491.472,307.934 491.479,307.859 C 491.497,307.666 491.435,307.598 491.277,307.598 C 491.277,307.598 490.357,307.598 490.357,307.598 C 490.357,307.598 490.357,307.598 490.357,307.598 L 490.357,307.598 Z" marker-start="none" marker-end="none"/>
       <path d="M 491.655,308.366 C 491.655,308.484 491.755,308.596 491.895,308.608 C 492.022,308.621 492.109,308.54 492.109,308.453 C 492.109,308.453 492.109,308.434 492.109,308.434 C 492.184,308.524 492.286,308.583 492.432,308.608 C 492.51,308.623 492.587,308.623 492.662,308.611 C 492.991,308.558 493.172,308.341 493.172,308.015 C 493.172,308.015 493.172,307.123 493.172,307.123 C 493.172,306.989 493.066,306.884 492.935,306.88 C 492.802,306.88 492.693,306.986 492.693,307.12 C 492.693,307.12 492.693,307.934 492.693,307.934 C 492.693,308.008 492.662,308.08 492.609,308.133 C 492.5,308.244 492.323,308.244 492.214,308.136 C 492.162,308.08 492.134,308.012 492.134,307.937 C 492.134,307.937 492.134,307.123 492.134,307.123 C 492.134,306.992 492.025,306.884 491.892,306.887 C 491.761,306.887 491.655,306.995 491.655,307.126 C 491.655,307.126 491.655,308.366 491.655,308.366 C 491.655,308.366 491.655,308.366 491.655,308.366 L 491.655,308.366 Z" marker-start="none" marker-end="none"/>
       <path d="M 494.542,307.906 C 494.538,307.915 494.538,307.927 494.535,307.937 C 494.486,308.164 494.324,308.269 494.141,308.226 C 494.026,308.198 493.926,308.099 493.886,307.943 C 493.883,307.931 493.883,307.918 493.88,307.906 C 493.88,307.906 494.542,307.906 494.542,307.906 C 494.542,307.906 494.542,307.906 494.542,307.906 L 494.542,307.906 Z M 493.892,307.598 C 493.904,307.539 493.933,307.48 493.973,307.43 C 494.1,307.278 494.333,307.241 494.597,307.381 C 494.75,307.464 494.793,307.471 494.874,307.44 C 494.92,307.421 494.958,307.384 494.976,307.337 C 495.045,307.169 494.837,306.88 494.252,306.877 C 493.659,306.877 493.264,307.368 493.401,307.958 C 493.479,308.3 493.737,308.546 494.06,308.605 C 494.433,308.673 494.787,308.484 494.942,308.13 C 494.983,308.033 495.008,307.934 495.014,307.859 C 495.032,307.666 494.97,307.598 494.812,307.598 C 494.812,307.598 493.892,307.598 493.892,307.598 C 493.892,307.598 493.892,307.598 493.892,307.598 L 493.892,307.598 Z" marker-start="none" marker-end="none"/>
       <path d="M 495.19,308.378 C 495.19,308.493 495.287,308.599 495.432,308.608 C 495.582,308.621 495.672,308.527 495.666,308.437 C 495.666,308.437 495.662,308.412 495.662,308.412 C 495.675,308.428 495.688,308.443 495.703,308.456 C 495.886,308.655 496.095,308.651 496.191,308.508 C 496.275,308.384 496.231,308.241 496.107,308.188 C 496.107,308.188 496.082,308.176 496.082,308.176 C 496.082,308.176 496.017,308.154 496.017,308.154 C 495.955,308.133 495.911,308.111 495.874,308.089 C 495.722,307.999 495.669,307.918 495.669,307.841 C 495.669,307.841 495.669,307.126 495.669,307.126 C 495.669,306.995 495.563,306.887 495.43,306.887 C 495.296,306.887 495.19,306.992 495.19,307.123 C 495.19,307.123 495.19,308.378 495.19,308.378 C 495.19,308.378 495.19,308.378 495.19,308.378 L 495.19,308.378 Z" marker-start="none" marker-end="none"/>
       <path d="M 496.79,307.43 C 496.923,307.269 497.169,307.272 497.293,307.44 C 497.349,307.514 497.377,307.604 497.38,307.735 C 497.38,307.946 497.302,308.08 497.178,308.142 C 496.97,308.244 496.737,308.108 496.7,307.825 C 496.696,307.797 496.693,307.766 496.693,307.738 C 496.693,307.608 496.73,307.505 496.79,307.43 C 496.79,307.43 496.79,307.43 496.79,307.43 L 496.79,307.43 Z M 497.392,308.446 C 497.396,308.536 497.482,308.617 497.61,308.605 C 497.75,308.593 497.849,308.48 497.849,308.36 C 497.849,308.36 497.849,307.114 497.849,307.114 C 497.849,306.492 497.482,306.154 496.836,306.222 C 496.706,306.237 496.588,306.268 496.476,306.318 C 496.246,306.424 496.205,306.585 496.317,306.703 C 496.379,306.772 496.457,306.787 496.563,306.753 C 496.563,306.753 496.566,306.75 496.566,306.75 C 496.566,306.75 496.662,306.706 496.662,306.706 C 496.684,306.697 496.706,306.688 496.727,306.682 C 497.135,306.536 497.368,306.703 497.377,307.014 C 497.38,307.036 497.377,307.058 497.377,307.079 C 497.2,306.828 496.762,306.784 496.46,307.082 C 496.268,307.275 496.171,307.592 496.234,307.937 C 496.255,308.061 496.296,308.167 496.352,308.257 C 496.616,308.683 497.15,308.723 497.392,308.425 C 497.392,308.425 497.392,308.446 497.392,308.446 C 497.392,308.446 497.392,308.446 497.392,308.446 L 497.392,308.446 Z" marker-start="none" marker-end="none"/>
       <path d="M 498.116,308.586 C 498.25,308.642 498.387,308.58 498.442,308.428 C 498.442,308.428 498.741,307.629 498.741,307.629 C 498.741,307.629 499.045,308.431 499.045,308.431 C 499.104,308.583 499.244,308.645 499.375,308.583 C 499.493,308.527 499.542,308.394 499.493,308.272 C 499.493,308.272 498.719,306.377 498.719,306.377 C 498.654,306.219 498.523,306.16 498.393,306.212 C 498.268,306.265 498.216,306.399 498.268,306.526 C 498.268,306.526 498.492,307.042 498.492,307.042 C 498.492,307.042 497.986,308.282 497.986,308.282 C 497.939,308.4 497.995,308.536 498.116,308.586 C 498.116,308.586 498.116,308.586 498.116,308.586 L 498.116,308.586 Z" marker-start="none" marker-end="none"/>
       <path d="M 482.869,305.884 C 482.892,305.865 482.904,305.836 482.904,305.796 C 482.904,305.754 482.892,305.723 482.868,305.703 C 482.844,305.684 482.806,305.674 482.754,305.674 C 482.739,305.674 482.717,305.676 482.689,305.678 C 482.689,305.678 482.689,305.91 482.689,305.91 C 482.689,305.91 482.755,305.912 482.755,305.912 C 482.809,305.912 482.847,305.902 482.869,305.884 C 482.869,305.884 482.869,305.884 482.869,305.884 L 482.869,305.884 Z M 482.932,305.656 C 482.971,305.687 482.991,305.73 482.991,305.783 C 482.991,305.829 482.98,305.865 482.958,305.892 C 482.936,305.919 482.901,305.938 482.853,305.95 C 482.878,305.956 482.901,305.97 482.922,305.993 C 482.943,306.016 482.954,306.042 482.954,306.07 C 482.954,306.118 482.937,306.155 482.904,306.181 C 482.872,306.207 482.825,306.22 482.765,306.22 C 482.733,306.22 482.68,306.218 482.606,306.214 C 482.606,306.214 482.606,305.608 482.606,305.608 C 482.606,305.608 482.779,305.608 482.779,305.608 C 482.842,305.608 482.893,305.624 482.932,305.656 C 482.932,305.656 482.932,305.656 482.932,305.656 L 482.932,305.656 Z M 482.763,306.151 C 482.835,306.151 482.871,306.123 482.871,306.067 C 482.871,306.003 482.832,305.971 482.753,305.971 C 482.728,305.971 482.706,305.972 482.689,305.974 C 482.689,305.974 482.689,306.148 482.689,306.148 C 482.711,306.15 482.735,306.151 482.763,306.151 C 482.763,306.151 482.763,306.151 482.763,306.151 L 482.763,306.151 Z" marker-start="none" marker-end="none"/>
       <path d="M 484.205,305.608 C 484.205,305.608 483.849,305.608 483.849,305.608 C 483.849,305.608 483.849,306.214 483.849,306.214 C 483.849,306.214 483.931,306.214 483.931,306.214 C 483.931,306.214 483.931,305.682 483.931,305.682 C 483.931,305.682 484.205,305.682 484.205,305.682 C 484.205,305.682 484.205,305.608 484.205,305.608 C 484.205,305.608 484.205,305.608 484.205,305.608 L 484.205,305.608 Z" marker-start="none" marker-end="none"/>
       <path d="M 485.041,305.793 C 485.041,305.793 485.041,306.214 485.041,306.214 C 485.041,306.214 485.123,306.214 485.123,306.214 C 485.123,306.214 485.123,305.799 485.123,305.799 C 485.123,305.762 485.135,305.732 485.158,305.708 C 485.182,305.684 485.213,305.672 485.251,305.672 C 485.292,305.672 485.325,305.684 485.348,305.707 C 485.371,305.73 485.383,305.762 485.383,305.801 C 485.383,305.801 485.383,306.214 485.383,306.214 C 485.383,306.214 485.466,306.214 485.466,306.214 C 485.466,306.214 485.466,305.793 485.466,305.793 C 485.466,305.731 485.447,305.683 485.408,305.649 C 485.37,305.615 485.318,305.598 485.252,305.598 C 485.184,305.598 485.132,305.614 485.095,305.648 C 485.059,305.682 485.041,305.73 485.041,305.793 C 485.041,305.793 485.041,305.793 485.041,305.793 L 485.041,305.793 Z" marker-start="none" marker-end="none"/>
       <path d="M 486.856,306.14 C 486.856,306.14 486.577,306.14 486.577,306.14 C 486.577,306.14 486.577,305.971 486.577,305.971 C 486.577,305.971 486.777,305.971 486.777,305.971 C 486.777,305.971 486.777,305.901 486.777,305.901 C 486.777,305.901 486.577,305.901 486.577,305.901 C 486.577,305.901 486.577,305.682 486.577,305.682 C 486.577,305.682 486.851,305.682 486.851,305.682 C 486.851,305.682 486.851,305.608 486.851,305.608 C 486.851,305.608 486.494,305.608 486.494,305.608 C 486.494,305.608 486.494,306.214 486.494,306.214 C 486.494,306.214 486.856,306.214 486.856,306.214 C 486.856,306.214 486.856,306.14 486.856,306.14 C 486.856,306.14 486.856,306.14 486.856,306.14 L 486.856,306.14 Z" marker-start="none" marker-end="none"/>
       <path d="M 488.873,305.837 C 489.028,305.837 489.106,305.905 489.106,306.042 C 489.106,306.16 489.018,306.218 488.842,306.218 C 488.829,306.218 488.792,306.217 488.729,306.214 C 488.729,306.214 488.729,305.608 488.729,305.608 C 488.729,305.608 488.812,305.608 488.812,305.608 C 488.812,305.608 488.812,305.842 488.812,305.842 C 488.843,305.839 488.864,305.837 488.873,305.837 C 488.873,305.837 488.873,305.837 488.873,305.837 L 488.873,305.837 Z M 488.857,306.144 C 488.966,306.144 489.021,306.107 489.021,306.033 C 489.021,305.952 488.97,305.912 488.867,305.912 C 488.865,305.912 488.847,305.913 488.812,305.916 C 488.812,305.916 488.812,306.14 488.812,306.14 C 488.831,306.143 488.846,306.144 488.857,306.144 C 488.857,306.144 488.857,306.144 488.857,306.144 L 488.857,306.144 Z" marker-start="none" marker-end="none"/>
       <path d="M 490,305.687 C 490.043,305.627 490.103,305.598 490.179,305.598 C 490.263,305.598 490.328,305.626 490.373,305.682 C 490.418,305.739 490.44,305.817 490.44,305.916 C 490.44,306.013 490.418,306.089 490.373,306.144 C 490.328,306.198 490.264,306.225 490.179,306.225 C 490.105,306.225 490.045,306.195 490.002,306.137 C 489.957,306.077 489.935,306.004 489.935,305.916 C 489.935,305.823 489.957,305.747 490,305.687 C 490,305.687 490,305.687 490,305.687 L 490,305.687 Z M 490.062,306.088 C 490.089,306.13 490.128,306.15 490.179,306.15 C 490.295,306.15 490.353,306.072 490.353,305.916 C 490.353,305.839 490.338,305.779 490.309,305.736 C 490.279,305.693 490.236,305.672 490.179,305.672 C 490.129,305.672 490.091,305.696 490.063,305.742 C 490.036,305.789 490.022,305.847 490.022,305.916 C 490.022,305.989 490.036,306.046 490.062,306.088 C 490.062,306.088 490.062,306.088 490.062,306.088 L 490.062,306.088 Z" marker-start="none" marker-end="none"/>
       <path d="M 491.953,306.214 C 491.953,306.214 491.764,305.6 491.764,305.6 C 491.764,305.6 491.738,305.6 491.738,305.6 C 491.738,305.6 491.594,306.018 491.594,306.018 C 491.594,306.018 491.459,305.6 491.459,305.6 C 491.459,305.6 491.433,305.6 491.433,305.6 C 491.433,305.6 491.241,306.214 491.241,306.214 C 491.241,306.214 491.328,306.214 491.328,306.214 C 491.328,306.214 491.449,305.791 491.449,305.791 C 491.449,305.791 491.582,306.214 491.582,306.214 C 491.582,306.214 491.611,306.214 491.611,306.214 C 491.611,306.214 491.743,305.792 491.743,305.792 C 491.743,305.792 491.867,306.214 491.867,306.214 C 491.867,306.214 491.953,306.214 491.953,306.214 C 491.953,306.214 491.953,306.214 491.953,306.214 L 491.953,306.214 Z" marker-start="none" marker-end="none"/>
       <path d="M 493.145,306.14 C 493.145,306.14 492.866,306.14 492.866,306.14 C 492.866,306.14 492.866,305.971 492.866,305.971 C 492.866,305.971 493.066,305.971 493.066,305.971 C 493.066,305.971 493.066,305.901 493.066,305.901 C 493.066,305.901 492.866,305.901 492.866,305.901 C 492.866,305.901 492.866,305.682 492.866,305.682 C 492.866,305.682 493.141,305.682 493.141,305.682 C 493.141,305.682 493.141,305.608 493.141,305.608 C 493.141,305.608 492.783,305.608 492.783,305.608 C 492.783,305.608 492.783,306.214 492.783,306.214 C 492.783,306.214 493.145,306.214 493.145,306.214 C 493.145,306.214 493.145,306.14 493.145,306.14 C 493.145,306.14 493.145,306.14 493.145,306.14 L 493.145,306.14 Z" marker-start="none" marker-end="none"/>
       <path d="M 494.255,305.887 C 494.288,305.894 494.315,305.913 494.339,305.944 C 494.362,305.974 494.374,306.009 494.374,306.047 C 494.374,306.163 494.301,306.22 494.155,306.22 C 494.137,306.22 494.108,306.22 494.069,306.217 C 494.028,306.215 494.007,306.214 494.004,306.214 C 494.004,306.214 494.004,305.608 494.004,305.608 C 494.004,305.608 494.087,305.608 494.087,305.608 C 494.087,305.608 494.087,305.872 494.087,305.872 C 494.127,305.87 494.156,305.868 494.174,305.868 C 494.174,305.868 494.336,305.608 494.336,305.608 C 494.336,305.608 494.431,305.608 494.431,305.608 C 494.431,305.608 494.255,305.887 494.255,305.887 C 494.255,305.887 494.255,305.887 494.255,305.887 L 494.255,305.887 Z M 494.136,306.144 C 494.188,306.144 494.227,306.137 494.251,306.122 C 494.275,306.107 494.287,306.082 494.287,306.048 C 494.287,306.007 494.276,305.979 494.253,305.962 C 494.23,305.947 494.194,305.939 494.145,305.939 C 494.126,305.939 494.106,305.94 494.087,305.943 C 494.087,305.943 494.087,306.14 494.087,306.14 C 494.111,306.143 494.127,306.144 494.136,306.144 C 494.136,306.144 494.136,306.144 494.136,306.144 L 494.136,306.144 Z" marker-start="none" marker-end="none"/>
      </g>
      <path d="M 456.472,315.871 L 456.472,284.848 L 457.139,284.848 L 457.139,315.871 L 456.472,315.871 Z" fill="#7f7f7f" stroke="none" stroke-width="0.089" marker-start="none" marker-end="none" stroke-miterlimit="79.8403193612775"/>
      <path d="M 517.334,299.854 L 517.334,300.817 C 517.334,300.921 517.249,301.006 517.144,301.006 L 514.679,301.006 C 514.575,301.006 514.49,300.921 514.49,300.817 L 514.49,299.854 C 514.49,299.75 514.575,299.665 514.679,299.665 L 517.144,299.665 C 517.249,299.665 517.334,299.75 517.334,299.854 Z" fill="#cccccc" stroke="#999999" stroke-width="0.089" marker-start="none" marker-end="none" stroke-miterlimit="79.8403193612775"/>
      <path d="M 514.163,315.871 L 514.163,284.848 L 514.83,284.848 L 514.83,315.871 L 514.163,315.871 Z" fill="#7f7f7f" stroke="none" stroke-width="0.089" marker-start="none" marker-end="none" stroke-miterlimit="79.8403193612775"/>
      <path d="M 457.402,315.87 L 457.402,314.794 L 513.924,314.794 L 513.924,315.87 L 457.402,315.87 Z" stroke="none" fill="#cccccc" stroke-width="0.089" marker-start="none" marker-end="none" stroke-miterlimit="79.8403193612775"/>
      <path d="M 457.402,285.969 L 457.402,284.893 L 513.924,284.893 L 513.924,285.969 L 457.402,285.969 Z" stroke="none" fill="#cccccc" stroke-width="0.089" marker-start="none" marker-end="none" stroke-miterlimit="79.8403193612775"/>
      <path d="M 514.776,321.004 L 514.776,318.376 C 514.776,318.073 514.529,317.826 514.226,317.826 L 457.069,317.826 C 456.765,317.826 456.519,318.073 456.519,318.376 L 456.519,321.004 C 456.519,321.308 456.765,321.554 457.069,321.554 L 465.074,321.554 L 465.074,320.308 L 465.075,320.308 C 465.075,320.299 465.074,320.29 465.074,320.281 C 465.074,319.744 465.525,319.308 466.081,319.308 C 466.636,319.308 467.087,319.744 467.087,320.281 C 467.087,320.29 467.087,320.299 467.087,320.308 L 467.087,321.554 L 505.627,321.554 L 505.627,320.283 L 505.628,320.283 C 505.628,320.275 505.627,320.266 505.627,320.256 C 505.627,319.72 506.078,319.284 506.634,319.284 C 507.189,319.284 507.64,319.72 507.64,320.256 C 507.64,320.266 507.64,320.275 507.64,320.283 L 507.64,321.554 L 514.226,321.554 C 514.529,321.554 514.776,321.308 514.776,321.004 Z" fill="#b2b2b2" stroke-width="0.089" stroke="#999999" marker-start="none" marker-end="none" stroke-miterlimit="79.8403193612775"/>
      <path d="M 456.49,318.768 L 456.49,315.936 L 514.815,315.936 L 514.815,318.768 L 456.49,318.768 Z" stroke="#e5e5e5" stroke-width="0.178" fill="#cccccc" marker-start="none" marker-end="none" stroke-miterlimit="79.8403193612775"/>
      <path d="M 514.846,282.009 L 514.846,284.841 L 456.497,284.841 L 456.497,282.009 L 514.846,282.009 Z" stroke="#e5e5e5" stroke-width="0.178" fill="#cccccc" marker-start="none" marker-end="none" stroke-miterlimit="79.8403193612775"/>
      <path d="M 455.13,301.337 L 455.13,299.336 C 455.13,299.118 455.307,298.941 455.524,298.941 L 455.996,298.941 C 456.214,298.941 456.391,299.118 456.391,299.336 L 456.391,301.337 C 456.391,301.555 456.214,301.732 455.996,301.732 L 455.524,301.732 C 455.307,301.732 455.13,301.555 455.13,301.337 Z" fill="#cccccc" stroke="#999999" stroke-width="0.089" marker-start="none" marker-end="none" stroke-miterlimit="79.8403193612775"/>
      <path d="M 455.132,300.873 L 455.132,299.862 L 456.395,299.862 L 456.395,300.873 L 455.132,300.873 Z" fill="#b2b2b2" stroke="#999999" stroke-width="0.089" stroke-linejoin="miter" marker-start="none" marker-end="none" stroke-miterlimit="79.8403193612775"/>
      <path d="M 516.129,299.361 L 516.129,301.362 C 516.129,301.58 515.952,301.757 515.735,301.757 L 515.263,301.757 C 515.045,301.757 514.868,301.58 514.868,301.362 L 514.868,299.361 C 514.868,299.143 515.045,298.966 515.263,298.966 L 515.735,298.966 C 515.952,298.966 516.129,299.143 516.129,299.361 Z" fill="#cccccc" stroke="#999999" stroke-width="0.089" marker-start="none" marker-end="none" stroke-miterlimit="79.8403193612775"/>
      <path d="M 516.127,299.826 L 516.127,300.837 L 514.864,300.837 L 514.864,299.826 L 516.127,299.826 Z" fill="#b2b2b2" stroke="#999999" stroke-width="0.089" stroke-linejoin="miter" marker-start="none" marker-end="none" stroke-miterlimit="79.8403193612775"/>
     </g>
     <g id="Group_13" stroke="#e5e5e5" stroke-width="0.178" fill="#cccccc" stroke-miterlimit="79.8403193612775">
      <path d="M 514.828,283.69 L 514.828,284.279 L 456.505,284.279 L 456.505,283.69 L 514.828,283.69 Z" marker-start="none" marker-end="none"/>
      <path d="M 514.818,282.513 L 514.818,283.106 L 456.495,283.106 L 456.495,282.513 L 514.818,282.513 Z" marker-start="none" marker-end="none"/>
     </g>
     <g id="Group_14" stroke="#e5e5e5" stroke-width="0.178" fill="#cccccc" stroke-miterlimit="79.8403193612775">
      <path d="M 514.815,317.655 L 514.815,318.244 L 456.492,318.244 L 456.492,317.655 L 514.815,317.655 Z" marker-start="none" marker-end="none"/>
      <path d="M 514.804,316.478 L 514.804,317.071 L 456.481,317.071 L 456.481,316.478 L 514.804,316.478 Z" marker-start="none" marker-end="none"/>
     </g>
    </g>
   </g>
   <g id="logo"/>
  </g>
 </g>
</svg>
